M48
; DRILL file {KiCad (6.0.7)} date Wed Mar 15 17:16:24 2023
; FORMAT={-:-/ absolute / metric / decimal}
; #@! TF.CreationDate,2023-03-15T17:16:24-04:00
; #@! TF.GenerationSoftware,Kicad,Pcbnew,(6.0.7)
; #@! TF.FileFunction,MixedPlating,1,2
FMAT,2
METRIC
; #@! TA.AperFunction,Plated,PTH,ViaDrill
T1C0.400
; #@! TA.AperFunction,Plated,PTH,ComponentDrill
T2C0.750
; #@! TA.AperFunction,Plated,PTH,ComponentDrill
T3C0.800
; #@! TA.AperFunction,Plated,PTH,ComponentDrill
T4C0.900
; #@! TA.AperFunction,Plated,PTH,ComponentDrill
T5C1.000
; #@! TA.AperFunction,Plated,PTH,ComponentDrill
T6C1.000
; #@! TA.AperFunction,Plated,PTH,ComponentDrill
T7C1.100
; #@! TA.AperFunction,Plated,PTH,ComponentDrill
T8C1.200
; #@! TA.AperFunction,Plated,PTH,ComponentDrill
T9C3.200
; #@! TA.AperFunction,NonPlated,NPTH,ComponentDrill
T10C2.000
%
G90
G05
T1
X128.905Y-78.105
X132.207Y-78.041
X136.081Y-82.804
X139.129Y-84.582
X142.049Y-59.88
X143.002Y-100.711
T2
X144.06Y-67.693
X144.06Y-68.963
X144.06Y-70.233
X144.569Y-108.394
X144.569Y-109.664
X144.569Y-110.934
X153.099Y-69.09
X153.099Y-70.36
X153.099Y-71.63
X153.416Y-110.172
X153.416Y-111.442
X153.416Y-112.712
X158.983Y-108.902
X158.983Y-110.172
X158.983Y-111.442
T3
X88.065Y-110.553
X90.565Y-110.553
X96.701Y-110.617
X99.201Y-110.617
X135.319Y-62.208
X135.319Y-64.709
X136.906Y-102.275
X136.906Y-104.775
X169.355Y-62.484
X171.855Y-62.484
X177.101Y-107.114
X177.101Y-109.654
X177.101Y-112.194
X177.165Y-75.692
X177.165Y-78.232
X177.165Y-80.772
X177.165Y-94.795
X177.165Y-97.335
X177.165Y-99.876
X178.308Y-63.172
X178.308Y-65.712
X178.308Y-68.252
T4
X94.043Y-93.53
X94.043Y-96.07
X104.284Y-75.692
X104.284Y-78.232
X104.284Y-80.772
X104.284Y-83.312
X104.284Y-85.852
X104.284Y-88.392
X104.284Y-90.932
X104.284Y-93.472
X104.284Y-96.012
X104.284Y-98.552
X104.284Y-101.092
X104.284Y-103.632
X104.284Y-106.172
X104.284Y-108.712
X104.284Y-111.252
X119.524Y-75.692
X119.524Y-78.232
X119.524Y-80.772
X119.524Y-83.312
X119.524Y-85.852
X119.524Y-88.392
X119.524Y-90.932
X119.524Y-93.472
X119.524Y-96.012
X119.524Y-98.552
X119.524Y-101.092
X119.524Y-103.632
X119.524Y-106.172
X119.524Y-108.712
X119.524Y-111.252
X129.731Y-87.185
X129.731Y-94.805
X132.27Y-87.185
X132.27Y-94.805
X134.81Y-87.185
X134.81Y-94.805
X137.35Y-87.185
X137.35Y-94.805
X139.891Y-87.185
X139.891Y-94.805
X142.43Y-87.185
X142.43Y-94.805
X144.97Y-87.185
X144.97Y-94.805
X147.511Y-87.185
X147.511Y-94.805
T5
X88.153Y-82.486
X90.693Y-82.486
X93.233Y-82.486
X99.695Y-97.536
X99.695Y-100.076
X161.148Y-103.441
X162.057Y-58.102
X163.688Y-103.441
X164.597Y-58.102
X164.719Y-99.631
X166.228Y-103.441
X167.259Y-99.631
X171.513Y-109.606
X171.513Y-112.146
X171.641Y-72.39
X171.641Y-74.93
X171.641Y-77.47
X176.403Y-85.603
X176.403Y-88.143
T6
X157.734Y-67.804
X157.734Y-70.104
X157.734Y-72.404
T7
X88.138Y-87.376
X88.138Y-97.536
X88.963Y-104.577
X91.504Y-104.577
X94.043Y-104.577
T8
X162.433Y-65.959
X162.433Y-73.579
X166.814Y-68.689
X166.814Y-76.309
T9
X86.36Y-55.626
X86.36Y-118.745
X179.07Y-55.626
X179.07Y-118.808
T10
X125.0Y-90.995
X155.74Y-90.995
T5
X91.744Y-71.593G85X91.744Y-73.792
G05
X96.244Y-77.492G85X94.044Y-77.492
G05
X98.044Y-71.392G85X98.044Y-73.992
G05
T0
M30
