%TF.GenerationSoftware,KiCad,Pcbnew,(6.0.7)*%
%TF.CreationDate,2023-03-15T17:16:25-04:00*%
%TF.ProjectId,NPN Tracer V2,4e504e20-5472-4616-9365-722056322e6b,rev?*%
%TF.SameCoordinates,Original*%
%TF.FileFunction,Paste,Top*%
%TF.FilePolarity,Positive*%
%FSLAX46Y46*%
G04 Gerber Fmt 4.6, Leading zero omitted, Abs format (unit mm)*
G04 Created by KiCad (PCBNEW (6.0.7)) date 2023-03-15 17:16:25*
%MOMM*%
%LPD*%
G01*
G04 APERTURE LIST*
G04 Aperture macros list*
%AMRoundRect*
0 Rectangle with rounded corners*
0 $1 Rounding radius*
0 $2 $3 $4 $5 $6 $7 $8 $9 X,Y pos of 4 corners*
0 Add a 4 corners polygon primitive as box body*
4,1,4,$2,$3,$4,$5,$6,$7,$8,$9,$2,$3,0*
0 Add four circle primitives for the rounded corners*
1,1,$1+$1,$2,$3*
1,1,$1+$1,$4,$5*
1,1,$1+$1,$6,$7*
1,1,$1+$1,$8,$9*
0 Add four rect primitives between the rounded corners*
20,1,$1+$1,$2,$3,$4,$5,0*
20,1,$1+$1,$4,$5,$6,$7,0*
20,1,$1+$1,$6,$7,$8,$9,0*
20,1,$1+$1,$8,$9,$2,$3,0*%
G04 Aperture macros list end*
%ADD10RoundRect,0.250000X0.625000X-0.312500X0.625000X0.312500X-0.625000X0.312500X-0.625000X-0.312500X0*%
%ADD11RoundRect,0.250000X0.312500X0.625000X-0.312500X0.625000X-0.312500X-0.625000X0.312500X-0.625000X0*%
%ADD12RoundRect,0.250000X-0.625000X0.312500X-0.625000X-0.312500X0.625000X-0.312500X0.625000X0.312500X0*%
%ADD13RoundRect,0.250000X-0.325000X-0.650000X0.325000X-0.650000X0.325000X0.650000X-0.325000X0.650000X0*%
%ADD14R,0.450000X0.600000*%
%ADD15R,0.600000X0.450000*%
G04 APERTURE END LIST*
D10*
%TO.C,R5*%
X151765000Y-66234500D03*
X151765000Y-63309500D03*
%TD*%
D11*
%TO.C,R13*%
X140019500Y-109728000D03*
X137094500Y-109728000D03*
%TD*%
%TO.C,R4*%
X133415500Y-109855000D03*
X130490500Y-109855000D03*
%TD*%
D10*
%TO.C,R7*%
X142176500Y-65026000D03*
X142176500Y-62101000D03*
%TD*%
D12*
%TO.C,R17*%
X165290500Y-109154500D03*
X165290500Y-112079500D03*
%TD*%
D13*
%TO.C,C3*%
X106919500Y-105156000D03*
X109869500Y-105156000D03*
%TD*%
D11*
%TO.C,R3*%
X133098000Y-69598000D03*
X130173000Y-69598000D03*
%TD*%
D13*
%TO.C,C2*%
X109332500Y-85471000D03*
X112282500Y-85471000D03*
%TD*%
%TO.C,C1*%
X109332500Y-80835500D03*
X112282500Y-80835500D03*
%TD*%
%TO.C,C4*%
X109332500Y-90106500D03*
X112282500Y-90106500D03*
%TD*%
D10*
%TO.C,R8*%
X143065500Y-105539000D03*
X143065500Y-102614000D03*
%TD*%
D14*
%TO.C,D2*%
X136144000Y-81568000D03*
X136144000Y-79468000D03*
%TD*%
D10*
%TO.C,R6*%
X152336500Y-107444000D03*
X152336500Y-104519000D03*
%TD*%
%TO.C,R12*%
X157480000Y-77599000D03*
X157480000Y-74674000D03*
%TD*%
D13*
%TO.C,C6*%
X109396000Y-99504500D03*
X112346000Y-99504500D03*
%TD*%
D12*
%TO.C,R18*%
X167957500Y-109154500D03*
X167957500Y-112079500D03*
%TD*%
%TO.C,R19*%
X93091000Y-87501000D03*
X93091000Y-90426000D03*
%TD*%
D10*
%TO.C,R1*%
X99885500Y-89471500D03*
X99885500Y-86546500D03*
%TD*%
D15*
%TO.C,D5*%
X109186000Y-102298500D03*
X111286000Y-102298500D03*
%TD*%
D12*
%TO.C,R2*%
X99885500Y-91501500D03*
X99885500Y-94426500D03*
%TD*%
D10*
%TO.C,R9*%
X148399500Y-70425500D03*
X148399500Y-67500500D03*
%TD*%
D13*
%TO.C,C5*%
X109269000Y-94742000D03*
X112219000Y-94742000D03*
%TD*%
D14*
%TO.C,D4*%
X139128500Y-81568000D03*
X139128500Y-79468000D03*
%TD*%
D10*
%TO.C,R10*%
X148780500Y-111444500D03*
X148780500Y-108519500D03*
%TD*%
D11*
%TO.C,R11*%
X139702000Y-69471000D03*
X136777000Y-69471000D03*
%TD*%
D12*
%TO.C,R14*%
X162496500Y-109218000D03*
X162496500Y-112143000D03*
%TD*%
D14*
%TO.C,D1*%
X128905000Y-79404500D03*
X128905000Y-81504500D03*
%TD*%
%TO.C,D3*%
X132207000Y-79404500D03*
X132207000Y-81504500D03*
%TD*%
M02*
