%TF.GenerationSoftware,KiCad,Pcbnew,(6.0.7)*%
%TF.CreationDate,2023-03-15T17:16:23-04:00*%
%TF.ProjectId,NPN Tracer V2,4e504e20-5472-4616-9365-722056322e6b,rev?*%
%TF.SameCoordinates,Original*%
%TF.FileFunction,Drillmap*%
%TF.FilePolarity,Positive*%
%FSLAX45Y45*%
G04 Gerber Fmt 4.5, Leading zero omitted, Abs format (unit mm)*
G04 Created by KiCad (PCBNEW (6.0.7)) date 2023-03-15 17:16:23*
%MOMM*%
%LPD*%
G01*
G04 APERTURE LIST*
%ADD10C,0.150000*%
%ADD11C,0.200000*%
%ADD12C,0.040000*%
%ADD13C,0.075000*%
%ADD14C,0.080000*%
%ADD15C,0.090000*%
%ADD16C,0.100000*%
%ADD17C,0.110000*%
%ADD18C,0.120000*%
%ADD19C,0.320000*%
G04 APERTURE END LIST*
D10*
X18224500Y-5245100D02*
X8318500Y-5245100D01*
X8318500Y-5245100D02*
X8318500Y-12198350D01*
X8318500Y-12198350D02*
X18224500Y-12198350D01*
X18224500Y-12198350D02*
X18224500Y-5245100D01*
D11*
D12*
X12870500Y-7790500D02*
X12910500Y-7830500D01*
X12910500Y-7790500D02*
X12870500Y-7830500D01*
X13200700Y-7784150D02*
X13240700Y-7824150D01*
X13240700Y-7784150D02*
X13200700Y-7824150D01*
X13588050Y-8260400D02*
X13628050Y-8300400D01*
X13628050Y-8260400D02*
X13588050Y-8300400D01*
X13892850Y-8438200D02*
X13932850Y-8478200D01*
X13932850Y-8438200D02*
X13892850Y-8478200D01*
X14184950Y-5968050D02*
X14224950Y-6008050D01*
X14224950Y-5968050D02*
X14184950Y-6008050D01*
X14280200Y-10051100D02*
X14320200Y-10091100D01*
X14320200Y-10051100D02*
X14280200Y-10091100D01*
D13*
X14443550Y-6769300D02*
G75*
G03*
X14443550Y-6769300I-37500J0D01*
G01*
X14443550Y-6896300D02*
G75*
G03*
X14443550Y-6896300I-37500J0D01*
G01*
X14443550Y-7023300D02*
G75*
G03*
X14443550Y-7023300I-37500J0D01*
G01*
X14494350Y-10839450D02*
G75*
G03*
X14494350Y-10839450I-37500J0D01*
G01*
X14494350Y-10966450D02*
G75*
G03*
X14494350Y-10966450I-37500J0D01*
G01*
X14494350Y-11093450D02*
G75*
G03*
X14494350Y-11093450I-37500J0D01*
G01*
X15347350Y-6909000D02*
G75*
G03*
X15347350Y-6909000I-37500J0D01*
G01*
X15347350Y-7036000D02*
G75*
G03*
X15347350Y-7036000I-37500J0D01*
G01*
X15347350Y-7163000D02*
G75*
G03*
X15347350Y-7163000I-37500J0D01*
G01*
X15379100Y-11017250D02*
G75*
G03*
X15379100Y-11017250I-37500J0D01*
G01*
X15379100Y-11144250D02*
G75*
G03*
X15379100Y-11144250I-37500J0D01*
G01*
X15379100Y-11271250D02*
G75*
G03*
X15379100Y-11271250I-37500J0D01*
G01*
X15935800Y-10890250D02*
G75*
G03*
X15935800Y-10890250I-37500J0D01*
G01*
X15935800Y-11017250D02*
G75*
G03*
X15935800Y-11017250I-37500J0D01*
G01*
X15935800Y-11144250D02*
G75*
G03*
X15935800Y-11144250I-37500J0D01*
G01*
D14*
X8806480Y-11015350D02*
X8806480Y-11095350D01*
X8766480Y-11055350D02*
X8846480Y-11055350D01*
X9056480Y-11015350D02*
X9056480Y-11095350D01*
X9016480Y-11055350D02*
X9096480Y-11055350D01*
X9670080Y-11021700D02*
X9670080Y-11101700D01*
X9630080Y-11061700D02*
X9710080Y-11061700D01*
X9920080Y-11021700D02*
X9920080Y-11101700D01*
X9880080Y-11061700D02*
X9960080Y-11061700D01*
X13531850Y-6180850D02*
X13531850Y-6260850D01*
X13491850Y-6220850D02*
X13571850Y-6220850D01*
X13531850Y-6430850D02*
X13531850Y-6510850D01*
X13491850Y-6470850D02*
X13571850Y-6470850D01*
X13690600Y-10187500D02*
X13690600Y-10267500D01*
X13650600Y-10227500D02*
X13730600Y-10227500D01*
X13690600Y-10437500D02*
X13690600Y-10517500D01*
X13650600Y-10477500D02*
X13730600Y-10477500D01*
X16935450Y-6208400D02*
X16935450Y-6288400D01*
X16895450Y-6248400D02*
X16975450Y-6248400D01*
X17185450Y-6208400D02*
X17185450Y-6288400D01*
X17145450Y-6248400D02*
X17225450Y-6248400D01*
X17710150Y-10671450D02*
X17710150Y-10751450D01*
X17670150Y-10711450D02*
X17750150Y-10711450D01*
X17710150Y-10925450D02*
X17710150Y-11005450D01*
X17670150Y-10965450D02*
X17750150Y-10965450D01*
X17710150Y-11179450D02*
X17710150Y-11259450D01*
X17670150Y-11219450D02*
X17750150Y-11219450D01*
X17716500Y-7529200D02*
X17716500Y-7609200D01*
X17676500Y-7569200D02*
X17756500Y-7569200D01*
X17716500Y-7783200D02*
X17716500Y-7863200D01*
X17676500Y-7823200D02*
X17756500Y-7823200D01*
X17716500Y-8037200D02*
X17716500Y-8117200D01*
X17676500Y-8077200D02*
X17756500Y-8077200D01*
X17716500Y-9439550D02*
X17716500Y-9519550D01*
X17676500Y-9479550D02*
X17756500Y-9479550D01*
X17716500Y-9693550D02*
X17716500Y-9773550D01*
X17676500Y-9733550D02*
X17756500Y-9733550D01*
X17716500Y-9947550D02*
X17716500Y-10027550D01*
X17676500Y-9987550D02*
X17756500Y-9987550D01*
X17830800Y-6277250D02*
X17830800Y-6357250D01*
X17790800Y-6317250D02*
X17870800Y-6317250D01*
X17830800Y-6531250D02*
X17830800Y-6611250D01*
X17790800Y-6571250D02*
X17870800Y-6571250D01*
X17830800Y-6785250D02*
X17830800Y-6865250D01*
X17790800Y-6825250D02*
X17870800Y-6825250D01*
D15*
X9436170Y-9384870D02*
X9436170Y-9321230D01*
X9372530Y-9321230D01*
X9372530Y-9384870D01*
X9436170Y-9384870D01*
X9436170Y-9638870D02*
X9436170Y-9575230D01*
X9372530Y-9575230D01*
X9372530Y-9638870D01*
X9436170Y-9638870D01*
X10460270Y-7601020D02*
X10460270Y-7537380D01*
X10396630Y-7537380D01*
X10396630Y-7601020D01*
X10460270Y-7601020D01*
X10460270Y-7855020D02*
X10460270Y-7791380D01*
X10396630Y-7791380D01*
X10396630Y-7855020D01*
X10460270Y-7855020D01*
X10460270Y-8109020D02*
X10460270Y-8045380D01*
X10396630Y-8045380D01*
X10396630Y-8109020D01*
X10460270Y-8109020D01*
X10460270Y-8363020D02*
X10460270Y-8299380D01*
X10396630Y-8299380D01*
X10396630Y-8363020D01*
X10460270Y-8363020D01*
X10460270Y-8617020D02*
X10460270Y-8553380D01*
X10396630Y-8553380D01*
X10396630Y-8617020D01*
X10460270Y-8617020D01*
X10460270Y-8871020D02*
X10460270Y-8807380D01*
X10396630Y-8807380D01*
X10396630Y-8871020D01*
X10460270Y-8871020D01*
X10460270Y-9125020D02*
X10460270Y-9061380D01*
X10396630Y-9061380D01*
X10396630Y-9125020D01*
X10460270Y-9125020D01*
X10460270Y-9379020D02*
X10460270Y-9315380D01*
X10396630Y-9315380D01*
X10396630Y-9379020D01*
X10460270Y-9379020D01*
X10460270Y-9633020D02*
X10460270Y-9569380D01*
X10396630Y-9569380D01*
X10396630Y-9633020D01*
X10460270Y-9633020D01*
X10460270Y-9887020D02*
X10460270Y-9823380D01*
X10396630Y-9823380D01*
X10396630Y-9887020D01*
X10460270Y-9887020D01*
X10460270Y-10141020D02*
X10460270Y-10077380D01*
X10396630Y-10077380D01*
X10396630Y-10141020D01*
X10460270Y-10141020D01*
X10460270Y-10395020D02*
X10460270Y-10331380D01*
X10396630Y-10331380D01*
X10396630Y-10395020D01*
X10460270Y-10395020D01*
X10460270Y-10649020D02*
X10460270Y-10585380D01*
X10396630Y-10585380D01*
X10396630Y-10649020D01*
X10460270Y-10649020D01*
X10460270Y-10903020D02*
X10460270Y-10839380D01*
X10396630Y-10839380D01*
X10396630Y-10903020D01*
X10460270Y-10903020D01*
X10460270Y-11157020D02*
X10460270Y-11093380D01*
X10396630Y-11093380D01*
X10396630Y-11157020D01*
X10460270Y-11157020D01*
X11984270Y-7601020D02*
X11984270Y-7537380D01*
X11920630Y-7537380D01*
X11920630Y-7601020D01*
X11984270Y-7601020D01*
X11984270Y-7855020D02*
X11984270Y-7791380D01*
X11920630Y-7791380D01*
X11920630Y-7855020D01*
X11984270Y-7855020D01*
X11984270Y-8109020D02*
X11984270Y-8045380D01*
X11920630Y-8045380D01*
X11920630Y-8109020D01*
X11984270Y-8109020D01*
X11984270Y-8363020D02*
X11984270Y-8299380D01*
X11920630Y-8299380D01*
X11920630Y-8363020D01*
X11984270Y-8363020D01*
X11984270Y-8617020D02*
X11984270Y-8553380D01*
X11920630Y-8553380D01*
X11920630Y-8617020D01*
X11984270Y-8617020D01*
X11984270Y-8871020D02*
X11984270Y-8807380D01*
X11920630Y-8807380D01*
X11920630Y-8871020D01*
X11984270Y-8871020D01*
X11984270Y-9125020D02*
X11984270Y-9061380D01*
X11920630Y-9061380D01*
X11920630Y-9125020D01*
X11984270Y-9125020D01*
X11984270Y-9379020D02*
X11984270Y-9315380D01*
X11920630Y-9315380D01*
X11920630Y-9379020D01*
X11984270Y-9379020D01*
X11984270Y-9633020D02*
X11984270Y-9569380D01*
X11920630Y-9569380D01*
X11920630Y-9633020D01*
X11984270Y-9633020D01*
X11984270Y-9887020D02*
X11984270Y-9823380D01*
X11920630Y-9823380D01*
X11920630Y-9887020D01*
X11984270Y-9887020D01*
X11984270Y-10141020D02*
X11984270Y-10077380D01*
X11920630Y-10077380D01*
X11920630Y-10141020D01*
X11984270Y-10141020D01*
X11984270Y-10395020D02*
X11984270Y-10331380D01*
X11920630Y-10331380D01*
X11920630Y-10395020D01*
X11984270Y-10395020D01*
X11984270Y-10649020D02*
X11984270Y-10585380D01*
X11920630Y-10585380D01*
X11920630Y-10649020D01*
X11984270Y-10649020D01*
X11984270Y-10903020D02*
X11984270Y-10839380D01*
X11920630Y-10839380D01*
X11920630Y-10903020D01*
X11984270Y-10903020D01*
X11984270Y-11157020D02*
X11984270Y-11093380D01*
X11920630Y-11093380D01*
X11920630Y-11157020D01*
X11984270Y-11157020D01*
X13004870Y-8750370D02*
X13004870Y-8686730D01*
X12941230Y-8686730D01*
X12941230Y-8750370D01*
X13004870Y-8750370D01*
X13004870Y-9512370D02*
X13004870Y-9448730D01*
X12941230Y-9448730D01*
X12941230Y-9512370D01*
X13004870Y-9512370D01*
X13258870Y-8750370D02*
X13258870Y-8686730D01*
X13195230Y-8686730D01*
X13195230Y-8750370D01*
X13258870Y-8750370D01*
X13258870Y-9512370D02*
X13258870Y-9448730D01*
X13195230Y-9448730D01*
X13195230Y-9512370D01*
X13258870Y-9512370D01*
X13512870Y-8750370D02*
X13512870Y-8686730D01*
X13449230Y-8686730D01*
X13449230Y-8750370D01*
X13512870Y-8750370D01*
X13512870Y-9512370D02*
X13512870Y-9448730D01*
X13449230Y-9448730D01*
X13449230Y-9512370D01*
X13512870Y-9512370D01*
X13766870Y-8750370D02*
X13766870Y-8686730D01*
X13703230Y-8686730D01*
X13703230Y-8750370D01*
X13766870Y-8750370D01*
X13766870Y-9512370D02*
X13766870Y-9448730D01*
X13703230Y-9448730D01*
X13703230Y-9512370D01*
X13766870Y-9512370D01*
X14020870Y-8750370D02*
X14020870Y-8686730D01*
X13957230Y-8686730D01*
X13957230Y-8750370D01*
X14020870Y-8750370D01*
X14020870Y-9512370D02*
X14020870Y-9448730D01*
X13957230Y-9448730D01*
X13957230Y-9512370D01*
X14020870Y-9512370D01*
X14274870Y-8750370D02*
X14274870Y-8686730D01*
X14211230Y-8686730D01*
X14211230Y-8750370D01*
X14274870Y-8750370D01*
X14274870Y-9512370D02*
X14274870Y-9448730D01*
X14211230Y-9448730D01*
X14211230Y-9512370D01*
X14274870Y-9512370D01*
X14528870Y-8750370D02*
X14528870Y-8686730D01*
X14465230Y-8686730D01*
X14465230Y-8750370D01*
X14528870Y-8750370D01*
X14528870Y-9512370D02*
X14528870Y-9448730D01*
X14465230Y-9448730D01*
X14465230Y-9512370D01*
X14528870Y-9512370D01*
X14782870Y-8750370D02*
X14782870Y-8686730D01*
X14719230Y-8686730D01*
X14719230Y-8750370D01*
X14782870Y-8750370D01*
X14782870Y-9512370D02*
X14782870Y-9448730D01*
X14719230Y-9448730D01*
X14719230Y-9512370D01*
X14782870Y-9512370D01*
D16*
X8815300Y-8298650D02*
X8865300Y-8248650D01*
X8815300Y-8198650D01*
X8765300Y-8248650D01*
X8815300Y-8298650D01*
X9069300Y-8298650D02*
X9119300Y-8248650D01*
X9069300Y-8198650D01*
X9019300Y-8248650D01*
X9069300Y-8298650D01*
X9174400Y-7319250D02*
X9224400Y-7269250D01*
X9174400Y-7219250D01*
X9124400Y-7269250D01*
X9174400Y-7319250D01*
D11*
X9124400Y-7159250D02*
X9124400Y-7379250D01*
X9224400Y-7159250D02*
X9224400Y-7379250D01*
X9124400Y-7379250D02*
G75*
G03*
X9224400Y-7379250I50000J0D01*
G01*
X9224400Y-7159250D02*
G75*
G03*
X9124400Y-7159250I-50000J0D01*
G01*
D16*
X9323300Y-8298650D02*
X9373300Y-8248650D01*
X9323300Y-8198650D01*
X9273300Y-8248650D01*
X9323300Y-8298650D01*
X9514400Y-7799250D02*
X9564400Y-7749250D01*
X9514400Y-7699250D01*
X9464400Y-7749250D01*
X9514400Y-7799250D01*
D11*
X9624400Y-7699250D02*
X9404400Y-7699250D01*
X9624400Y-7799250D02*
X9404400Y-7799250D01*
X9404400Y-7699250D02*
G75*
G03*
X9404400Y-7799250I0J-50000D01*
G01*
X9624400Y-7799250D02*
G75*
G03*
X9624400Y-7699250I0J50000D01*
G01*
D16*
X9804400Y-7319250D02*
X9854400Y-7269250D01*
X9804400Y-7219250D01*
X9754400Y-7269250D01*
X9804400Y-7319250D01*
D11*
X9754400Y-7139250D02*
X9754400Y-7399250D01*
X9854400Y-7139250D02*
X9854400Y-7399250D01*
X9754400Y-7399250D02*
G75*
G03*
X9854400Y-7399250I50000J0D01*
G01*
X9854400Y-7139250D02*
G75*
G03*
X9754400Y-7139250I-50000J0D01*
G01*
D16*
X9969500Y-9803600D02*
X10019500Y-9753600D01*
X9969500Y-9703600D01*
X9919500Y-9753600D01*
X9969500Y-9803600D01*
X9969500Y-10057600D02*
X10019500Y-10007600D01*
X9969500Y-9957600D01*
X9919500Y-10007600D01*
X9969500Y-10057600D01*
X16114800Y-10394150D02*
X16164800Y-10344150D01*
X16114800Y-10294150D01*
X16064800Y-10344150D01*
X16114800Y-10394150D01*
X16205700Y-5860250D02*
X16255700Y-5810250D01*
X16205700Y-5760250D01*
X16155700Y-5810250D01*
X16205700Y-5860250D01*
X16368800Y-10394150D02*
X16418800Y-10344150D01*
X16368800Y-10294150D01*
X16318800Y-10344150D01*
X16368800Y-10394150D01*
X16459700Y-5860250D02*
X16509700Y-5810250D01*
X16459700Y-5760250D01*
X16409700Y-5810250D01*
X16459700Y-5860250D01*
X16471900Y-10013150D02*
X16521900Y-9963150D01*
X16471900Y-9913150D01*
X16421900Y-9963150D01*
X16471900Y-10013150D01*
X16622800Y-10394150D02*
X16672800Y-10344150D01*
X16622800Y-10294150D01*
X16572800Y-10344150D01*
X16622800Y-10394150D01*
X16725900Y-10013150D02*
X16775900Y-9963150D01*
X16725900Y-9913150D01*
X16675900Y-9963150D01*
X16725900Y-10013150D01*
X17151350Y-11010600D02*
X17201350Y-10960600D01*
X17151350Y-10910600D01*
X17101350Y-10960600D01*
X17151350Y-11010600D01*
X17151350Y-11264600D02*
X17201350Y-11214600D01*
X17151350Y-11164600D01*
X17101350Y-11214600D01*
X17151350Y-11264600D01*
X17164050Y-7289000D02*
X17214050Y-7239000D01*
X17164050Y-7189000D01*
X17114050Y-7239000D01*
X17164050Y-7289000D01*
X17164050Y-7543000D02*
X17214050Y-7493000D01*
X17164050Y-7443000D01*
X17114050Y-7493000D01*
X17164050Y-7543000D01*
X17164050Y-7797000D02*
X17214050Y-7747000D01*
X17164050Y-7697000D01*
X17114050Y-7747000D01*
X17164050Y-7797000D01*
X17640300Y-8610300D02*
X17690300Y-8560300D01*
X17640300Y-8510300D01*
X17590300Y-8560300D01*
X17640300Y-8610300D01*
X17640300Y-8864300D02*
X17690300Y-8814300D01*
X17640300Y-8764300D01*
X17590300Y-8814300D01*
X17640300Y-8864300D01*
X15723400Y-6730400D02*
X15823400Y-6830400D01*
X15823400Y-6730400D02*
X15723400Y-6830400D01*
X15823400Y-6780400D02*
G75*
G03*
X15823400Y-6780400I-50000J0D01*
G01*
X15723400Y-6960400D02*
X15823400Y-7060400D01*
X15823400Y-6960400D02*
X15723400Y-7060400D01*
X15823400Y-7010400D02*
G75*
G03*
X15823400Y-7010400I-50000J0D01*
G01*
X15723400Y-7190400D02*
X15823400Y-7290400D01*
X15823400Y-7190400D02*
X15723400Y-7290400D01*
X15823400Y-7240400D02*
G75*
G03*
X15823400Y-7240400I-50000J0D01*
G01*
D17*
X8758800Y-8682600D02*
X8868800Y-8792600D01*
X8868800Y-8682600D02*
X8758800Y-8792600D01*
X8813800Y-8682600D02*
X8813800Y-8792600D01*
X8758800Y-8737600D02*
X8868800Y-8737600D01*
X8758800Y-9698600D02*
X8868800Y-9808600D01*
X8868800Y-9698600D02*
X8758800Y-9808600D01*
X8813800Y-9698600D02*
X8813800Y-9808600D01*
X8758800Y-9753600D02*
X8868800Y-9753600D01*
X8841350Y-10402700D02*
X8951350Y-10512700D01*
X8951350Y-10402700D02*
X8841350Y-10512700D01*
X8896350Y-10402700D02*
X8896350Y-10512700D01*
X8841350Y-10457700D02*
X8951350Y-10457700D01*
X9095350Y-10402700D02*
X9205350Y-10512700D01*
X9205350Y-10402700D02*
X9095350Y-10512700D01*
X9150350Y-10402700D02*
X9150350Y-10512700D01*
X9095350Y-10457700D02*
X9205350Y-10457700D01*
X9349350Y-10402700D02*
X9459350Y-10512700D01*
X9459350Y-10402700D02*
X9349350Y-10512700D01*
X9404350Y-10402700D02*
X9404350Y-10512700D01*
X9349350Y-10457700D02*
X9459350Y-10457700D01*
D18*
X16183300Y-6535900D02*
X16303300Y-6655900D01*
X16303300Y-6535900D02*
X16183300Y-6655900D01*
X16285727Y-6638327D02*
X16285727Y-6553473D01*
X16200873Y-6553473D01*
X16200873Y-6638327D01*
X16285727Y-6638327D01*
X16183300Y-7297900D02*
X16303300Y-7417900D01*
X16303300Y-7297900D02*
X16183300Y-7417900D01*
X16285727Y-7400327D02*
X16285727Y-7315473D01*
X16200873Y-7315473D01*
X16200873Y-7400327D01*
X16285727Y-7400327D01*
X16621450Y-6808950D02*
X16741450Y-6928950D01*
X16741450Y-6808950D02*
X16621450Y-6928950D01*
X16723877Y-6911377D02*
X16723877Y-6826523D01*
X16639023Y-6826523D01*
X16639023Y-6911377D01*
X16723877Y-6911377D01*
X16621450Y-7570950D02*
X16741450Y-7690950D01*
X16741450Y-7570950D02*
X16621450Y-7690950D01*
X16723877Y-7673377D02*
X16723877Y-7588523D01*
X16639023Y-7588523D01*
X16639023Y-7673377D01*
X16723877Y-7673377D01*
D19*
X8476000Y-5402600D02*
X8796000Y-5722600D01*
X8796000Y-5402600D02*
X8476000Y-5722600D01*
X8636000Y-5722600D02*
X8796000Y-5562600D01*
X8636000Y-5402600D01*
X8476000Y-5562600D01*
X8636000Y-5722600D01*
X8476000Y-11714500D02*
X8796000Y-12034500D01*
X8796000Y-11714500D02*
X8476000Y-12034500D01*
X8636000Y-12034500D02*
X8796000Y-11874500D01*
X8636000Y-11714500D01*
X8476000Y-11874500D01*
X8636000Y-12034500D01*
X17747000Y-5402600D02*
X18067000Y-5722600D01*
X18067000Y-5402600D02*
X17747000Y-5722600D01*
X17907000Y-5722600D02*
X18067000Y-5562600D01*
X17907000Y-5402600D01*
X17747000Y-5562600D01*
X17907000Y-5722600D01*
X17747000Y-11720850D02*
X18067000Y-12040850D01*
X18067000Y-11720850D02*
X17747000Y-12040850D01*
X17907000Y-12040850D02*
X18067000Y-11880850D01*
X17907000Y-11720850D01*
X17747000Y-11880850D01*
X17907000Y-12040850D01*
D11*
X12500050Y-8999550D02*
X12500050Y-9199550D01*
X12400050Y-9099550D02*
X12600050Y-9099550D01*
X12600050Y-9099550D02*
G75*
G03*
X12600050Y-9099550I-100000J0D01*
G01*
X15574050Y-8999550D02*
X15574050Y-9199550D01*
X15474050Y-9099550D02*
X15674050Y-9099550D01*
X15674050Y-9099550D02*
G75*
G03*
X15674050Y-9099550I-100000J0D01*
G01*
X8568619Y-12516326D02*
X8568619Y-12316326D01*
X8616238Y-12316326D01*
X8644810Y-12325850D01*
X8663857Y-12344898D01*
X8673381Y-12363945D01*
X8682905Y-12402040D01*
X8682905Y-12430612D01*
X8673381Y-12468707D01*
X8663857Y-12487755D01*
X8644810Y-12506802D01*
X8616238Y-12516326D01*
X8568619Y-12516326D01*
X8768619Y-12516326D02*
X8768619Y-12382993D01*
X8768619Y-12421088D02*
X8778143Y-12402040D01*
X8787667Y-12392517D01*
X8806714Y-12382993D01*
X8825762Y-12382993D01*
X8892429Y-12516326D02*
X8892429Y-12382993D01*
X8892429Y-12316326D02*
X8882905Y-12325850D01*
X8892429Y-12335374D01*
X8901952Y-12325850D01*
X8892429Y-12316326D01*
X8892429Y-12335374D01*
X9016238Y-12516326D02*
X8997190Y-12506802D01*
X8987667Y-12487755D01*
X8987667Y-12316326D01*
X9121000Y-12516326D02*
X9101952Y-12506802D01*
X9092429Y-12487755D01*
X9092429Y-12316326D01*
X9349571Y-12516326D02*
X9349571Y-12316326D01*
X9416238Y-12459183D01*
X9482905Y-12316326D01*
X9482905Y-12516326D01*
X9663857Y-12516326D02*
X9663857Y-12411564D01*
X9654333Y-12392517D01*
X9635286Y-12382993D01*
X9597190Y-12382993D01*
X9578143Y-12392517D01*
X9663857Y-12506802D02*
X9644810Y-12516326D01*
X9597190Y-12516326D01*
X9578143Y-12506802D01*
X9568619Y-12487755D01*
X9568619Y-12468707D01*
X9578143Y-12449659D01*
X9597190Y-12440136D01*
X9644810Y-12440136D01*
X9663857Y-12430612D01*
X9759095Y-12382993D02*
X9759095Y-12582993D01*
X9759095Y-12392517D02*
X9778143Y-12382993D01*
X9816238Y-12382993D01*
X9835286Y-12392517D01*
X9844810Y-12402040D01*
X9854333Y-12421088D01*
X9854333Y-12478231D01*
X9844810Y-12497278D01*
X9835286Y-12506802D01*
X9816238Y-12516326D01*
X9778143Y-12516326D01*
X9759095Y-12506802D01*
X9940048Y-12497278D02*
X9949571Y-12506802D01*
X9940048Y-12516326D01*
X9930524Y-12506802D01*
X9940048Y-12497278D01*
X9940048Y-12516326D01*
X9940048Y-12392517D02*
X9949571Y-12402040D01*
X9940048Y-12411564D01*
X9930524Y-12402040D01*
X9940048Y-12392517D01*
X9940048Y-12411564D01*
D12*
X8271000Y-12825850D02*
X8311000Y-12865850D01*
X8311000Y-12825850D02*
X8271000Y-12865850D01*
D11*
X8606714Y-12736326D02*
X8625762Y-12736326D01*
X8644810Y-12745850D01*
X8654333Y-12755374D01*
X8663857Y-12774421D01*
X8673381Y-12812517D01*
X8673381Y-12860136D01*
X8663857Y-12898231D01*
X8654333Y-12917278D01*
X8644810Y-12926802D01*
X8625762Y-12936326D01*
X8606714Y-12936326D01*
X8587667Y-12926802D01*
X8578143Y-12917278D01*
X8568619Y-12898231D01*
X8559095Y-12860136D01*
X8559095Y-12812517D01*
X8568619Y-12774421D01*
X8578143Y-12755374D01*
X8587667Y-12745850D01*
X8606714Y-12736326D01*
X8759095Y-12917278D02*
X8768619Y-12926802D01*
X8759095Y-12936326D01*
X8749571Y-12926802D01*
X8759095Y-12917278D01*
X8759095Y-12936326D01*
X8940048Y-12802993D02*
X8940048Y-12936326D01*
X8892429Y-12726802D02*
X8844810Y-12869659D01*
X8968619Y-12869659D01*
X9082905Y-12736326D02*
X9101952Y-12736326D01*
X9121000Y-12745850D01*
X9130524Y-12755374D01*
X9140048Y-12774421D01*
X9149571Y-12812517D01*
X9149571Y-12860136D01*
X9140048Y-12898231D01*
X9130524Y-12917278D01*
X9121000Y-12926802D01*
X9101952Y-12936326D01*
X9082905Y-12936326D01*
X9063857Y-12926802D01*
X9054333Y-12917278D01*
X9044810Y-12898231D01*
X9035286Y-12860136D01*
X9035286Y-12812517D01*
X9044810Y-12774421D01*
X9054333Y-12755374D01*
X9063857Y-12745850D01*
X9082905Y-12736326D01*
X9273381Y-12736326D02*
X9292429Y-12736326D01*
X9311476Y-12745850D01*
X9321000Y-12755374D01*
X9330524Y-12774421D01*
X9340048Y-12812517D01*
X9340048Y-12860136D01*
X9330524Y-12898231D01*
X9321000Y-12917278D01*
X9311476Y-12926802D01*
X9292429Y-12936326D01*
X9273381Y-12936326D01*
X9254333Y-12926802D01*
X9244810Y-12917278D01*
X9235286Y-12898231D01*
X9225762Y-12860136D01*
X9225762Y-12812517D01*
X9235286Y-12774421D01*
X9244810Y-12755374D01*
X9254333Y-12745850D01*
X9273381Y-12736326D01*
X9425762Y-12936326D02*
X9425762Y-12802993D01*
X9425762Y-12822040D02*
X9435286Y-12812517D01*
X9454333Y-12802993D01*
X9482905Y-12802993D01*
X9501952Y-12812517D01*
X9511476Y-12831564D01*
X9511476Y-12936326D01*
X9511476Y-12831564D02*
X9521000Y-12812517D01*
X9540048Y-12802993D01*
X9568619Y-12802993D01*
X9587667Y-12812517D01*
X9597190Y-12831564D01*
X9597190Y-12936326D01*
X9692429Y-12936326D02*
X9692429Y-12802993D01*
X9692429Y-12822040D02*
X9701952Y-12812517D01*
X9721000Y-12802993D01*
X9749571Y-12802993D01*
X9768619Y-12812517D01*
X9778143Y-12831564D01*
X9778143Y-12936326D01*
X9778143Y-12831564D02*
X9787667Y-12812517D01*
X9806714Y-12802993D01*
X9835286Y-12802993D01*
X9854333Y-12812517D01*
X9863857Y-12831564D01*
X9863857Y-12936326D01*
X10254333Y-12726802D02*
X10082905Y-12983945D01*
X10511476Y-12736326D02*
X10530524Y-12736326D01*
X10549571Y-12745850D01*
X10559095Y-12755374D01*
X10568619Y-12774421D01*
X10578143Y-12812517D01*
X10578143Y-12860136D01*
X10568619Y-12898231D01*
X10559095Y-12917278D01*
X10549571Y-12926802D01*
X10530524Y-12936326D01*
X10511476Y-12936326D01*
X10492429Y-12926802D01*
X10482905Y-12917278D01*
X10473381Y-12898231D01*
X10463857Y-12860136D01*
X10463857Y-12812517D01*
X10473381Y-12774421D01*
X10482905Y-12755374D01*
X10492429Y-12745850D01*
X10511476Y-12736326D01*
X10663857Y-12917278D02*
X10673381Y-12926802D01*
X10663857Y-12936326D01*
X10654333Y-12926802D01*
X10663857Y-12917278D01*
X10663857Y-12936326D01*
X10797190Y-12736326D02*
X10816238Y-12736326D01*
X10835286Y-12745850D01*
X10844810Y-12755374D01*
X10854333Y-12774421D01*
X10863857Y-12812517D01*
X10863857Y-12860136D01*
X10854333Y-12898231D01*
X10844810Y-12917278D01*
X10835286Y-12926802D01*
X10816238Y-12936326D01*
X10797190Y-12936326D01*
X10778143Y-12926802D01*
X10768619Y-12917278D01*
X10759095Y-12898231D01*
X10749571Y-12860136D01*
X10749571Y-12812517D01*
X10759095Y-12774421D01*
X10768619Y-12755374D01*
X10778143Y-12745850D01*
X10797190Y-12736326D01*
X11054333Y-12936326D02*
X10940048Y-12936326D01*
X10997190Y-12936326D02*
X10997190Y-12736326D01*
X10978143Y-12764898D01*
X10959095Y-12783945D01*
X10940048Y-12793469D01*
X11235286Y-12736326D02*
X11140048Y-12736326D01*
X11130524Y-12831564D01*
X11140048Y-12822040D01*
X11159095Y-12812517D01*
X11206714Y-12812517D01*
X11225762Y-12822040D01*
X11235286Y-12831564D01*
X11244809Y-12850612D01*
X11244809Y-12898231D01*
X11235286Y-12917278D01*
X11225762Y-12926802D01*
X11206714Y-12936326D01*
X11159095Y-12936326D01*
X11140048Y-12926802D01*
X11130524Y-12917278D01*
X11311476Y-12736326D02*
X11444809Y-12736326D01*
X11359095Y-12936326D01*
X11511476Y-12736326D02*
X11511476Y-12774421D01*
X11587667Y-12736326D02*
X11587667Y-12774421D01*
X11882905Y-13012517D02*
X11873381Y-13002993D01*
X11854333Y-12974421D01*
X11844809Y-12955374D01*
X11835286Y-12926802D01*
X11825762Y-12879183D01*
X11825762Y-12841088D01*
X11835286Y-12793469D01*
X11844809Y-12764898D01*
X11854333Y-12745850D01*
X11873381Y-12717278D01*
X11882905Y-12707755D01*
X12044809Y-12736326D02*
X12006714Y-12736326D01*
X11987667Y-12745850D01*
X11978143Y-12755374D01*
X11959095Y-12783945D01*
X11949571Y-12822040D01*
X11949571Y-12898231D01*
X11959095Y-12917278D01*
X11968619Y-12926802D01*
X11987667Y-12936326D01*
X12025762Y-12936326D01*
X12044809Y-12926802D01*
X12054333Y-12917278D01*
X12063857Y-12898231D01*
X12063857Y-12850612D01*
X12054333Y-12831564D01*
X12044809Y-12822040D01*
X12025762Y-12812517D01*
X11987667Y-12812517D01*
X11968619Y-12822040D01*
X11959095Y-12831564D01*
X11949571Y-12850612D01*
X12301952Y-12936326D02*
X12301952Y-12736326D01*
X12387667Y-12936326D02*
X12387667Y-12831564D01*
X12378143Y-12812517D01*
X12359095Y-12802993D01*
X12330524Y-12802993D01*
X12311476Y-12812517D01*
X12301952Y-12822040D01*
X12511476Y-12936326D02*
X12492428Y-12926802D01*
X12482905Y-12917278D01*
X12473381Y-12898231D01*
X12473381Y-12841088D01*
X12482905Y-12822040D01*
X12492428Y-12812517D01*
X12511476Y-12802993D01*
X12540048Y-12802993D01*
X12559095Y-12812517D01*
X12568619Y-12822040D01*
X12578143Y-12841088D01*
X12578143Y-12898231D01*
X12568619Y-12917278D01*
X12559095Y-12926802D01*
X12540048Y-12936326D01*
X12511476Y-12936326D01*
X12692428Y-12936326D02*
X12673381Y-12926802D01*
X12663857Y-12907755D01*
X12663857Y-12736326D01*
X12844809Y-12926802D02*
X12825762Y-12936326D01*
X12787667Y-12936326D01*
X12768619Y-12926802D01*
X12759095Y-12907755D01*
X12759095Y-12831564D01*
X12768619Y-12812517D01*
X12787667Y-12802993D01*
X12825762Y-12802993D01*
X12844809Y-12812517D01*
X12854333Y-12831564D01*
X12854333Y-12850612D01*
X12759095Y-12869659D01*
X12930524Y-12926802D02*
X12949571Y-12936326D01*
X12987667Y-12936326D01*
X13006714Y-12926802D01*
X13016238Y-12907755D01*
X13016238Y-12898231D01*
X13006714Y-12879183D01*
X12987667Y-12869659D01*
X12959095Y-12869659D01*
X12940048Y-12860136D01*
X12930524Y-12841088D01*
X12930524Y-12831564D01*
X12940048Y-12812517D01*
X12959095Y-12802993D01*
X12987667Y-12802993D01*
X13006714Y-12812517D01*
X13082905Y-13012517D02*
X13092428Y-13002993D01*
X13111476Y-12974421D01*
X13121000Y-12955374D01*
X13130524Y-12926802D01*
X13140048Y-12879183D01*
X13140048Y-12841088D01*
X13130524Y-12793469D01*
X13121000Y-12764898D01*
X13111476Y-12745850D01*
X13092428Y-12717278D01*
X13082905Y-12707755D01*
D13*
X8311000Y-13109850D02*
G75*
G03*
X8311000Y-13109850I-37500J0D01*
G01*
D11*
X8606714Y-13000326D02*
X8625762Y-13000326D01*
X8644810Y-13009850D01*
X8654333Y-13019374D01*
X8663857Y-13038421D01*
X8673381Y-13076517D01*
X8673381Y-13124136D01*
X8663857Y-13162231D01*
X8654333Y-13181278D01*
X8644810Y-13190802D01*
X8625762Y-13200326D01*
X8606714Y-13200326D01*
X8587667Y-13190802D01*
X8578143Y-13181278D01*
X8568619Y-13162231D01*
X8559095Y-13124136D01*
X8559095Y-13076517D01*
X8568619Y-13038421D01*
X8578143Y-13019374D01*
X8587667Y-13009850D01*
X8606714Y-13000326D01*
X8759095Y-13181278D02*
X8768619Y-13190802D01*
X8759095Y-13200326D01*
X8749571Y-13190802D01*
X8759095Y-13181278D01*
X8759095Y-13200326D01*
X8835286Y-13000326D02*
X8968619Y-13000326D01*
X8882905Y-13200326D01*
X9140048Y-13000326D02*
X9044810Y-13000326D01*
X9035286Y-13095564D01*
X9044810Y-13086040D01*
X9063857Y-13076517D01*
X9111476Y-13076517D01*
X9130524Y-13086040D01*
X9140048Y-13095564D01*
X9149571Y-13114612D01*
X9149571Y-13162231D01*
X9140048Y-13181278D01*
X9130524Y-13190802D01*
X9111476Y-13200326D01*
X9063857Y-13200326D01*
X9044810Y-13190802D01*
X9035286Y-13181278D01*
X9273381Y-13000326D02*
X9292429Y-13000326D01*
X9311476Y-13009850D01*
X9321000Y-13019374D01*
X9330524Y-13038421D01*
X9340048Y-13076517D01*
X9340048Y-13124136D01*
X9330524Y-13162231D01*
X9321000Y-13181278D01*
X9311476Y-13190802D01*
X9292429Y-13200326D01*
X9273381Y-13200326D01*
X9254333Y-13190802D01*
X9244810Y-13181278D01*
X9235286Y-13162231D01*
X9225762Y-13124136D01*
X9225762Y-13076517D01*
X9235286Y-13038421D01*
X9244810Y-13019374D01*
X9254333Y-13009850D01*
X9273381Y-13000326D01*
X9425762Y-13200326D02*
X9425762Y-13066993D01*
X9425762Y-13086040D02*
X9435286Y-13076517D01*
X9454333Y-13066993D01*
X9482905Y-13066993D01*
X9501952Y-13076517D01*
X9511476Y-13095564D01*
X9511476Y-13200326D01*
X9511476Y-13095564D02*
X9521000Y-13076517D01*
X9540048Y-13066993D01*
X9568619Y-13066993D01*
X9587667Y-13076517D01*
X9597190Y-13095564D01*
X9597190Y-13200326D01*
X9692429Y-13200326D02*
X9692429Y-13066993D01*
X9692429Y-13086040D02*
X9701952Y-13076517D01*
X9721000Y-13066993D01*
X9749571Y-13066993D01*
X9768619Y-13076517D01*
X9778143Y-13095564D01*
X9778143Y-13200326D01*
X9778143Y-13095564D02*
X9787667Y-13076517D01*
X9806714Y-13066993D01*
X9835286Y-13066993D01*
X9854333Y-13076517D01*
X9863857Y-13095564D01*
X9863857Y-13200326D01*
X10254333Y-12990802D02*
X10082905Y-13247945D01*
X10511476Y-13000326D02*
X10530524Y-13000326D01*
X10549571Y-13009850D01*
X10559095Y-13019374D01*
X10568619Y-13038421D01*
X10578143Y-13076517D01*
X10578143Y-13124136D01*
X10568619Y-13162231D01*
X10559095Y-13181278D01*
X10549571Y-13190802D01*
X10530524Y-13200326D01*
X10511476Y-13200326D01*
X10492429Y-13190802D01*
X10482905Y-13181278D01*
X10473381Y-13162231D01*
X10463857Y-13124136D01*
X10463857Y-13076517D01*
X10473381Y-13038421D01*
X10482905Y-13019374D01*
X10492429Y-13009850D01*
X10511476Y-13000326D01*
X10663857Y-13181278D02*
X10673381Y-13190802D01*
X10663857Y-13200326D01*
X10654333Y-13190802D01*
X10663857Y-13181278D01*
X10663857Y-13200326D01*
X10797190Y-13000326D02*
X10816238Y-13000326D01*
X10835286Y-13009850D01*
X10844810Y-13019374D01*
X10854333Y-13038421D01*
X10863857Y-13076517D01*
X10863857Y-13124136D01*
X10854333Y-13162231D01*
X10844810Y-13181278D01*
X10835286Y-13190802D01*
X10816238Y-13200326D01*
X10797190Y-13200326D01*
X10778143Y-13190802D01*
X10768619Y-13181278D01*
X10759095Y-13162231D01*
X10749571Y-13124136D01*
X10749571Y-13076517D01*
X10759095Y-13038421D01*
X10768619Y-13019374D01*
X10778143Y-13009850D01*
X10797190Y-13000326D01*
X10940048Y-13019374D02*
X10949571Y-13009850D01*
X10968619Y-13000326D01*
X11016238Y-13000326D01*
X11035286Y-13009850D01*
X11044810Y-13019374D01*
X11054333Y-13038421D01*
X11054333Y-13057469D01*
X11044810Y-13086040D01*
X10930524Y-13200326D01*
X11054333Y-13200326D01*
X11149571Y-13200326D02*
X11187667Y-13200326D01*
X11206714Y-13190802D01*
X11216238Y-13181278D01*
X11235286Y-13152707D01*
X11244809Y-13114612D01*
X11244809Y-13038421D01*
X11235286Y-13019374D01*
X11225762Y-13009850D01*
X11206714Y-13000326D01*
X11168619Y-13000326D01*
X11149571Y-13009850D01*
X11140048Y-13019374D01*
X11130524Y-13038421D01*
X11130524Y-13086040D01*
X11140048Y-13105088D01*
X11149571Y-13114612D01*
X11168619Y-13124136D01*
X11206714Y-13124136D01*
X11225762Y-13114612D01*
X11235286Y-13105088D01*
X11244809Y-13086040D01*
X11425762Y-13000326D02*
X11330524Y-13000326D01*
X11321000Y-13095564D01*
X11330524Y-13086040D01*
X11349571Y-13076517D01*
X11397190Y-13076517D01*
X11416238Y-13086040D01*
X11425762Y-13095564D01*
X11435286Y-13114612D01*
X11435286Y-13162231D01*
X11425762Y-13181278D01*
X11416238Y-13190802D01*
X11397190Y-13200326D01*
X11349571Y-13200326D01*
X11330524Y-13190802D01*
X11321000Y-13181278D01*
X11511476Y-13000326D02*
X11511476Y-13038421D01*
X11587667Y-13000326D02*
X11587667Y-13038421D01*
X11882905Y-13276517D02*
X11873381Y-13266993D01*
X11854333Y-13238421D01*
X11844809Y-13219374D01*
X11835286Y-13190802D01*
X11825762Y-13143183D01*
X11825762Y-13105088D01*
X11835286Y-13057469D01*
X11844809Y-13028898D01*
X11854333Y-13009850D01*
X11873381Y-12981278D01*
X11882905Y-12971755D01*
X12063857Y-13200326D02*
X11949571Y-13200326D01*
X12006714Y-13200326D02*
X12006714Y-13000326D01*
X11987667Y-13028898D01*
X11968619Y-13047945D01*
X11949571Y-13057469D01*
X12244809Y-13000326D02*
X12149571Y-13000326D01*
X12140048Y-13095564D01*
X12149571Y-13086040D01*
X12168619Y-13076517D01*
X12216238Y-13076517D01*
X12235286Y-13086040D01*
X12244809Y-13095564D01*
X12254333Y-13114612D01*
X12254333Y-13162231D01*
X12244809Y-13181278D01*
X12235286Y-13190802D01*
X12216238Y-13200326D01*
X12168619Y-13200326D01*
X12149571Y-13190802D01*
X12140048Y-13181278D01*
X12492428Y-13200326D02*
X12492428Y-13000326D01*
X12578143Y-13200326D02*
X12578143Y-13095564D01*
X12568619Y-13076517D01*
X12549571Y-13066993D01*
X12521000Y-13066993D01*
X12501952Y-13076517D01*
X12492428Y-13086040D01*
X12701952Y-13200326D02*
X12682905Y-13190802D01*
X12673381Y-13181278D01*
X12663857Y-13162231D01*
X12663857Y-13105088D01*
X12673381Y-13086040D01*
X12682905Y-13076517D01*
X12701952Y-13066993D01*
X12730524Y-13066993D01*
X12749571Y-13076517D01*
X12759095Y-13086040D01*
X12768619Y-13105088D01*
X12768619Y-13162231D01*
X12759095Y-13181278D01*
X12749571Y-13190802D01*
X12730524Y-13200326D01*
X12701952Y-13200326D01*
X12882905Y-13200326D02*
X12863857Y-13190802D01*
X12854333Y-13171755D01*
X12854333Y-13000326D01*
X13035286Y-13190802D02*
X13016238Y-13200326D01*
X12978143Y-13200326D01*
X12959095Y-13190802D01*
X12949571Y-13171755D01*
X12949571Y-13095564D01*
X12959095Y-13076517D01*
X12978143Y-13066993D01*
X13016238Y-13066993D01*
X13035286Y-13076517D01*
X13044809Y-13095564D01*
X13044809Y-13114612D01*
X12949571Y-13133659D01*
X13121000Y-13190802D02*
X13140048Y-13200326D01*
X13178143Y-13200326D01*
X13197190Y-13190802D01*
X13206714Y-13171755D01*
X13206714Y-13162231D01*
X13197190Y-13143183D01*
X13178143Y-13133659D01*
X13149571Y-13133659D01*
X13130524Y-13124136D01*
X13121000Y-13105088D01*
X13121000Y-13095564D01*
X13130524Y-13076517D01*
X13149571Y-13066993D01*
X13178143Y-13066993D01*
X13197190Y-13076517D01*
X13273381Y-13276517D02*
X13282905Y-13266993D01*
X13301952Y-13238421D01*
X13311476Y-13219374D01*
X13321000Y-13190802D01*
X13330524Y-13143183D01*
X13330524Y-13105088D01*
X13321000Y-13057469D01*
X13311476Y-13028898D01*
X13301952Y-13009850D01*
X13282905Y-12981278D01*
X13273381Y-12971755D01*
D14*
X8271000Y-13333850D02*
X8271000Y-13413850D01*
X8231000Y-13373850D02*
X8311000Y-13373850D01*
D11*
X8606714Y-13264326D02*
X8625762Y-13264326D01*
X8644810Y-13273850D01*
X8654333Y-13283374D01*
X8663857Y-13302421D01*
X8673381Y-13340517D01*
X8673381Y-13388136D01*
X8663857Y-13426231D01*
X8654333Y-13445278D01*
X8644810Y-13454802D01*
X8625762Y-13464326D01*
X8606714Y-13464326D01*
X8587667Y-13454802D01*
X8578143Y-13445278D01*
X8568619Y-13426231D01*
X8559095Y-13388136D01*
X8559095Y-13340517D01*
X8568619Y-13302421D01*
X8578143Y-13283374D01*
X8587667Y-13273850D01*
X8606714Y-13264326D01*
X8759095Y-13445278D02*
X8768619Y-13454802D01*
X8759095Y-13464326D01*
X8749571Y-13454802D01*
X8759095Y-13445278D01*
X8759095Y-13464326D01*
X8882905Y-13350040D02*
X8863857Y-13340517D01*
X8854333Y-13330993D01*
X8844810Y-13311945D01*
X8844810Y-13302421D01*
X8854333Y-13283374D01*
X8863857Y-13273850D01*
X8882905Y-13264326D01*
X8921000Y-13264326D01*
X8940048Y-13273850D01*
X8949571Y-13283374D01*
X8959095Y-13302421D01*
X8959095Y-13311945D01*
X8949571Y-13330993D01*
X8940048Y-13340517D01*
X8921000Y-13350040D01*
X8882905Y-13350040D01*
X8863857Y-13359564D01*
X8854333Y-13369088D01*
X8844810Y-13388136D01*
X8844810Y-13426231D01*
X8854333Y-13445278D01*
X8863857Y-13454802D01*
X8882905Y-13464326D01*
X8921000Y-13464326D01*
X8940048Y-13454802D01*
X8949571Y-13445278D01*
X8959095Y-13426231D01*
X8959095Y-13388136D01*
X8949571Y-13369088D01*
X8940048Y-13359564D01*
X8921000Y-13350040D01*
X9082905Y-13264326D02*
X9101952Y-13264326D01*
X9121000Y-13273850D01*
X9130524Y-13283374D01*
X9140048Y-13302421D01*
X9149571Y-13340517D01*
X9149571Y-13388136D01*
X9140048Y-13426231D01*
X9130524Y-13445278D01*
X9121000Y-13454802D01*
X9101952Y-13464326D01*
X9082905Y-13464326D01*
X9063857Y-13454802D01*
X9054333Y-13445278D01*
X9044810Y-13426231D01*
X9035286Y-13388136D01*
X9035286Y-13340517D01*
X9044810Y-13302421D01*
X9054333Y-13283374D01*
X9063857Y-13273850D01*
X9082905Y-13264326D01*
X9273381Y-13264326D02*
X9292429Y-13264326D01*
X9311476Y-13273850D01*
X9321000Y-13283374D01*
X9330524Y-13302421D01*
X9340048Y-13340517D01*
X9340048Y-13388136D01*
X9330524Y-13426231D01*
X9321000Y-13445278D01*
X9311476Y-13454802D01*
X9292429Y-13464326D01*
X9273381Y-13464326D01*
X9254333Y-13454802D01*
X9244810Y-13445278D01*
X9235286Y-13426231D01*
X9225762Y-13388136D01*
X9225762Y-13340517D01*
X9235286Y-13302421D01*
X9244810Y-13283374D01*
X9254333Y-13273850D01*
X9273381Y-13264326D01*
X9425762Y-13464326D02*
X9425762Y-13330993D01*
X9425762Y-13350040D02*
X9435286Y-13340517D01*
X9454333Y-13330993D01*
X9482905Y-13330993D01*
X9501952Y-13340517D01*
X9511476Y-13359564D01*
X9511476Y-13464326D01*
X9511476Y-13359564D02*
X9521000Y-13340517D01*
X9540048Y-13330993D01*
X9568619Y-13330993D01*
X9587667Y-13340517D01*
X9597190Y-13359564D01*
X9597190Y-13464326D01*
X9692429Y-13464326D02*
X9692429Y-13330993D01*
X9692429Y-13350040D02*
X9701952Y-13340517D01*
X9721000Y-13330993D01*
X9749571Y-13330993D01*
X9768619Y-13340517D01*
X9778143Y-13359564D01*
X9778143Y-13464326D01*
X9778143Y-13359564D02*
X9787667Y-13340517D01*
X9806714Y-13330993D01*
X9835286Y-13330993D01*
X9854333Y-13340517D01*
X9863857Y-13359564D01*
X9863857Y-13464326D01*
X10254333Y-13254802D02*
X10082905Y-13511945D01*
X10511476Y-13264326D02*
X10530524Y-13264326D01*
X10549571Y-13273850D01*
X10559095Y-13283374D01*
X10568619Y-13302421D01*
X10578143Y-13340517D01*
X10578143Y-13388136D01*
X10568619Y-13426231D01*
X10559095Y-13445278D01*
X10549571Y-13454802D01*
X10530524Y-13464326D01*
X10511476Y-13464326D01*
X10492429Y-13454802D01*
X10482905Y-13445278D01*
X10473381Y-13426231D01*
X10463857Y-13388136D01*
X10463857Y-13340517D01*
X10473381Y-13302421D01*
X10482905Y-13283374D01*
X10492429Y-13273850D01*
X10511476Y-13264326D01*
X10663857Y-13445278D02*
X10673381Y-13454802D01*
X10663857Y-13464326D01*
X10654333Y-13454802D01*
X10663857Y-13445278D01*
X10663857Y-13464326D01*
X10797190Y-13264326D02*
X10816238Y-13264326D01*
X10835286Y-13273850D01*
X10844810Y-13283374D01*
X10854333Y-13302421D01*
X10863857Y-13340517D01*
X10863857Y-13388136D01*
X10854333Y-13426231D01*
X10844810Y-13445278D01*
X10835286Y-13454802D01*
X10816238Y-13464326D01*
X10797190Y-13464326D01*
X10778143Y-13454802D01*
X10768619Y-13445278D01*
X10759095Y-13426231D01*
X10749571Y-13388136D01*
X10749571Y-13340517D01*
X10759095Y-13302421D01*
X10768619Y-13283374D01*
X10778143Y-13273850D01*
X10797190Y-13264326D01*
X10930524Y-13264326D02*
X11054333Y-13264326D01*
X10987667Y-13340517D01*
X11016238Y-13340517D01*
X11035286Y-13350040D01*
X11044810Y-13359564D01*
X11054333Y-13378612D01*
X11054333Y-13426231D01*
X11044810Y-13445278D01*
X11035286Y-13454802D01*
X11016238Y-13464326D01*
X10959095Y-13464326D01*
X10940048Y-13454802D01*
X10930524Y-13445278D01*
X11244809Y-13464326D02*
X11130524Y-13464326D01*
X11187667Y-13464326D02*
X11187667Y-13264326D01*
X11168619Y-13292898D01*
X11149571Y-13311945D01*
X11130524Y-13321469D01*
X11425762Y-13264326D02*
X11330524Y-13264326D01*
X11321000Y-13359564D01*
X11330524Y-13350040D01*
X11349571Y-13340517D01*
X11397190Y-13340517D01*
X11416238Y-13350040D01*
X11425762Y-13359564D01*
X11435286Y-13378612D01*
X11435286Y-13426231D01*
X11425762Y-13445278D01*
X11416238Y-13454802D01*
X11397190Y-13464326D01*
X11349571Y-13464326D01*
X11330524Y-13454802D01*
X11321000Y-13445278D01*
X11511476Y-13264326D02*
X11511476Y-13302421D01*
X11587667Y-13264326D02*
X11587667Y-13302421D01*
X11882905Y-13540517D02*
X11873381Y-13530993D01*
X11854333Y-13502421D01*
X11844809Y-13483374D01*
X11835286Y-13454802D01*
X11825762Y-13407183D01*
X11825762Y-13369088D01*
X11835286Y-13321469D01*
X11844809Y-13292898D01*
X11854333Y-13273850D01*
X11873381Y-13245278D01*
X11882905Y-13235755D01*
X11949571Y-13283374D02*
X11959095Y-13273850D01*
X11978143Y-13264326D01*
X12025762Y-13264326D01*
X12044809Y-13273850D01*
X12054333Y-13283374D01*
X12063857Y-13302421D01*
X12063857Y-13321469D01*
X12054333Y-13350040D01*
X11940048Y-13464326D01*
X12063857Y-13464326D01*
X12140048Y-13283374D02*
X12149571Y-13273850D01*
X12168619Y-13264326D01*
X12216238Y-13264326D01*
X12235286Y-13273850D01*
X12244809Y-13283374D01*
X12254333Y-13302421D01*
X12254333Y-13321469D01*
X12244809Y-13350040D01*
X12130524Y-13464326D01*
X12254333Y-13464326D01*
X12492428Y-13464326D02*
X12492428Y-13264326D01*
X12578143Y-13464326D02*
X12578143Y-13359564D01*
X12568619Y-13340517D01*
X12549571Y-13330993D01*
X12521000Y-13330993D01*
X12501952Y-13340517D01*
X12492428Y-13350040D01*
X12701952Y-13464326D02*
X12682905Y-13454802D01*
X12673381Y-13445278D01*
X12663857Y-13426231D01*
X12663857Y-13369088D01*
X12673381Y-13350040D01*
X12682905Y-13340517D01*
X12701952Y-13330993D01*
X12730524Y-13330993D01*
X12749571Y-13340517D01*
X12759095Y-13350040D01*
X12768619Y-13369088D01*
X12768619Y-13426231D01*
X12759095Y-13445278D01*
X12749571Y-13454802D01*
X12730524Y-13464326D01*
X12701952Y-13464326D01*
X12882905Y-13464326D02*
X12863857Y-13454802D01*
X12854333Y-13435755D01*
X12854333Y-13264326D01*
X13035286Y-13454802D02*
X13016238Y-13464326D01*
X12978143Y-13464326D01*
X12959095Y-13454802D01*
X12949571Y-13435755D01*
X12949571Y-13359564D01*
X12959095Y-13340517D01*
X12978143Y-13330993D01*
X13016238Y-13330993D01*
X13035286Y-13340517D01*
X13044809Y-13359564D01*
X13044809Y-13378612D01*
X12949571Y-13397659D01*
X13121000Y-13454802D02*
X13140048Y-13464326D01*
X13178143Y-13464326D01*
X13197190Y-13454802D01*
X13206714Y-13435755D01*
X13206714Y-13426231D01*
X13197190Y-13407183D01*
X13178143Y-13397659D01*
X13149571Y-13397659D01*
X13130524Y-13388136D01*
X13121000Y-13369088D01*
X13121000Y-13359564D01*
X13130524Y-13340517D01*
X13149571Y-13330993D01*
X13178143Y-13330993D01*
X13197190Y-13340517D01*
X13273381Y-13540517D02*
X13282905Y-13530993D01*
X13301952Y-13502421D01*
X13311476Y-13483374D01*
X13321000Y-13454802D01*
X13330524Y-13407183D01*
X13330524Y-13369088D01*
X13321000Y-13321469D01*
X13311476Y-13292898D01*
X13301952Y-13273850D01*
X13282905Y-13245278D01*
X13273381Y-13235755D01*
D15*
X8297820Y-13669670D02*
X8297820Y-13606030D01*
X8234180Y-13606030D01*
X8234180Y-13669670D01*
X8297820Y-13669670D01*
D11*
X8606714Y-13528326D02*
X8625762Y-13528326D01*
X8644810Y-13537850D01*
X8654333Y-13547374D01*
X8663857Y-13566421D01*
X8673381Y-13604517D01*
X8673381Y-13652136D01*
X8663857Y-13690231D01*
X8654333Y-13709278D01*
X8644810Y-13718802D01*
X8625762Y-13728326D01*
X8606714Y-13728326D01*
X8587667Y-13718802D01*
X8578143Y-13709278D01*
X8568619Y-13690231D01*
X8559095Y-13652136D01*
X8559095Y-13604517D01*
X8568619Y-13566421D01*
X8578143Y-13547374D01*
X8587667Y-13537850D01*
X8606714Y-13528326D01*
X8759095Y-13709278D02*
X8768619Y-13718802D01*
X8759095Y-13728326D01*
X8749571Y-13718802D01*
X8759095Y-13709278D01*
X8759095Y-13728326D01*
X8863857Y-13728326D02*
X8901952Y-13728326D01*
X8921000Y-13718802D01*
X8930524Y-13709278D01*
X8949571Y-13680707D01*
X8959095Y-13642612D01*
X8959095Y-13566421D01*
X8949571Y-13547374D01*
X8940048Y-13537850D01*
X8921000Y-13528326D01*
X8882905Y-13528326D01*
X8863857Y-13537850D01*
X8854333Y-13547374D01*
X8844810Y-13566421D01*
X8844810Y-13614040D01*
X8854333Y-13633088D01*
X8863857Y-13642612D01*
X8882905Y-13652136D01*
X8921000Y-13652136D01*
X8940048Y-13642612D01*
X8949571Y-13633088D01*
X8959095Y-13614040D01*
X9082905Y-13528326D02*
X9101952Y-13528326D01*
X9121000Y-13537850D01*
X9130524Y-13547374D01*
X9140048Y-13566421D01*
X9149571Y-13604517D01*
X9149571Y-13652136D01*
X9140048Y-13690231D01*
X9130524Y-13709278D01*
X9121000Y-13718802D01*
X9101952Y-13728326D01*
X9082905Y-13728326D01*
X9063857Y-13718802D01*
X9054333Y-13709278D01*
X9044810Y-13690231D01*
X9035286Y-13652136D01*
X9035286Y-13604517D01*
X9044810Y-13566421D01*
X9054333Y-13547374D01*
X9063857Y-13537850D01*
X9082905Y-13528326D01*
X9273381Y-13528326D02*
X9292429Y-13528326D01*
X9311476Y-13537850D01*
X9321000Y-13547374D01*
X9330524Y-13566421D01*
X9340048Y-13604517D01*
X9340048Y-13652136D01*
X9330524Y-13690231D01*
X9321000Y-13709278D01*
X9311476Y-13718802D01*
X9292429Y-13728326D01*
X9273381Y-13728326D01*
X9254333Y-13718802D01*
X9244810Y-13709278D01*
X9235286Y-13690231D01*
X9225762Y-13652136D01*
X9225762Y-13604517D01*
X9235286Y-13566421D01*
X9244810Y-13547374D01*
X9254333Y-13537850D01*
X9273381Y-13528326D01*
X9425762Y-13728326D02*
X9425762Y-13594993D01*
X9425762Y-13614040D02*
X9435286Y-13604517D01*
X9454333Y-13594993D01*
X9482905Y-13594993D01*
X9501952Y-13604517D01*
X9511476Y-13623564D01*
X9511476Y-13728326D01*
X9511476Y-13623564D02*
X9521000Y-13604517D01*
X9540048Y-13594993D01*
X9568619Y-13594993D01*
X9587667Y-13604517D01*
X9597190Y-13623564D01*
X9597190Y-13728326D01*
X9692429Y-13728326D02*
X9692429Y-13594993D01*
X9692429Y-13614040D02*
X9701952Y-13604517D01*
X9721000Y-13594993D01*
X9749571Y-13594993D01*
X9768619Y-13604517D01*
X9778143Y-13623564D01*
X9778143Y-13728326D01*
X9778143Y-13623564D02*
X9787667Y-13604517D01*
X9806714Y-13594993D01*
X9835286Y-13594993D01*
X9854333Y-13604517D01*
X9863857Y-13623564D01*
X9863857Y-13728326D01*
X10254333Y-13518802D02*
X10082905Y-13775945D01*
X10511476Y-13528326D02*
X10530524Y-13528326D01*
X10549571Y-13537850D01*
X10559095Y-13547374D01*
X10568619Y-13566421D01*
X10578143Y-13604517D01*
X10578143Y-13652136D01*
X10568619Y-13690231D01*
X10559095Y-13709278D01*
X10549571Y-13718802D01*
X10530524Y-13728326D01*
X10511476Y-13728326D01*
X10492429Y-13718802D01*
X10482905Y-13709278D01*
X10473381Y-13690231D01*
X10463857Y-13652136D01*
X10463857Y-13604517D01*
X10473381Y-13566421D01*
X10482905Y-13547374D01*
X10492429Y-13537850D01*
X10511476Y-13528326D01*
X10663857Y-13709278D02*
X10673381Y-13718802D01*
X10663857Y-13728326D01*
X10654333Y-13718802D01*
X10663857Y-13709278D01*
X10663857Y-13728326D01*
X10797190Y-13528326D02*
X10816238Y-13528326D01*
X10835286Y-13537850D01*
X10844810Y-13547374D01*
X10854333Y-13566421D01*
X10863857Y-13604517D01*
X10863857Y-13652136D01*
X10854333Y-13690231D01*
X10844810Y-13709278D01*
X10835286Y-13718802D01*
X10816238Y-13728326D01*
X10797190Y-13728326D01*
X10778143Y-13718802D01*
X10768619Y-13709278D01*
X10759095Y-13690231D01*
X10749571Y-13652136D01*
X10749571Y-13604517D01*
X10759095Y-13566421D01*
X10768619Y-13547374D01*
X10778143Y-13537850D01*
X10797190Y-13528326D01*
X10930524Y-13528326D02*
X11054333Y-13528326D01*
X10987667Y-13604517D01*
X11016238Y-13604517D01*
X11035286Y-13614040D01*
X11044810Y-13623564D01*
X11054333Y-13642612D01*
X11054333Y-13690231D01*
X11044810Y-13709278D01*
X11035286Y-13718802D01*
X11016238Y-13728326D01*
X10959095Y-13728326D01*
X10940048Y-13718802D01*
X10930524Y-13709278D01*
X11235286Y-13528326D02*
X11140048Y-13528326D01*
X11130524Y-13623564D01*
X11140048Y-13614040D01*
X11159095Y-13604517D01*
X11206714Y-13604517D01*
X11225762Y-13614040D01*
X11235286Y-13623564D01*
X11244809Y-13642612D01*
X11244809Y-13690231D01*
X11235286Y-13709278D01*
X11225762Y-13718802D01*
X11206714Y-13728326D01*
X11159095Y-13728326D01*
X11140048Y-13718802D01*
X11130524Y-13709278D01*
X11416238Y-13594993D02*
X11416238Y-13728326D01*
X11368619Y-13518802D02*
X11321000Y-13661659D01*
X11444809Y-13661659D01*
X11511476Y-13528326D02*
X11511476Y-13566421D01*
X11587667Y-13528326D02*
X11587667Y-13566421D01*
X11882905Y-13804517D02*
X11873381Y-13794993D01*
X11854333Y-13766421D01*
X11844809Y-13747374D01*
X11835286Y-13718802D01*
X11825762Y-13671183D01*
X11825762Y-13633088D01*
X11835286Y-13585469D01*
X11844809Y-13556898D01*
X11854333Y-13537850D01*
X11873381Y-13509278D01*
X11882905Y-13499755D01*
X12044809Y-13594993D02*
X12044809Y-13728326D01*
X11997190Y-13518802D02*
X11949571Y-13661659D01*
X12073381Y-13661659D01*
X12178143Y-13614040D02*
X12159095Y-13604517D01*
X12149571Y-13594993D01*
X12140048Y-13575945D01*
X12140048Y-13566421D01*
X12149571Y-13547374D01*
X12159095Y-13537850D01*
X12178143Y-13528326D01*
X12216238Y-13528326D01*
X12235286Y-13537850D01*
X12244809Y-13547374D01*
X12254333Y-13566421D01*
X12254333Y-13575945D01*
X12244809Y-13594993D01*
X12235286Y-13604517D01*
X12216238Y-13614040D01*
X12178143Y-13614040D01*
X12159095Y-13623564D01*
X12149571Y-13633088D01*
X12140048Y-13652136D01*
X12140048Y-13690231D01*
X12149571Y-13709278D01*
X12159095Y-13718802D01*
X12178143Y-13728326D01*
X12216238Y-13728326D01*
X12235286Y-13718802D01*
X12244809Y-13709278D01*
X12254333Y-13690231D01*
X12254333Y-13652136D01*
X12244809Y-13633088D01*
X12235286Y-13623564D01*
X12216238Y-13614040D01*
X12492428Y-13728326D02*
X12492428Y-13528326D01*
X12578143Y-13728326D02*
X12578143Y-13623564D01*
X12568619Y-13604517D01*
X12549571Y-13594993D01*
X12521000Y-13594993D01*
X12501952Y-13604517D01*
X12492428Y-13614040D01*
X12701952Y-13728326D02*
X12682905Y-13718802D01*
X12673381Y-13709278D01*
X12663857Y-13690231D01*
X12663857Y-13633088D01*
X12673381Y-13614040D01*
X12682905Y-13604517D01*
X12701952Y-13594993D01*
X12730524Y-13594993D01*
X12749571Y-13604517D01*
X12759095Y-13614040D01*
X12768619Y-13633088D01*
X12768619Y-13690231D01*
X12759095Y-13709278D01*
X12749571Y-13718802D01*
X12730524Y-13728326D01*
X12701952Y-13728326D01*
X12882905Y-13728326D02*
X12863857Y-13718802D01*
X12854333Y-13699755D01*
X12854333Y-13528326D01*
X13035286Y-13718802D02*
X13016238Y-13728326D01*
X12978143Y-13728326D01*
X12959095Y-13718802D01*
X12949571Y-13699755D01*
X12949571Y-13623564D01*
X12959095Y-13604517D01*
X12978143Y-13594993D01*
X13016238Y-13594993D01*
X13035286Y-13604517D01*
X13044809Y-13623564D01*
X13044809Y-13642612D01*
X12949571Y-13661659D01*
X13121000Y-13718802D02*
X13140048Y-13728326D01*
X13178143Y-13728326D01*
X13197190Y-13718802D01*
X13206714Y-13699755D01*
X13206714Y-13690231D01*
X13197190Y-13671183D01*
X13178143Y-13661659D01*
X13149571Y-13661659D01*
X13130524Y-13652136D01*
X13121000Y-13633088D01*
X13121000Y-13623564D01*
X13130524Y-13604517D01*
X13149571Y-13594993D01*
X13178143Y-13594993D01*
X13197190Y-13604517D01*
X13273381Y-13804517D02*
X13282905Y-13794993D01*
X13301952Y-13766421D01*
X13311476Y-13747374D01*
X13321000Y-13718802D01*
X13330524Y-13671183D01*
X13330524Y-13633088D01*
X13321000Y-13585469D01*
X13311476Y-13556898D01*
X13301952Y-13537850D01*
X13282905Y-13509278D01*
X13273381Y-13499755D01*
D16*
X8261000Y-13951850D02*
X8311000Y-13901850D01*
X8261000Y-13851850D01*
X8211000Y-13901850D01*
X8261000Y-13951850D01*
D11*
X8673381Y-13992326D02*
X8559095Y-13992326D01*
X8616238Y-13992326D02*
X8616238Y-13792326D01*
X8597190Y-13820898D01*
X8578143Y-13839945D01*
X8559095Y-13849469D01*
X8759095Y-13973278D02*
X8768619Y-13982802D01*
X8759095Y-13992326D01*
X8749571Y-13982802D01*
X8759095Y-13973278D01*
X8759095Y-13992326D01*
X8892429Y-13792326D02*
X8911476Y-13792326D01*
X8930524Y-13801850D01*
X8940048Y-13811374D01*
X8949571Y-13830421D01*
X8959095Y-13868517D01*
X8959095Y-13916136D01*
X8949571Y-13954231D01*
X8940048Y-13973278D01*
X8930524Y-13982802D01*
X8911476Y-13992326D01*
X8892429Y-13992326D01*
X8873381Y-13982802D01*
X8863857Y-13973278D01*
X8854333Y-13954231D01*
X8844810Y-13916136D01*
X8844810Y-13868517D01*
X8854333Y-13830421D01*
X8863857Y-13811374D01*
X8873381Y-13801850D01*
X8892429Y-13792326D01*
X9082905Y-13792326D02*
X9101952Y-13792326D01*
X9121000Y-13801850D01*
X9130524Y-13811374D01*
X9140048Y-13830421D01*
X9149571Y-13868517D01*
X9149571Y-13916136D01*
X9140048Y-13954231D01*
X9130524Y-13973278D01*
X9121000Y-13982802D01*
X9101952Y-13992326D01*
X9082905Y-13992326D01*
X9063857Y-13982802D01*
X9054333Y-13973278D01*
X9044810Y-13954231D01*
X9035286Y-13916136D01*
X9035286Y-13868517D01*
X9044810Y-13830421D01*
X9054333Y-13811374D01*
X9063857Y-13801850D01*
X9082905Y-13792326D01*
X9273381Y-13792326D02*
X9292429Y-13792326D01*
X9311476Y-13801850D01*
X9321000Y-13811374D01*
X9330524Y-13830421D01*
X9340048Y-13868517D01*
X9340048Y-13916136D01*
X9330524Y-13954231D01*
X9321000Y-13973278D01*
X9311476Y-13982802D01*
X9292429Y-13992326D01*
X9273381Y-13992326D01*
X9254333Y-13982802D01*
X9244810Y-13973278D01*
X9235286Y-13954231D01*
X9225762Y-13916136D01*
X9225762Y-13868517D01*
X9235286Y-13830421D01*
X9244810Y-13811374D01*
X9254333Y-13801850D01*
X9273381Y-13792326D01*
X9425762Y-13992326D02*
X9425762Y-13858993D01*
X9425762Y-13878040D02*
X9435286Y-13868517D01*
X9454333Y-13858993D01*
X9482905Y-13858993D01*
X9501952Y-13868517D01*
X9511476Y-13887564D01*
X9511476Y-13992326D01*
X9511476Y-13887564D02*
X9521000Y-13868517D01*
X9540048Y-13858993D01*
X9568619Y-13858993D01*
X9587667Y-13868517D01*
X9597190Y-13887564D01*
X9597190Y-13992326D01*
X9692429Y-13992326D02*
X9692429Y-13858993D01*
X9692429Y-13878040D02*
X9701952Y-13868517D01*
X9721000Y-13858993D01*
X9749571Y-13858993D01*
X9768619Y-13868517D01*
X9778143Y-13887564D01*
X9778143Y-13992326D01*
X9778143Y-13887564D02*
X9787667Y-13868517D01*
X9806714Y-13858993D01*
X9835286Y-13858993D01*
X9854333Y-13868517D01*
X9863857Y-13887564D01*
X9863857Y-13992326D01*
X10254333Y-13782802D02*
X10082905Y-14039945D01*
X10511476Y-13792326D02*
X10530524Y-13792326D01*
X10549571Y-13801850D01*
X10559095Y-13811374D01*
X10568619Y-13830421D01*
X10578143Y-13868517D01*
X10578143Y-13916136D01*
X10568619Y-13954231D01*
X10559095Y-13973278D01*
X10549571Y-13982802D01*
X10530524Y-13992326D01*
X10511476Y-13992326D01*
X10492429Y-13982802D01*
X10482905Y-13973278D01*
X10473381Y-13954231D01*
X10463857Y-13916136D01*
X10463857Y-13868517D01*
X10473381Y-13830421D01*
X10482905Y-13811374D01*
X10492429Y-13801850D01*
X10511476Y-13792326D01*
X10663857Y-13973278D02*
X10673381Y-13982802D01*
X10663857Y-13992326D01*
X10654333Y-13982802D01*
X10663857Y-13973278D01*
X10663857Y-13992326D01*
X10797190Y-13792326D02*
X10816238Y-13792326D01*
X10835286Y-13801850D01*
X10844810Y-13811374D01*
X10854333Y-13830421D01*
X10863857Y-13868517D01*
X10863857Y-13916136D01*
X10854333Y-13954231D01*
X10844810Y-13973278D01*
X10835286Y-13982802D01*
X10816238Y-13992326D01*
X10797190Y-13992326D01*
X10778143Y-13982802D01*
X10768619Y-13973278D01*
X10759095Y-13954231D01*
X10749571Y-13916136D01*
X10749571Y-13868517D01*
X10759095Y-13830421D01*
X10768619Y-13811374D01*
X10778143Y-13801850D01*
X10797190Y-13792326D01*
X10930524Y-13792326D02*
X11054333Y-13792326D01*
X10987667Y-13868517D01*
X11016238Y-13868517D01*
X11035286Y-13878040D01*
X11044810Y-13887564D01*
X11054333Y-13906612D01*
X11054333Y-13954231D01*
X11044810Y-13973278D01*
X11035286Y-13982802D01*
X11016238Y-13992326D01*
X10959095Y-13992326D01*
X10940048Y-13982802D01*
X10930524Y-13973278D01*
X11149571Y-13992326D02*
X11187667Y-13992326D01*
X11206714Y-13982802D01*
X11216238Y-13973278D01*
X11235286Y-13944707D01*
X11244809Y-13906612D01*
X11244809Y-13830421D01*
X11235286Y-13811374D01*
X11225762Y-13801850D01*
X11206714Y-13792326D01*
X11168619Y-13792326D01*
X11149571Y-13801850D01*
X11140048Y-13811374D01*
X11130524Y-13830421D01*
X11130524Y-13878040D01*
X11140048Y-13897088D01*
X11149571Y-13906612D01*
X11168619Y-13916136D01*
X11206714Y-13916136D01*
X11225762Y-13906612D01*
X11235286Y-13897088D01*
X11244809Y-13878040D01*
X11416238Y-13858993D02*
X11416238Y-13992326D01*
X11368619Y-13782802D02*
X11321000Y-13925659D01*
X11444809Y-13925659D01*
X11511476Y-13792326D02*
X11511476Y-13830421D01*
X11587667Y-13792326D02*
X11587667Y-13830421D01*
X11882905Y-14068517D02*
X11873381Y-14058993D01*
X11854333Y-14030421D01*
X11844809Y-14011374D01*
X11835286Y-13982802D01*
X11825762Y-13935183D01*
X11825762Y-13897088D01*
X11835286Y-13849469D01*
X11844809Y-13820898D01*
X11854333Y-13801850D01*
X11873381Y-13773278D01*
X11882905Y-13763755D01*
X12063857Y-13992326D02*
X11949571Y-13992326D01*
X12006714Y-13992326D02*
X12006714Y-13792326D01*
X11987667Y-13820898D01*
X11968619Y-13839945D01*
X11949571Y-13849469D01*
X12159095Y-13992326D02*
X12197190Y-13992326D01*
X12216238Y-13982802D01*
X12225762Y-13973278D01*
X12244809Y-13944707D01*
X12254333Y-13906612D01*
X12254333Y-13830421D01*
X12244809Y-13811374D01*
X12235286Y-13801850D01*
X12216238Y-13792326D01*
X12178143Y-13792326D01*
X12159095Y-13801850D01*
X12149571Y-13811374D01*
X12140048Y-13830421D01*
X12140048Y-13878040D01*
X12149571Y-13897088D01*
X12159095Y-13906612D01*
X12178143Y-13916136D01*
X12216238Y-13916136D01*
X12235286Y-13906612D01*
X12244809Y-13897088D01*
X12254333Y-13878040D01*
X12492428Y-13992326D02*
X12492428Y-13792326D01*
X12578143Y-13992326D02*
X12578143Y-13887564D01*
X12568619Y-13868517D01*
X12549571Y-13858993D01*
X12521000Y-13858993D01*
X12501952Y-13868517D01*
X12492428Y-13878040D01*
X12701952Y-13992326D02*
X12682905Y-13982802D01*
X12673381Y-13973278D01*
X12663857Y-13954231D01*
X12663857Y-13897088D01*
X12673381Y-13878040D01*
X12682905Y-13868517D01*
X12701952Y-13858993D01*
X12730524Y-13858993D01*
X12749571Y-13868517D01*
X12759095Y-13878040D01*
X12768619Y-13897088D01*
X12768619Y-13954231D01*
X12759095Y-13973278D01*
X12749571Y-13982802D01*
X12730524Y-13992326D01*
X12701952Y-13992326D01*
X12882905Y-13992326D02*
X12863857Y-13982802D01*
X12854333Y-13963755D01*
X12854333Y-13792326D01*
X13035286Y-13982802D02*
X13016238Y-13992326D01*
X12978143Y-13992326D01*
X12959095Y-13982802D01*
X12949571Y-13963755D01*
X12949571Y-13887564D01*
X12959095Y-13868517D01*
X12978143Y-13858993D01*
X13016238Y-13858993D01*
X13035286Y-13868517D01*
X13044809Y-13887564D01*
X13044809Y-13906612D01*
X12949571Y-13925659D01*
X13121000Y-13982802D02*
X13140048Y-13992326D01*
X13178143Y-13992326D01*
X13197190Y-13982802D01*
X13206714Y-13963755D01*
X13206714Y-13954231D01*
X13197190Y-13935183D01*
X13178143Y-13925659D01*
X13149571Y-13925659D01*
X13130524Y-13916136D01*
X13121000Y-13897088D01*
X13121000Y-13887564D01*
X13130524Y-13868517D01*
X13149571Y-13858993D01*
X13178143Y-13858993D01*
X13197190Y-13868517D01*
X13444809Y-13916136D02*
X13597190Y-13916136D01*
X13521000Y-13992326D02*
X13521000Y-13839945D01*
X13825762Y-13792326D02*
X13949571Y-13792326D01*
X13882905Y-13868517D01*
X13911476Y-13868517D01*
X13930524Y-13878040D01*
X13940048Y-13887564D01*
X13949571Y-13906612D01*
X13949571Y-13954231D01*
X13940048Y-13973278D01*
X13930524Y-13982802D01*
X13911476Y-13992326D01*
X13854333Y-13992326D01*
X13835286Y-13982802D01*
X13825762Y-13973278D01*
X14178143Y-13982802D02*
X14197190Y-13992326D01*
X14235286Y-13992326D01*
X14254333Y-13982802D01*
X14263857Y-13963755D01*
X14263857Y-13954231D01*
X14254333Y-13935183D01*
X14235286Y-13925659D01*
X14206714Y-13925659D01*
X14187667Y-13916136D01*
X14178143Y-13897088D01*
X14178143Y-13887564D01*
X14187667Y-13868517D01*
X14206714Y-13858993D01*
X14235286Y-13858993D01*
X14254333Y-13868517D01*
X14378143Y-13992326D02*
X14359095Y-13982802D01*
X14349571Y-13963755D01*
X14349571Y-13792326D01*
X14482905Y-13992326D02*
X14463857Y-13982802D01*
X14454333Y-13973278D01*
X14444809Y-13954231D01*
X14444809Y-13897088D01*
X14454333Y-13878040D01*
X14463857Y-13868517D01*
X14482905Y-13858993D01*
X14511476Y-13858993D01*
X14530524Y-13868517D01*
X14540048Y-13878040D01*
X14549571Y-13897088D01*
X14549571Y-13954231D01*
X14540048Y-13973278D01*
X14530524Y-13982802D01*
X14511476Y-13992326D01*
X14482905Y-13992326D01*
X14606714Y-13858993D02*
X14682905Y-13858993D01*
X14635286Y-13792326D02*
X14635286Y-13963755D01*
X14644809Y-13982802D01*
X14663857Y-13992326D01*
X14682905Y-13992326D01*
X14740048Y-13982802D02*
X14759095Y-13992326D01*
X14797190Y-13992326D01*
X14816238Y-13982802D01*
X14825762Y-13963755D01*
X14825762Y-13954231D01*
X14816238Y-13935183D01*
X14797190Y-13925659D01*
X14768619Y-13925659D01*
X14749571Y-13916136D01*
X14740048Y-13897088D01*
X14740048Y-13887564D01*
X14749571Y-13868517D01*
X14768619Y-13858993D01*
X14797190Y-13858993D01*
X14816238Y-13868517D01*
X14892428Y-14068517D02*
X14901952Y-14058993D01*
X14921000Y-14030421D01*
X14930524Y-14011374D01*
X14940048Y-13982802D01*
X14949571Y-13935183D01*
X14949571Y-13897088D01*
X14940048Y-13849469D01*
X14930524Y-13820898D01*
X14921000Y-13801850D01*
X14901952Y-13773278D01*
X14892428Y-13763755D01*
D16*
X8211000Y-14115850D02*
X8311000Y-14215850D01*
X8311000Y-14115850D02*
X8211000Y-14215850D01*
X8311000Y-14165850D02*
G75*
G03*
X8311000Y-14165850I-50000J0D01*
G01*
D11*
X8673381Y-14256326D02*
X8559095Y-14256326D01*
X8616238Y-14256326D02*
X8616238Y-14056326D01*
X8597190Y-14084898D01*
X8578143Y-14103945D01*
X8559095Y-14113469D01*
X8759095Y-14237278D02*
X8768619Y-14246802D01*
X8759095Y-14256326D01*
X8749571Y-14246802D01*
X8759095Y-14237278D01*
X8759095Y-14256326D01*
X8892429Y-14056326D02*
X8911476Y-14056326D01*
X8930524Y-14065850D01*
X8940048Y-14075374D01*
X8949571Y-14094421D01*
X8959095Y-14132517D01*
X8959095Y-14180136D01*
X8949571Y-14218231D01*
X8940048Y-14237278D01*
X8930524Y-14246802D01*
X8911476Y-14256326D01*
X8892429Y-14256326D01*
X8873381Y-14246802D01*
X8863857Y-14237278D01*
X8854333Y-14218231D01*
X8844810Y-14180136D01*
X8844810Y-14132517D01*
X8854333Y-14094421D01*
X8863857Y-14075374D01*
X8873381Y-14065850D01*
X8892429Y-14056326D01*
X9082905Y-14056326D02*
X9101952Y-14056326D01*
X9121000Y-14065850D01*
X9130524Y-14075374D01*
X9140048Y-14094421D01*
X9149571Y-14132517D01*
X9149571Y-14180136D01*
X9140048Y-14218231D01*
X9130524Y-14237278D01*
X9121000Y-14246802D01*
X9101952Y-14256326D01*
X9082905Y-14256326D01*
X9063857Y-14246802D01*
X9054333Y-14237278D01*
X9044810Y-14218231D01*
X9035286Y-14180136D01*
X9035286Y-14132517D01*
X9044810Y-14094421D01*
X9054333Y-14075374D01*
X9063857Y-14065850D01*
X9082905Y-14056326D01*
X9273381Y-14056326D02*
X9292429Y-14056326D01*
X9311476Y-14065850D01*
X9321000Y-14075374D01*
X9330524Y-14094421D01*
X9340048Y-14132517D01*
X9340048Y-14180136D01*
X9330524Y-14218231D01*
X9321000Y-14237278D01*
X9311476Y-14246802D01*
X9292429Y-14256326D01*
X9273381Y-14256326D01*
X9254333Y-14246802D01*
X9244810Y-14237278D01*
X9235286Y-14218231D01*
X9225762Y-14180136D01*
X9225762Y-14132517D01*
X9235286Y-14094421D01*
X9244810Y-14075374D01*
X9254333Y-14065850D01*
X9273381Y-14056326D01*
X9425762Y-14256326D02*
X9425762Y-14122993D01*
X9425762Y-14142040D02*
X9435286Y-14132517D01*
X9454333Y-14122993D01*
X9482905Y-14122993D01*
X9501952Y-14132517D01*
X9511476Y-14151564D01*
X9511476Y-14256326D01*
X9511476Y-14151564D02*
X9521000Y-14132517D01*
X9540048Y-14122993D01*
X9568619Y-14122993D01*
X9587667Y-14132517D01*
X9597190Y-14151564D01*
X9597190Y-14256326D01*
X9692429Y-14256326D02*
X9692429Y-14122993D01*
X9692429Y-14142040D02*
X9701952Y-14132517D01*
X9721000Y-14122993D01*
X9749571Y-14122993D01*
X9768619Y-14132517D01*
X9778143Y-14151564D01*
X9778143Y-14256326D01*
X9778143Y-14151564D02*
X9787667Y-14132517D01*
X9806714Y-14122993D01*
X9835286Y-14122993D01*
X9854333Y-14132517D01*
X9863857Y-14151564D01*
X9863857Y-14256326D01*
X10254333Y-14046802D02*
X10082905Y-14303945D01*
X10511476Y-14056326D02*
X10530524Y-14056326D01*
X10549571Y-14065850D01*
X10559095Y-14075374D01*
X10568619Y-14094421D01*
X10578143Y-14132517D01*
X10578143Y-14180136D01*
X10568619Y-14218231D01*
X10559095Y-14237278D01*
X10549571Y-14246802D01*
X10530524Y-14256326D01*
X10511476Y-14256326D01*
X10492429Y-14246802D01*
X10482905Y-14237278D01*
X10473381Y-14218231D01*
X10463857Y-14180136D01*
X10463857Y-14132517D01*
X10473381Y-14094421D01*
X10482905Y-14075374D01*
X10492429Y-14065850D01*
X10511476Y-14056326D01*
X10663857Y-14237278D02*
X10673381Y-14246802D01*
X10663857Y-14256326D01*
X10654333Y-14246802D01*
X10663857Y-14237278D01*
X10663857Y-14256326D01*
X10797190Y-14056326D02*
X10816238Y-14056326D01*
X10835286Y-14065850D01*
X10844810Y-14075374D01*
X10854333Y-14094421D01*
X10863857Y-14132517D01*
X10863857Y-14180136D01*
X10854333Y-14218231D01*
X10844810Y-14237278D01*
X10835286Y-14246802D01*
X10816238Y-14256326D01*
X10797190Y-14256326D01*
X10778143Y-14246802D01*
X10768619Y-14237278D01*
X10759095Y-14218231D01*
X10749571Y-14180136D01*
X10749571Y-14132517D01*
X10759095Y-14094421D01*
X10768619Y-14075374D01*
X10778143Y-14065850D01*
X10797190Y-14056326D01*
X10930524Y-14056326D02*
X11054333Y-14056326D01*
X10987667Y-14132517D01*
X11016238Y-14132517D01*
X11035286Y-14142040D01*
X11044810Y-14151564D01*
X11054333Y-14170612D01*
X11054333Y-14218231D01*
X11044810Y-14237278D01*
X11035286Y-14246802D01*
X11016238Y-14256326D01*
X10959095Y-14256326D01*
X10940048Y-14246802D01*
X10930524Y-14237278D01*
X11149571Y-14256326D02*
X11187667Y-14256326D01*
X11206714Y-14246802D01*
X11216238Y-14237278D01*
X11235286Y-14208707D01*
X11244809Y-14170612D01*
X11244809Y-14094421D01*
X11235286Y-14075374D01*
X11225762Y-14065850D01*
X11206714Y-14056326D01*
X11168619Y-14056326D01*
X11149571Y-14065850D01*
X11140048Y-14075374D01*
X11130524Y-14094421D01*
X11130524Y-14142040D01*
X11140048Y-14161088D01*
X11149571Y-14170612D01*
X11168619Y-14180136D01*
X11206714Y-14180136D01*
X11225762Y-14170612D01*
X11235286Y-14161088D01*
X11244809Y-14142040D01*
X11416238Y-14122993D02*
X11416238Y-14256326D01*
X11368619Y-14046802D02*
X11321000Y-14189659D01*
X11444809Y-14189659D01*
X11511476Y-14056326D02*
X11511476Y-14094421D01*
X11587667Y-14056326D02*
X11587667Y-14094421D01*
X11882905Y-14332517D02*
X11873381Y-14322993D01*
X11854333Y-14294421D01*
X11844809Y-14275374D01*
X11835286Y-14246802D01*
X11825762Y-14199183D01*
X11825762Y-14161088D01*
X11835286Y-14113469D01*
X11844809Y-14084898D01*
X11854333Y-14065850D01*
X11873381Y-14037278D01*
X11882905Y-14027755D01*
X11940048Y-14056326D02*
X12063857Y-14056326D01*
X11997190Y-14132517D01*
X12025762Y-14132517D01*
X12044809Y-14142040D01*
X12054333Y-14151564D01*
X12063857Y-14170612D01*
X12063857Y-14218231D01*
X12054333Y-14237278D01*
X12044809Y-14246802D01*
X12025762Y-14256326D01*
X11968619Y-14256326D01*
X11949571Y-14246802D01*
X11940048Y-14237278D01*
X12301952Y-14256326D02*
X12301952Y-14056326D01*
X12387667Y-14256326D02*
X12387667Y-14151564D01*
X12378143Y-14132517D01*
X12359095Y-14122993D01*
X12330524Y-14122993D01*
X12311476Y-14132517D01*
X12301952Y-14142040D01*
X12511476Y-14256326D02*
X12492428Y-14246802D01*
X12482905Y-14237278D01*
X12473381Y-14218231D01*
X12473381Y-14161088D01*
X12482905Y-14142040D01*
X12492428Y-14132517D01*
X12511476Y-14122993D01*
X12540048Y-14122993D01*
X12559095Y-14132517D01*
X12568619Y-14142040D01*
X12578143Y-14161088D01*
X12578143Y-14218231D01*
X12568619Y-14237278D01*
X12559095Y-14246802D01*
X12540048Y-14256326D01*
X12511476Y-14256326D01*
X12692428Y-14256326D02*
X12673381Y-14246802D01*
X12663857Y-14227755D01*
X12663857Y-14056326D01*
X12844809Y-14246802D02*
X12825762Y-14256326D01*
X12787667Y-14256326D01*
X12768619Y-14246802D01*
X12759095Y-14227755D01*
X12759095Y-14151564D01*
X12768619Y-14132517D01*
X12787667Y-14122993D01*
X12825762Y-14122993D01*
X12844809Y-14132517D01*
X12854333Y-14151564D01*
X12854333Y-14170612D01*
X12759095Y-14189659D01*
X12930524Y-14246802D02*
X12949571Y-14256326D01*
X12987667Y-14256326D01*
X13006714Y-14246802D01*
X13016238Y-14227755D01*
X13016238Y-14218231D01*
X13006714Y-14199183D01*
X12987667Y-14189659D01*
X12959095Y-14189659D01*
X12940048Y-14180136D01*
X12930524Y-14161088D01*
X12930524Y-14151564D01*
X12940048Y-14132517D01*
X12959095Y-14122993D01*
X12987667Y-14122993D01*
X13006714Y-14132517D01*
X13082905Y-14332517D02*
X13092428Y-14322993D01*
X13111476Y-14294421D01*
X13121000Y-14275374D01*
X13130524Y-14246802D01*
X13140048Y-14199183D01*
X13140048Y-14161088D01*
X13130524Y-14113469D01*
X13121000Y-14084898D01*
X13111476Y-14065850D01*
X13092428Y-14037278D01*
X13082905Y-14027755D01*
D17*
X8201000Y-14374850D02*
X8311000Y-14484850D01*
X8311000Y-14374850D02*
X8201000Y-14484850D01*
X8256000Y-14374850D02*
X8256000Y-14484850D01*
X8201000Y-14429850D02*
X8311000Y-14429850D01*
D11*
X8673381Y-14520326D02*
X8559095Y-14520326D01*
X8616238Y-14520326D02*
X8616238Y-14320326D01*
X8597190Y-14348898D01*
X8578143Y-14367945D01*
X8559095Y-14377469D01*
X8759095Y-14501278D02*
X8768619Y-14510802D01*
X8759095Y-14520326D01*
X8749571Y-14510802D01*
X8759095Y-14501278D01*
X8759095Y-14520326D01*
X8959095Y-14520326D02*
X8844810Y-14520326D01*
X8901952Y-14520326D02*
X8901952Y-14320326D01*
X8882905Y-14348898D01*
X8863857Y-14367945D01*
X8844810Y-14377469D01*
X9082905Y-14320326D02*
X9101952Y-14320326D01*
X9121000Y-14329850D01*
X9130524Y-14339374D01*
X9140048Y-14358421D01*
X9149571Y-14396517D01*
X9149571Y-14444136D01*
X9140048Y-14482231D01*
X9130524Y-14501278D01*
X9121000Y-14510802D01*
X9101952Y-14520326D01*
X9082905Y-14520326D01*
X9063857Y-14510802D01*
X9054333Y-14501278D01*
X9044810Y-14482231D01*
X9035286Y-14444136D01*
X9035286Y-14396517D01*
X9044810Y-14358421D01*
X9054333Y-14339374D01*
X9063857Y-14329850D01*
X9082905Y-14320326D01*
X9273381Y-14320326D02*
X9292429Y-14320326D01*
X9311476Y-14329850D01*
X9321000Y-14339374D01*
X9330524Y-14358421D01*
X9340048Y-14396517D01*
X9340048Y-14444136D01*
X9330524Y-14482231D01*
X9321000Y-14501278D01*
X9311476Y-14510802D01*
X9292429Y-14520326D01*
X9273381Y-14520326D01*
X9254333Y-14510802D01*
X9244810Y-14501278D01*
X9235286Y-14482231D01*
X9225762Y-14444136D01*
X9225762Y-14396517D01*
X9235286Y-14358421D01*
X9244810Y-14339374D01*
X9254333Y-14329850D01*
X9273381Y-14320326D01*
X9425762Y-14520326D02*
X9425762Y-14386993D01*
X9425762Y-14406040D02*
X9435286Y-14396517D01*
X9454333Y-14386993D01*
X9482905Y-14386993D01*
X9501952Y-14396517D01*
X9511476Y-14415564D01*
X9511476Y-14520326D01*
X9511476Y-14415564D02*
X9521000Y-14396517D01*
X9540048Y-14386993D01*
X9568619Y-14386993D01*
X9587667Y-14396517D01*
X9597190Y-14415564D01*
X9597190Y-14520326D01*
X9692429Y-14520326D02*
X9692429Y-14386993D01*
X9692429Y-14406040D02*
X9701952Y-14396517D01*
X9721000Y-14386993D01*
X9749571Y-14386993D01*
X9768619Y-14396517D01*
X9778143Y-14415564D01*
X9778143Y-14520326D01*
X9778143Y-14415564D02*
X9787667Y-14396517D01*
X9806714Y-14386993D01*
X9835286Y-14386993D01*
X9854333Y-14396517D01*
X9863857Y-14415564D01*
X9863857Y-14520326D01*
X10254333Y-14310802D02*
X10082905Y-14567945D01*
X10511476Y-14320326D02*
X10530524Y-14320326D01*
X10549571Y-14329850D01*
X10559095Y-14339374D01*
X10568619Y-14358421D01*
X10578143Y-14396517D01*
X10578143Y-14444136D01*
X10568619Y-14482231D01*
X10559095Y-14501278D01*
X10549571Y-14510802D01*
X10530524Y-14520326D01*
X10511476Y-14520326D01*
X10492429Y-14510802D01*
X10482905Y-14501278D01*
X10473381Y-14482231D01*
X10463857Y-14444136D01*
X10463857Y-14396517D01*
X10473381Y-14358421D01*
X10482905Y-14339374D01*
X10492429Y-14329850D01*
X10511476Y-14320326D01*
X10663857Y-14501278D02*
X10673381Y-14510802D01*
X10663857Y-14520326D01*
X10654333Y-14510802D01*
X10663857Y-14501278D01*
X10663857Y-14520326D01*
X10797190Y-14320326D02*
X10816238Y-14320326D01*
X10835286Y-14329850D01*
X10844810Y-14339374D01*
X10854333Y-14358421D01*
X10863857Y-14396517D01*
X10863857Y-14444136D01*
X10854333Y-14482231D01*
X10844810Y-14501278D01*
X10835286Y-14510802D01*
X10816238Y-14520326D01*
X10797190Y-14520326D01*
X10778143Y-14510802D01*
X10768619Y-14501278D01*
X10759095Y-14482231D01*
X10749571Y-14444136D01*
X10749571Y-14396517D01*
X10759095Y-14358421D01*
X10768619Y-14339374D01*
X10778143Y-14329850D01*
X10797190Y-14320326D01*
X11035286Y-14386993D02*
X11035286Y-14520326D01*
X10987667Y-14310802D02*
X10940048Y-14453659D01*
X11063857Y-14453659D01*
X11121000Y-14320326D02*
X11244809Y-14320326D01*
X11178143Y-14396517D01*
X11206714Y-14396517D01*
X11225762Y-14406040D01*
X11235286Y-14415564D01*
X11244809Y-14434612D01*
X11244809Y-14482231D01*
X11235286Y-14501278D01*
X11225762Y-14510802D01*
X11206714Y-14520326D01*
X11149571Y-14520326D01*
X11130524Y-14510802D01*
X11121000Y-14501278D01*
X11311476Y-14320326D02*
X11435286Y-14320326D01*
X11368619Y-14396517D01*
X11397190Y-14396517D01*
X11416238Y-14406040D01*
X11425762Y-14415564D01*
X11435286Y-14434612D01*
X11435286Y-14482231D01*
X11425762Y-14501278D01*
X11416238Y-14510802D01*
X11397190Y-14520326D01*
X11340048Y-14520326D01*
X11321000Y-14510802D01*
X11311476Y-14501278D01*
X11511476Y-14320326D02*
X11511476Y-14358421D01*
X11587667Y-14320326D02*
X11587667Y-14358421D01*
X11882905Y-14596517D02*
X11873381Y-14586993D01*
X11854333Y-14558421D01*
X11844809Y-14539374D01*
X11835286Y-14510802D01*
X11825762Y-14463183D01*
X11825762Y-14425088D01*
X11835286Y-14377469D01*
X11844809Y-14348898D01*
X11854333Y-14329850D01*
X11873381Y-14301278D01*
X11882905Y-14291755D01*
X12054333Y-14320326D02*
X11959095Y-14320326D01*
X11949571Y-14415564D01*
X11959095Y-14406040D01*
X11978143Y-14396517D01*
X12025762Y-14396517D01*
X12044809Y-14406040D01*
X12054333Y-14415564D01*
X12063857Y-14434612D01*
X12063857Y-14482231D01*
X12054333Y-14501278D01*
X12044809Y-14510802D01*
X12025762Y-14520326D01*
X11978143Y-14520326D01*
X11959095Y-14510802D01*
X11949571Y-14501278D01*
X12301952Y-14520326D02*
X12301952Y-14320326D01*
X12387667Y-14520326D02*
X12387667Y-14415564D01*
X12378143Y-14396517D01*
X12359095Y-14386993D01*
X12330524Y-14386993D01*
X12311476Y-14396517D01*
X12301952Y-14406040D01*
X12511476Y-14520326D02*
X12492428Y-14510802D01*
X12482905Y-14501278D01*
X12473381Y-14482231D01*
X12473381Y-14425088D01*
X12482905Y-14406040D01*
X12492428Y-14396517D01*
X12511476Y-14386993D01*
X12540048Y-14386993D01*
X12559095Y-14396517D01*
X12568619Y-14406040D01*
X12578143Y-14425088D01*
X12578143Y-14482231D01*
X12568619Y-14501278D01*
X12559095Y-14510802D01*
X12540048Y-14520326D01*
X12511476Y-14520326D01*
X12692428Y-14520326D02*
X12673381Y-14510802D01*
X12663857Y-14491755D01*
X12663857Y-14320326D01*
X12844809Y-14510802D02*
X12825762Y-14520326D01*
X12787667Y-14520326D01*
X12768619Y-14510802D01*
X12759095Y-14491755D01*
X12759095Y-14415564D01*
X12768619Y-14396517D01*
X12787667Y-14386993D01*
X12825762Y-14386993D01*
X12844809Y-14396517D01*
X12854333Y-14415564D01*
X12854333Y-14434612D01*
X12759095Y-14453659D01*
X12930524Y-14510802D02*
X12949571Y-14520326D01*
X12987667Y-14520326D01*
X13006714Y-14510802D01*
X13016238Y-14491755D01*
X13016238Y-14482231D01*
X13006714Y-14463183D01*
X12987667Y-14453659D01*
X12959095Y-14453659D01*
X12940048Y-14444136D01*
X12930524Y-14425088D01*
X12930524Y-14415564D01*
X12940048Y-14396517D01*
X12959095Y-14386993D01*
X12987667Y-14386993D01*
X13006714Y-14396517D01*
X13082905Y-14596517D02*
X13092428Y-14586993D01*
X13111476Y-14558421D01*
X13121000Y-14539374D01*
X13130524Y-14510802D01*
X13140048Y-14463183D01*
X13140048Y-14425088D01*
X13130524Y-14377469D01*
X13121000Y-14348898D01*
X13111476Y-14329850D01*
X13092428Y-14301278D01*
X13082905Y-14291755D01*
D18*
X8191000Y-14633850D02*
X8311000Y-14753850D01*
X8311000Y-14633850D02*
X8191000Y-14753850D01*
X8293427Y-14736277D02*
X8293427Y-14651423D01*
X8208573Y-14651423D01*
X8208573Y-14736277D01*
X8293427Y-14736277D01*
D11*
X8673381Y-14784326D02*
X8559095Y-14784326D01*
X8616238Y-14784326D02*
X8616238Y-14584326D01*
X8597190Y-14612898D01*
X8578143Y-14631945D01*
X8559095Y-14641469D01*
X8759095Y-14765278D02*
X8768619Y-14774802D01*
X8759095Y-14784326D01*
X8749571Y-14774802D01*
X8759095Y-14765278D01*
X8759095Y-14784326D01*
X8844810Y-14603374D02*
X8854333Y-14593850D01*
X8873381Y-14584326D01*
X8921000Y-14584326D01*
X8940048Y-14593850D01*
X8949571Y-14603374D01*
X8959095Y-14622421D01*
X8959095Y-14641469D01*
X8949571Y-14670040D01*
X8835286Y-14784326D01*
X8959095Y-14784326D01*
X9082905Y-14584326D02*
X9101952Y-14584326D01*
X9121000Y-14593850D01*
X9130524Y-14603374D01*
X9140048Y-14622421D01*
X9149571Y-14660517D01*
X9149571Y-14708136D01*
X9140048Y-14746231D01*
X9130524Y-14765278D01*
X9121000Y-14774802D01*
X9101952Y-14784326D01*
X9082905Y-14784326D01*
X9063857Y-14774802D01*
X9054333Y-14765278D01*
X9044810Y-14746231D01*
X9035286Y-14708136D01*
X9035286Y-14660517D01*
X9044810Y-14622421D01*
X9054333Y-14603374D01*
X9063857Y-14593850D01*
X9082905Y-14584326D01*
X9273381Y-14584326D02*
X9292429Y-14584326D01*
X9311476Y-14593850D01*
X9321000Y-14603374D01*
X9330524Y-14622421D01*
X9340048Y-14660517D01*
X9340048Y-14708136D01*
X9330524Y-14746231D01*
X9321000Y-14765278D01*
X9311476Y-14774802D01*
X9292429Y-14784326D01*
X9273381Y-14784326D01*
X9254333Y-14774802D01*
X9244810Y-14765278D01*
X9235286Y-14746231D01*
X9225762Y-14708136D01*
X9225762Y-14660517D01*
X9235286Y-14622421D01*
X9244810Y-14603374D01*
X9254333Y-14593850D01*
X9273381Y-14584326D01*
X9425762Y-14784326D02*
X9425762Y-14650993D01*
X9425762Y-14670040D02*
X9435286Y-14660517D01*
X9454333Y-14650993D01*
X9482905Y-14650993D01*
X9501952Y-14660517D01*
X9511476Y-14679564D01*
X9511476Y-14784326D01*
X9511476Y-14679564D02*
X9521000Y-14660517D01*
X9540048Y-14650993D01*
X9568619Y-14650993D01*
X9587667Y-14660517D01*
X9597190Y-14679564D01*
X9597190Y-14784326D01*
X9692429Y-14784326D02*
X9692429Y-14650993D01*
X9692429Y-14670040D02*
X9701952Y-14660517D01*
X9721000Y-14650993D01*
X9749571Y-14650993D01*
X9768619Y-14660517D01*
X9778143Y-14679564D01*
X9778143Y-14784326D01*
X9778143Y-14679564D02*
X9787667Y-14660517D01*
X9806714Y-14650993D01*
X9835286Y-14650993D01*
X9854333Y-14660517D01*
X9863857Y-14679564D01*
X9863857Y-14784326D01*
X10254333Y-14574802D02*
X10082905Y-14831945D01*
X10511476Y-14584326D02*
X10530524Y-14584326D01*
X10549571Y-14593850D01*
X10559095Y-14603374D01*
X10568619Y-14622421D01*
X10578143Y-14660517D01*
X10578143Y-14708136D01*
X10568619Y-14746231D01*
X10559095Y-14765278D01*
X10549571Y-14774802D01*
X10530524Y-14784326D01*
X10511476Y-14784326D01*
X10492429Y-14774802D01*
X10482905Y-14765278D01*
X10473381Y-14746231D01*
X10463857Y-14708136D01*
X10463857Y-14660517D01*
X10473381Y-14622421D01*
X10482905Y-14603374D01*
X10492429Y-14593850D01*
X10511476Y-14584326D01*
X10663857Y-14765278D02*
X10673381Y-14774802D01*
X10663857Y-14784326D01*
X10654333Y-14774802D01*
X10663857Y-14765278D01*
X10663857Y-14784326D01*
X10797190Y-14584326D02*
X10816238Y-14584326D01*
X10835286Y-14593850D01*
X10844810Y-14603374D01*
X10854333Y-14622421D01*
X10863857Y-14660517D01*
X10863857Y-14708136D01*
X10854333Y-14746231D01*
X10844810Y-14765278D01*
X10835286Y-14774802D01*
X10816238Y-14784326D01*
X10797190Y-14784326D01*
X10778143Y-14774802D01*
X10768619Y-14765278D01*
X10759095Y-14746231D01*
X10749571Y-14708136D01*
X10749571Y-14660517D01*
X10759095Y-14622421D01*
X10768619Y-14603374D01*
X10778143Y-14593850D01*
X10797190Y-14584326D01*
X11035286Y-14650993D02*
X11035286Y-14784326D01*
X10987667Y-14574802D02*
X10940048Y-14717659D01*
X11063857Y-14717659D01*
X11121000Y-14584326D02*
X11254333Y-14584326D01*
X11168619Y-14784326D01*
X11321000Y-14603374D02*
X11330524Y-14593850D01*
X11349571Y-14584326D01*
X11397190Y-14584326D01*
X11416238Y-14593850D01*
X11425762Y-14603374D01*
X11435286Y-14622421D01*
X11435286Y-14641469D01*
X11425762Y-14670040D01*
X11311476Y-14784326D01*
X11435286Y-14784326D01*
X11511476Y-14584326D02*
X11511476Y-14622421D01*
X11587667Y-14584326D02*
X11587667Y-14622421D01*
X11882905Y-14860517D02*
X11873381Y-14850993D01*
X11854333Y-14822421D01*
X11844809Y-14803374D01*
X11835286Y-14774802D01*
X11825762Y-14727183D01*
X11825762Y-14689088D01*
X11835286Y-14641469D01*
X11844809Y-14612898D01*
X11854333Y-14593850D01*
X11873381Y-14565278D01*
X11882905Y-14555755D01*
X12044809Y-14650993D02*
X12044809Y-14784326D01*
X11997190Y-14574802D02*
X11949571Y-14717659D01*
X12073381Y-14717659D01*
X12301952Y-14784326D02*
X12301952Y-14584326D01*
X12387667Y-14784326D02*
X12387667Y-14679564D01*
X12378143Y-14660517D01*
X12359095Y-14650993D01*
X12330524Y-14650993D01*
X12311476Y-14660517D01*
X12301952Y-14670040D01*
X12511476Y-14784326D02*
X12492428Y-14774802D01*
X12482905Y-14765278D01*
X12473381Y-14746231D01*
X12473381Y-14689088D01*
X12482905Y-14670040D01*
X12492428Y-14660517D01*
X12511476Y-14650993D01*
X12540048Y-14650993D01*
X12559095Y-14660517D01*
X12568619Y-14670040D01*
X12578143Y-14689088D01*
X12578143Y-14746231D01*
X12568619Y-14765278D01*
X12559095Y-14774802D01*
X12540048Y-14784326D01*
X12511476Y-14784326D01*
X12692428Y-14784326D02*
X12673381Y-14774802D01*
X12663857Y-14755755D01*
X12663857Y-14584326D01*
X12844809Y-14774802D02*
X12825762Y-14784326D01*
X12787667Y-14784326D01*
X12768619Y-14774802D01*
X12759095Y-14755755D01*
X12759095Y-14679564D01*
X12768619Y-14660517D01*
X12787667Y-14650993D01*
X12825762Y-14650993D01*
X12844809Y-14660517D01*
X12854333Y-14679564D01*
X12854333Y-14698612D01*
X12759095Y-14717659D01*
X12930524Y-14774802D02*
X12949571Y-14784326D01*
X12987667Y-14784326D01*
X13006714Y-14774802D01*
X13016238Y-14755755D01*
X13016238Y-14746231D01*
X13006714Y-14727183D01*
X12987667Y-14717659D01*
X12959095Y-14717659D01*
X12940048Y-14708136D01*
X12930524Y-14689088D01*
X12930524Y-14679564D01*
X12940048Y-14660517D01*
X12959095Y-14650993D01*
X12987667Y-14650993D01*
X13006714Y-14660517D01*
X13082905Y-14860517D02*
X13092428Y-14850993D01*
X13111476Y-14822421D01*
X13121000Y-14803374D01*
X13130524Y-14774802D01*
X13140048Y-14727183D01*
X13140048Y-14689088D01*
X13130524Y-14641469D01*
X13121000Y-14612898D01*
X13111476Y-14593850D01*
X13092428Y-14565278D01*
X13082905Y-14555755D01*
X8111000Y-14857850D02*
X8311000Y-15057850D01*
X8311000Y-14857850D02*
X8111000Y-15057850D01*
X8211000Y-15057850D02*
X8311000Y-14957850D01*
X8211000Y-14857850D01*
X8111000Y-14957850D01*
X8211000Y-15057850D01*
X8549571Y-14848326D02*
X8673381Y-14848326D01*
X8606714Y-14924517D01*
X8635286Y-14924517D01*
X8654333Y-14934040D01*
X8663857Y-14943564D01*
X8673381Y-14962612D01*
X8673381Y-15010231D01*
X8663857Y-15029278D01*
X8654333Y-15038802D01*
X8635286Y-15048326D01*
X8578143Y-15048326D01*
X8559095Y-15038802D01*
X8549571Y-15029278D01*
X8759095Y-15029278D02*
X8768619Y-15038802D01*
X8759095Y-15048326D01*
X8749571Y-15038802D01*
X8759095Y-15029278D01*
X8759095Y-15048326D01*
X8844810Y-14867374D02*
X8854333Y-14857850D01*
X8873381Y-14848326D01*
X8921000Y-14848326D01*
X8940048Y-14857850D01*
X8949571Y-14867374D01*
X8959095Y-14886421D01*
X8959095Y-14905469D01*
X8949571Y-14934040D01*
X8835286Y-15048326D01*
X8959095Y-15048326D01*
X9082905Y-14848326D02*
X9101952Y-14848326D01*
X9121000Y-14857850D01*
X9130524Y-14867374D01*
X9140048Y-14886421D01*
X9149571Y-14924517D01*
X9149571Y-14972136D01*
X9140048Y-15010231D01*
X9130524Y-15029278D01*
X9121000Y-15038802D01*
X9101952Y-15048326D01*
X9082905Y-15048326D01*
X9063857Y-15038802D01*
X9054333Y-15029278D01*
X9044810Y-15010231D01*
X9035286Y-14972136D01*
X9035286Y-14924517D01*
X9044810Y-14886421D01*
X9054333Y-14867374D01*
X9063857Y-14857850D01*
X9082905Y-14848326D01*
X9273381Y-14848326D02*
X9292429Y-14848326D01*
X9311476Y-14857850D01*
X9321000Y-14867374D01*
X9330524Y-14886421D01*
X9340048Y-14924517D01*
X9340048Y-14972136D01*
X9330524Y-15010231D01*
X9321000Y-15029278D01*
X9311476Y-15038802D01*
X9292429Y-15048326D01*
X9273381Y-15048326D01*
X9254333Y-15038802D01*
X9244810Y-15029278D01*
X9235286Y-15010231D01*
X9225762Y-14972136D01*
X9225762Y-14924517D01*
X9235286Y-14886421D01*
X9244810Y-14867374D01*
X9254333Y-14857850D01*
X9273381Y-14848326D01*
X9425762Y-15048326D02*
X9425762Y-14914993D01*
X9425762Y-14934040D02*
X9435286Y-14924517D01*
X9454333Y-14914993D01*
X9482905Y-14914993D01*
X9501952Y-14924517D01*
X9511476Y-14943564D01*
X9511476Y-15048326D01*
X9511476Y-14943564D02*
X9521000Y-14924517D01*
X9540048Y-14914993D01*
X9568619Y-14914993D01*
X9587667Y-14924517D01*
X9597190Y-14943564D01*
X9597190Y-15048326D01*
X9692429Y-15048326D02*
X9692429Y-14914993D01*
X9692429Y-14934040D02*
X9701952Y-14924517D01*
X9721000Y-14914993D01*
X9749571Y-14914993D01*
X9768619Y-14924517D01*
X9778143Y-14943564D01*
X9778143Y-15048326D01*
X9778143Y-14943564D02*
X9787667Y-14924517D01*
X9806714Y-14914993D01*
X9835286Y-14914993D01*
X9854333Y-14924517D01*
X9863857Y-14943564D01*
X9863857Y-15048326D01*
X10254333Y-14838802D02*
X10082905Y-15095945D01*
X10511476Y-14848326D02*
X10530524Y-14848326D01*
X10549571Y-14857850D01*
X10559095Y-14867374D01*
X10568619Y-14886421D01*
X10578143Y-14924517D01*
X10578143Y-14972136D01*
X10568619Y-15010231D01*
X10559095Y-15029278D01*
X10549571Y-15038802D01*
X10530524Y-15048326D01*
X10511476Y-15048326D01*
X10492429Y-15038802D01*
X10482905Y-15029278D01*
X10473381Y-15010231D01*
X10463857Y-14972136D01*
X10463857Y-14924517D01*
X10473381Y-14886421D01*
X10482905Y-14867374D01*
X10492429Y-14857850D01*
X10511476Y-14848326D01*
X10663857Y-15029278D02*
X10673381Y-15038802D01*
X10663857Y-15048326D01*
X10654333Y-15038802D01*
X10663857Y-15029278D01*
X10663857Y-15048326D01*
X10863857Y-15048326D02*
X10749571Y-15048326D01*
X10806714Y-15048326D02*
X10806714Y-14848326D01*
X10787667Y-14876898D01*
X10768619Y-14895945D01*
X10749571Y-14905469D01*
X10940048Y-14867374D02*
X10949571Y-14857850D01*
X10968619Y-14848326D01*
X11016238Y-14848326D01*
X11035286Y-14857850D01*
X11044810Y-14867374D01*
X11054333Y-14886421D01*
X11054333Y-14905469D01*
X11044810Y-14934040D01*
X10930524Y-15048326D01*
X11054333Y-15048326D01*
X11225762Y-14848326D02*
X11187667Y-14848326D01*
X11168619Y-14857850D01*
X11159095Y-14867374D01*
X11140048Y-14895945D01*
X11130524Y-14934040D01*
X11130524Y-15010231D01*
X11140048Y-15029278D01*
X11149571Y-15038802D01*
X11168619Y-15048326D01*
X11206714Y-15048326D01*
X11225762Y-15038802D01*
X11235286Y-15029278D01*
X11244809Y-15010231D01*
X11244809Y-14962612D01*
X11235286Y-14943564D01*
X11225762Y-14934040D01*
X11206714Y-14924517D01*
X11168619Y-14924517D01*
X11149571Y-14934040D01*
X11140048Y-14943564D01*
X11130524Y-14962612D01*
X11368619Y-14848326D02*
X11387667Y-14848326D01*
X11406714Y-14857850D01*
X11416238Y-14867374D01*
X11425762Y-14886421D01*
X11435286Y-14924517D01*
X11435286Y-14972136D01*
X11425762Y-15010231D01*
X11416238Y-15029278D01*
X11406714Y-15038802D01*
X11387667Y-15048326D01*
X11368619Y-15048326D01*
X11349571Y-15038802D01*
X11340048Y-15029278D01*
X11330524Y-15010231D01*
X11321000Y-14972136D01*
X11321000Y-14924517D01*
X11330524Y-14886421D01*
X11340048Y-14867374D01*
X11349571Y-14857850D01*
X11368619Y-14848326D01*
X11511476Y-14848326D02*
X11511476Y-14886421D01*
X11587667Y-14848326D02*
X11587667Y-14886421D01*
X11882905Y-15124517D02*
X11873381Y-15114993D01*
X11854333Y-15086421D01*
X11844809Y-15067374D01*
X11835286Y-15038802D01*
X11825762Y-14991183D01*
X11825762Y-14953088D01*
X11835286Y-14905469D01*
X11844809Y-14876898D01*
X11854333Y-14857850D01*
X11873381Y-14829278D01*
X11882905Y-14819755D01*
X12044809Y-14914993D02*
X12044809Y-15048326D01*
X11997190Y-14838802D02*
X11949571Y-14981659D01*
X12073381Y-14981659D01*
X12301952Y-15048326D02*
X12301952Y-14848326D01*
X12387667Y-15048326D02*
X12387667Y-14943564D01*
X12378143Y-14924517D01*
X12359095Y-14914993D01*
X12330524Y-14914993D01*
X12311476Y-14924517D01*
X12301952Y-14934040D01*
X12511476Y-15048326D02*
X12492428Y-15038802D01*
X12482905Y-15029278D01*
X12473381Y-15010231D01*
X12473381Y-14953088D01*
X12482905Y-14934040D01*
X12492428Y-14924517D01*
X12511476Y-14914993D01*
X12540048Y-14914993D01*
X12559095Y-14924517D01*
X12568619Y-14934040D01*
X12578143Y-14953088D01*
X12578143Y-15010231D01*
X12568619Y-15029278D01*
X12559095Y-15038802D01*
X12540048Y-15048326D01*
X12511476Y-15048326D01*
X12692428Y-15048326D02*
X12673381Y-15038802D01*
X12663857Y-15019755D01*
X12663857Y-14848326D01*
X12844809Y-15038802D02*
X12825762Y-15048326D01*
X12787667Y-15048326D01*
X12768619Y-15038802D01*
X12759095Y-15019755D01*
X12759095Y-14943564D01*
X12768619Y-14924517D01*
X12787667Y-14914993D01*
X12825762Y-14914993D01*
X12844809Y-14924517D01*
X12854333Y-14943564D01*
X12854333Y-14962612D01*
X12759095Y-14981659D01*
X12930524Y-15038802D02*
X12949571Y-15048326D01*
X12987667Y-15048326D01*
X13006714Y-15038802D01*
X13016238Y-15019755D01*
X13016238Y-15010231D01*
X13006714Y-14991183D01*
X12987667Y-14981659D01*
X12959095Y-14981659D01*
X12940048Y-14972136D01*
X12930524Y-14953088D01*
X12930524Y-14943564D01*
X12940048Y-14924517D01*
X12959095Y-14914993D01*
X12987667Y-14914993D01*
X13006714Y-14924517D01*
X13082905Y-15124517D02*
X13092428Y-15114993D01*
X13111476Y-15086421D01*
X13121000Y-15067374D01*
X13130524Y-15038802D01*
X13140048Y-14991183D01*
X13140048Y-14953088D01*
X13130524Y-14905469D01*
X13121000Y-14876898D01*
X13111476Y-14857850D01*
X13092428Y-14829278D01*
X13082905Y-14819755D01*
X8211000Y-15177850D02*
X8211000Y-15377850D01*
X8111000Y-15277850D02*
X8311000Y-15277850D01*
X8311000Y-15277850D02*
G75*
G03*
X8311000Y-15277850I-100000J0D01*
G01*
X8559095Y-15187374D02*
X8568619Y-15177850D01*
X8587667Y-15168326D01*
X8635286Y-15168326D01*
X8654333Y-15177850D01*
X8663857Y-15187374D01*
X8673381Y-15206421D01*
X8673381Y-15225469D01*
X8663857Y-15254040D01*
X8549571Y-15368326D01*
X8673381Y-15368326D01*
X8759095Y-15349278D02*
X8768619Y-15358802D01*
X8759095Y-15368326D01*
X8749571Y-15358802D01*
X8759095Y-15349278D01*
X8759095Y-15368326D01*
X8892429Y-15168326D02*
X8911476Y-15168326D01*
X8930524Y-15177850D01*
X8940048Y-15187374D01*
X8949571Y-15206421D01*
X8959095Y-15244517D01*
X8959095Y-15292136D01*
X8949571Y-15330231D01*
X8940048Y-15349278D01*
X8930524Y-15358802D01*
X8911476Y-15368326D01*
X8892429Y-15368326D01*
X8873381Y-15358802D01*
X8863857Y-15349278D01*
X8854333Y-15330231D01*
X8844810Y-15292136D01*
X8844810Y-15244517D01*
X8854333Y-15206421D01*
X8863857Y-15187374D01*
X8873381Y-15177850D01*
X8892429Y-15168326D01*
X9082905Y-15168326D02*
X9101952Y-15168326D01*
X9121000Y-15177850D01*
X9130524Y-15187374D01*
X9140048Y-15206421D01*
X9149571Y-15244517D01*
X9149571Y-15292136D01*
X9140048Y-15330231D01*
X9130524Y-15349278D01*
X9121000Y-15358802D01*
X9101952Y-15368326D01*
X9082905Y-15368326D01*
X9063857Y-15358802D01*
X9054333Y-15349278D01*
X9044810Y-15330231D01*
X9035286Y-15292136D01*
X9035286Y-15244517D01*
X9044810Y-15206421D01*
X9054333Y-15187374D01*
X9063857Y-15177850D01*
X9082905Y-15168326D01*
X9273381Y-15168326D02*
X9292429Y-15168326D01*
X9311476Y-15177850D01*
X9321000Y-15187374D01*
X9330524Y-15206421D01*
X9340048Y-15244517D01*
X9340048Y-15292136D01*
X9330524Y-15330231D01*
X9321000Y-15349278D01*
X9311476Y-15358802D01*
X9292429Y-15368326D01*
X9273381Y-15368326D01*
X9254333Y-15358802D01*
X9244810Y-15349278D01*
X9235286Y-15330231D01*
X9225762Y-15292136D01*
X9225762Y-15244517D01*
X9235286Y-15206421D01*
X9244810Y-15187374D01*
X9254333Y-15177850D01*
X9273381Y-15168326D01*
X9425762Y-15368326D02*
X9425762Y-15234993D01*
X9425762Y-15254040D02*
X9435286Y-15244517D01*
X9454333Y-15234993D01*
X9482905Y-15234993D01*
X9501952Y-15244517D01*
X9511476Y-15263564D01*
X9511476Y-15368326D01*
X9511476Y-15263564D02*
X9521000Y-15244517D01*
X9540048Y-15234993D01*
X9568619Y-15234993D01*
X9587667Y-15244517D01*
X9597190Y-15263564D01*
X9597190Y-15368326D01*
X9692429Y-15368326D02*
X9692429Y-15234993D01*
X9692429Y-15254040D02*
X9701952Y-15244517D01*
X9721000Y-15234993D01*
X9749571Y-15234993D01*
X9768619Y-15244517D01*
X9778143Y-15263564D01*
X9778143Y-15368326D01*
X9778143Y-15263564D02*
X9787667Y-15244517D01*
X9806714Y-15234993D01*
X9835286Y-15234993D01*
X9854333Y-15244517D01*
X9863857Y-15263564D01*
X9863857Y-15368326D01*
X10254333Y-15158802D02*
X10082905Y-15415945D01*
X10511476Y-15168326D02*
X10530524Y-15168326D01*
X10549571Y-15177850D01*
X10559095Y-15187374D01*
X10568619Y-15206421D01*
X10578143Y-15244517D01*
X10578143Y-15292136D01*
X10568619Y-15330231D01*
X10559095Y-15349278D01*
X10549571Y-15358802D01*
X10530524Y-15368326D01*
X10511476Y-15368326D01*
X10492429Y-15358802D01*
X10482905Y-15349278D01*
X10473381Y-15330231D01*
X10463857Y-15292136D01*
X10463857Y-15244517D01*
X10473381Y-15206421D01*
X10482905Y-15187374D01*
X10492429Y-15177850D01*
X10511476Y-15168326D01*
X10663857Y-15349278D02*
X10673381Y-15358802D01*
X10663857Y-15368326D01*
X10654333Y-15358802D01*
X10663857Y-15349278D01*
X10663857Y-15368326D01*
X10797190Y-15168326D02*
X10816238Y-15168326D01*
X10835286Y-15177850D01*
X10844810Y-15187374D01*
X10854333Y-15206421D01*
X10863857Y-15244517D01*
X10863857Y-15292136D01*
X10854333Y-15330231D01*
X10844810Y-15349278D01*
X10835286Y-15358802D01*
X10816238Y-15368326D01*
X10797190Y-15368326D01*
X10778143Y-15358802D01*
X10768619Y-15349278D01*
X10759095Y-15330231D01*
X10749571Y-15292136D01*
X10749571Y-15244517D01*
X10759095Y-15206421D01*
X10768619Y-15187374D01*
X10778143Y-15177850D01*
X10797190Y-15168326D01*
X10930524Y-15168326D02*
X11063857Y-15168326D01*
X10978143Y-15368326D01*
X11168619Y-15254040D02*
X11149571Y-15244517D01*
X11140048Y-15234993D01*
X11130524Y-15215945D01*
X11130524Y-15206421D01*
X11140048Y-15187374D01*
X11149571Y-15177850D01*
X11168619Y-15168326D01*
X11206714Y-15168326D01*
X11225762Y-15177850D01*
X11235286Y-15187374D01*
X11244809Y-15206421D01*
X11244809Y-15215945D01*
X11235286Y-15234993D01*
X11225762Y-15244517D01*
X11206714Y-15254040D01*
X11168619Y-15254040D01*
X11149571Y-15263564D01*
X11140048Y-15273088D01*
X11130524Y-15292136D01*
X11130524Y-15330231D01*
X11140048Y-15349278D01*
X11149571Y-15358802D01*
X11168619Y-15368326D01*
X11206714Y-15368326D01*
X11225762Y-15358802D01*
X11235286Y-15349278D01*
X11244809Y-15330231D01*
X11244809Y-15292136D01*
X11235286Y-15273088D01*
X11225762Y-15263564D01*
X11206714Y-15254040D01*
X11311476Y-15168326D02*
X11444809Y-15168326D01*
X11359095Y-15368326D01*
X11511476Y-15168326D02*
X11511476Y-15206421D01*
X11587667Y-15168326D02*
X11587667Y-15206421D01*
X11882905Y-15444517D02*
X11873381Y-15434993D01*
X11854333Y-15406421D01*
X11844809Y-15387374D01*
X11835286Y-15358802D01*
X11825762Y-15311183D01*
X11825762Y-15273088D01*
X11835286Y-15225469D01*
X11844809Y-15196898D01*
X11854333Y-15177850D01*
X11873381Y-15149278D01*
X11882905Y-15139755D01*
X11949571Y-15187374D02*
X11959095Y-15177850D01*
X11978143Y-15168326D01*
X12025762Y-15168326D01*
X12044809Y-15177850D01*
X12054333Y-15187374D01*
X12063857Y-15206421D01*
X12063857Y-15225469D01*
X12054333Y-15254040D01*
X11940048Y-15368326D01*
X12063857Y-15368326D01*
X12301952Y-15368326D02*
X12301952Y-15168326D01*
X12387667Y-15368326D02*
X12387667Y-15263564D01*
X12378143Y-15244517D01*
X12359095Y-15234993D01*
X12330524Y-15234993D01*
X12311476Y-15244517D01*
X12301952Y-15254040D01*
X12511476Y-15368326D02*
X12492428Y-15358802D01*
X12482905Y-15349278D01*
X12473381Y-15330231D01*
X12473381Y-15273088D01*
X12482905Y-15254040D01*
X12492428Y-15244517D01*
X12511476Y-15234993D01*
X12540048Y-15234993D01*
X12559095Y-15244517D01*
X12568619Y-15254040D01*
X12578143Y-15273088D01*
X12578143Y-15330231D01*
X12568619Y-15349278D01*
X12559095Y-15358802D01*
X12540048Y-15368326D01*
X12511476Y-15368326D01*
X12692428Y-15368326D02*
X12673381Y-15358802D01*
X12663857Y-15339755D01*
X12663857Y-15168326D01*
X12844809Y-15358802D02*
X12825762Y-15368326D01*
X12787667Y-15368326D01*
X12768619Y-15358802D01*
X12759095Y-15339755D01*
X12759095Y-15263564D01*
X12768619Y-15244517D01*
X12787667Y-15234993D01*
X12825762Y-15234993D01*
X12844809Y-15244517D01*
X12854333Y-15263564D01*
X12854333Y-15282612D01*
X12759095Y-15301659D01*
X12930524Y-15358802D02*
X12949571Y-15368326D01*
X12987667Y-15368326D01*
X13006714Y-15358802D01*
X13016238Y-15339755D01*
X13016238Y-15330231D01*
X13006714Y-15311183D01*
X12987667Y-15301659D01*
X12959095Y-15301659D01*
X12940048Y-15292136D01*
X12930524Y-15273088D01*
X12930524Y-15263564D01*
X12940048Y-15244517D01*
X12959095Y-15234993D01*
X12987667Y-15234993D01*
X13006714Y-15244517D01*
X13082905Y-15444517D02*
X13092428Y-15434993D01*
X13111476Y-15406421D01*
X13121000Y-15387374D01*
X13130524Y-15358802D01*
X13140048Y-15311183D01*
X13140048Y-15273088D01*
X13130524Y-15225469D01*
X13121000Y-15196898D01*
X13111476Y-15177850D01*
X13092428Y-15149278D01*
X13082905Y-15139755D01*
X13444809Y-15444517D02*
X13435286Y-15434993D01*
X13416238Y-15406421D01*
X13406714Y-15387374D01*
X13397190Y-15358802D01*
X13387667Y-15311183D01*
X13387667Y-15273088D01*
X13397190Y-15225469D01*
X13406714Y-15196898D01*
X13416238Y-15177850D01*
X13435286Y-15149278D01*
X13444809Y-15139755D01*
X13521000Y-15234993D02*
X13521000Y-15368326D01*
X13521000Y-15254040D02*
X13530524Y-15244517D01*
X13549571Y-15234993D01*
X13578143Y-15234993D01*
X13597190Y-15244517D01*
X13606714Y-15263564D01*
X13606714Y-15368326D01*
X13730524Y-15368326D02*
X13711476Y-15358802D01*
X13701952Y-15349278D01*
X13692428Y-15330231D01*
X13692428Y-15273088D01*
X13701952Y-15254040D01*
X13711476Y-15244517D01*
X13730524Y-15234993D01*
X13759095Y-15234993D01*
X13778143Y-15244517D01*
X13787667Y-15254040D01*
X13797190Y-15273088D01*
X13797190Y-15330231D01*
X13787667Y-15349278D01*
X13778143Y-15358802D01*
X13759095Y-15368326D01*
X13730524Y-15368326D01*
X13854333Y-15234993D02*
X13930524Y-15234993D01*
X13882905Y-15168326D02*
X13882905Y-15339755D01*
X13892428Y-15358802D01*
X13911476Y-15368326D01*
X13930524Y-15368326D01*
X14149571Y-15234993D02*
X14149571Y-15434993D01*
X14149571Y-15244517D02*
X14168619Y-15234993D01*
X14206714Y-15234993D01*
X14225762Y-15244517D01*
X14235286Y-15254040D01*
X14244809Y-15273088D01*
X14244809Y-15330231D01*
X14235286Y-15349278D01*
X14225762Y-15358802D01*
X14206714Y-15368326D01*
X14168619Y-15368326D01*
X14149571Y-15358802D01*
X14359095Y-15368326D02*
X14340048Y-15358802D01*
X14330524Y-15339755D01*
X14330524Y-15168326D01*
X14521000Y-15368326D02*
X14521000Y-15263564D01*
X14511476Y-15244517D01*
X14492428Y-15234993D01*
X14454333Y-15234993D01*
X14435286Y-15244517D01*
X14521000Y-15358802D02*
X14501952Y-15368326D01*
X14454333Y-15368326D01*
X14435286Y-15358802D01*
X14425762Y-15339755D01*
X14425762Y-15320707D01*
X14435286Y-15301659D01*
X14454333Y-15292136D01*
X14501952Y-15292136D01*
X14521000Y-15282612D01*
X14587667Y-15234993D02*
X14663857Y-15234993D01*
X14616238Y-15168326D02*
X14616238Y-15339755D01*
X14625762Y-15358802D01*
X14644809Y-15368326D01*
X14663857Y-15368326D01*
X14806714Y-15358802D02*
X14787667Y-15368326D01*
X14749571Y-15368326D01*
X14730524Y-15358802D01*
X14721000Y-15339755D01*
X14721000Y-15263564D01*
X14730524Y-15244517D01*
X14749571Y-15234993D01*
X14787667Y-15234993D01*
X14806714Y-15244517D01*
X14816238Y-15263564D01*
X14816238Y-15282612D01*
X14721000Y-15301659D01*
X14987667Y-15368326D02*
X14987667Y-15168326D01*
X14987667Y-15358802D02*
X14968619Y-15368326D01*
X14930524Y-15368326D01*
X14911476Y-15358802D01*
X14901952Y-15349278D01*
X14892428Y-15330231D01*
X14892428Y-15273088D01*
X14901952Y-15254040D01*
X14911476Y-15244517D01*
X14930524Y-15234993D01*
X14968619Y-15234993D01*
X14987667Y-15244517D01*
X15063857Y-15444517D02*
X15073381Y-15434993D01*
X15092428Y-15406421D01*
X15101952Y-15387374D01*
X15111476Y-15358802D01*
X15121000Y-15311183D01*
X15121000Y-15273088D01*
X15111476Y-15225469D01*
X15101952Y-15196898D01*
X15092428Y-15177850D01*
X15073381Y-15149278D01*
X15063857Y-15139755D01*
M02*
