%TF.GenerationSoftware,KiCad,Pcbnew,(6.0.7)*%
%TF.CreationDate,2023-03-15T17:16:25-04:00*%
%TF.ProjectId,NPN Tracer V2,4e504e20-5472-4616-9365-722056322e6b,rev?*%
%TF.SameCoordinates,Original*%
%TF.FileFunction,Soldermask,Bot*%
%TF.FilePolarity,Negative*%
%FSLAX46Y46*%
G04 Gerber Fmt 4.6, Leading zero omitted, Abs format (unit mm)*
G04 Created by KiCad (PCBNEW (6.0.7)) date 2023-03-15 17:16:25*
%MOMM*%
%LPD*%
G01*
G04 APERTURE LIST*
%ADD10C,5.700000*%
%ADD11C,3.600000*%
%ADD12R,2.000000X4.600000*%
%ADD13O,2.000000X4.200000*%
%ADD14O,4.200000X2.000000*%
%ADD15R,1.700000X1.700000*%
%ADD16O,1.700000X1.700000*%
%ADD17R,2.200000X2.200000*%
%ADD18O,2.200000X2.200000*%
%ADD19R,1.500000X1.050000*%
%ADD20O,1.500000X1.050000*%
%ADD21R,1.600000X1.600000*%
%ADD22C,1.600000*%
%ADD23C,1.440000*%
%ADD24R,1.905000X2.000000*%
%ADD25O,1.905000X2.000000*%
%ADD26R,1.800000X1.800000*%
%ADD27C,1.800000*%
%ADD28C,2.400000*%
%ADD29O,2.400000X2.400000*%
%ADD30C,2.000000*%
%ADD31O,1.408000X2.816000*%
G04 APERTURE END LIST*
D10*
%TO.C,H4*%
X179070000Y-118808500D03*
D11*
X179070000Y-118808500D03*
%TD*%
D10*
%TO.C,H3*%
X86360000Y-118745000D03*
D11*
X86360000Y-118745000D03*
%TD*%
D10*
%TO.C,H2*%
X179070000Y-55626000D03*
D11*
X179070000Y-55626000D03*
%TD*%
D10*
%TO.C,H1*%
X86360000Y-55626000D03*
D11*
X86360000Y-55626000D03*
%TD*%
D12*
%TO.C,J9*%
X98044000Y-72692500D03*
D13*
X91744000Y-72692500D03*
D14*
X95144000Y-77492500D03*
%TD*%
D15*
%TO.C,J8*%
X88153000Y-82486500D03*
D16*
X90693000Y-82486500D03*
X93233000Y-82486500D03*
%TD*%
D17*
%TO.C,D7*%
X88138000Y-97536000D03*
D18*
X88138000Y-87376000D03*
%TD*%
D19*
%TO.C,Q2*%
X158983000Y-111442500D03*
D20*
X158983000Y-110172500D03*
X158983000Y-108902500D03*
%TD*%
D21*
%TO.C,C9*%
X169354500Y-62484000D03*
D22*
X171854500Y-62484000D03*
%TD*%
D23*
%TO.C,ADC1*%
X178308000Y-63172500D03*
X178308000Y-65712500D03*
X178308000Y-68252500D03*
%TD*%
%TO.C,ADC4*%
X177101500Y-107114500D03*
X177101500Y-109654500D03*
X177101500Y-112194500D03*
%TD*%
D19*
%TO.C,Q5*%
X144060500Y-70233000D03*
D20*
X144060500Y-68963000D03*
X144060500Y-67693000D03*
%TD*%
D15*
%TO.C,J3*%
X164597000Y-58102500D03*
D16*
X162057000Y-58102500D03*
%TD*%
D19*
%TO.C,Q4*%
X153416000Y-112712500D03*
D20*
X153416000Y-111442500D03*
X153416000Y-110172500D03*
%TD*%
D15*
%TO.C,J5*%
X171513500Y-112146000D03*
D16*
X171513500Y-109606000D03*
%TD*%
D15*
%TO.C,J7*%
X99695000Y-100076000D03*
D16*
X99695000Y-97536000D03*
%TD*%
D24*
%TO.C,U1*%
X88963500Y-104577000D03*
D25*
X91503500Y-104577000D03*
X94043500Y-104577000D03*
%TD*%
D15*
%TO.C,J6*%
X167259000Y-99631500D03*
D16*
X164719000Y-99631500D03*
%TD*%
D21*
%TO.C,C7*%
X135318500Y-64708500D03*
D22*
X135318500Y-62208500D03*
%TD*%
D26*
%TO.C,TB1*%
X119524500Y-111252000D03*
D27*
X119524500Y-108712000D03*
X119524500Y-106172000D03*
X119524500Y-103632000D03*
X119524500Y-101092000D03*
X119524500Y-98552000D03*
X119524500Y-96012000D03*
X119524500Y-93472000D03*
X119524500Y-90932000D03*
X119524500Y-88392000D03*
X119524500Y-85852000D03*
X119524500Y-83312000D03*
X119524500Y-80772000D03*
X119524500Y-78232000D03*
X119524500Y-75692000D03*
X104284500Y-75692000D03*
X104284500Y-78232000D03*
X104284500Y-80772000D03*
X104284500Y-83312000D03*
X104284500Y-85852000D03*
X104284500Y-88392000D03*
X104284500Y-90932000D03*
X104284500Y-93472000D03*
X104284500Y-96012000D03*
X104284500Y-98552000D03*
X104284500Y-101092000D03*
X104284500Y-103632000D03*
X104284500Y-106172000D03*
X104284500Y-108712000D03*
X104284500Y-111252000D03*
%TD*%
D21*
%TO.C,C11*%
X96700800Y-110617000D03*
D22*
X99200800Y-110617000D03*
%TD*%
D15*
%TO.C,J4*%
X166228000Y-103441500D03*
D16*
X163688000Y-103441500D03*
X161148000Y-103441500D03*
%TD*%
D23*
%TO.C,ADC3*%
X177165000Y-94795500D03*
X177165000Y-97335500D03*
X177165000Y-99875500D03*
%TD*%
D19*
%TO.C,Q3*%
X153098500Y-71630000D03*
D20*
X153098500Y-70360000D03*
X153098500Y-69090000D03*
%TD*%
D19*
%TO.C,Q6*%
X144568500Y-110934500D03*
D20*
X144568500Y-109664500D03*
X144568500Y-108394500D03*
%TD*%
D28*
%TO.C,R15*%
X166814500Y-68689500D03*
D29*
X166814500Y-76309500D03*
%TD*%
D26*
%TO.C,D6*%
X94043500Y-93530500D03*
D27*
X94043500Y-96070500D03*
%TD*%
D21*
%TO.C,C8*%
X136906000Y-104775000D03*
D22*
X136906000Y-102275000D03*
%TD*%
D15*
%TO.C,J2*%
X176403000Y-88143000D03*
D16*
X176403000Y-85603000D03*
%TD*%
D15*
%TO.C,J1*%
X171640500Y-72390000D03*
D16*
X171640500Y-74930000D03*
X171640500Y-77470000D03*
%TD*%
D30*
%TO.C,ZX1*%
X155740500Y-90995500D03*
X125000500Y-90995500D03*
D31*
X147510500Y-87185500D03*
X144970500Y-87185500D03*
X142430500Y-87185500D03*
X139890500Y-87185500D03*
X137350500Y-87185500D03*
X134810500Y-87185500D03*
X132270500Y-87185500D03*
X129730500Y-87185500D03*
X129730500Y-94805500D03*
X132270500Y-94805500D03*
X134810500Y-94805500D03*
X137350500Y-94805500D03*
X139890500Y-94805500D03*
X142430500Y-94805500D03*
X144970500Y-94805500D03*
X147510500Y-94805500D03*
%TD*%
D23*
%TO.C,ADC2*%
X177165000Y-75692000D03*
X177165000Y-78232000D03*
X177165000Y-80772000D03*
%TD*%
D28*
%TO.C,R16*%
X162433000Y-65959000D03*
D29*
X162433000Y-73579000D03*
%TD*%
D21*
%TO.C,C10*%
X88064800Y-110553500D03*
D22*
X90564800Y-110553500D03*
%TD*%
M02*
