%TF.GenerationSoftware,KiCad,Pcbnew,(6.0.7)*%
%TF.CreationDate,2023-04-20T22:54:43-04:00*%
%TF.ProjectId,NPN Tracer V2b,4e504e20-5472-4616-9365-72205632622e,rev?*%
%TF.SameCoordinates,Original*%
%TF.FileFunction,Soldermask,Bot*%
%TF.FilePolarity,Negative*%
%FSLAX46Y46*%
G04 Gerber Fmt 4.6, Leading zero omitted, Abs format (unit mm)*
G04 Created by KiCad (PCBNEW (6.0.7)) date 2023-04-20 22:54:43*
%MOMM*%
%LPD*%
G01*
G04 APERTURE LIST*
%ADD10R,4.600000X2.000000*%
%ADD11O,4.200000X2.000000*%
%ADD12O,2.000000X4.200000*%
%ADD13R,1.800000X1.800000*%
%ADD14C,1.800000*%
%ADD15R,1.500000X1.500000*%
%ADD16C,1.500000*%
%ADD17R,2.200000X2.200000*%
%ADD18O,2.200000X2.200000*%
%ADD19R,1.700000X1.700000*%
%ADD20O,1.700000X1.700000*%
%ADD21R,1.600000X1.600000*%
%ADD22C,1.600000*%
%ADD23C,1.440000*%
%ADD24O,1.600000X1.600000*%
%ADD25C,2.000000*%
%ADD26O,2.816000X1.408000*%
%ADD27R,1.905000X2.000000*%
%ADD28O,1.905000X2.000000*%
%ADD29C,2.400000*%
%ADD30O,2.400000X2.400000*%
G04 APERTURE END LIST*
D10*
%TO.C,J8*%
X110856000Y-139890500D03*
D11*
X110856000Y-146190500D03*
D12*
X115656000Y-142790500D03*
%TD*%
D13*
%TO.C,D2*%
X81348500Y-135318500D03*
D14*
X78808500Y-135318500D03*
%TD*%
D15*
%TO.C,Q1*%
X98552000Y-104140000D03*
D16*
X98552000Y-101600000D03*
X98552000Y-99060000D03*
%TD*%
D17*
%TO.C,D1*%
X85090000Y-139065000D03*
D18*
X85090000Y-149225000D03*
%TD*%
D19*
%TO.C,J6*%
X129540000Y-105981500D03*
D20*
X127000000Y-105981500D03*
%TD*%
D21*
%TO.C,C4*%
X92583000Y-146738849D03*
D22*
X92583000Y-149238849D03*
%TD*%
D23*
%TO.C,ADC1*%
X107198000Y-72644000D03*
X104658000Y-72644000D03*
X102118000Y-72644000D03*
%TD*%
%TO.C,ADC4*%
X120459500Y-115887500D03*
X120459500Y-113347500D03*
X120459500Y-110807500D03*
%TD*%
%TO.C,ADC3*%
X128651000Y-115633500D03*
X128651000Y-113093500D03*
X128651000Y-110553500D03*
%TD*%
D19*
%TO.C,J2*%
X116459000Y-78486000D03*
D20*
X113919000Y-78486000D03*
%TD*%
D19*
%TO.C,J7*%
X80645000Y-143398000D03*
D20*
X80645000Y-145938000D03*
X80645000Y-148478000D03*
%TD*%
D21*
%TO.C,C8*%
X64619500Y-147066000D03*
D22*
X62119500Y-147066000D03*
%TD*%
D21*
%TO.C,U1*%
X84836000Y-96139000D03*
D24*
X87376000Y-96139000D03*
X89916000Y-96139000D03*
X92456000Y-96139000D03*
X92456000Y-88519000D03*
X89916000Y-88519000D03*
X87376000Y-88519000D03*
X84836000Y-88519000D03*
%TD*%
D25*
%TO.C,ZX1*%
X130556000Y-69374500D03*
X130556000Y-100114500D03*
D26*
X134366000Y-91884500D03*
X134366000Y-89344500D03*
X134366000Y-86804500D03*
X134366000Y-84264500D03*
X134366000Y-81724500D03*
X134366000Y-79184500D03*
X134366000Y-76644500D03*
X134366000Y-74104500D03*
X126746000Y-74104500D03*
X126746000Y-76644500D03*
X126746000Y-79184500D03*
X126746000Y-81724500D03*
X126746000Y-84264500D03*
X126746000Y-86804500D03*
X126746000Y-89344500D03*
X126746000Y-91884500D03*
%TD*%
D21*
%TO.C,C7*%
X71120000Y-146685000D03*
D22*
X73620000Y-146685000D03*
%TD*%
D13*
%TO.C,D6*%
X109791500Y-109728000D03*
D14*
X107251500Y-109728000D03*
%TD*%
D19*
%TO.C,J5*%
X117724000Y-106299000D03*
D20*
X120264000Y-106299000D03*
%TD*%
D23*
%TO.C,ADC2*%
X119390000Y-72707500D03*
X116850000Y-72707500D03*
X114310000Y-72707500D03*
%TD*%
D19*
%TO.C,J4*%
X115189000Y-101331000D03*
D20*
X115189000Y-98791000D03*
X115189000Y-96251000D03*
%TD*%
D27*
%TO.C,U3*%
X92519500Y-140271500D03*
D28*
X95059500Y-140271500D03*
X97599500Y-140271500D03*
%TD*%
D29*
%TO.C,R5*%
X99631500Y-90170000D03*
D30*
X107251500Y-90170000D03*
%TD*%
D19*
%TO.C,J3*%
X103949500Y-78549500D03*
D20*
X101409500Y-78549500D03*
%TD*%
D29*
%TO.C,R6*%
X99631500Y-85407500D03*
D30*
X107251500Y-85407500D03*
%TD*%
D13*
%TO.C,TB1*%
X101600000Y-108189500D03*
D14*
X99060000Y-108189500D03*
X96520000Y-108189500D03*
X93980000Y-108189500D03*
X91440000Y-108189500D03*
X88900000Y-108189500D03*
X86360000Y-108189500D03*
X83820000Y-108189500D03*
X81280000Y-108189500D03*
X78740000Y-108189500D03*
X76200000Y-108189500D03*
X73660000Y-108189500D03*
X71120000Y-108189500D03*
X68580000Y-108189500D03*
X66040000Y-108189500D03*
X66040000Y-123429500D03*
X68580000Y-123429500D03*
X71120000Y-123429500D03*
X73660000Y-123429500D03*
X76200000Y-123429500D03*
X78740000Y-123429500D03*
X81280000Y-123429500D03*
X83820000Y-123429500D03*
X86360000Y-123429500D03*
X88900000Y-123429500D03*
X91440000Y-123429500D03*
X93980000Y-123429500D03*
X96520000Y-123429500D03*
X99060000Y-123429500D03*
X101600000Y-123429500D03*
%TD*%
D19*
%TO.C,J1*%
X112141000Y-90424000D03*
D20*
X112141000Y-87884000D03*
X112141000Y-85344000D03*
%TD*%
D21*
%TO.C,U2*%
X69479000Y-101893000D03*
D24*
X72019000Y-101893000D03*
X74559000Y-101893000D03*
X77099000Y-101893000D03*
X77099000Y-94273000D03*
X74559000Y-94273000D03*
X72019000Y-94273000D03*
X69479000Y-94273000D03*
%TD*%
D21*
%TO.C,C5*%
X101219000Y-146992849D03*
D22*
X101219000Y-149492849D03*
%TD*%
M02*
