M48
; DRILL file {KiCad (6.0.7)} date Thu Apr 20 22:54:41 2023
; FORMAT={-:-/ absolute / metric / decimal}
; #@! TF.CreationDate,2023-04-20T22:54:41-04:00
; #@! TF.GenerationSoftware,Kicad,Pcbnew,(6.0.7)
; #@! TF.FileFunction,MixedPlating,1,2
FMAT,2
METRIC
; #@! TA.AperFunction,Plated,PTH,ComponentDrill
T1C0.800
; #@! TA.AperFunction,Plated,PTH,ComponentDrill
T2C0.900
; #@! TA.AperFunction,Plated,PTH,ComponentDrill
T3C1.000
; #@! TA.AperFunction,Plated,PTH,ComponentDrill
T4C1.000
; #@! TA.AperFunction,Plated,PTH,ComponentDrill
T5C1.100
; #@! TA.AperFunction,Plated,PTH,ComponentDrill
T6C1.200
; #@! TA.AperFunction,NonPlated,NPTH,ComponentDrill
T7C2.000
%
G90
G05
T1
X62.119Y-147.066
X64.62Y-147.066
X69.479Y-94.273
X69.479Y-101.893
X71.12Y-146.685
X72.019Y-94.273
X72.019Y-101.893
X73.62Y-146.685
X74.559Y-94.273
X74.559Y-101.893
X77.099Y-94.273
X77.099Y-101.893
X84.836Y-88.519
X84.836Y-96.139
X87.376Y-88.519
X87.376Y-96.139
X89.916Y-88.519
X89.916Y-96.139
X92.456Y-88.519
X92.456Y-96.139
X92.583Y-146.739
X92.583Y-149.239
X98.552Y-99.06
X98.552Y-101.6
X98.552Y-104.14
X101.219Y-146.993
X101.219Y-149.493
X102.118Y-72.644
X104.658Y-72.644
X107.198Y-72.644
X114.31Y-72.707
X116.85Y-72.707
X119.39Y-72.707
X120.459Y-110.807
X120.459Y-113.347
X120.459Y-115.887
X128.651Y-110.553
X128.651Y-113.093
X128.651Y-115.633
T2
X66.04Y-108.189
X66.04Y-123.429
X68.58Y-108.189
X68.58Y-123.429
X71.12Y-108.189
X71.12Y-123.429
X73.66Y-108.189
X73.66Y-123.429
X76.2Y-108.189
X76.2Y-123.429
X78.74Y-108.189
X78.74Y-123.429
X78.808Y-135.319
X81.28Y-108.189
X81.28Y-123.429
X81.349Y-135.319
X83.82Y-108.189
X83.82Y-123.429
X86.36Y-108.189
X86.36Y-123.429
X88.9Y-108.189
X88.9Y-123.429
X91.44Y-108.189
X91.44Y-123.429
X93.98Y-108.189
X93.98Y-123.429
X96.52Y-108.189
X96.52Y-123.429
X99.06Y-108.189
X99.06Y-123.429
X101.6Y-108.189
X101.6Y-123.429
X107.251Y-109.728
X109.791Y-109.728
X126.746Y-74.105
X126.746Y-76.644
X126.746Y-79.184
X126.746Y-81.724
X126.746Y-84.264
X126.746Y-86.804
X126.746Y-89.344
X126.746Y-91.885
X134.366Y-74.105
X134.366Y-76.644
X134.366Y-79.184
X134.366Y-81.724
X134.366Y-84.264
X134.366Y-86.804
X134.366Y-89.344
X134.366Y-91.885
T3
X80.645Y-143.398
X80.645Y-145.938
X80.645Y-148.478
X101.409Y-78.549
X103.95Y-78.549
X112.141Y-85.344
X112.141Y-87.884
X112.141Y-90.424
X113.919Y-78.486
X115.189Y-96.251
X115.189Y-98.791
X115.189Y-101.331
X116.459Y-78.486
X117.724Y-106.299
X120.264Y-106.299
X127.0Y-105.981
X129.54Y-105.981
T4
X86.709Y-77.543
X89.01Y-77.543
X91.309Y-77.543
T5
X85.09Y-139.065
X85.09Y-149.225
X92.519Y-140.272
X95.059Y-140.272
X97.599Y-140.272
T6
X99.631Y-85.407
X99.631Y-90.17
X107.251Y-85.407
X107.251Y-90.17
T7
X130.556Y-69.374
X130.556Y-100.114
T3
X109.556Y-139.891G85X112.156Y-139.891
G05
X109.756Y-146.19G85X111.956Y-146.19
G05
X115.656Y-141.69G85X115.656Y-143.891
G05
T0
M30
