%TF.GenerationSoftware,KiCad,Pcbnew,(6.0.7)*%
%TF.CreationDate,2023-04-20T22:54:43-04:00*%
%TF.ProjectId,NPN Tracer V2b,4e504e20-5472-4616-9365-72205632622e,rev?*%
%TF.SameCoordinates,Original*%
%TF.FileFunction,Paste,Top*%
%TF.FilePolarity,Positive*%
%FSLAX46Y46*%
G04 Gerber Fmt 4.6, Leading zero omitted, Abs format (unit mm)*
G04 Created by KiCad (PCBNEW (6.0.7)) date 2023-04-20 22:54:43*
%MOMM*%
%LPD*%
G01*
G04 APERTURE LIST*
G04 Aperture macros list*
%AMRoundRect*
0 Rectangle with rounded corners*
0 $1 Rounding radius*
0 $2 $3 $4 $5 $6 $7 $8 $9 X,Y pos of 4 corners*
0 Add a 4 corners polygon primitive as box body*
4,1,4,$2,$3,$4,$5,$6,$7,$8,$9,$2,$3,0*
0 Add four circle primitives for the rounded corners*
1,1,$1+$1,$2,$3*
1,1,$1+$1,$4,$5*
1,1,$1+$1,$6,$7*
1,1,$1+$1,$8,$9*
0 Add four rect primitives between the rounded corners*
20,1,$1+$1,$2,$3,$4,$5,0*
20,1,$1+$1,$4,$5,$6,$7,0*
20,1,$1+$1,$6,$7,$8,$9,0*
20,1,$1+$1,$8,$9,$2,$3,0*%
G04 Aperture macros list end*
%ADD10RoundRect,0.250000X-0.650000X0.325000X-0.650000X-0.325000X0.650000X-0.325000X0.650000X0.325000X0*%
%ADD11RoundRect,0.250000X0.312500X0.625000X-0.312500X0.625000X-0.312500X-0.625000X0.312500X-0.625000X0*%
%ADD12R,1.700000X1.300000*%
%ADD13RoundRect,0.250000X0.625000X-0.312500X0.625000X0.312500X-0.625000X0.312500X-0.625000X-0.312500X0*%
%ADD14RoundRect,0.250000X-0.625000X0.312500X-0.625000X-0.312500X0.625000X-0.312500X0.625000X0.312500X0*%
%ADD15RoundRect,0.250000X-0.325000X-0.650000X0.325000X-0.650000X0.325000X0.650000X-0.325000X0.650000X0*%
%ADD16RoundRect,0.150000X0.150000X-0.825000X0.150000X0.825000X-0.150000X0.825000X-0.150000X-0.825000X0*%
G04 APERTURE END LIST*
D10*
%TO.C,C13*%
X78359000Y-126096500D03*
X78359000Y-129046500D03*
%TD*%
D11*
%TO.C,R14*%
X87124000Y-135255000D03*
X84199000Y-135255000D03*
%TD*%
D12*
%TO.C,D3*%
X61404500Y-135798500D03*
X61404500Y-132298500D03*
%TD*%
D10*
%TO.C,C12*%
X87439500Y-126160000D03*
X87439500Y-129110000D03*
%TD*%
D11*
%TO.C,R3*%
X87697500Y-99934500D03*
X84772500Y-99934500D03*
%TD*%
%TO.C,R9*%
X97220500Y-77343000D03*
X94295500Y-77343000D03*
%TD*%
D13*
%TO.C,R1*%
X74104500Y-91237000D03*
X74104500Y-88312000D03*
%TD*%
D10*
%TO.C,C10*%
X84391500Y-126096500D03*
X84391500Y-129046500D03*
%TD*%
D12*
%TO.C,D4*%
X61468000Y-141577000D03*
X61468000Y-138077000D03*
%TD*%
D14*
%TO.C,R16*%
X92773500Y-126109000D03*
X92773500Y-129034000D03*
%TD*%
D11*
%TO.C,R2*%
X92521500Y-99871000D03*
X89596500Y-99871000D03*
%TD*%
D10*
%TO.C,C11*%
X81280000Y-126096500D03*
X81280000Y-129046500D03*
%TD*%
D15*
%TO.C,C2*%
X63866500Y-99045500D03*
X66816500Y-99045500D03*
%TD*%
D10*
%TO.C,C14*%
X75374500Y-126096500D03*
X75374500Y-129046500D03*
%TD*%
D15*
%TO.C,C3*%
X63866500Y-101585500D03*
X66816500Y-101585500D03*
%TD*%
D11*
%TO.C,R13*%
X111000000Y-100393500D03*
X108075000Y-100393500D03*
%TD*%
%TO.C,R12*%
X110936500Y-97282000D03*
X108011500Y-97282000D03*
%TD*%
D15*
%TO.C,C6*%
X65962000Y-133159500D03*
X68912000Y-133159500D03*
%TD*%
D16*
%TO.C,U4*%
X69088000Y-140778000D03*
X70358000Y-140778000D03*
X71628000Y-140778000D03*
X72898000Y-140778000D03*
X72898000Y-135828000D03*
X71628000Y-135828000D03*
X70358000Y-135828000D03*
X69088000Y-135828000D03*
%TD*%
D13*
%TO.C,R17*%
X112776000Y-111127000D03*
X112776000Y-108202000D03*
%TD*%
D11*
%TO.C,R11*%
X89029000Y-85090000D03*
X86104000Y-85090000D03*
%TD*%
D10*
%TO.C,C9*%
X95948500Y-126160000D03*
X95948500Y-129110000D03*
%TD*%
D11*
%TO.C,R7*%
X66804000Y-104189000D03*
X63879000Y-104189000D03*
%TD*%
D14*
%TO.C,R4*%
X102806500Y-100963000D03*
X102806500Y-103888000D03*
%TD*%
D12*
%TO.C,D5*%
X99187000Y-126202500D03*
X99187000Y-129702500D03*
%TD*%
D14*
%TO.C,R15*%
X90043000Y-126109000D03*
X90043000Y-129034000D03*
%TD*%
D10*
%TO.C,C1*%
X81597500Y-87552000D03*
X81597500Y-90502000D03*
%TD*%
D11*
%TO.C,R10*%
X94299500Y-85026500D03*
X91374500Y-85026500D03*
%TD*%
D13*
%TO.C,R8*%
X68834000Y-91110000D03*
X68834000Y-88185000D03*
%TD*%
M02*
