%TF.GenerationSoftware,KiCad,Pcbnew,(6.0.7)*%
%TF.CreationDate,2023-03-15T17:40:26-04:00*%
%TF.ProjectId,NPN Tracer V1,4e504e20-5472-4616-9365-722056312e6b,rev?*%
%TF.SameCoordinates,Original*%
%TF.FileFunction,Legend,Top*%
%TF.FilePolarity,Positive*%
%FSLAX46Y46*%
G04 Gerber Fmt 4.6, Leading zero omitted, Abs format (unit mm)*
G04 Created by KiCad (PCBNEW (6.0.7)) date 2023-03-15 17:40:26*
%MOMM*%
%LPD*%
G01*
G04 APERTURE LIST*
%ADD10C,0.200000*%
%ADD11C,0.300000*%
%ADD12C,0.150000*%
%ADD13C,0.127000*%
%ADD14C,0.120000*%
%ADD15C,0.101600*%
%ADD16C,0.203200*%
G04 APERTURE END LIST*
D10*
X121031047Y-96908928D02*
X121792952Y-96908928D01*
X121412000Y-97289880D02*
X121412000Y-96527976D01*
X128143047Y-96972428D02*
X128904952Y-96972428D01*
X128524000Y-97353380D02*
X128524000Y-96591476D01*
X167322547Y-100337928D02*
X168084452Y-100337928D01*
X167703500Y-100718880D02*
X167703500Y-99956976D01*
X160909047Y-101163428D02*
X161670952Y-101163428D01*
X161290000Y-101544380D02*
X161290000Y-100782476D01*
D11*
X116361785Y-53890571D02*
X116361785Y-52390571D01*
X117218928Y-53890571D01*
X117218928Y-52390571D01*
X117933214Y-53890571D02*
X117933214Y-52390571D01*
X118504642Y-52390571D01*
X118647500Y-52462000D01*
X118718928Y-52533428D01*
X118790357Y-52676285D01*
X118790357Y-52890571D01*
X118718928Y-53033428D01*
X118647500Y-53104857D01*
X118504642Y-53176285D01*
X117933214Y-53176285D01*
X119433214Y-53890571D02*
X119433214Y-52390571D01*
X120290357Y-53890571D01*
X120290357Y-52390571D01*
X122076071Y-52319142D02*
X120790357Y-54247714D01*
X122576071Y-53890571D02*
X122576071Y-52390571D01*
X123433214Y-53890571D01*
X123433214Y-52390571D01*
X124147499Y-53890571D02*
X124147499Y-52390571D01*
X124647499Y-53462000D01*
X125147499Y-52390571D01*
X125147499Y-53890571D01*
X126147500Y-52390571D02*
X126433214Y-52390571D01*
X126576071Y-52462000D01*
X126718928Y-52604857D01*
X126790357Y-52890571D01*
X126790357Y-53390571D01*
X126718928Y-53676285D01*
X126576071Y-53819142D01*
X126433214Y-53890571D01*
X126147500Y-53890571D01*
X126004642Y-53819142D01*
X125861785Y-53676285D01*
X125790357Y-53390571D01*
X125790357Y-52890571D01*
X125861785Y-52604857D01*
X126004642Y-52462000D01*
X126147500Y-52390571D01*
X127361785Y-53819142D02*
X127576071Y-53890571D01*
X127933214Y-53890571D01*
X128076071Y-53819142D01*
X128147499Y-53747714D01*
X128218928Y-53604857D01*
X128218928Y-53462000D01*
X128147499Y-53319142D01*
X128076071Y-53247714D01*
X127933214Y-53176285D01*
X127647499Y-53104857D01*
X127504642Y-53033428D01*
X127433214Y-52962000D01*
X127361785Y-52819142D01*
X127361785Y-52676285D01*
X127433214Y-52533428D01*
X127504642Y-52462000D01*
X127647499Y-52390571D01*
X128004642Y-52390571D01*
X128218928Y-52462000D01*
X129790357Y-52390571D02*
X130647500Y-52390571D01*
X130218928Y-53890571D02*
X130218928Y-52390571D01*
X131147499Y-53890571D02*
X131147499Y-52890571D01*
X131147499Y-53176285D02*
X131218928Y-53033428D01*
X131290357Y-52962000D01*
X131433214Y-52890571D01*
X131576071Y-52890571D01*
X132718928Y-53890571D02*
X132718928Y-53104857D01*
X132647500Y-52962000D01*
X132504642Y-52890571D01*
X132218928Y-52890571D01*
X132076071Y-52962000D01*
X132718928Y-53819142D02*
X132576071Y-53890571D01*
X132218928Y-53890571D01*
X132076071Y-53819142D01*
X132004642Y-53676285D01*
X132004642Y-53533428D01*
X132076071Y-53390571D01*
X132218928Y-53319142D01*
X132576071Y-53319142D01*
X132718928Y-53247714D01*
X133433214Y-52890571D02*
X133433214Y-53890571D01*
X133433214Y-53033428D02*
X133504642Y-52962000D01*
X133647500Y-52890571D01*
X133861785Y-52890571D01*
X134004642Y-52962000D01*
X134076071Y-53104857D01*
X134076071Y-53890571D01*
X134718928Y-53819142D02*
X134861785Y-53890571D01*
X135147500Y-53890571D01*
X135290357Y-53819142D01*
X135361785Y-53676285D01*
X135361785Y-53604857D01*
X135290357Y-53462000D01*
X135147500Y-53390571D01*
X134933214Y-53390571D01*
X134790357Y-53319142D01*
X134718928Y-53176285D01*
X134718928Y-53104857D01*
X134790357Y-52962000D01*
X134933214Y-52890571D01*
X135147500Y-52890571D01*
X135290357Y-52962000D01*
X136004642Y-53890571D02*
X136004642Y-52890571D01*
X136004642Y-52390571D02*
X135933214Y-52462000D01*
X136004642Y-52533428D01*
X136076071Y-52462000D01*
X136004642Y-52390571D01*
X136004642Y-52533428D01*
X136647500Y-53819142D02*
X136790357Y-53890571D01*
X137076071Y-53890571D01*
X137218928Y-53819142D01*
X137290357Y-53676285D01*
X137290357Y-53604857D01*
X137218928Y-53462000D01*
X137076071Y-53390571D01*
X136861785Y-53390571D01*
X136718928Y-53319142D01*
X136647500Y-53176285D01*
X136647500Y-53104857D01*
X136718928Y-52962000D01*
X136861785Y-52890571D01*
X137076071Y-52890571D01*
X137218928Y-52962000D01*
X137718928Y-52890571D02*
X138290357Y-52890571D01*
X137933214Y-52390571D02*
X137933214Y-53676285D01*
X138004642Y-53819142D01*
X138147500Y-53890571D01*
X138290357Y-53890571D01*
X139004642Y-53890571D02*
X138861785Y-53819142D01*
X138790357Y-53747714D01*
X138718928Y-53604857D01*
X138718928Y-53176285D01*
X138790357Y-53033428D01*
X138861785Y-52962000D01*
X139004642Y-52890571D01*
X139218928Y-52890571D01*
X139361785Y-52962000D01*
X139433214Y-53033428D01*
X139504642Y-53176285D01*
X139504642Y-53604857D01*
X139433214Y-53747714D01*
X139361785Y-53819142D01*
X139218928Y-53890571D01*
X139004642Y-53890571D01*
X140147500Y-53890571D02*
X140147500Y-52890571D01*
X140147500Y-53176285D02*
X140218928Y-53033428D01*
X140290357Y-52962000D01*
X140433214Y-52890571D01*
X140576071Y-52890571D01*
X142004642Y-52390571D02*
X142861785Y-52390571D01*
X142433214Y-53890571D02*
X142433214Y-52390571D01*
X143361785Y-53890571D02*
X143361785Y-52890571D01*
X143361785Y-53176285D02*
X143433214Y-53033428D01*
X143504642Y-52962000D01*
X143647500Y-52890571D01*
X143790357Y-52890571D01*
X144933214Y-53890571D02*
X144933214Y-53104857D01*
X144861785Y-52962000D01*
X144718928Y-52890571D01*
X144433214Y-52890571D01*
X144290357Y-52962000D01*
X144933214Y-53819142D02*
X144790357Y-53890571D01*
X144433214Y-53890571D01*
X144290357Y-53819142D01*
X144218928Y-53676285D01*
X144218928Y-53533428D01*
X144290357Y-53390571D01*
X144433214Y-53319142D01*
X144790357Y-53319142D01*
X144933214Y-53247714D01*
X146290357Y-53819142D02*
X146147500Y-53890571D01*
X145861785Y-53890571D01*
X145718928Y-53819142D01*
X145647500Y-53747714D01*
X145576071Y-53604857D01*
X145576071Y-53176285D01*
X145647500Y-53033428D01*
X145718928Y-52962000D01*
X145861785Y-52890571D01*
X146147500Y-52890571D01*
X146290357Y-52962000D01*
X147504642Y-53819142D02*
X147361785Y-53890571D01*
X147076071Y-53890571D01*
X146933214Y-53819142D01*
X146861785Y-53676285D01*
X146861785Y-53104857D01*
X146933214Y-52962000D01*
X147076071Y-52890571D01*
X147361785Y-52890571D01*
X147504642Y-52962000D01*
X147576071Y-53104857D01*
X147576071Y-53247714D01*
X146861785Y-53390571D01*
X148218928Y-53890571D02*
X148218928Y-52890571D01*
X148218928Y-53176285D02*
X148290357Y-53033428D01*
X148361785Y-52962000D01*
X148504642Y-52890571D01*
X148647500Y-52890571D01*
X120826071Y-54805571D02*
X121326071Y-56305571D01*
X121826071Y-54805571D01*
X122326071Y-55519857D02*
X122826071Y-55519857D01*
X123040357Y-56305571D02*
X122326071Y-56305571D01*
X122326071Y-54805571D01*
X123040357Y-54805571D01*
X123540357Y-54805571D02*
X124468928Y-54805571D01*
X123968928Y-55377000D01*
X124183214Y-55377000D01*
X124326071Y-55448428D01*
X124397500Y-55519857D01*
X124468928Y-55662714D01*
X124468928Y-56019857D01*
X124397500Y-56162714D01*
X124326071Y-56234142D01*
X124183214Y-56305571D01*
X123754642Y-56305571D01*
X123611785Y-56234142D01*
X123540357Y-56162714D01*
X125397500Y-54805571D02*
X125540357Y-54805571D01*
X125683214Y-54877000D01*
X125754642Y-54948428D01*
X125826071Y-55091285D01*
X125897500Y-55377000D01*
X125897500Y-55734142D01*
X125826071Y-56019857D01*
X125754642Y-56162714D01*
X125683214Y-56234142D01*
X125540357Y-56305571D01*
X125397500Y-56305571D01*
X125254642Y-56234142D01*
X125183214Y-56162714D01*
X125111785Y-56019857D01*
X125040357Y-55734142D01*
X125040357Y-55377000D01*
X125111785Y-55091285D01*
X125183214Y-54948428D01*
X125254642Y-54877000D01*
X125397500Y-54805571D01*
X126826071Y-54805571D02*
X126968928Y-54805571D01*
X127111785Y-54877000D01*
X127183214Y-54948428D01*
X127254642Y-55091285D01*
X127326071Y-55377000D01*
X127326071Y-55734142D01*
X127254642Y-56019857D01*
X127183214Y-56162714D01*
X127111785Y-56234142D01*
X126968928Y-56305571D01*
X126826071Y-56305571D01*
X126683214Y-56234142D01*
X126611785Y-56162714D01*
X126540357Y-56019857D01*
X126468928Y-55734142D01*
X126468928Y-55377000D01*
X126540357Y-55091285D01*
X126611785Y-54948428D01*
X126683214Y-54877000D01*
X126826071Y-54805571D01*
X127968928Y-56305571D02*
X127968928Y-54805571D01*
X129611785Y-54805571D02*
X130111785Y-56305571D01*
X130611785Y-54805571D01*
X131897500Y-56305571D02*
X131040357Y-56305571D01*
X131468928Y-56305571D02*
X131468928Y-54805571D01*
X131326071Y-55019857D01*
X131183214Y-55162714D01*
X131040357Y-55234142D01*
X134183214Y-55519857D02*
X133683214Y-55519857D01*
X133683214Y-56305571D02*
X133683214Y-54805571D01*
X134397500Y-54805571D01*
X135540357Y-56234142D02*
X135397500Y-56305571D01*
X135111785Y-56305571D01*
X134968928Y-56234142D01*
X134897500Y-56091285D01*
X134897500Y-55519857D01*
X134968928Y-55377000D01*
X135111785Y-55305571D01*
X135397500Y-55305571D01*
X135540357Y-55377000D01*
X135611785Y-55519857D01*
X135611785Y-55662714D01*
X134897500Y-55805571D01*
X136254642Y-56305571D02*
X136254642Y-54805571D01*
X136254642Y-55377000D02*
X136397500Y-55305571D01*
X136683214Y-55305571D01*
X136826071Y-55377000D01*
X136897500Y-55448428D01*
X136968928Y-55591285D01*
X136968928Y-56019857D01*
X136897500Y-56162714D01*
X136826071Y-56234142D01*
X136683214Y-56305571D01*
X136397500Y-56305571D01*
X136254642Y-56234142D01*
X138683214Y-54948428D02*
X138754642Y-54877000D01*
X138897500Y-54805571D01*
X139254642Y-54805571D01*
X139397500Y-54877000D01*
X139468928Y-54948428D01*
X139540357Y-55091285D01*
X139540357Y-55234142D01*
X139468928Y-55448428D01*
X138611785Y-56305571D01*
X139540357Y-56305571D01*
X140468928Y-54805571D02*
X140611785Y-54805571D01*
X140754642Y-54877000D01*
X140826071Y-54948428D01*
X140897500Y-55091285D01*
X140968928Y-55377000D01*
X140968928Y-55734142D01*
X140897500Y-56019857D01*
X140826071Y-56162714D01*
X140754642Y-56234142D01*
X140611785Y-56305571D01*
X140468928Y-56305571D01*
X140326071Y-56234142D01*
X140254642Y-56162714D01*
X140183214Y-56019857D01*
X140111785Y-55734142D01*
X140111785Y-55377000D01*
X140183214Y-55091285D01*
X140254642Y-54948428D01*
X140326071Y-54877000D01*
X140468928Y-54805571D01*
X141540357Y-54948428D02*
X141611785Y-54877000D01*
X141754642Y-54805571D01*
X142111785Y-54805571D01*
X142254642Y-54877000D01*
X142326071Y-54948428D01*
X142397500Y-55091285D01*
X142397500Y-55234142D01*
X142326071Y-55448428D01*
X141468928Y-56305571D01*
X142397500Y-56305571D01*
X142897500Y-54805571D02*
X143826071Y-54805571D01*
X143326071Y-55377000D01*
X143540357Y-55377000D01*
X143683214Y-55448428D01*
X143754642Y-55519857D01*
X143826071Y-55662714D01*
X143826071Y-56019857D01*
X143754642Y-56162714D01*
X143683214Y-56234142D01*
X143540357Y-56305571D01*
X143111785Y-56305571D01*
X142968928Y-56234142D01*
X142897500Y-56162714D01*
D12*
%TO.C,TB1*%
X114819333Y-63812833D02*
X115619333Y-63812833D01*
X115219333Y-65212833D02*
X115219333Y-63812833D01*
X116552666Y-64479500D02*
X116752666Y-64546166D01*
X116819333Y-64612833D01*
X116886000Y-64746166D01*
X116886000Y-64946166D01*
X116819333Y-65079500D01*
X116752666Y-65146166D01*
X116619333Y-65212833D01*
X116086000Y-65212833D01*
X116086000Y-63812833D01*
X116552666Y-63812833D01*
X116686000Y-63879500D01*
X116752666Y-63946166D01*
X116819333Y-64079500D01*
X116819333Y-64212833D01*
X116752666Y-64346166D01*
X116686000Y-64412833D01*
X116552666Y-64479500D01*
X116086000Y-64479500D01*
X118219333Y-65212833D02*
X117419333Y-65212833D01*
X117819333Y-65212833D02*
X117819333Y-63812833D01*
X117686000Y-64012833D01*
X117552666Y-64146166D01*
X117419333Y-64212833D01*
X101165333Y-65022333D02*
X101165333Y-63622333D01*
X101965333Y-65022333D01*
X101965333Y-63622333D01*
X102565333Y-64622333D02*
X103232000Y-64622333D01*
X102432000Y-65022333D02*
X102898666Y-63622333D01*
X103365333Y-65022333D01*
X103832000Y-65022333D02*
X103832000Y-63622333D01*
X104632000Y-65022333D01*
X104632000Y-63622333D01*
X105565333Y-63622333D02*
X105832000Y-63622333D01*
X105965333Y-63689000D01*
X106098666Y-63822333D01*
X106165333Y-64089000D01*
X106165333Y-64555666D01*
X106098666Y-64822333D01*
X105965333Y-64955666D01*
X105832000Y-65022333D01*
X105565333Y-65022333D01*
X105432000Y-64955666D01*
X105298666Y-64822333D01*
X105232000Y-64555666D01*
X105232000Y-64089000D01*
X105298666Y-63822333D01*
X105432000Y-63689000D01*
X105565333Y-63622333D01*
%TO.C,J8*%
X160829666Y-67841880D02*
X160829666Y-68556166D01*
X160782047Y-68699023D01*
X160686809Y-68794261D01*
X160543952Y-68841880D01*
X160448714Y-68841880D01*
X161448714Y-68270452D02*
X161353476Y-68222833D01*
X161305857Y-68175214D01*
X161258238Y-68079976D01*
X161258238Y-68032357D01*
X161305857Y-67937119D01*
X161353476Y-67889500D01*
X161448714Y-67841880D01*
X161639190Y-67841880D01*
X161734428Y-67889500D01*
X161782047Y-67937119D01*
X161829666Y-68032357D01*
X161829666Y-68079976D01*
X161782047Y-68175214D01*
X161734428Y-68222833D01*
X161639190Y-68270452D01*
X161448714Y-68270452D01*
X161353476Y-68318071D01*
X161305857Y-68365690D01*
X161258238Y-68460928D01*
X161258238Y-68651404D01*
X161305857Y-68746642D01*
X161353476Y-68794261D01*
X161448714Y-68841880D01*
X161639190Y-68841880D01*
X161734428Y-68794261D01*
X161782047Y-68746642D01*
X161829666Y-68651404D01*
X161829666Y-68460928D01*
X161782047Y-68365690D01*
X161734428Y-68318071D01*
X161639190Y-68270452D01*
X166227523Y-68841880D02*
X165656095Y-68841880D01*
X165941809Y-68841880D02*
X165941809Y-67841880D01*
X165846571Y-67984738D01*
X165751333Y-68079976D01*
X165656095Y-68127595D01*
X166560857Y-67841880D02*
X167179904Y-67841880D01*
X166846571Y-68222833D01*
X166989428Y-68222833D01*
X167084666Y-68270452D01*
X167132285Y-68318071D01*
X167179904Y-68413309D01*
X167179904Y-68651404D01*
X167132285Y-68746642D01*
X167084666Y-68794261D01*
X166989428Y-68841880D01*
X166703714Y-68841880D01*
X166608476Y-68794261D01*
X166560857Y-68746642D01*
X167608476Y-68746642D02*
X167656095Y-68794261D01*
X167608476Y-68841880D01*
X167560857Y-68794261D01*
X167608476Y-68746642D01*
X167608476Y-68841880D01*
X168227523Y-68270452D02*
X168132285Y-68222833D01*
X168084666Y-68175214D01*
X168037047Y-68079976D01*
X168037047Y-68032357D01*
X168084666Y-67937119D01*
X168132285Y-67889500D01*
X168227523Y-67841880D01*
X168418000Y-67841880D01*
X168513238Y-67889500D01*
X168560857Y-67937119D01*
X168608476Y-68032357D01*
X168608476Y-68079976D01*
X168560857Y-68175214D01*
X168513238Y-68222833D01*
X168418000Y-68270452D01*
X168227523Y-68270452D01*
X168132285Y-68318071D01*
X168084666Y-68365690D01*
X168037047Y-68460928D01*
X168037047Y-68651404D01*
X168084666Y-68746642D01*
X168132285Y-68794261D01*
X168227523Y-68841880D01*
X168418000Y-68841880D01*
X168513238Y-68794261D01*
X168560857Y-68746642D01*
X168608476Y-68651404D01*
X168608476Y-68460928D01*
X168560857Y-68365690D01*
X168513238Y-68318071D01*
X168418000Y-68270452D01*
X168894190Y-67841880D02*
X169227523Y-68841880D01*
X169560857Y-67841880D01*
X170656095Y-68841880D02*
X170656095Y-67841880D01*
X170989428Y-68556166D01*
X171322761Y-67841880D01*
X171322761Y-68841880D01*
X171751333Y-68556166D02*
X172227523Y-68556166D01*
X171656095Y-68841880D02*
X171989428Y-67841880D01*
X172322761Y-68841880D01*
X172560857Y-67841880D02*
X173227523Y-68841880D01*
X173227523Y-67841880D02*
X172560857Y-68841880D01*
%TO.C,J5*%
X87296666Y-58507380D02*
X87296666Y-59221666D01*
X87249047Y-59364523D01*
X87153809Y-59459761D01*
X87010952Y-59507380D01*
X86915714Y-59507380D01*
X88249047Y-58507380D02*
X87772857Y-58507380D01*
X87725238Y-58983571D01*
X87772857Y-58935952D01*
X87868095Y-58888333D01*
X88106190Y-58888333D01*
X88201428Y-58935952D01*
X88249047Y-58983571D01*
X88296666Y-59078809D01*
X88296666Y-59316904D01*
X88249047Y-59412142D01*
X88201428Y-59459761D01*
X88106190Y-59507380D01*
X87868095Y-59507380D01*
X87772857Y-59459761D01*
X87725238Y-59412142D01*
X92710166Y-59697880D02*
X92710166Y-58697880D01*
X93091119Y-58697880D01*
X93186357Y-58745500D01*
X93233976Y-58793119D01*
X93281595Y-58888357D01*
X93281595Y-59031214D01*
X93233976Y-59126452D01*
X93186357Y-59174071D01*
X93091119Y-59221690D01*
X92710166Y-59221690D01*
X93614928Y-58697880D02*
X93853023Y-59697880D01*
X94043500Y-58983595D01*
X94233976Y-59697880D01*
X94472071Y-58697880D01*
X95424452Y-59697880D02*
X95091119Y-59221690D01*
X94853023Y-59697880D02*
X94853023Y-58697880D01*
X95233976Y-58697880D01*
X95329214Y-58745500D01*
X95376833Y-58793119D01*
X95424452Y-58888357D01*
X95424452Y-59031214D01*
X95376833Y-59126452D01*
X95329214Y-59174071D01*
X95233976Y-59221690D01*
X94853023Y-59221690D01*
%TO.C,D1*%
X89812904Y-67762380D02*
X89812904Y-66762380D01*
X90051000Y-66762380D01*
X90193857Y-66810000D01*
X90289095Y-66905238D01*
X90336714Y-67000476D01*
X90384333Y-67190952D01*
X90384333Y-67333809D01*
X90336714Y-67524285D01*
X90289095Y-67619523D01*
X90193857Y-67714761D01*
X90051000Y-67762380D01*
X89812904Y-67762380D01*
X91336714Y-67762380D02*
X90765285Y-67762380D01*
X91051000Y-67762380D02*
X91051000Y-66762380D01*
X90955761Y-66905238D01*
X90860523Y-67000476D01*
X90765285Y-67048095D01*
X94368880Y-80438357D02*
X94368880Y-81009785D01*
X94368880Y-80724071D02*
X93368880Y-80724071D01*
X93511738Y-80819309D01*
X93606976Y-80914547D01*
X93654595Y-81009785D01*
X94368880Y-80009785D02*
X93368880Y-80009785D01*
X94368880Y-79438357D01*
X93368880Y-79438357D01*
X93368880Y-78485976D02*
X93368880Y-78962166D01*
X93845071Y-79009785D01*
X93797452Y-78962166D01*
X93749833Y-78866928D01*
X93749833Y-78628833D01*
X93797452Y-78533595D01*
X93845071Y-78485976D01*
X93940309Y-78438357D01*
X94178404Y-78438357D01*
X94273642Y-78485976D01*
X94321261Y-78533595D01*
X94368880Y-78628833D01*
X94368880Y-78866928D01*
X94321261Y-78962166D01*
X94273642Y-79009785D01*
X93797452Y-77866928D02*
X93749833Y-77962166D01*
X93702214Y-78009785D01*
X93606976Y-78057404D01*
X93559357Y-78057404D01*
X93464119Y-78009785D01*
X93416500Y-77962166D01*
X93368880Y-77866928D01*
X93368880Y-77676452D01*
X93416500Y-77581214D01*
X93464119Y-77533595D01*
X93559357Y-77485976D01*
X93606976Y-77485976D01*
X93702214Y-77533595D01*
X93749833Y-77581214D01*
X93797452Y-77676452D01*
X93797452Y-77866928D01*
X93845071Y-77962166D01*
X93892690Y-78009785D01*
X93987928Y-78057404D01*
X94178404Y-78057404D01*
X94273642Y-78009785D01*
X94321261Y-77962166D01*
X94368880Y-77866928D01*
X94368880Y-77676452D01*
X94321261Y-77581214D01*
X94273642Y-77533595D01*
X94178404Y-77485976D01*
X93987928Y-77485976D01*
X93892690Y-77533595D01*
X93845071Y-77581214D01*
X93797452Y-77676452D01*
X94368880Y-76533595D02*
X94368880Y-77105023D01*
X94368880Y-76819309D02*
X93368880Y-76819309D01*
X93511738Y-76914547D01*
X93606976Y-77009785D01*
X93654595Y-77105023D01*
X93368880Y-76200261D02*
X93368880Y-75533595D01*
X94368880Y-75962166D01*
%TO.C,C7*%
X95972333Y-72937642D02*
X95924714Y-72985261D01*
X95781857Y-73032880D01*
X95686619Y-73032880D01*
X95543761Y-72985261D01*
X95448523Y-72890023D01*
X95400904Y-72794785D01*
X95353285Y-72604309D01*
X95353285Y-72461452D01*
X95400904Y-72270976D01*
X95448523Y-72175738D01*
X95543761Y-72080500D01*
X95686619Y-72032880D01*
X95781857Y-72032880D01*
X95924714Y-72080500D01*
X95972333Y-72128119D01*
X96305666Y-72032880D02*
X96972333Y-72032880D01*
X96543761Y-73032880D01*
X96162833Y-74556880D02*
X95591404Y-74556880D01*
X95877119Y-74556880D02*
X95877119Y-73556880D01*
X95781880Y-73699738D01*
X95686642Y-73794976D01*
X95591404Y-73842595D01*
X96591404Y-73890214D02*
X96591404Y-74556880D01*
X96591404Y-73985452D02*
X96639023Y-73937833D01*
X96734261Y-73890214D01*
X96877119Y-73890214D01*
X96972357Y-73937833D01*
X97019976Y-74033071D01*
X97019976Y-74556880D01*
%TO.C,R11*%
X111688642Y-71445380D02*
X111355309Y-70969190D01*
X111117214Y-71445380D02*
X111117214Y-70445380D01*
X111498166Y-70445380D01*
X111593404Y-70493000D01*
X111641023Y-70540619D01*
X111688642Y-70635857D01*
X111688642Y-70778714D01*
X111641023Y-70873952D01*
X111593404Y-70921571D01*
X111498166Y-70969190D01*
X111117214Y-70969190D01*
X112641023Y-71445380D02*
X112069595Y-71445380D01*
X112355309Y-71445380D02*
X112355309Y-70445380D01*
X112260071Y-70588238D01*
X112164833Y-70683476D01*
X112069595Y-70731095D01*
X113593404Y-71445380D02*
X113021976Y-71445380D01*
X113307690Y-71445380D02*
X113307690Y-70445380D01*
X113212452Y-70588238D01*
X113117214Y-70683476D01*
X113021976Y-70731095D01*
X111490214Y-72032880D02*
X111014023Y-72032880D01*
X110966404Y-72509071D01*
X111014023Y-72461452D01*
X111109261Y-72413833D01*
X111347357Y-72413833D01*
X111442595Y-72461452D01*
X111490214Y-72509071D01*
X111537833Y-72604309D01*
X111537833Y-72842404D01*
X111490214Y-72937642D01*
X111442595Y-72985261D01*
X111347357Y-73032880D01*
X111109261Y-73032880D01*
X111014023Y-72985261D01*
X110966404Y-72937642D01*
X112156880Y-72032880D02*
X112252119Y-72032880D01*
X112347357Y-72080500D01*
X112394976Y-72128119D01*
X112442595Y-72223357D01*
X112490214Y-72413833D01*
X112490214Y-72651928D01*
X112442595Y-72842404D01*
X112394976Y-72937642D01*
X112347357Y-72985261D01*
X112252119Y-73032880D01*
X112156880Y-73032880D01*
X112061642Y-72985261D01*
X112014023Y-72937642D01*
X111966404Y-72842404D01*
X111918785Y-72651928D01*
X111918785Y-72413833D01*
X111966404Y-72223357D01*
X112014023Y-72128119D01*
X112061642Y-72080500D01*
X112156880Y-72032880D01*
X113109261Y-72032880D02*
X113204500Y-72032880D01*
X113299738Y-72080500D01*
X113347357Y-72128119D01*
X113394976Y-72223357D01*
X113442595Y-72413833D01*
X113442595Y-72651928D01*
X113394976Y-72842404D01*
X113347357Y-72937642D01*
X113299738Y-72985261D01*
X113204500Y-73032880D01*
X113109261Y-73032880D01*
X113014023Y-72985261D01*
X112966404Y-72937642D01*
X112918785Y-72842404D01*
X112871166Y-72651928D01*
X112871166Y-72413833D01*
X112918785Y-72223357D01*
X112966404Y-72128119D01*
X113014023Y-72080500D01*
X113109261Y-72032880D01*
%TO.C,C10*%
X94924642Y-91035142D02*
X94877023Y-91082761D01*
X94734166Y-91130380D01*
X94638928Y-91130380D01*
X94496071Y-91082761D01*
X94400833Y-90987523D01*
X94353214Y-90892285D01*
X94305595Y-90701809D01*
X94305595Y-90558952D01*
X94353214Y-90368476D01*
X94400833Y-90273238D01*
X94496071Y-90178000D01*
X94638928Y-90130380D01*
X94734166Y-90130380D01*
X94877023Y-90178000D01*
X94924642Y-90225619D01*
X95877023Y-91130380D02*
X95305595Y-91130380D01*
X95591309Y-91130380D02*
X95591309Y-90130380D01*
X95496071Y-90273238D01*
X95400833Y-90368476D01*
X95305595Y-90416095D01*
X96496071Y-90130380D02*
X96591309Y-90130380D01*
X96686547Y-90178000D01*
X96734166Y-90225619D01*
X96781785Y-90320857D01*
X96829404Y-90511333D01*
X96829404Y-90749428D01*
X96781785Y-90939904D01*
X96734166Y-91035142D01*
X96686547Y-91082761D01*
X96591309Y-91130380D01*
X96496071Y-91130380D01*
X96400833Y-91082761D01*
X96353214Y-91035142D01*
X96305595Y-90939904D01*
X96257976Y-90749428D01*
X96257976Y-90511333D01*
X96305595Y-90320857D01*
X96353214Y-90225619D01*
X96400833Y-90178000D01*
X96496071Y-90130380D01*
X96416833Y-92463880D02*
X95845404Y-92463880D01*
X96131119Y-92463880D02*
X96131119Y-91463880D01*
X96035880Y-91606738D01*
X95940642Y-91701976D01*
X95845404Y-91749595D01*
X96845404Y-91797214D02*
X96845404Y-92463880D01*
X96845404Y-91892452D02*
X96893023Y-91844833D01*
X96988261Y-91797214D01*
X97131119Y-91797214D01*
X97226357Y-91844833D01*
X97273976Y-91940071D01*
X97273976Y-92463880D01*
%TO.C,C2*%
X122027833Y-85603793D02*
X121980214Y-85651412D01*
X121837357Y-85699031D01*
X121742119Y-85699031D01*
X121599261Y-85651412D01*
X121504023Y-85556174D01*
X121456404Y-85460936D01*
X121408785Y-85270460D01*
X121408785Y-85127603D01*
X121456404Y-84937127D01*
X121504023Y-84841889D01*
X121599261Y-84746651D01*
X121742119Y-84699031D01*
X121837357Y-84699031D01*
X121980214Y-84746651D01*
X122027833Y-84794270D01*
X122408785Y-84794270D02*
X122456404Y-84746651D01*
X122551642Y-84699031D01*
X122789738Y-84699031D01*
X122884976Y-84746651D01*
X122932595Y-84794270D01*
X122980214Y-84889508D01*
X122980214Y-84984746D01*
X122932595Y-85127603D01*
X122361166Y-85699031D01*
X122980214Y-85699031D01*
X120467595Y-82901031D02*
X121086642Y-82901031D01*
X120753309Y-83281984D01*
X120896166Y-83281984D01*
X120991404Y-83329603D01*
X121039023Y-83377222D01*
X121086642Y-83472460D01*
X121086642Y-83710555D01*
X121039023Y-83805793D01*
X120991404Y-83853412D01*
X120896166Y-83901031D01*
X120610452Y-83901031D01*
X120515214Y-83853412D01*
X120467595Y-83805793D01*
X121419976Y-82901031D02*
X122039023Y-82901031D01*
X121705690Y-83281984D01*
X121848547Y-83281984D01*
X121943785Y-83329603D01*
X121991404Y-83377222D01*
X122039023Y-83472460D01*
X122039023Y-83710555D01*
X121991404Y-83805793D01*
X121943785Y-83853412D01*
X121848547Y-83901031D01*
X121562833Y-83901031D01*
X121467595Y-83853412D01*
X121419976Y-83805793D01*
X122896166Y-83234365D02*
X122896166Y-83901031D01*
X122467595Y-83234365D02*
X122467595Y-83758174D01*
X122515214Y-83853412D01*
X122610452Y-83901031D01*
X122753309Y-83901031D01*
X122848547Y-83853412D01*
X122896166Y-83805793D01*
%TO.C,C6*%
X97766142Y-100799666D02*
X97813761Y-100847285D01*
X97861380Y-100990142D01*
X97861380Y-101085380D01*
X97813761Y-101228238D01*
X97718523Y-101323476D01*
X97623285Y-101371095D01*
X97432809Y-101418714D01*
X97289952Y-101418714D01*
X97099476Y-101371095D01*
X97004238Y-101323476D01*
X96909000Y-101228238D01*
X96861380Y-101085380D01*
X96861380Y-100990142D01*
X96909000Y-100847285D01*
X96956619Y-100799666D01*
X96861380Y-99942523D02*
X96861380Y-100133000D01*
X96909000Y-100228238D01*
X96956619Y-100275857D01*
X97099476Y-100371095D01*
X97289952Y-100418714D01*
X97670904Y-100418714D01*
X97766142Y-100371095D01*
X97813761Y-100323476D01*
X97861380Y-100228238D01*
X97861380Y-100037761D01*
X97813761Y-99942523D01*
X97766142Y-99894904D01*
X97670904Y-99847285D01*
X97432809Y-99847285D01*
X97337571Y-99894904D01*
X97289952Y-99942523D01*
X97242333Y-100037761D01*
X97242333Y-100228238D01*
X97289952Y-100323476D01*
X97337571Y-100371095D01*
X97432809Y-100418714D01*
X99131380Y-102577547D02*
X99131380Y-103148976D01*
X99131380Y-102863261D02*
X98131380Y-102863261D01*
X98274238Y-102958500D01*
X98369476Y-103053738D01*
X98417095Y-103148976D01*
X98131380Y-101958500D02*
X98131380Y-101863261D01*
X98179000Y-101768023D01*
X98226619Y-101720404D01*
X98321857Y-101672785D01*
X98512333Y-101625166D01*
X98750428Y-101625166D01*
X98940904Y-101672785D01*
X99036142Y-101720404D01*
X99083761Y-101768023D01*
X99131380Y-101863261D01*
X99131380Y-101958500D01*
X99083761Y-102053738D01*
X99036142Y-102101357D01*
X98940904Y-102148976D01*
X98750428Y-102196595D01*
X98512333Y-102196595D01*
X98321857Y-102148976D01*
X98226619Y-102101357D01*
X98179000Y-102053738D01*
X98131380Y-101958500D01*
X98131380Y-101006119D02*
X98131380Y-100910880D01*
X98179000Y-100815642D01*
X98226619Y-100768023D01*
X98321857Y-100720404D01*
X98512333Y-100672785D01*
X98750428Y-100672785D01*
X98940904Y-100720404D01*
X99036142Y-100768023D01*
X99083761Y-100815642D01*
X99131380Y-100910880D01*
X99131380Y-101006119D01*
X99083761Y-101101357D01*
X99036142Y-101148976D01*
X98940904Y-101196595D01*
X98750428Y-101244214D01*
X98512333Y-101244214D01*
X98321857Y-101196595D01*
X98226619Y-101148976D01*
X98179000Y-101101357D01*
X98131380Y-101006119D01*
X98464714Y-100244214D02*
X99131380Y-100244214D01*
X98559952Y-100244214D02*
X98512333Y-100196595D01*
X98464714Y-100101357D01*
X98464714Y-99958500D01*
X98512333Y-99863261D01*
X98607571Y-99815642D01*
X99131380Y-99815642D01*
%TO.C,U1*%
X142162095Y-63567880D02*
X142162095Y-64377404D01*
X142209714Y-64472642D01*
X142257333Y-64520261D01*
X142352571Y-64567880D01*
X142543047Y-64567880D01*
X142638285Y-64520261D01*
X142685904Y-64472642D01*
X142733523Y-64377404D01*
X142733523Y-63567880D01*
X143733523Y-64567880D02*
X143162095Y-64567880D01*
X143447809Y-64567880D02*
X143447809Y-63567880D01*
X143352571Y-63710738D01*
X143257333Y-63805976D01*
X143162095Y-63853595D01*
X136993523Y-77033380D02*
X136517333Y-77033380D01*
X136517333Y-76033380D01*
X137326857Y-77033380D02*
X137326857Y-76033380D01*
X137660190Y-76747666D01*
X137993523Y-76033380D01*
X137993523Y-77033380D01*
X138374476Y-76033380D02*
X138993523Y-76033380D01*
X138660190Y-76414333D01*
X138803047Y-76414333D01*
X138898285Y-76461952D01*
X138945904Y-76509571D01*
X138993523Y-76604809D01*
X138993523Y-76842904D01*
X138945904Y-76938142D01*
X138898285Y-76985761D01*
X138803047Y-77033380D01*
X138517333Y-77033380D01*
X138422095Y-76985761D01*
X138374476Y-76938142D01*
X139898285Y-76033380D02*
X139422095Y-76033380D01*
X139374476Y-76509571D01*
X139422095Y-76461952D01*
X139517333Y-76414333D01*
X139755428Y-76414333D01*
X139850666Y-76461952D01*
X139898285Y-76509571D01*
X139945904Y-76604809D01*
X139945904Y-76842904D01*
X139898285Y-76938142D01*
X139850666Y-76985761D01*
X139755428Y-77033380D01*
X139517333Y-77033380D01*
X139422095Y-76985761D01*
X139374476Y-76938142D01*
X140517333Y-76461952D02*
X140422095Y-76414333D01*
X140374476Y-76366714D01*
X140326857Y-76271476D01*
X140326857Y-76223857D01*
X140374476Y-76128619D01*
X140422095Y-76081000D01*
X140517333Y-76033380D01*
X140707809Y-76033380D01*
X140803047Y-76081000D01*
X140850666Y-76128619D01*
X140898285Y-76223857D01*
X140898285Y-76271476D01*
X140850666Y-76366714D01*
X140803047Y-76414333D01*
X140707809Y-76461952D01*
X140517333Y-76461952D01*
X140422095Y-76509571D01*
X140374476Y-76557190D01*
X140326857Y-76652428D01*
X140326857Y-76842904D01*
X140374476Y-76938142D01*
X140422095Y-76985761D01*
X140517333Y-77033380D01*
X140707809Y-77033380D01*
X140803047Y-76985761D01*
X140850666Y-76938142D01*
X140898285Y-76842904D01*
X140898285Y-76652428D01*
X140850666Y-76557190D01*
X140803047Y-76509571D01*
X140707809Y-76461952D01*
%TO.C,J2*%
X171918380Y-99647333D02*
X172632666Y-99647333D01*
X172775523Y-99694952D01*
X172870761Y-99790190D01*
X172918380Y-99933047D01*
X172918380Y-100028285D01*
X172013619Y-99218761D02*
X171966000Y-99171142D01*
X171918380Y-99075904D01*
X171918380Y-98837809D01*
X171966000Y-98742571D01*
X172013619Y-98694952D01*
X172108857Y-98647333D01*
X172204095Y-98647333D01*
X172346952Y-98694952D01*
X172918380Y-99266380D01*
X172918380Y-98647333D01*
X172569166Y-96786785D02*
X172569166Y-96310595D01*
X172854880Y-96882023D02*
X171854880Y-96548690D01*
X172854880Y-96215357D01*
X172854880Y-95882023D02*
X171854880Y-95882023D01*
X171854880Y-95643928D01*
X171902500Y-95501071D01*
X171997738Y-95405833D01*
X172092976Y-95358214D01*
X172283452Y-95310595D01*
X172426309Y-95310595D01*
X172616785Y-95358214D01*
X172712023Y-95405833D01*
X172807261Y-95501071D01*
X172854880Y-95643928D01*
X172854880Y-95882023D01*
X172188214Y-94453452D02*
X172854880Y-94453452D01*
X171807261Y-94691547D02*
X172521547Y-94929642D01*
X172521547Y-94310595D01*
%TO.C,J6*%
X120380166Y-93495880D02*
X120380166Y-94210166D01*
X120332547Y-94353023D01*
X120237309Y-94448261D01*
X120094452Y-94495880D01*
X119999214Y-94495880D01*
X121284928Y-93495880D02*
X121094452Y-93495880D01*
X120999214Y-93543500D01*
X120951595Y-93591119D01*
X120856357Y-93733976D01*
X120808738Y-93924452D01*
X120808738Y-94305404D01*
X120856357Y-94400642D01*
X120903976Y-94448261D01*
X120999214Y-94495880D01*
X121189690Y-94495880D01*
X121284928Y-94448261D01*
X121332547Y-94400642D01*
X121380166Y-94305404D01*
X121380166Y-94067309D01*
X121332547Y-93972071D01*
X121284928Y-93924452D01*
X121189690Y-93876833D01*
X120999214Y-93876833D01*
X120903976Y-93924452D01*
X120856357Y-93972071D01*
X120808738Y-94067309D01*
X119181714Y-95543666D02*
X119657904Y-95543666D01*
X119086476Y-95829380D02*
X119419809Y-94829380D01*
X119753142Y-95829380D01*
X120086476Y-95829380D02*
X120086476Y-94829380D01*
X120324571Y-94829380D01*
X120467428Y-94877000D01*
X120562666Y-94972238D01*
X120610285Y-95067476D01*
X120657904Y-95257952D01*
X120657904Y-95400809D01*
X120610285Y-95591285D01*
X120562666Y-95686523D01*
X120467428Y-95781761D01*
X120324571Y-95829380D01*
X120086476Y-95829380D01*
X121610285Y-95829380D02*
X121038857Y-95829380D01*
X121324571Y-95829380D02*
X121324571Y-94829380D01*
X121229333Y-94972238D01*
X121134095Y-95067476D01*
X121038857Y-95115095D01*
%TO.C,C3*%
X151931642Y-64174666D02*
X151979261Y-64222285D01*
X152026880Y-64365142D01*
X152026880Y-64460380D01*
X151979261Y-64603238D01*
X151884023Y-64698476D01*
X151788785Y-64746095D01*
X151598309Y-64793714D01*
X151455452Y-64793714D01*
X151264976Y-64746095D01*
X151169738Y-64698476D01*
X151074500Y-64603238D01*
X151026880Y-64460380D01*
X151026880Y-64365142D01*
X151074500Y-64222285D01*
X151122119Y-64174666D01*
X151026880Y-63841333D02*
X151026880Y-63222285D01*
X151407833Y-63555619D01*
X151407833Y-63412761D01*
X151455452Y-63317523D01*
X151503071Y-63269904D01*
X151598309Y-63222285D01*
X151836404Y-63222285D01*
X151931642Y-63269904D01*
X151979261Y-63317523D01*
X152026880Y-63412761D01*
X152026880Y-63698476D01*
X151979261Y-63793714D01*
X151931642Y-63841333D01*
X150883880Y-64619047D02*
X150883880Y-65190476D01*
X150883880Y-64904761D02*
X149883880Y-64904761D01*
X150026738Y-65000000D01*
X150121976Y-65095238D01*
X150169595Y-65190476D01*
X149883880Y-64000000D02*
X149883880Y-63904761D01*
X149931500Y-63809523D01*
X149979119Y-63761904D01*
X150074357Y-63714285D01*
X150264833Y-63666666D01*
X150502928Y-63666666D01*
X150693404Y-63714285D01*
X150788642Y-63761904D01*
X150836261Y-63809523D01*
X150883880Y-63904761D01*
X150883880Y-64000000D01*
X150836261Y-64095238D01*
X150788642Y-64142857D01*
X150693404Y-64190476D01*
X150502928Y-64238095D01*
X150264833Y-64238095D01*
X150074357Y-64190476D01*
X149979119Y-64142857D01*
X149931500Y-64095238D01*
X149883880Y-64000000D01*
X149883880Y-63047619D02*
X149883880Y-62952380D01*
X149931500Y-62857142D01*
X149979119Y-62809523D01*
X150074357Y-62761904D01*
X150264833Y-62714285D01*
X150502928Y-62714285D01*
X150693404Y-62761904D01*
X150788642Y-62809523D01*
X150836261Y-62857142D01*
X150883880Y-62952380D01*
X150883880Y-63047619D01*
X150836261Y-63142857D01*
X150788642Y-63190476D01*
X150693404Y-63238095D01*
X150502928Y-63285714D01*
X150264833Y-63285714D01*
X150074357Y-63238095D01*
X149979119Y-63190476D01*
X149931500Y-63142857D01*
X149883880Y-63047619D01*
X150217214Y-62285714D02*
X150883880Y-62285714D01*
X150312452Y-62285714D02*
X150264833Y-62238095D01*
X150217214Y-62142857D01*
X150217214Y-62000000D01*
X150264833Y-61904761D01*
X150360071Y-61857142D01*
X150883880Y-61857142D01*
%TO.C,R2*%
X132103833Y-74493380D02*
X131770500Y-74017190D01*
X131532404Y-74493380D02*
X131532404Y-73493380D01*
X131913357Y-73493380D01*
X132008595Y-73541000D01*
X132056214Y-73588619D01*
X132103833Y-73683857D01*
X132103833Y-73826714D01*
X132056214Y-73921952D01*
X132008595Y-73969571D01*
X131913357Y-74017190D01*
X131532404Y-74017190D01*
X132484785Y-73588619D02*
X132532404Y-73541000D01*
X132627642Y-73493380D01*
X132865738Y-73493380D01*
X132960976Y-73541000D01*
X133008595Y-73588619D01*
X133056214Y-73683857D01*
X133056214Y-73779095D01*
X133008595Y-73921952D01*
X132437166Y-74493380D01*
X133056214Y-74493380D01*
X134437523Y-74429880D02*
X133866095Y-74429880D01*
X134151809Y-74429880D02*
X134151809Y-73429880D01*
X134056571Y-73572738D01*
X133961333Y-73667976D01*
X133866095Y-73715595D01*
X135056571Y-73429880D02*
X135151809Y-73429880D01*
X135247047Y-73477500D01*
X135294666Y-73525119D01*
X135342285Y-73620357D01*
X135389904Y-73810833D01*
X135389904Y-74048928D01*
X135342285Y-74239404D01*
X135294666Y-74334642D01*
X135247047Y-74382261D01*
X135151809Y-74429880D01*
X135056571Y-74429880D01*
X134961333Y-74382261D01*
X134913714Y-74334642D01*
X134866095Y-74239404D01*
X134818476Y-74048928D01*
X134818476Y-73810833D01*
X134866095Y-73620357D01*
X134913714Y-73525119D01*
X134961333Y-73477500D01*
X135056571Y-73429880D01*
X135818476Y-74429880D02*
X135818476Y-73429880D01*
X136389904Y-74429880D02*
X135961333Y-73858452D01*
X136389904Y-73429880D02*
X135818476Y-74001309D01*
%TO.C,C9*%
X95972333Y-82526142D02*
X95924714Y-82573761D01*
X95781857Y-82621380D01*
X95686619Y-82621380D01*
X95543761Y-82573761D01*
X95448523Y-82478523D01*
X95400904Y-82383285D01*
X95353285Y-82192809D01*
X95353285Y-82049952D01*
X95400904Y-81859476D01*
X95448523Y-81764238D01*
X95543761Y-81669000D01*
X95686619Y-81621380D01*
X95781857Y-81621380D01*
X95924714Y-81669000D01*
X95972333Y-81716619D01*
X96448523Y-82621380D02*
X96639000Y-82621380D01*
X96734238Y-82573761D01*
X96781857Y-82526142D01*
X96877095Y-82383285D01*
X96924714Y-82192809D01*
X96924714Y-81811857D01*
X96877095Y-81716619D01*
X96829476Y-81669000D01*
X96734238Y-81621380D01*
X96543761Y-81621380D01*
X96448523Y-81669000D01*
X96400904Y-81716619D01*
X96353285Y-81811857D01*
X96353285Y-82049952D01*
X96400904Y-82145190D01*
X96448523Y-82192809D01*
X96543761Y-82240428D01*
X96734238Y-82240428D01*
X96829476Y-82192809D01*
X96877095Y-82145190D01*
X96924714Y-82049952D01*
X96035833Y-84081880D02*
X95464404Y-84081880D01*
X95750119Y-84081880D02*
X95750119Y-83081880D01*
X95654880Y-83224738D01*
X95559642Y-83319976D01*
X95464404Y-83367595D01*
X96464404Y-83415214D02*
X96464404Y-84081880D01*
X96464404Y-83510452D02*
X96512023Y-83462833D01*
X96607261Y-83415214D01*
X96750119Y-83415214D01*
X96845357Y-83462833D01*
X96892976Y-83558071D01*
X96892976Y-84081880D01*
%TO.C,C4*%
X103084333Y-109640642D02*
X103036714Y-109688261D01*
X102893857Y-109735880D01*
X102798619Y-109735880D01*
X102655761Y-109688261D01*
X102560523Y-109593023D01*
X102512904Y-109497785D01*
X102465285Y-109307309D01*
X102465285Y-109164452D01*
X102512904Y-108973976D01*
X102560523Y-108878738D01*
X102655761Y-108783500D01*
X102798619Y-108735880D01*
X102893857Y-108735880D01*
X103036714Y-108783500D01*
X103084333Y-108831119D01*
X103941476Y-109069214D02*
X103941476Y-109735880D01*
X103703380Y-108688261D02*
X103465285Y-109402547D01*
X104084333Y-109402547D01*
X101592214Y-107316770D02*
X101639833Y-107269151D01*
X101735071Y-107221531D01*
X101973166Y-107221531D01*
X102068404Y-107269151D01*
X102116023Y-107316770D01*
X102163642Y-107412008D01*
X102163642Y-107507246D01*
X102116023Y-107650103D01*
X101544595Y-108221531D01*
X102163642Y-108221531D01*
X102544595Y-107316770D02*
X102592214Y-107269151D01*
X102687452Y-107221531D01*
X102925547Y-107221531D01*
X103020785Y-107269151D01*
X103068404Y-107316770D01*
X103116023Y-107412008D01*
X103116023Y-107507246D01*
X103068404Y-107650103D01*
X102496976Y-108221531D01*
X103116023Y-108221531D01*
X103973166Y-107554865D02*
X103973166Y-108221531D01*
X103544595Y-107554865D02*
X103544595Y-108078674D01*
X103592214Y-108173912D01*
X103687452Y-108221531D01*
X103830309Y-108221531D01*
X103925547Y-108173912D01*
X103973166Y-108126293D01*
%TO.C,Q1*%
X154527261Y-71477119D02*
X154432023Y-71429500D01*
X154336785Y-71334261D01*
X154193928Y-71191404D01*
X154098690Y-71143785D01*
X154003452Y-71143785D01*
X154051071Y-71381880D02*
X153955833Y-71334261D01*
X153860595Y-71239023D01*
X153812976Y-71048547D01*
X153812976Y-70715214D01*
X153860595Y-70524738D01*
X153955833Y-70429500D01*
X154051071Y-70381880D01*
X154241547Y-70381880D01*
X154336785Y-70429500D01*
X154432023Y-70524738D01*
X154479642Y-70715214D01*
X154479642Y-71048547D01*
X154432023Y-71239023D01*
X154336785Y-71334261D01*
X154241547Y-71381880D01*
X154051071Y-71381880D01*
X155432023Y-71381880D02*
X154860595Y-71381880D01*
X155146309Y-71381880D02*
X155146309Y-70381880D01*
X155051071Y-70524738D01*
X154955833Y-70619976D01*
X154860595Y-70667595D01*
X157440619Y-70318380D02*
X158012047Y-70318380D01*
X157726333Y-71318380D02*
X157726333Y-70318380D01*
X158345380Y-71318380D02*
X158345380Y-70318380D01*
X158821571Y-71318380D02*
X158821571Y-70318380D01*
X159202523Y-70318380D01*
X159297761Y-70366000D01*
X159345380Y-70413619D01*
X159393000Y-70508857D01*
X159393000Y-70651714D01*
X159345380Y-70746952D01*
X159297761Y-70794571D01*
X159202523Y-70842190D01*
X158821571Y-70842190D01*
X160345380Y-71318380D02*
X159773952Y-71318380D01*
X160059666Y-71318380D02*
X160059666Y-70318380D01*
X159964428Y-70461238D01*
X159869190Y-70556476D01*
X159773952Y-70604095D01*
X160726333Y-70413619D02*
X160773952Y-70366000D01*
X160869190Y-70318380D01*
X161107285Y-70318380D01*
X161202523Y-70366000D01*
X161250142Y-70413619D01*
X161297761Y-70508857D01*
X161297761Y-70604095D01*
X161250142Y-70746952D01*
X160678714Y-71318380D01*
X161297761Y-71318380D01*
X161916809Y-70318380D02*
X162012047Y-70318380D01*
X162107285Y-70366000D01*
X162154904Y-70413619D01*
X162202523Y-70508857D01*
X162250142Y-70699333D01*
X162250142Y-70937428D01*
X162202523Y-71127904D01*
X162154904Y-71223142D01*
X162107285Y-71270761D01*
X162012047Y-71318380D01*
X161916809Y-71318380D01*
X161821571Y-71270761D01*
X161773952Y-71223142D01*
X161726333Y-71127904D01*
X161678714Y-70937428D01*
X161678714Y-70699333D01*
X161726333Y-70508857D01*
X161773952Y-70413619D01*
X161821571Y-70366000D01*
X161916809Y-70318380D01*
%TO.C,D5*%
X132929404Y-108973880D02*
X132929404Y-107973880D01*
X133167500Y-107973880D01*
X133310357Y-108021500D01*
X133405595Y-108116738D01*
X133453214Y-108211976D01*
X133500833Y-108402452D01*
X133500833Y-108545309D01*
X133453214Y-108735785D01*
X133405595Y-108831023D01*
X133310357Y-108926261D01*
X133167500Y-108973880D01*
X132929404Y-108973880D01*
X134405595Y-107973880D02*
X133929404Y-107973880D01*
X133881785Y-108450071D01*
X133929404Y-108402452D01*
X134024642Y-108354833D01*
X134262738Y-108354833D01*
X134357976Y-108402452D01*
X134405595Y-108450071D01*
X134453214Y-108545309D01*
X134453214Y-108783404D01*
X134405595Y-108878642D01*
X134357976Y-108926261D01*
X134262738Y-108973880D01*
X134024642Y-108973880D01*
X133929404Y-108926261D01*
X133881785Y-108878642D01*
X133223119Y-109704214D02*
X133223119Y-110370880D01*
X132985023Y-109323261D02*
X132746928Y-110037547D01*
X133365976Y-110037547D01*
X133746928Y-110275642D02*
X133794547Y-110323261D01*
X133746928Y-110370880D01*
X133699309Y-110323261D01*
X133746928Y-110275642D01*
X133746928Y-110370880D01*
X134270738Y-110370880D02*
X134461214Y-110370880D01*
X134556452Y-110323261D01*
X134604071Y-110275642D01*
X134699309Y-110132785D01*
X134746928Y-109942309D01*
X134746928Y-109561357D01*
X134699309Y-109466119D01*
X134651690Y-109418500D01*
X134556452Y-109370880D01*
X134365976Y-109370880D01*
X134270738Y-109418500D01*
X134223119Y-109466119D01*
X134175500Y-109561357D01*
X134175500Y-109799452D01*
X134223119Y-109894690D01*
X134270738Y-109942309D01*
X134365976Y-109989928D01*
X134556452Y-109989928D01*
X134651690Y-109942309D01*
X134699309Y-109894690D01*
X134746928Y-109799452D01*
X135032642Y-109370880D02*
X135365976Y-110370880D01*
X135699309Y-109370880D01*
%TO.C,D6*%
X105925880Y-90908095D02*
X104925880Y-90908095D01*
X104925880Y-90670000D01*
X104973500Y-90527142D01*
X105068738Y-90431904D01*
X105163976Y-90384285D01*
X105354452Y-90336666D01*
X105497309Y-90336666D01*
X105687785Y-90384285D01*
X105783023Y-90431904D01*
X105878261Y-90527142D01*
X105925880Y-90670000D01*
X105925880Y-90908095D01*
X104925880Y-89479523D02*
X104925880Y-89670000D01*
X104973500Y-89765238D01*
X105021119Y-89812857D01*
X105163976Y-89908095D01*
X105354452Y-89955714D01*
X105735404Y-89955714D01*
X105830642Y-89908095D01*
X105878261Y-89860476D01*
X105925880Y-89765238D01*
X105925880Y-89574761D01*
X105878261Y-89479523D01*
X105830642Y-89431904D01*
X105735404Y-89384285D01*
X105497309Y-89384285D01*
X105402071Y-89431904D01*
X105354452Y-89479523D01*
X105306833Y-89574761D01*
X105306833Y-89765238D01*
X105354452Y-89860476D01*
X105402071Y-89908095D01*
X105497309Y-89955714D01*
X106656214Y-91884380D02*
X107322880Y-91884380D01*
X106275261Y-92122476D02*
X106989547Y-92360571D01*
X106989547Y-91741523D01*
X107227642Y-91360571D02*
X107275261Y-91312952D01*
X107322880Y-91360571D01*
X107275261Y-91408190D01*
X107227642Y-91360571D01*
X107322880Y-91360571D01*
X107322880Y-90836761D02*
X107322880Y-90646285D01*
X107275261Y-90551047D01*
X107227642Y-90503428D01*
X107084785Y-90408190D01*
X106894309Y-90360571D01*
X106513357Y-90360571D01*
X106418119Y-90408190D01*
X106370500Y-90455809D01*
X106322880Y-90551047D01*
X106322880Y-90741523D01*
X106370500Y-90836761D01*
X106418119Y-90884380D01*
X106513357Y-90932000D01*
X106751452Y-90932000D01*
X106846690Y-90884380D01*
X106894309Y-90836761D01*
X106941928Y-90741523D01*
X106941928Y-90551047D01*
X106894309Y-90455809D01*
X106846690Y-90408190D01*
X106751452Y-90360571D01*
X106322880Y-90074857D02*
X107322880Y-89741523D01*
X106322880Y-89408190D01*
%TO.C,J1*%
X155241666Y-96543880D02*
X155241666Y-97258166D01*
X155194047Y-97401023D01*
X155098809Y-97496261D01*
X154955952Y-97543880D01*
X154860714Y-97543880D01*
X156241666Y-97543880D02*
X155670238Y-97543880D01*
X155955952Y-97543880D02*
X155955952Y-96543880D01*
X155860714Y-96686738D01*
X155765476Y-96781976D01*
X155670238Y-96829595D01*
X161028214Y-99798166D02*
X161504404Y-99798166D01*
X160932976Y-100083880D02*
X161266309Y-99083880D01*
X161599642Y-100083880D01*
X161932976Y-100083880D02*
X161932976Y-99083880D01*
X162171071Y-99083880D01*
X162313928Y-99131500D01*
X162409166Y-99226738D01*
X162456785Y-99321976D01*
X162504404Y-99512452D01*
X162504404Y-99655309D01*
X162456785Y-99845785D01*
X162409166Y-99941023D01*
X162313928Y-100036261D01*
X162171071Y-100083880D01*
X161932976Y-100083880D01*
X162837738Y-99083880D02*
X163456785Y-99083880D01*
X163123452Y-99464833D01*
X163266309Y-99464833D01*
X163361547Y-99512452D01*
X163409166Y-99560071D01*
X163456785Y-99655309D01*
X163456785Y-99893404D01*
X163409166Y-99988642D01*
X163361547Y-100036261D01*
X163266309Y-100083880D01*
X162980595Y-100083880D01*
X162885357Y-100036261D01*
X162837738Y-99988642D01*
%TO.C,R8*%
X156154380Y-83669166D02*
X155678190Y-84002500D01*
X156154380Y-84240595D02*
X155154380Y-84240595D01*
X155154380Y-83859642D01*
X155202000Y-83764404D01*
X155249619Y-83716785D01*
X155344857Y-83669166D01*
X155487714Y-83669166D01*
X155582952Y-83716785D01*
X155630571Y-83764404D01*
X155678190Y-83859642D01*
X155678190Y-84240595D01*
X155582952Y-83097738D02*
X155535333Y-83192976D01*
X155487714Y-83240595D01*
X155392476Y-83288214D01*
X155344857Y-83288214D01*
X155249619Y-83240595D01*
X155202000Y-83192976D01*
X155154380Y-83097738D01*
X155154380Y-82907261D01*
X155202000Y-82812023D01*
X155249619Y-82764404D01*
X155344857Y-82716785D01*
X155392476Y-82716785D01*
X155487714Y-82764404D01*
X155535333Y-82812023D01*
X155582952Y-82907261D01*
X155582952Y-83097738D01*
X155630571Y-83192976D01*
X155678190Y-83240595D01*
X155773428Y-83288214D01*
X155963904Y-83288214D01*
X156059142Y-83240595D01*
X156106761Y-83192976D01*
X156154380Y-83097738D01*
X156154380Y-82907261D01*
X156106761Y-82812023D01*
X156059142Y-82764404D01*
X155963904Y-82716785D01*
X155773428Y-82716785D01*
X155678190Y-82764404D01*
X155630571Y-82812023D01*
X155582952Y-82907261D01*
X156090880Y-81343476D02*
X156090880Y-81914904D01*
X156090880Y-81629190D02*
X155090880Y-81629190D01*
X155233738Y-81724428D01*
X155328976Y-81819666D01*
X155376595Y-81914904D01*
X155090880Y-80724428D02*
X155090880Y-80629190D01*
X155138500Y-80533952D01*
X155186119Y-80486333D01*
X155281357Y-80438714D01*
X155471833Y-80391095D01*
X155709928Y-80391095D01*
X155900404Y-80438714D01*
X155995642Y-80486333D01*
X156043261Y-80533952D01*
X156090880Y-80629190D01*
X156090880Y-80724428D01*
X156043261Y-80819666D01*
X155995642Y-80867285D01*
X155900404Y-80914904D01*
X155709928Y-80962523D01*
X155471833Y-80962523D01*
X155281357Y-80914904D01*
X155186119Y-80867285D01*
X155138500Y-80819666D01*
X155090880Y-80724428D01*
%TO.C,D3*%
X106497380Y-73318595D02*
X105497380Y-73318595D01*
X105497380Y-73080500D01*
X105545000Y-72937642D01*
X105640238Y-72842404D01*
X105735476Y-72794785D01*
X105925952Y-72747166D01*
X106068809Y-72747166D01*
X106259285Y-72794785D01*
X106354523Y-72842404D01*
X106449761Y-72937642D01*
X106497380Y-73080500D01*
X106497380Y-73318595D01*
X105497380Y-72413833D02*
X105497380Y-71794785D01*
X105878333Y-72128119D01*
X105878333Y-71985261D01*
X105925952Y-71890023D01*
X105973571Y-71842404D01*
X106068809Y-71794785D01*
X106306904Y-71794785D01*
X106402142Y-71842404D01*
X106449761Y-71890023D01*
X106497380Y-71985261D01*
X106497380Y-72270976D01*
X106449761Y-72366214D01*
X106402142Y-72413833D01*
X107100714Y-72897880D02*
X107767380Y-72897880D01*
X106719761Y-73135976D02*
X107434047Y-73374071D01*
X107434047Y-72755023D01*
X107672142Y-72374071D02*
X107719761Y-72326452D01*
X107767380Y-72374071D01*
X107719761Y-72421690D01*
X107672142Y-72374071D01*
X107767380Y-72374071D01*
X107767380Y-71850261D02*
X107767380Y-71659785D01*
X107719761Y-71564547D01*
X107672142Y-71516928D01*
X107529285Y-71421690D01*
X107338809Y-71374071D01*
X106957857Y-71374071D01*
X106862619Y-71421690D01*
X106815000Y-71469309D01*
X106767380Y-71564547D01*
X106767380Y-71755023D01*
X106815000Y-71850261D01*
X106862619Y-71897880D01*
X106957857Y-71945500D01*
X107195952Y-71945500D01*
X107291190Y-71897880D01*
X107338809Y-71850261D01*
X107386428Y-71755023D01*
X107386428Y-71564547D01*
X107338809Y-71469309D01*
X107291190Y-71421690D01*
X107195952Y-71374071D01*
X106767380Y-71088357D02*
X107767380Y-70755023D01*
X106767380Y-70421690D01*
%TO.C,R4*%
X133246833Y-88399880D02*
X132913500Y-87923690D01*
X132675404Y-88399880D02*
X132675404Y-87399880D01*
X133056357Y-87399880D01*
X133151595Y-87447500D01*
X133199214Y-87495119D01*
X133246833Y-87590357D01*
X133246833Y-87733214D01*
X133199214Y-87828452D01*
X133151595Y-87876071D01*
X133056357Y-87923690D01*
X132675404Y-87923690D01*
X134103976Y-87733214D02*
X134103976Y-88399880D01*
X133865880Y-87352261D02*
X133627785Y-88066547D01*
X134246833Y-88066547D01*
X132318214Y-88733380D02*
X131842023Y-88733380D01*
X131794404Y-89209571D01*
X131842023Y-89161952D01*
X131937261Y-89114333D01*
X132175357Y-89114333D01*
X132270595Y-89161952D01*
X132318214Y-89209571D01*
X132365833Y-89304809D01*
X132365833Y-89542904D01*
X132318214Y-89638142D01*
X132270595Y-89685761D01*
X132175357Y-89733380D01*
X131937261Y-89733380D01*
X131842023Y-89685761D01*
X131794404Y-89638142D01*
X132984880Y-88733380D02*
X133080119Y-88733380D01*
X133175357Y-88781000D01*
X133222976Y-88828619D01*
X133270595Y-88923857D01*
X133318214Y-89114333D01*
X133318214Y-89352428D01*
X133270595Y-89542904D01*
X133222976Y-89638142D01*
X133175357Y-89685761D01*
X133080119Y-89733380D01*
X132984880Y-89733380D01*
X132889642Y-89685761D01*
X132842023Y-89638142D01*
X132794404Y-89542904D01*
X132746785Y-89352428D01*
X132746785Y-89114333D01*
X132794404Y-88923857D01*
X132842023Y-88828619D01*
X132889642Y-88781000D01*
X132984880Y-88733380D01*
X133937261Y-88733380D02*
X134032500Y-88733380D01*
X134127738Y-88781000D01*
X134175357Y-88828619D01*
X134222976Y-88923857D01*
X134270595Y-89114333D01*
X134270595Y-89352428D01*
X134222976Y-89542904D01*
X134175357Y-89638142D01*
X134127738Y-89685761D01*
X134032500Y-89733380D01*
X133937261Y-89733380D01*
X133842023Y-89685761D01*
X133794404Y-89638142D01*
X133746785Y-89542904D01*
X133699166Y-89352428D01*
X133699166Y-89114333D01*
X133746785Y-88923857D01*
X133794404Y-88828619D01*
X133842023Y-88781000D01*
X133937261Y-88733380D01*
%TO.C,J3*%
X135683666Y-92733880D02*
X135683666Y-93448166D01*
X135636047Y-93591023D01*
X135540809Y-93686261D01*
X135397952Y-93733880D01*
X135302714Y-93733880D01*
X136064619Y-92733880D02*
X136683666Y-92733880D01*
X136350333Y-93114833D01*
X136493190Y-93114833D01*
X136588428Y-93162452D01*
X136636047Y-93210071D01*
X136683666Y-93305309D01*
X136683666Y-93543404D01*
X136636047Y-93638642D01*
X136588428Y-93686261D01*
X136493190Y-93733880D01*
X136207476Y-93733880D01*
X136112238Y-93686261D01*
X136064619Y-93638642D01*
X135374214Y-94781666D02*
X135850404Y-94781666D01*
X135278976Y-95067380D02*
X135612309Y-94067380D01*
X135945642Y-95067380D01*
X136278976Y-95067380D02*
X136278976Y-94067380D01*
X136517071Y-94067380D01*
X136659928Y-94115000D01*
X136755166Y-94210238D01*
X136802785Y-94305476D01*
X136850404Y-94495952D01*
X136850404Y-94638809D01*
X136802785Y-94829285D01*
X136755166Y-94924523D01*
X136659928Y-95019761D01*
X136517071Y-95067380D01*
X136278976Y-95067380D01*
X137231357Y-94162619D02*
X137278976Y-94115000D01*
X137374214Y-94067380D01*
X137612309Y-94067380D01*
X137707547Y-94115000D01*
X137755166Y-94162619D01*
X137802785Y-94257857D01*
X137802785Y-94353095D01*
X137755166Y-94495952D01*
X137183738Y-95067380D01*
X137802785Y-95067380D01*
%TO.C,R7*%
X134349380Y-63617666D02*
X133873190Y-63951000D01*
X134349380Y-64189095D02*
X133349380Y-64189095D01*
X133349380Y-63808142D01*
X133397000Y-63712904D01*
X133444619Y-63665285D01*
X133539857Y-63617666D01*
X133682714Y-63617666D01*
X133777952Y-63665285D01*
X133825571Y-63712904D01*
X133873190Y-63808142D01*
X133873190Y-64189095D01*
X133349380Y-63284333D02*
X133349380Y-62617666D01*
X134349380Y-63046238D01*
X135897880Y-64063476D02*
X135897880Y-64634904D01*
X135897880Y-64349190D02*
X134897880Y-64349190D01*
X135040738Y-64444428D01*
X135135976Y-64539666D01*
X135183595Y-64634904D01*
X134897880Y-63444428D02*
X134897880Y-63349190D01*
X134945500Y-63253952D01*
X134993119Y-63206333D01*
X135088357Y-63158714D01*
X135278833Y-63111095D01*
X135516928Y-63111095D01*
X135707404Y-63158714D01*
X135802642Y-63206333D01*
X135850261Y-63253952D01*
X135897880Y-63349190D01*
X135897880Y-63444428D01*
X135850261Y-63539666D01*
X135802642Y-63587285D01*
X135707404Y-63634904D01*
X135516928Y-63682523D01*
X135278833Y-63682523D01*
X135088357Y-63634904D01*
X134993119Y-63587285D01*
X134945500Y-63539666D01*
X134897880Y-63444428D01*
X135897880Y-62682523D02*
X134897880Y-62682523D01*
X135897880Y-62111095D02*
X135326452Y-62539666D01*
X134897880Y-62111095D02*
X135469309Y-62682523D01*
%TO.C,C8*%
X95845333Y-78017642D02*
X95797714Y-78065261D01*
X95654857Y-78112880D01*
X95559619Y-78112880D01*
X95416761Y-78065261D01*
X95321523Y-77970023D01*
X95273904Y-77874785D01*
X95226285Y-77684309D01*
X95226285Y-77541452D01*
X95273904Y-77350976D01*
X95321523Y-77255738D01*
X95416761Y-77160500D01*
X95559619Y-77112880D01*
X95654857Y-77112880D01*
X95797714Y-77160500D01*
X95845333Y-77208119D01*
X96416761Y-77541452D02*
X96321523Y-77493833D01*
X96273904Y-77446214D01*
X96226285Y-77350976D01*
X96226285Y-77303357D01*
X96273904Y-77208119D01*
X96321523Y-77160500D01*
X96416761Y-77112880D01*
X96607238Y-77112880D01*
X96702476Y-77160500D01*
X96750095Y-77208119D01*
X96797714Y-77303357D01*
X96797714Y-77350976D01*
X96750095Y-77446214D01*
X96702476Y-77493833D01*
X96607238Y-77541452D01*
X96416761Y-77541452D01*
X96321523Y-77589071D01*
X96273904Y-77636690D01*
X96226285Y-77731928D01*
X96226285Y-77922404D01*
X96273904Y-78017642D01*
X96321523Y-78065261D01*
X96416761Y-78112880D01*
X96607238Y-78112880D01*
X96702476Y-78065261D01*
X96750095Y-78017642D01*
X96797714Y-77922404D01*
X96797714Y-77731928D01*
X96750095Y-77636690D01*
X96702476Y-77589071D01*
X96607238Y-77541452D01*
X96162833Y-79255880D02*
X95591404Y-79255880D01*
X95877119Y-79255880D02*
X95877119Y-78255880D01*
X95781880Y-78398738D01*
X95686642Y-78493976D01*
X95591404Y-78541595D01*
X96591404Y-78589214D02*
X96591404Y-79255880D01*
X96591404Y-78684452D02*
X96639023Y-78636833D01*
X96734261Y-78589214D01*
X96877119Y-78589214D01*
X96972357Y-78636833D01*
X97019976Y-78732071D01*
X97019976Y-79255880D01*
%TO.C,D2*%
X87590404Y-105036880D02*
X87590404Y-104036880D01*
X87828500Y-104036880D01*
X87971357Y-104084500D01*
X88066595Y-104179738D01*
X88114214Y-104274976D01*
X88161833Y-104465452D01*
X88161833Y-104608309D01*
X88114214Y-104798785D01*
X88066595Y-104894023D01*
X87971357Y-104989261D01*
X87828500Y-105036880D01*
X87590404Y-105036880D01*
X88542785Y-104132119D02*
X88590404Y-104084500D01*
X88685642Y-104036880D01*
X88923738Y-104036880D01*
X89018976Y-104084500D01*
X89066595Y-104132119D01*
X89114214Y-104227357D01*
X89114214Y-104322595D01*
X89066595Y-104465452D01*
X88495166Y-105036880D01*
X89114214Y-105036880D01*
X86423666Y-106878380D02*
X86423666Y-105878380D01*
X86804619Y-105878380D01*
X86899857Y-105926000D01*
X86947476Y-105973619D01*
X86995095Y-106068857D01*
X86995095Y-106211714D01*
X86947476Y-106306952D01*
X86899857Y-106354571D01*
X86804619Y-106402190D01*
X86423666Y-106402190D01*
X87328428Y-105878380D02*
X87566523Y-106878380D01*
X87757000Y-106164095D01*
X87947476Y-106878380D01*
X88185571Y-105878380D01*
X89137952Y-106878380D02*
X88804619Y-106402190D01*
X88566523Y-106878380D02*
X88566523Y-105878380D01*
X88947476Y-105878380D01*
X89042714Y-105926000D01*
X89090333Y-105973619D01*
X89137952Y-106068857D01*
X89137952Y-106211714D01*
X89090333Y-106306952D01*
X89042714Y-106354571D01*
X88947476Y-106402190D01*
X88566523Y-106402190D01*
%TO.C,J7*%
X105394166Y-112926880D02*
X105394166Y-113641166D01*
X105346547Y-113784023D01*
X105251309Y-113879261D01*
X105108452Y-113926880D01*
X105013214Y-113926880D01*
X105775119Y-112926880D02*
X106441785Y-112926880D01*
X106013214Y-113926880D01*
X107473857Y-113609428D02*
X108235761Y-113609428D01*
X107854809Y-113990380D02*
X107854809Y-113228476D01*
X109188142Y-112990380D02*
X108711952Y-112990380D01*
X108664333Y-113466571D01*
X108711952Y-113418952D01*
X108807190Y-113371333D01*
X109045285Y-113371333D01*
X109140523Y-113418952D01*
X109188142Y-113466571D01*
X109235761Y-113561809D01*
X109235761Y-113799904D01*
X109188142Y-113895142D01*
X109140523Y-113942761D01*
X109045285Y-113990380D01*
X108807190Y-113990380D01*
X108711952Y-113942761D01*
X108664333Y-113895142D01*
%TO.C,R10*%
X105783142Y-66301880D02*
X105449809Y-65825690D01*
X105211714Y-66301880D02*
X105211714Y-65301880D01*
X105592666Y-65301880D01*
X105687904Y-65349500D01*
X105735523Y-65397119D01*
X105783142Y-65492357D01*
X105783142Y-65635214D01*
X105735523Y-65730452D01*
X105687904Y-65778071D01*
X105592666Y-65825690D01*
X105211714Y-65825690D01*
X106735523Y-66301880D02*
X106164095Y-66301880D01*
X106449809Y-66301880D02*
X106449809Y-65301880D01*
X106354571Y-65444738D01*
X106259333Y-65539976D01*
X106164095Y-65587595D01*
X107354571Y-65301880D02*
X107449809Y-65301880D01*
X107545047Y-65349500D01*
X107592666Y-65397119D01*
X107640285Y-65492357D01*
X107687904Y-65682833D01*
X107687904Y-65920928D01*
X107640285Y-66111404D01*
X107592666Y-66206642D01*
X107545047Y-66254261D01*
X107449809Y-66301880D01*
X107354571Y-66301880D01*
X107259333Y-66254261D01*
X107211714Y-66206642D01*
X107164095Y-66111404D01*
X107116476Y-65920928D01*
X107116476Y-65682833D01*
X107164095Y-65492357D01*
X107211714Y-65397119D01*
X107259333Y-65349500D01*
X107354571Y-65301880D01*
X106719714Y-67889380D02*
X106148285Y-67889380D01*
X106434000Y-67889380D02*
X106434000Y-66889380D01*
X106338761Y-67032238D01*
X106243523Y-67127476D01*
X106148285Y-67175095D01*
X107148285Y-67889380D02*
X107148285Y-66889380D01*
X107719714Y-67889380D02*
X107291142Y-67317952D01*
X107719714Y-66889380D02*
X107148285Y-67460809D01*
%TO.C,ZX1*%
X136675880Y-109997714D02*
X136675880Y-109331047D01*
X137675880Y-109997714D01*
X137675880Y-109331047D01*
X136675880Y-109045333D02*
X137675880Y-108378666D01*
X136675880Y-108378666D02*
X137675880Y-109045333D01*
X137675880Y-107473904D02*
X137675880Y-108045333D01*
X137675880Y-107759619D02*
X136675880Y-107759619D01*
X136818738Y-107854857D01*
X136913976Y-107950095D01*
X136961595Y-108045333D01*
X137675880Y-86669190D02*
X137675880Y-87240619D01*
X137675880Y-86954904D02*
X136675880Y-86954904D01*
X136818738Y-87050142D01*
X136913976Y-87145380D01*
X136961595Y-87240619D01*
X136675880Y-85812047D02*
X136675880Y-86002523D01*
X136723500Y-86097761D01*
X136771119Y-86145380D01*
X136913976Y-86240619D01*
X137104452Y-86288238D01*
X137485404Y-86288238D01*
X137580642Y-86240619D01*
X137628261Y-86193000D01*
X137675880Y-86097761D01*
X137675880Y-85907285D01*
X137628261Y-85812047D01*
X137580642Y-85764428D01*
X137485404Y-85716809D01*
X137247309Y-85716809D01*
X137152071Y-85764428D01*
X137104452Y-85812047D01*
X137056833Y-85907285D01*
X137056833Y-86097761D01*
X137104452Y-86193000D01*
X137152071Y-86240619D01*
X137247309Y-86288238D01*
X137675880Y-85288238D02*
X136675880Y-85288238D01*
X136675880Y-84907285D01*
X136723500Y-84812047D01*
X136771119Y-84764428D01*
X136866357Y-84716809D01*
X137009214Y-84716809D01*
X137104452Y-84764428D01*
X137152071Y-84812047D01*
X137199690Y-84907285D01*
X137199690Y-85288238D01*
X137675880Y-84288238D02*
X136675880Y-84288238D01*
X137675880Y-83812047D02*
X136675880Y-83812047D01*
X137675880Y-83240619D01*
X136675880Y-83240619D01*
X136675880Y-82097761D02*
X136675880Y-81431095D01*
X137675880Y-82097761D01*
X137675880Y-81431095D01*
X137675880Y-81050142D02*
X136675880Y-81050142D01*
X137152071Y-80240619D02*
X137152071Y-80573952D01*
X137675880Y-80573952D02*
X136675880Y-80573952D01*
X136675880Y-80097761D01*
%TO.C,ADC1*%
X122086666Y-101790285D02*
X122086666Y-101314095D01*
X122372380Y-101885523D02*
X121372380Y-101552190D01*
X122372380Y-101218857D01*
X122372380Y-100885523D02*
X121372380Y-100885523D01*
X121372380Y-100647428D01*
X121420000Y-100504571D01*
X121515238Y-100409333D01*
X121610476Y-100361714D01*
X121800952Y-100314095D01*
X121943809Y-100314095D01*
X122134285Y-100361714D01*
X122229523Y-100409333D01*
X122324761Y-100504571D01*
X122372380Y-100647428D01*
X122372380Y-100885523D01*
X122277142Y-99314095D02*
X122324761Y-99361714D01*
X122372380Y-99504571D01*
X122372380Y-99599809D01*
X122324761Y-99742666D01*
X122229523Y-99837904D01*
X122134285Y-99885523D01*
X121943809Y-99933142D01*
X121800952Y-99933142D01*
X121610476Y-99885523D01*
X121515238Y-99837904D01*
X121420000Y-99742666D01*
X121372380Y-99599809D01*
X121372380Y-99504571D01*
X121420000Y-99361714D01*
X121467619Y-99314095D01*
X122372380Y-98361714D02*
X122372380Y-98933142D01*
X122372380Y-98647428D02*
X121372380Y-98647428D01*
X121515238Y-98742666D01*
X121610476Y-98837904D01*
X121658095Y-98933142D01*
X124658523Y-108211880D02*
X124087095Y-108211880D01*
X124372809Y-108211880D02*
X124372809Y-107211880D01*
X124277571Y-107354738D01*
X124182333Y-107449976D01*
X124087095Y-107497595D01*
X125277571Y-107211880D02*
X125372809Y-107211880D01*
X125468047Y-107259500D01*
X125515666Y-107307119D01*
X125563285Y-107402357D01*
X125610904Y-107592833D01*
X125610904Y-107830928D01*
X125563285Y-108021404D01*
X125515666Y-108116642D01*
X125468047Y-108164261D01*
X125372809Y-108211880D01*
X125277571Y-108211880D01*
X125182333Y-108164261D01*
X125134714Y-108116642D01*
X125087095Y-108021404D01*
X125039476Y-107830928D01*
X125039476Y-107592833D01*
X125087095Y-107402357D01*
X125134714Y-107307119D01*
X125182333Y-107259500D01*
X125277571Y-107211880D01*
X126039476Y-108211880D02*
X126039476Y-107211880D01*
X126610904Y-108211880D02*
X126182333Y-107640452D01*
X126610904Y-107211880D02*
X126039476Y-107783309D01*
%TO.C,D4*%
X155963880Y-104306595D02*
X154963880Y-104306595D01*
X154963880Y-104068500D01*
X155011500Y-103925642D01*
X155106738Y-103830404D01*
X155201976Y-103782785D01*
X155392452Y-103735166D01*
X155535309Y-103735166D01*
X155725785Y-103782785D01*
X155821023Y-103830404D01*
X155916261Y-103925642D01*
X155963880Y-104068500D01*
X155963880Y-104306595D01*
X155297214Y-102878023D02*
X155963880Y-102878023D01*
X154916261Y-103116119D02*
X155630547Y-103354214D01*
X155630547Y-102735166D01*
X156821214Y-103885880D02*
X157487880Y-103885880D01*
X156440261Y-104123976D02*
X157154547Y-104362071D01*
X157154547Y-103743023D01*
X157392642Y-103362071D02*
X157440261Y-103314452D01*
X157487880Y-103362071D01*
X157440261Y-103409690D01*
X157392642Y-103362071D01*
X157487880Y-103362071D01*
X157487880Y-102838261D02*
X157487880Y-102647785D01*
X157440261Y-102552547D01*
X157392642Y-102504928D01*
X157249785Y-102409690D01*
X157059309Y-102362071D01*
X156678357Y-102362071D01*
X156583119Y-102409690D01*
X156535500Y-102457309D01*
X156487880Y-102552547D01*
X156487880Y-102743023D01*
X156535500Y-102838261D01*
X156583119Y-102885880D01*
X156678357Y-102933500D01*
X156916452Y-102933500D01*
X157011690Y-102885880D01*
X157059309Y-102838261D01*
X157106928Y-102743023D01*
X157106928Y-102552547D01*
X157059309Y-102457309D01*
X157011690Y-102409690D01*
X156916452Y-102362071D01*
X156487880Y-102076357D02*
X157487880Y-101743023D01*
X156487880Y-101409690D01*
%TO.C,ADC3*%
X159194714Y-112815666D02*
X159670904Y-112815666D01*
X159099476Y-113101380D02*
X159432809Y-112101380D01*
X159766142Y-113101380D01*
X160099476Y-113101380D02*
X160099476Y-112101380D01*
X160337571Y-112101380D01*
X160480428Y-112149000D01*
X160575666Y-112244238D01*
X160623285Y-112339476D01*
X160670904Y-112529952D01*
X160670904Y-112672809D01*
X160623285Y-112863285D01*
X160575666Y-112958523D01*
X160480428Y-113053761D01*
X160337571Y-113101380D01*
X160099476Y-113101380D01*
X161670904Y-113006142D02*
X161623285Y-113053761D01*
X161480428Y-113101380D01*
X161385190Y-113101380D01*
X161242333Y-113053761D01*
X161147095Y-112958523D01*
X161099476Y-112863285D01*
X161051857Y-112672809D01*
X161051857Y-112529952D01*
X161099476Y-112339476D01*
X161147095Y-112244238D01*
X161242333Y-112149000D01*
X161385190Y-112101380D01*
X161480428Y-112101380D01*
X161623285Y-112149000D01*
X161670904Y-112196619D01*
X162004238Y-112101380D02*
X162623285Y-112101380D01*
X162289952Y-112482333D01*
X162432809Y-112482333D01*
X162528047Y-112529952D01*
X162575666Y-112577571D01*
X162623285Y-112672809D01*
X162623285Y-112910904D01*
X162575666Y-113006142D01*
X162528047Y-113053761D01*
X162432809Y-113101380D01*
X162147095Y-113101380D01*
X162051857Y-113053761D01*
X162004238Y-113006142D01*
X158059380Y-111053476D02*
X158059380Y-111624904D01*
X158059380Y-111339190D02*
X157059380Y-111339190D01*
X157202238Y-111434428D01*
X157297476Y-111529666D01*
X157345095Y-111624904D01*
X157059380Y-110434428D02*
X157059380Y-110339190D01*
X157107000Y-110243952D01*
X157154619Y-110196333D01*
X157249857Y-110148714D01*
X157440333Y-110101095D01*
X157678428Y-110101095D01*
X157868904Y-110148714D01*
X157964142Y-110196333D01*
X158011761Y-110243952D01*
X158059380Y-110339190D01*
X158059380Y-110434428D01*
X158011761Y-110529666D01*
X157964142Y-110577285D01*
X157868904Y-110624904D01*
X157678428Y-110672523D01*
X157440333Y-110672523D01*
X157249857Y-110624904D01*
X157154619Y-110577285D01*
X157107000Y-110529666D01*
X157059380Y-110434428D01*
X158059380Y-109672523D02*
X157059380Y-109672523D01*
X158059380Y-109101095D02*
X157487952Y-109529666D01*
X157059380Y-109101095D02*
X157630809Y-109672523D01*
%TO.C,R6*%
X130539380Y-63871666D02*
X130063190Y-64205000D01*
X130539380Y-64443095D02*
X129539380Y-64443095D01*
X129539380Y-64062142D01*
X129587000Y-63966904D01*
X129634619Y-63919285D01*
X129729857Y-63871666D01*
X129872714Y-63871666D01*
X129967952Y-63919285D01*
X130015571Y-63966904D01*
X130063190Y-64062142D01*
X130063190Y-64443095D01*
X129539380Y-63014523D02*
X129539380Y-63205000D01*
X129587000Y-63300238D01*
X129634619Y-63347857D01*
X129777476Y-63443095D01*
X129967952Y-63490714D01*
X130348904Y-63490714D01*
X130444142Y-63443095D01*
X130491761Y-63395476D01*
X130539380Y-63300238D01*
X130539380Y-63109761D01*
X130491761Y-63014523D01*
X130444142Y-62966904D01*
X130348904Y-62919285D01*
X130110809Y-62919285D01*
X130015571Y-62966904D01*
X129967952Y-63014523D01*
X129920333Y-63109761D01*
X129920333Y-63300238D01*
X129967952Y-63395476D01*
X130015571Y-63443095D01*
X130110809Y-63490714D01*
X131269714Y-64206309D02*
X131936380Y-64206309D01*
X130888761Y-64444404D02*
X131603047Y-64682500D01*
X131603047Y-64063452D01*
X131841142Y-63682500D02*
X131888761Y-63634880D01*
X131936380Y-63682500D01*
X131888761Y-63730119D01*
X131841142Y-63682500D01*
X131936380Y-63682500D01*
X130936380Y-63301547D02*
X130936380Y-62634880D01*
X131936380Y-63063452D01*
X131936380Y-62253928D02*
X130936380Y-62253928D01*
X131936380Y-61682500D02*
X131364952Y-62111071D01*
X130936380Y-61682500D02*
X131507809Y-62253928D01*
%TO.C,J4*%
X155916380Y-95075333D02*
X156630666Y-95075333D01*
X156773523Y-95122952D01*
X156868761Y-95218190D01*
X156916380Y-95361047D01*
X156916380Y-95456285D01*
X156249714Y-94170571D02*
X156916380Y-94170571D01*
X155868761Y-94408666D02*
X156583047Y-94646761D01*
X156583047Y-94027714D01*
X160401190Y-93733880D02*
X160067857Y-93257690D01*
X159829761Y-93733880D02*
X159829761Y-92733880D01*
X160210714Y-92733880D01*
X160305952Y-92781500D01*
X160353571Y-92829119D01*
X160401190Y-92924357D01*
X160401190Y-93067214D01*
X160353571Y-93162452D01*
X160305952Y-93210071D01*
X160210714Y-93257690D01*
X159829761Y-93257690D01*
X161401190Y-93638642D02*
X161353571Y-93686261D01*
X161210714Y-93733880D01*
X161115476Y-93733880D01*
X160972619Y-93686261D01*
X160877380Y-93591023D01*
X160829761Y-93495785D01*
X160782142Y-93305309D01*
X160782142Y-93162452D01*
X160829761Y-92971976D01*
X160877380Y-92876738D01*
X160972619Y-92781500D01*
X161115476Y-92733880D01*
X161210714Y-92733880D01*
X161353571Y-92781500D01*
X161401190Y-92829119D01*
X161782142Y-93686261D02*
X161925000Y-93733880D01*
X162163095Y-93733880D01*
X162258333Y-93686261D01*
X162305952Y-93638642D01*
X162353571Y-93543404D01*
X162353571Y-93448166D01*
X162305952Y-93352928D01*
X162258333Y-93305309D01*
X162163095Y-93257690D01*
X161972619Y-93210071D01*
X161877380Y-93162452D01*
X161829761Y-93114833D01*
X161782142Y-93019595D01*
X161782142Y-92924357D01*
X161829761Y-92829119D01*
X161877380Y-92781500D01*
X161972619Y-92733880D01*
X162210714Y-92733880D01*
X162353571Y-92781500D01*
X162782142Y-93210071D02*
X163115476Y-93210071D01*
X163258333Y-93733880D02*
X162782142Y-93733880D01*
X162782142Y-92733880D01*
X163258333Y-92733880D01*
X164163095Y-93733880D02*
X163686904Y-93733880D01*
X163686904Y-92733880D01*
%TO.C,U2*%
X95083380Y-102615904D02*
X95892904Y-102615904D01*
X95988142Y-102568285D01*
X96035761Y-102520666D01*
X96083380Y-102425428D01*
X96083380Y-102234952D01*
X96035761Y-102139714D01*
X95988142Y-102092095D01*
X95892904Y-102044476D01*
X95083380Y-102044476D01*
X95178619Y-101615904D02*
X95131000Y-101568285D01*
X95083380Y-101473047D01*
X95083380Y-101234952D01*
X95131000Y-101139714D01*
X95178619Y-101092095D01*
X95273857Y-101044476D01*
X95369095Y-101044476D01*
X95511952Y-101092095D01*
X96083380Y-101663523D01*
X96083380Y-101044476D01*
X89352380Y-97480166D02*
X89352380Y-97956357D01*
X88352380Y-97956357D01*
X89352380Y-97146833D02*
X88352380Y-97146833D01*
X89066666Y-96813500D01*
X88352380Y-96480166D01*
X89352380Y-96480166D01*
X88352380Y-96099214D02*
X88352380Y-95432547D01*
X89352380Y-95861119D01*
X88780952Y-94908738D02*
X88733333Y-95003976D01*
X88685714Y-95051595D01*
X88590476Y-95099214D01*
X88542857Y-95099214D01*
X88447619Y-95051595D01*
X88400000Y-95003976D01*
X88352380Y-94908738D01*
X88352380Y-94718261D01*
X88400000Y-94623023D01*
X88447619Y-94575404D01*
X88542857Y-94527785D01*
X88590476Y-94527785D01*
X88685714Y-94575404D01*
X88733333Y-94623023D01*
X88780952Y-94718261D01*
X88780952Y-94908738D01*
X88828571Y-95003976D01*
X88876190Y-95051595D01*
X88971428Y-95099214D01*
X89161904Y-95099214D01*
X89257142Y-95051595D01*
X89304761Y-95003976D01*
X89352380Y-94908738D01*
X89352380Y-94718261D01*
X89304761Y-94623023D01*
X89257142Y-94575404D01*
X89161904Y-94527785D01*
X88971428Y-94527785D01*
X88876190Y-94575404D01*
X88828571Y-94623023D01*
X88780952Y-94718261D01*
X88352380Y-93908738D02*
X88352380Y-93813500D01*
X88400000Y-93718261D01*
X88447619Y-93670642D01*
X88542857Y-93623023D01*
X88733333Y-93575404D01*
X88971428Y-93575404D01*
X89161904Y-93623023D01*
X89257142Y-93670642D01*
X89304761Y-93718261D01*
X89352380Y-93813500D01*
X89352380Y-93908738D01*
X89304761Y-94003976D01*
X89257142Y-94051595D01*
X89161904Y-94099214D01*
X88971428Y-94146833D01*
X88733333Y-94146833D01*
X88542857Y-94099214D01*
X88447619Y-94051595D01*
X88400000Y-94003976D01*
X88352380Y-93908738D01*
X88352380Y-92670642D02*
X88352380Y-93146833D01*
X88828571Y-93194452D01*
X88780952Y-93146833D01*
X88733333Y-93051595D01*
X88733333Y-92813500D01*
X88780952Y-92718261D01*
X88828571Y-92670642D01*
X88923809Y-92623023D01*
X89161904Y-92623023D01*
X89257142Y-92670642D01*
X89304761Y-92718261D01*
X89352380Y-92813500D01*
X89352380Y-93051595D01*
X89304761Y-93146833D01*
X89257142Y-93194452D01*
%TO.C,ADC2*%
X136755166Y-101472785D02*
X136755166Y-100996595D01*
X137040880Y-101568023D02*
X136040880Y-101234690D01*
X137040880Y-100901357D01*
X137040880Y-100568023D02*
X136040880Y-100568023D01*
X136040880Y-100329928D01*
X136088500Y-100187071D01*
X136183738Y-100091833D01*
X136278976Y-100044214D01*
X136469452Y-99996595D01*
X136612309Y-99996595D01*
X136802785Y-100044214D01*
X136898023Y-100091833D01*
X136993261Y-100187071D01*
X137040880Y-100329928D01*
X137040880Y-100568023D01*
X136945642Y-98996595D02*
X136993261Y-99044214D01*
X137040880Y-99187071D01*
X137040880Y-99282309D01*
X136993261Y-99425166D01*
X136898023Y-99520404D01*
X136802785Y-99568023D01*
X136612309Y-99615642D01*
X136469452Y-99615642D01*
X136278976Y-99568023D01*
X136183738Y-99520404D01*
X136088500Y-99425166D01*
X136040880Y-99282309D01*
X136040880Y-99187071D01*
X136088500Y-99044214D01*
X136136119Y-98996595D01*
X136136119Y-98615642D02*
X136088500Y-98568023D01*
X136040880Y-98472785D01*
X136040880Y-98234690D01*
X136088500Y-98139452D01*
X136136119Y-98091833D01*
X136231357Y-98044214D01*
X136326595Y-98044214D01*
X136469452Y-98091833D01*
X137040880Y-98663261D01*
X137040880Y-98044214D01*
X129865380Y-100258476D02*
X129865380Y-100829904D01*
X129865380Y-100544190D02*
X128865380Y-100544190D01*
X129008238Y-100639428D01*
X129103476Y-100734666D01*
X129151095Y-100829904D01*
X128865380Y-99639428D02*
X128865380Y-99544190D01*
X128913000Y-99448952D01*
X128960619Y-99401333D01*
X129055857Y-99353714D01*
X129246333Y-99306095D01*
X129484428Y-99306095D01*
X129674904Y-99353714D01*
X129770142Y-99401333D01*
X129817761Y-99448952D01*
X129865380Y-99544190D01*
X129865380Y-99639428D01*
X129817761Y-99734666D01*
X129770142Y-99782285D01*
X129674904Y-99829904D01*
X129484428Y-99877523D01*
X129246333Y-99877523D01*
X129055857Y-99829904D01*
X128960619Y-99782285D01*
X128913000Y-99734666D01*
X128865380Y-99639428D01*
X129865380Y-98877523D02*
X128865380Y-98877523D01*
X129865380Y-98306095D02*
X129293952Y-98734666D01*
X128865380Y-98306095D02*
X129436809Y-98877523D01*
%TO.C,R3*%
X120102333Y-88336380D02*
X119769000Y-87860190D01*
X119530904Y-88336380D02*
X119530904Y-87336380D01*
X119911857Y-87336380D01*
X120007095Y-87384000D01*
X120054714Y-87431619D01*
X120102333Y-87526857D01*
X120102333Y-87669714D01*
X120054714Y-87764952D01*
X120007095Y-87812571D01*
X119911857Y-87860190D01*
X119530904Y-87860190D01*
X120435666Y-87336380D02*
X121054714Y-87336380D01*
X120721380Y-87717333D01*
X120864238Y-87717333D01*
X120959476Y-87764952D01*
X121007095Y-87812571D01*
X121054714Y-87907809D01*
X121054714Y-88145904D01*
X121007095Y-88241142D01*
X120959476Y-88288761D01*
X120864238Y-88336380D01*
X120578523Y-88336380D01*
X120483285Y-88288761D01*
X120435666Y-88241142D01*
X119602404Y-88765119D02*
X119650023Y-88717500D01*
X119745261Y-88669880D01*
X119983357Y-88669880D01*
X120078595Y-88717500D01*
X120126214Y-88765119D01*
X120173833Y-88860357D01*
X120173833Y-88955595D01*
X120126214Y-89098452D01*
X119554785Y-89669880D01*
X120173833Y-89669880D01*
X120792880Y-88669880D02*
X120888119Y-88669880D01*
X120983357Y-88717500D01*
X121030976Y-88765119D01*
X121078595Y-88860357D01*
X121126214Y-89050833D01*
X121126214Y-89288928D01*
X121078595Y-89479404D01*
X121030976Y-89574642D01*
X120983357Y-89622261D01*
X120888119Y-89669880D01*
X120792880Y-89669880D01*
X120697642Y-89622261D01*
X120650023Y-89574642D01*
X120602404Y-89479404D01*
X120554785Y-89288928D01*
X120554785Y-89050833D01*
X120602404Y-88860357D01*
X120650023Y-88765119D01*
X120697642Y-88717500D01*
X120792880Y-88669880D01*
X121745261Y-88669880D02*
X121840500Y-88669880D01*
X121935738Y-88717500D01*
X121983357Y-88765119D01*
X122030976Y-88860357D01*
X122078595Y-89050833D01*
X122078595Y-89288928D01*
X122030976Y-89479404D01*
X121983357Y-89574642D01*
X121935738Y-89622261D01*
X121840500Y-89669880D01*
X121745261Y-89669880D01*
X121650023Y-89622261D01*
X121602404Y-89574642D01*
X121554785Y-89479404D01*
X121507166Y-89288928D01*
X121507166Y-89050833D01*
X121554785Y-88860357D01*
X121602404Y-88765119D01*
X121650023Y-88717500D01*
X121745261Y-88669880D01*
%TO.C,R9*%
X88923833Y-111005880D02*
X88590500Y-110529690D01*
X88352404Y-111005880D02*
X88352404Y-110005880D01*
X88733357Y-110005880D01*
X88828595Y-110053500D01*
X88876214Y-110101119D01*
X88923833Y-110196357D01*
X88923833Y-110339214D01*
X88876214Y-110434452D01*
X88828595Y-110482071D01*
X88733357Y-110529690D01*
X88352404Y-110529690D01*
X89400023Y-111005880D02*
X89590500Y-111005880D01*
X89685738Y-110958261D01*
X89733357Y-110910642D01*
X89828595Y-110767785D01*
X89876214Y-110577309D01*
X89876214Y-110196357D01*
X89828595Y-110101119D01*
X89780976Y-110053500D01*
X89685738Y-110005880D01*
X89495261Y-110005880D01*
X89400023Y-110053500D01*
X89352404Y-110101119D01*
X89304785Y-110196357D01*
X89304785Y-110434452D01*
X89352404Y-110529690D01*
X89400023Y-110577309D01*
X89495261Y-110624928D01*
X89685738Y-110624928D01*
X89780976Y-110577309D01*
X89828595Y-110529690D01*
X89876214Y-110434452D01*
X87534904Y-111561619D02*
X87582523Y-111514000D01*
X87677761Y-111466380D01*
X87915857Y-111466380D01*
X88011095Y-111514000D01*
X88058714Y-111561619D01*
X88106333Y-111656857D01*
X88106333Y-111752095D01*
X88058714Y-111894952D01*
X87487285Y-112466380D01*
X88106333Y-112466380D01*
X88725380Y-111466380D02*
X88820619Y-111466380D01*
X88915857Y-111514000D01*
X88963476Y-111561619D01*
X89011095Y-111656857D01*
X89058714Y-111847333D01*
X89058714Y-112085428D01*
X89011095Y-112275904D01*
X88963476Y-112371142D01*
X88915857Y-112418761D01*
X88820619Y-112466380D01*
X88725380Y-112466380D01*
X88630142Y-112418761D01*
X88582523Y-112371142D01*
X88534904Y-112275904D01*
X88487285Y-112085428D01*
X88487285Y-111847333D01*
X88534904Y-111656857D01*
X88582523Y-111561619D01*
X88630142Y-111514000D01*
X88725380Y-111466380D01*
X89677761Y-111466380D02*
X89773000Y-111466380D01*
X89868238Y-111514000D01*
X89915857Y-111561619D01*
X89963476Y-111656857D01*
X90011095Y-111847333D01*
X90011095Y-112085428D01*
X89963476Y-112275904D01*
X89915857Y-112371142D01*
X89868238Y-112418761D01*
X89773000Y-112466380D01*
X89677761Y-112466380D01*
X89582523Y-112418761D01*
X89534904Y-112371142D01*
X89487285Y-112275904D01*
X89439666Y-112085428D01*
X89439666Y-111847333D01*
X89487285Y-111656857D01*
X89534904Y-111561619D01*
X89582523Y-111514000D01*
X89677761Y-111466380D01*
%TO.C,ADC4*%
X168084714Y-112561666D02*
X168560904Y-112561666D01*
X167989476Y-112847380D02*
X168322809Y-111847380D01*
X168656142Y-112847380D01*
X168989476Y-112847380D02*
X168989476Y-111847380D01*
X169227571Y-111847380D01*
X169370428Y-111895000D01*
X169465666Y-111990238D01*
X169513285Y-112085476D01*
X169560904Y-112275952D01*
X169560904Y-112418809D01*
X169513285Y-112609285D01*
X169465666Y-112704523D01*
X169370428Y-112799761D01*
X169227571Y-112847380D01*
X168989476Y-112847380D01*
X170560904Y-112752142D02*
X170513285Y-112799761D01*
X170370428Y-112847380D01*
X170275190Y-112847380D01*
X170132333Y-112799761D01*
X170037095Y-112704523D01*
X169989476Y-112609285D01*
X169941857Y-112418809D01*
X169941857Y-112275952D01*
X169989476Y-112085476D01*
X170037095Y-111990238D01*
X170132333Y-111895000D01*
X170275190Y-111847380D01*
X170370428Y-111847380D01*
X170513285Y-111895000D01*
X170560904Y-111942619D01*
X171418047Y-112180714D02*
X171418047Y-112847380D01*
X171179952Y-111799761D02*
X170941857Y-112514047D01*
X171560904Y-112514047D01*
X166822380Y-110735976D02*
X166822380Y-111307404D01*
X166822380Y-111021690D02*
X165822380Y-111021690D01*
X165965238Y-111116928D01*
X166060476Y-111212166D01*
X166108095Y-111307404D01*
X165822380Y-110116928D02*
X165822380Y-110021690D01*
X165870000Y-109926452D01*
X165917619Y-109878833D01*
X166012857Y-109831214D01*
X166203333Y-109783595D01*
X166441428Y-109783595D01*
X166631904Y-109831214D01*
X166727142Y-109878833D01*
X166774761Y-109926452D01*
X166822380Y-110021690D01*
X166822380Y-110116928D01*
X166774761Y-110212166D01*
X166727142Y-110259785D01*
X166631904Y-110307404D01*
X166441428Y-110355023D01*
X166203333Y-110355023D01*
X166012857Y-110307404D01*
X165917619Y-110259785D01*
X165870000Y-110212166D01*
X165822380Y-110116928D01*
X166822380Y-109355023D02*
X165822380Y-109355023D01*
X166822380Y-108783595D02*
X166250952Y-109212166D01*
X165822380Y-108783595D02*
X166393809Y-109355023D01*
%TO.C,C5*%
X90447833Y-82462642D02*
X90400214Y-82510261D01*
X90257357Y-82557880D01*
X90162119Y-82557880D01*
X90019261Y-82510261D01*
X89924023Y-82415023D01*
X89876404Y-82319785D01*
X89828785Y-82129309D01*
X89828785Y-81986452D01*
X89876404Y-81795976D01*
X89924023Y-81700738D01*
X90019261Y-81605500D01*
X90162119Y-81557880D01*
X90257357Y-81557880D01*
X90400214Y-81605500D01*
X90447833Y-81653119D01*
X91352595Y-81557880D02*
X90876404Y-81557880D01*
X90828785Y-82034071D01*
X90876404Y-81986452D01*
X90971642Y-81938833D01*
X91209738Y-81938833D01*
X91304976Y-81986452D01*
X91352595Y-82034071D01*
X91400214Y-82129309D01*
X91400214Y-82367404D01*
X91352595Y-82462642D01*
X91304976Y-82510261D01*
X91209738Y-82557880D01*
X90971642Y-82557880D01*
X90876404Y-82510261D01*
X90828785Y-82462642D01*
X92130714Y-81716619D02*
X92178333Y-81669000D01*
X92273571Y-81621380D01*
X92511666Y-81621380D01*
X92606904Y-81669000D01*
X92654523Y-81716619D01*
X92702142Y-81811857D01*
X92702142Y-81907095D01*
X92654523Y-82049952D01*
X92083095Y-82621380D01*
X92702142Y-82621380D01*
X93083095Y-81716619D02*
X93130714Y-81669000D01*
X93225952Y-81621380D01*
X93464047Y-81621380D01*
X93559285Y-81669000D01*
X93606904Y-81716619D01*
X93654523Y-81811857D01*
X93654523Y-81907095D01*
X93606904Y-82049952D01*
X93035476Y-82621380D01*
X93654523Y-82621380D01*
X94511666Y-81954714D02*
X94511666Y-82621380D01*
X94083095Y-81954714D02*
X94083095Y-82478523D01*
X94130714Y-82573761D01*
X94225952Y-82621380D01*
X94368809Y-82621380D01*
X94464047Y-82573761D01*
X94511666Y-82526142D01*
%TO.C,C1*%
X132185833Y-76678642D02*
X132138214Y-76726261D01*
X131995357Y-76773880D01*
X131900119Y-76773880D01*
X131757261Y-76726261D01*
X131662023Y-76631023D01*
X131614404Y-76535785D01*
X131566785Y-76345309D01*
X131566785Y-76202452D01*
X131614404Y-76011976D01*
X131662023Y-75916738D01*
X131757261Y-75821500D01*
X131900119Y-75773880D01*
X131995357Y-75773880D01*
X132138214Y-75821500D01*
X132185833Y-75869119D01*
X133138214Y-76773880D02*
X132566785Y-76773880D01*
X132852500Y-76773880D02*
X132852500Y-75773880D01*
X132757261Y-75916738D01*
X132662023Y-76011976D01*
X132566785Y-76059595D01*
X131707095Y-77620880D02*
X132326142Y-77620880D01*
X131992809Y-78001833D01*
X132135666Y-78001833D01*
X132230904Y-78049452D01*
X132278523Y-78097071D01*
X132326142Y-78192309D01*
X132326142Y-78430404D01*
X132278523Y-78525642D01*
X132230904Y-78573261D01*
X132135666Y-78620880D01*
X131849952Y-78620880D01*
X131754714Y-78573261D01*
X131707095Y-78525642D01*
X132659476Y-77620880D02*
X133278523Y-77620880D01*
X132945190Y-78001833D01*
X133088047Y-78001833D01*
X133183285Y-78049452D01*
X133230904Y-78097071D01*
X133278523Y-78192309D01*
X133278523Y-78430404D01*
X133230904Y-78525642D01*
X133183285Y-78573261D01*
X133088047Y-78620880D01*
X132802333Y-78620880D01*
X132707095Y-78573261D01*
X132659476Y-78525642D01*
X134135666Y-77954214D02*
X134135666Y-78620880D01*
X133707095Y-77954214D02*
X133707095Y-78478023D01*
X133754714Y-78573261D01*
X133849952Y-78620880D01*
X133992809Y-78620880D01*
X134088047Y-78573261D01*
X134135666Y-78525642D01*
%TO.C,R1*%
X124420333Y-70507880D02*
X124087000Y-70031690D01*
X123848904Y-70507880D02*
X123848904Y-69507880D01*
X124229857Y-69507880D01*
X124325095Y-69555500D01*
X124372714Y-69603119D01*
X124420333Y-69698357D01*
X124420333Y-69841214D01*
X124372714Y-69936452D01*
X124325095Y-69984071D01*
X124229857Y-70031690D01*
X123848904Y-70031690D01*
X125372714Y-70507880D02*
X124801285Y-70507880D01*
X125087000Y-70507880D02*
X125087000Y-69507880D01*
X124991761Y-69650738D01*
X124896523Y-69745976D01*
X124801285Y-69793595D01*
X123348904Y-65763119D02*
X123396523Y-65715500D01*
X123491761Y-65667880D01*
X123729857Y-65667880D01*
X123825095Y-65715500D01*
X123872714Y-65763119D01*
X123920333Y-65858357D01*
X123920333Y-65953595D01*
X123872714Y-66096452D01*
X123301285Y-66667880D01*
X123920333Y-66667880D01*
X124539380Y-65667880D02*
X124634619Y-65667880D01*
X124729857Y-65715500D01*
X124777476Y-65763119D01*
X124825095Y-65858357D01*
X124872714Y-66048833D01*
X124872714Y-66286928D01*
X124825095Y-66477404D01*
X124777476Y-66572642D01*
X124729857Y-66620261D01*
X124634619Y-66667880D01*
X124539380Y-66667880D01*
X124444142Y-66620261D01*
X124396523Y-66572642D01*
X124348904Y-66477404D01*
X124301285Y-66286928D01*
X124301285Y-66048833D01*
X124348904Y-65858357D01*
X124396523Y-65763119D01*
X124444142Y-65715500D01*
X124539380Y-65667880D01*
X125491761Y-65667880D02*
X125587000Y-65667880D01*
X125682238Y-65715500D01*
X125729857Y-65763119D01*
X125777476Y-65858357D01*
X125825095Y-66048833D01*
X125825095Y-66286928D01*
X125777476Y-66477404D01*
X125729857Y-66572642D01*
X125682238Y-66620261D01*
X125587000Y-66667880D01*
X125491761Y-66667880D01*
X125396523Y-66620261D01*
X125348904Y-66572642D01*
X125301285Y-66477404D01*
X125253666Y-66286928D01*
X125253666Y-66048833D01*
X125301285Y-65858357D01*
X125348904Y-65763119D01*
X125396523Y-65715500D01*
X125491761Y-65667880D01*
%TO.C,R5*%
X168854380Y-83669166D02*
X168378190Y-84002500D01*
X168854380Y-84240595D02*
X167854380Y-84240595D01*
X167854380Y-83859642D01*
X167902000Y-83764404D01*
X167949619Y-83716785D01*
X168044857Y-83669166D01*
X168187714Y-83669166D01*
X168282952Y-83716785D01*
X168330571Y-83764404D01*
X168378190Y-83859642D01*
X168378190Y-84240595D01*
X167854380Y-82764404D02*
X167854380Y-83240595D01*
X168330571Y-83288214D01*
X168282952Y-83240595D01*
X168235333Y-83145357D01*
X168235333Y-82907261D01*
X168282952Y-82812023D01*
X168330571Y-82764404D01*
X168425809Y-82716785D01*
X168663904Y-82716785D01*
X168759142Y-82764404D01*
X168806761Y-82812023D01*
X168854380Y-82907261D01*
X168854380Y-83145357D01*
X168806761Y-83240595D01*
X168759142Y-83288214D01*
X167854380Y-81899023D02*
X167854380Y-81279976D01*
X168235333Y-81613309D01*
X168235333Y-81470452D01*
X168282952Y-81375214D01*
X168330571Y-81327595D01*
X168425809Y-81279976D01*
X168663904Y-81279976D01*
X168759142Y-81327595D01*
X168806761Y-81375214D01*
X168854380Y-81470452D01*
X168854380Y-81756166D01*
X168806761Y-81851404D01*
X168759142Y-81899023D01*
X167854380Y-80946642D02*
X167854380Y-80327595D01*
X168235333Y-80660928D01*
X168235333Y-80518071D01*
X168282952Y-80422833D01*
X168330571Y-80375214D01*
X168425809Y-80327595D01*
X168663904Y-80327595D01*
X168759142Y-80375214D01*
X168806761Y-80422833D01*
X168854380Y-80518071D01*
X168854380Y-80803785D01*
X168806761Y-80899023D01*
X168759142Y-80946642D01*
D10*
%TO.C,TB1*%
X120003500Y-102714000D02*
G75*
G03*
X120003500Y-102714000I-100000J0D01*
G01*
D13*
X118593500Y-63324000D02*
X118593500Y-106504000D01*
X100813500Y-106504000D02*
X100813500Y-63324000D01*
X100813500Y-63324000D02*
X118593500Y-63324000D01*
X118593500Y-106504000D02*
X100813500Y-106504000D01*
D14*
%TO.C,J8*%
X164966000Y-58026000D02*
X173566000Y-58026000D01*
X173566000Y-67226000D02*
X159066000Y-67226000D01*
X159066000Y-60026000D02*
X159066000Y-58026000D01*
X159066000Y-58026000D02*
X160366000Y-58026000D01*
X158766000Y-65826000D02*
X158766000Y-67526000D01*
X173566000Y-58026000D02*
X173566000Y-67226000D01*
X159066000Y-67226000D02*
X159066000Y-65226000D01*
X158766000Y-67526000D02*
X160066000Y-67526000D01*
%TO.C,J5*%
X95007500Y-62925000D02*
X95007500Y-60265000D01*
X89867500Y-62925000D02*
X95007500Y-62925000D01*
X88597500Y-62925000D02*
X87267500Y-62925000D01*
X89867500Y-60265000D02*
X95007500Y-60265000D01*
X87267500Y-62925000D02*
X87267500Y-61595000D01*
X89867500Y-62925000D02*
X89867500Y-60265000D01*
%TO.C,D1*%
X89970000Y-76496000D02*
X92910000Y-76496000D01*
X89970000Y-76376000D02*
X92910000Y-76376000D01*
X92910000Y-77396000D02*
X92910000Y-71956000D01*
X91440000Y-70936000D02*
X91440000Y-71956000D01*
X89970000Y-77396000D02*
X92910000Y-77396000D01*
X89970000Y-76616000D02*
X92910000Y-76616000D01*
X92910000Y-71956000D02*
X89970000Y-71956000D01*
X91440000Y-78416000D02*
X91440000Y-77396000D01*
X89970000Y-71956000D02*
X89970000Y-77396000D01*
%TO.C,C7*%
X99462000Y-74752252D02*
X99462000Y-73329748D01*
X97642000Y-74752252D02*
X97642000Y-73329748D01*
%TO.C,R11*%
X108500500Y-71789936D02*
X108500500Y-73244064D01*
X110320500Y-71789936D02*
X110320500Y-73244064D01*
%TO.C,C10*%
X99335000Y-88633248D02*
X99335000Y-90055752D01*
X97515000Y-88633248D02*
X97515000Y-90055752D01*
%TO.C,C2*%
X123459500Y-84365651D02*
X126404500Y-84365651D01*
X128484500Y-84686651D02*
X131486500Y-84686651D01*
X124703500Y-82205651D02*
X130185500Y-82205651D01*
X128484500Y-83165651D02*
X130961500Y-83165651D01*
X128484500Y-84806651D02*
X131501500Y-84806651D01*
X125216500Y-81805651D02*
X129672500Y-81805651D01*
X124840500Y-82085651D02*
X130048500Y-82085651D01*
X125991500Y-81405651D02*
X128897500Y-81405651D01*
X124164500Y-82805651D02*
X130724500Y-82805651D01*
X123609500Y-83845651D02*
X126404500Y-83845651D01*
X128484500Y-84045651D02*
X131346500Y-84045651D01*
X123581500Y-83925651D02*
X126404500Y-83925651D01*
X128484500Y-84005651D02*
X131333500Y-84005651D01*
X128484500Y-84325651D02*
X131420500Y-84325651D01*
X124939500Y-82005651D02*
X129949500Y-82005651D01*
X123368500Y-85046651D02*
X131520500Y-85046651D01*
X123383500Y-84846651D02*
X126404500Y-84846651D01*
X124747500Y-82165651D02*
X130141500Y-82165651D01*
X128484500Y-83565651D02*
X131166500Y-83565651D01*
X128484500Y-84966651D02*
X131515500Y-84966651D01*
X123414500Y-84606651D02*
X126404500Y-84606651D01*
X123951500Y-83125651D02*
X126404500Y-83125651D01*
X123797500Y-83405651D02*
X126404500Y-83405651D01*
X123542500Y-84045651D02*
X126404500Y-84045651D01*
X128484500Y-83765651D02*
X131249500Y-83765651D01*
X123364500Y-85246651D02*
X131524500Y-85246651D01*
X125044500Y-81925651D02*
X129844500Y-81925651D01*
X124461500Y-82445651D02*
X130427500Y-82445651D01*
X123740500Y-83525651D02*
X126404500Y-83525651D01*
X124354500Y-82565651D02*
X130534500Y-82565651D01*
X123704500Y-83605651D02*
X126404500Y-83605651D01*
X124255500Y-82685651D02*
X130633500Y-82685651D01*
X128484500Y-84766651D02*
X131496500Y-84766651D01*
X128484500Y-83045651D02*
X130888500Y-83045651D01*
X124135500Y-82845651D02*
X130753500Y-82845651D01*
X128484500Y-83965651D02*
X131321500Y-83965651D01*
X123407500Y-84646651D02*
X126404500Y-84646651D01*
X128484500Y-83645651D02*
X131201500Y-83645651D01*
X123442500Y-84445651D02*
X126404500Y-84445651D01*
X128484500Y-84285651D02*
X131411500Y-84285651D01*
X125631500Y-81565651D02*
X129257500Y-81565651D01*
X124000500Y-83045651D02*
X126404500Y-83045651D01*
X123373500Y-84966651D02*
X126404500Y-84966651D01*
X123639500Y-83765651D02*
X126404500Y-83765651D01*
X124026500Y-83005651D02*
X126404500Y-83005651D01*
X126098500Y-81365651D02*
X128790500Y-81365651D01*
X126496500Y-81245651D02*
X128392500Y-81245651D01*
X125480500Y-81645651D02*
X129408500Y-81645651D01*
X123555500Y-84005651D02*
X126404500Y-84005651D01*
X128484500Y-84726651D02*
X131492500Y-84726651D01*
X124106500Y-82885651D02*
X130782500Y-82885651D01*
X124052500Y-82965651D02*
X126404500Y-82965651D01*
X125129500Y-89656349D02*
X125129500Y-88856349D01*
X123670500Y-83685651D02*
X126404500Y-83685651D01*
X123434500Y-84485651D02*
X126404500Y-84485651D01*
X128484500Y-83325651D02*
X131050500Y-83325651D01*
X128484500Y-84445651D02*
X131446500Y-84445651D01*
X124288500Y-82645651D02*
X130600500Y-82645651D01*
X123758500Y-83485651D02*
X126404500Y-83485651D01*
X128484500Y-85006651D02*
X131518500Y-85006651D01*
X123882500Y-83245651D02*
X126404500Y-83245651D01*
X128484500Y-83205651D02*
X130984500Y-83205651D01*
X128484500Y-83805651D02*
X131265500Y-83805651D01*
X123817500Y-83365651D02*
X126404500Y-83365651D01*
X128484500Y-83125651D02*
X130937500Y-83125651D01*
X123927500Y-83165651D02*
X126404500Y-83165651D01*
X125892500Y-81445651D02*
X128996500Y-81445651D01*
X123420500Y-84566651D02*
X126404500Y-84566651D01*
X128484500Y-84165651D02*
X131380500Y-84165651D01*
X128484500Y-83885651D02*
X131294500Y-83885651D01*
X123975500Y-83085651D02*
X126404500Y-83085651D01*
X123379500Y-84886651D02*
X126404500Y-84886651D01*
X123387500Y-84806651D02*
X126404500Y-84806651D01*
X128484500Y-83685651D02*
X131218500Y-83685651D01*
X128484500Y-84606651D02*
X131474500Y-84606651D01*
X128484500Y-84365651D02*
X131429500Y-84365651D01*
X128484500Y-84245651D02*
X131401500Y-84245651D01*
X124537500Y-82365651D02*
X130351500Y-82365651D01*
X123654500Y-83725651D02*
X126404500Y-83725651D01*
X128484500Y-84205651D02*
X131391500Y-84205651D01*
X123477500Y-84285651D02*
X126404500Y-84285651D01*
X123392500Y-84766651D02*
X126404500Y-84766651D01*
X125554500Y-81605651D02*
X129334500Y-81605651D01*
X128484500Y-83925651D02*
X131307500Y-83925651D01*
X125342500Y-81725651D02*
X129546500Y-81725651D01*
X123402500Y-84686651D02*
X126404500Y-84686651D01*
X128484500Y-83845651D02*
X131279500Y-83845651D01*
X123450500Y-84405651D02*
X126404500Y-84405651D01*
X123623500Y-83805651D02*
X126404500Y-83805651D01*
X123508500Y-84165651D02*
X126404500Y-84165651D01*
X128484500Y-84566651D02*
X131468500Y-84566651D01*
X128484500Y-84926651D02*
X131512500Y-84926651D01*
X124425500Y-82485651D02*
X130463500Y-82485651D01*
X123364500Y-85206651D02*
X131524500Y-85206651D01*
X128484500Y-84485651D02*
X131454500Y-84485651D01*
X128484500Y-83485651D02*
X131130500Y-83485651D01*
X124389500Y-82525651D02*
X130499500Y-82525651D01*
X124499500Y-82405651D02*
X130389500Y-82405651D01*
X123396500Y-84726651D02*
X126404500Y-84726651D01*
X128484500Y-83405651D02*
X131091500Y-83405651D01*
X123530500Y-84085651D02*
X126404500Y-84085651D01*
X123364500Y-85166651D02*
X131524500Y-85166651D01*
X123365500Y-85126651D02*
X131523500Y-85126651D01*
X123904500Y-83205651D02*
X126404500Y-83205651D01*
X126215500Y-81325651D02*
X128673500Y-81325651D01*
X128484500Y-84525651D02*
X131461500Y-84525651D01*
X128484500Y-82965651D02*
X130836500Y-82965651D01*
X128484500Y-83365651D02*
X131071500Y-83365651D01*
X123722500Y-83565651D02*
X126404500Y-83565651D01*
X128484500Y-84646651D02*
X131481500Y-84646651D01*
X123376500Y-84926651D02*
X126404500Y-84926651D01*
X125799500Y-81485651D02*
X129089500Y-81485651D01*
X125713500Y-81525651D02*
X129175500Y-81525651D01*
X128484500Y-83445651D02*
X131110500Y-83445651D01*
X124888500Y-82045651D02*
X130000500Y-82045651D01*
X123687500Y-83645651D02*
X126404500Y-83645651D01*
X123778500Y-83445651D02*
X126404500Y-83445651D01*
X123370500Y-85006651D02*
X126404500Y-85006651D01*
X128484500Y-84125651D02*
X131369500Y-84125651D01*
X123519500Y-84125651D02*
X126404500Y-84125651D01*
X125278500Y-81765651D02*
X129610500Y-81765651D01*
X128484500Y-83085651D02*
X130913500Y-83085651D01*
X128484500Y-83245651D02*
X131006500Y-83245651D01*
X124320500Y-82605651D02*
X130568500Y-82605651D01*
X123487500Y-84245651D02*
X126404500Y-84245651D01*
X123567500Y-83965651D02*
X126404500Y-83965651D01*
X124990500Y-81965651D02*
X129898500Y-81965651D01*
X128484500Y-83285651D02*
X131028500Y-83285651D01*
X123367500Y-85086651D02*
X131521500Y-85086651D01*
X124079500Y-82925651D02*
X130809500Y-82925651D01*
X128484500Y-84085651D02*
X131358500Y-84085651D01*
X124194500Y-82765651D02*
X130694500Y-82765651D01*
X123427500Y-84525651D02*
X126404500Y-84525651D01*
X124577500Y-82325651D02*
X130311500Y-82325651D01*
X124793500Y-82125651D02*
X130095500Y-82125651D01*
X123594500Y-83885651D02*
X126404500Y-83885651D01*
X128484500Y-84886651D02*
X131509500Y-84886651D01*
X123468500Y-84325651D02*
X126404500Y-84325651D01*
X128484500Y-83525651D02*
X131148500Y-83525651D01*
X128484500Y-83725651D02*
X131234500Y-83725651D01*
X125410500Y-81685651D02*
X129478500Y-81685651D01*
X126676500Y-81205651D02*
X128212500Y-81205651D01*
X128484500Y-83605651D02*
X131184500Y-83605651D01*
X126911500Y-81165651D02*
X127977500Y-81165651D01*
X123497500Y-84205651D02*
X126404500Y-84205651D01*
X125099500Y-81885651D02*
X129789500Y-81885651D01*
X128484500Y-84846651D02*
X131505500Y-84846651D01*
X128484500Y-83005651D02*
X130862500Y-83005651D01*
X124660500Y-82245651D02*
X130228500Y-82245651D01*
X128484500Y-84405651D02*
X131438500Y-84405651D01*
X125157500Y-81845651D02*
X129731500Y-81845651D01*
X124618500Y-82285651D02*
X130270500Y-82285651D01*
X126346500Y-81285651D02*
X128542500Y-81285651D01*
X123838500Y-83325651D02*
X126404500Y-83325651D01*
X124729500Y-89256349D02*
X125529500Y-89256349D01*
X124224500Y-82725651D02*
X130664500Y-82725651D01*
X123860500Y-83285651D02*
X126404500Y-83285651D01*
X131564500Y-85246651D02*
G75*
G03*
X131564500Y-85246651I-4120000J0D01*
G01*
%TO.C,C6*%
X99081000Y-96253248D02*
X99081000Y-97675752D01*
X97261000Y-96253248D02*
X97261000Y-97675752D01*
%TO.C,U1*%
X148064000Y-65055500D02*
X137784000Y-65055500D01*
X137784000Y-75455500D02*
X148064000Y-75455500D01*
X145574000Y-65115500D02*
X143924000Y-65115500D01*
X137784000Y-65055500D02*
X137784000Y-75455500D01*
X140274000Y-65115500D02*
X140274000Y-75395500D01*
X145574000Y-75395500D02*
X145574000Y-65115500D01*
X141924000Y-65115500D02*
X140274000Y-65115500D01*
X140274000Y-75395500D02*
X145574000Y-75395500D01*
X148064000Y-75455500D02*
X148064000Y-65055500D01*
X141924000Y-65115500D02*
G75*
G03*
X143924000Y-65115500I1000000J0D01*
G01*
%TO.C,J2*%
X171129000Y-94433000D02*
X168469000Y-94433000D01*
X171129000Y-97033000D02*
X168469000Y-97033000D01*
X171129000Y-99633000D02*
X169799000Y-99633000D01*
X171129000Y-98303000D02*
X171129000Y-99633000D01*
X168469000Y-97033000D02*
X168469000Y-94433000D01*
X171129000Y-97033000D02*
X171129000Y-94433000D01*
%TO.C,J6*%
X124836000Y-96199000D02*
X127436000Y-96199000D01*
X123566000Y-96199000D02*
X122236000Y-96199000D01*
X127436000Y-96199000D02*
X127436000Y-93539000D01*
X124836000Y-96199000D02*
X124836000Y-93539000D01*
X124836000Y-93539000D02*
X127436000Y-93539000D01*
X122236000Y-96199000D02*
X122236000Y-94869000D01*
%TO.C,C3*%
X150220000Y-67424248D02*
X150220000Y-68846752D01*
X152040000Y-67424248D02*
X152040000Y-68846752D01*
%TO.C,R2*%
X132471436Y-72806500D02*
X133925564Y-72806500D01*
X132471436Y-70986500D02*
X133925564Y-70986500D01*
%TO.C,C9*%
X97578500Y-83411748D02*
X97578500Y-84834252D01*
X99398500Y-83411748D02*
X99398500Y-84834252D01*
%TO.C,C4*%
X97004000Y-111505000D02*
X93983000Y-111505000D01*
X101488000Y-113306000D02*
X99084000Y-113306000D01*
X102124000Y-111145000D02*
X93964000Y-111145000D01*
X101233000Y-113666000D02*
X94855000Y-113666000D01*
X100008000Y-114706000D02*
X96080000Y-114706000D01*
X97004000Y-111545000D02*
X93987000Y-111545000D01*
X97004000Y-113026000D02*
X94438000Y-113026000D01*
X97004000Y-112666000D02*
X94270000Y-112666000D01*
X101730000Y-112866000D02*
X99084000Y-112866000D01*
X101628000Y-113066000D02*
X99084000Y-113066000D01*
X97004000Y-112906000D02*
X94378000Y-112906000D01*
X101991000Y-112146000D02*
X99084000Y-112146000D01*
X102081000Y-111705000D02*
X99084000Y-111705000D01*
X101946000Y-112306000D02*
X99084000Y-112306000D01*
X101980000Y-112186000D02*
X99084000Y-112186000D01*
X101436000Y-113386000D02*
X99084000Y-113386000D01*
X101691000Y-112946000D02*
X99084000Y-112946000D01*
X100549000Y-114346000D02*
X95539000Y-114346000D01*
X100389000Y-114466000D02*
X95699000Y-114466000D01*
X97004000Y-112266000D02*
X94130000Y-112266000D01*
X97004000Y-113386000D02*
X94652000Y-113386000D01*
X101894000Y-112466000D02*
X99084000Y-112466000D01*
X102054000Y-111866000D02*
X99084000Y-111866000D01*
X102120000Y-111305000D02*
X93968000Y-111305000D01*
X97004000Y-111785000D02*
X94020000Y-111785000D01*
X101671000Y-112986000D02*
X99084000Y-112986000D01*
X98992000Y-115106000D02*
X97096000Y-115106000D01*
X97004000Y-113146000D02*
X94504000Y-113146000D01*
X100989000Y-113946000D02*
X95099000Y-113946000D01*
X101849000Y-112586000D02*
X99084000Y-112586000D01*
X101907000Y-112426000D02*
X99084000Y-112426000D01*
X97004000Y-112106000D02*
X94087000Y-112106000D01*
X97004000Y-113186000D02*
X94527000Y-113186000D01*
X100359000Y-106695302D02*
X100359000Y-107495302D01*
X97004000Y-112506000D02*
X94209000Y-112506000D01*
X97004000Y-111625000D02*
X93996000Y-111625000D01*
X102046000Y-111906000D02*
X99084000Y-111906000D01*
X101353000Y-113506000D02*
X94735000Y-113506000D01*
X101294000Y-113586000D02*
X94794000Y-113586000D01*
X102115000Y-111385000D02*
X99084000Y-111385000D01*
X97004000Y-111705000D02*
X94007000Y-111705000D01*
X102029000Y-111986000D02*
X99084000Y-111986000D01*
X101958000Y-112266000D02*
X99084000Y-112266000D01*
X100695000Y-114226000D02*
X95393000Y-114226000D01*
X100600000Y-114306000D02*
X95488000Y-114306000D01*
X97004000Y-112866000D02*
X94358000Y-112866000D01*
X100785000Y-114146000D02*
X95303000Y-114146000D01*
X101134000Y-113786000D02*
X94954000Y-113786000D01*
X100951000Y-113986000D02*
X95137000Y-113986000D01*
X98812000Y-115146000D02*
X97276000Y-115146000D01*
X99775000Y-114826000D02*
X96313000Y-114826000D01*
X97004000Y-113266000D02*
X94575000Y-113266000D01*
X97004000Y-112826000D02*
X94340000Y-112826000D01*
X102038000Y-111946000D02*
X99084000Y-111946000D01*
X102068000Y-111785000D02*
X99084000Y-111785000D01*
X101561000Y-113186000D02*
X99084000Y-113186000D01*
X98577000Y-115186000D02*
X97511000Y-115186000D01*
X97004000Y-112986000D02*
X94417000Y-112986000D01*
X100331000Y-114506000D02*
X95757000Y-114506000D01*
X97004000Y-112706000D02*
X94287000Y-112706000D01*
X100648000Y-114266000D02*
X95440000Y-114266000D01*
X101099000Y-113826000D02*
X94989000Y-113826000D01*
X100210000Y-114586000D02*
X95878000Y-114586000D01*
X102112000Y-111425000D02*
X99084000Y-111425000D01*
X99857000Y-114786000D02*
X96231000Y-114786000D01*
X102101000Y-111545000D02*
X99084000Y-111545000D01*
X99596000Y-114906000D02*
X96492000Y-114906000D01*
X101063000Y-113866000D02*
X95025000Y-113866000D01*
X97004000Y-112626000D02*
X94254000Y-112626000D01*
X101168000Y-113746000D02*
X94920000Y-113746000D01*
X97004000Y-112946000D02*
X94397000Y-112946000D01*
X101462000Y-113346000D02*
X99084000Y-113346000D01*
X97004000Y-111585000D02*
X93992000Y-111585000D01*
X101818000Y-112666000D02*
X99084000Y-112666000D01*
X101537000Y-113226000D02*
X99084000Y-113226000D01*
X97004000Y-111425000D02*
X93976000Y-111425000D01*
X97004000Y-111866000D02*
X94034000Y-111866000D01*
X101766000Y-112786000D02*
X99084000Y-112786000D01*
X97004000Y-111745000D02*
X94014000Y-111745000D01*
X102109000Y-111465000D02*
X99084000Y-111465000D01*
X100444000Y-114426000D02*
X95644000Y-114426000D01*
X101865000Y-112546000D02*
X99084000Y-112546000D01*
X101784000Y-112746000D02*
X99084000Y-112746000D01*
X99934000Y-114746000D02*
X96154000Y-114746000D01*
X97004000Y-111986000D02*
X94059000Y-111986000D01*
X100498000Y-114386000D02*
X95590000Y-114386000D01*
X100911000Y-114026000D02*
X95177000Y-114026000D01*
X97004000Y-112186000D02*
X94108000Y-112186000D01*
X97004000Y-112226000D02*
X94119000Y-112226000D01*
X97004000Y-112386000D02*
X94167000Y-112386000D01*
X99497000Y-114946000D02*
X96591000Y-114946000D01*
X97004000Y-112586000D02*
X94239000Y-112586000D01*
X100828000Y-114106000D02*
X95260000Y-114106000D01*
X97004000Y-112146000D02*
X94097000Y-112146000D01*
X100741000Y-114186000D02*
X95347000Y-114186000D01*
X101933000Y-112346000D02*
X99084000Y-112346000D01*
X97004000Y-112026000D02*
X94068000Y-112026000D01*
X99390000Y-114986000D02*
X96698000Y-114986000D01*
X101801000Y-112706000D02*
X99084000Y-112706000D01*
X101382000Y-113466000D02*
X94706000Y-113466000D01*
X97004000Y-113346000D02*
X94626000Y-113346000D01*
X102061000Y-111826000D02*
X99084000Y-111826000D01*
X101650000Y-113026000D02*
X99084000Y-113026000D01*
X97004000Y-111665000D02*
X94002000Y-111665000D01*
X102105000Y-111505000D02*
X99084000Y-111505000D01*
X102086000Y-111665000D02*
X99084000Y-111665000D01*
X101834000Y-112626000D02*
X99084000Y-112626000D01*
X101606000Y-113106000D02*
X99084000Y-113106000D01*
X97004000Y-112786000D02*
X94322000Y-112786000D01*
X101513000Y-113266000D02*
X99084000Y-113266000D01*
X102074000Y-111745000D02*
X99084000Y-111745000D01*
X97004000Y-111465000D02*
X93979000Y-111465000D01*
X97004000Y-111906000D02*
X94042000Y-111906000D01*
X99273000Y-115026000D02*
X96815000Y-115026000D01*
X102020000Y-112026000D02*
X99084000Y-112026000D01*
X97004000Y-112066000D02*
X94077000Y-112066000D01*
X97004000Y-111826000D02*
X94027000Y-111826000D01*
X97004000Y-111385000D02*
X93973000Y-111385000D01*
X101027000Y-113906000D02*
X95061000Y-113906000D01*
X97004000Y-113226000D02*
X94551000Y-113226000D01*
X102124000Y-111185000D02*
X93964000Y-111185000D01*
X97004000Y-112546000D02*
X94223000Y-112546000D01*
X101409000Y-113426000D02*
X94679000Y-113426000D01*
X102118000Y-111345000D02*
X99084000Y-111345000D01*
X101748000Y-112826000D02*
X99084000Y-112826000D01*
X102011000Y-112066000D02*
X99084000Y-112066000D01*
X101264000Y-113626000D02*
X94824000Y-113626000D01*
X100272000Y-114546000D02*
X95816000Y-114546000D01*
X101879000Y-112506000D02*
X99084000Y-112506000D01*
X101969000Y-112226000D02*
X99084000Y-112226000D01*
X101200000Y-113706000D02*
X94888000Y-113706000D01*
X97004000Y-113306000D02*
X94600000Y-113306000D01*
X97004000Y-112746000D02*
X94304000Y-112746000D01*
X100759000Y-107095302D02*
X99959000Y-107095302D01*
X100078000Y-114666000D02*
X96010000Y-114666000D01*
X97004000Y-111946000D02*
X94050000Y-111946000D01*
X102001000Y-112106000D02*
X99084000Y-112106000D01*
X102123000Y-111225000D02*
X93965000Y-111225000D01*
X97004000Y-111345000D02*
X93970000Y-111345000D01*
X102124000Y-111105000D02*
X93964000Y-111105000D01*
X101921000Y-112386000D02*
X99084000Y-112386000D01*
X102092000Y-111625000D02*
X99084000Y-111625000D01*
X100870000Y-114066000D02*
X95218000Y-114066000D01*
X101324000Y-113546000D02*
X94764000Y-113546000D01*
X97004000Y-112346000D02*
X94155000Y-112346000D01*
X97004000Y-112306000D02*
X94142000Y-112306000D01*
X100146000Y-114626000D02*
X95942000Y-114626000D01*
X102096000Y-111585000D02*
X99084000Y-111585000D01*
X101584000Y-113146000D02*
X99084000Y-113146000D01*
X99142000Y-115066000D02*
X96946000Y-115066000D01*
X99689000Y-114866000D02*
X96399000Y-114866000D01*
X97004000Y-112426000D02*
X94181000Y-112426000D01*
X97004000Y-113066000D02*
X94460000Y-113066000D01*
X101710000Y-112906000D02*
X99084000Y-112906000D01*
X97004000Y-113106000D02*
X94482000Y-113106000D01*
X97004000Y-112466000D02*
X94194000Y-112466000D01*
X102121000Y-111265000D02*
X93967000Y-111265000D01*
X102164000Y-111105000D02*
G75*
G03*
X102164000Y-111105000I-4120000J0D01*
G01*
%TO.C,Q1*%
X151344000Y-71814500D02*
X161584000Y-71814500D01*
X151344000Y-73324500D02*
X161584000Y-73324500D01*
X161584000Y-71814500D02*
X161584000Y-76455500D01*
X154614000Y-71814500D02*
X154614000Y-73324500D01*
X151344000Y-76455500D02*
X161584000Y-76455500D01*
X158315000Y-71814500D02*
X158315000Y-73324500D01*
X151344000Y-71814500D02*
X151344000Y-76455500D01*
%TO.C,D5*%
X129437000Y-110006500D02*
X131987000Y-110006500D01*
X129437000Y-108306500D02*
X129437000Y-110006500D01*
X129437000Y-108306500D02*
X131987000Y-108306500D01*
%TO.C,D6*%
X105322000Y-86003000D02*
X105322000Y-88553000D01*
X107022000Y-86003000D02*
X105322000Y-86003000D01*
X107022000Y-86003000D02*
X107022000Y-88553000D01*
%TO.C,J1*%
X157612000Y-98174500D02*
X157612000Y-100834500D01*
X158882000Y-98174500D02*
X160212000Y-98174500D01*
X155012000Y-98174500D02*
X155012000Y-100834500D01*
X157612000Y-100834500D02*
X155012000Y-100834500D01*
X160212000Y-98174500D02*
X160212000Y-99504500D01*
X157612000Y-98174500D02*
X155012000Y-98174500D01*
%TO.C,R8*%
X159131000Y-85629500D02*
X159131000Y-89129500D01*
X161751000Y-83009500D02*
G75*
G03*
X161751000Y-83009500I-2620000J0D01*
G01*
%TO.C,D3*%
X106020500Y-76747500D02*
X107720500Y-76747500D01*
X107720500Y-76747500D02*
X107720500Y-74197500D01*
X106020500Y-76747500D02*
X106020500Y-74197500D01*
%TO.C,R4*%
X132570500Y-90995500D02*
X129410500Y-90995500D01*
X134410500Y-90995500D02*
G75*
G03*
X134410500Y-90995500I-920000J0D01*
G01*
%TO.C,J3*%
X130678000Y-96199000D02*
X129348000Y-96199000D01*
X131948000Y-93539000D02*
X134548000Y-93539000D01*
X134548000Y-96199000D02*
X134548000Y-93539000D01*
X131948000Y-96199000D02*
X134548000Y-96199000D01*
X129348000Y-96199000D02*
X129348000Y-94869000D01*
X131948000Y-96199000D02*
X131948000Y-93539000D01*
%TO.C,R7*%
X135442000Y-68178564D02*
X135442000Y-66724436D01*
X133622000Y-68178564D02*
X133622000Y-66724436D01*
%TO.C,C8*%
X99462000Y-78600248D02*
X99462000Y-80022752D01*
X97642000Y-78600248D02*
X97642000Y-80022752D01*
%TO.C,D2*%
X92964500Y-107864000D02*
X93120500Y-107864000D01*
X90648500Y-107864000D02*
X90804500Y-107864000D01*
X90804663Y-105262870D02*
G75*
G03*
X90804500Y-107344961I1079837J-1041130D01*
G01*
X92964500Y-107344961D02*
G75*
G03*
X92964337Y-105262870I-1080000J1040961D01*
G01*
X93120016Y-107864000D02*
G75*
G03*
X92963108Y-104631665I-1235516J1560000D01*
G01*
X90805892Y-104631665D02*
G75*
G03*
X90648984Y-107864000I1078608J-1672335D01*
G01*
%TO.C,J7*%
X105985000Y-112077500D02*
X105985000Y-112137500D01*
X108645000Y-112077500D02*
X108645000Y-112137500D01*
X105985000Y-109477500D02*
X107315000Y-109477500D01*
X105985000Y-112077500D02*
X108645000Y-112077500D01*
X105985000Y-110807500D02*
X105985000Y-109477500D01*
X105985000Y-112137500D02*
X108645000Y-112137500D01*
%TO.C,R10*%
X108500500Y-67465564D02*
X108500500Y-66011436D01*
X110320500Y-67465564D02*
X110320500Y-66011436D01*
D15*
%TO.C,ZX1*%
X152146000Y-83502500D02*
X152146000Y-104584500D01*
X144946000Y-80203500D02*
X145496000Y-80203500D01*
X140462000Y-103822500D02*
X139446000Y-104584500D01*
X145566000Y-81283500D02*
X145566000Y-80733500D01*
D16*
X153296000Y-79033500D02*
X153296000Y-112373500D01*
D15*
X144526000Y-101155500D02*
X144526000Y-89344500D01*
D16*
X139296000Y-78033500D02*
X152296000Y-78033500D01*
D15*
X152146000Y-104584500D02*
X151130000Y-103822500D01*
X151130000Y-103822500D02*
X151130000Y-84264500D01*
X151130000Y-84264500D02*
X152146000Y-83502500D01*
D16*
X152596000Y-111663500D02*
X152596000Y-117573500D01*
X151046000Y-111663500D02*
X151046000Y-117573500D01*
X150726000Y-117623500D02*
X152866000Y-117623500D01*
D15*
X145566000Y-80123500D02*
X145566000Y-79583500D01*
X139446000Y-104584500D02*
X139446000Y-83502500D01*
X147066000Y-101155500D02*
X144526000Y-101155500D01*
X144946000Y-110943500D02*
X145496000Y-110943500D01*
D16*
X150726000Y-125673500D02*
X152866000Y-125673500D01*
D15*
X147828000Y-104584500D02*
X147828000Y-83502500D01*
X146026000Y-79583500D02*
X146026000Y-80133500D01*
D16*
X138296000Y-112373500D02*
X138296000Y-79033500D01*
X149696000Y-113263500D02*
X149696000Y-110013500D01*
X149726000Y-124673500D02*
X149726000Y-118623500D01*
D15*
X152146000Y-104584500D02*
X147828000Y-104584500D01*
X146026000Y-80743500D02*
X146026000Y-81283500D01*
X145566000Y-110863500D02*
X145566000Y-110323500D01*
D16*
X151646000Y-108013500D02*
X152296000Y-108013500D01*
X152296000Y-113373500D02*
X139296000Y-113373500D01*
D15*
X146646000Y-80663500D02*
X146096000Y-80663500D01*
X145566000Y-112023500D02*
X145566000Y-111473500D01*
X146026000Y-110323500D02*
X146026000Y-110873500D01*
X143764000Y-104584500D02*
X139446000Y-104584500D01*
D16*
X153866000Y-118623500D02*
X153866000Y-124673500D01*
D15*
X146646000Y-111403500D02*
X146096000Y-111403500D01*
X143764000Y-83502500D02*
X143764000Y-104584500D01*
X147828000Y-83502500D02*
X152146000Y-83502500D01*
X146106000Y-80203500D02*
X146646000Y-80203500D01*
X147066000Y-89344500D02*
X147066000Y-101155500D01*
X145486000Y-80663500D02*
X144946000Y-80663500D01*
X146106000Y-110943500D02*
X146646000Y-110943500D01*
X146026000Y-111483500D02*
X146026000Y-112023500D01*
X140462000Y-84264500D02*
X140462000Y-103822500D01*
X145486000Y-111403500D02*
X144946000Y-111403500D01*
X139446000Y-83502500D02*
X143764000Y-83502500D01*
X144526000Y-89344500D02*
X147066000Y-89344500D01*
X139446000Y-83502500D02*
X140462000Y-84264500D01*
X145566000Y-111473500D02*
G75*
G03*
X145496000Y-111403500I-70002J-2D01*
G01*
X145496000Y-80203500D02*
G75*
G03*
X145566000Y-80133500I0J70000D01*
G01*
X145796000Y-79353500D02*
G75*
G03*
X145566000Y-79583500I0J-230000D01*
G01*
X146026000Y-79583500D02*
G75*
G03*
X145796000Y-79353500I-230000J0D01*
G01*
X145796000Y-112253500D02*
G75*
G03*
X146026000Y-112023500I2J229998D01*
G01*
X146646000Y-80663500D02*
G75*
G03*
X146876000Y-80433500I0J230000D01*
G01*
X145566000Y-112023500D02*
G75*
G03*
X145796000Y-112253500I229998J-2D01*
G01*
X144716000Y-111173500D02*
G75*
G03*
X144946000Y-111403500I229998J-2D01*
G01*
D16*
X149726000Y-124673500D02*
G75*
G03*
X150726000Y-125673500I999999J-1D01*
G01*
D15*
X145796000Y-110093500D02*
G75*
G03*
X145566000Y-110323500I-2J-229998D01*
G01*
X146026000Y-110323500D02*
G75*
G03*
X145796000Y-110093500I-229998J2D01*
G01*
X145496000Y-110943500D02*
G75*
G03*
X145566000Y-110873500I-2J70002D01*
G01*
D16*
X138296000Y-112373500D02*
G75*
G03*
X139296000Y-113373500I999999J-1D01*
G01*
X153866000Y-118623500D02*
G75*
G03*
X152866000Y-117623500I-999999J1D01*
G01*
D15*
X146026000Y-80133500D02*
G75*
G03*
X146096000Y-80203500I70000J0D01*
G01*
X146096000Y-111413500D02*
G75*
G03*
X146026000Y-111483500I2J-70002D01*
G01*
X146096000Y-80673500D02*
G75*
G03*
X146026000Y-80743500I0J-70000D01*
G01*
X146876000Y-80433500D02*
G75*
G03*
X146646000Y-80203500I-230000J0D01*
G01*
X144946000Y-80203500D02*
G75*
G03*
X144716000Y-80433500I0J-230000D01*
G01*
D16*
X153296000Y-79033500D02*
G75*
G03*
X152296000Y-78033500I-1000000J0D01*
G01*
X152296000Y-108013500D02*
G75*
G03*
X153296000Y-106963500I0J1001190D01*
G01*
X139296000Y-78033500D02*
G75*
G03*
X138296000Y-79033500I0J-1000000D01*
G01*
D15*
X144716000Y-80433500D02*
G75*
G03*
X144946000Y-80663500I230000J0D01*
G01*
D16*
X152866000Y-125673500D02*
G75*
G03*
X153866000Y-124673500I1J999999D01*
G01*
D15*
X145566000Y-81283500D02*
G75*
G03*
X145796000Y-81513500I230000J0D01*
G01*
X146876000Y-111173500D02*
G75*
G03*
X146646000Y-110943500I-229998J2D01*
G01*
X144946000Y-110943500D02*
G75*
G03*
X144716000Y-111173500I-2J-229998D01*
G01*
X146026000Y-110873500D02*
G75*
G03*
X146096000Y-110943500I70002J2D01*
G01*
X145796000Y-81513500D02*
G75*
G03*
X146026000Y-81283500I0J230000D01*
G01*
D16*
X151646000Y-108013500D02*
G75*
G03*
X149696000Y-110013500I50600J-1999960D01*
G01*
D15*
X146646000Y-111403500D02*
G75*
G03*
X146876000Y-111173500I2J229998D01*
G01*
D16*
X152296000Y-113373500D02*
G75*
G03*
X153296000Y-112373500I1J999999D01*
G01*
X150726000Y-117623500D02*
G75*
G03*
X149726000Y-118623500I-1J-999999D01*
G01*
D15*
X145566000Y-80733500D02*
G75*
G03*
X145496000Y-80663500I-70000J0D01*
G01*
X147326000Y-111173500D02*
G75*
G03*
X147326000Y-111173500I-1530000J0D01*
G01*
X147326000Y-80433500D02*
G75*
G03*
X147326000Y-80433500I-1530000J0D01*
G01*
D16*
X153867800Y-111613500D02*
G75*
G03*
X153867800Y-111613500I-2071800J0D01*
G01*
D14*
%TO.C,ADC1*%
X122784500Y-97047000D02*
X122784500Y-106817000D01*
X127854500Y-97047000D02*
X127854500Y-106817000D01*
X127854500Y-106817000D02*
X122784500Y-106817000D01*
X127854500Y-97047000D02*
X122784500Y-97047000D01*
%TO.C,D4*%
X155550500Y-107926000D02*
X157250500Y-107926000D01*
X155550500Y-107926000D02*
X155550500Y-105376000D01*
X157250500Y-107926000D02*
X157250500Y-105376000D01*
%TO.C,ADC3*%
X158559500Y-101868500D02*
X158559500Y-111638500D01*
X163629500Y-101868500D02*
X158559500Y-101868500D01*
X163629500Y-101868500D02*
X163629500Y-111638500D01*
X163629500Y-111638500D02*
X158559500Y-111638500D01*
%TO.C,R6*%
X132330500Y-66724436D02*
X132330500Y-68178564D01*
X130510500Y-66724436D02*
X130510500Y-68178564D01*
%TO.C,J4*%
X162799000Y-97151500D02*
X157659000Y-97151500D01*
X162799000Y-94491500D02*
X162799000Y-97151500D01*
X157659000Y-94491500D02*
X157659000Y-97151500D01*
X164069000Y-94491500D02*
X165399000Y-94491500D01*
X165399000Y-94491500D02*
X165399000Y-95821500D01*
X162799000Y-94491500D02*
X157659000Y-94491500D01*
%TO.C,U2*%
X94553000Y-102592500D02*
X94553000Y-92352500D01*
X89912000Y-92352500D02*
X94553000Y-92352500D01*
X89912000Y-102592500D02*
X89912000Y-92352500D01*
X91422000Y-102592500D02*
X91422000Y-92352500D01*
X89912000Y-95621500D02*
X91422000Y-95621500D01*
X89912000Y-99322500D02*
X91422000Y-99322500D01*
X89912000Y-102592500D02*
X94553000Y-102592500D01*
%TO.C,ADC2*%
X135601500Y-97057000D02*
X135601500Y-106827000D01*
X135601500Y-106827000D02*
X130531500Y-106827000D01*
X135601500Y-97057000D02*
X130531500Y-97057000D01*
X130531500Y-97057000D02*
X130531500Y-106827000D01*
%TO.C,R3*%
X124696500Y-90995500D02*
X121536500Y-90995500D01*
X126536500Y-90995500D02*
G75*
G03*
X126536500Y-90995500I-920000J0D01*
G01*
%TO.C,R9*%
X90657000Y-113122064D02*
X90657000Y-111667936D01*
X92477000Y-113122064D02*
X92477000Y-111667936D01*
%TO.C,ADC4*%
X172392500Y-101487500D02*
X167322500Y-101487500D01*
X172392500Y-101487500D02*
X172392500Y-111257500D01*
X167322500Y-101487500D02*
X167322500Y-111257500D01*
X172392500Y-111257500D02*
X167322500Y-111257500D01*
%TO.C,C5*%
X89153000Y-83623651D02*
X93727000Y-83623651D01*
X90492000Y-83023651D02*
X92388000Y-83023651D01*
X88022000Y-84783651D02*
X90400000Y-84783651D01*
X87878000Y-85023651D02*
X90400000Y-85023651D01*
X92480000Y-85263651D02*
X95126000Y-85263651D01*
X87526000Y-85863651D02*
X90400000Y-85863651D01*
X90211000Y-83103651D02*
X92669000Y-83103651D01*
X87515000Y-85903651D02*
X90400000Y-85903651D01*
X87423000Y-86303651D02*
X90400000Y-86303651D01*
X87369000Y-86744651D02*
X90400000Y-86744651D01*
X90094000Y-83143651D02*
X92786000Y-83143651D01*
X89709000Y-83303651D02*
X93171000Y-83303651D01*
X87683000Y-85423651D02*
X90400000Y-85423651D01*
X87375000Y-86664651D02*
X90400000Y-86664651D01*
X92480000Y-86424651D02*
X95477000Y-86424651D01*
X87718000Y-85343651D02*
X90400000Y-85343651D01*
X92480000Y-84943651D02*
X94957000Y-84943651D01*
X92480000Y-86784651D02*
X95514000Y-86784651D01*
X92480000Y-85623651D02*
X95275000Y-85623651D01*
X92480000Y-84783651D02*
X94858000Y-84783651D01*
X89274000Y-83543651D02*
X93606000Y-83543651D01*
X87900000Y-84983651D02*
X90400000Y-84983651D01*
X87605000Y-85623651D02*
X90400000Y-85623651D01*
X92480000Y-85863651D02*
X95354000Y-85863651D01*
X88220000Y-84503651D02*
X94660000Y-84503651D01*
X92480000Y-85663651D02*
X95290000Y-85663651D01*
X87392000Y-86504651D02*
X90400000Y-86504651D01*
X87360000Y-87024651D02*
X95520000Y-87024651D01*
X92480000Y-85503651D02*
X95230000Y-85503651D01*
X87438000Y-86223651D02*
X90400000Y-86223651D01*
X92480000Y-85463651D02*
X95214000Y-85463651D01*
X92480000Y-85143651D02*
X95067000Y-85143651D01*
X92480000Y-86023651D02*
X95397000Y-86023651D01*
X92480000Y-85183651D02*
X95087000Y-85183651D01*
X92480000Y-85223651D02*
X95106000Y-85223651D01*
X90342000Y-83063651D02*
X92538000Y-83063651D01*
X92480000Y-85583651D02*
X95261000Y-85583651D01*
X89338000Y-83503651D02*
X93542000Y-83503651D01*
X88743000Y-83943651D02*
X94137000Y-83943651D01*
X87947000Y-84903651D02*
X90400000Y-84903651D01*
X88656000Y-84023651D02*
X94224000Y-84023651D01*
X89476000Y-83423651D02*
X93404000Y-83423651D01*
X92480000Y-85743651D02*
X95317000Y-85743651D01*
X92480000Y-86103651D02*
X95416000Y-86103651D01*
X92480000Y-86504651D02*
X95488000Y-86504651D01*
X92480000Y-85023651D02*
X95002000Y-85023651D01*
X88131000Y-84623651D02*
X94749000Y-84623651D01*
X87416000Y-86344651D02*
X90400000Y-86344651D01*
X92480000Y-86704651D02*
X95508000Y-86704651D01*
X87388000Y-86544651D02*
X90400000Y-86544651D01*
X89550000Y-83383651D02*
X93330000Y-83383651D01*
X92480000Y-85303651D02*
X95144000Y-85303651D01*
X87813000Y-85143651D02*
X90400000Y-85143651D01*
X92480000Y-84743651D02*
X94832000Y-84743651D01*
X87383000Y-86584651D02*
X90400000Y-86584651D01*
X87619000Y-85583651D02*
X90400000Y-85583651D01*
X88884000Y-83823651D02*
X93996000Y-83823651D01*
X92480000Y-86223651D02*
X95442000Y-86223651D01*
X87360000Y-86984651D02*
X95520000Y-86984651D01*
X87650000Y-85503651D02*
X90400000Y-85503651D01*
X88190000Y-84543651D02*
X94690000Y-84543651D01*
X92480000Y-85983651D02*
X95387000Y-85983651D01*
X92480000Y-85343651D02*
X95162000Y-85343651D01*
X87360000Y-86944651D02*
X95520000Y-86944651D01*
X92480000Y-86664651D02*
X95505000Y-86664651D01*
X90672000Y-82983651D02*
X92208000Y-82983651D01*
X87403000Y-86424651D02*
X90400000Y-86424651D01*
X89040000Y-83703651D02*
X93840000Y-83703651D01*
X87473000Y-86063651D02*
X90400000Y-86063651D01*
X88457000Y-84223651D02*
X94423000Y-84223651D01*
X87361000Y-86904651D02*
X95519000Y-86904651D01*
X87364000Y-86824651D02*
X95516000Y-86824651D01*
X88075000Y-84703651D02*
X94805000Y-84703651D01*
X87590000Y-85663651D02*
X90400000Y-85663651D01*
X87577000Y-85703651D02*
X90400000Y-85703651D01*
X92480000Y-86263651D02*
X95450000Y-86263651D01*
X87923000Y-84943651D02*
X90400000Y-84943651D01*
X92480000Y-84903651D02*
X94933000Y-84903651D01*
X90907000Y-82943651D02*
X91973000Y-82943651D01*
X88316000Y-84383651D02*
X94564000Y-84383651D01*
X92480000Y-86624651D02*
X95501000Y-86624651D01*
X92480000Y-85703651D02*
X95303000Y-85703651D01*
X87793000Y-85183651D02*
X90400000Y-85183651D01*
X92480000Y-86063651D02*
X95407000Y-86063651D01*
X88421000Y-84263651D02*
X94459000Y-84263651D01*
X87446000Y-86183651D02*
X90400000Y-86183651D01*
X88160000Y-84583651D02*
X94720000Y-84583651D01*
X88495000Y-84183651D02*
X94385000Y-84183651D01*
X88102000Y-84663651D02*
X94778000Y-84663651D01*
X92480000Y-84863651D02*
X94909000Y-84863651D01*
X92480000Y-86344651D02*
X95464000Y-86344651D01*
X87563000Y-85743651D02*
X90400000Y-85743651D01*
X92480000Y-85103651D02*
X95046000Y-85103651D01*
X92480000Y-85783651D02*
X95329000Y-85783651D01*
X87538000Y-85823651D02*
X90400000Y-85823651D01*
X88573000Y-84103651D02*
X94307000Y-84103651D01*
X88251000Y-84463651D02*
X94629000Y-84463651D01*
X92480000Y-85063651D02*
X95024000Y-85063651D01*
X87366000Y-86784651D02*
X90400000Y-86784651D01*
X88725000Y-91034349D02*
X89525000Y-91034349D01*
X87410000Y-86384651D02*
X90400000Y-86384651D01*
X88789000Y-83903651D02*
X94091000Y-83903651D01*
X92480000Y-85423651D02*
X95197000Y-85423651D01*
X92480000Y-85943651D02*
X95376000Y-85943651D01*
X92480000Y-86744651D02*
X95511000Y-86744651D01*
X87996000Y-84823651D02*
X90400000Y-84823651D01*
X87430000Y-86263651D02*
X90400000Y-86263651D01*
X92480000Y-85823651D02*
X95342000Y-85823651D01*
X87700000Y-85383651D02*
X90400000Y-85383651D01*
X88986000Y-83743651D02*
X93894000Y-83743651D01*
X87363000Y-86864651D02*
X95517000Y-86864651D01*
X88048000Y-84743651D02*
X90400000Y-84743651D01*
X92480000Y-84823651D02*
X94884000Y-84823651D01*
X87464000Y-86103651D02*
X90400000Y-86103651D01*
X87834000Y-85103651D02*
X90400000Y-85103651D01*
X88350000Y-84343651D02*
X94530000Y-84343651D01*
X89987000Y-83183651D02*
X92893000Y-83183651D01*
X92480000Y-86143651D02*
X95425000Y-86143651D01*
X92480000Y-86544651D02*
X95492000Y-86544651D01*
X92480000Y-86183651D02*
X95434000Y-86183651D01*
X88614000Y-84063651D02*
X94266000Y-84063651D01*
X88284000Y-84423651D02*
X94596000Y-84423651D01*
X87736000Y-85303651D02*
X90400000Y-85303651D01*
X87504000Y-85943651D02*
X90400000Y-85943651D01*
X87493000Y-85983651D02*
X90400000Y-85983651D01*
X92480000Y-86303651D02*
X95457000Y-86303651D01*
X88533000Y-84143651D02*
X94347000Y-84143651D01*
X92480000Y-86464651D02*
X95482000Y-86464651D01*
X89888000Y-83223651D02*
X92992000Y-83223651D01*
X88699000Y-83983651D02*
X94181000Y-83983651D01*
X88935000Y-83783651D02*
X93945000Y-83783651D01*
X87455000Y-86143651D02*
X90400000Y-86143651D01*
X92480000Y-85383651D02*
X95180000Y-85383651D01*
X92480000Y-86384651D02*
X95470000Y-86384651D01*
X92480000Y-86584651D02*
X95497000Y-86584651D01*
X87856000Y-85063651D02*
X90400000Y-85063651D01*
X87379000Y-86624651D02*
X90400000Y-86624651D01*
X89212000Y-83583651D02*
X93668000Y-83583651D01*
X89095000Y-83663651D02*
X93785000Y-83663651D01*
X87635000Y-85543651D02*
X90400000Y-85543651D01*
X88385000Y-84303651D02*
X94495000Y-84303651D01*
X87398000Y-86464651D02*
X90400000Y-86464651D01*
X89125000Y-91434349D02*
X89125000Y-90634349D01*
X87666000Y-85463651D02*
X90400000Y-85463651D01*
X87774000Y-85223651D02*
X90400000Y-85223651D01*
X92480000Y-85543651D02*
X95245000Y-85543651D01*
X87754000Y-85263651D02*
X90400000Y-85263651D01*
X92480000Y-85903651D02*
X95365000Y-85903651D01*
X89406000Y-83463651D02*
X93474000Y-83463651D01*
X89795000Y-83263651D02*
X93085000Y-83263651D01*
X87551000Y-85783651D02*
X90400000Y-85783651D01*
X92480000Y-84983651D02*
X94980000Y-84983651D01*
X87483000Y-86023651D02*
X90400000Y-86023651D01*
X89627000Y-83343651D02*
X93253000Y-83343651D01*
X88836000Y-83863651D02*
X94044000Y-83863651D01*
X87971000Y-84863651D02*
X90400000Y-84863651D01*
X87372000Y-86704651D02*
X90400000Y-86704651D01*
X95560000Y-87024651D02*
G75*
G03*
X95560000Y-87024651I-4120000J0D01*
G01*
%TO.C,C1*%
X127870500Y-80362500D02*
X126334500Y-80362500D01*
X128747500Y-80082500D02*
X125457500Y-80082500D01*
X130937500Y-77722500D02*
X128142500Y-77722500D01*
X130047500Y-79162500D02*
X124157500Y-79162500D01*
X126062500Y-76961500D02*
X123072500Y-76961500D01*
X131167500Y-76681500D02*
X128142500Y-76681500D01*
X131139500Y-76921500D02*
X128142500Y-76921500D01*
X126062500Y-78562500D02*
X123684500Y-78562500D01*
X130595500Y-78442500D02*
X128142500Y-78442500D01*
X129969500Y-79242500D02*
X124235500Y-79242500D01*
X129658500Y-79522500D02*
X124546500Y-79522500D01*
X126062500Y-76641500D02*
X123034500Y-76641500D01*
X129928500Y-79282500D02*
X124276500Y-79282500D01*
X126062500Y-76561500D02*
X123028500Y-76561500D01*
X126062500Y-77042500D02*
X123085500Y-77042500D01*
X131004500Y-77522500D02*
X128142500Y-77522500D01*
X131087500Y-77202500D02*
X128142500Y-77202500D01*
X126062500Y-78122500D02*
X123436500Y-78122500D01*
X130085500Y-79122500D02*
X124119500Y-79122500D01*
X130664500Y-78322500D02*
X128142500Y-78322500D01*
X130157500Y-79042500D02*
X124047500Y-79042500D01*
X131027500Y-77442500D02*
X128142500Y-77442500D01*
X129607500Y-79562500D02*
X124597500Y-79562500D01*
X128992500Y-79962500D02*
X125212500Y-79962500D01*
X126062500Y-76801500D02*
X123050500Y-76801500D01*
X128050500Y-80322500D02*
X126154500Y-80322500D01*
X130382500Y-78762500D02*
X123822500Y-78762500D01*
X126062500Y-77202500D02*
X123117500Y-77202500D01*
X131016500Y-77482500D02*
X128142500Y-77482500D01*
X129843500Y-79362500D02*
X124361500Y-79362500D01*
X131181500Y-76441500D02*
X123023500Y-76441500D01*
X131163500Y-76721500D02*
X128142500Y-76721500D01*
X129136500Y-79882500D02*
X125068500Y-79882500D01*
X126062500Y-77602500D02*
X123225500Y-77602500D01*
X128833500Y-80042500D02*
X125371500Y-80042500D01*
X129204500Y-79842500D02*
X125000500Y-79842500D01*
X126062500Y-77082500D02*
X123092500Y-77082500D01*
X131059500Y-77322500D02*
X128142500Y-77322500D01*
X131144500Y-76881500D02*
X128142500Y-76881500D01*
X130121500Y-79082500D02*
X124083500Y-79082500D01*
X131126500Y-77001500D02*
X128142500Y-77001500D01*
X130009500Y-79202500D02*
X124195500Y-79202500D01*
X126062500Y-78442500D02*
X123609500Y-78442500D01*
X130965500Y-77642500D02*
X128142500Y-77642500D01*
X131178500Y-76521500D02*
X123026500Y-76521500D01*
X131170500Y-76641500D02*
X128142500Y-76641500D01*
X131038500Y-77402500D02*
X128142500Y-77402500D01*
X130907500Y-77802500D02*
X128142500Y-77802500D01*
X126062500Y-78002500D02*
X123380500Y-78002500D01*
X130768500Y-78122500D02*
X128142500Y-78122500D01*
X129706500Y-79482500D02*
X124498500Y-79482500D01*
X131182500Y-76321500D02*
X123022500Y-76321500D01*
X130619500Y-78402500D02*
X128142500Y-78402500D01*
X126062500Y-77562500D02*
X123213500Y-77562500D01*
X131132500Y-76961500D02*
X128142500Y-76961500D01*
X126062500Y-78042500D02*
X123398500Y-78042500D01*
X126062500Y-76601500D02*
X123031500Y-76601500D01*
X130923500Y-77762500D02*
X128142500Y-77762500D01*
X129066500Y-79922500D02*
X125138500Y-79922500D01*
X131182500Y-76401500D02*
X123022500Y-76401500D01*
X130467500Y-78642500D02*
X123737500Y-78642500D01*
X129268500Y-79802500D02*
X124936500Y-79802500D01*
X126062500Y-77242500D02*
X123126500Y-77242500D01*
X126062500Y-76721500D02*
X123041500Y-76721500D01*
X129799500Y-79402500D02*
X124405500Y-79402500D01*
X126062500Y-77882500D02*
X123328500Y-77882500D01*
X126062500Y-78402500D02*
X123585500Y-78402500D01*
X126062500Y-77842500D02*
X123312500Y-77842500D01*
X126062500Y-77482500D02*
X123188500Y-77482500D01*
X131159500Y-76761500D02*
X128142500Y-76761500D01*
X130686500Y-78282500D02*
X128142500Y-78282500D01*
X131176500Y-76561500D02*
X128142500Y-76561500D01*
X130842500Y-77962500D02*
X128142500Y-77962500D01*
X131069500Y-77282500D02*
X128142500Y-77282500D01*
X130708500Y-78242500D02*
X128142500Y-78242500D01*
X126062500Y-76921500D02*
X123065500Y-76921500D01*
X128331500Y-80242500D02*
X125873500Y-80242500D01*
X130729500Y-78202500D02*
X128142500Y-78202500D01*
X130876500Y-77882500D02*
X128142500Y-77882500D01*
X129556500Y-79602500D02*
X124648500Y-79602500D01*
X130806500Y-78042500D02*
X128142500Y-78042500D01*
X126062500Y-78242500D02*
X123496500Y-78242500D01*
X126062500Y-77282500D02*
X123135500Y-77282500D01*
X129417500Y-71911802D02*
X129417500Y-72711802D01*
X130952500Y-77682500D02*
X128142500Y-77682500D01*
X126062500Y-77362500D02*
X123155500Y-77362500D01*
X130291500Y-78882500D02*
X123913500Y-78882500D01*
X129447500Y-79682500D02*
X124757500Y-79682500D01*
X126062500Y-76761500D02*
X123045500Y-76761500D01*
X130788500Y-78082500D02*
X128142500Y-78082500D01*
X131096500Y-77162500D02*
X128142500Y-77162500D01*
X130226500Y-78962500D02*
X123978500Y-78962500D01*
X126062500Y-78362500D02*
X123562500Y-78362500D01*
X126062500Y-77322500D02*
X123145500Y-77322500D01*
X128200500Y-80282500D02*
X126004500Y-80282500D01*
X126062500Y-77162500D02*
X123108500Y-77162500D01*
X130571500Y-78482500D02*
X128142500Y-78482500D01*
X131104500Y-77122500D02*
X128142500Y-77122500D01*
X130258500Y-78922500D02*
X123946500Y-78922500D01*
X126062500Y-76841500D02*
X123054500Y-76841500D01*
X126062500Y-78482500D02*
X123633500Y-78482500D01*
X126062500Y-76881500D02*
X123060500Y-76881500D01*
X130991500Y-77562500D02*
X128142500Y-77562500D01*
X130642500Y-78362500D02*
X128142500Y-78362500D01*
X130411500Y-78722500D02*
X123793500Y-78722500D01*
X126062500Y-78602500D02*
X123710500Y-78602500D01*
X126062500Y-77722500D02*
X123267500Y-77722500D01*
X129886500Y-79322500D02*
X124318500Y-79322500D01*
X131173500Y-76601500D02*
X128142500Y-76601500D01*
X126062500Y-77122500D02*
X123100500Y-77122500D01*
X126062500Y-77962500D02*
X123362500Y-77962500D01*
X128915500Y-80002500D02*
X125289500Y-80002500D01*
X130440500Y-78682500D02*
X123764500Y-78682500D01*
X127635500Y-80402500D02*
X126569500Y-80402500D01*
X126062500Y-78162500D02*
X123455500Y-78162500D01*
X126062500Y-78282500D02*
X123518500Y-78282500D01*
X130979500Y-77602500D02*
X128142500Y-77602500D01*
X130892500Y-77842500D02*
X128142500Y-77842500D01*
X129753500Y-79442500D02*
X124451500Y-79442500D01*
X130749500Y-78162500D02*
X128142500Y-78162500D01*
X130494500Y-78602500D02*
X128142500Y-78602500D01*
X130352500Y-78802500D02*
X123852500Y-78802500D01*
X126062500Y-77922500D02*
X123345500Y-77922500D01*
X130824500Y-78002500D02*
X128142500Y-78002500D01*
X126062500Y-77001500D02*
X123078500Y-77001500D01*
X126062500Y-77642500D02*
X123239500Y-77642500D01*
X130859500Y-77922500D02*
X128142500Y-77922500D01*
X126062500Y-77682500D02*
X123252500Y-77682500D01*
X126062500Y-77762500D02*
X123281500Y-77762500D01*
X128555500Y-80162500D02*
X125649500Y-80162500D01*
X131119500Y-77042500D02*
X128142500Y-77042500D01*
X126062500Y-77802500D02*
X123297500Y-77802500D01*
X130192500Y-79002500D02*
X124012500Y-79002500D01*
X130322500Y-78842500D02*
X123882500Y-78842500D01*
X126062500Y-77522500D02*
X123200500Y-77522500D01*
X126062500Y-78202500D02*
X123475500Y-78202500D01*
X129389500Y-79722500D02*
X124815500Y-79722500D01*
X131182500Y-76361500D02*
X123022500Y-76361500D01*
X126062500Y-78082500D02*
X123416500Y-78082500D01*
X126062500Y-78522500D02*
X123658500Y-78522500D01*
X126062500Y-78322500D02*
X123540500Y-78322500D01*
X130520500Y-78562500D02*
X128142500Y-78562500D01*
X129817500Y-72311802D02*
X129017500Y-72311802D01*
X131112500Y-77082500D02*
X128142500Y-77082500D01*
X128654500Y-80122500D02*
X125550500Y-80122500D01*
X131150500Y-76841500D02*
X128142500Y-76841500D01*
X131154500Y-76801500D02*
X128142500Y-76801500D01*
X130546500Y-78522500D02*
X128142500Y-78522500D01*
X129502500Y-79642500D02*
X124702500Y-79642500D01*
X126062500Y-76681500D02*
X123037500Y-76681500D01*
X129330500Y-79762500D02*
X124874500Y-79762500D01*
X131078500Y-77242500D02*
X128142500Y-77242500D01*
X131179500Y-76481500D02*
X123025500Y-76481500D01*
X131049500Y-77362500D02*
X128142500Y-77362500D01*
X126062500Y-77402500D02*
X123166500Y-77402500D01*
X128448500Y-80202500D02*
X125756500Y-80202500D01*
X126062500Y-77442500D02*
X123177500Y-77442500D01*
X131222500Y-76321500D02*
G75*
G03*
X131222500Y-76321500I-4120000J0D01*
G01*
%TO.C,R1*%
X126207000Y-68135500D02*
X123047000Y-68135500D01*
X128047000Y-68135500D02*
G75*
G03*
X128047000Y-68135500I-920000J0D01*
G01*
%TD*%
M02*
