M48
; DRILL file {KiCad (6.0.7)} date Wed Mar 15 17:40:25 2023
; FORMAT={-:-/ absolute / metric / decimal}
; #@! TF.CreationDate,2023-03-15T17:40:25-04:00
; #@! TF.GenerationSoftware,Kicad,Pcbnew,(6.0.7)
; #@! TF.FileFunction,MixedPlating,1,2
FMAT,2
METRIC
; #@! TA.AperFunction,Plated,PTH,ComponentDrill
T1C0.700
; #@! TA.AperFunction,Plated,PTH,ComponentDrill
T2C0.800
; #@! TA.AperFunction,Plated,PTH,ComponentDrill
T3C0.900
; #@! TA.AperFunction,Plated,PTH,ComponentDrill
T4C1.000
; #@! TA.AperFunction,Plated,PTH,ComponentDrill
T5C1.100
; #@! TA.AperFunction,Plated,PTH,ComponentDrill
T6C1.200
; #@! TA.AperFunction,Plated,PTH,ComponentDrill
T7C3.200
; #@! TA.AperFunction,NonPlated,NPTH,ComponentDrill
T8C2.000
%
G90
G05
T1
X120.536Y-90.995
X122.047Y-68.135
X125.616Y-90.995
X127.127Y-68.135
X128.41Y-90.995
X133.49Y-90.995
T2
X91.44Y-85.775
X91.44Y-88.275
X98.044Y-109.855
X98.044Y-112.355
X125.325Y-99.392
X125.325Y-101.932
X125.325Y-104.472
X127.102Y-75.072
X127.102Y-77.572
X127.444Y-83.997
X127.444Y-86.497
X133.071Y-99.402
X133.071Y-101.942
X133.071Y-104.482
X139.114Y-66.445
X139.114Y-68.986
X139.114Y-71.525
X139.114Y-74.066
X146.734Y-66.445
X146.734Y-68.986
X146.734Y-71.525
X146.734Y-74.066
X161.1Y-104.213
X161.1Y-106.753
X161.1Y-109.293
X169.862Y-103.832
X169.862Y-106.373
X169.862Y-108.912
T3
X91.885Y-105.034
X91.885Y-107.574
X102.084Y-67.134
X102.084Y-69.674
X102.084Y-72.214
X102.084Y-74.754
X102.084Y-77.294
X102.084Y-79.834
X102.084Y-82.374
X102.084Y-84.914
X102.084Y-87.454
X102.084Y-89.994
X102.084Y-92.534
X102.084Y-95.074
X102.084Y-97.614
X102.084Y-100.154
X102.084Y-102.694
X117.323Y-67.134
X117.323Y-69.674
X117.323Y-72.214
X117.323Y-74.754
X117.323Y-77.294
X117.323Y-79.834
X117.323Y-82.374
X117.323Y-84.914
X117.323Y-87.454
X117.323Y-89.994
X117.323Y-92.534
X117.323Y-95.074
X117.323Y-97.614
X117.323Y-100.154
X117.323Y-102.694
X141.986Y-85.153
X141.986Y-87.694
X141.986Y-90.233
X141.986Y-92.773
X141.986Y-95.313
X141.986Y-97.853
X141.986Y-100.393
X141.986Y-102.933
X149.606Y-85.153
X149.606Y-87.694
X149.606Y-90.233
X149.606Y-92.773
X149.606Y-95.313
X149.606Y-97.853
X149.606Y-100.393
X149.606Y-102.933
T4
X88.597Y-61.595
X91.138Y-61.595
X93.677Y-61.595
X107.315Y-110.807
X123.566Y-94.869
X126.106Y-94.869
X130.678Y-94.869
X133.218Y-94.869
X156.342Y-99.504
X158.882Y-99.504
X158.989Y-95.822
X161.529Y-95.822
X164.069Y-95.822
X169.799Y-95.763
X169.799Y-98.303
T5
X91.44Y-69.596
X91.44Y-79.756
X93.182Y-94.932
X93.182Y-97.472
X93.182Y-100.012
X153.924Y-75.084
X156.464Y-75.084
X159.004Y-75.084
T6
X159.131Y-83.01
X159.131Y-90.629
X164.909Y-83.01
X164.909Y-90.629
T7
X87.439Y-53.594
X87.439Y-117.157
X171.005Y-53.594
X171.005Y-117.157
T8
X145.796Y-80.423
X145.796Y-111.163
T4
X159.766Y-63.926G85X159.766Y-61.326
G05
X161.566Y-57.826G85X163.766Y-57.826
G05
X166.066Y-63.726G85X166.066Y-61.526
G05
T0
M30
