%TF.GenerationSoftware,KiCad,Pcbnew,(6.0.7)*%
%TF.CreationDate,2023-03-15T17:40:26-04:00*%
%TF.ProjectId,NPN Tracer V1,4e504e20-5472-4616-9365-722056312e6b,rev?*%
%TF.SameCoordinates,Original*%
%TF.FileFunction,Soldermask,Top*%
%TF.FilePolarity,Negative*%
%FSLAX46Y46*%
G04 Gerber Fmt 4.6, Leading zero omitted, Abs format (unit mm)*
G04 Created by KiCad (PCBNEW (6.0.7)) date 2023-03-15 17:40:26*
%MOMM*%
%LPD*%
G01*
G04 APERTURE LIST*
G04 Aperture macros list*
%AMRoundRect*
0 Rectangle with rounded corners*
0 $1 Rounding radius*
0 $2 $3 $4 $5 $6 $7 $8 $9 X,Y pos of 4 corners*
0 Add a 4 corners polygon primitive as box body*
4,1,4,$2,$3,$4,$5,$6,$7,$8,$9,$2,$3,0*
0 Add four circle primitives for the rounded corners*
1,1,$1+$1,$2,$3*
1,1,$1+$1,$4,$5*
1,1,$1+$1,$6,$7*
1,1,$1+$1,$8,$9*
0 Add four rect primitives between the rounded corners*
20,1,$1+$1,$2,$3,$4,$5,0*
20,1,$1+$1,$4,$5,$6,$7,0*
20,1,$1+$1,$6,$7,$8,$9,0*
20,1,$1+$1,$8,$9,$2,$3,0*%
G04 Aperture macros list end*
%ADD10C,1.800000*%
%ADD11R,1.800000X1.800000*%
%ADD12R,2.000000X4.600000*%
%ADD13O,2.000000X4.200000*%
%ADD14O,4.200000X2.000000*%
%ADD15R,1.700000X1.700000*%
%ADD16O,1.700000X1.700000*%
%ADD17C,5.700000*%
%ADD18C,3.600000*%
%ADD19R,2.200000X2.200000*%
%ADD20O,2.200000X2.200000*%
%ADD21RoundRect,0.250000X0.650000X-0.325000X0.650000X0.325000X-0.650000X0.325000X-0.650000X-0.325000X0*%
%ADD22RoundRect,0.250000X-0.625000X0.400000X-0.625000X-0.400000X0.625000X-0.400000X0.625000X0.400000X0*%
%ADD23RoundRect,0.250000X-0.650000X0.325000X-0.650000X-0.325000X0.650000X-0.325000X0.650000X0.325000X0*%
%ADD24R,1.600000X1.600000*%
%ADD25C,1.600000*%
%ADD26O,1.600000X1.600000*%
%ADD27RoundRect,0.250000X-0.650000X0.412500X-0.650000X-0.412500X0.650000X-0.412500X0.650000X0.412500X0*%
%ADD28RoundRect,0.250000X-0.400000X-0.625000X0.400000X-0.625000X0.400000X0.625000X-0.400000X0.625000X0*%
%ADD29R,1.905000X2.000000*%
%ADD30O,1.905000X2.000000*%
%ADD31R,0.600000X0.450000*%
%ADD32R,0.450000X0.600000*%
%ADD33C,2.400000*%
%ADD34O,2.400000X2.400000*%
%ADD35C,1.400000*%
%ADD36O,1.400000X1.400000*%
%ADD37RoundRect,0.250000X0.625000X-0.400000X0.625000X0.400000X-0.625000X0.400000X-0.625000X-0.400000X0*%
%ADD38C,2.000000*%
%ADD39O,2.816000X1.408000*%
%ADD40C,1.440000*%
%ADD41R,2.000000X1.905000*%
%ADD42O,2.000000X1.905000*%
G04 APERTURE END LIST*
D10*
%TO.C,TB1*%
X102083500Y-102694000D03*
X102083500Y-100154000D03*
X102083500Y-97614000D03*
X102083500Y-95074000D03*
X102083500Y-92534000D03*
X102083500Y-89994000D03*
X102083500Y-87454000D03*
X102083500Y-84914000D03*
X102083500Y-82374000D03*
X102083500Y-79834000D03*
X102083500Y-77294000D03*
X102083500Y-74754000D03*
X102083500Y-72214000D03*
X102083500Y-69674000D03*
X102083500Y-67134000D03*
X117323500Y-67134000D03*
X117323500Y-69674000D03*
X117323500Y-72214000D03*
X117323500Y-74754000D03*
X117323500Y-77294000D03*
X117323500Y-79834000D03*
X117323500Y-82374000D03*
X117323500Y-84914000D03*
X117323500Y-87454000D03*
X117323500Y-89994000D03*
X117323500Y-92534000D03*
X117323500Y-95074000D03*
X117323500Y-97614000D03*
X117323500Y-100154000D03*
D11*
X117323500Y-102694000D03*
%TD*%
D12*
%TO.C,J8*%
X159766000Y-62626000D03*
D13*
X166066000Y-62626000D03*
D14*
X162666000Y-57826000D03*
%TD*%
D15*
%TO.C,J5*%
X88597500Y-61595000D03*
D16*
X91137500Y-61595000D03*
X93677500Y-61595000D03*
%TD*%
D17*
%TO.C,H4*%
X171005500Y-117157500D03*
D18*
X171005500Y-117157500D03*
%TD*%
D17*
%TO.C,H3*%
X171005500Y-53594000D03*
D18*
X171005500Y-53594000D03*
%TD*%
D17*
%TO.C,H2*%
X87439500Y-53594000D03*
D18*
X87439500Y-53594000D03*
%TD*%
D17*
%TO.C,H1*%
X87439500Y-117157500D03*
D18*
X87439500Y-117157500D03*
%TD*%
D19*
%TO.C,D1*%
X91440000Y-79756000D03*
D20*
X91440000Y-69596000D03*
%TD*%
D21*
%TO.C,C7*%
X98552000Y-75516000D03*
X98552000Y-72566000D03*
%TD*%
D22*
%TO.C,R11*%
X109410500Y-70967000D03*
X109410500Y-74067000D03*
%TD*%
D23*
%TO.C,C10*%
X98425000Y-87869500D03*
X98425000Y-90819500D03*
%TD*%
D24*
%TO.C,C2*%
X127444500Y-86496651D03*
D25*
X127444500Y-83996651D03*
%TD*%
D23*
%TO.C,C6*%
X98171000Y-95489500D03*
X98171000Y-98439500D03*
%TD*%
D24*
%TO.C,U1*%
X139114000Y-66445500D03*
D26*
X139114000Y-68985500D03*
X139114000Y-71525500D03*
X139114000Y-74065500D03*
X146734000Y-74065500D03*
X146734000Y-71525500D03*
X146734000Y-68985500D03*
X146734000Y-66445500D03*
%TD*%
D15*
%TO.C,J2*%
X169799000Y-98303000D03*
D16*
X169799000Y-95763000D03*
%TD*%
D15*
%TO.C,J6*%
X123566000Y-94869000D03*
D16*
X126106000Y-94869000D03*
%TD*%
D27*
%TO.C,C3*%
X151130000Y-66573000D03*
X151130000Y-69698000D03*
%TD*%
D28*
%TO.C,R2*%
X131648500Y-71896500D03*
X134748500Y-71896500D03*
%TD*%
D23*
%TO.C,C9*%
X98488500Y-82648000D03*
X98488500Y-85598000D03*
%TD*%
D24*
%TO.C,C4*%
X98044000Y-109855000D03*
D25*
X98044000Y-112355000D03*
%TD*%
D29*
%TO.C,Q1*%
X153924000Y-75084500D03*
D30*
X156464000Y-75084500D03*
X159004000Y-75084500D03*
%TD*%
D31*
%TO.C,D5*%
X129887000Y-109156500D03*
X131987000Y-109156500D03*
%TD*%
D32*
%TO.C,D6*%
X106172000Y-86453000D03*
X106172000Y-88553000D03*
%TD*%
D15*
%TO.C,J1*%
X158882000Y-99504500D03*
D16*
X156342000Y-99504500D03*
%TD*%
D33*
%TO.C,R8*%
X159131000Y-83009500D03*
D34*
X159131000Y-90629500D03*
%TD*%
D32*
%TO.C,D3*%
X106870500Y-76297500D03*
X106870500Y-74197500D03*
%TD*%
D35*
%TO.C,R4*%
X133490500Y-90995500D03*
D36*
X128410500Y-90995500D03*
%TD*%
D15*
%TO.C,J3*%
X130678000Y-94869000D03*
D16*
X133218000Y-94869000D03*
%TD*%
D37*
%TO.C,R7*%
X134532000Y-69001500D03*
X134532000Y-65901500D03*
%TD*%
D23*
%TO.C,C8*%
X98552000Y-77836500D03*
X98552000Y-80786500D03*
%TD*%
D11*
%TO.C,D2*%
X91884500Y-107574000D03*
D10*
X91884500Y-105034000D03*
%TD*%
D15*
%TO.C,J7*%
X107315000Y-110807500D03*
%TD*%
D37*
%TO.C,R10*%
X109410500Y-68288500D03*
X109410500Y-65188500D03*
%TD*%
D38*
%TO.C,ZX1*%
X145796000Y-80423500D03*
X145796000Y-111163500D03*
D39*
X149606000Y-102933500D03*
X149606000Y-100393500D03*
X149606000Y-97853500D03*
X149606000Y-95313500D03*
X149606000Y-92773500D03*
X149606000Y-90233500D03*
X149606000Y-87693500D03*
X149606000Y-85153500D03*
X141986000Y-85153500D03*
X141986000Y-87693500D03*
X141986000Y-90233500D03*
X141986000Y-92773500D03*
X141986000Y-95313500D03*
X141986000Y-97853500D03*
X141986000Y-100393500D03*
X141986000Y-102933500D03*
%TD*%
D40*
%TO.C,ADC1*%
X125324500Y-104472000D03*
X125324500Y-101932000D03*
X125324500Y-99392000D03*
%TD*%
D32*
%TO.C,D4*%
X156400500Y-107476000D03*
X156400500Y-105376000D03*
%TD*%
D40*
%TO.C,ADC3*%
X161099500Y-109293500D03*
X161099500Y-106753500D03*
X161099500Y-104213500D03*
%TD*%
D22*
%TO.C,R6*%
X131420500Y-65901500D03*
X131420500Y-69001500D03*
%TD*%
D15*
%TO.C,J4*%
X164069000Y-95821500D03*
D16*
X161529000Y-95821500D03*
X158989000Y-95821500D03*
%TD*%
D41*
%TO.C,U2*%
X93182000Y-100012500D03*
D42*
X93182000Y-97472500D03*
X93182000Y-94932500D03*
%TD*%
D40*
%TO.C,ADC2*%
X133071500Y-104482000D03*
X133071500Y-101942000D03*
X133071500Y-99402000D03*
%TD*%
D35*
%TO.C,R3*%
X125616500Y-90995500D03*
D36*
X120536500Y-90995500D03*
%TD*%
D37*
%TO.C,R9*%
X91567000Y-113945000D03*
X91567000Y-110845000D03*
%TD*%
D40*
%TO.C,ADC4*%
X169862500Y-108912500D03*
X169862500Y-106372500D03*
X169862500Y-103832500D03*
%TD*%
D24*
%TO.C,C5*%
X91440000Y-88274651D03*
D25*
X91440000Y-85774651D03*
%TD*%
D24*
%TO.C,C1*%
X127102500Y-75071500D03*
D25*
X127102500Y-77571500D03*
%TD*%
D35*
%TO.C,R1*%
X127127000Y-68135500D03*
D36*
X122047000Y-68135500D03*
%TD*%
D33*
%TO.C,R5*%
X164909500Y-83009500D03*
D34*
X164909500Y-90629500D03*
%TD*%
M02*
