%TF.GenerationSoftware,KiCad,Pcbnew,(6.0.7)*%
%TF.CreationDate,2023-03-15T17:40:26-04:00*%
%TF.ProjectId,NPN Tracer V1,4e504e20-5472-4616-9365-722056312e6b,rev?*%
%TF.SameCoordinates,Original*%
%TF.FileFunction,Soldermask,Bot*%
%TF.FilePolarity,Negative*%
%FSLAX46Y46*%
G04 Gerber Fmt 4.6, Leading zero omitted, Abs format (unit mm)*
G04 Created by KiCad (PCBNEW (6.0.7)) date 2023-03-15 17:40:26*
%MOMM*%
%LPD*%
G01*
G04 APERTURE LIST*
%ADD10C,1.800000*%
%ADD11R,1.800000X1.800000*%
%ADD12R,2.000000X4.600000*%
%ADD13O,2.000000X4.200000*%
%ADD14O,4.200000X2.000000*%
%ADD15R,1.700000X1.700000*%
%ADD16O,1.700000X1.700000*%
%ADD17C,5.700000*%
%ADD18C,3.600000*%
%ADD19R,2.200000X2.200000*%
%ADD20O,2.200000X2.200000*%
%ADD21R,1.600000X1.600000*%
%ADD22C,1.600000*%
%ADD23O,1.600000X1.600000*%
%ADD24R,1.905000X2.000000*%
%ADD25O,1.905000X2.000000*%
%ADD26C,2.400000*%
%ADD27O,2.400000X2.400000*%
%ADD28C,1.400000*%
%ADD29O,1.400000X1.400000*%
%ADD30C,2.000000*%
%ADD31O,2.816000X1.408000*%
%ADD32C,1.440000*%
%ADD33R,2.000000X1.905000*%
%ADD34O,2.000000X1.905000*%
G04 APERTURE END LIST*
D10*
%TO.C,TB1*%
X102083500Y-102694000D03*
X102083500Y-100154000D03*
X102083500Y-97614000D03*
X102083500Y-95074000D03*
X102083500Y-92534000D03*
X102083500Y-89994000D03*
X102083500Y-87454000D03*
X102083500Y-84914000D03*
X102083500Y-82374000D03*
X102083500Y-79834000D03*
X102083500Y-77294000D03*
X102083500Y-74754000D03*
X102083500Y-72214000D03*
X102083500Y-69674000D03*
X102083500Y-67134000D03*
X117323500Y-67134000D03*
X117323500Y-69674000D03*
X117323500Y-72214000D03*
X117323500Y-74754000D03*
X117323500Y-77294000D03*
X117323500Y-79834000D03*
X117323500Y-82374000D03*
X117323500Y-84914000D03*
X117323500Y-87454000D03*
X117323500Y-89994000D03*
X117323500Y-92534000D03*
X117323500Y-95074000D03*
X117323500Y-97614000D03*
X117323500Y-100154000D03*
D11*
X117323500Y-102694000D03*
%TD*%
D12*
%TO.C,J8*%
X159766000Y-62626000D03*
D13*
X166066000Y-62626000D03*
D14*
X162666000Y-57826000D03*
%TD*%
D15*
%TO.C,J5*%
X88597500Y-61595000D03*
D16*
X91137500Y-61595000D03*
X93677500Y-61595000D03*
%TD*%
D17*
%TO.C,H4*%
X171005500Y-117157500D03*
D18*
X171005500Y-117157500D03*
%TD*%
D17*
%TO.C,H3*%
X171005500Y-53594000D03*
D18*
X171005500Y-53594000D03*
%TD*%
D17*
%TO.C,H2*%
X87439500Y-53594000D03*
D18*
X87439500Y-53594000D03*
%TD*%
D17*
%TO.C,H1*%
X87439500Y-117157500D03*
D18*
X87439500Y-117157500D03*
%TD*%
D19*
%TO.C,D1*%
X91440000Y-79756000D03*
D20*
X91440000Y-69596000D03*
%TD*%
D21*
%TO.C,C2*%
X127444500Y-86496651D03*
D22*
X127444500Y-83996651D03*
%TD*%
D21*
%TO.C,U1*%
X139114000Y-66445500D03*
D23*
X139114000Y-68985500D03*
X139114000Y-71525500D03*
X139114000Y-74065500D03*
X146734000Y-74065500D03*
X146734000Y-71525500D03*
X146734000Y-68985500D03*
X146734000Y-66445500D03*
%TD*%
D15*
%TO.C,J2*%
X169799000Y-98303000D03*
D16*
X169799000Y-95763000D03*
%TD*%
D15*
%TO.C,J6*%
X123566000Y-94869000D03*
D16*
X126106000Y-94869000D03*
%TD*%
D21*
%TO.C,C4*%
X98044000Y-109855000D03*
D22*
X98044000Y-112355000D03*
%TD*%
D24*
%TO.C,Q1*%
X153924000Y-75084500D03*
D25*
X156464000Y-75084500D03*
X159004000Y-75084500D03*
%TD*%
D15*
%TO.C,J1*%
X158882000Y-99504500D03*
D16*
X156342000Y-99504500D03*
%TD*%
D26*
%TO.C,R8*%
X159131000Y-83009500D03*
D27*
X159131000Y-90629500D03*
%TD*%
D28*
%TO.C,R4*%
X133490500Y-90995500D03*
D29*
X128410500Y-90995500D03*
%TD*%
D15*
%TO.C,J3*%
X130678000Y-94869000D03*
D16*
X133218000Y-94869000D03*
%TD*%
D11*
%TO.C,D2*%
X91884500Y-107574000D03*
D10*
X91884500Y-105034000D03*
%TD*%
D15*
%TO.C,J7*%
X107315000Y-110807500D03*
%TD*%
D30*
%TO.C,ZX1*%
X145796000Y-80423500D03*
X145796000Y-111163500D03*
D31*
X149606000Y-102933500D03*
X149606000Y-100393500D03*
X149606000Y-97853500D03*
X149606000Y-95313500D03*
X149606000Y-92773500D03*
X149606000Y-90233500D03*
X149606000Y-87693500D03*
X149606000Y-85153500D03*
X141986000Y-85153500D03*
X141986000Y-87693500D03*
X141986000Y-90233500D03*
X141986000Y-92773500D03*
X141986000Y-95313500D03*
X141986000Y-97853500D03*
X141986000Y-100393500D03*
X141986000Y-102933500D03*
%TD*%
D32*
%TO.C,ADC1*%
X125324500Y-104472000D03*
X125324500Y-101932000D03*
X125324500Y-99392000D03*
%TD*%
%TO.C,ADC3*%
X161099500Y-109293500D03*
X161099500Y-106753500D03*
X161099500Y-104213500D03*
%TD*%
D15*
%TO.C,J4*%
X164069000Y-95821500D03*
D16*
X161529000Y-95821500D03*
X158989000Y-95821500D03*
%TD*%
D33*
%TO.C,U2*%
X93182000Y-100012500D03*
D34*
X93182000Y-97472500D03*
X93182000Y-94932500D03*
%TD*%
D32*
%TO.C,ADC2*%
X133071500Y-104482000D03*
X133071500Y-101942000D03*
X133071500Y-99402000D03*
%TD*%
D28*
%TO.C,R3*%
X125616500Y-90995500D03*
D29*
X120536500Y-90995500D03*
%TD*%
D32*
%TO.C,ADC4*%
X169862500Y-108912500D03*
X169862500Y-106372500D03*
X169862500Y-103832500D03*
%TD*%
D21*
%TO.C,C5*%
X91440000Y-88274651D03*
D22*
X91440000Y-85774651D03*
%TD*%
D21*
%TO.C,C1*%
X127102500Y-75071500D03*
D22*
X127102500Y-77571500D03*
%TD*%
D28*
%TO.C,R1*%
X127127000Y-68135500D03*
D29*
X122047000Y-68135500D03*
%TD*%
D26*
%TO.C,R5*%
X164909500Y-83009500D03*
D27*
X164909500Y-90629500D03*
%TD*%
M02*
