%TF.GenerationSoftware,KiCad,Pcbnew,(6.0.7)*%
%TF.CreationDate,2023-04-23T16:52:27-04:00*%
%TF.ProjectId,NPN Tracer V2b-jlcpcb,4e504e20-5472-4616-9365-72205632622d,rev?*%
%TF.SameCoordinates,Original*%
%TF.FileFunction,Soldermask,Top*%
%TF.FilePolarity,Negative*%
%FSLAX46Y46*%
G04 Gerber Fmt 4.6, Leading zero omitted, Abs format (unit mm)*
G04 Created by KiCad (PCBNEW (6.0.7)) date 2023-04-23 16:52:27*
%MOMM*%
%LPD*%
G01*
G04 APERTURE LIST*
G04 Aperture macros list*
%AMRoundRect*
0 Rectangle with rounded corners*
0 $1 Rounding radius*
0 $2 $3 $4 $5 $6 $7 $8 $9 X,Y pos of 4 corners*
0 Add a 4 corners polygon primitive as box body*
4,1,4,$2,$3,$4,$5,$6,$7,$8,$9,$2,$3,0*
0 Add four circle primitives for the rounded corners*
1,1,$1+$1,$2,$3*
1,1,$1+$1,$4,$5*
1,1,$1+$1,$6,$7*
1,1,$1+$1,$8,$9*
0 Add four rect primitives between the rounded corners*
20,1,$1+$1,$2,$3,$4,$5,0*
20,1,$1+$1,$4,$5,$6,$7,0*
20,1,$1+$1,$6,$7,$8,$9,0*
20,1,$1+$1,$8,$9,$2,$3,0*%
G04 Aperture macros list end*
%ADD10C,1.800000*%
%ADD11R,1.800000X1.800000*%
%ADD12RoundRect,0.150000X-0.825000X-0.150000X0.825000X-0.150000X0.825000X0.150000X-0.825000X0.150000X0*%
%ADD13RoundRect,0.250000X0.325000X0.650000X-0.325000X0.650000X-0.325000X-0.650000X0.325000X-0.650000X0*%
%ADD14RoundRect,0.250000X0.625000X-0.312500X0.625000X0.312500X-0.625000X0.312500X-0.625000X-0.312500X0*%
%ADD15R,1.300000X1.700000*%
%ADD16R,2.000000X4.600000*%
%ADD17O,2.000000X4.200000*%
%ADD18O,4.200000X2.000000*%
%ADD19R,2.200000X2.200000*%
%ADD20O,2.200000X2.200000*%
%ADD21R,1.700000X1.700000*%
%ADD22O,1.700000X1.700000*%
%ADD23C,1.440000*%
%ADD24RoundRect,0.250000X0.312500X0.625000X-0.312500X0.625000X-0.312500X-0.625000X0.312500X-0.625000X0*%
%ADD25C,2.000000*%
%ADD26O,1.408000X2.816000*%
%ADD27RoundRect,0.250000X-0.625000X0.312500X-0.625000X-0.312500X0.625000X-0.312500X0.625000X0.312500X0*%
%ADD28R,2.000000X1.905000*%
%ADD29O,2.000000X1.905000*%
%ADD30C,5.700000*%
%ADD31C,3.600000*%
%ADD32R,1.500000X1.500000*%
%ADD33C,1.500000*%
%ADD34RoundRect,0.250000X-0.312500X-0.625000X0.312500X-0.625000X0.312500X0.625000X-0.312500X0.625000X0*%
%ADD35R,1.600000X1.600000*%
%ADD36C,1.600000*%
%ADD37RoundRect,0.250000X-0.650000X0.325000X-0.650000X-0.325000X0.650000X-0.325000X0.650000X0.325000X0*%
%ADD38O,1.600000X1.600000*%
%ADD39C,2.400000*%
%ADD40O,2.400000X2.400000*%
G04 APERTURE END LIST*
D10*
%TO.C,TB1*%
X81802500Y-107950000D03*
X81802500Y-105410000D03*
X81802500Y-102870000D03*
X81802500Y-100330000D03*
X81802500Y-97790000D03*
X81802500Y-95250000D03*
X81802500Y-92710000D03*
X81802500Y-90170000D03*
X81802500Y-87630000D03*
X81802500Y-85090000D03*
X81802500Y-82550000D03*
X81802500Y-80010000D03*
X81802500Y-77470000D03*
X81802500Y-74930000D03*
X81802500Y-72390000D03*
X97042500Y-72390000D03*
X97042500Y-74930000D03*
X97042500Y-77470000D03*
X97042500Y-80010000D03*
X97042500Y-82550000D03*
X97042500Y-85090000D03*
X97042500Y-87630000D03*
X97042500Y-90170000D03*
X97042500Y-92710000D03*
X97042500Y-95250000D03*
X97042500Y-97790000D03*
X97042500Y-100330000D03*
X97042500Y-102870000D03*
X97042500Y-105410000D03*
D11*
X97042500Y-107950000D03*
%TD*%
D12*
%TO.C,U2*%
X103697000Y-76200000D03*
X103697000Y-77470000D03*
X103697000Y-78740000D03*
X103697000Y-80010000D03*
X108647000Y-80010000D03*
X108647000Y-78740000D03*
X108647000Y-77470000D03*
X108647000Y-76200000D03*
%TD*%
%TO.C,U4*%
X64454000Y-75438000D03*
X64454000Y-76708000D03*
X64454000Y-77978000D03*
X64454000Y-79248000D03*
X69404000Y-79248000D03*
X69404000Y-77978000D03*
X69404000Y-76708000D03*
X69404000Y-75438000D03*
%TD*%
D13*
%TO.C,C15*%
X66499000Y-109220000D03*
X63549000Y-109220000D03*
%TD*%
D14*
%TO.C,R14*%
X77343000Y-115066000D03*
X77343000Y-112141000D03*
%TD*%
D15*
%TO.C,D3*%
X69433500Y-67754500D03*
X72933500Y-67754500D03*
%TD*%
D16*
%TO.C,J8*%
X65341500Y-117206000D03*
D17*
X59041500Y-117206000D03*
D18*
X62441500Y-122006000D03*
%TD*%
D11*
%TO.C,D2*%
X73982500Y-113538000D03*
D10*
X71442500Y-113538000D03*
%TD*%
D19*
%TO.C,D1*%
X66167000Y-91440000D03*
D20*
X56007000Y-91440000D03*
%TD*%
D21*
%TO.C,J6*%
X97282000Y-126746000D03*
D22*
X99822000Y-126746000D03*
%TD*%
D15*
%TO.C,D4*%
X63655000Y-67818000D03*
X67155000Y-67818000D03*
%TD*%
D23*
%TO.C,ADC1*%
X132588000Y-113548000D03*
X132588000Y-111008000D03*
X132588000Y-108468000D03*
%TD*%
D24*
%TO.C,R16*%
X79123000Y-99123500D03*
X76198000Y-99123500D03*
%TD*%
D23*
%TO.C,ADC4*%
X91122500Y-122438000D03*
X91122500Y-119898000D03*
X91122500Y-117358000D03*
%TD*%
%TO.C,ADC3*%
X88646000Y-133233000D03*
X88646000Y-130693000D03*
X88646000Y-128153000D03*
%TD*%
D21*
%TO.C,J2*%
X126746000Y-122809000D03*
D22*
X126746000Y-120269000D03*
%TD*%
D21*
%TO.C,J7*%
X61834000Y-86995000D03*
D22*
X59294000Y-86995000D03*
X56754000Y-86995000D03*
%TD*%
D25*
%TO.C,ZX1*%
X127920000Y-139192000D03*
X97180000Y-139192000D03*
D26*
X105410000Y-143002000D03*
X107950000Y-143002000D03*
X110490000Y-143002000D03*
X113030000Y-143002000D03*
X115570000Y-143002000D03*
X118110000Y-143002000D03*
X120650000Y-143002000D03*
X123190000Y-143002000D03*
X123190000Y-135382000D03*
X120650000Y-135382000D03*
X118110000Y-135382000D03*
X115570000Y-135382000D03*
X113030000Y-135382000D03*
X110490000Y-135382000D03*
X107950000Y-135382000D03*
X105410000Y-135382000D03*
%TD*%
D14*
%TO.C,R13*%
X104838500Y-117350000D03*
X104838500Y-114425000D03*
%TD*%
D21*
%TO.C,J9*%
X102298500Y-85979000D03*
D22*
X104838500Y-85979000D03*
%TD*%
D11*
%TO.C,D6*%
X74046000Y-120078500D03*
D10*
X71506000Y-120078500D03*
%TD*%
D21*
%TO.C,J5*%
X100398500Y-116459000D03*
D22*
X97858500Y-116459000D03*
%TD*%
D14*
%TO.C,R12*%
X107950000Y-117286500D03*
X107950000Y-114361500D03*
%TD*%
D23*
%TO.C,ADC2*%
X132524500Y-125740000D03*
X132524500Y-123200000D03*
X132524500Y-120660000D03*
%TD*%
D27*
%TO.C,R17*%
X77343000Y-118423500D03*
X77343000Y-121348500D03*
%TD*%
D21*
%TO.C,J4*%
X103901000Y-121539000D03*
D22*
X106441000Y-121539000D03*
X108981000Y-121539000D03*
%TD*%
D28*
%TO.C,U3*%
X64960500Y-98869500D03*
D29*
X64960500Y-101409500D03*
X64960500Y-103949500D03*
%TD*%
D21*
%TO.C,J3*%
X126682500Y-110299500D03*
D22*
X126682500Y-107759500D03*
%TD*%
D15*
%TO.C,D5*%
X79029500Y-105537000D03*
X75529500Y-105537000D03*
%TD*%
D21*
%TO.C,J1*%
X114808000Y-118491000D03*
D22*
X117348000Y-118491000D03*
X119888000Y-118491000D03*
%TD*%
D24*
%TO.C,R15*%
X79123000Y-96393000D03*
X76198000Y-96393000D03*
%TD*%
D13*
%TO.C,C13*%
X79135500Y-84709000D03*
X76185500Y-84709000D03*
%TD*%
D30*
%TO.C,H2*%
X136334500Y-148272500D03*
D31*
X136334500Y-148272500D03*
%TD*%
D13*
%TO.C,C12*%
X79072000Y-93789500D03*
X76122000Y-93789500D03*
%TD*%
D32*
%TO.C,Q1*%
X101092000Y-104902000D03*
D33*
X103632000Y-104902000D03*
X106172000Y-104902000D03*
%TD*%
D30*
%TO.C,H2*%
X54229000Y-148272500D03*
D31*
X54229000Y-148272500D03*
%TD*%
D14*
%TO.C,R3*%
X105297500Y-94047500D03*
X105297500Y-91122500D03*
%TD*%
%TO.C,R9*%
X127889000Y-103570500D03*
X127889000Y-100645500D03*
%TD*%
D34*
%TO.C,R1*%
X111631000Y-79438500D03*
X114556000Y-79438500D03*
%TD*%
D13*
%TO.C,C10*%
X79135500Y-90741500D03*
X76185500Y-90741500D03*
%TD*%
D35*
%TO.C,C4*%
X58493151Y-98933000D03*
D36*
X55993151Y-98933000D03*
%TD*%
D31*
%TO.C,H2*%
X54292500Y-63246000D03*
D30*
X54292500Y-63246000D03*
%TD*%
%TO.C,H2*%
X136334500Y-63246000D03*
D31*
X136334500Y-63246000D03*
%TD*%
D14*
%TO.C,R2*%
X105361000Y-98871500D03*
X105361000Y-95946500D03*
%TD*%
D13*
%TO.C,C11*%
X79135500Y-87630000D03*
X76185500Y-87630000D03*
%TD*%
D35*
%TO.C,C8*%
X58166000Y-70969500D03*
D36*
X58166000Y-68469500D03*
%TD*%
D37*
%TO.C,C2*%
X105918000Y-69200500D03*
X105918000Y-72150500D03*
%TD*%
D35*
%TO.C,U1*%
X109093000Y-91186000D03*
D38*
X109093000Y-93726000D03*
X109093000Y-96266000D03*
X109093000Y-98806000D03*
X116713000Y-98806000D03*
X116713000Y-96266000D03*
X116713000Y-93726000D03*
X116713000Y-91186000D03*
%TD*%
D35*
%TO.C,C7*%
X58547000Y-77470000D03*
D36*
X58547000Y-79970000D03*
%TD*%
D13*
%TO.C,C14*%
X79135500Y-81724500D03*
X76185500Y-81724500D03*
%TD*%
D37*
%TO.C,C3*%
X103378000Y-69200500D03*
X103378000Y-72150500D03*
%TD*%
%TO.C,C6*%
X72072500Y-72312000D03*
X72072500Y-75262000D03*
%TD*%
D14*
%TO.C,R11*%
X120142000Y-95379000D03*
X120142000Y-92454000D03*
%TD*%
D13*
%TO.C,C9*%
X79072000Y-102298500D03*
X76122000Y-102298500D03*
%TD*%
D14*
%TO.C,R7*%
X100774500Y-72138000D03*
X100774500Y-69213000D03*
%TD*%
D39*
%TO.C,R5*%
X115062000Y-105981500D03*
D40*
X115062000Y-113601500D03*
%TD*%
%TO.C,R6*%
X119824500Y-113601500D03*
D39*
X119824500Y-105981500D03*
%TD*%
D24*
%TO.C,R4*%
X104269000Y-109156500D03*
X101344000Y-109156500D03*
%TD*%
D13*
%TO.C,C1*%
X117680000Y-87947500D03*
X114730000Y-87947500D03*
%TD*%
D14*
%TO.C,R10*%
X120205500Y-100649500D03*
X120205500Y-97724500D03*
%TD*%
D35*
%TO.C,C5*%
X58239151Y-107569000D03*
D36*
X55739151Y-107569000D03*
%TD*%
D34*
%TO.C,R8*%
X111567500Y-75374500D03*
X114492500Y-75374500D03*
%TD*%
M02*
