%TF.GenerationSoftware,KiCad,Pcbnew,(6.0.7)*%
%TF.CreationDate,2023-04-23T16:52:27-04:00*%
%TF.ProjectId,NPN Tracer V2b-jlcpcb,4e504e20-5472-4616-9365-72205632622d,rev?*%
%TF.SameCoordinates,Original*%
%TF.FileFunction,Legend,Top*%
%TF.FilePolarity,Positive*%
%FSLAX46Y46*%
G04 Gerber Fmt 4.6, Leading zero omitted, Abs format (unit mm)*
G04 Created by KiCad (PCBNEW (6.0.7)) date 2023-04-23 16:52:27*
%MOMM*%
%LPD*%
G01*
G04 APERTURE LIST*
%ADD10C,0.200000*%
%ADD11C,0.250000*%
%ADD12C,0.120000*%
%ADD13C,0.100000*%
%ADD14C,0.150000*%
%ADD15C,0.127000*%
%ADD16C,0.101600*%
%ADD17C,0.203200*%
G04 APERTURE END LIST*
D10*
X128460547Y-112466428D02*
X129222452Y-112466428D01*
X128841500Y-112847380D02*
X128841500Y-112085476D01*
X106426047Y-88082428D02*
X107187952Y-88082428D01*
X106807000Y-88463380D02*
X106807000Y-87701476D01*
X58801047Y-84653428D02*
X59562952Y-84653428D01*
X59182000Y-85034380D02*
X59182000Y-84272476D01*
X95313547Y-114371428D02*
X96075452Y-114371428D01*
X95694500Y-114752380D02*
X95694500Y-113990476D01*
X128397047Y-118117928D02*
X129158952Y-118117928D01*
X128778000Y-118498880D02*
X128778000Y-117736976D01*
X94869047Y-124658428D02*
X95630952Y-124658428D01*
X95250000Y-125039380D02*
X95250000Y-124277476D01*
D11*
X128732083Y-61840833D02*
X128732083Y-62840833D01*
X126982083Y-62340833D02*
X128732083Y-62340833D01*
X126982083Y-63424166D02*
X128148750Y-63424166D01*
X127815416Y-63424166D02*
X127982083Y-63507499D01*
X128065416Y-63590833D01*
X128148750Y-63757499D01*
X128148750Y-63924166D01*
X126982083Y-65257499D02*
X127898750Y-65257499D01*
X128065416Y-65174166D01*
X128148750Y-65007499D01*
X128148750Y-64674166D01*
X128065416Y-64507499D01*
X127065416Y-65257499D02*
X126982083Y-65090833D01*
X126982083Y-64674166D01*
X127065416Y-64507499D01*
X127232083Y-64424166D01*
X127398750Y-64424166D01*
X127565416Y-64507499D01*
X127648750Y-64674166D01*
X127648750Y-65090833D01*
X127732083Y-65257499D01*
X128148750Y-66090833D02*
X126982083Y-66090833D01*
X127982083Y-66090833D02*
X128065416Y-66174166D01*
X128148750Y-66340833D01*
X128148750Y-66590833D01*
X128065416Y-66757499D01*
X127898750Y-66840833D01*
X126982083Y-66840833D01*
X127065416Y-67590833D02*
X126982083Y-67757499D01*
X126982083Y-68090833D01*
X127065416Y-68257499D01*
X127232083Y-68340833D01*
X127315416Y-68340833D01*
X127482083Y-68257499D01*
X127565416Y-68090833D01*
X127565416Y-67840833D01*
X127648750Y-67674166D01*
X127815416Y-67590833D01*
X127898750Y-67590833D01*
X128065416Y-67674166D01*
X128148750Y-67840833D01*
X128148750Y-68090833D01*
X128065416Y-68257499D01*
X126982083Y-69090833D02*
X128148750Y-69090833D01*
X128732083Y-69090833D02*
X128648750Y-69007499D01*
X128565416Y-69090833D01*
X128648750Y-69174166D01*
X128732083Y-69090833D01*
X128565416Y-69090833D01*
X127065416Y-69840833D02*
X126982083Y-70007499D01*
X126982083Y-70340833D01*
X127065416Y-70507499D01*
X127232083Y-70590833D01*
X127315416Y-70590833D01*
X127482083Y-70507499D01*
X127565416Y-70340833D01*
X127565416Y-70090833D01*
X127648750Y-69924166D01*
X127815416Y-69840833D01*
X127898750Y-69840833D01*
X128065416Y-69924166D01*
X128148750Y-70090833D01*
X128148750Y-70340833D01*
X128065416Y-70507499D01*
X128148750Y-71090833D02*
X128148750Y-71757499D01*
X128732083Y-71340833D02*
X127232083Y-71340833D01*
X127065416Y-71424166D01*
X126982083Y-71590833D01*
X126982083Y-71757499D01*
X126982083Y-72590833D02*
X127065416Y-72424166D01*
X127148750Y-72340833D01*
X127315416Y-72257499D01*
X127815416Y-72257499D01*
X127982083Y-72340833D01*
X128065416Y-72424166D01*
X128148750Y-72590833D01*
X128148750Y-72840833D01*
X128065416Y-73007499D01*
X127982083Y-73090833D01*
X127815416Y-73174166D01*
X127315416Y-73174166D01*
X127148750Y-73090833D01*
X127065416Y-73007499D01*
X126982083Y-72840833D01*
X126982083Y-72590833D01*
X126982083Y-73924166D02*
X128148750Y-73924166D01*
X127815416Y-73924166D02*
X127982083Y-74007499D01*
X128065416Y-74090833D01*
X128148750Y-74257499D01*
X128148750Y-74424166D01*
X128732083Y-76090833D02*
X128732083Y-77090833D01*
X126982083Y-76590833D02*
X128732083Y-76590833D01*
X126982083Y-77674166D02*
X128148750Y-77674166D01*
X127815416Y-77674166D02*
X127982083Y-77757500D01*
X128065416Y-77840833D01*
X128148750Y-78007500D01*
X128148750Y-78174166D01*
X126982083Y-79507500D02*
X127898750Y-79507500D01*
X128065416Y-79424166D01*
X128148750Y-79257500D01*
X128148750Y-78924166D01*
X128065416Y-78757500D01*
X127065416Y-79507500D02*
X126982083Y-79340833D01*
X126982083Y-78924166D01*
X127065416Y-78757500D01*
X127232083Y-78674166D01*
X127398750Y-78674166D01*
X127565416Y-78757500D01*
X127648750Y-78924166D01*
X127648750Y-79340833D01*
X127732083Y-79507500D01*
X127065416Y-81090833D02*
X126982083Y-80924166D01*
X126982083Y-80590833D01*
X127065416Y-80424166D01*
X127148750Y-80340833D01*
X127315416Y-80257500D01*
X127815416Y-80257500D01*
X127982083Y-80340833D01*
X128065416Y-80424166D01*
X128148750Y-80590833D01*
X128148750Y-80924166D01*
X128065416Y-81090833D01*
X127065416Y-82507500D02*
X126982083Y-82340833D01*
X126982083Y-82007500D01*
X127065416Y-81840833D01*
X127232083Y-81757500D01*
X127898750Y-81757500D01*
X128065416Y-81840833D01*
X128148750Y-82007500D01*
X128148750Y-82340833D01*
X128065416Y-82507500D01*
X127898750Y-82590833D01*
X127732083Y-82590833D01*
X127565416Y-81757500D01*
X126982083Y-83340833D02*
X128148750Y-83340833D01*
X127815416Y-83340833D02*
X127982083Y-83424166D01*
X128065416Y-83507500D01*
X128148750Y-83674166D01*
X128148750Y-83840833D01*
X128732083Y-85507500D02*
X126982083Y-86090833D01*
X128732083Y-86674166D01*
X128565416Y-87174166D02*
X128648750Y-87257500D01*
X128732083Y-87424166D01*
X128732083Y-87840833D01*
X128648750Y-88007500D01*
X128565416Y-88090833D01*
X128398750Y-88174166D01*
X128232083Y-88174166D01*
X127982083Y-88090833D01*
X126982083Y-87090833D01*
X126982083Y-88174166D01*
X126982083Y-88924166D02*
X128732083Y-88924166D01*
X128065416Y-88924166D02*
X128148750Y-89090833D01*
X128148750Y-89424166D01*
X128065416Y-89590833D01*
X127982083Y-89674166D01*
X127815416Y-89757500D01*
X127315416Y-89757500D01*
X127148750Y-89674166D01*
X127065416Y-89590833D01*
X126982083Y-89424166D01*
X126982083Y-89090833D01*
X127065416Y-88924166D01*
X125914583Y-64674166D02*
X124164583Y-65257500D01*
X125914583Y-65840833D01*
X125081250Y-66424166D02*
X125081250Y-67007500D01*
X124164583Y-67257500D02*
X124164583Y-66424166D01*
X125914583Y-66424166D01*
X125914583Y-67257500D01*
X125914583Y-67840833D02*
X125914583Y-68924166D01*
X125247916Y-68340833D01*
X125247916Y-68590833D01*
X125164583Y-68757500D01*
X125081250Y-68840833D01*
X124914583Y-68924166D01*
X124497916Y-68924166D01*
X124331250Y-68840833D01*
X124247916Y-68757500D01*
X124164583Y-68590833D01*
X124164583Y-68090833D01*
X124247916Y-67924166D01*
X124331250Y-67840833D01*
X125914583Y-70007500D02*
X125914583Y-70340833D01*
X125831250Y-70507500D01*
X125664583Y-70674166D01*
X125331250Y-70757500D01*
X124747916Y-70757500D01*
X124414583Y-70674166D01*
X124247916Y-70507500D01*
X124164583Y-70340833D01*
X124164583Y-70007500D01*
X124247916Y-69840833D01*
X124414583Y-69674166D01*
X124747916Y-69590833D01*
X125331250Y-69590833D01*
X125664583Y-69674166D01*
X125831250Y-69840833D01*
X125914583Y-70007500D01*
X125914583Y-71840833D02*
X125914583Y-72174166D01*
X125831250Y-72340833D01*
X125664583Y-72507500D01*
X125331250Y-72590833D01*
X124747916Y-72590833D01*
X124414583Y-72507500D01*
X124247916Y-72340833D01*
X124164583Y-72174166D01*
X124164583Y-71840833D01*
X124247916Y-71674166D01*
X124414583Y-71507500D01*
X124747916Y-71424166D01*
X125331250Y-71424166D01*
X125664583Y-71507500D01*
X125831250Y-71674166D01*
X125914583Y-71840833D01*
X124164583Y-73340833D02*
X125914583Y-73340833D01*
X124664583Y-75424166D02*
X124664583Y-76257500D01*
X124164583Y-75257500D02*
X125914583Y-75840833D01*
X124164583Y-76424166D01*
X125331250Y-77007500D02*
X123581250Y-77007500D01*
X125247916Y-77007500D02*
X125331250Y-77174166D01*
X125331250Y-77507500D01*
X125247916Y-77674166D01*
X125164583Y-77757500D01*
X124997916Y-77840833D01*
X124497916Y-77840833D01*
X124331250Y-77757500D01*
X124247916Y-77674166D01*
X124164583Y-77507500D01*
X124164583Y-77174166D01*
X124247916Y-77007500D01*
X124164583Y-78590833D02*
X125331250Y-78590833D01*
X124997916Y-78590833D02*
X125164583Y-78674166D01*
X125247916Y-78757500D01*
X125331250Y-78924166D01*
X125331250Y-79090833D01*
X125747916Y-80924166D02*
X125831250Y-81007500D01*
X125914583Y-81174166D01*
X125914583Y-81590833D01*
X125831250Y-81757500D01*
X125747916Y-81840833D01*
X125581250Y-81924166D01*
X125414583Y-81924166D01*
X125164583Y-81840833D01*
X124164583Y-80840833D01*
X124164583Y-81924166D01*
X125914583Y-83007500D02*
X125914583Y-83174166D01*
X125831250Y-83340833D01*
X125747916Y-83424166D01*
X125581250Y-83507500D01*
X125247916Y-83590833D01*
X124831250Y-83590833D01*
X124497916Y-83507500D01*
X124331250Y-83424166D01*
X124247916Y-83340833D01*
X124164583Y-83174166D01*
X124164583Y-83007500D01*
X124247916Y-82840833D01*
X124331250Y-82757500D01*
X124497916Y-82674166D01*
X124831250Y-82590833D01*
X125247916Y-82590833D01*
X125581250Y-82674166D01*
X125747916Y-82757500D01*
X125831250Y-82840833D01*
X125914583Y-83007500D01*
X125747916Y-84257500D02*
X125831250Y-84340833D01*
X125914583Y-84507500D01*
X125914583Y-84924166D01*
X125831250Y-85090833D01*
X125747916Y-85174166D01*
X125581250Y-85257500D01*
X125414583Y-85257500D01*
X125164583Y-85174166D01*
X124164583Y-84174166D01*
X124164583Y-85257500D01*
X125914583Y-85840833D02*
X125914583Y-86924166D01*
X125247916Y-86340833D01*
X125247916Y-86590833D01*
X125164583Y-86757500D01*
X125081250Y-86840833D01*
X124914583Y-86924166D01*
X124497916Y-86924166D01*
X124331250Y-86840833D01*
X124247916Y-86757500D01*
X124164583Y-86590833D01*
X124164583Y-86090833D01*
X124247916Y-85924166D01*
X124331250Y-85840833D01*
D12*
%TO.C,TB1*%
X80428857Y-67839785D02*
X80428857Y-67089785D01*
X80857428Y-67839785D01*
X80857428Y-67089785D01*
X81536000Y-67839785D02*
X81536000Y-67446928D01*
X81500285Y-67375500D01*
X81428857Y-67339785D01*
X81286000Y-67339785D01*
X81214571Y-67375500D01*
X81536000Y-67804071D02*
X81464571Y-67839785D01*
X81286000Y-67839785D01*
X81214571Y-67804071D01*
X81178857Y-67732642D01*
X81178857Y-67661214D01*
X81214571Y-67589785D01*
X81286000Y-67554071D01*
X81464571Y-67554071D01*
X81536000Y-67518357D01*
X81893142Y-67339785D02*
X81893142Y-67839785D01*
X81893142Y-67411214D02*
X81928857Y-67375500D01*
X82000285Y-67339785D01*
X82107428Y-67339785D01*
X82178857Y-67375500D01*
X82214571Y-67446928D01*
X82214571Y-67839785D01*
X82678857Y-67839785D02*
X82607428Y-67804071D01*
X82571714Y-67768357D01*
X82536000Y-67696928D01*
X82536000Y-67482642D01*
X82571714Y-67411214D01*
X82607428Y-67375500D01*
X82678857Y-67339785D01*
X82786000Y-67339785D01*
X82857428Y-67375500D01*
X82893142Y-67411214D01*
X82928857Y-67482642D01*
X82928857Y-67696928D01*
X82893142Y-67768357D01*
X82857428Y-67804071D01*
X82786000Y-67839785D01*
X82678857Y-67839785D01*
D13*
X88791547Y-67290190D02*
X88791547Y-67694952D01*
X88815357Y-67742571D01*
X88839166Y-67766380D01*
X88886785Y-67790190D01*
X88982023Y-67790190D01*
X89029642Y-67766380D01*
X89053452Y-67742571D01*
X89077261Y-67694952D01*
X89077261Y-67290190D01*
X89291547Y-67766380D02*
X89362976Y-67790190D01*
X89482023Y-67790190D01*
X89529642Y-67766380D01*
X89553452Y-67742571D01*
X89577261Y-67694952D01*
X89577261Y-67647333D01*
X89553452Y-67599714D01*
X89529642Y-67575904D01*
X89482023Y-67552095D01*
X89386785Y-67528285D01*
X89339166Y-67504476D01*
X89315357Y-67480666D01*
X89291547Y-67433047D01*
X89291547Y-67385428D01*
X89315357Y-67337809D01*
X89339166Y-67314000D01*
X89386785Y-67290190D01*
X89505833Y-67290190D01*
X89577261Y-67314000D01*
X89958214Y-67528285D02*
X90029642Y-67552095D01*
X90053452Y-67575904D01*
X90077261Y-67623523D01*
X90077261Y-67694952D01*
X90053452Y-67742571D01*
X90029642Y-67766380D01*
X89982023Y-67790190D01*
X89791547Y-67790190D01*
X89791547Y-67290190D01*
X89958214Y-67290190D01*
X90005833Y-67314000D01*
X90029642Y-67337809D01*
X90053452Y-67385428D01*
X90053452Y-67433047D01*
X90029642Y-67480666D01*
X90005833Y-67504476D01*
X89958214Y-67528285D01*
X89791547Y-67528285D01*
D12*
%TO.C,U2*%
X107442071Y-74328785D02*
X107442071Y-74935928D01*
X107477785Y-75007357D01*
X107513500Y-75043071D01*
X107584928Y-75078785D01*
X107727785Y-75078785D01*
X107799214Y-75043071D01*
X107834928Y-75007357D01*
X107870642Y-74935928D01*
X107870642Y-74328785D01*
X108192071Y-74400214D02*
X108227785Y-74364500D01*
X108299214Y-74328785D01*
X108477785Y-74328785D01*
X108549214Y-74364500D01*
X108584928Y-74400214D01*
X108620642Y-74471642D01*
X108620642Y-74543071D01*
X108584928Y-74650214D01*
X108156357Y-75078785D01*
X108620642Y-75078785D01*
D14*
X101473404Y-82049880D02*
X101473404Y-81049880D01*
X101806738Y-81764166D01*
X102140071Y-81049880D01*
X102140071Y-82049880D01*
X103187690Y-81954642D02*
X103140071Y-82002261D01*
X102997214Y-82049880D01*
X102901976Y-82049880D01*
X102759119Y-82002261D01*
X102663880Y-81907023D01*
X102616261Y-81811785D01*
X102568642Y-81621309D01*
X102568642Y-81478452D01*
X102616261Y-81287976D01*
X102663880Y-81192738D01*
X102759119Y-81097500D01*
X102901976Y-81049880D01*
X102997214Y-81049880D01*
X103140071Y-81097500D01*
X103187690Y-81145119D01*
X103616261Y-82049880D02*
X103616261Y-81049880D01*
X103997214Y-81049880D01*
X104092452Y-81097500D01*
X104140071Y-81145119D01*
X104187690Y-81240357D01*
X104187690Y-81383214D01*
X104140071Y-81478452D01*
X104092452Y-81526071D01*
X103997214Y-81573690D01*
X103616261Y-81573690D01*
X105044833Y-81383214D02*
X105044833Y-82049880D01*
X104806738Y-81002261D02*
X104568642Y-81716547D01*
X105187690Y-81716547D01*
X105711500Y-81478452D02*
X105616261Y-81430833D01*
X105568642Y-81383214D01*
X105521023Y-81287976D01*
X105521023Y-81240357D01*
X105568642Y-81145119D01*
X105616261Y-81097500D01*
X105711500Y-81049880D01*
X105901976Y-81049880D01*
X105997214Y-81097500D01*
X106044833Y-81145119D01*
X106092452Y-81240357D01*
X106092452Y-81287976D01*
X106044833Y-81383214D01*
X105997214Y-81430833D01*
X105901976Y-81478452D01*
X105711500Y-81478452D01*
X105616261Y-81526071D01*
X105568642Y-81573690D01*
X105521023Y-81668928D01*
X105521023Y-81859404D01*
X105568642Y-81954642D01*
X105616261Y-82002261D01*
X105711500Y-82049880D01*
X105901976Y-82049880D01*
X105997214Y-82002261D01*
X106044833Y-81954642D01*
X106092452Y-81859404D01*
X106092452Y-81668928D01*
X106044833Y-81573690D01*
X105997214Y-81526071D01*
X105901976Y-81478452D01*
X106473404Y-81145119D02*
X106521023Y-81097500D01*
X106616261Y-81049880D01*
X106854357Y-81049880D01*
X106949595Y-81097500D01*
X106997214Y-81145119D01*
X107044833Y-81240357D01*
X107044833Y-81335595D01*
X106997214Y-81478452D01*
X106425785Y-82049880D01*
X107044833Y-82049880D01*
X107425785Y-81145119D02*
X107473404Y-81097500D01*
X107568642Y-81049880D01*
X107806738Y-81049880D01*
X107901976Y-81097500D01*
X107949595Y-81145119D01*
X107997214Y-81240357D01*
X107997214Y-81335595D01*
X107949595Y-81478452D01*
X107378166Y-82049880D01*
X107997214Y-82049880D01*
D12*
%TO.C,U4*%
X63563571Y-80551785D02*
X63563571Y-81158928D01*
X63599285Y-81230357D01*
X63635000Y-81266071D01*
X63706428Y-81301785D01*
X63849285Y-81301785D01*
X63920714Y-81266071D01*
X63956428Y-81230357D01*
X63992142Y-81158928D01*
X63992142Y-80551785D01*
X64670714Y-80801785D02*
X64670714Y-81301785D01*
X64492142Y-80516071D02*
X64313571Y-81051785D01*
X64777857Y-81051785D01*
X63488357Y-74316785D02*
X63488357Y-73566785D01*
X64274071Y-74245357D02*
X64238357Y-74281071D01*
X64131214Y-74316785D01*
X64059785Y-74316785D01*
X63952642Y-74281071D01*
X63881214Y-74209642D01*
X63845500Y-74138214D01*
X63809785Y-73995357D01*
X63809785Y-73888214D01*
X63845500Y-73745357D01*
X63881214Y-73673928D01*
X63952642Y-73602500D01*
X64059785Y-73566785D01*
X64131214Y-73566785D01*
X64238357Y-73602500D01*
X64274071Y-73638214D01*
X64952642Y-74316785D02*
X64595500Y-74316785D01*
X64595500Y-73566785D01*
X65131214Y-73566785D02*
X65631214Y-73566785D01*
X65309785Y-74316785D01*
X66238357Y-73566785D02*
X66095500Y-73566785D01*
X66024071Y-73602500D01*
X65988357Y-73638214D01*
X65916928Y-73745357D01*
X65881214Y-73888214D01*
X65881214Y-74173928D01*
X65916928Y-74245357D01*
X65952642Y-74281071D01*
X66024071Y-74316785D01*
X66166928Y-74316785D01*
X66238357Y-74281071D01*
X66274071Y-74245357D01*
X66309785Y-74173928D01*
X66309785Y-73995357D01*
X66274071Y-73923928D01*
X66238357Y-73888214D01*
X66166928Y-73852500D01*
X66024071Y-73852500D01*
X65952642Y-73888214D01*
X65916928Y-73923928D01*
X65881214Y-73995357D01*
X66952642Y-73566785D02*
X66809785Y-73566785D01*
X66738357Y-73602500D01*
X66702642Y-73638214D01*
X66631214Y-73745357D01*
X66595500Y-73888214D01*
X66595500Y-74173928D01*
X66631214Y-74245357D01*
X66666928Y-74281071D01*
X66738357Y-74316785D01*
X66881214Y-74316785D01*
X66952642Y-74281071D01*
X66988357Y-74245357D01*
X67024071Y-74173928D01*
X67024071Y-73995357D01*
X66988357Y-73923928D01*
X66952642Y-73888214D01*
X66881214Y-73852500D01*
X66738357Y-73852500D01*
X66666928Y-73888214D01*
X66631214Y-73923928D01*
X66595500Y-73995357D01*
X67488357Y-73566785D02*
X67559785Y-73566785D01*
X67631214Y-73602500D01*
X67666928Y-73638214D01*
X67702642Y-73709642D01*
X67738357Y-73852500D01*
X67738357Y-74031071D01*
X67702642Y-74173928D01*
X67666928Y-74245357D01*
X67631214Y-74281071D01*
X67559785Y-74316785D01*
X67488357Y-74316785D01*
X67416928Y-74281071D01*
X67381214Y-74245357D01*
X67345500Y-74173928D01*
X67309785Y-74031071D01*
X67309785Y-73852500D01*
X67345500Y-73709642D01*
X67381214Y-73638214D01*
X67416928Y-73602500D01*
X67488357Y-73566785D01*
%TO.C,Q2*%
X130395214Y-98112928D02*
X130359500Y-98184357D01*
X130288071Y-98255785D01*
X130180928Y-98362928D01*
X130145214Y-98434357D01*
X130145214Y-98505785D01*
X130323785Y-98470071D02*
X130288071Y-98541500D01*
X130216642Y-98612928D01*
X130073785Y-98648642D01*
X129823785Y-98648642D01*
X129680928Y-98612928D01*
X129609500Y-98541500D01*
X129573785Y-98470071D01*
X129573785Y-98327214D01*
X129609500Y-98255785D01*
X129680928Y-98184357D01*
X129823785Y-98148642D01*
X130073785Y-98148642D01*
X130216642Y-98184357D01*
X130288071Y-98255785D01*
X130323785Y-98327214D01*
X130323785Y-98470071D01*
X129645214Y-97862928D02*
X129609500Y-97827214D01*
X129573785Y-97755785D01*
X129573785Y-97577214D01*
X129609500Y-97505785D01*
X129645214Y-97470071D01*
X129716642Y-97434357D01*
X129788071Y-97434357D01*
X129895214Y-97470071D01*
X130323785Y-97898642D01*
X130323785Y-97434357D01*
X129581714Y-96164500D02*
X129546000Y-96128785D01*
X129510285Y-96057357D01*
X129510285Y-95878785D01*
X129546000Y-95807357D01*
X129581714Y-95771642D01*
X129653142Y-95735928D01*
X129724571Y-95735928D01*
X129831714Y-95771642D01*
X130260285Y-96200214D01*
X130260285Y-95735928D01*
X130224571Y-95450214D02*
X130260285Y-95343071D01*
X130260285Y-95164500D01*
X130224571Y-95093071D01*
X130188857Y-95057357D01*
X130117428Y-95021642D01*
X130046000Y-95021642D01*
X129974571Y-95057357D01*
X129938857Y-95093071D01*
X129903142Y-95164500D01*
X129867428Y-95307357D01*
X129831714Y-95378785D01*
X129796000Y-95414500D01*
X129724571Y-95450214D01*
X129653142Y-95450214D01*
X129581714Y-95414500D01*
X129546000Y-95378785D01*
X129510285Y-95307357D01*
X129510285Y-95128785D01*
X129546000Y-95021642D01*
X130188857Y-94271642D02*
X130224571Y-94307357D01*
X130260285Y-94414500D01*
X130260285Y-94485928D01*
X130224571Y-94593071D01*
X130153142Y-94664500D01*
X130081714Y-94700214D01*
X129938857Y-94735928D01*
X129831714Y-94735928D01*
X129688857Y-94700214D01*
X129617428Y-94664500D01*
X129546000Y-94593071D01*
X129510285Y-94485928D01*
X129510285Y-94414500D01*
X129546000Y-94307357D01*
X129581714Y-94271642D01*
X129510285Y-93593071D02*
X129510285Y-93950214D01*
X129867428Y-93985928D01*
X129831714Y-93950214D01*
X129796000Y-93878785D01*
X129796000Y-93700214D01*
X129831714Y-93628785D01*
X129867428Y-93593071D01*
X129938857Y-93557357D01*
X130117428Y-93557357D01*
X130188857Y-93593071D01*
X130224571Y-93628785D01*
X130260285Y-93700214D01*
X130260285Y-93878785D01*
X130224571Y-93950214D01*
X130188857Y-93985928D01*
X129510285Y-93307357D02*
X129510285Y-92807357D01*
X130260285Y-93128785D01*
X129510285Y-92378785D02*
X129510285Y-92307357D01*
X129546000Y-92235928D01*
X129581714Y-92200214D01*
X129653142Y-92164500D01*
X129796000Y-92128785D01*
X129974571Y-92128785D01*
X130117428Y-92164500D01*
X130188857Y-92200214D01*
X130224571Y-92235928D01*
X130260285Y-92307357D01*
X130260285Y-92378785D01*
X130224571Y-92450214D01*
X130188857Y-92485928D01*
X130117428Y-92521642D01*
X129974571Y-92557357D01*
X129796000Y-92557357D01*
X129653142Y-92521642D01*
X129581714Y-92485928D01*
X129546000Y-92450214D01*
X129510285Y-92378785D01*
X129510285Y-91485928D02*
X129510285Y-91628785D01*
X129546000Y-91700214D01*
X129581714Y-91735928D01*
X129688857Y-91807357D01*
X129831714Y-91843071D01*
X130117428Y-91843071D01*
X130188857Y-91807357D01*
X130224571Y-91771642D01*
X130260285Y-91700214D01*
X130260285Y-91557357D01*
X130224571Y-91485928D01*
X130188857Y-91450214D01*
X130117428Y-91414500D01*
X129938857Y-91414500D01*
X129867428Y-91450214D01*
X129831714Y-91485928D01*
X129796000Y-91557357D01*
X129796000Y-91700214D01*
X129831714Y-91771642D01*
X129867428Y-91807357D01*
X129938857Y-91843071D01*
%TO.C,C15*%
X63081357Y-111392857D02*
X63045642Y-111428571D01*
X62938500Y-111464285D01*
X62867071Y-111464285D01*
X62759928Y-111428571D01*
X62688500Y-111357142D01*
X62652785Y-111285714D01*
X62617071Y-111142857D01*
X62617071Y-111035714D01*
X62652785Y-110892857D01*
X62688500Y-110821428D01*
X62759928Y-110750000D01*
X62867071Y-110714285D01*
X62938500Y-110714285D01*
X63045642Y-110750000D01*
X63081357Y-110785714D01*
X63795642Y-111464285D02*
X63367071Y-111464285D01*
X63581357Y-111464285D02*
X63581357Y-110714285D01*
X63509928Y-110821428D01*
X63438500Y-110892857D01*
X63367071Y-110928571D01*
X64474214Y-110714285D02*
X64117071Y-110714285D01*
X64081357Y-111071428D01*
X64117071Y-111035714D01*
X64188500Y-111000000D01*
X64367071Y-111000000D01*
X64438500Y-111035714D01*
X64474214Y-111071428D01*
X64509928Y-111142857D01*
X64509928Y-111321428D01*
X64474214Y-111392857D01*
X64438500Y-111428571D01*
X64367071Y-111464285D01*
X64188500Y-111464285D01*
X64117071Y-111428571D01*
X64081357Y-111392857D01*
X65962714Y-111400785D02*
X65534142Y-111400785D01*
X65748428Y-111400785D02*
X65748428Y-110650785D01*
X65677000Y-110757928D01*
X65605571Y-110829357D01*
X65534142Y-110865071D01*
X66427000Y-110650785D02*
X66498428Y-110650785D01*
X66569857Y-110686500D01*
X66605571Y-110722214D01*
X66641285Y-110793642D01*
X66677000Y-110936500D01*
X66677000Y-111115071D01*
X66641285Y-111257928D01*
X66605571Y-111329357D01*
X66569857Y-111365071D01*
X66498428Y-111400785D01*
X66427000Y-111400785D01*
X66355571Y-111365071D01*
X66319857Y-111329357D01*
X66284142Y-111257928D01*
X66248428Y-111115071D01*
X66248428Y-110936500D01*
X66284142Y-110793642D01*
X66319857Y-110722214D01*
X66355571Y-110686500D01*
X66427000Y-110650785D01*
X67141285Y-110650785D02*
X67212714Y-110650785D01*
X67284142Y-110686500D01*
X67319857Y-110722214D01*
X67355571Y-110793642D01*
X67391285Y-110936500D01*
X67391285Y-111115071D01*
X67355571Y-111257928D01*
X67319857Y-111329357D01*
X67284142Y-111365071D01*
X67212714Y-111400785D01*
X67141285Y-111400785D01*
X67069857Y-111365071D01*
X67034142Y-111329357D01*
X66998428Y-111257928D01*
X66962714Y-111115071D01*
X66962714Y-110936500D01*
X66998428Y-110793642D01*
X67034142Y-110722214D01*
X67069857Y-110686500D01*
X67141285Y-110650785D01*
X67712714Y-110900785D02*
X67712714Y-111400785D01*
X67712714Y-110972214D02*
X67748428Y-110936500D01*
X67819857Y-110900785D01*
X67927000Y-110900785D01*
X67998428Y-110936500D01*
X68034142Y-111007928D01*
X68034142Y-111400785D01*
%TO.C,R14*%
X79083357Y-114004285D02*
X78833357Y-113647142D01*
X78654785Y-114004285D02*
X78654785Y-113254285D01*
X78940500Y-113254285D01*
X79011928Y-113290000D01*
X79047642Y-113325714D01*
X79083357Y-113397142D01*
X79083357Y-113504285D01*
X79047642Y-113575714D01*
X79011928Y-113611428D01*
X78940500Y-113647142D01*
X78654785Y-113647142D01*
X79797642Y-114004285D02*
X79369071Y-114004285D01*
X79583357Y-114004285D02*
X79583357Y-113254285D01*
X79511928Y-113361428D01*
X79440500Y-113432857D01*
X79369071Y-113468571D01*
X80440500Y-113504285D02*
X80440500Y-114004285D01*
X80261928Y-113218571D02*
X80083357Y-113754285D01*
X80547642Y-113754285D01*
X79214285Y-115401285D02*
X78785714Y-115401285D01*
X79000000Y-115401285D02*
X79000000Y-114651285D01*
X78928571Y-114758428D01*
X78857142Y-114829857D01*
X78785714Y-114865571D01*
X79535714Y-115401285D02*
X79535714Y-114651285D01*
X79964285Y-115401285D02*
X79642857Y-114972714D01*
X79964285Y-114651285D02*
X79535714Y-115079857D01*
%TO.C,D3*%
X70566428Y-69871785D02*
X70566428Y-69121785D01*
X70745000Y-69121785D01*
X70852142Y-69157500D01*
X70923571Y-69228928D01*
X70959285Y-69300357D01*
X70995000Y-69443214D01*
X70995000Y-69550357D01*
X70959285Y-69693214D01*
X70923571Y-69764642D01*
X70852142Y-69836071D01*
X70745000Y-69871785D01*
X70566428Y-69871785D01*
X71245000Y-69121785D02*
X71709285Y-69121785D01*
X71459285Y-69407500D01*
X71566428Y-69407500D01*
X71637857Y-69443214D01*
X71673571Y-69478928D01*
X71709285Y-69550357D01*
X71709285Y-69728928D01*
X71673571Y-69800357D01*
X71637857Y-69836071D01*
X71566428Y-69871785D01*
X71352142Y-69871785D01*
X71280714Y-69836071D01*
X71245000Y-69800357D01*
X69639857Y-66252285D02*
X69211285Y-66252285D01*
X69425571Y-66252285D02*
X69425571Y-65502285D01*
X69354142Y-65609428D01*
X69282714Y-65680857D01*
X69211285Y-65716571D01*
X69961285Y-66252285D02*
X69961285Y-65502285D01*
X70389857Y-66252285D01*
X70389857Y-65502285D01*
X71068428Y-65752285D02*
X71068428Y-66252285D01*
X70889857Y-65466571D02*
X70711285Y-66002285D01*
X71175571Y-66002285D01*
X71854142Y-66252285D02*
X71425571Y-66252285D01*
X71639857Y-66252285D02*
X71639857Y-65502285D01*
X71568428Y-65609428D01*
X71497000Y-65680857D01*
X71425571Y-65716571D01*
X72497000Y-65752285D02*
X72497000Y-66252285D01*
X72318428Y-65466571D02*
X72139857Y-66002285D01*
X72604142Y-66002285D01*
X72997000Y-65823714D02*
X72925571Y-65788000D01*
X72889857Y-65752285D01*
X72854142Y-65680857D01*
X72854142Y-65645142D01*
X72889857Y-65573714D01*
X72925571Y-65538000D01*
X72997000Y-65502285D01*
X73139857Y-65502285D01*
X73211285Y-65538000D01*
X73247000Y-65573714D01*
X73282714Y-65645142D01*
X73282714Y-65680857D01*
X73247000Y-65752285D01*
X73211285Y-65788000D01*
X73139857Y-65823714D01*
X72997000Y-65823714D01*
X72925571Y-65859428D01*
X72889857Y-65895142D01*
X72854142Y-65966571D01*
X72854142Y-66109428D01*
X72889857Y-66180857D01*
X72925571Y-66216571D01*
X72997000Y-66252285D01*
X73139857Y-66252285D01*
X73211285Y-66216571D01*
X73247000Y-66180857D01*
X73282714Y-66109428D01*
X73282714Y-65966571D01*
X73247000Y-65895142D01*
X73211285Y-65859428D01*
X73139857Y-65823714D01*
%TO.C,J8*%
X67430785Y-117456000D02*
X67966500Y-117456000D01*
X68073642Y-117491714D01*
X68145071Y-117563142D01*
X68180785Y-117670285D01*
X68180785Y-117741714D01*
X67752214Y-116991714D02*
X67716500Y-117063142D01*
X67680785Y-117098857D01*
X67609357Y-117134571D01*
X67573642Y-117134571D01*
X67502214Y-117098857D01*
X67466500Y-117063142D01*
X67430785Y-116991714D01*
X67430785Y-116848857D01*
X67466500Y-116777428D01*
X67502214Y-116741714D01*
X67573642Y-116706000D01*
X67609357Y-116706000D01*
X67680785Y-116741714D01*
X67716500Y-116777428D01*
X67752214Y-116848857D01*
X67752214Y-116991714D01*
X67787928Y-117063142D01*
X67823642Y-117098857D01*
X67895071Y-117134571D01*
X68037928Y-117134571D01*
X68109357Y-117098857D01*
X68145071Y-117063142D01*
X68180785Y-116991714D01*
X68180785Y-116848857D01*
X68145071Y-116777428D01*
X68109357Y-116741714D01*
X68037928Y-116706000D01*
X67895071Y-116706000D01*
X67823642Y-116741714D01*
X67787928Y-116777428D01*
X67752214Y-116848857D01*
X53042642Y-123592785D02*
X52614071Y-123592785D01*
X52828357Y-123592785D02*
X52828357Y-122842785D01*
X52756928Y-122949928D01*
X52685500Y-123021357D01*
X52614071Y-123057071D01*
X53292642Y-122842785D02*
X53756928Y-122842785D01*
X53506928Y-123128500D01*
X53614071Y-123128500D01*
X53685500Y-123164214D01*
X53721214Y-123199928D01*
X53756928Y-123271357D01*
X53756928Y-123449928D01*
X53721214Y-123521357D01*
X53685500Y-123557071D01*
X53614071Y-123592785D01*
X53399785Y-123592785D01*
X53328357Y-123557071D01*
X53292642Y-123521357D01*
X54078357Y-123521357D02*
X54114071Y-123557071D01*
X54078357Y-123592785D01*
X54042642Y-123557071D01*
X54078357Y-123521357D01*
X54078357Y-123592785D01*
X54542642Y-123164214D02*
X54471214Y-123128500D01*
X54435500Y-123092785D01*
X54399785Y-123021357D01*
X54399785Y-122985642D01*
X54435500Y-122914214D01*
X54471214Y-122878500D01*
X54542642Y-122842785D01*
X54685500Y-122842785D01*
X54756928Y-122878500D01*
X54792642Y-122914214D01*
X54828357Y-122985642D01*
X54828357Y-123021357D01*
X54792642Y-123092785D01*
X54756928Y-123128500D01*
X54685500Y-123164214D01*
X54542642Y-123164214D01*
X54471214Y-123199928D01*
X54435500Y-123235642D01*
X54399785Y-123307071D01*
X54399785Y-123449928D01*
X54435500Y-123521357D01*
X54471214Y-123557071D01*
X54542642Y-123592785D01*
X54685500Y-123592785D01*
X54756928Y-123557071D01*
X54792642Y-123521357D01*
X54828357Y-123449928D01*
X54828357Y-123307071D01*
X54792642Y-123235642D01*
X54756928Y-123199928D01*
X54685500Y-123164214D01*
X55042642Y-122842785D02*
X55292642Y-123592785D01*
X55542642Y-122842785D01*
X56364071Y-123592785D02*
X56364071Y-122842785D01*
X56614071Y-123378500D01*
X56864071Y-122842785D01*
X56864071Y-123592785D01*
X57185500Y-123378500D02*
X57542642Y-123378500D01*
X57114071Y-123592785D02*
X57364071Y-122842785D01*
X57614071Y-123592785D01*
X57792642Y-122842785D02*
X58292642Y-123592785D01*
X58292642Y-122842785D02*
X57792642Y-123592785D01*
%TO.C,D2*%
X70248928Y-110892785D02*
X70248928Y-110142785D01*
X70427500Y-110142785D01*
X70534642Y-110178500D01*
X70606071Y-110249928D01*
X70641785Y-110321357D01*
X70677500Y-110464214D01*
X70677500Y-110571357D01*
X70641785Y-110714214D01*
X70606071Y-110785642D01*
X70534642Y-110857071D01*
X70427500Y-110892785D01*
X70248928Y-110892785D01*
X70963214Y-110214214D02*
X70998928Y-110178500D01*
X71070357Y-110142785D01*
X71248928Y-110142785D01*
X71320357Y-110178500D01*
X71356071Y-110214214D01*
X71391785Y-110285642D01*
X71391785Y-110357071D01*
X71356071Y-110464214D01*
X70927500Y-110892785D01*
X71391785Y-110892785D01*
X73041000Y-110829285D02*
X73041000Y-110079285D01*
X73326714Y-110079285D01*
X73398142Y-110115000D01*
X73433857Y-110150714D01*
X73469571Y-110222142D01*
X73469571Y-110329285D01*
X73433857Y-110400714D01*
X73398142Y-110436428D01*
X73326714Y-110472142D01*
X73041000Y-110472142D01*
X73719571Y-110079285D02*
X73898142Y-110829285D01*
X74041000Y-110293571D01*
X74183857Y-110829285D01*
X74362428Y-110079285D01*
X75076714Y-110829285D02*
X74826714Y-110472142D01*
X74648142Y-110829285D02*
X74648142Y-110079285D01*
X74933857Y-110079285D01*
X75005285Y-110115000D01*
X75041000Y-110150714D01*
X75076714Y-110222142D01*
X75076714Y-110329285D01*
X75041000Y-110400714D01*
X75005285Y-110436428D01*
X74933857Y-110472142D01*
X74648142Y-110472142D01*
%TO.C,D1*%
X58120428Y-94001785D02*
X58120428Y-93251785D01*
X58299000Y-93251785D01*
X58406142Y-93287500D01*
X58477571Y-93358928D01*
X58513285Y-93430357D01*
X58549000Y-93573214D01*
X58549000Y-93680357D01*
X58513285Y-93823214D01*
X58477571Y-93894642D01*
X58406142Y-93966071D01*
X58299000Y-94001785D01*
X58120428Y-94001785D01*
X59263285Y-94001785D02*
X58834714Y-94001785D01*
X59049000Y-94001785D02*
X59049000Y-93251785D01*
X58977571Y-93358928D01*
X58906142Y-93430357D01*
X58834714Y-93466071D01*
X60495857Y-94001785D02*
X60067285Y-94001785D01*
X60281571Y-94001785D02*
X60281571Y-93251785D01*
X60210142Y-93358928D01*
X60138714Y-93430357D01*
X60067285Y-93466071D01*
X60817285Y-94001785D02*
X60817285Y-93251785D01*
X61245857Y-94001785D01*
X61245857Y-93251785D01*
X61960142Y-93251785D02*
X61603000Y-93251785D01*
X61567285Y-93608928D01*
X61603000Y-93573214D01*
X61674428Y-93537500D01*
X61853000Y-93537500D01*
X61924428Y-93573214D01*
X61960142Y-93608928D01*
X61995857Y-93680357D01*
X61995857Y-93858928D01*
X61960142Y-93930357D01*
X61924428Y-93966071D01*
X61853000Y-94001785D01*
X61674428Y-94001785D01*
X61603000Y-93966071D01*
X61567285Y-93930357D01*
X62424428Y-93573214D02*
X62353000Y-93537500D01*
X62317285Y-93501785D01*
X62281571Y-93430357D01*
X62281571Y-93394642D01*
X62317285Y-93323214D01*
X62353000Y-93287500D01*
X62424428Y-93251785D01*
X62567285Y-93251785D01*
X62638714Y-93287500D01*
X62674428Y-93323214D01*
X62710142Y-93394642D01*
X62710142Y-93430357D01*
X62674428Y-93501785D01*
X62638714Y-93537500D01*
X62567285Y-93573214D01*
X62424428Y-93573214D01*
X62353000Y-93608928D01*
X62317285Y-93644642D01*
X62281571Y-93716071D01*
X62281571Y-93858928D01*
X62317285Y-93930357D01*
X62353000Y-93966071D01*
X62424428Y-94001785D01*
X62567285Y-94001785D01*
X62638714Y-93966071D01*
X62674428Y-93930357D01*
X62710142Y-93858928D01*
X62710142Y-93716071D01*
X62674428Y-93644642D01*
X62638714Y-93608928D01*
X62567285Y-93573214D01*
X63424428Y-94001785D02*
X62995857Y-94001785D01*
X63210142Y-94001785D02*
X63210142Y-93251785D01*
X63138714Y-93358928D01*
X63067285Y-93430357D01*
X62995857Y-93466071D01*
X63674428Y-93251785D02*
X64174428Y-93251785D01*
X63853000Y-94001785D01*
%TO.C,J6*%
X96714500Y-128748285D02*
X96714500Y-129284000D01*
X96678785Y-129391142D01*
X96607357Y-129462571D01*
X96500214Y-129498285D01*
X96428785Y-129498285D01*
X97393071Y-128748285D02*
X97250214Y-128748285D01*
X97178785Y-128784000D01*
X97143071Y-128819714D01*
X97071642Y-128926857D01*
X97035928Y-129069714D01*
X97035928Y-129355428D01*
X97071642Y-129426857D01*
X97107357Y-129462571D01*
X97178785Y-129498285D01*
X97321642Y-129498285D01*
X97393071Y-129462571D01*
X97428785Y-129426857D01*
X97464500Y-129355428D01*
X97464500Y-129176857D01*
X97428785Y-129105428D01*
X97393071Y-129069714D01*
X97321642Y-129034000D01*
X97178785Y-129034000D01*
X97107357Y-129069714D01*
X97071642Y-129105428D01*
X97035928Y-129176857D01*
X99228785Y-129411000D02*
X99585928Y-129411000D01*
X99157357Y-129625285D02*
X99407357Y-128875285D01*
X99657357Y-129625285D01*
X99907357Y-129625285D02*
X99907357Y-128875285D01*
X100085928Y-128875285D01*
X100193071Y-128911000D01*
X100264500Y-128982428D01*
X100300214Y-129053857D01*
X100335928Y-129196714D01*
X100335928Y-129303857D01*
X100300214Y-129446714D01*
X100264500Y-129518142D01*
X100193071Y-129589571D01*
X100085928Y-129625285D01*
X99907357Y-129625285D01*
X100585928Y-128875285D02*
X101050214Y-128875285D01*
X100800214Y-129161000D01*
X100907357Y-129161000D01*
X100978785Y-129196714D01*
X101014500Y-129232428D01*
X101050214Y-129303857D01*
X101050214Y-129482428D01*
X101014500Y-129553857D01*
X100978785Y-129589571D01*
X100907357Y-129625285D01*
X100693071Y-129625285D01*
X100621642Y-129589571D01*
X100585928Y-129553857D01*
%TO.C,D4*%
X64787928Y-69871785D02*
X64787928Y-69121785D01*
X64966500Y-69121785D01*
X65073642Y-69157500D01*
X65145071Y-69228928D01*
X65180785Y-69300357D01*
X65216500Y-69443214D01*
X65216500Y-69550357D01*
X65180785Y-69693214D01*
X65145071Y-69764642D01*
X65073642Y-69836071D01*
X64966500Y-69871785D01*
X64787928Y-69871785D01*
X65859357Y-69371785D02*
X65859357Y-69871785D01*
X65680785Y-69086071D02*
X65502214Y-69621785D01*
X65966500Y-69621785D01*
X63988357Y-66379285D02*
X63559785Y-66379285D01*
X63774071Y-66379285D02*
X63774071Y-65629285D01*
X63702642Y-65736428D01*
X63631214Y-65807857D01*
X63559785Y-65843571D01*
X64309785Y-66379285D02*
X64309785Y-65629285D01*
X64738357Y-66379285D01*
X64738357Y-65629285D01*
X65416928Y-65879285D02*
X65416928Y-66379285D01*
X65238357Y-65593571D02*
X65059785Y-66129285D01*
X65524071Y-66129285D01*
X66202642Y-66379285D02*
X65774071Y-66379285D01*
X65988357Y-66379285D02*
X65988357Y-65629285D01*
X65916928Y-65736428D01*
X65845500Y-65807857D01*
X65774071Y-65843571D01*
X66845500Y-65879285D02*
X66845500Y-66379285D01*
X66666928Y-65593571D02*
X66488357Y-66129285D01*
X66952642Y-66129285D01*
X67345500Y-65950714D02*
X67274071Y-65915000D01*
X67238357Y-65879285D01*
X67202642Y-65807857D01*
X67202642Y-65772142D01*
X67238357Y-65700714D01*
X67274071Y-65665000D01*
X67345500Y-65629285D01*
X67488357Y-65629285D01*
X67559785Y-65665000D01*
X67595500Y-65700714D01*
X67631214Y-65772142D01*
X67631214Y-65807857D01*
X67595500Y-65879285D01*
X67559785Y-65915000D01*
X67488357Y-65950714D01*
X67345500Y-65950714D01*
X67274071Y-65986428D01*
X67238357Y-66022142D01*
X67202642Y-66093571D01*
X67202642Y-66236428D01*
X67238357Y-66307857D01*
X67274071Y-66343571D01*
X67345500Y-66379285D01*
X67488357Y-66379285D01*
X67559785Y-66343571D01*
X67595500Y-66307857D01*
X67631214Y-66236428D01*
X67631214Y-66093571D01*
X67595500Y-66022142D01*
X67559785Y-65986428D01*
X67488357Y-65950714D01*
%TO.C,ADC1*%
X130032285Y-105471500D02*
X130389428Y-105471500D01*
X129960857Y-105685785D02*
X130210857Y-104935785D01*
X130460857Y-105685785D01*
X130710857Y-105685785D02*
X130710857Y-104935785D01*
X130889428Y-104935785D01*
X130996571Y-104971500D01*
X131068000Y-105042928D01*
X131103714Y-105114357D01*
X131139428Y-105257214D01*
X131139428Y-105364357D01*
X131103714Y-105507214D01*
X131068000Y-105578642D01*
X130996571Y-105650071D01*
X130889428Y-105685785D01*
X130710857Y-105685785D01*
X131889428Y-105614357D02*
X131853714Y-105650071D01*
X131746571Y-105685785D01*
X131675142Y-105685785D01*
X131568000Y-105650071D01*
X131496571Y-105578642D01*
X131460857Y-105507214D01*
X131425142Y-105364357D01*
X131425142Y-105257214D01*
X131460857Y-105114357D01*
X131496571Y-105042928D01*
X131568000Y-104971500D01*
X131675142Y-104935785D01*
X131746571Y-104935785D01*
X131853714Y-104971500D01*
X131889428Y-105007214D01*
X132603714Y-105685785D02*
X132175142Y-105685785D01*
X132389428Y-105685785D02*
X132389428Y-104935785D01*
X132318000Y-105042928D01*
X132246571Y-105114357D01*
X132175142Y-105150071D01*
X133808500Y-105749285D02*
X133379928Y-105749285D01*
X133594214Y-105749285D02*
X133594214Y-104999285D01*
X133522785Y-105106428D01*
X133451357Y-105177857D01*
X133379928Y-105213571D01*
X134272785Y-104999285D02*
X134344214Y-104999285D01*
X134415642Y-105035000D01*
X134451357Y-105070714D01*
X134487071Y-105142142D01*
X134522785Y-105285000D01*
X134522785Y-105463571D01*
X134487071Y-105606428D01*
X134451357Y-105677857D01*
X134415642Y-105713571D01*
X134344214Y-105749285D01*
X134272785Y-105749285D01*
X134201357Y-105713571D01*
X134165642Y-105677857D01*
X134129928Y-105606428D01*
X134094214Y-105463571D01*
X134094214Y-105285000D01*
X134129928Y-105142142D01*
X134165642Y-105070714D01*
X134201357Y-105035000D01*
X134272785Y-104999285D01*
X134987071Y-104999285D02*
X135058500Y-104999285D01*
X135129928Y-105035000D01*
X135165642Y-105070714D01*
X135201357Y-105142142D01*
X135237071Y-105285000D01*
X135237071Y-105463571D01*
X135201357Y-105606428D01*
X135165642Y-105677857D01*
X135129928Y-105713571D01*
X135058500Y-105749285D01*
X134987071Y-105749285D01*
X134915642Y-105713571D01*
X134879928Y-105677857D01*
X134844214Y-105606428D01*
X134808500Y-105463571D01*
X134808500Y-105285000D01*
X134844214Y-105142142D01*
X134879928Y-105070714D01*
X134915642Y-105035000D01*
X134987071Y-104999285D01*
X135558500Y-105749285D02*
X135558500Y-104999285D01*
X135987071Y-105749285D02*
X135665642Y-105320714D01*
X135987071Y-104999285D02*
X135558500Y-105427857D01*
%TO.C,R16*%
X73304857Y-99462785D02*
X73054857Y-99105642D01*
X72876285Y-99462785D02*
X72876285Y-98712785D01*
X73162000Y-98712785D01*
X73233428Y-98748500D01*
X73269142Y-98784214D01*
X73304857Y-98855642D01*
X73304857Y-98962785D01*
X73269142Y-99034214D01*
X73233428Y-99069928D01*
X73162000Y-99105642D01*
X72876285Y-99105642D01*
X74019142Y-99462785D02*
X73590571Y-99462785D01*
X73804857Y-99462785D02*
X73804857Y-98712785D01*
X73733428Y-98819928D01*
X73662000Y-98891357D01*
X73590571Y-98927071D01*
X74662000Y-98712785D02*
X74519142Y-98712785D01*
X74447714Y-98748500D01*
X74412000Y-98784214D01*
X74340571Y-98891357D01*
X74304857Y-99034214D01*
X74304857Y-99319928D01*
X74340571Y-99391357D01*
X74376285Y-99427071D01*
X74447714Y-99462785D01*
X74590571Y-99462785D01*
X74662000Y-99427071D01*
X74697714Y-99391357D01*
X74733428Y-99319928D01*
X74733428Y-99141357D01*
X74697714Y-99069928D01*
X74662000Y-99034214D01*
X74590571Y-98998500D01*
X74447714Y-98998500D01*
X74376285Y-99034214D01*
X74340571Y-99069928D01*
X74304857Y-99141357D01*
X73314785Y-99792285D02*
X72957642Y-99792285D01*
X72921928Y-100149428D01*
X72957642Y-100113714D01*
X73029071Y-100078000D01*
X73207642Y-100078000D01*
X73279071Y-100113714D01*
X73314785Y-100149428D01*
X73350500Y-100220857D01*
X73350500Y-100399428D01*
X73314785Y-100470857D01*
X73279071Y-100506571D01*
X73207642Y-100542285D01*
X73029071Y-100542285D01*
X72957642Y-100506571D01*
X72921928Y-100470857D01*
X73814785Y-99792285D02*
X73886214Y-99792285D01*
X73957642Y-99828000D01*
X73993357Y-99863714D01*
X74029071Y-99935142D01*
X74064785Y-100078000D01*
X74064785Y-100256571D01*
X74029071Y-100399428D01*
X73993357Y-100470857D01*
X73957642Y-100506571D01*
X73886214Y-100542285D01*
X73814785Y-100542285D01*
X73743357Y-100506571D01*
X73707642Y-100470857D01*
X73671928Y-100399428D01*
X73636214Y-100256571D01*
X73636214Y-100078000D01*
X73671928Y-99935142D01*
X73707642Y-99863714D01*
X73743357Y-99828000D01*
X73814785Y-99792285D01*
X74529071Y-99792285D02*
X74600500Y-99792285D01*
X74671928Y-99828000D01*
X74707642Y-99863714D01*
X74743357Y-99935142D01*
X74779071Y-100078000D01*
X74779071Y-100256571D01*
X74743357Y-100399428D01*
X74707642Y-100470857D01*
X74671928Y-100506571D01*
X74600500Y-100542285D01*
X74529071Y-100542285D01*
X74457642Y-100506571D01*
X74421928Y-100470857D01*
X74386214Y-100399428D01*
X74350500Y-100256571D01*
X74350500Y-100078000D01*
X74386214Y-99935142D01*
X74421928Y-99863714D01*
X74457642Y-99828000D01*
X74529071Y-99792285D01*
%TO.C,ADC4*%
X89138285Y-113345500D02*
X89495428Y-113345500D01*
X89066857Y-113559785D02*
X89316857Y-112809785D01*
X89566857Y-113559785D01*
X89816857Y-113559785D02*
X89816857Y-112809785D01*
X89995428Y-112809785D01*
X90102571Y-112845500D01*
X90174000Y-112916928D01*
X90209714Y-112988357D01*
X90245428Y-113131214D01*
X90245428Y-113238357D01*
X90209714Y-113381214D01*
X90174000Y-113452642D01*
X90102571Y-113524071D01*
X89995428Y-113559785D01*
X89816857Y-113559785D01*
X90995428Y-113488357D02*
X90959714Y-113524071D01*
X90852571Y-113559785D01*
X90781142Y-113559785D01*
X90674000Y-113524071D01*
X90602571Y-113452642D01*
X90566857Y-113381214D01*
X90531142Y-113238357D01*
X90531142Y-113131214D01*
X90566857Y-112988357D01*
X90602571Y-112916928D01*
X90674000Y-112845500D01*
X90781142Y-112809785D01*
X90852571Y-112809785D01*
X90959714Y-112845500D01*
X90995428Y-112881214D01*
X91638285Y-113059785D02*
X91638285Y-113559785D01*
X91459714Y-112774071D02*
X91281142Y-113309785D01*
X91745428Y-113309785D01*
X89485500Y-114639285D02*
X89056928Y-114639285D01*
X89271214Y-114639285D02*
X89271214Y-113889285D01*
X89199785Y-113996428D01*
X89128357Y-114067857D01*
X89056928Y-114103571D01*
X89949785Y-113889285D02*
X90021214Y-113889285D01*
X90092642Y-113925000D01*
X90128357Y-113960714D01*
X90164071Y-114032142D01*
X90199785Y-114175000D01*
X90199785Y-114353571D01*
X90164071Y-114496428D01*
X90128357Y-114567857D01*
X90092642Y-114603571D01*
X90021214Y-114639285D01*
X89949785Y-114639285D01*
X89878357Y-114603571D01*
X89842642Y-114567857D01*
X89806928Y-114496428D01*
X89771214Y-114353571D01*
X89771214Y-114175000D01*
X89806928Y-114032142D01*
X89842642Y-113960714D01*
X89878357Y-113925000D01*
X89949785Y-113889285D01*
X90664071Y-113889285D02*
X90735500Y-113889285D01*
X90806928Y-113925000D01*
X90842642Y-113960714D01*
X90878357Y-114032142D01*
X90914071Y-114175000D01*
X90914071Y-114353571D01*
X90878357Y-114496428D01*
X90842642Y-114567857D01*
X90806928Y-114603571D01*
X90735500Y-114639285D01*
X90664071Y-114639285D01*
X90592642Y-114603571D01*
X90556928Y-114567857D01*
X90521214Y-114496428D01*
X90485500Y-114353571D01*
X90485500Y-114175000D01*
X90521214Y-114032142D01*
X90556928Y-113960714D01*
X90592642Y-113925000D01*
X90664071Y-113889285D01*
X91235500Y-114639285D02*
X91235500Y-113889285D01*
X91664071Y-114639285D02*
X91342642Y-114210714D01*
X91664071Y-113889285D02*
X91235500Y-114317857D01*
%TO.C,ADC3*%
X85391785Y-136650000D02*
X85748928Y-136650000D01*
X85320357Y-136864285D02*
X85570357Y-136114285D01*
X85820357Y-136864285D01*
X86070357Y-136864285D02*
X86070357Y-136114285D01*
X86248928Y-136114285D01*
X86356071Y-136150000D01*
X86427500Y-136221428D01*
X86463214Y-136292857D01*
X86498928Y-136435714D01*
X86498928Y-136542857D01*
X86463214Y-136685714D01*
X86427500Y-136757142D01*
X86356071Y-136828571D01*
X86248928Y-136864285D01*
X86070357Y-136864285D01*
X87248928Y-136792857D02*
X87213214Y-136828571D01*
X87106071Y-136864285D01*
X87034642Y-136864285D01*
X86927500Y-136828571D01*
X86856071Y-136757142D01*
X86820357Y-136685714D01*
X86784642Y-136542857D01*
X86784642Y-136435714D01*
X86820357Y-136292857D01*
X86856071Y-136221428D01*
X86927500Y-136150000D01*
X87034642Y-136114285D01*
X87106071Y-136114285D01*
X87213214Y-136150000D01*
X87248928Y-136185714D01*
X87498928Y-136114285D02*
X87963214Y-136114285D01*
X87713214Y-136400000D01*
X87820357Y-136400000D01*
X87891785Y-136435714D01*
X87927500Y-136471428D01*
X87963214Y-136542857D01*
X87963214Y-136721428D01*
X87927500Y-136792857D01*
X87891785Y-136828571D01*
X87820357Y-136864285D01*
X87606071Y-136864285D01*
X87534642Y-136828571D01*
X87498928Y-136792857D01*
X89231500Y-136800785D02*
X88802928Y-136800785D01*
X89017214Y-136800785D02*
X89017214Y-136050785D01*
X88945785Y-136157928D01*
X88874357Y-136229357D01*
X88802928Y-136265071D01*
X89695785Y-136050785D02*
X89767214Y-136050785D01*
X89838642Y-136086500D01*
X89874357Y-136122214D01*
X89910071Y-136193642D01*
X89945785Y-136336500D01*
X89945785Y-136515071D01*
X89910071Y-136657928D01*
X89874357Y-136729357D01*
X89838642Y-136765071D01*
X89767214Y-136800785D01*
X89695785Y-136800785D01*
X89624357Y-136765071D01*
X89588642Y-136729357D01*
X89552928Y-136657928D01*
X89517214Y-136515071D01*
X89517214Y-136336500D01*
X89552928Y-136193642D01*
X89588642Y-136122214D01*
X89624357Y-136086500D01*
X89695785Y-136050785D01*
X90410071Y-136050785D02*
X90481500Y-136050785D01*
X90552928Y-136086500D01*
X90588642Y-136122214D01*
X90624357Y-136193642D01*
X90660071Y-136336500D01*
X90660071Y-136515071D01*
X90624357Y-136657928D01*
X90588642Y-136729357D01*
X90552928Y-136765071D01*
X90481500Y-136800785D01*
X90410071Y-136800785D01*
X90338642Y-136765071D01*
X90302928Y-136729357D01*
X90267214Y-136657928D01*
X90231500Y-136515071D01*
X90231500Y-136336500D01*
X90267214Y-136193642D01*
X90302928Y-136122214D01*
X90338642Y-136086500D01*
X90410071Y-136050785D01*
X90981500Y-136800785D02*
X90981500Y-136050785D01*
X91410071Y-136800785D02*
X91088642Y-136372214D01*
X91410071Y-136050785D02*
X90981500Y-136479357D01*
%TO.C,J2*%
X124591000Y-117381785D02*
X124591000Y-117917500D01*
X124555285Y-118024642D01*
X124483857Y-118096071D01*
X124376714Y-118131785D01*
X124305285Y-118131785D01*
X124912428Y-117453214D02*
X124948142Y-117417500D01*
X125019571Y-117381785D01*
X125198142Y-117381785D01*
X125269571Y-117417500D01*
X125305285Y-117453214D01*
X125341000Y-117524642D01*
X125341000Y-117596071D01*
X125305285Y-117703214D01*
X124876714Y-118131785D01*
X125341000Y-118131785D01*
X126152785Y-117981000D02*
X126509928Y-117981000D01*
X126081357Y-118195285D02*
X126331357Y-117445285D01*
X126581357Y-118195285D01*
X126831357Y-118195285D02*
X126831357Y-117445285D01*
X127009928Y-117445285D01*
X127117071Y-117481000D01*
X127188500Y-117552428D01*
X127224214Y-117623857D01*
X127259928Y-117766714D01*
X127259928Y-117873857D01*
X127224214Y-118016714D01*
X127188500Y-118088142D01*
X127117071Y-118159571D01*
X127009928Y-118195285D01*
X126831357Y-118195285D01*
X127545642Y-117516714D02*
X127581357Y-117481000D01*
X127652785Y-117445285D01*
X127831357Y-117445285D01*
X127902785Y-117481000D01*
X127938500Y-117516714D01*
X127974214Y-117588142D01*
X127974214Y-117659571D01*
X127938500Y-117766714D01*
X127509928Y-118195285D01*
X127974214Y-118195285D01*
%TO.C,J7*%
X53852000Y-86266785D02*
X53852000Y-86802500D01*
X53816285Y-86909642D01*
X53744857Y-86981071D01*
X53637714Y-87016785D01*
X53566285Y-87016785D01*
X54137714Y-86266785D02*
X54637714Y-86266785D01*
X54316285Y-87016785D01*
X52784500Y-88350285D02*
X52784500Y-87600285D01*
X53070214Y-87600285D01*
X53141642Y-87636000D01*
X53177357Y-87671714D01*
X53213071Y-87743142D01*
X53213071Y-87850285D01*
X53177357Y-87921714D01*
X53141642Y-87957428D01*
X53070214Y-87993142D01*
X52784500Y-87993142D01*
X53463071Y-87600285D02*
X53641642Y-88350285D01*
X53784500Y-87814571D01*
X53927357Y-88350285D01*
X54105928Y-87600285D01*
X54820214Y-88350285D02*
X54570214Y-87993142D01*
X54391642Y-88350285D02*
X54391642Y-87600285D01*
X54677357Y-87600285D01*
X54748785Y-87636000D01*
X54784500Y-87671714D01*
X54820214Y-87743142D01*
X54820214Y-87850285D01*
X54784500Y-87921714D01*
X54748785Y-87957428D01*
X54677357Y-87993142D01*
X54391642Y-87993142D01*
%TO.C,ZX1*%
X110033714Y-130462785D02*
X110533714Y-130462785D01*
X110033714Y-131212785D01*
X110533714Y-131212785D01*
X110748000Y-130462785D02*
X111248000Y-131212785D01*
X111248000Y-130462785D02*
X110748000Y-131212785D01*
X111926571Y-131212785D02*
X111498000Y-131212785D01*
X111712285Y-131212785D02*
X111712285Y-130462785D01*
X111640857Y-130569928D01*
X111569428Y-130641357D01*
X111498000Y-130677071D01*
%TO.C,R13*%
X104542785Y-112750142D02*
X104185642Y-113000142D01*
X104542785Y-113178714D02*
X103792785Y-113178714D01*
X103792785Y-112893000D01*
X103828500Y-112821571D01*
X103864214Y-112785857D01*
X103935642Y-112750142D01*
X104042785Y-112750142D01*
X104114214Y-112785857D01*
X104149928Y-112821571D01*
X104185642Y-112893000D01*
X104185642Y-113178714D01*
X104542785Y-112035857D02*
X104542785Y-112464428D01*
X104542785Y-112250142D02*
X103792785Y-112250142D01*
X103899928Y-112321571D01*
X103971357Y-112393000D01*
X104007071Y-112464428D01*
X103792785Y-111785857D02*
X103792785Y-111321571D01*
X104078500Y-111571571D01*
X104078500Y-111464428D01*
X104114214Y-111393000D01*
X104149928Y-111357285D01*
X104221357Y-111321571D01*
X104399928Y-111321571D01*
X104471357Y-111357285D01*
X104507071Y-111393000D01*
X104542785Y-111464428D01*
X104542785Y-111678714D01*
X104507071Y-111750142D01*
X104471357Y-111785857D01*
X104872285Y-112740214D02*
X104872285Y-113097357D01*
X105229428Y-113133071D01*
X105193714Y-113097357D01*
X105158000Y-113025928D01*
X105158000Y-112847357D01*
X105193714Y-112775928D01*
X105229428Y-112740214D01*
X105300857Y-112704500D01*
X105479428Y-112704500D01*
X105550857Y-112740214D01*
X105586571Y-112775928D01*
X105622285Y-112847357D01*
X105622285Y-113025928D01*
X105586571Y-113097357D01*
X105550857Y-113133071D01*
X105622285Y-111990214D02*
X105622285Y-112418785D01*
X105622285Y-112204500D02*
X104872285Y-112204500D01*
X104979428Y-112275928D01*
X105050857Y-112347357D01*
X105086571Y-112418785D01*
X104872285Y-111525928D02*
X104872285Y-111454500D01*
X104908000Y-111383071D01*
X104943714Y-111347357D01*
X105015142Y-111311642D01*
X105158000Y-111275928D01*
X105336571Y-111275928D01*
X105479428Y-111311642D01*
X105550857Y-111347357D01*
X105586571Y-111383071D01*
X105622285Y-111454500D01*
X105622285Y-111525928D01*
X105586571Y-111597357D01*
X105550857Y-111633071D01*
X105479428Y-111668785D01*
X105336571Y-111704500D01*
X105158000Y-111704500D01*
X105015142Y-111668785D01*
X104943714Y-111633071D01*
X104908000Y-111597357D01*
X104872285Y-111525928D01*
%TO.C,J9*%
X107192000Y-84933285D02*
X107192000Y-85469000D01*
X107156285Y-85576142D01*
X107084857Y-85647571D01*
X106977714Y-85683285D01*
X106906285Y-85683285D01*
X107584857Y-85683285D02*
X107727714Y-85683285D01*
X107799142Y-85647571D01*
X107834857Y-85611857D01*
X107906285Y-85504714D01*
X107942000Y-85361857D01*
X107942000Y-85076142D01*
X107906285Y-85004714D01*
X107870571Y-84969000D01*
X107799142Y-84933285D01*
X107656285Y-84933285D01*
X107584857Y-84969000D01*
X107549142Y-85004714D01*
X107513428Y-85076142D01*
X107513428Y-85254714D01*
X107549142Y-85326142D01*
X107584857Y-85361857D01*
X107656285Y-85397571D01*
X107799142Y-85397571D01*
X107870571Y-85361857D01*
X107906285Y-85326142D01*
X107942000Y-85254714D01*
X107299142Y-86520785D02*
X106942000Y-86520785D01*
X106906285Y-86877928D01*
X106942000Y-86842214D01*
X107013428Y-86806500D01*
X107192000Y-86806500D01*
X107263428Y-86842214D01*
X107299142Y-86877928D01*
X107334857Y-86949357D01*
X107334857Y-87127928D01*
X107299142Y-87199357D01*
X107263428Y-87235071D01*
X107192000Y-87270785D01*
X107013428Y-87270785D01*
X106942000Y-87235071D01*
X106906285Y-87199357D01*
X107549142Y-86520785D02*
X107799142Y-87270785D01*
X108049142Y-86520785D01*
%TO.C,D6*%
X70312428Y-123465785D02*
X70312428Y-122715785D01*
X70491000Y-122715785D01*
X70598142Y-122751500D01*
X70669571Y-122822928D01*
X70705285Y-122894357D01*
X70741000Y-123037214D01*
X70741000Y-123144357D01*
X70705285Y-123287214D01*
X70669571Y-123358642D01*
X70598142Y-123430071D01*
X70491000Y-123465785D01*
X70312428Y-123465785D01*
X71383857Y-122715785D02*
X71241000Y-122715785D01*
X71169571Y-122751500D01*
X71133857Y-122787214D01*
X71062428Y-122894357D01*
X71026714Y-123037214D01*
X71026714Y-123322928D01*
X71062428Y-123394357D01*
X71098142Y-123430071D01*
X71169571Y-123465785D01*
X71312428Y-123465785D01*
X71383857Y-123430071D01*
X71419571Y-123394357D01*
X71455285Y-123322928D01*
X71455285Y-123144357D01*
X71419571Y-123072928D01*
X71383857Y-123037214D01*
X71312428Y-123001500D01*
X71169571Y-123001500D01*
X71098142Y-123037214D01*
X71062428Y-123072928D01*
X71026714Y-123144357D01*
X74112500Y-123366571D02*
X74219642Y-123402285D01*
X74398214Y-123402285D01*
X74469642Y-123366571D01*
X74505357Y-123330857D01*
X74541071Y-123259428D01*
X74541071Y-123188000D01*
X74505357Y-123116571D01*
X74469642Y-123080857D01*
X74398214Y-123045142D01*
X74255357Y-123009428D01*
X74183928Y-122973714D01*
X74148214Y-122938000D01*
X74112500Y-122866571D01*
X74112500Y-122795142D01*
X74148214Y-122723714D01*
X74183928Y-122688000D01*
X74255357Y-122652285D01*
X74433928Y-122652285D01*
X74541071Y-122688000D01*
X74755357Y-122652285D02*
X75183928Y-122652285D01*
X74969642Y-123402285D02*
X74969642Y-122652285D01*
%TO.C,J5*%
X96841500Y-118588285D02*
X96841500Y-119124000D01*
X96805785Y-119231142D01*
X96734357Y-119302571D01*
X96627214Y-119338285D01*
X96555785Y-119338285D01*
X97555785Y-118588285D02*
X97198642Y-118588285D01*
X97162928Y-118945428D01*
X97198642Y-118909714D01*
X97270071Y-118874000D01*
X97448642Y-118874000D01*
X97520071Y-118909714D01*
X97555785Y-118945428D01*
X97591500Y-119016857D01*
X97591500Y-119195428D01*
X97555785Y-119266857D01*
X97520071Y-119302571D01*
X97448642Y-119338285D01*
X97270071Y-119338285D01*
X97198642Y-119302571D01*
X97162928Y-119266857D01*
X99038285Y-119060500D02*
X99395428Y-119060500D01*
X98966857Y-119274785D02*
X99216857Y-118524785D01*
X99466857Y-119274785D01*
X99716857Y-119274785D02*
X99716857Y-118524785D01*
X99895428Y-118524785D01*
X100002571Y-118560500D01*
X100074000Y-118631928D01*
X100109714Y-118703357D01*
X100145428Y-118846214D01*
X100145428Y-118953357D01*
X100109714Y-119096214D01*
X100074000Y-119167642D01*
X100002571Y-119239071D01*
X99895428Y-119274785D01*
X99716857Y-119274785D01*
X100788285Y-118774785D02*
X100788285Y-119274785D01*
X100609714Y-118489071D02*
X100431142Y-119024785D01*
X100895428Y-119024785D01*
%TO.C,R12*%
X107717785Y-112623142D02*
X107360642Y-112873142D01*
X107717785Y-113051714D02*
X106967785Y-113051714D01*
X106967785Y-112766000D01*
X107003500Y-112694571D01*
X107039214Y-112658857D01*
X107110642Y-112623142D01*
X107217785Y-112623142D01*
X107289214Y-112658857D01*
X107324928Y-112694571D01*
X107360642Y-112766000D01*
X107360642Y-113051714D01*
X107717785Y-111908857D02*
X107717785Y-112337428D01*
X107717785Y-112123142D02*
X106967785Y-112123142D01*
X107074928Y-112194571D01*
X107146357Y-112266000D01*
X107182071Y-112337428D01*
X107039214Y-111623142D02*
X107003500Y-111587428D01*
X106967785Y-111516000D01*
X106967785Y-111337428D01*
X107003500Y-111266000D01*
X107039214Y-111230285D01*
X107110642Y-111194571D01*
X107182071Y-111194571D01*
X107289214Y-111230285D01*
X107717785Y-111658857D01*
X107717785Y-111194571D01*
X108797285Y-112619214D02*
X108797285Y-113047785D01*
X108797285Y-112833500D02*
X108047285Y-112833500D01*
X108154428Y-112904928D01*
X108225857Y-112976357D01*
X108261571Y-113047785D01*
X108797285Y-112297785D02*
X108047285Y-112297785D01*
X108797285Y-111869214D02*
X108368714Y-112190642D01*
X108047285Y-111869214D02*
X108475857Y-112297785D01*
%TO.C,ADC2*%
X129905285Y-117663500D02*
X130262428Y-117663500D01*
X129833857Y-117877785D02*
X130083857Y-117127785D01*
X130333857Y-117877785D01*
X130583857Y-117877785D02*
X130583857Y-117127785D01*
X130762428Y-117127785D01*
X130869571Y-117163500D01*
X130941000Y-117234928D01*
X130976714Y-117306357D01*
X131012428Y-117449214D01*
X131012428Y-117556357D01*
X130976714Y-117699214D01*
X130941000Y-117770642D01*
X130869571Y-117842071D01*
X130762428Y-117877785D01*
X130583857Y-117877785D01*
X131762428Y-117806357D02*
X131726714Y-117842071D01*
X131619571Y-117877785D01*
X131548142Y-117877785D01*
X131441000Y-117842071D01*
X131369571Y-117770642D01*
X131333857Y-117699214D01*
X131298142Y-117556357D01*
X131298142Y-117449214D01*
X131333857Y-117306357D01*
X131369571Y-117234928D01*
X131441000Y-117163500D01*
X131548142Y-117127785D01*
X131619571Y-117127785D01*
X131726714Y-117163500D01*
X131762428Y-117199214D01*
X132048142Y-117199214D02*
X132083857Y-117163500D01*
X132155285Y-117127785D01*
X132333857Y-117127785D01*
X132405285Y-117163500D01*
X132441000Y-117199214D01*
X132476714Y-117270642D01*
X132476714Y-117342071D01*
X132441000Y-117449214D01*
X132012428Y-117877785D01*
X132476714Y-117877785D01*
X133618000Y-117877785D02*
X133189428Y-117877785D01*
X133403714Y-117877785D02*
X133403714Y-117127785D01*
X133332285Y-117234928D01*
X133260857Y-117306357D01*
X133189428Y-117342071D01*
X134082285Y-117127785D02*
X134153714Y-117127785D01*
X134225142Y-117163500D01*
X134260857Y-117199214D01*
X134296571Y-117270642D01*
X134332285Y-117413500D01*
X134332285Y-117592071D01*
X134296571Y-117734928D01*
X134260857Y-117806357D01*
X134225142Y-117842071D01*
X134153714Y-117877785D01*
X134082285Y-117877785D01*
X134010857Y-117842071D01*
X133975142Y-117806357D01*
X133939428Y-117734928D01*
X133903714Y-117592071D01*
X133903714Y-117413500D01*
X133939428Y-117270642D01*
X133975142Y-117199214D01*
X134010857Y-117163500D01*
X134082285Y-117127785D01*
X134796571Y-117127785D02*
X134868000Y-117127785D01*
X134939428Y-117163500D01*
X134975142Y-117199214D01*
X135010857Y-117270642D01*
X135046571Y-117413500D01*
X135046571Y-117592071D01*
X135010857Y-117734928D01*
X134975142Y-117806357D01*
X134939428Y-117842071D01*
X134868000Y-117877785D01*
X134796571Y-117877785D01*
X134725142Y-117842071D01*
X134689428Y-117806357D01*
X134653714Y-117734928D01*
X134618000Y-117592071D01*
X134618000Y-117413500D01*
X134653714Y-117270642D01*
X134689428Y-117199214D01*
X134725142Y-117163500D01*
X134796571Y-117127785D01*
X135368000Y-117877785D02*
X135368000Y-117127785D01*
X135796571Y-117877785D02*
X135475142Y-117449214D01*
X135796571Y-117127785D02*
X135368000Y-117556357D01*
%TO.C,R17*%
X79337357Y-119020785D02*
X79087357Y-118663642D01*
X78908785Y-119020785D02*
X78908785Y-118270785D01*
X79194500Y-118270785D01*
X79265928Y-118306500D01*
X79301642Y-118342214D01*
X79337357Y-118413642D01*
X79337357Y-118520785D01*
X79301642Y-118592214D01*
X79265928Y-118627928D01*
X79194500Y-118663642D01*
X78908785Y-118663642D01*
X80051642Y-119020785D02*
X79623071Y-119020785D01*
X79837357Y-119020785D02*
X79837357Y-118270785D01*
X79765928Y-118377928D01*
X79694500Y-118449357D01*
X79623071Y-118485071D01*
X80301642Y-118270785D02*
X80801642Y-118270785D01*
X80480214Y-119020785D01*
X78642928Y-119548714D02*
X78678642Y-119513000D01*
X78750071Y-119477285D01*
X78928642Y-119477285D01*
X79000071Y-119513000D01*
X79035785Y-119548714D01*
X79071500Y-119620142D01*
X79071500Y-119691571D01*
X79035785Y-119798714D01*
X78607214Y-120227285D01*
X79071500Y-120227285D01*
X79535785Y-119477285D02*
X79607214Y-119477285D01*
X79678642Y-119513000D01*
X79714357Y-119548714D01*
X79750071Y-119620142D01*
X79785785Y-119763000D01*
X79785785Y-119941571D01*
X79750071Y-120084428D01*
X79714357Y-120155857D01*
X79678642Y-120191571D01*
X79607214Y-120227285D01*
X79535785Y-120227285D01*
X79464357Y-120191571D01*
X79428642Y-120155857D01*
X79392928Y-120084428D01*
X79357214Y-119941571D01*
X79357214Y-119763000D01*
X79392928Y-119620142D01*
X79428642Y-119548714D01*
X79464357Y-119513000D01*
X79535785Y-119477285D01*
X80250071Y-119477285D02*
X80321500Y-119477285D01*
X80392928Y-119513000D01*
X80428642Y-119548714D01*
X80464357Y-119620142D01*
X80500071Y-119763000D01*
X80500071Y-119941571D01*
X80464357Y-120084428D01*
X80428642Y-120155857D01*
X80392928Y-120191571D01*
X80321500Y-120227285D01*
X80250071Y-120227285D01*
X80178642Y-120191571D01*
X80142928Y-120155857D01*
X80107214Y-120084428D01*
X80071500Y-119941571D01*
X80071500Y-119763000D01*
X80107214Y-119620142D01*
X80142928Y-119548714D01*
X80178642Y-119513000D01*
X80250071Y-119477285D01*
X81250071Y-120227285D02*
X81000071Y-119870142D01*
X80821500Y-120227285D02*
X80821500Y-119477285D01*
X81107214Y-119477285D01*
X81178642Y-119513000D01*
X81214357Y-119548714D01*
X81250071Y-119620142D01*
X81250071Y-119727285D01*
X81214357Y-119798714D01*
X81178642Y-119834428D01*
X81107214Y-119870142D01*
X80821500Y-119870142D01*
%TO.C,J4*%
X106049000Y-118651785D02*
X106049000Y-119187500D01*
X106013285Y-119294642D01*
X105941857Y-119366071D01*
X105834714Y-119401785D01*
X105763285Y-119401785D01*
X106727571Y-118901785D02*
X106727571Y-119401785D01*
X106549000Y-118616071D02*
X106370428Y-119151785D01*
X106834714Y-119151785D01*
X107918428Y-124545285D02*
X107668428Y-124188142D01*
X107489857Y-124545285D02*
X107489857Y-123795285D01*
X107775571Y-123795285D01*
X107847000Y-123831000D01*
X107882714Y-123866714D01*
X107918428Y-123938142D01*
X107918428Y-124045285D01*
X107882714Y-124116714D01*
X107847000Y-124152428D01*
X107775571Y-124188142D01*
X107489857Y-124188142D01*
X108489857Y-124152428D02*
X108597000Y-124188142D01*
X108632714Y-124223857D01*
X108668428Y-124295285D01*
X108668428Y-124402428D01*
X108632714Y-124473857D01*
X108597000Y-124509571D01*
X108525571Y-124545285D01*
X108239857Y-124545285D01*
X108239857Y-123795285D01*
X108489857Y-123795285D01*
X108561285Y-123831000D01*
X108597000Y-123866714D01*
X108632714Y-123938142D01*
X108632714Y-124009571D01*
X108597000Y-124081000D01*
X108561285Y-124116714D01*
X108489857Y-124152428D01*
X108239857Y-124152428D01*
X108811285Y-124616714D02*
X109382714Y-124616714D01*
X109525571Y-124509571D02*
X109632714Y-124545285D01*
X109811285Y-124545285D01*
X109882714Y-124509571D01*
X109918428Y-124473857D01*
X109954142Y-124402428D01*
X109954142Y-124331000D01*
X109918428Y-124259571D01*
X109882714Y-124223857D01*
X109811285Y-124188142D01*
X109668428Y-124152428D01*
X109597000Y-124116714D01*
X109561285Y-124081000D01*
X109525571Y-124009571D01*
X109525571Y-123938142D01*
X109561285Y-123866714D01*
X109597000Y-123831000D01*
X109668428Y-123795285D01*
X109847000Y-123795285D01*
X109954142Y-123831000D01*
X110275571Y-124152428D02*
X110525571Y-124152428D01*
X110632714Y-124545285D02*
X110275571Y-124545285D01*
X110275571Y-123795285D01*
X110632714Y-123795285D01*
X111311285Y-124545285D02*
X110954142Y-124545285D01*
X110954142Y-123795285D01*
%TO.C,U3*%
X68613785Y-106362428D02*
X69220928Y-106362428D01*
X69292357Y-106326714D01*
X69328071Y-106291000D01*
X69363785Y-106219571D01*
X69363785Y-106076714D01*
X69328071Y-106005285D01*
X69292357Y-105969571D01*
X69220928Y-105933857D01*
X68613785Y-105933857D01*
X68613785Y-105648142D02*
X68613785Y-105183857D01*
X68899500Y-105433857D01*
X68899500Y-105326714D01*
X68935214Y-105255285D01*
X68970928Y-105219571D01*
X69042357Y-105183857D01*
X69220928Y-105183857D01*
X69292357Y-105219571D01*
X69328071Y-105255285D01*
X69363785Y-105326714D01*
X69363785Y-105541000D01*
X69328071Y-105612428D01*
X69292357Y-105648142D01*
X69236785Y-101320000D02*
X69236785Y-101677142D01*
X68486785Y-101677142D01*
X69236785Y-101070000D02*
X68486785Y-101070000D01*
X69022500Y-100820000D01*
X68486785Y-100570000D01*
X69236785Y-100570000D01*
X68486785Y-100284285D02*
X68486785Y-99784285D01*
X69236785Y-100105714D01*
X68808214Y-99391428D02*
X68772500Y-99462857D01*
X68736785Y-99498571D01*
X68665357Y-99534285D01*
X68629642Y-99534285D01*
X68558214Y-99498571D01*
X68522500Y-99462857D01*
X68486785Y-99391428D01*
X68486785Y-99248571D01*
X68522500Y-99177142D01*
X68558214Y-99141428D01*
X68629642Y-99105714D01*
X68665357Y-99105714D01*
X68736785Y-99141428D01*
X68772500Y-99177142D01*
X68808214Y-99248571D01*
X68808214Y-99391428D01*
X68843928Y-99462857D01*
X68879642Y-99498571D01*
X68951071Y-99534285D01*
X69093928Y-99534285D01*
X69165357Y-99498571D01*
X69201071Y-99462857D01*
X69236785Y-99391428D01*
X69236785Y-99248571D01*
X69201071Y-99177142D01*
X69165357Y-99141428D01*
X69093928Y-99105714D01*
X68951071Y-99105714D01*
X68879642Y-99141428D01*
X68843928Y-99177142D01*
X68808214Y-99248571D01*
X68486785Y-98641428D02*
X68486785Y-98570000D01*
X68522500Y-98498571D01*
X68558214Y-98462857D01*
X68629642Y-98427142D01*
X68772500Y-98391428D01*
X68951071Y-98391428D01*
X69093928Y-98427142D01*
X69165357Y-98462857D01*
X69201071Y-98498571D01*
X69236785Y-98570000D01*
X69236785Y-98641428D01*
X69201071Y-98712857D01*
X69165357Y-98748571D01*
X69093928Y-98784285D01*
X68951071Y-98820000D01*
X68772500Y-98820000D01*
X68629642Y-98784285D01*
X68558214Y-98748571D01*
X68522500Y-98712857D01*
X68486785Y-98641428D01*
X68486785Y-97712857D02*
X68486785Y-98070000D01*
X68843928Y-98105714D01*
X68808214Y-98070000D01*
X68772500Y-97998571D01*
X68772500Y-97820000D01*
X68808214Y-97748571D01*
X68843928Y-97712857D01*
X68915357Y-97677142D01*
X69093928Y-97677142D01*
X69165357Y-97712857D01*
X69201071Y-97748571D01*
X69236785Y-97820000D01*
X69236785Y-97998571D01*
X69201071Y-98070000D01*
X69165357Y-98105714D01*
%TO.C,J3*%
X124654500Y-112365285D02*
X124654500Y-112901000D01*
X124618785Y-113008142D01*
X124547357Y-113079571D01*
X124440214Y-113115285D01*
X124368785Y-113115285D01*
X124940214Y-112365285D02*
X125404500Y-112365285D01*
X125154500Y-112651000D01*
X125261642Y-112651000D01*
X125333071Y-112686714D01*
X125368785Y-112722428D01*
X125404500Y-112793857D01*
X125404500Y-112972428D01*
X125368785Y-113043857D01*
X125333071Y-113079571D01*
X125261642Y-113115285D01*
X125047357Y-113115285D01*
X124975928Y-113079571D01*
X124940214Y-113043857D01*
X126152785Y-112901000D02*
X126509928Y-112901000D01*
X126081357Y-113115285D02*
X126331357Y-112365285D01*
X126581357Y-113115285D01*
X126831357Y-113115285D02*
X126831357Y-112365285D01*
X127009928Y-112365285D01*
X127117071Y-112401000D01*
X127188500Y-112472428D01*
X127224214Y-112543857D01*
X127259928Y-112686714D01*
X127259928Y-112793857D01*
X127224214Y-112936714D01*
X127188500Y-113008142D01*
X127117071Y-113079571D01*
X127009928Y-113115285D01*
X126831357Y-113115285D01*
X127974214Y-113115285D02*
X127545642Y-113115285D01*
X127759928Y-113115285D02*
X127759928Y-112365285D01*
X127688500Y-112472428D01*
X127617071Y-112543857D01*
X127545642Y-112579571D01*
%TO.C,D5*%
X73995428Y-107908285D02*
X73995428Y-107158285D01*
X74174000Y-107158285D01*
X74281142Y-107194000D01*
X74352571Y-107265428D01*
X74388285Y-107336857D01*
X74424000Y-107479714D01*
X74424000Y-107586857D01*
X74388285Y-107729714D01*
X74352571Y-107801142D01*
X74281142Y-107872571D01*
X74174000Y-107908285D01*
X73995428Y-107908285D01*
X75102571Y-107158285D02*
X74745428Y-107158285D01*
X74709714Y-107515428D01*
X74745428Y-107479714D01*
X74816857Y-107444000D01*
X74995428Y-107444000D01*
X75066857Y-107479714D01*
X75102571Y-107515428D01*
X75138285Y-107586857D01*
X75138285Y-107765428D01*
X75102571Y-107836857D01*
X75066857Y-107872571D01*
X74995428Y-107908285D01*
X74816857Y-107908285D01*
X74745428Y-107872571D01*
X74709714Y-107836857D01*
X76243857Y-107908285D02*
X75815285Y-107908285D01*
X76029571Y-107908285D02*
X76029571Y-107158285D01*
X75958142Y-107265428D01*
X75886714Y-107336857D01*
X75815285Y-107372571D01*
X76565285Y-107908285D02*
X76565285Y-107158285D01*
X76993857Y-107908285D01*
X76993857Y-107158285D01*
X77672428Y-107408285D02*
X77672428Y-107908285D01*
X77493857Y-107122571D02*
X77315285Y-107658285D01*
X77779571Y-107658285D01*
X78458142Y-107908285D02*
X78029571Y-107908285D01*
X78243857Y-107908285D02*
X78243857Y-107158285D01*
X78172428Y-107265428D01*
X78101000Y-107336857D01*
X78029571Y-107372571D01*
X79101000Y-107408285D02*
X79101000Y-107908285D01*
X78922428Y-107122571D02*
X78743857Y-107658285D01*
X79208142Y-107658285D01*
X79601000Y-107479714D02*
X79529571Y-107444000D01*
X79493857Y-107408285D01*
X79458142Y-107336857D01*
X79458142Y-107301142D01*
X79493857Y-107229714D01*
X79529571Y-107194000D01*
X79601000Y-107158285D01*
X79743857Y-107158285D01*
X79815285Y-107194000D01*
X79851000Y-107229714D01*
X79886714Y-107301142D01*
X79886714Y-107336857D01*
X79851000Y-107408285D01*
X79815285Y-107444000D01*
X79743857Y-107479714D01*
X79601000Y-107479714D01*
X79529571Y-107515428D01*
X79493857Y-107551142D01*
X79458142Y-107622571D01*
X79458142Y-107765428D01*
X79493857Y-107836857D01*
X79529571Y-107872571D01*
X79601000Y-107908285D01*
X79743857Y-107908285D01*
X79815285Y-107872571D01*
X79851000Y-107836857D01*
X79886714Y-107765428D01*
X79886714Y-107622571D01*
X79851000Y-107551142D01*
X79815285Y-107515428D01*
X79743857Y-107479714D01*
%TO.C,J1*%
X117161500Y-115540285D02*
X117161500Y-116076000D01*
X117125785Y-116183142D01*
X117054357Y-116254571D01*
X116947214Y-116290285D01*
X116875785Y-116290285D01*
X117911500Y-116290285D02*
X117482928Y-116290285D01*
X117697214Y-116290285D02*
X117697214Y-115540285D01*
X117625785Y-115647428D01*
X117554357Y-115718857D01*
X117482928Y-115754571D01*
X118967428Y-121433785D02*
X118717428Y-121076642D01*
X118538857Y-121433785D02*
X118538857Y-120683785D01*
X118824571Y-120683785D01*
X118896000Y-120719500D01*
X118931714Y-120755214D01*
X118967428Y-120826642D01*
X118967428Y-120933785D01*
X118931714Y-121005214D01*
X118896000Y-121040928D01*
X118824571Y-121076642D01*
X118538857Y-121076642D01*
X119717428Y-121362357D02*
X119681714Y-121398071D01*
X119574571Y-121433785D01*
X119503142Y-121433785D01*
X119396000Y-121398071D01*
X119324571Y-121326642D01*
X119288857Y-121255214D01*
X119253142Y-121112357D01*
X119253142Y-121005214D01*
X119288857Y-120862357D01*
X119324571Y-120790928D01*
X119396000Y-120719500D01*
X119503142Y-120683785D01*
X119574571Y-120683785D01*
X119681714Y-120719500D01*
X119717428Y-120755214D01*
X119860285Y-121505214D02*
X120431714Y-121505214D01*
X120574571Y-121398071D02*
X120681714Y-121433785D01*
X120860285Y-121433785D01*
X120931714Y-121398071D01*
X120967428Y-121362357D01*
X121003142Y-121290928D01*
X121003142Y-121219500D01*
X120967428Y-121148071D01*
X120931714Y-121112357D01*
X120860285Y-121076642D01*
X120717428Y-121040928D01*
X120646000Y-121005214D01*
X120610285Y-120969500D01*
X120574571Y-120898071D01*
X120574571Y-120826642D01*
X120610285Y-120755214D01*
X120646000Y-120719500D01*
X120717428Y-120683785D01*
X120896000Y-120683785D01*
X121003142Y-120719500D01*
X121324571Y-121040928D02*
X121574571Y-121040928D01*
X121681714Y-121433785D02*
X121324571Y-121433785D01*
X121324571Y-120683785D01*
X121681714Y-120683785D01*
X122360285Y-121433785D02*
X122003142Y-121433785D01*
X122003142Y-120683785D01*
%TO.C,R15*%
X73431857Y-95462285D02*
X73181857Y-95105142D01*
X73003285Y-95462285D02*
X73003285Y-94712285D01*
X73289000Y-94712285D01*
X73360428Y-94748000D01*
X73396142Y-94783714D01*
X73431857Y-94855142D01*
X73431857Y-94962285D01*
X73396142Y-95033714D01*
X73360428Y-95069428D01*
X73289000Y-95105142D01*
X73003285Y-95105142D01*
X74146142Y-95462285D02*
X73717571Y-95462285D01*
X73931857Y-95462285D02*
X73931857Y-94712285D01*
X73860428Y-94819428D01*
X73789000Y-94890857D01*
X73717571Y-94926571D01*
X74824714Y-94712285D02*
X74467571Y-94712285D01*
X74431857Y-95069428D01*
X74467571Y-95033714D01*
X74539000Y-94998000D01*
X74717571Y-94998000D01*
X74789000Y-95033714D01*
X74824714Y-95069428D01*
X74860428Y-95140857D01*
X74860428Y-95319428D01*
X74824714Y-95390857D01*
X74789000Y-95426571D01*
X74717571Y-95462285D01*
X74539000Y-95462285D01*
X74467571Y-95426571D01*
X74431857Y-95390857D01*
X74134285Y-98192785D02*
X73705714Y-98192785D01*
X73920000Y-98192785D02*
X73920000Y-97442785D01*
X73848571Y-97549928D01*
X73777142Y-97621357D01*
X73705714Y-97657071D01*
X74455714Y-98192785D02*
X74455714Y-97442785D01*
X74884285Y-98192785D02*
X74562857Y-97764214D01*
X74884285Y-97442785D02*
X74455714Y-97871357D01*
%TO.C,C13*%
X73304857Y-84278357D02*
X73269142Y-84314071D01*
X73162000Y-84349785D01*
X73090571Y-84349785D01*
X72983428Y-84314071D01*
X72912000Y-84242642D01*
X72876285Y-84171214D01*
X72840571Y-84028357D01*
X72840571Y-83921214D01*
X72876285Y-83778357D01*
X72912000Y-83706928D01*
X72983428Y-83635500D01*
X73090571Y-83599785D01*
X73162000Y-83599785D01*
X73269142Y-83635500D01*
X73304857Y-83671214D01*
X74019142Y-84349785D02*
X73590571Y-84349785D01*
X73804857Y-84349785D02*
X73804857Y-83599785D01*
X73733428Y-83706928D01*
X73662000Y-83778357D01*
X73590571Y-83814071D01*
X74269142Y-83599785D02*
X74733428Y-83599785D01*
X74483428Y-83885500D01*
X74590571Y-83885500D01*
X74662000Y-83921214D01*
X74697714Y-83956928D01*
X74733428Y-84028357D01*
X74733428Y-84206928D01*
X74697714Y-84278357D01*
X74662000Y-84314071D01*
X74590571Y-84349785D01*
X74376285Y-84349785D01*
X74304857Y-84314071D01*
X74269142Y-84278357D01*
X74106500Y-85302285D02*
X73677928Y-85302285D01*
X73892214Y-85302285D02*
X73892214Y-84552285D01*
X73820785Y-84659428D01*
X73749357Y-84730857D01*
X73677928Y-84766571D01*
X74427928Y-84802285D02*
X74427928Y-85302285D01*
X74427928Y-84873714D02*
X74463642Y-84838000D01*
X74535071Y-84802285D01*
X74642214Y-84802285D01*
X74713642Y-84838000D01*
X74749357Y-84909428D01*
X74749357Y-85302285D01*
%TO.C,C12*%
X73304857Y-92723857D02*
X73269142Y-92759571D01*
X73162000Y-92795285D01*
X73090571Y-92795285D01*
X72983428Y-92759571D01*
X72912000Y-92688142D01*
X72876285Y-92616714D01*
X72840571Y-92473857D01*
X72840571Y-92366714D01*
X72876285Y-92223857D01*
X72912000Y-92152428D01*
X72983428Y-92081000D01*
X73090571Y-92045285D01*
X73162000Y-92045285D01*
X73269142Y-92081000D01*
X73304857Y-92116714D01*
X74019142Y-92795285D02*
X73590571Y-92795285D01*
X73804857Y-92795285D02*
X73804857Y-92045285D01*
X73733428Y-92152428D01*
X73662000Y-92223857D01*
X73590571Y-92259571D01*
X74304857Y-92116714D02*
X74340571Y-92081000D01*
X74412000Y-92045285D01*
X74590571Y-92045285D01*
X74662000Y-92081000D01*
X74697714Y-92116714D01*
X74733428Y-92188142D01*
X74733428Y-92259571D01*
X74697714Y-92366714D01*
X74269142Y-92795285D01*
X74733428Y-92795285D01*
X74106500Y-93684285D02*
X73677928Y-93684285D01*
X73892214Y-93684285D02*
X73892214Y-92934285D01*
X73820785Y-93041428D01*
X73749357Y-93112857D01*
X73677928Y-93148571D01*
X74427928Y-93184285D02*
X74427928Y-93684285D01*
X74427928Y-93255714D02*
X74463642Y-93220000D01*
X74535071Y-93184285D01*
X74642214Y-93184285D01*
X74713642Y-93220000D01*
X74749357Y-93291428D01*
X74749357Y-93684285D01*
%TO.C,Q1*%
X100258571Y-102010714D02*
X100187142Y-101975000D01*
X100115714Y-101903571D01*
X100008571Y-101796428D01*
X99937142Y-101760714D01*
X99865714Y-101760714D01*
X99901428Y-101939285D02*
X99830000Y-101903571D01*
X99758571Y-101832142D01*
X99722857Y-101689285D01*
X99722857Y-101439285D01*
X99758571Y-101296428D01*
X99830000Y-101225000D01*
X99901428Y-101189285D01*
X100044285Y-101189285D01*
X100115714Y-101225000D01*
X100187142Y-101296428D01*
X100222857Y-101439285D01*
X100222857Y-101689285D01*
X100187142Y-101832142D01*
X100115714Y-101903571D01*
X100044285Y-101939285D01*
X99901428Y-101939285D01*
X100937142Y-101939285D02*
X100508571Y-101939285D01*
X100722857Y-101939285D02*
X100722857Y-101189285D01*
X100651428Y-101296428D01*
X100580000Y-101367857D01*
X100508571Y-101403571D01*
X104072785Y-101197214D02*
X104108500Y-101161500D01*
X104179928Y-101125785D01*
X104358500Y-101125785D01*
X104429928Y-101161500D01*
X104465642Y-101197214D01*
X104501357Y-101268642D01*
X104501357Y-101340071D01*
X104465642Y-101447214D01*
X104037071Y-101875785D01*
X104501357Y-101875785D01*
X104822785Y-101875785D02*
X104822785Y-101125785D01*
X105251357Y-101875785D01*
X105251357Y-101125785D01*
X105537071Y-101125785D02*
X106001357Y-101125785D01*
X105751357Y-101411500D01*
X105858500Y-101411500D01*
X105929928Y-101447214D01*
X105965642Y-101482928D01*
X106001357Y-101554357D01*
X106001357Y-101732928D01*
X105965642Y-101804357D01*
X105929928Y-101840071D01*
X105858500Y-101875785D01*
X105644214Y-101875785D01*
X105572785Y-101840071D01*
X105537071Y-101804357D01*
X106358500Y-101875785D02*
X106501357Y-101875785D01*
X106572785Y-101840071D01*
X106608500Y-101804357D01*
X106679928Y-101697214D01*
X106715642Y-101554357D01*
X106715642Y-101268642D01*
X106679928Y-101197214D01*
X106644214Y-101161500D01*
X106572785Y-101125785D01*
X106429928Y-101125785D01*
X106358500Y-101161500D01*
X106322785Y-101197214D01*
X106287071Y-101268642D01*
X106287071Y-101447214D01*
X106322785Y-101518642D01*
X106358500Y-101554357D01*
X106429928Y-101590071D01*
X106572785Y-101590071D01*
X106644214Y-101554357D01*
X106679928Y-101518642D01*
X106715642Y-101447214D01*
X107179928Y-101125785D02*
X107251357Y-101125785D01*
X107322785Y-101161500D01*
X107358500Y-101197214D01*
X107394214Y-101268642D01*
X107429928Y-101411500D01*
X107429928Y-101590071D01*
X107394214Y-101732928D01*
X107358500Y-101804357D01*
X107322785Y-101840071D01*
X107251357Y-101875785D01*
X107179928Y-101875785D01*
X107108500Y-101840071D01*
X107072785Y-101804357D01*
X107037071Y-101732928D01*
X107001357Y-101590071D01*
X107001357Y-101411500D01*
X107037071Y-101268642D01*
X107072785Y-101197214D01*
X107108500Y-101161500D01*
X107179928Y-101125785D01*
X108072785Y-101375785D02*
X108072785Y-101875785D01*
X107894214Y-101090071D02*
X107715642Y-101625785D01*
X108179928Y-101625785D01*
%TO.C,R3*%
X102935500Y-91461785D02*
X102685500Y-91104642D01*
X102506928Y-91461785D02*
X102506928Y-90711785D01*
X102792642Y-90711785D01*
X102864071Y-90747500D01*
X102899785Y-90783214D01*
X102935500Y-90854642D01*
X102935500Y-90961785D01*
X102899785Y-91033214D01*
X102864071Y-91068928D01*
X102792642Y-91104642D01*
X102506928Y-91104642D01*
X103185500Y-90711785D02*
X103649785Y-90711785D01*
X103399785Y-90997500D01*
X103506928Y-90997500D01*
X103578357Y-91033214D01*
X103614071Y-91068928D01*
X103649785Y-91140357D01*
X103649785Y-91318928D01*
X103614071Y-91390357D01*
X103578357Y-91426071D01*
X103506928Y-91461785D01*
X103292642Y-91461785D01*
X103221214Y-91426071D01*
X103185500Y-91390357D01*
X102352142Y-92731785D02*
X101923571Y-92731785D01*
X102137857Y-92731785D02*
X102137857Y-91981785D01*
X102066428Y-92088928D01*
X101995000Y-92160357D01*
X101923571Y-92196071D01*
X102816428Y-91981785D02*
X102887857Y-91981785D01*
X102959285Y-92017500D01*
X102995000Y-92053214D01*
X103030714Y-92124642D01*
X103066428Y-92267500D01*
X103066428Y-92446071D01*
X103030714Y-92588928D01*
X102995000Y-92660357D01*
X102959285Y-92696071D01*
X102887857Y-92731785D01*
X102816428Y-92731785D01*
X102745000Y-92696071D01*
X102709285Y-92660357D01*
X102673571Y-92588928D01*
X102637857Y-92446071D01*
X102637857Y-92267500D01*
X102673571Y-92124642D01*
X102709285Y-92053214D01*
X102745000Y-92017500D01*
X102816428Y-91981785D01*
X103387857Y-92731785D02*
X103387857Y-91981785D01*
X103816428Y-92731785D02*
X103495000Y-92303214D01*
X103816428Y-91981785D02*
X103387857Y-92410357D01*
%TO.C,R9*%
X129859500Y-100986785D02*
X129609500Y-100629642D01*
X129430928Y-100986785D02*
X129430928Y-100236785D01*
X129716642Y-100236785D01*
X129788071Y-100272500D01*
X129823785Y-100308214D01*
X129859500Y-100379642D01*
X129859500Y-100486785D01*
X129823785Y-100558214D01*
X129788071Y-100593928D01*
X129716642Y-100629642D01*
X129430928Y-100629642D01*
X130216642Y-100986785D02*
X130359500Y-100986785D01*
X130430928Y-100951071D01*
X130466642Y-100915357D01*
X130538071Y-100808214D01*
X130573785Y-100665357D01*
X130573785Y-100379642D01*
X130538071Y-100308214D01*
X130502357Y-100272500D01*
X130430928Y-100236785D01*
X130288071Y-100236785D01*
X130216642Y-100272500D01*
X130180928Y-100308214D01*
X130145214Y-100379642D01*
X130145214Y-100558214D01*
X130180928Y-100629642D01*
X130216642Y-100665357D01*
X130288071Y-100701071D01*
X130430928Y-100701071D01*
X130502357Y-100665357D01*
X130538071Y-100629642D01*
X130573785Y-100558214D01*
X129760285Y-102383785D02*
X129331714Y-102383785D01*
X129546000Y-102383785D02*
X129546000Y-101633785D01*
X129474571Y-101740928D01*
X129403142Y-101812357D01*
X129331714Y-101848071D01*
X130081714Y-102383785D02*
X130081714Y-101633785D01*
X130510285Y-102383785D02*
X130188857Y-101955214D01*
X130510285Y-101633785D02*
X130081714Y-102062357D01*
%TO.C,R1*%
X111430000Y-77936285D02*
X111180000Y-77579142D01*
X111001428Y-77936285D02*
X111001428Y-77186285D01*
X111287142Y-77186285D01*
X111358571Y-77222000D01*
X111394285Y-77257714D01*
X111430000Y-77329142D01*
X111430000Y-77436285D01*
X111394285Y-77507714D01*
X111358571Y-77543428D01*
X111287142Y-77579142D01*
X111001428Y-77579142D01*
X112144285Y-77936285D02*
X111715714Y-77936285D01*
X111930000Y-77936285D02*
X111930000Y-77186285D01*
X111858571Y-77293428D01*
X111787142Y-77364857D01*
X111715714Y-77400571D01*
X113767642Y-77936285D02*
X113339071Y-77936285D01*
X113553357Y-77936285D02*
X113553357Y-77186285D01*
X113481928Y-77293428D01*
X113410500Y-77364857D01*
X113339071Y-77400571D01*
X114231928Y-77186285D02*
X114303357Y-77186285D01*
X114374785Y-77222000D01*
X114410500Y-77257714D01*
X114446214Y-77329142D01*
X114481928Y-77472000D01*
X114481928Y-77650571D01*
X114446214Y-77793428D01*
X114410500Y-77864857D01*
X114374785Y-77900571D01*
X114303357Y-77936285D01*
X114231928Y-77936285D01*
X114160500Y-77900571D01*
X114124785Y-77864857D01*
X114089071Y-77793428D01*
X114053357Y-77650571D01*
X114053357Y-77472000D01*
X114089071Y-77329142D01*
X114124785Y-77257714D01*
X114160500Y-77222000D01*
X114231928Y-77186285D01*
X114803357Y-77936285D02*
X114803357Y-77186285D01*
X115231928Y-77936285D02*
X114910500Y-77507714D01*
X115231928Y-77186285D02*
X114803357Y-77614857D01*
%TO.C,C10*%
X73177857Y-89866357D02*
X73142142Y-89902071D01*
X73035000Y-89937785D01*
X72963571Y-89937785D01*
X72856428Y-89902071D01*
X72785000Y-89830642D01*
X72749285Y-89759214D01*
X72713571Y-89616357D01*
X72713571Y-89509214D01*
X72749285Y-89366357D01*
X72785000Y-89294928D01*
X72856428Y-89223500D01*
X72963571Y-89187785D01*
X73035000Y-89187785D01*
X73142142Y-89223500D01*
X73177857Y-89259214D01*
X73892142Y-89937785D02*
X73463571Y-89937785D01*
X73677857Y-89937785D02*
X73677857Y-89187785D01*
X73606428Y-89294928D01*
X73535000Y-89366357D01*
X73463571Y-89402071D01*
X74356428Y-89187785D02*
X74427857Y-89187785D01*
X74499285Y-89223500D01*
X74535000Y-89259214D01*
X74570714Y-89330642D01*
X74606428Y-89473500D01*
X74606428Y-89652071D01*
X74570714Y-89794928D01*
X74535000Y-89866357D01*
X74499285Y-89902071D01*
X74427857Y-89937785D01*
X74356428Y-89937785D01*
X74285000Y-89902071D01*
X74249285Y-89866357D01*
X74213571Y-89794928D01*
X74177857Y-89652071D01*
X74177857Y-89473500D01*
X74213571Y-89330642D01*
X74249285Y-89259214D01*
X74285000Y-89223500D01*
X74356428Y-89187785D01*
X74106500Y-90890285D02*
X73677928Y-90890285D01*
X73892214Y-90890285D02*
X73892214Y-90140285D01*
X73820785Y-90247428D01*
X73749357Y-90318857D01*
X73677928Y-90354571D01*
X74427928Y-90390285D02*
X74427928Y-90890285D01*
X74427928Y-90461714D02*
X74463642Y-90426000D01*
X74535071Y-90390285D01*
X74642214Y-90390285D01*
X74713642Y-90426000D01*
X74749357Y-90497428D01*
X74749357Y-90890285D01*
%TO.C,C4*%
X60835000Y-95771857D02*
X60799285Y-95807571D01*
X60692142Y-95843285D01*
X60620714Y-95843285D01*
X60513571Y-95807571D01*
X60442142Y-95736142D01*
X60406428Y-95664714D01*
X60370714Y-95521857D01*
X60370714Y-95414714D01*
X60406428Y-95271857D01*
X60442142Y-95200428D01*
X60513571Y-95129000D01*
X60620714Y-95093285D01*
X60692142Y-95093285D01*
X60799285Y-95129000D01*
X60835000Y-95164714D01*
X61477857Y-95343285D02*
X61477857Y-95843285D01*
X61299285Y-95057571D02*
X61120714Y-95593285D01*
X61585000Y-95593285D01*
X61382785Y-96307714D02*
X61418500Y-96272000D01*
X61489928Y-96236285D01*
X61668500Y-96236285D01*
X61739928Y-96272000D01*
X61775642Y-96307714D01*
X61811357Y-96379142D01*
X61811357Y-96450571D01*
X61775642Y-96557714D01*
X61347071Y-96986285D01*
X61811357Y-96986285D01*
X62097071Y-96307714D02*
X62132785Y-96272000D01*
X62204214Y-96236285D01*
X62382785Y-96236285D01*
X62454214Y-96272000D01*
X62489928Y-96307714D01*
X62525642Y-96379142D01*
X62525642Y-96450571D01*
X62489928Y-96557714D01*
X62061357Y-96986285D01*
X62525642Y-96986285D01*
X63168500Y-96486285D02*
X63168500Y-96986285D01*
X62847071Y-96486285D02*
X62847071Y-96879142D01*
X62882785Y-96950571D01*
X62954214Y-96986285D01*
X63061357Y-96986285D01*
X63132785Y-96950571D01*
X63168500Y-96914857D01*
%TO.C,R2*%
X102999000Y-96541785D02*
X102749000Y-96184642D01*
X102570428Y-96541785D02*
X102570428Y-95791785D01*
X102856142Y-95791785D01*
X102927571Y-95827500D01*
X102963285Y-95863214D01*
X102999000Y-95934642D01*
X102999000Y-96041785D01*
X102963285Y-96113214D01*
X102927571Y-96148928D01*
X102856142Y-96184642D01*
X102570428Y-96184642D01*
X103284714Y-95863214D02*
X103320428Y-95827500D01*
X103391857Y-95791785D01*
X103570428Y-95791785D01*
X103641857Y-95827500D01*
X103677571Y-95863214D01*
X103713285Y-95934642D01*
X103713285Y-96006071D01*
X103677571Y-96113214D01*
X103249000Y-96541785D01*
X103713285Y-96541785D01*
X102038642Y-97248285D02*
X102038642Y-97748285D01*
X101860071Y-96962571D02*
X101681500Y-97498285D01*
X102145785Y-97498285D01*
X102431500Y-97676857D02*
X102467214Y-97712571D01*
X102431500Y-97748285D01*
X102395785Y-97712571D01*
X102431500Y-97676857D01*
X102431500Y-97748285D01*
X102717214Y-96998285D02*
X103217214Y-96998285D01*
X102895785Y-97748285D01*
X103502928Y-97748285D02*
X103502928Y-96998285D01*
X103931500Y-97748285D02*
X103610071Y-97319714D01*
X103931500Y-96998285D02*
X103502928Y-97426857D01*
%TO.C,C11*%
X73495357Y-87135857D02*
X73459642Y-87171571D01*
X73352500Y-87207285D01*
X73281071Y-87207285D01*
X73173928Y-87171571D01*
X73102500Y-87100142D01*
X73066785Y-87028714D01*
X73031071Y-86885857D01*
X73031071Y-86778714D01*
X73066785Y-86635857D01*
X73102500Y-86564428D01*
X73173928Y-86493000D01*
X73281071Y-86457285D01*
X73352500Y-86457285D01*
X73459642Y-86493000D01*
X73495357Y-86528714D01*
X74209642Y-87207285D02*
X73781071Y-87207285D01*
X73995357Y-87207285D02*
X73995357Y-86457285D01*
X73923928Y-86564428D01*
X73852500Y-86635857D01*
X73781071Y-86671571D01*
X74923928Y-87207285D02*
X74495357Y-87207285D01*
X74709642Y-87207285D02*
X74709642Y-86457285D01*
X74638214Y-86564428D01*
X74566785Y-86635857D01*
X74495357Y-86671571D01*
X73979500Y-88223285D02*
X73550928Y-88223285D01*
X73765214Y-88223285D02*
X73765214Y-87473285D01*
X73693785Y-87580428D01*
X73622357Y-87651857D01*
X73550928Y-87687571D01*
X74300928Y-87723285D02*
X74300928Y-88223285D01*
X74300928Y-87794714D02*
X74336642Y-87759000D01*
X74408071Y-87723285D01*
X74515214Y-87723285D01*
X74586642Y-87759000D01*
X74622357Y-87830428D01*
X74622357Y-88223285D01*
%TO.C,C8*%
X57850500Y-64847357D02*
X57814785Y-64883071D01*
X57707642Y-64918785D01*
X57636214Y-64918785D01*
X57529071Y-64883071D01*
X57457642Y-64811642D01*
X57421928Y-64740214D01*
X57386214Y-64597357D01*
X57386214Y-64490214D01*
X57421928Y-64347357D01*
X57457642Y-64275928D01*
X57529071Y-64204500D01*
X57636214Y-64168785D01*
X57707642Y-64168785D01*
X57814785Y-64204500D01*
X57850500Y-64240214D01*
X58279071Y-64490214D02*
X58207642Y-64454500D01*
X58171928Y-64418785D01*
X58136214Y-64347357D01*
X58136214Y-64311642D01*
X58171928Y-64240214D01*
X58207642Y-64204500D01*
X58279071Y-64168785D01*
X58421928Y-64168785D01*
X58493357Y-64204500D01*
X58529071Y-64240214D01*
X58564785Y-64311642D01*
X58564785Y-64347357D01*
X58529071Y-64418785D01*
X58493357Y-64454500D01*
X58421928Y-64490214D01*
X58279071Y-64490214D01*
X58207642Y-64525928D01*
X58171928Y-64561642D01*
X58136214Y-64633071D01*
X58136214Y-64775928D01*
X58171928Y-64847357D01*
X58207642Y-64883071D01*
X58279071Y-64918785D01*
X58421928Y-64918785D01*
X58493357Y-64883071D01*
X58529071Y-64847357D01*
X58564785Y-64775928D01*
X58564785Y-64633071D01*
X58529071Y-64561642D01*
X58493357Y-64525928D01*
X58421928Y-64490214D01*
X60215928Y-64736285D02*
X60215928Y-65236285D01*
X60037357Y-64450571D02*
X59858785Y-64986285D01*
X60323071Y-64986285D01*
X60537357Y-64486285D02*
X61037357Y-64486285D01*
X60715928Y-65236285D01*
X61644500Y-64736285D02*
X61644500Y-65236285D01*
X61323071Y-64736285D02*
X61323071Y-65129142D01*
X61358785Y-65200571D01*
X61430214Y-65236285D01*
X61537357Y-65236285D01*
X61608785Y-65200571D01*
X61644500Y-65164857D01*
%TO.C,C2*%
X106044357Y-67244500D02*
X106080071Y-67280214D01*
X106115785Y-67387357D01*
X106115785Y-67458785D01*
X106080071Y-67565928D01*
X106008642Y-67637357D01*
X105937214Y-67673071D01*
X105794357Y-67708785D01*
X105687214Y-67708785D01*
X105544357Y-67673071D01*
X105472928Y-67637357D01*
X105401500Y-67565928D01*
X105365785Y-67458785D01*
X105365785Y-67387357D01*
X105401500Y-67280214D01*
X105437214Y-67244500D01*
X105437214Y-66958785D02*
X105401500Y-66923071D01*
X105365785Y-66851642D01*
X105365785Y-66673071D01*
X105401500Y-66601642D01*
X105437214Y-66565928D01*
X105508642Y-66530214D01*
X105580071Y-66530214D01*
X105687214Y-66565928D01*
X106115785Y-66994500D01*
X106115785Y-66530214D01*
X107068285Y-67284142D02*
X107068285Y-67712714D01*
X107068285Y-67498428D02*
X106318285Y-67498428D01*
X106425428Y-67569857D01*
X106496857Y-67641285D01*
X106532571Y-67712714D01*
X106318285Y-66819857D02*
X106318285Y-66748428D01*
X106354000Y-66677000D01*
X106389714Y-66641285D01*
X106461142Y-66605571D01*
X106604000Y-66569857D01*
X106782571Y-66569857D01*
X106925428Y-66605571D01*
X106996857Y-66641285D01*
X107032571Y-66677000D01*
X107068285Y-66748428D01*
X107068285Y-66819857D01*
X107032571Y-66891285D01*
X106996857Y-66927000D01*
X106925428Y-66962714D01*
X106782571Y-66998428D01*
X106604000Y-66998428D01*
X106461142Y-66962714D01*
X106389714Y-66927000D01*
X106354000Y-66891285D01*
X106318285Y-66819857D01*
X106568285Y-65927000D02*
X107068285Y-65927000D01*
X106568285Y-66248428D02*
X106961142Y-66248428D01*
X107032571Y-66212714D01*
X107068285Y-66141285D01*
X107068285Y-66034142D01*
X107032571Y-65962714D01*
X106996857Y-65927000D01*
%TO.C,U1*%
X108140571Y-88362285D02*
X108140571Y-88969428D01*
X108176285Y-89040857D01*
X108212000Y-89076571D01*
X108283428Y-89112285D01*
X108426285Y-89112285D01*
X108497714Y-89076571D01*
X108533428Y-89040857D01*
X108569142Y-88969428D01*
X108569142Y-88362285D01*
X109319142Y-89112285D02*
X108890571Y-89112285D01*
X109104857Y-89112285D02*
X109104857Y-88362285D01*
X109033428Y-88469428D01*
X108962000Y-88540857D01*
X108890571Y-88576571D01*
X111444642Y-101367785D02*
X111087500Y-101367785D01*
X111087500Y-100617785D01*
X111694642Y-101367785D02*
X111694642Y-100617785D01*
X111944642Y-101153500D01*
X112194642Y-100617785D01*
X112194642Y-101367785D01*
X112480357Y-100617785D02*
X112944642Y-100617785D01*
X112694642Y-100903500D01*
X112801785Y-100903500D01*
X112873214Y-100939214D01*
X112908928Y-100974928D01*
X112944642Y-101046357D01*
X112944642Y-101224928D01*
X112908928Y-101296357D01*
X112873214Y-101332071D01*
X112801785Y-101367785D01*
X112587500Y-101367785D01*
X112516071Y-101332071D01*
X112480357Y-101296357D01*
X113623214Y-100617785D02*
X113266071Y-100617785D01*
X113230357Y-100974928D01*
X113266071Y-100939214D01*
X113337500Y-100903500D01*
X113516071Y-100903500D01*
X113587500Y-100939214D01*
X113623214Y-100974928D01*
X113658928Y-101046357D01*
X113658928Y-101224928D01*
X113623214Y-101296357D01*
X113587500Y-101332071D01*
X113516071Y-101367785D01*
X113337500Y-101367785D01*
X113266071Y-101332071D01*
X113230357Y-101296357D01*
X114087500Y-100939214D02*
X114016071Y-100903500D01*
X113980357Y-100867785D01*
X113944642Y-100796357D01*
X113944642Y-100760642D01*
X113980357Y-100689214D01*
X114016071Y-100653500D01*
X114087500Y-100617785D01*
X114230357Y-100617785D01*
X114301785Y-100653500D01*
X114337500Y-100689214D01*
X114373214Y-100760642D01*
X114373214Y-100796357D01*
X114337500Y-100867785D01*
X114301785Y-100903500D01*
X114230357Y-100939214D01*
X114087500Y-100939214D01*
X114016071Y-100974928D01*
X113980357Y-101010642D01*
X113944642Y-101082071D01*
X113944642Y-101224928D01*
X113980357Y-101296357D01*
X114016071Y-101332071D01*
X114087500Y-101367785D01*
X114230357Y-101367785D01*
X114301785Y-101332071D01*
X114337500Y-101296357D01*
X114373214Y-101224928D01*
X114373214Y-101082071D01*
X114337500Y-101010642D01*
X114301785Y-100974928D01*
X114230357Y-100939214D01*
%TO.C,C7*%
X54993000Y-75324857D02*
X54957285Y-75360571D01*
X54850142Y-75396285D01*
X54778714Y-75396285D01*
X54671571Y-75360571D01*
X54600142Y-75289142D01*
X54564428Y-75217714D01*
X54528714Y-75074857D01*
X54528714Y-74967714D01*
X54564428Y-74824857D01*
X54600142Y-74753428D01*
X54671571Y-74682000D01*
X54778714Y-74646285D01*
X54850142Y-74646285D01*
X54957285Y-74682000D01*
X54993000Y-74717714D01*
X55243000Y-74646285D02*
X55743000Y-74646285D01*
X55421571Y-75396285D01*
X61930428Y-82071785D02*
X61930428Y-82571785D01*
X61751857Y-81786071D02*
X61573285Y-82321785D01*
X62037571Y-82321785D01*
X62251857Y-81821785D02*
X62751857Y-81821785D01*
X62430428Y-82571785D01*
X63359000Y-82071785D02*
X63359000Y-82571785D01*
X63037571Y-82071785D02*
X63037571Y-82464642D01*
X63073285Y-82536071D01*
X63144714Y-82571785D01*
X63251857Y-82571785D01*
X63323285Y-82536071D01*
X63359000Y-82500357D01*
D11*
%TO.C,REF\u002A\u002A*%
X64304223Y-129770466D02*
X62304223Y-130437133D01*
X64304223Y-131103800D01*
X63351842Y-131770466D02*
X63351842Y-132437133D01*
X62304223Y-132722847D02*
X62304223Y-131770466D01*
X64304223Y-131770466D01*
X64304223Y-132722847D01*
X64304223Y-133389514D02*
X64304223Y-134627609D01*
X63542318Y-133960943D01*
X63542318Y-134246657D01*
X63447080Y-134437133D01*
X63351842Y-134532371D01*
X63161365Y-134627609D01*
X62685175Y-134627609D01*
X62494699Y-134532371D01*
X62399461Y-134437133D01*
X62304223Y-134246657D01*
X62304223Y-133675228D01*
X62399461Y-133484752D01*
X62494699Y-133389514D01*
X64304223Y-135865705D02*
X64304223Y-136246657D01*
X64208985Y-136437133D01*
X64018508Y-136627609D01*
X63637556Y-136722847D01*
X62970889Y-136722847D01*
X62589937Y-136627609D01*
X62399461Y-136437133D01*
X62304223Y-136246657D01*
X62304223Y-135865705D01*
X62399461Y-135675228D01*
X62589937Y-135484752D01*
X62970889Y-135389514D01*
X63637556Y-135389514D01*
X64018508Y-135484752D01*
X64208985Y-135675228D01*
X64304223Y-135865705D01*
X64304223Y-137960943D02*
X64304223Y-138341895D01*
X64208985Y-138532371D01*
X64018508Y-138722847D01*
X63637556Y-138818085D01*
X62970889Y-138818085D01*
X62589937Y-138722847D01*
X62399461Y-138532371D01*
X62304223Y-138341895D01*
X62304223Y-137960943D01*
X62399461Y-137770466D01*
X62589937Y-137579990D01*
X62970889Y-137484752D01*
X63637556Y-137484752D01*
X64018508Y-137579990D01*
X64208985Y-137770466D01*
X64304223Y-137960943D01*
X62304223Y-139675228D02*
X64304223Y-139675228D01*
D12*
%TO.C,C14*%
X73368357Y-81484357D02*
X73332642Y-81520071D01*
X73225500Y-81555785D01*
X73154071Y-81555785D01*
X73046928Y-81520071D01*
X72975500Y-81448642D01*
X72939785Y-81377214D01*
X72904071Y-81234357D01*
X72904071Y-81127214D01*
X72939785Y-80984357D01*
X72975500Y-80912928D01*
X73046928Y-80841500D01*
X73154071Y-80805785D01*
X73225500Y-80805785D01*
X73332642Y-80841500D01*
X73368357Y-80877214D01*
X74082642Y-81555785D02*
X73654071Y-81555785D01*
X73868357Y-81555785D02*
X73868357Y-80805785D01*
X73796928Y-80912928D01*
X73725500Y-80984357D01*
X73654071Y-81020071D01*
X74725500Y-81055785D02*
X74725500Y-81555785D01*
X74546928Y-80770071D02*
X74368357Y-81305785D01*
X74832642Y-81305785D01*
X74106500Y-82571785D02*
X73677928Y-82571785D01*
X73892214Y-82571785D02*
X73892214Y-81821785D01*
X73820785Y-81928928D01*
X73749357Y-82000357D01*
X73677928Y-82036071D01*
X74427928Y-82071785D02*
X74427928Y-82571785D01*
X74427928Y-82143214D02*
X74463642Y-82107500D01*
X74535071Y-82071785D01*
X74642214Y-82071785D01*
X74713642Y-82107500D01*
X74749357Y-82178928D01*
X74749357Y-82571785D01*
%TO.C,C3*%
X103186857Y-67181000D02*
X103222571Y-67216714D01*
X103258285Y-67323857D01*
X103258285Y-67395285D01*
X103222571Y-67502428D01*
X103151142Y-67573857D01*
X103079714Y-67609571D01*
X102936857Y-67645285D01*
X102829714Y-67645285D01*
X102686857Y-67609571D01*
X102615428Y-67573857D01*
X102544000Y-67502428D01*
X102508285Y-67395285D01*
X102508285Y-67323857D01*
X102544000Y-67216714D01*
X102579714Y-67181000D01*
X102508285Y-66931000D02*
X102508285Y-66466714D01*
X102794000Y-66716714D01*
X102794000Y-66609571D01*
X102829714Y-66538142D01*
X102865428Y-66502428D01*
X102936857Y-66466714D01*
X103115428Y-66466714D01*
X103186857Y-66502428D01*
X103222571Y-66538142D01*
X103258285Y-66609571D01*
X103258285Y-66823857D01*
X103222571Y-66895285D01*
X103186857Y-66931000D01*
X104401285Y-67450785D02*
X104401285Y-67879357D01*
X104401285Y-67665071D02*
X103651285Y-67665071D01*
X103758428Y-67736500D01*
X103829857Y-67807928D01*
X103865571Y-67879357D01*
X103651285Y-66986500D02*
X103651285Y-66915071D01*
X103687000Y-66843642D01*
X103722714Y-66807928D01*
X103794142Y-66772214D01*
X103937000Y-66736500D01*
X104115571Y-66736500D01*
X104258428Y-66772214D01*
X104329857Y-66807928D01*
X104365571Y-66843642D01*
X104401285Y-66915071D01*
X104401285Y-66986500D01*
X104365571Y-67057928D01*
X104329857Y-67093642D01*
X104258428Y-67129357D01*
X104115571Y-67165071D01*
X103937000Y-67165071D01*
X103794142Y-67129357D01*
X103722714Y-67093642D01*
X103687000Y-67057928D01*
X103651285Y-66986500D01*
X103651285Y-66272214D02*
X103651285Y-66200785D01*
X103687000Y-66129357D01*
X103722714Y-66093642D01*
X103794142Y-66057928D01*
X103937000Y-66022214D01*
X104115571Y-66022214D01*
X104258428Y-66057928D01*
X104329857Y-66093642D01*
X104365571Y-66129357D01*
X104401285Y-66200785D01*
X104401285Y-66272214D01*
X104365571Y-66343642D01*
X104329857Y-66379357D01*
X104258428Y-66415071D01*
X104115571Y-66450785D01*
X103937000Y-66450785D01*
X103794142Y-66415071D01*
X103722714Y-66379357D01*
X103687000Y-66343642D01*
X103651285Y-66272214D01*
X103901285Y-65700785D02*
X104401285Y-65700785D01*
X103972714Y-65700785D02*
X103937000Y-65665071D01*
X103901285Y-65593642D01*
X103901285Y-65486500D01*
X103937000Y-65415071D01*
X104008428Y-65379357D01*
X104401285Y-65379357D01*
%TO.C,C6*%
X69852000Y-71768857D02*
X69816285Y-71804571D01*
X69709142Y-71840285D01*
X69637714Y-71840285D01*
X69530571Y-71804571D01*
X69459142Y-71733142D01*
X69423428Y-71661714D01*
X69387714Y-71518857D01*
X69387714Y-71411714D01*
X69423428Y-71268857D01*
X69459142Y-71197428D01*
X69530571Y-71126000D01*
X69637714Y-71090285D01*
X69709142Y-71090285D01*
X69816285Y-71126000D01*
X69852000Y-71161714D01*
X70494857Y-71090285D02*
X70352000Y-71090285D01*
X70280571Y-71126000D01*
X70244857Y-71161714D01*
X70173428Y-71268857D01*
X70137714Y-71411714D01*
X70137714Y-71697428D01*
X70173428Y-71768857D01*
X70209142Y-71804571D01*
X70280571Y-71840285D01*
X70423428Y-71840285D01*
X70494857Y-71804571D01*
X70530571Y-71768857D01*
X70566285Y-71697428D01*
X70566285Y-71518857D01*
X70530571Y-71447428D01*
X70494857Y-71411714D01*
X70423428Y-71376000D01*
X70280571Y-71376000D01*
X70209142Y-71411714D01*
X70173428Y-71447428D01*
X70137714Y-71518857D01*
X68439214Y-72919785D02*
X68010642Y-72919785D01*
X68224928Y-72919785D02*
X68224928Y-72169785D01*
X68153500Y-72276928D01*
X68082071Y-72348357D01*
X68010642Y-72384071D01*
X68903500Y-72169785D02*
X68974928Y-72169785D01*
X69046357Y-72205500D01*
X69082071Y-72241214D01*
X69117785Y-72312642D01*
X69153500Y-72455500D01*
X69153500Y-72634071D01*
X69117785Y-72776928D01*
X69082071Y-72848357D01*
X69046357Y-72884071D01*
X68974928Y-72919785D01*
X68903500Y-72919785D01*
X68832071Y-72884071D01*
X68796357Y-72848357D01*
X68760642Y-72776928D01*
X68724928Y-72634071D01*
X68724928Y-72455500D01*
X68760642Y-72312642D01*
X68796357Y-72241214D01*
X68832071Y-72205500D01*
X68903500Y-72169785D01*
X69617785Y-72169785D02*
X69689214Y-72169785D01*
X69760642Y-72205500D01*
X69796357Y-72241214D01*
X69832071Y-72312642D01*
X69867785Y-72455500D01*
X69867785Y-72634071D01*
X69832071Y-72776928D01*
X69796357Y-72848357D01*
X69760642Y-72884071D01*
X69689214Y-72919785D01*
X69617785Y-72919785D01*
X69546357Y-72884071D01*
X69510642Y-72848357D01*
X69474928Y-72776928D01*
X69439214Y-72634071D01*
X69439214Y-72455500D01*
X69474928Y-72312642D01*
X69510642Y-72241214D01*
X69546357Y-72205500D01*
X69617785Y-72169785D01*
X70189214Y-72419785D02*
X70189214Y-72919785D01*
X70189214Y-72491214D02*
X70224928Y-72455500D01*
X70296357Y-72419785D01*
X70403500Y-72419785D01*
X70474928Y-72455500D01*
X70510642Y-72526928D01*
X70510642Y-72919785D01*
%TO.C,R11*%
X122009357Y-94573285D02*
X121759357Y-94216142D01*
X121580785Y-94573285D02*
X121580785Y-93823285D01*
X121866500Y-93823285D01*
X121937928Y-93859000D01*
X121973642Y-93894714D01*
X122009357Y-93966142D01*
X122009357Y-94073285D01*
X121973642Y-94144714D01*
X121937928Y-94180428D01*
X121866500Y-94216142D01*
X121580785Y-94216142D01*
X122723642Y-94573285D02*
X122295071Y-94573285D01*
X122509357Y-94573285D02*
X122509357Y-93823285D01*
X122437928Y-93930428D01*
X122366500Y-94001857D01*
X122295071Y-94037571D01*
X123437928Y-94573285D02*
X123009357Y-94573285D01*
X123223642Y-94573285D02*
X123223642Y-93823285D01*
X123152214Y-93930428D01*
X123080785Y-94001857D01*
X123009357Y-94037571D01*
X122100642Y-95652785D02*
X121672071Y-95652785D01*
X121886357Y-95652785D02*
X121886357Y-94902785D01*
X121814928Y-95009928D01*
X121743500Y-95081357D01*
X121672071Y-95117071D01*
X122564928Y-94902785D02*
X122636357Y-94902785D01*
X122707785Y-94938500D01*
X122743500Y-94974214D01*
X122779214Y-95045642D01*
X122814928Y-95188500D01*
X122814928Y-95367071D01*
X122779214Y-95509928D01*
X122743500Y-95581357D01*
X122707785Y-95617071D01*
X122636357Y-95652785D01*
X122564928Y-95652785D01*
X122493500Y-95617071D01*
X122457785Y-95581357D01*
X122422071Y-95509928D01*
X122386357Y-95367071D01*
X122386357Y-95188500D01*
X122422071Y-95045642D01*
X122457785Y-94974214D01*
X122493500Y-94938500D01*
X122564928Y-94902785D01*
X123136357Y-95652785D02*
X123136357Y-94902785D01*
X123564928Y-95652785D02*
X123243500Y-95224214D01*
X123564928Y-94902785D02*
X123136357Y-95331357D01*
%TO.C,C9*%
X73979500Y-102185357D02*
X73943785Y-102221071D01*
X73836642Y-102256785D01*
X73765214Y-102256785D01*
X73658071Y-102221071D01*
X73586642Y-102149642D01*
X73550928Y-102078214D01*
X73515214Y-101935357D01*
X73515214Y-101828214D01*
X73550928Y-101685357D01*
X73586642Y-101613928D01*
X73658071Y-101542500D01*
X73765214Y-101506785D01*
X73836642Y-101506785D01*
X73943785Y-101542500D01*
X73979500Y-101578214D01*
X74336642Y-102256785D02*
X74479500Y-102256785D01*
X74550928Y-102221071D01*
X74586642Y-102185357D01*
X74658071Y-102078214D01*
X74693785Y-101935357D01*
X74693785Y-101649642D01*
X74658071Y-101578214D01*
X74622357Y-101542500D01*
X74550928Y-101506785D01*
X74408071Y-101506785D01*
X74336642Y-101542500D01*
X74300928Y-101578214D01*
X74265214Y-101649642D01*
X74265214Y-101828214D01*
X74300928Y-101899642D01*
X74336642Y-101935357D01*
X74408071Y-101971071D01*
X74550928Y-101971071D01*
X74622357Y-101935357D01*
X74658071Y-101899642D01*
X74693785Y-101828214D01*
X72693714Y-103209285D02*
X72265142Y-103209285D01*
X72479428Y-103209285D02*
X72479428Y-102459285D01*
X72408000Y-102566428D01*
X72336571Y-102637857D01*
X72265142Y-102673571D01*
X73158000Y-102459285D02*
X73229428Y-102459285D01*
X73300857Y-102495000D01*
X73336571Y-102530714D01*
X73372285Y-102602142D01*
X73408000Y-102745000D01*
X73408000Y-102923571D01*
X73372285Y-103066428D01*
X73336571Y-103137857D01*
X73300857Y-103173571D01*
X73229428Y-103209285D01*
X73158000Y-103209285D01*
X73086571Y-103173571D01*
X73050857Y-103137857D01*
X73015142Y-103066428D01*
X72979428Y-102923571D01*
X72979428Y-102745000D01*
X73015142Y-102602142D01*
X73050857Y-102530714D01*
X73086571Y-102495000D01*
X73158000Y-102459285D01*
X73872285Y-102459285D02*
X73943714Y-102459285D01*
X74015142Y-102495000D01*
X74050857Y-102530714D01*
X74086571Y-102602142D01*
X74122285Y-102745000D01*
X74122285Y-102923571D01*
X74086571Y-103066428D01*
X74050857Y-103137857D01*
X74015142Y-103173571D01*
X73943714Y-103209285D01*
X73872285Y-103209285D01*
X73800857Y-103173571D01*
X73765142Y-103137857D01*
X73729428Y-103066428D01*
X73693714Y-102923571D01*
X73693714Y-102745000D01*
X73729428Y-102602142D01*
X73765142Y-102530714D01*
X73800857Y-102495000D01*
X73872285Y-102459285D01*
X74443714Y-102709285D02*
X74443714Y-103209285D01*
X74443714Y-102780714D02*
X74479428Y-102745000D01*
X74550857Y-102709285D01*
X74658000Y-102709285D01*
X74729428Y-102745000D01*
X74765142Y-102816428D01*
X74765142Y-103209285D01*
%TO.C,R7*%
X100288285Y-74102500D02*
X99931142Y-74352500D01*
X100288285Y-74531071D02*
X99538285Y-74531071D01*
X99538285Y-74245357D01*
X99574000Y-74173928D01*
X99609714Y-74138214D01*
X99681142Y-74102500D01*
X99788285Y-74102500D01*
X99859714Y-74138214D01*
X99895428Y-74173928D01*
X99931142Y-74245357D01*
X99931142Y-74531071D01*
X99538285Y-73852500D02*
X99538285Y-73352500D01*
X100288285Y-73673928D01*
X100681285Y-74785071D02*
X100681285Y-75142214D01*
X101038428Y-75177928D01*
X101002714Y-75142214D01*
X100967000Y-75070785D01*
X100967000Y-74892214D01*
X101002714Y-74820785D01*
X101038428Y-74785071D01*
X101109857Y-74749357D01*
X101288428Y-74749357D01*
X101359857Y-74785071D01*
X101395571Y-74820785D01*
X101431285Y-74892214D01*
X101431285Y-75070785D01*
X101395571Y-75142214D01*
X101359857Y-75177928D01*
X100681285Y-74285071D02*
X100681285Y-74213642D01*
X100717000Y-74142214D01*
X100752714Y-74106500D01*
X100824142Y-74070785D01*
X100967000Y-74035071D01*
X101145571Y-74035071D01*
X101288428Y-74070785D01*
X101359857Y-74106500D01*
X101395571Y-74142214D01*
X101431285Y-74213642D01*
X101431285Y-74285071D01*
X101395571Y-74356500D01*
X101359857Y-74392214D01*
X101288428Y-74427928D01*
X101145571Y-74463642D01*
X100967000Y-74463642D01*
X100824142Y-74427928D01*
X100752714Y-74392214D01*
X100717000Y-74356500D01*
X100681285Y-74285071D01*
X101431285Y-73285071D02*
X101074142Y-73535071D01*
X101431285Y-73713642D02*
X100681285Y-73713642D01*
X100681285Y-73427928D01*
X100717000Y-73356500D01*
X100752714Y-73320785D01*
X100824142Y-73285071D01*
X100931285Y-73285071D01*
X101002714Y-73320785D01*
X101038428Y-73356500D01*
X101074142Y-73427928D01*
X101074142Y-73713642D01*
%TO.C,R5*%
X113540000Y-103653785D02*
X113290000Y-103296642D01*
X113111428Y-103653785D02*
X113111428Y-102903785D01*
X113397142Y-102903785D01*
X113468571Y-102939500D01*
X113504285Y-102975214D01*
X113540000Y-103046642D01*
X113540000Y-103153785D01*
X113504285Y-103225214D01*
X113468571Y-103260928D01*
X113397142Y-103296642D01*
X113111428Y-103296642D01*
X114218571Y-102903785D02*
X113861428Y-102903785D01*
X113825714Y-103260928D01*
X113861428Y-103225214D01*
X113932857Y-103189500D01*
X114111428Y-103189500D01*
X114182857Y-103225214D01*
X114218571Y-103260928D01*
X114254285Y-103332357D01*
X114254285Y-103510928D01*
X114218571Y-103582357D01*
X114182857Y-103618071D01*
X114111428Y-103653785D01*
X113932857Y-103653785D01*
X113861428Y-103618071D01*
X113825714Y-103582357D01*
X115153357Y-102903785D02*
X115617642Y-102903785D01*
X115367642Y-103189500D01*
X115474785Y-103189500D01*
X115546214Y-103225214D01*
X115581928Y-103260928D01*
X115617642Y-103332357D01*
X115617642Y-103510928D01*
X115581928Y-103582357D01*
X115546214Y-103618071D01*
X115474785Y-103653785D01*
X115260500Y-103653785D01*
X115189071Y-103618071D01*
X115153357Y-103582357D01*
X115867642Y-102903785D02*
X116331928Y-102903785D01*
X116081928Y-103189500D01*
X116189071Y-103189500D01*
X116260500Y-103225214D01*
X116296214Y-103260928D01*
X116331928Y-103332357D01*
X116331928Y-103510928D01*
X116296214Y-103582357D01*
X116260500Y-103618071D01*
X116189071Y-103653785D01*
X115974785Y-103653785D01*
X115903357Y-103618071D01*
X115867642Y-103582357D01*
%TO.C,R6*%
X118239000Y-103653785D02*
X117989000Y-103296642D01*
X117810428Y-103653785D02*
X117810428Y-102903785D01*
X118096142Y-102903785D01*
X118167571Y-102939500D01*
X118203285Y-102975214D01*
X118239000Y-103046642D01*
X118239000Y-103153785D01*
X118203285Y-103225214D01*
X118167571Y-103260928D01*
X118096142Y-103296642D01*
X117810428Y-103296642D01*
X118881857Y-102903785D02*
X118739000Y-102903785D01*
X118667571Y-102939500D01*
X118631857Y-102975214D01*
X118560428Y-103082357D01*
X118524714Y-103225214D01*
X118524714Y-103510928D01*
X118560428Y-103582357D01*
X118596142Y-103618071D01*
X118667571Y-103653785D01*
X118810428Y-103653785D01*
X118881857Y-103618071D01*
X118917571Y-103582357D01*
X118953285Y-103510928D01*
X118953285Y-103332357D01*
X118917571Y-103260928D01*
X118881857Y-103225214D01*
X118810428Y-103189500D01*
X118667571Y-103189500D01*
X118596142Y-103225214D01*
X118560428Y-103260928D01*
X118524714Y-103332357D01*
X120126142Y-103653785D02*
X119697571Y-103653785D01*
X119911857Y-103653785D02*
X119911857Y-102903785D01*
X119840428Y-103010928D01*
X119769000Y-103082357D01*
X119697571Y-103118071D01*
X120590428Y-102903785D02*
X120661857Y-102903785D01*
X120733285Y-102939500D01*
X120769000Y-102975214D01*
X120804714Y-103046642D01*
X120840428Y-103189500D01*
X120840428Y-103368071D01*
X120804714Y-103510928D01*
X120769000Y-103582357D01*
X120733285Y-103618071D01*
X120661857Y-103653785D01*
X120590428Y-103653785D01*
X120519000Y-103618071D01*
X120483285Y-103582357D01*
X120447571Y-103510928D01*
X120411857Y-103368071D01*
X120411857Y-103189500D01*
X120447571Y-103046642D01*
X120483285Y-102975214D01*
X120519000Y-102939500D01*
X120590428Y-102903785D01*
%TO.C,R4*%
X106110500Y-108860785D02*
X105860500Y-108503642D01*
X105681928Y-108860785D02*
X105681928Y-108110785D01*
X105967642Y-108110785D01*
X106039071Y-108146500D01*
X106074785Y-108182214D01*
X106110500Y-108253642D01*
X106110500Y-108360785D01*
X106074785Y-108432214D01*
X106039071Y-108467928D01*
X105967642Y-108503642D01*
X105681928Y-108503642D01*
X106753357Y-108360785D02*
X106753357Y-108860785D01*
X106574785Y-108075071D02*
X106396214Y-108610785D01*
X106860500Y-108610785D01*
X106011285Y-109940285D02*
X105582714Y-109940285D01*
X105797000Y-109940285D02*
X105797000Y-109190285D01*
X105725571Y-109297428D01*
X105654142Y-109368857D01*
X105582714Y-109404571D01*
X106332714Y-109940285D02*
X106332714Y-109190285D01*
X106761285Y-109940285D02*
X106439857Y-109511714D01*
X106761285Y-109190285D02*
X106332714Y-109618857D01*
%TO.C,C1*%
X119826500Y-87770857D02*
X119790785Y-87806571D01*
X119683642Y-87842285D01*
X119612214Y-87842285D01*
X119505071Y-87806571D01*
X119433642Y-87735142D01*
X119397928Y-87663714D01*
X119362214Y-87520857D01*
X119362214Y-87413714D01*
X119397928Y-87270857D01*
X119433642Y-87199428D01*
X119505071Y-87128000D01*
X119612214Y-87092285D01*
X119683642Y-87092285D01*
X119790785Y-87128000D01*
X119826500Y-87163714D01*
X120540785Y-87842285D02*
X120112214Y-87842285D01*
X120326500Y-87842285D02*
X120326500Y-87092285D01*
X120255071Y-87199428D01*
X120183642Y-87270857D01*
X120112214Y-87306571D01*
X119556714Y-89112285D02*
X119128142Y-89112285D01*
X119342428Y-89112285D02*
X119342428Y-88362285D01*
X119271000Y-88469428D01*
X119199571Y-88540857D01*
X119128142Y-88576571D01*
X120021000Y-88362285D02*
X120092428Y-88362285D01*
X120163857Y-88398000D01*
X120199571Y-88433714D01*
X120235285Y-88505142D01*
X120271000Y-88648000D01*
X120271000Y-88826571D01*
X120235285Y-88969428D01*
X120199571Y-89040857D01*
X120163857Y-89076571D01*
X120092428Y-89112285D01*
X120021000Y-89112285D01*
X119949571Y-89076571D01*
X119913857Y-89040857D01*
X119878142Y-88969428D01*
X119842428Y-88826571D01*
X119842428Y-88648000D01*
X119878142Y-88505142D01*
X119913857Y-88433714D01*
X119949571Y-88398000D01*
X120021000Y-88362285D01*
X120735285Y-88362285D02*
X120806714Y-88362285D01*
X120878142Y-88398000D01*
X120913857Y-88433714D01*
X120949571Y-88505142D01*
X120985285Y-88648000D01*
X120985285Y-88826571D01*
X120949571Y-88969428D01*
X120913857Y-89040857D01*
X120878142Y-89076571D01*
X120806714Y-89112285D01*
X120735285Y-89112285D01*
X120663857Y-89076571D01*
X120628142Y-89040857D01*
X120592428Y-88969428D01*
X120556714Y-88826571D01*
X120556714Y-88648000D01*
X120592428Y-88505142D01*
X120628142Y-88433714D01*
X120663857Y-88398000D01*
X120735285Y-88362285D01*
X121306714Y-88612285D02*
X121306714Y-89112285D01*
X121306714Y-88683714D02*
X121342428Y-88648000D01*
X121413857Y-88612285D01*
X121521000Y-88612285D01*
X121592428Y-88648000D01*
X121628142Y-88719428D01*
X121628142Y-89112285D01*
%TO.C,R10*%
X122199857Y-98256285D02*
X121949857Y-97899142D01*
X121771285Y-98256285D02*
X121771285Y-97506285D01*
X122057000Y-97506285D01*
X122128428Y-97542000D01*
X122164142Y-97577714D01*
X122199857Y-97649142D01*
X122199857Y-97756285D01*
X122164142Y-97827714D01*
X122128428Y-97863428D01*
X122057000Y-97899142D01*
X121771285Y-97899142D01*
X122914142Y-98256285D02*
X122485571Y-98256285D01*
X122699857Y-98256285D02*
X122699857Y-97506285D01*
X122628428Y-97613428D01*
X122557000Y-97684857D01*
X122485571Y-97720571D01*
X123378428Y-97506285D02*
X123449857Y-97506285D01*
X123521285Y-97542000D01*
X123557000Y-97577714D01*
X123592714Y-97649142D01*
X123628428Y-97792000D01*
X123628428Y-97970571D01*
X123592714Y-98113428D01*
X123557000Y-98184857D01*
X123521285Y-98220571D01*
X123449857Y-98256285D01*
X123378428Y-98256285D01*
X123307000Y-98220571D01*
X123271285Y-98184857D01*
X123235571Y-98113428D01*
X123199857Y-97970571D01*
X123199857Y-97792000D01*
X123235571Y-97649142D01*
X123271285Y-97577714D01*
X123307000Y-97542000D01*
X123378428Y-97506285D01*
X121914142Y-98962785D02*
X121914142Y-99462785D01*
X121735571Y-98677071D02*
X121557000Y-99212785D01*
X122021285Y-99212785D01*
X122307000Y-99391357D02*
X122342714Y-99427071D01*
X122307000Y-99462785D01*
X122271285Y-99427071D01*
X122307000Y-99391357D01*
X122307000Y-99462785D01*
X122592714Y-98712785D02*
X123092714Y-98712785D01*
X122771285Y-99462785D01*
X123378428Y-99462785D02*
X123378428Y-98712785D01*
X123807000Y-99462785D02*
X123485571Y-99034214D01*
X123807000Y-98712785D02*
X123378428Y-99141357D01*
%TO.C,C5*%
X61152500Y-104280857D02*
X61116785Y-104316571D01*
X61009642Y-104352285D01*
X60938214Y-104352285D01*
X60831071Y-104316571D01*
X60759642Y-104245142D01*
X60723928Y-104173714D01*
X60688214Y-104030857D01*
X60688214Y-103923714D01*
X60723928Y-103780857D01*
X60759642Y-103709428D01*
X60831071Y-103638000D01*
X60938214Y-103602285D01*
X61009642Y-103602285D01*
X61116785Y-103638000D01*
X61152500Y-103673714D01*
X61831071Y-103602285D02*
X61473928Y-103602285D01*
X61438214Y-103959428D01*
X61473928Y-103923714D01*
X61545357Y-103888000D01*
X61723928Y-103888000D01*
X61795357Y-103923714D01*
X61831071Y-103959428D01*
X61866785Y-104030857D01*
X61866785Y-104209428D01*
X61831071Y-104280857D01*
X61795357Y-104316571D01*
X61723928Y-104352285D01*
X61545357Y-104352285D01*
X61473928Y-104316571D01*
X61438214Y-104280857D01*
X61239857Y-105368285D02*
X60811285Y-105368285D01*
X61025571Y-105368285D02*
X61025571Y-104618285D01*
X60954142Y-104725428D01*
X60882714Y-104796857D01*
X60811285Y-104832571D01*
X61704142Y-104618285D02*
X61775571Y-104618285D01*
X61847000Y-104654000D01*
X61882714Y-104689714D01*
X61918428Y-104761142D01*
X61954142Y-104904000D01*
X61954142Y-105082571D01*
X61918428Y-105225428D01*
X61882714Y-105296857D01*
X61847000Y-105332571D01*
X61775571Y-105368285D01*
X61704142Y-105368285D01*
X61632714Y-105332571D01*
X61597000Y-105296857D01*
X61561285Y-105225428D01*
X61525571Y-105082571D01*
X61525571Y-104904000D01*
X61561285Y-104761142D01*
X61597000Y-104689714D01*
X61632714Y-104654000D01*
X61704142Y-104618285D01*
X62597000Y-104868285D02*
X62597000Y-105368285D01*
X62275571Y-104868285D02*
X62275571Y-105261142D01*
X62311285Y-105332571D01*
X62382714Y-105368285D01*
X62489857Y-105368285D01*
X62561285Y-105332571D01*
X62597000Y-105296857D01*
%TO.C,R8*%
X111366500Y-73935785D02*
X111116500Y-73578642D01*
X110937928Y-73935785D02*
X110937928Y-73185785D01*
X111223642Y-73185785D01*
X111295071Y-73221500D01*
X111330785Y-73257214D01*
X111366500Y-73328642D01*
X111366500Y-73435785D01*
X111330785Y-73507214D01*
X111295071Y-73542928D01*
X111223642Y-73578642D01*
X110937928Y-73578642D01*
X111795071Y-73507214D02*
X111723642Y-73471500D01*
X111687928Y-73435785D01*
X111652214Y-73364357D01*
X111652214Y-73328642D01*
X111687928Y-73257214D01*
X111723642Y-73221500D01*
X111795071Y-73185785D01*
X111937928Y-73185785D01*
X112009357Y-73221500D01*
X112045071Y-73257214D01*
X112080785Y-73328642D01*
X112080785Y-73364357D01*
X112045071Y-73435785D01*
X112009357Y-73471500D01*
X111937928Y-73507214D01*
X111795071Y-73507214D01*
X111723642Y-73542928D01*
X111687928Y-73578642D01*
X111652214Y-73650071D01*
X111652214Y-73792928D01*
X111687928Y-73864357D01*
X111723642Y-73900071D01*
X111795071Y-73935785D01*
X111937928Y-73935785D01*
X112009357Y-73900071D01*
X112045071Y-73864357D01*
X112080785Y-73792928D01*
X112080785Y-73650071D01*
X112045071Y-73578642D01*
X112009357Y-73542928D01*
X111937928Y-73507214D01*
X113958142Y-73935785D02*
X113529571Y-73935785D01*
X113743857Y-73935785D02*
X113743857Y-73185785D01*
X113672428Y-73292928D01*
X113601000Y-73364357D01*
X113529571Y-73400071D01*
X114422428Y-73185785D02*
X114493857Y-73185785D01*
X114565285Y-73221500D01*
X114601000Y-73257214D01*
X114636714Y-73328642D01*
X114672428Y-73471500D01*
X114672428Y-73650071D01*
X114636714Y-73792928D01*
X114601000Y-73864357D01*
X114565285Y-73900071D01*
X114493857Y-73935785D01*
X114422428Y-73935785D01*
X114351000Y-73900071D01*
X114315285Y-73864357D01*
X114279571Y-73792928D01*
X114243857Y-73650071D01*
X114243857Y-73471500D01*
X114279571Y-73328642D01*
X114315285Y-73257214D01*
X114351000Y-73221500D01*
X114422428Y-73185785D01*
X114993857Y-73935785D02*
X114993857Y-73185785D01*
X115422428Y-73935785D02*
X115101000Y-73507214D01*
X115422428Y-73185785D02*
X114993857Y-73614357D01*
D15*
%TO.C,TB1*%
X92392500Y-68580000D02*
X92392500Y-66675000D01*
X86422500Y-66675000D02*
X86422500Y-68580000D01*
X92392500Y-66675000D02*
X86422500Y-66675000D01*
D10*
X99722500Y-107970000D02*
G75*
G03*
X99722500Y-107970000I-100000J0D01*
G01*
D15*
X80532500Y-111760000D02*
X80532500Y-68580000D01*
X80532500Y-68580000D02*
X98312500Y-68580000D01*
X98312500Y-111760000D02*
X80532500Y-111760000D01*
X98312500Y-68580000D02*
X98312500Y-111760000D01*
D12*
%TO.C,U2*%
X106172000Y-75545000D02*
X109728000Y-75565000D01*
X106172000Y-80665000D02*
X109728000Y-80665000D01*
X106172000Y-75545000D02*
X102616000Y-75545000D01*
X106172000Y-80665000D02*
X102616000Y-80645000D01*
D13*
X104648000Y-80555000D02*
X104648000Y-76630000D01*
X104648000Y-76630000D02*
X105197000Y-75655000D01*
X107696000Y-75565000D02*
X107696000Y-80555000D01*
D12*
%TO.C,U4*%
X66929000Y-74783000D02*
X70485000Y-74783000D01*
X63373000Y-79883000D02*
X70485000Y-79903000D01*
X66929000Y-74783000D02*
X63373000Y-74783000D01*
D13*
X65405000Y-79883000D02*
X65405000Y-75868000D01*
X68453000Y-74803000D02*
X68453000Y-79793000D01*
X65405000Y-75868000D02*
X66167000Y-74803000D01*
%TO.C,Q2*%
X126639001Y-98709498D02*
X126639001Y-92009499D01*
X126639001Y-92009499D02*
X129139001Y-92009499D01*
X129139001Y-98709498D02*
X129139001Y-92009499D01*
X126639001Y-98709498D02*
X129139001Y-98709498D01*
X128639002Y-98709498D02*
X128639002Y-92009499D01*
D12*
%TO.C,C15*%
X65735252Y-110130000D02*
X64312748Y-110130000D01*
X65735252Y-108310000D02*
X64312748Y-108310000D01*
%TO.C,R14*%
X78253000Y-114330564D02*
X78253000Y-112876436D01*
X76433000Y-114330564D02*
X76433000Y-112876436D01*
%TO.C,D3*%
X72933500Y-66754500D02*
X68633500Y-66754500D01*
X68633500Y-66754500D02*
X68633500Y-68754500D01*
X68633500Y-68754500D02*
X72933500Y-68754500D01*
%TO.C,J8*%
X66041500Y-112606000D02*
X66041500Y-114606000D01*
X66041500Y-119806000D02*
X66041500Y-121806000D01*
X66041500Y-121806000D02*
X64741500Y-121806000D01*
X51541500Y-112606000D02*
X66041500Y-112606000D01*
X51541500Y-121806000D02*
X51541500Y-112606000D01*
X66341500Y-114006000D02*
X66341500Y-112306000D01*
X66341500Y-112306000D02*
X65041500Y-112306000D01*
X60141500Y-121806000D02*
X51541500Y-121806000D01*
%TO.C,D2*%
X74272500Y-112458000D02*
X74272500Y-112302000D01*
X74272500Y-114774000D02*
X74272500Y-114618000D01*
X71040165Y-114616608D02*
G75*
G03*
X74272500Y-114773516I1672335J1078608D01*
G01*
X73753461Y-112458000D02*
G75*
G03*
X71671370Y-112458163I-1040961J-1080000D01*
G01*
X71671370Y-114617837D02*
G75*
G03*
X73753461Y-114618000I1041130J1079837D01*
G01*
X74272500Y-112302484D02*
G75*
G03*
X71040165Y-112459392I-1560000J-1235516D01*
G01*
%TO.C,D1*%
X62787000Y-92910000D02*
X62787000Y-89970000D01*
X57347000Y-91440000D02*
X58367000Y-91440000D01*
X63807000Y-89970000D02*
X58367000Y-89970000D01*
X58367000Y-92910000D02*
X63807000Y-92910000D01*
X63807000Y-92910000D02*
X63807000Y-89970000D01*
X64827000Y-91440000D02*
X63807000Y-91440000D01*
X58367000Y-89970000D02*
X58367000Y-92910000D01*
X63027000Y-92910000D02*
X63027000Y-89970000D01*
X62907000Y-92910000D02*
X62907000Y-89970000D01*
%TO.C,J6*%
X98552000Y-128076000D02*
X98552000Y-125416000D01*
X97282000Y-128076000D02*
X95952000Y-128076000D01*
X95952000Y-128076000D02*
X95952000Y-126746000D01*
X98552000Y-125416000D02*
X101152000Y-125416000D01*
X101152000Y-128076000D02*
X101152000Y-125416000D01*
X98552000Y-128076000D02*
X101152000Y-128076000D01*
%TO.C,D4*%
X62855000Y-66818000D02*
X62855000Y-68818000D01*
X67155000Y-66818000D02*
X62855000Y-66818000D01*
X62855000Y-68818000D02*
X67155000Y-68818000D01*
%TO.C,ADC1*%
X130048000Y-106123000D02*
X130048000Y-115893000D01*
X135118000Y-106123000D02*
X130048000Y-106123000D01*
X135118000Y-115893000D02*
X130048000Y-115893000D01*
X135118000Y-106123000D02*
X135118000Y-115893000D01*
%TO.C,R16*%
X78387564Y-100033500D02*
X76933436Y-100033500D01*
X78387564Y-98213500D02*
X76933436Y-98213500D01*
%TO.C,ADC4*%
X93652500Y-115013000D02*
X93652500Y-124783000D01*
X88582500Y-115013000D02*
X88582500Y-124783000D01*
X93652500Y-115013000D02*
X88582500Y-115013000D01*
X93652500Y-124783000D02*
X88582500Y-124783000D01*
%TO.C,ADC3*%
X91176000Y-125808000D02*
X86106000Y-125808000D01*
X91176000Y-135578000D02*
X86106000Y-135578000D01*
X91176000Y-125808000D02*
X91176000Y-135578000D01*
X86106000Y-125808000D02*
X86106000Y-135578000D01*
%TO.C,J2*%
X128076000Y-121539000D02*
X125416000Y-121539000D01*
X125416000Y-121539000D02*
X125416000Y-118939000D01*
X128076000Y-121539000D02*
X128076000Y-118939000D01*
X128076000Y-122809000D02*
X128076000Y-124139000D01*
X128076000Y-118939000D02*
X125416000Y-118939000D01*
X128076000Y-124139000D02*
X126746000Y-124139000D01*
%TO.C,J7*%
X55424000Y-85665000D02*
X55424000Y-88325000D01*
X61834000Y-85665000D02*
X63164000Y-85665000D01*
X60564000Y-85665000D02*
X55424000Y-85665000D01*
X60564000Y-88325000D02*
X55424000Y-88325000D01*
X63164000Y-85665000D02*
X63164000Y-86995000D01*
X60564000Y-85665000D02*
X60564000Y-88325000D01*
D16*
%TO.C,ZX1*%
X124841000Y-141224000D02*
X124841000Y-145542000D01*
X118999000Y-137922000D02*
X118999000Y-140462000D01*
X128220000Y-138962000D02*
X128760000Y-138962000D01*
D17*
X94970000Y-145692000D02*
X94970000Y-132692000D01*
D16*
X98020000Y-139422000D02*
X97470000Y-139422000D01*
X104521000Y-144526000D02*
X124079000Y-144526000D01*
X103759000Y-137160000D02*
X103759000Y-132842000D01*
X124079000Y-144526000D02*
X124841000Y-145542000D01*
X107188000Y-140462000D02*
X107188000Y-137922000D01*
X127680000Y-138882000D02*
X127680000Y-138342000D01*
D17*
X90720000Y-144122000D02*
X90720000Y-146262000D01*
D16*
X96940000Y-140042000D02*
X96940000Y-139492000D01*
X124841000Y-132842000D02*
X124079000Y-133858000D01*
X96940000Y-138882000D02*
X96940000Y-138342000D01*
X124841000Y-137160000D02*
X103759000Y-137160000D01*
D17*
X95080000Y-143092000D02*
X98330000Y-143092000D01*
X82670000Y-144122000D02*
X82670000Y-146262000D01*
D16*
X127060000Y-138962000D02*
X127610000Y-138962000D01*
D17*
X96680000Y-145992000D02*
X90770000Y-145992000D01*
X100330000Y-145042000D02*
X100330000Y-145692000D01*
D16*
X103759000Y-141224000D02*
X124841000Y-141224000D01*
X104521000Y-133858000D02*
X103759000Y-132842000D01*
X118999000Y-140462000D02*
X107188000Y-140462000D01*
D17*
X89720000Y-147262000D02*
X83670000Y-147262000D01*
D16*
X124841000Y-132842000D02*
X124841000Y-137160000D01*
X124079000Y-133858000D02*
X104521000Y-133858000D01*
X127600000Y-139422000D02*
X127060000Y-139422000D01*
X128140000Y-138342000D02*
X128140000Y-138892000D01*
X97400000Y-138342000D02*
X97400000Y-138892000D01*
X97400000Y-139502000D02*
X97400000Y-140042000D01*
X124841000Y-145542000D02*
X103759000Y-145542000D01*
D17*
X129310000Y-146692000D02*
X95970000Y-146692000D01*
D16*
X96320000Y-138962000D02*
X96870000Y-138962000D01*
X103759000Y-132842000D02*
X124841000Y-132842000D01*
D17*
X95970000Y-131692000D02*
X129310000Y-131692000D01*
D16*
X107188000Y-137922000D02*
X118999000Y-137922000D01*
X127680000Y-140042000D02*
X127680000Y-139492000D01*
D17*
X130310000Y-132692000D02*
X130310000Y-145692000D01*
D16*
X128140000Y-139502000D02*
X128140000Y-140042000D01*
X96860000Y-139422000D02*
X96320000Y-139422000D01*
X128760000Y-139422000D02*
X128210000Y-139422000D01*
D17*
X83670000Y-143122000D02*
X89720000Y-143122000D01*
D16*
X97480000Y-138962000D02*
X98020000Y-138962000D01*
D17*
X96680000Y-144442000D02*
X90770000Y-144442000D01*
D16*
X103759000Y-145542000D02*
X104521000Y-144526000D01*
X103759000Y-145542000D02*
X103759000Y-141224000D01*
X97400000Y-138342000D02*
G75*
G03*
X97170000Y-138112000I-229998J2D01*
G01*
X97170000Y-140272000D02*
G75*
G03*
X97400000Y-140042000I2J229998D01*
G01*
X96930000Y-139492000D02*
G75*
G03*
X96860000Y-139422000I-70002J-2D01*
G01*
X97170000Y-138112000D02*
G75*
G03*
X96940000Y-138342000I-2J-229998D01*
G01*
D17*
X89720000Y-147262000D02*
G75*
G03*
X90720000Y-146262000I1J999999D01*
G01*
X83670000Y-143122000D02*
G75*
G03*
X82670000Y-144122000I-1J-999999D01*
G01*
D16*
X127670000Y-139492000D02*
G75*
G03*
X127600000Y-139422000I-70000J0D01*
G01*
X96090000Y-139192000D02*
G75*
G03*
X96320000Y-139422000I229998J-2D01*
G01*
D17*
X95970000Y-131692000D02*
G75*
G03*
X94970000Y-132692000I-1J-999999D01*
G01*
X94970000Y-145692000D02*
G75*
G03*
X95970000Y-146692000I999999J-1D01*
G01*
D16*
X97400000Y-138892000D02*
G75*
G03*
X97470000Y-138962000I70002J2D01*
G01*
X98020000Y-139422000D02*
G75*
G03*
X98250000Y-139192000I2J229998D01*
G01*
D17*
X129310000Y-146692000D02*
G75*
G03*
X130310000Y-145692000I0J1000000D01*
G01*
D16*
X128990000Y-139192000D02*
G75*
G03*
X128760000Y-138962000I-230000J0D01*
G01*
D17*
X100330000Y-145042000D02*
G75*
G03*
X98330000Y-143092000I-1999960J-50600D01*
G01*
X100330000Y-145692000D02*
G75*
G03*
X101380000Y-146692000I1001190J0D01*
G01*
D16*
X96870000Y-138962000D02*
G75*
G03*
X96940000Y-138892000I-2J70002D01*
G01*
X128140000Y-138892000D02*
G75*
G03*
X128210000Y-138962000I70000J0D01*
G01*
X128760000Y-139422000D02*
G75*
G03*
X128990000Y-139192000I0J230000D01*
G01*
X97470000Y-139422000D02*
G75*
G03*
X97400000Y-139492000I2J-70002D01*
G01*
X127680000Y-140042000D02*
G75*
G03*
X127910000Y-140272000I230000J0D01*
G01*
X128210000Y-139422000D02*
G75*
G03*
X128140000Y-139492000I0J-70000D01*
G01*
X127060000Y-138962000D02*
G75*
G03*
X126830000Y-139192000I0J-230000D01*
G01*
D17*
X130310000Y-132692000D02*
G75*
G03*
X129310000Y-131692000I-1000000J0D01*
G01*
D16*
X96320000Y-138962000D02*
G75*
G03*
X96090000Y-139192000I-2J-229998D01*
G01*
X127910000Y-138112000D02*
G75*
G03*
X127680000Y-138342000I0J-230000D01*
G01*
X128140000Y-138342000D02*
G75*
G03*
X127910000Y-138112000I-230000J0D01*
G01*
X96940000Y-140042000D02*
G75*
G03*
X97170000Y-140272000I229998J-2D01*
G01*
X127610000Y-138962000D02*
G75*
G03*
X127680000Y-138892000I0J70000D01*
G01*
X98250000Y-139192000D02*
G75*
G03*
X98020000Y-138962000I-229998J2D01*
G01*
X127910000Y-140272000D02*
G75*
G03*
X128140000Y-140042000I0J230000D01*
G01*
X126830000Y-139192000D02*
G75*
G03*
X127060000Y-139422000I230000J0D01*
G01*
D17*
X90720000Y-144122000D02*
G75*
G03*
X89720000Y-143122000I-999999J1D01*
G01*
X82670000Y-146262000D02*
G75*
G03*
X83670000Y-147262000I999999J-1D01*
G01*
D16*
X98700000Y-139192000D02*
G75*
G03*
X98700000Y-139192000I-1530000J0D01*
G01*
D17*
X98801800Y-145192000D02*
G75*
G03*
X98801800Y-145192000I-2071800J0D01*
G01*
D16*
X129440000Y-139192000D02*
G75*
G03*
X129440000Y-139192000I-1530000J0D01*
G01*
D12*
%TO.C,R13*%
X105748500Y-116614564D02*
X105748500Y-115160436D01*
X103928500Y-116614564D02*
X103928500Y-115160436D01*
%TO.C,J9*%
X100968500Y-87309000D02*
X100968500Y-85979000D01*
X106168500Y-87309000D02*
X106168500Y-84649000D01*
X103568500Y-87309000D02*
X106168500Y-87309000D01*
X103568500Y-84649000D02*
X106168500Y-84649000D01*
X102298500Y-87309000D02*
X100968500Y-87309000D01*
X103568500Y-87309000D02*
X103568500Y-84649000D01*
%TO.C,D6*%
X74336000Y-121314500D02*
X74336000Y-121158500D01*
X74336000Y-118998500D02*
X74336000Y-118842500D01*
X71734870Y-121158337D02*
G75*
G03*
X73816961Y-121158500I1041130J1079837D01*
G01*
X73816961Y-118998500D02*
G75*
G03*
X71734870Y-118998663I-1040961J-1080000D01*
G01*
X74336000Y-118842984D02*
G75*
G03*
X71103665Y-118999892I-1560000J-1235516D01*
G01*
X71103665Y-121157108D02*
G75*
G03*
X74336000Y-121314016I1672335J1078608D01*
G01*
%TO.C,J5*%
X99128500Y-117789000D02*
X96528500Y-117789000D01*
X96528500Y-115129000D02*
X96528500Y-117789000D01*
X100398500Y-115129000D02*
X101728500Y-115129000D01*
X99128500Y-115129000D02*
X96528500Y-115129000D01*
X101728500Y-115129000D02*
X101728500Y-116459000D01*
X99128500Y-115129000D02*
X99128500Y-117789000D01*
%TO.C,R12*%
X107040000Y-116551064D02*
X107040000Y-115096936D01*
X108860000Y-116551064D02*
X108860000Y-115096936D01*
%TO.C,ADC2*%
X135054500Y-118315000D02*
X135054500Y-128085000D01*
X135054500Y-118315000D02*
X129984500Y-118315000D01*
X135054500Y-128085000D02*
X129984500Y-128085000D01*
X129984500Y-118315000D02*
X129984500Y-128085000D01*
%TO.C,R17*%
X78253000Y-119158936D02*
X78253000Y-120613064D01*
X76433000Y-119158936D02*
X76433000Y-120613064D01*
%TO.C,J4*%
X110311000Y-122869000D02*
X110311000Y-120209000D01*
X105171000Y-122869000D02*
X110311000Y-122869000D01*
X105171000Y-122869000D02*
X105171000Y-120209000D01*
X105171000Y-120209000D02*
X110311000Y-120209000D01*
X102571000Y-122869000D02*
X102571000Y-121539000D01*
X103901000Y-122869000D02*
X102571000Y-122869000D01*
%TO.C,U3*%
X68230500Y-106529500D02*
X63589500Y-106529500D01*
X66720500Y-96289500D02*
X66720500Y-106529500D01*
X68230500Y-96289500D02*
X63589500Y-96289500D01*
X68230500Y-99559500D02*
X66720500Y-99559500D01*
X68230500Y-103260500D02*
X66720500Y-103260500D01*
X68230500Y-96289500D02*
X68230500Y-106529500D01*
X63589500Y-96289500D02*
X63589500Y-106529500D01*
%TO.C,J3*%
X128012500Y-106429500D02*
X125352500Y-106429500D01*
X128012500Y-111629500D02*
X126682500Y-111629500D01*
X128012500Y-109029500D02*
X125352500Y-109029500D01*
X125352500Y-109029500D02*
X125352500Y-106429500D01*
X128012500Y-110299500D02*
X128012500Y-111629500D01*
X128012500Y-109029500D02*
X128012500Y-106429500D01*
%TO.C,D5*%
X79829500Y-106537000D02*
X79829500Y-104537000D01*
X75529500Y-106537000D02*
X79829500Y-106537000D01*
X79829500Y-104537000D02*
X75529500Y-104537000D01*
%TO.C,J1*%
X116078000Y-119821000D02*
X116078000Y-117161000D01*
X114808000Y-119821000D02*
X113478000Y-119821000D01*
X113478000Y-119821000D02*
X113478000Y-118491000D01*
X116078000Y-117161000D02*
X121218000Y-117161000D01*
X121218000Y-119821000D02*
X121218000Y-117161000D01*
X116078000Y-119821000D02*
X121218000Y-119821000D01*
%TO.C,R15*%
X78387564Y-95483000D02*
X76933436Y-95483000D01*
X78387564Y-97303000D02*
X76933436Y-97303000D01*
%TO.C,C13*%
X78371752Y-83799000D02*
X76949248Y-83799000D01*
X78371752Y-85619000D02*
X76949248Y-85619000D01*
%TO.C,C12*%
X78308252Y-94699500D02*
X76885748Y-94699500D01*
X78308252Y-92879500D02*
X76885748Y-92879500D01*
%TO.C,Q1*%
X101832000Y-106752000D02*
X105432000Y-106752000D01*
X105988400Y-103803193D02*
G75*
G03*
X103632000Y-102302000I-2356400J-1098807D01*
G01*
X101307816Y-106024795D02*
G75*
G03*
X101832000Y-106752000I2324184J1122795D01*
G01*
X103632000Y-102302000D02*
G75*
G03*
X101275600Y-103803193I0J-2600000D01*
G01*
X105432000Y-106752000D02*
G75*
G03*
X105956184Y-106024795I-1800000J1850000D01*
G01*
%TO.C,R3*%
X106207500Y-93312064D02*
X106207500Y-91857936D01*
X104387500Y-93312064D02*
X104387500Y-91857936D01*
%TO.C,R9*%
X128799000Y-102835064D02*
X128799000Y-101380936D01*
X126979000Y-102835064D02*
X126979000Y-101380936D01*
%TO.C,R1*%
X112366436Y-80348500D02*
X113820564Y-80348500D01*
X112366436Y-78528500D02*
X113820564Y-78528500D01*
%TO.C,C10*%
X78371752Y-91651500D02*
X76949248Y-91651500D01*
X78371752Y-89831500D02*
X76949248Y-89831500D01*
%TO.C,C4*%
X56442151Y-97893000D02*
X56442151Y-94931000D01*
X55082151Y-97893000D02*
X55082151Y-95464000D01*
X55322151Y-102539000D02*
X55322151Y-99973000D01*
X56843151Y-97893000D02*
X56843151Y-94872000D01*
X56603151Y-102963000D02*
X56603151Y-99973000D01*
X55602151Y-97893000D02*
X55602151Y-95193000D01*
X56643151Y-97893000D02*
X56643151Y-94896000D01*
X56843151Y-102994000D02*
X56843151Y-99973000D01*
X55642151Y-102690000D02*
X55642151Y-99973000D01*
X55122151Y-102426000D02*
X55122151Y-99973000D01*
X56202151Y-102880000D02*
X56202151Y-99973000D01*
X54562151Y-102023000D02*
X54562151Y-95843000D01*
X55402151Y-97893000D02*
X55402151Y-95286000D01*
X56522151Y-102950000D02*
X56522151Y-99973000D01*
X55362151Y-97893000D02*
X55362151Y-95306000D01*
X55722151Y-102723000D02*
X55722151Y-99973000D01*
X53722151Y-101035000D02*
X53722151Y-96831000D01*
X55522151Y-102637000D02*
X55522151Y-99973000D01*
X54802151Y-102213000D02*
X54802151Y-95653000D01*
X56242151Y-102890000D02*
X56242151Y-99973000D01*
X55282151Y-102517000D02*
X55282151Y-99973000D01*
X56082151Y-102847000D02*
X56082151Y-99973000D01*
X56002151Y-102822000D02*
X56002151Y-99973000D01*
X55882151Y-102783000D02*
X55882151Y-99973000D01*
X55122151Y-97893000D02*
X55122151Y-95440000D01*
X56402151Y-102927000D02*
X56402151Y-99973000D01*
X56883151Y-102998000D02*
X56883151Y-99973000D01*
X55362151Y-102560000D02*
X55362151Y-99973000D01*
X55802151Y-97893000D02*
X55802151Y-95112000D01*
X56162151Y-102869000D02*
X56162151Y-99973000D01*
X56683151Y-102975000D02*
X56683151Y-99973000D01*
X54362151Y-101840000D02*
X54362151Y-96026000D01*
X53362151Y-100279000D02*
X53362151Y-97587000D01*
X54242151Y-101717000D02*
X54242151Y-96149000D01*
X54882151Y-102271000D02*
X54882151Y-95595000D01*
X56963151Y-103004000D02*
X56963151Y-99973000D01*
X54082151Y-101537000D02*
X54082151Y-96329000D01*
X57003151Y-103007000D02*
X57003151Y-99973000D01*
X54762151Y-102183000D02*
X54762151Y-95683000D01*
X53762151Y-101099000D02*
X53762151Y-96767000D01*
X54602151Y-102057000D02*
X54602151Y-95809000D01*
X56482151Y-97893000D02*
X56482151Y-94923000D01*
X56923151Y-97893000D02*
X56923151Y-94865000D01*
X56963151Y-97893000D02*
X56963151Y-94862000D01*
X54162151Y-101630000D02*
X54162151Y-96236000D01*
X55242151Y-97893000D02*
X55242151Y-95371000D01*
X56883151Y-97893000D02*
X56883151Y-94868000D01*
X55922151Y-102796000D02*
X55922151Y-99973000D01*
X55042151Y-102377000D02*
X55042151Y-99973000D01*
X55522151Y-97893000D02*
X55522151Y-95229000D01*
X56082151Y-97893000D02*
X56082151Y-95019000D01*
X56763151Y-102985000D02*
X56763151Y-99973000D01*
X54522151Y-101988000D02*
X54522151Y-95878000D01*
X55922151Y-97893000D02*
X55922151Y-95070000D01*
X57003151Y-97893000D02*
X57003151Y-94859000D01*
X56282151Y-97893000D02*
X56282151Y-94966000D01*
X56763151Y-97893000D02*
X56763151Y-94881000D01*
X55842151Y-102768000D02*
X55842151Y-99973000D01*
X54122151Y-101584000D02*
X54122151Y-96282000D01*
X57163151Y-103013000D02*
X57163151Y-94853000D01*
X55962151Y-97893000D02*
X55962151Y-95056000D01*
X54642151Y-102089000D02*
X54642151Y-95777000D01*
X53642151Y-100897000D02*
X53642151Y-96969000D01*
X56522151Y-97893000D02*
X56522151Y-94916000D01*
X57123151Y-103012000D02*
X57123151Y-94854000D01*
X56402151Y-97893000D02*
X56402151Y-94939000D01*
X56482151Y-102943000D02*
X56482151Y-99973000D01*
X55882151Y-97893000D02*
X55882151Y-95083000D01*
X55442151Y-97893000D02*
X55442151Y-95267000D01*
X57243151Y-103013000D02*
X57243151Y-94853000D01*
X56563151Y-102957000D02*
X56563151Y-99973000D01*
X55282151Y-97893000D02*
X55282151Y-95349000D01*
X54482151Y-101952000D02*
X54482151Y-95914000D01*
X54682151Y-102122000D02*
X54682151Y-95744000D01*
X55002151Y-102351000D02*
X55002151Y-99973000D01*
X55562151Y-102655000D02*
X55562151Y-99973000D01*
X54842151Y-102242000D02*
X54842151Y-95624000D01*
X56803151Y-102990000D02*
X56803151Y-99973000D01*
X55842151Y-97893000D02*
X55842151Y-95098000D01*
X55242151Y-102495000D02*
X55242151Y-99973000D01*
X57083151Y-103010000D02*
X57083151Y-94856000D01*
X53242151Y-99881000D02*
X53242151Y-97985000D01*
X56122151Y-97893000D02*
X56122151Y-95008000D01*
X53962151Y-101387000D02*
X53962151Y-96479000D01*
X53202151Y-99701000D02*
X53202151Y-98165000D01*
X56242151Y-97893000D02*
X56242151Y-94976000D01*
X55762151Y-97893000D02*
X55762151Y-95128000D01*
X55162151Y-102450000D02*
X55162151Y-99973000D01*
X55202151Y-97893000D02*
X55202151Y-95393000D01*
X53282151Y-100031000D02*
X53282151Y-97835000D01*
X53602151Y-100823000D02*
X53602151Y-97043000D01*
X54962151Y-102325000D02*
X54962151Y-99973000D01*
X55002151Y-97893000D02*
X55002151Y-95515000D01*
X56202151Y-97893000D02*
X56202151Y-94986000D01*
X53922151Y-101333000D02*
X53922151Y-96533000D01*
X55042151Y-97893000D02*
X55042151Y-95489000D01*
X54402151Y-101878000D02*
X54402151Y-95988000D01*
X53442151Y-100485000D02*
X53442151Y-97381000D01*
X55682151Y-102707000D02*
X55682151Y-99973000D01*
X55642151Y-97893000D02*
X55642151Y-95176000D01*
X54722151Y-102153000D02*
X54722151Y-95713000D01*
X55082151Y-102402000D02*
X55082151Y-99973000D01*
X55682151Y-97893000D02*
X55682151Y-95159000D01*
X53322151Y-100162000D02*
X53322151Y-97704000D01*
X56322151Y-97893000D02*
X56322151Y-94957000D01*
X55402151Y-102580000D02*
X55402151Y-99973000D01*
X55762151Y-102738000D02*
X55762151Y-99973000D01*
X56042151Y-102835000D02*
X56042151Y-99973000D01*
X56803151Y-97893000D02*
X56803151Y-94876000D01*
X56603151Y-97893000D02*
X56603151Y-94903000D01*
X54442151Y-101916000D02*
X54442151Y-95950000D01*
X55482151Y-97893000D02*
X55482151Y-95247000D01*
X54042151Y-101489000D02*
X54042151Y-96377000D01*
X56122151Y-102858000D02*
X56122151Y-99973000D01*
X56042151Y-97893000D02*
X56042151Y-95031000D01*
X55322151Y-97893000D02*
X55322151Y-95327000D01*
X53802151Y-101161000D02*
X53802151Y-96705000D01*
X56362151Y-97893000D02*
X56362151Y-94948000D01*
X55602151Y-102673000D02*
X55602151Y-99973000D01*
X55722151Y-97893000D02*
X55722151Y-95143000D01*
X56002151Y-97893000D02*
X56002151Y-95044000D01*
X53682151Y-100967000D02*
X53682151Y-96899000D01*
X56442151Y-102935000D02*
X56442151Y-99973000D01*
X57043151Y-103009000D02*
X57043151Y-94857000D01*
X53162151Y-99466000D02*
X53162151Y-98400000D01*
X56362151Y-102918000D02*
X56362151Y-99973000D01*
X55482151Y-102619000D02*
X55482151Y-99973000D01*
X54922151Y-102298000D02*
X54922151Y-95568000D01*
X56563151Y-97893000D02*
X56563151Y-94909000D01*
X55202151Y-102473000D02*
X55202151Y-99973000D01*
X56723151Y-102981000D02*
X56723151Y-99973000D01*
X56643151Y-102970000D02*
X56643151Y-99973000D01*
X56683151Y-97893000D02*
X56683151Y-94891000D01*
X55442151Y-102599000D02*
X55442151Y-99973000D01*
X61652849Y-101248000D02*
X60852849Y-101248000D01*
X56282151Y-102900000D02*
X56282151Y-99973000D01*
X53842151Y-101220000D02*
X53842151Y-96646000D01*
X55802151Y-102754000D02*
X55802151Y-99973000D01*
X57203151Y-103013000D02*
X57203151Y-94853000D01*
X55562151Y-97893000D02*
X55562151Y-95211000D01*
X53482151Y-100578000D02*
X53482151Y-97288000D01*
X54002151Y-101438000D02*
X54002151Y-96428000D01*
X54202151Y-101674000D02*
X54202151Y-96192000D01*
X56923151Y-103001000D02*
X56923151Y-99973000D01*
X53522151Y-100664000D02*
X53522151Y-97202000D01*
X53402151Y-100386000D02*
X53402151Y-97480000D01*
X54962151Y-97893000D02*
X54962151Y-95541000D01*
X55162151Y-97893000D02*
X55162151Y-95416000D01*
X56723151Y-97893000D02*
X56723151Y-94885000D01*
X53562151Y-100746000D02*
X53562151Y-97120000D01*
X53882151Y-101278000D02*
X53882151Y-96588000D01*
X55962151Y-102810000D02*
X55962151Y-99973000D01*
X56162151Y-97893000D02*
X56162151Y-94997000D01*
X54322151Y-101800000D02*
X54322151Y-96066000D01*
X54282151Y-101759000D02*
X54282151Y-96107000D01*
X56322151Y-102909000D02*
X56322151Y-99973000D01*
X61252849Y-101648000D02*
X61252849Y-100848000D01*
X61363151Y-98933000D02*
G75*
G03*
X61363151Y-98933000I-4120000J0D01*
G01*
%TO.C,R2*%
X106271000Y-98136064D02*
X106271000Y-96681936D01*
X104451000Y-98136064D02*
X104451000Y-96681936D01*
%TO.C,C11*%
X78371752Y-86720000D02*
X76949248Y-86720000D01*
X78371752Y-88540000D02*
X76949248Y-88540000D01*
%TO.C,C8*%
X59206000Y-68278500D02*
X61987000Y-68278500D01*
X55340000Y-66758500D02*
X60992000Y-66758500D01*
X59206000Y-69239500D02*
X62218000Y-69239500D01*
X59206000Y-69279500D02*
X62223000Y-69279500D01*
X59206000Y-68718500D02*
X62123000Y-68718500D01*
X54114000Y-69239500D02*
X57126000Y-69239500D01*
X55010000Y-67118500D02*
X61322000Y-67118500D01*
X54519000Y-67878500D02*
X57126000Y-67878500D01*
X54181000Y-68838500D02*
X57126000Y-68838500D01*
X59206000Y-68758500D02*
X62133000Y-68758500D01*
X54828000Y-67358500D02*
X61504000Y-67358500D01*
X57633000Y-65638500D02*
X58699000Y-65638500D01*
X59206000Y-67958500D02*
X61852000Y-67958500D01*
X59206000Y-69359500D02*
X62231000Y-69359500D01*
X59206000Y-67758500D02*
X61750000Y-67758500D01*
X54086000Y-69639500D02*
X62246000Y-69639500D01*
X59206000Y-68358500D02*
X62016000Y-68358500D01*
X55610000Y-66518500D02*
X60722000Y-66518500D01*
X54105000Y-69319500D02*
X57126000Y-69319500D01*
X59206000Y-68518500D02*
X62068000Y-68518500D01*
X59206000Y-68078500D02*
X61906000Y-68078500D01*
X59206000Y-68638500D02*
X62102000Y-68638500D01*
X55821000Y-66358500D02*
X60511000Y-66358500D01*
X54426000Y-68078500D02*
X57126000Y-68078500D01*
X54124000Y-69159500D02*
X57126000Y-69159500D01*
X55712000Y-66438500D02*
X60620000Y-66438500D01*
X54361000Y-68238500D02*
X57126000Y-68238500D01*
X54164000Y-68918500D02*
X57126000Y-68918500D01*
X59206000Y-68438500D02*
X62043000Y-68438500D01*
X54092000Y-69479500D02*
X57126000Y-69479500D01*
X59206000Y-67798500D02*
X61772000Y-67798500D01*
X56435000Y-65998500D02*
X59897000Y-65998500D01*
X55451000Y-73729198D02*
X56251000Y-73729198D01*
X54098000Y-69399500D02*
X57126000Y-69399500D01*
X55147000Y-66958500D02*
X61185000Y-66958500D01*
X54087000Y-69599500D02*
X62245000Y-69599500D01*
X54604000Y-67718500D02*
X57126000Y-67718500D01*
X54241000Y-68598500D02*
X57126000Y-68598500D01*
X56276000Y-66078500D02*
X60056000Y-66078500D01*
X55183000Y-66918500D02*
X61149000Y-66918500D01*
X54086000Y-69679500D02*
X62246000Y-69679500D01*
X54109000Y-69279500D02*
X57126000Y-69279500D01*
X59206000Y-68878500D02*
X62160000Y-68878500D01*
X56521000Y-65958500D02*
X59811000Y-65958500D01*
X59206000Y-68558500D02*
X62080000Y-68558500D01*
X59206000Y-68678500D02*
X62113000Y-68678500D01*
X54722000Y-67518500D02*
X57126000Y-67518500D01*
X54462000Y-67998500D02*
X57126000Y-67998500D01*
X55221000Y-66878500D02*
X61111000Y-66878500D01*
X54916000Y-67238500D02*
X61416000Y-67238500D01*
X54190000Y-68798500D02*
X57126000Y-68798500D01*
X57398000Y-65678500D02*
X58934000Y-65678500D01*
X59206000Y-69039500D02*
X62190000Y-69039500D01*
X54331000Y-68318500D02*
X57126000Y-68318500D01*
X54089000Y-69559500D02*
X62243000Y-69559500D01*
X59206000Y-69319500D02*
X62227000Y-69319500D01*
X57068000Y-65758500D02*
X59264000Y-65758500D01*
X59206000Y-67638500D02*
X61683000Y-67638500D01*
X54172000Y-68878500D02*
X57126000Y-68878500D01*
X59206000Y-67718500D02*
X61728000Y-67718500D01*
X54209000Y-68718500D02*
X57126000Y-68718500D01*
X55259000Y-66838500D02*
X61073000Y-66838500D01*
X54345000Y-68278500D02*
X57126000Y-68278500D01*
X59206000Y-67438500D02*
X61558000Y-67438500D01*
X59206000Y-69079500D02*
X62196000Y-69079500D01*
X55382000Y-66718500D02*
X60950000Y-66718500D01*
X54673000Y-67598500D02*
X57126000Y-67598500D01*
X54392000Y-68158500D02*
X57126000Y-68158500D01*
X54252000Y-68558500D02*
X57126000Y-68558500D01*
X54086000Y-69719500D02*
X62246000Y-69719500D01*
X54230000Y-68638500D02*
X57126000Y-68638500D01*
X56202000Y-66118500D02*
X60130000Y-66118500D01*
X59206000Y-67918500D02*
X61832000Y-67918500D01*
X55076000Y-67038500D02*
X61256000Y-67038500D01*
X55111000Y-66998500D02*
X61221000Y-66998500D01*
X54303000Y-68398500D02*
X57126000Y-68398500D01*
X54199000Y-68758500D02*
X57126000Y-68758500D01*
X59206000Y-68918500D02*
X62168000Y-68918500D01*
X54277000Y-68478500D02*
X57126000Y-68478500D01*
X55851000Y-74129198D02*
X55851000Y-73329198D01*
X59206000Y-68238500D02*
X61971000Y-68238500D01*
X59206000Y-69119500D02*
X62203000Y-69119500D01*
X54480000Y-67958500D02*
X57126000Y-67958500D01*
X55425000Y-66678500D02*
X60907000Y-66678500D01*
X55562000Y-66558500D02*
X60770000Y-66558500D01*
X59206000Y-67678500D02*
X61706000Y-67678500D01*
X59206000Y-68798500D02*
X62142000Y-68798500D01*
X59206000Y-69439500D02*
X62237000Y-69439500D01*
X59206000Y-68958500D02*
X62176000Y-68958500D01*
X55661000Y-66478500D02*
X60671000Y-66478500D01*
X54101000Y-69359500D02*
X57126000Y-69359500D01*
X59206000Y-69159500D02*
X62208000Y-69159500D01*
X54582000Y-67758500D02*
X57126000Y-67758500D01*
X59206000Y-67998500D02*
X61870000Y-67998500D01*
X54857000Y-67318500D02*
X61475000Y-67318500D01*
X59206000Y-69399500D02*
X62234000Y-69399500D01*
X59206000Y-67518500D02*
X61610000Y-67518500D01*
X54774000Y-67438500D02*
X57126000Y-67438500D01*
X59206000Y-68398500D02*
X62029000Y-68398500D01*
X59206000Y-68318500D02*
X62001000Y-68318500D01*
X59206000Y-68038500D02*
X61888000Y-68038500D01*
X59206000Y-69479500D02*
X62240000Y-69479500D01*
X54136000Y-69079500D02*
X57126000Y-69079500D01*
X56820000Y-65838500D02*
X59512000Y-65838500D01*
X55879000Y-66318500D02*
X60453000Y-66318500D01*
X54289000Y-68438500D02*
X57126000Y-68438500D01*
X54649000Y-67638500D02*
X57126000Y-67638500D01*
X54142000Y-69039500D02*
X57126000Y-69039500D01*
X54539000Y-67838500D02*
X57126000Y-67838500D01*
X54129000Y-69119500D02*
X57126000Y-69119500D01*
X55469000Y-66638500D02*
X60863000Y-66638500D01*
X59206000Y-68158500D02*
X61940000Y-68158500D01*
X56713000Y-65878500D02*
X59619000Y-65878500D01*
X59206000Y-67478500D02*
X61584000Y-67478500D01*
X56064000Y-66198500D02*
X60268000Y-66198500D01*
X55938000Y-66278500D02*
X60394000Y-66278500D01*
X56937000Y-65798500D02*
X59395000Y-65798500D01*
X54264000Y-68518500D02*
X57126000Y-68518500D01*
X59206000Y-68198500D02*
X61956000Y-68198500D01*
X54977000Y-67158500D02*
X61355000Y-67158500D01*
X59206000Y-68118500D02*
X61923000Y-68118500D01*
X59206000Y-67878500D02*
X61813000Y-67878500D01*
X59206000Y-69199500D02*
X62214000Y-69199500D01*
X59206000Y-68478500D02*
X62055000Y-68478500D01*
X54560000Y-67798500D02*
X57126000Y-67798500D01*
X57218000Y-65718500D02*
X59114000Y-65718500D01*
X54801000Y-67398500D02*
X61531000Y-67398500D01*
X56132000Y-66158500D02*
X60200000Y-66158500D01*
X54376000Y-68198500D02*
X57126000Y-68198500D01*
X55766000Y-66398500D02*
X60566000Y-66398500D01*
X54219000Y-68678500D02*
X57126000Y-68678500D01*
X54748000Y-67478500D02*
X57126000Y-67478500D01*
X55515000Y-66598500D02*
X60817000Y-66598500D01*
X55299000Y-66798500D02*
X61033000Y-66798500D01*
X54156000Y-68958500D02*
X57126000Y-68958500D01*
X59206000Y-67838500D02*
X61793000Y-67838500D01*
X54409000Y-68118500D02*
X57126000Y-68118500D01*
X55042000Y-67078500D02*
X61290000Y-67078500D01*
X54500000Y-67918500D02*
X57126000Y-67918500D01*
X54149000Y-68998500D02*
X57126000Y-68998500D01*
X59206000Y-68998500D02*
X62183000Y-68998500D01*
X54946000Y-67198500D02*
X61386000Y-67198500D01*
X54118000Y-69199500D02*
X57126000Y-69199500D01*
X54316000Y-68358500D02*
X57126000Y-68358500D01*
X54626000Y-67678500D02*
X57126000Y-67678500D01*
X54090000Y-69519500D02*
X62242000Y-69519500D01*
X59206000Y-68838500D02*
X62151000Y-68838500D01*
X56000000Y-66238500D02*
X60332000Y-66238500D01*
X54697000Y-67558500D02*
X57126000Y-67558500D01*
X54886000Y-67278500D02*
X61446000Y-67278500D01*
X56353000Y-66038500D02*
X59979000Y-66038500D01*
X54095000Y-69439500D02*
X57126000Y-69439500D01*
X54444000Y-68038500D02*
X57126000Y-68038500D01*
X59206000Y-68598500D02*
X62091000Y-68598500D01*
X56614000Y-65918500D02*
X59718000Y-65918500D01*
X59206000Y-67558500D02*
X61635000Y-67558500D01*
X59206000Y-67598500D02*
X61659000Y-67598500D01*
X62286000Y-69719500D02*
G75*
G03*
X62286000Y-69719500I-4120000J0D01*
G01*
%TO.C,C2*%
X106828000Y-69964248D02*
X106828000Y-71386752D01*
X105008000Y-69964248D02*
X105008000Y-71386752D01*
%TO.C,U1*%
X111903000Y-89856000D02*
X110253000Y-89856000D01*
X110253000Y-100136000D02*
X115553000Y-100136000D01*
X115553000Y-100136000D02*
X115553000Y-89856000D01*
X110253000Y-89856000D02*
X110253000Y-100136000D01*
X107763000Y-100196000D02*
X118043000Y-100196000D01*
X118043000Y-100196000D02*
X118043000Y-89796000D01*
X107763000Y-89796000D02*
X107763000Y-100196000D01*
X115553000Y-89856000D02*
X113903000Y-89856000D01*
X118043000Y-89796000D02*
X107763000Y-89796000D01*
X111903000Y-89856000D02*
G75*
G03*
X113903000Y-89856000I1000000J0D01*
G01*
%TO.C,C7*%
X57507000Y-79120000D02*
X54486000Y-79120000D01*
X57507000Y-80561000D02*
X54900000Y-80561000D01*
X57507000Y-79481000D02*
X54537000Y-79481000D01*
X62612000Y-79080000D02*
X59587000Y-79080000D01*
X60834000Y-82121000D02*
X56260000Y-82121000D01*
X57507000Y-80921000D02*
X55103000Y-80921000D01*
X57507000Y-80121000D02*
X54712000Y-80121000D01*
X61965000Y-80961000D02*
X59587000Y-80961000D01*
X62410000Y-80041000D02*
X59587000Y-80041000D01*
X57507000Y-79521000D02*
X54545000Y-79521000D01*
X62608000Y-79120000D02*
X59587000Y-79120000D01*
X62304000Y-80321000D02*
X59587000Y-80321000D01*
X57507000Y-79561000D02*
X54553000Y-79561000D01*
X62287000Y-80361000D02*
X59587000Y-80361000D01*
X62040000Y-80841000D02*
X59587000Y-80841000D01*
X62461000Y-79881000D02*
X59587000Y-79881000D01*
X57507000Y-79040000D02*
X54479000Y-79040000D01*
X62627000Y-78800000D02*
X54467000Y-78800000D01*
X62523000Y-79641000D02*
X59587000Y-79641000D01*
X57507000Y-79641000D02*
X54571000Y-79641000D01*
X60581000Y-82281000D02*
X56513000Y-82281000D01*
X62174000Y-80601000D02*
X59587000Y-80601000D01*
X62494000Y-79761000D02*
X59587000Y-79761000D01*
X57507000Y-79200000D02*
X54495000Y-79200000D01*
X57507000Y-79000000D02*
X54476000Y-79000000D01*
X60892000Y-82081000D02*
X56202000Y-82081000D01*
X62549000Y-79521000D02*
X59587000Y-79521000D01*
X59776000Y-82641000D02*
X57318000Y-82641000D01*
X57507000Y-79601000D02*
X54562000Y-79601000D01*
X57507000Y-80721000D02*
X54985000Y-80721000D01*
X60775000Y-82161000D02*
X56319000Y-82161000D01*
X61939000Y-81001000D02*
X59587000Y-81001000D01*
X61001000Y-82001000D02*
X56093000Y-82001000D01*
X61991000Y-80921000D02*
X59587000Y-80921000D01*
X57507000Y-78960000D02*
X54473000Y-78960000D01*
X62436000Y-79961000D02*
X59587000Y-79961000D01*
X57507000Y-81001000D02*
X55155000Y-81001000D01*
X62564000Y-79441000D02*
X59587000Y-79441000D01*
X57507000Y-79721000D02*
X54590000Y-79721000D01*
X57507000Y-79921000D02*
X54645000Y-79921000D01*
X62016000Y-80881000D02*
X59587000Y-80881000D01*
X61736000Y-81281000D02*
X55358000Y-81281000D01*
X61856000Y-81121000D02*
X55238000Y-81121000D01*
X62504000Y-79721000D02*
X59587000Y-79721000D01*
X57507000Y-80801000D02*
X55030000Y-80801000D01*
X62449000Y-79921000D02*
X59587000Y-79921000D01*
X62233000Y-80481000D02*
X59587000Y-80481000D01*
X59893000Y-82601000D02*
X57201000Y-82601000D01*
X61244000Y-81801000D02*
X55850000Y-81801000D01*
X61797000Y-81201000D02*
X55297000Y-81201000D01*
X62595000Y-79240000D02*
X59587000Y-79240000D01*
X61454000Y-81601000D02*
X55640000Y-81601000D01*
X61151000Y-81881000D02*
X55943000Y-81881000D01*
X57507000Y-80961000D02*
X55129000Y-80961000D01*
X62483000Y-79801000D02*
X59587000Y-79801000D01*
X62577000Y-79360000D02*
X59587000Y-79360000D01*
X57507000Y-79080000D02*
X54482000Y-79080000D01*
X62532000Y-79601000D02*
X59587000Y-79601000D01*
X62368000Y-80161000D02*
X59587000Y-80161000D01*
X57507000Y-79761000D02*
X54600000Y-79761000D01*
X59645000Y-82681000D02*
X57449000Y-82681000D01*
X62626000Y-78840000D02*
X54468000Y-78840000D01*
X60511000Y-82321000D02*
X56583000Y-82321000D01*
X59315000Y-82761000D02*
X57779000Y-82761000D01*
X61827000Y-81161000D02*
X55267000Y-81161000D01*
X60192000Y-82481000D02*
X56902000Y-82481000D01*
X62623000Y-78920000D02*
X54471000Y-78920000D01*
X61912000Y-81041000D02*
X55182000Y-81041000D01*
X57507000Y-79160000D02*
X54490000Y-79160000D01*
X57507000Y-79360000D02*
X54517000Y-79360000D01*
X61331000Y-81721000D02*
X55763000Y-81721000D01*
X57507000Y-80361000D02*
X54807000Y-80361000D01*
X60947000Y-82041000D02*
X56147000Y-82041000D01*
X57507000Y-80001000D02*
X54670000Y-80001000D01*
X57507000Y-80761000D02*
X55007000Y-80761000D01*
X60862000Y-74310302D02*
X60862000Y-75110302D01*
X61885000Y-81081000D02*
X55209000Y-81081000D01*
X57507000Y-80601000D02*
X54920000Y-80601000D01*
X60713000Y-82201000D02*
X56381000Y-82201000D01*
X57507000Y-80041000D02*
X54684000Y-80041000D01*
X57507000Y-80521000D02*
X54881000Y-80521000D01*
X62109000Y-80721000D02*
X59587000Y-80721000D01*
X57507000Y-79801000D02*
X54611000Y-79801000D01*
X62397000Y-80081000D02*
X59587000Y-80081000D01*
X57507000Y-80241000D02*
X54757000Y-80241000D01*
X62541000Y-79561000D02*
X59587000Y-79561000D01*
X60099000Y-82521000D02*
X56995000Y-82521000D01*
X61052000Y-81961000D02*
X56042000Y-81961000D01*
X57507000Y-80681000D02*
X54963000Y-80681000D01*
X57507000Y-79441000D02*
X54530000Y-79441000D01*
X61703000Y-81321000D02*
X55391000Y-81321000D01*
X62571000Y-79400000D02*
X59587000Y-79400000D01*
X57507000Y-80641000D02*
X54941000Y-80641000D01*
X62627000Y-78720000D02*
X54467000Y-78720000D01*
X61530000Y-81521000D02*
X55564000Y-81521000D01*
X62514000Y-79681000D02*
X59587000Y-79681000D01*
X62424000Y-80001000D02*
X59587000Y-80001000D01*
X62321000Y-80281000D02*
X59587000Y-80281000D01*
X57507000Y-79400000D02*
X54523000Y-79400000D01*
X62153000Y-80641000D02*
X59587000Y-80641000D01*
X62087000Y-80761000D02*
X59587000Y-80761000D01*
X57507000Y-79320000D02*
X54510000Y-79320000D01*
X59080000Y-82801000D02*
X58014000Y-82801000D01*
X57507000Y-80481000D02*
X54861000Y-80481000D01*
X59495000Y-82721000D02*
X57599000Y-82721000D01*
X62624000Y-78880000D02*
X54470000Y-78880000D01*
X62604000Y-79160000D02*
X59587000Y-79160000D01*
X57507000Y-80161000D02*
X54726000Y-80161000D01*
X57507000Y-80321000D02*
X54790000Y-80321000D01*
X61566000Y-81481000D02*
X55528000Y-81481000D01*
X62131000Y-80681000D02*
X59587000Y-80681000D01*
X57507000Y-79240000D02*
X54499000Y-79240000D01*
X62589000Y-79280000D02*
X59587000Y-79280000D01*
X61103000Y-81921000D02*
X55991000Y-81921000D01*
X60278000Y-82441000D02*
X56816000Y-82441000D01*
X57507000Y-79681000D02*
X54580000Y-79681000D01*
X62621000Y-78960000D02*
X59587000Y-78960000D01*
X62618000Y-79000000D02*
X59587000Y-79000000D01*
X62269000Y-80401000D02*
X59587000Y-80401000D01*
X62599000Y-79200000D02*
X59587000Y-79200000D01*
X62382000Y-80121000D02*
X59587000Y-80121000D01*
X62352000Y-80201000D02*
X59587000Y-80201000D01*
X57507000Y-80441000D02*
X54843000Y-80441000D01*
X57507000Y-80081000D02*
X54697000Y-80081000D01*
X57507000Y-79961000D02*
X54658000Y-79961000D01*
X61602000Y-81441000D02*
X55492000Y-81441000D01*
X61637000Y-81401000D02*
X55457000Y-81401000D01*
X62557000Y-79481000D02*
X59587000Y-79481000D01*
X57507000Y-80841000D02*
X55054000Y-80841000D01*
X61767000Y-81241000D02*
X55327000Y-81241000D01*
X61373000Y-81681000D02*
X55721000Y-81681000D01*
X61492000Y-81561000D02*
X55602000Y-81561000D01*
X62584000Y-79320000D02*
X59587000Y-79320000D01*
X57507000Y-79881000D02*
X54633000Y-79881000D01*
X60360000Y-82401000D02*
X56734000Y-82401000D01*
X62251000Y-80441000D02*
X59587000Y-80441000D01*
X60649000Y-82241000D02*
X56445000Y-82241000D01*
X57507000Y-80881000D02*
X55078000Y-80881000D01*
X60000000Y-82561000D02*
X57094000Y-82561000D01*
X57507000Y-80201000D02*
X54742000Y-80201000D01*
X62627000Y-78760000D02*
X54467000Y-78760000D01*
X61198000Y-81841000D02*
X55896000Y-81841000D01*
X61414000Y-81641000D02*
X55680000Y-81641000D01*
X62472000Y-79841000D02*
X59587000Y-79841000D01*
X62615000Y-79040000D02*
X59587000Y-79040000D01*
X62213000Y-80521000D02*
X59587000Y-80521000D01*
X61262000Y-74710302D02*
X60462000Y-74710302D01*
X62337000Y-80241000D02*
X59587000Y-80241000D01*
X62194000Y-80561000D02*
X59587000Y-80561000D01*
X61288000Y-81761000D02*
X55806000Y-81761000D01*
X57507000Y-80281000D02*
X54773000Y-80281000D01*
X62064000Y-80801000D02*
X59587000Y-80801000D01*
X57507000Y-79841000D02*
X54622000Y-79841000D01*
X61671000Y-81361000D02*
X55423000Y-81361000D01*
X57507000Y-79280000D02*
X54505000Y-79280000D01*
X57507000Y-80401000D02*
X54825000Y-80401000D01*
X60437000Y-82361000D02*
X56657000Y-82361000D01*
X62667000Y-78720000D02*
G75*
G03*
X62667000Y-78720000I-4120000J0D01*
G01*
%TO.C,REF\u002A\u002A*%
G36*
X68229273Y-141768230D02*
G01*
X68419499Y-141889256D01*
X68569805Y-142043647D01*
X68675647Y-142226561D01*
X68687684Y-142256898D01*
X68702472Y-142299333D01*
X68714389Y-142343494D01*
X68723744Y-142395562D01*
X68730844Y-142461720D01*
X68735997Y-142548148D01*
X68739511Y-142661028D01*
X68741692Y-142806541D01*
X68742850Y-142990869D01*
X68743290Y-143220193D01*
X68743339Y-143375253D01*
X68743171Y-143633325D01*
X68742465Y-143842837D01*
X68740911Y-144009972D01*
X68738203Y-144140910D01*
X68734033Y-144241832D01*
X68728093Y-144318921D01*
X68720075Y-144378357D01*
X68709673Y-144426322D01*
X68696577Y-144468997D01*
X68687684Y-144493608D01*
X68589080Y-144680476D01*
X68445314Y-144839566D01*
X68260928Y-144966035D01*
X68229273Y-144982275D01*
X68046537Y-145072235D01*
X60408964Y-145072235D01*
X60258425Y-145001149D01*
X60075505Y-144886994D01*
X59919726Y-144734498D01*
X59803735Y-144556233D01*
X59797266Y-144542760D01*
X59724696Y-144387968D01*
X59719994Y-143467071D01*
X60309868Y-143467071D01*
X60311812Y-143667496D01*
X60315908Y-143855693D01*
X60322161Y-144023295D01*
X60330577Y-144161937D01*
X60341163Y-144263253D01*
X60353923Y-144318876D01*
X60354685Y-144320437D01*
X60365412Y-144343340D01*
X60374526Y-144364003D01*
X60384752Y-144382541D01*
X60398815Y-144399070D01*
X60419441Y-144413702D01*
X60449354Y-144426553D01*
X60491280Y-144437738D01*
X60547944Y-144447370D01*
X60622071Y-144455565D01*
X60716386Y-144462436D01*
X60833615Y-144468098D01*
X60976483Y-144472666D01*
X61147715Y-144476255D01*
X61350036Y-144478978D01*
X61586171Y-144480950D01*
X61858845Y-144482286D01*
X62170785Y-144483100D01*
X62524714Y-144483506D01*
X62923359Y-144483620D01*
X63369443Y-144483556D01*
X63865694Y-144483427D01*
X64232658Y-144483362D01*
X64780690Y-144483198D01*
X65276248Y-144482818D01*
X65721599Y-144482202D01*
X66119010Y-144481328D01*
X66470749Y-144480176D01*
X66779083Y-144478726D01*
X67046279Y-144476956D01*
X67274604Y-144474846D01*
X67466325Y-144472375D01*
X67623710Y-144469523D01*
X67749025Y-144466268D01*
X67844538Y-144462590D01*
X67912516Y-144458468D01*
X67955226Y-144453882D01*
X67974321Y-144449149D01*
X68037341Y-144402839D01*
X68097066Y-144338630D01*
X68097489Y-144338062D01*
X68113280Y-144314896D01*
X68125874Y-144288521D01*
X68135632Y-144252880D01*
X68142915Y-144201914D01*
X68148085Y-144129565D01*
X68151501Y-144029774D01*
X68153526Y-143896484D01*
X68154520Y-143723637D01*
X68154845Y-143505173D01*
X68154869Y-143375253D01*
X68154746Y-143131386D01*
X68154136Y-142936202D01*
X68152678Y-142783643D01*
X68150011Y-142667650D01*
X68145774Y-142582166D01*
X68139606Y-142521132D01*
X68131146Y-142478489D01*
X68120033Y-142448180D01*
X68105905Y-142424147D01*
X68097489Y-142412443D01*
X68037937Y-142348204D01*
X67974805Y-142301607D01*
X67974321Y-142301357D01*
X67953212Y-142296316D01*
X67908959Y-142291760D01*
X67839292Y-142287668D01*
X67741946Y-142284017D01*
X67614654Y-142280789D01*
X67455147Y-142277961D01*
X67261159Y-142275514D01*
X67030422Y-142273426D01*
X66760670Y-142271677D01*
X66449636Y-142270247D01*
X66095051Y-142269113D01*
X65694650Y-142268257D01*
X65246165Y-142267656D01*
X64747328Y-142267291D01*
X64232658Y-142267143D01*
X63701047Y-142267041D01*
X63221448Y-142266931D01*
X62791135Y-142266924D01*
X62407378Y-142267131D01*
X62067450Y-142267662D01*
X61768621Y-142268628D01*
X61508165Y-142270139D01*
X61283353Y-142272308D01*
X61091457Y-142275243D01*
X60929748Y-142279056D01*
X60795499Y-142283858D01*
X60685981Y-142289760D01*
X60598465Y-142296871D01*
X60530225Y-142305303D01*
X60478531Y-142315167D01*
X60440656Y-142326573D01*
X60413870Y-142339632D01*
X60395447Y-142354454D01*
X60382658Y-142371151D01*
X60372774Y-142389833D01*
X60363068Y-142410610D01*
X60356012Y-142424465D01*
X60343059Y-142476235D01*
X60332216Y-142574340D01*
X60323490Y-142710414D01*
X60316886Y-142876089D01*
X60312411Y-143063002D01*
X60310069Y-143262785D01*
X60309868Y-143467071D01*
X59719994Y-143467071D01*
X59719805Y-143429994D01*
X59719360Y-143201650D01*
X59720312Y-142986848D01*
X59722524Y-142792702D01*
X59725863Y-142626323D01*
X59730191Y-142494827D01*
X59735375Y-142405326D01*
X59739994Y-142368955D01*
X59815173Y-142172574D01*
X59937156Y-141996263D01*
X60099391Y-141847857D01*
X60253945Y-141754396D01*
X60408964Y-141678270D01*
X68046537Y-141678270D01*
X68229273Y-141768230D01*
G37*
G36*
X71595148Y-127146123D02*
G01*
X71632499Y-127143865D01*
X71658570Y-127141432D01*
X71675032Y-127138811D01*
X71683557Y-127135989D01*
X71685816Y-127132953D01*
X71683482Y-127129691D01*
X71678225Y-127126190D01*
X71671717Y-127122438D01*
X71665630Y-127118422D01*
X71661636Y-127114129D01*
X71661144Y-127110220D01*
X71779973Y-126790328D01*
X71929076Y-126508380D01*
X72114854Y-126253055D01*
X72201165Y-126155526D01*
X72450045Y-125926296D01*
X72730024Y-125736753D01*
X73032645Y-125591649D01*
X73349454Y-125495737D01*
X73389821Y-125487407D01*
X73527353Y-125470459D01*
X73673608Y-125464988D01*
X73698927Y-125464041D01*
X73887860Y-125467348D01*
X74077470Y-125479580D01*
X74251073Y-125499933D01*
X74391986Y-125527605D01*
X74425410Y-125537220D01*
X74728918Y-125658975D01*
X75013103Y-125822053D01*
X75267160Y-126019324D01*
X75462270Y-126221588D01*
X75573085Y-126370334D01*
X75680225Y-126541229D01*
X75773563Y-126716219D01*
X75842976Y-126877252D01*
X75861875Y-126934059D01*
X75886491Y-127006256D01*
X75911400Y-127037053D01*
X75949166Y-127038403D01*
X75967214Y-127034265D01*
X76252457Y-126985964D01*
X76528376Y-126989788D01*
X76803246Y-127046027D01*
X76865175Y-127065725D01*
X77156641Y-127190516D01*
X77425742Y-127357296D01*
X77668371Y-127560226D01*
X77880426Y-127793466D01*
X78057801Y-128051177D01*
X78196391Y-128327520D01*
X78292092Y-128616657D01*
X78340800Y-128912747D01*
X78342100Y-129166749D01*
X78313730Y-129385051D01*
X78257908Y-129601557D01*
X78170338Y-129829903D01*
X78062972Y-130052684D01*
X77917271Y-130333348D01*
X78040896Y-130434649D01*
X78158632Y-130546622D01*
X78284979Y-130692627D01*
X78407271Y-130856262D01*
X78512843Y-131021122D01*
X78558535Y-131105067D01*
X78677076Y-131389744D01*
X78760346Y-131696433D01*
X78806620Y-132011924D01*
X78814172Y-132323004D01*
X78781275Y-132616461D01*
X78765548Y-132689648D01*
X78730456Y-132820621D01*
X78688820Y-132952977D01*
X78648665Y-133061542D01*
X78642032Y-133077026D01*
X78574776Y-133229103D01*
X78755422Y-133274480D01*
X79099303Y-133388468D01*
X79425783Y-133550874D01*
X79729660Y-133756750D01*
X80005733Y-134001150D01*
X80248800Y-134279127D01*
X80453660Y-134585734D01*
X80615113Y-134916025D01*
X80684570Y-135109304D01*
X80754779Y-135369915D01*
X80795808Y-135620785D01*
X80810426Y-135884142D01*
X80806441Y-136087506D01*
X80766976Y-136465695D01*
X80681762Y-136817761D01*
X80548538Y-137150826D01*
X80369379Y-137465421D01*
X80246108Y-137633309D01*
X80093631Y-137810148D01*
X79926077Y-137981430D01*
X79757571Y-138132652D01*
X79612755Y-138242325D01*
X79437742Y-138348776D01*
X79240315Y-138450742D01*
X79040111Y-138539043D01*
X78856767Y-138604501D01*
X78808626Y-138618145D01*
X78631819Y-138664518D01*
X78736895Y-138884972D01*
X78830831Y-139104228D01*
X78891685Y-139306019D01*
X78924449Y-139512209D01*
X78934115Y-139744663D01*
X78934110Y-139748636D01*
X78908158Y-140092995D01*
X78831646Y-140416440D01*
X78704480Y-140719183D01*
X78526569Y-141001435D01*
X78297822Y-141263405D01*
X78258455Y-141301596D01*
X78007859Y-141507220D01*
X77735527Y-141666009D01*
X77479150Y-141769014D01*
X77380583Y-141799329D01*
X77290873Y-141819567D01*
X77194200Y-141831701D01*
X77074744Y-141837704D01*
X76916685Y-141839548D01*
X76913489Y-141839555D01*
X76762114Y-141838931D01*
X76649516Y-141834783D01*
X76559742Y-141824801D01*
X76476841Y-141806679D01*
X76384862Y-141778106D01*
X76311547Y-141752442D01*
X76205996Y-141714780D01*
X76123039Y-141685210D01*
X76073858Y-141667716D01*
X76065211Y-141664673D01*
X76064982Y-141690297D01*
X76064516Y-141759967D01*
X76063882Y-141862986D01*
X76063161Y-141986278D01*
X76047027Y-142273262D01*
X75999628Y-142529654D01*
X75917189Y-142772203D01*
X75856205Y-142904454D01*
X75673881Y-143210822D01*
X75454516Y-143478736D01*
X75201211Y-143705818D01*
X74917065Y-143889687D01*
X74605177Y-144027966D01*
X74276653Y-144116752D01*
X73950582Y-144152355D01*
X73626329Y-144136285D01*
X73309687Y-144071467D01*
X73006449Y-143960827D01*
X72722410Y-143807287D01*
X72463362Y-143613774D01*
X72235101Y-143383210D01*
X72043418Y-143118522D01*
X71946428Y-142940515D01*
X71884864Y-142803075D01*
X71827833Y-142658500D01*
X71783426Y-142528111D01*
X71766115Y-142465177D01*
X71719342Y-142266740D01*
X71301830Y-142266740D01*
X71138804Y-142267423D01*
X71021127Y-142270153D01*
X70939413Y-142275946D01*
X70884281Y-142285821D01*
X70846345Y-142300794D01*
X70819701Y-142319024D01*
X70755084Y-142371309D01*
X70739906Y-143543863D01*
X70735632Y-143854283D01*
X70730964Y-144116125D01*
X70725056Y-144335550D01*
X70717064Y-144518719D01*
X70706142Y-144671793D01*
X70691444Y-144800935D01*
X70672125Y-144912304D01*
X70647340Y-145012062D01*
X70616243Y-145106371D01*
X70577988Y-145201392D01*
X70531730Y-145303286D01*
X70485109Y-145400684D01*
X70299246Y-145724163D01*
X70073073Y-146011524D01*
X69809153Y-146260687D01*
X69510046Y-146469570D01*
X69178315Y-146636094D01*
X68816522Y-146758178D01*
X68811765Y-146759428D01*
X68565429Y-146823960D01*
X59834179Y-146823960D01*
X59591210Y-146762063D01*
X59231974Y-146644152D01*
X58903261Y-146480983D01*
X58603820Y-146271869D01*
X58455594Y-146141262D01*
X58198751Y-145863697D01*
X57992705Y-145567193D01*
X57836002Y-145249130D01*
X57727188Y-144906891D01*
X57700145Y-144780898D01*
X57688788Y-144709696D01*
X57679549Y-144623823D01*
X57672243Y-144517542D01*
X57666685Y-144385115D01*
X57662688Y-144220805D01*
X57660066Y-144018874D01*
X57658636Y-143773584D01*
X57658209Y-143484744D01*
X57658088Y-143213094D01*
X57657562Y-142990838D01*
X57656384Y-142812630D01*
X57654310Y-142673121D01*
X57651095Y-142566965D01*
X57646492Y-142488816D01*
X57640257Y-142433325D01*
X57632145Y-142395146D01*
X57621910Y-142368932D01*
X57609306Y-142349336D01*
X57605916Y-142345041D01*
X57553623Y-142280425D01*
X56298965Y-142266740D01*
X56003686Y-142263436D01*
X55757986Y-142260364D01*
X55556705Y-142257253D01*
X55394683Y-142253832D01*
X55266760Y-142249831D01*
X55167777Y-142244979D01*
X55092572Y-142239005D01*
X55035986Y-142231639D01*
X54992859Y-142222608D01*
X54958031Y-142211644D01*
X54926342Y-142198475D01*
X54917057Y-142194230D01*
X54781803Y-142109868D01*
X54648583Y-141981710D01*
X54515698Y-141807381D01*
X54381447Y-141584505D01*
X54244132Y-141310707D01*
X54175643Y-141158227D01*
X53986246Y-140676586D01*
X53815309Y-140145716D01*
X53663373Y-139568116D01*
X53530980Y-138946281D01*
X53418669Y-138282708D01*
X53326981Y-137579896D01*
X53265814Y-136955299D01*
X53256304Y-136825776D01*
X53246139Y-136659001D01*
X53235619Y-136462808D01*
X53225046Y-136245028D01*
X53214719Y-136013496D01*
X53204940Y-135776043D01*
X53196007Y-135540502D01*
X53188223Y-135314706D01*
X53181887Y-135106489D01*
X53177300Y-134923681D01*
X53174762Y-134774117D01*
X53174574Y-134665629D01*
X53176109Y-134616632D01*
X53178459Y-134560491D01*
X53181255Y-134461766D01*
X53184026Y-134340371D01*
X53785464Y-134340371D01*
X53785564Y-134662252D01*
X53787738Y-134993694D01*
X53791884Y-135324105D01*
X53797898Y-135642890D01*
X53805678Y-135939458D01*
X53815118Y-136203214D01*
X53826117Y-136423566D01*
X53826924Y-136436783D01*
X53886589Y-137197157D01*
X53968983Y-137920332D01*
X54073624Y-138603493D01*
X54200031Y-139243823D01*
X54347723Y-139838507D01*
X54485967Y-140294923D01*
X54577830Y-140555417D01*
X54678077Y-140809337D01*
X54782447Y-141047491D01*
X54886676Y-141260686D01*
X54986501Y-141439732D01*
X55077659Y-141575437D01*
X55083131Y-141582472D01*
X55136922Y-141650899D01*
X56390723Y-141664585D01*
X56685193Y-141667846D01*
X56930132Y-141670821D01*
X57130751Y-141673800D01*
X57292258Y-141677076D01*
X57419861Y-141680944D01*
X57518770Y-141685694D01*
X57594192Y-141691621D01*
X57651337Y-141699017D01*
X57695413Y-141708174D01*
X57731629Y-141719386D01*
X57765194Y-141732945D01*
X57787991Y-141743126D01*
X57947528Y-141843290D01*
X58085280Y-141985180D01*
X58188179Y-142153907D01*
X58202154Y-142186032D01*
X58213798Y-142220013D01*
X58223395Y-142261100D01*
X58231228Y-142314543D01*
X58237581Y-142385593D01*
X58242736Y-142479499D01*
X58246977Y-142601514D01*
X58250588Y-142756886D01*
X58253851Y-142950866D01*
X58257050Y-143188705D01*
X58260468Y-143475654D01*
X58260731Y-143498421D01*
X58264161Y-143788934D01*
X58267336Y-144030164D01*
X58270562Y-144227567D01*
X58274141Y-144386599D01*
X58278377Y-144512716D01*
X58283573Y-144611373D01*
X58290032Y-144688026D01*
X58298057Y-144748131D01*
X58307953Y-144797144D01*
X58320021Y-144840520D01*
X58334567Y-144883716D01*
X58338339Y-144894326D01*
X58472771Y-145202426D01*
X58642272Y-145469396D01*
X58849434Y-145698175D01*
X59096850Y-145891699D01*
X59341507Y-146031047D01*
X59394416Y-146057592D01*
X59441968Y-146081769D01*
X59486815Y-146103682D01*
X59531607Y-146123438D01*
X59578994Y-146141144D01*
X59631627Y-146156905D01*
X59692157Y-146170828D01*
X59763234Y-146183018D01*
X59847509Y-146193582D01*
X59947633Y-146202626D01*
X60066255Y-146210256D01*
X60206028Y-146216579D01*
X60369600Y-146221700D01*
X60559624Y-146225726D01*
X60778749Y-146228762D01*
X61029627Y-146230915D01*
X61314907Y-146232291D01*
X61637240Y-146232997D01*
X61999278Y-146233137D01*
X62403670Y-146232819D01*
X62853068Y-146232149D01*
X63350121Y-146231233D01*
X63897481Y-146230176D01*
X64295601Y-146229439D01*
X68565429Y-146221804D01*
X68757024Y-146157520D01*
X69065505Y-146029915D01*
X69335412Y-145866250D01*
X69511716Y-145721634D01*
X69665541Y-145568446D01*
X69786054Y-145420549D01*
X69888445Y-145257864D01*
X69946368Y-145147094D01*
X69986584Y-145065161D01*
X70020162Y-144992442D01*
X70047768Y-144923144D01*
X70070071Y-144851473D01*
X70087736Y-144771638D01*
X70101430Y-144677845D01*
X70111821Y-144564301D01*
X70119574Y-144425213D01*
X70125358Y-144254787D01*
X70129837Y-144047232D01*
X70133681Y-143796754D01*
X70137554Y-143497559D01*
X70137716Y-143484735D01*
X70141470Y-143195591D01*
X70144950Y-142955907D01*
X70148445Y-142760404D01*
X70152245Y-142603802D01*
X70156640Y-142480824D01*
X70161918Y-142386190D01*
X70168370Y-142314622D01*
X70176284Y-142260841D01*
X70185949Y-142219568D01*
X70197656Y-142185524D01*
X70210562Y-142155866D01*
X70322664Y-141973629D01*
X70472288Y-141831136D01*
X70599575Y-141754636D01*
X70664263Y-141724562D01*
X70723429Y-141703247D01*
X70788901Y-141688878D01*
X70872505Y-141679644D01*
X70986069Y-141673730D01*
X71141420Y-141669323D01*
X71158802Y-141668917D01*
X71300395Y-141665257D01*
X71420288Y-141661436D01*
X71508941Y-141657815D01*
X71556816Y-141654754D01*
X71562520Y-141653628D01*
X71553797Y-141627086D01*
X71530468Y-141561127D01*
X71496791Y-141467720D01*
X71479549Y-141420347D01*
X71425251Y-141265091D01*
X71363001Y-141076795D01*
X71298479Y-140873572D01*
X71237362Y-140673535D01*
X71185332Y-140494796D01*
X71158469Y-140396308D01*
X71131626Y-140310301D01*
X71104405Y-140249259D01*
X71086407Y-140228747D01*
X70863561Y-140164149D01*
X70650452Y-140085795D01*
X70440321Y-139993433D01*
X70248448Y-139908066D01*
X70078539Y-139843740D01*
X69916393Y-139797388D01*
X69747811Y-139765941D01*
X69558593Y-139746330D01*
X69334540Y-139735488D01*
X69234978Y-139732980D01*
X68998782Y-139724945D01*
X68807325Y-139710083D01*
X68650785Y-139686044D01*
X68519343Y-139650481D01*
X68403179Y-139601044D01*
X68292473Y-139535386D01*
X68232752Y-139493278D01*
X68081147Y-139366265D01*
X67965006Y-139229613D01*
X67868736Y-139067031D01*
X67759405Y-138798362D01*
X67700547Y-138526095D01*
X67690990Y-138255952D01*
X67692017Y-138248967D01*
X68291663Y-138248967D01*
X68294109Y-138421299D01*
X68320783Y-138594036D01*
X68346032Y-138682712D01*
X68431148Y-138851057D01*
X68556151Y-138987268D01*
X68681721Y-139068130D01*
X68735952Y-139092366D01*
X68790489Y-139109732D01*
X68855929Y-139121497D01*
X68942867Y-139128931D01*
X69061902Y-139133302D01*
X69223629Y-139135880D01*
X69249696Y-139136164D01*
X69526807Y-139143996D01*
X69764747Y-139163305D01*
X69978463Y-139197346D01*
X70182904Y-139249377D01*
X70393021Y-139322655D01*
X70623760Y-139420434D01*
X70686657Y-139449200D01*
X70930416Y-139552300D01*
X71155694Y-139625417D01*
X71384358Y-139675566D01*
X71400761Y-139678348D01*
X71473529Y-139698185D01*
X71532480Y-139735616D01*
X71582377Y-139798175D01*
X71627985Y-139893394D01*
X71674068Y-140028806D01*
X71715996Y-140176765D01*
X71752696Y-140306208D01*
X71803224Y-140474639D01*
X71863593Y-140669282D01*
X71929813Y-140877363D01*
X71997896Y-141086110D01*
X72031006Y-141185597D01*
X72096732Y-141387050D01*
X72160243Y-141591695D01*
X72218023Y-141787441D01*
X72266555Y-141962196D01*
X72302322Y-142103870D01*
X72314992Y-142161877D01*
X72392402Y-142462008D01*
X72497815Y-142718918D01*
X72634758Y-142938346D01*
X72806755Y-143126034D01*
X72998782Y-143275474D01*
X73187057Y-143389449D01*
X73363787Y-143467379D01*
X73546767Y-143514534D01*
X73753790Y-143536184D01*
X73889028Y-143539132D01*
X74045018Y-143536887D01*
X74163674Y-143528691D01*
X74262277Y-143512355D01*
X74358105Y-143485689D01*
X74386913Y-143476031D01*
X74641741Y-143360223D01*
X74874201Y-143199467D01*
X75077687Y-143001057D01*
X75245593Y-142772285D01*
X75371312Y-142520444D01*
X75434127Y-142320033D01*
X75475012Y-142046228D01*
X75466053Y-141776091D01*
X75406455Y-141502310D01*
X75320518Y-141272860D01*
X75266415Y-141134684D01*
X75243733Y-141029851D01*
X75252716Y-140946706D01*
X75293610Y-140873596D01*
X75329722Y-140833511D01*
X75426043Y-140763837D01*
X75529747Y-140744658D01*
X75648525Y-140775155D01*
X75690487Y-140795018D01*
X75928229Y-140917064D01*
X76124388Y-141015562D01*
X76285538Y-141092989D01*
X76418252Y-141151827D01*
X76529105Y-141194553D01*
X76624672Y-141223648D01*
X76711525Y-141241590D01*
X76796241Y-141250858D01*
X76885392Y-141253933D01*
X76907658Y-141254024D01*
X77173324Y-141227430D01*
X77425869Y-141149449D01*
X77660602Y-141022783D01*
X77872833Y-140850134D01*
X78057869Y-140634202D01*
X78105580Y-140564170D01*
X78227322Y-140335273D01*
X78302475Y-140093305D01*
X78334101Y-139827407D01*
X78335575Y-139748636D01*
X78324656Y-139539490D01*
X78288856Y-139352681D01*
X78223305Y-139175980D01*
X78123132Y-138997155D01*
X77983467Y-138803976D01*
X77935842Y-138744695D01*
X77838770Y-138617372D01*
X77780204Y-138516026D01*
X77756954Y-138431161D01*
X77765834Y-138353281D01*
X77787258Y-138302038D01*
X77834452Y-138230351D01*
X77896251Y-138180942D01*
X77984205Y-138148533D01*
X78109865Y-138127846D01*
X78183901Y-138120780D01*
X78532322Y-138066506D01*
X78858501Y-137964616D01*
X79158807Y-137818132D01*
X79429604Y-137630077D01*
X79667262Y-137403471D01*
X79868145Y-137141337D01*
X80028621Y-136846696D01*
X80145056Y-136522571D01*
X80156290Y-136480303D01*
X80196499Y-136255433D01*
X80212776Y-136003890D01*
X80205116Y-135748234D01*
X80173516Y-135511027D01*
X80156481Y-135435288D01*
X80046354Y-135109168D01*
X79891014Y-134809654D01*
X79694503Y-134540630D01*
X79460865Y-134305983D01*
X79194141Y-134109599D01*
X78898374Y-133955364D01*
X78577606Y-133847164D01*
X78481615Y-133825184D01*
X78357195Y-133803484D01*
X78232090Y-133787933D01*
X78132960Y-133781829D01*
X78131280Y-133781826D01*
X77978314Y-133762890D01*
X77863100Y-133706760D01*
X77789815Y-133618498D01*
X77761110Y-133549588D01*
X77753437Y-133483662D01*
X77769642Y-133409890D01*
X77812571Y-133317444D01*
X77885068Y-133195494D01*
X77912192Y-133152811D01*
X78015247Y-132987606D01*
X78090287Y-132852052D01*
X78141704Y-132731680D01*
X78173891Y-132612023D01*
X78191243Y-132478616D01*
X78198152Y-132316990D01*
X78199098Y-132208011D01*
X78197771Y-132035663D01*
X78192167Y-131905550D01*
X78181114Y-131805255D01*
X78163436Y-131722360D01*
X78148643Y-131674283D01*
X78033300Y-131402227D01*
X77883927Y-131157145D01*
X77706332Y-130946576D01*
X77506323Y-130778056D01*
X77412527Y-130719064D01*
X77280780Y-130628081D01*
X77202790Y-130532918D01*
X77177579Y-130430098D01*
X77204169Y-130316146D01*
X77268071Y-130206097D01*
X77457091Y-129917969D01*
X77598171Y-129650538D01*
X77692053Y-129399473D01*
X77739483Y-129160444D01*
X77741203Y-128929119D01*
X77697958Y-128701167D01*
X77610492Y-128472258D01*
X77577296Y-128405715D01*
X77477797Y-128251446D01*
X77342437Y-128090983D01*
X77186010Y-127938871D01*
X77023311Y-127809657D01*
X76886119Y-127726149D01*
X76699303Y-127646520D01*
X76516985Y-127595131D01*
X76352759Y-127575145D01*
X76260880Y-127580693D01*
X76180044Y-127601509D01*
X76092287Y-127635755D01*
X76013128Y-127675762D01*
X75958084Y-127713862D01*
X75941830Y-127738346D01*
X75917889Y-127773694D01*
X75857513Y-127812164D01*
X75777870Y-127845779D01*
X75696130Y-127866564D01*
X75659175Y-127869655D01*
X75544703Y-127846462D01*
X75459260Y-127777388D01*
X75403833Y-127663566D01*
X75382887Y-127552808D01*
X75351990Y-127358822D01*
X75301230Y-127159574D01*
X75236658Y-126975302D01*
X75167035Y-126830837D01*
X75034330Y-126644248D01*
X74865184Y-126467371D01*
X74676088Y-126315636D01*
X74511736Y-126217827D01*
X74235596Y-126110585D01*
X73954404Y-126056038D01*
X73673608Y-126053156D01*
X73398657Y-126100909D01*
X73134999Y-126198266D01*
X72888081Y-126344198D01*
X72663352Y-126537675D01*
X72629078Y-126573776D01*
X72511309Y-126713595D01*
X72415463Y-126857888D01*
X72336460Y-127017798D01*
X72269221Y-127204471D01*
X72208665Y-127429050D01*
X72178726Y-127561733D01*
X72141924Y-127727253D01*
X72095142Y-127928695D01*
X72042444Y-128149073D01*
X71987893Y-128371397D01*
X71935550Y-128578683D01*
X71934853Y-128581395D01*
X71804457Y-129106935D01*
X71691500Y-129604393D01*
X71592018Y-130093496D01*
X71502045Y-130593970D01*
X71417616Y-131125541D01*
X71401189Y-131236352D01*
X71310993Y-131897325D01*
X71239159Y-132530416D01*
X71184412Y-133152277D01*
X71145478Y-133779558D01*
X71121081Y-134428912D01*
X71110625Y-135031884D01*
X71107061Y-135335810D01*
X71102313Y-135591243D01*
X71096426Y-135796953D01*
X71089444Y-135951711D01*
X71081412Y-136054287D01*
X71072374Y-136103453D01*
X71071654Y-136104957D01*
X71034900Y-136141919D01*
X70961757Y-136193744D01*
X70865201Y-136251631D01*
X70817218Y-136277497D01*
X70540023Y-136447446D01*
X70308756Y-136644660D01*
X70142586Y-136842349D01*
X69995949Y-137037105D01*
X69863970Y-137185185D01*
X69742265Y-137291237D01*
X69681379Y-137331439D01*
X69546759Y-137397336D01*
X69393004Y-137452497D01*
X69241713Y-137490330D01*
X69115372Y-137504240D01*
X68912766Y-137529886D01*
X68724969Y-137602669D01*
X68560345Y-137716359D01*
X68427259Y-137864725D01*
X68334074Y-138041534D01*
X68314719Y-138100711D01*
X68291663Y-138248967D01*
X67692017Y-138248967D01*
X67729563Y-137993654D01*
X67815093Y-137744923D01*
X67946411Y-137515483D01*
X68122345Y-137311054D01*
X68250666Y-137201388D01*
X68436621Y-137078854D01*
X68628201Y-136994237D01*
X68845383Y-136939313D01*
X68915003Y-136927913D01*
X69026186Y-136911494D01*
X69126932Y-136896633D01*
X69194955Y-136886617D01*
X69280947Y-136863582D01*
X69364248Y-136816598D01*
X69452513Y-136739229D01*
X69553396Y-136625041D01*
X69642986Y-136509980D01*
X69785805Y-136329577D01*
X69920240Y-136183505D01*
X70061919Y-136056900D01*
X70226469Y-135934896D01*
X70298421Y-135886533D01*
X70498655Y-135754755D01*
X70508535Y-134953043D01*
X70543046Y-133847151D01*
X70618741Y-132751880D01*
X70734873Y-131673135D01*
X70890696Y-130616821D01*
X71085461Y-129588844D01*
X71307864Y-128636136D01*
X71354244Y-128454787D01*
X71398160Y-128282351D01*
X71437028Y-128129028D01*
X71468264Y-128005022D01*
X71489285Y-127920532D01*
X71493466Y-127903365D01*
X71528244Y-127759063D01*
X63245220Y-127777305D01*
X62574748Y-127778854D01*
X61918186Y-127780515D01*
X61277661Y-127782276D01*
X60655300Y-127784127D01*
X60053230Y-127786059D01*
X59473578Y-127788060D01*
X58918472Y-127790120D01*
X58390039Y-127792229D01*
X57890405Y-127794377D01*
X57421697Y-127796553D01*
X56986044Y-127798747D01*
X56585571Y-127800948D01*
X56222405Y-127803146D01*
X55898675Y-127805331D01*
X55616507Y-127807493D01*
X55378028Y-127809620D01*
X55185365Y-127811703D01*
X55040645Y-127813732D01*
X54945995Y-127815695D01*
X54903543Y-127817583D01*
X54901523Y-127817943D01*
X54851413Y-127859958D01*
X54791164Y-127949533D01*
X54723189Y-128080945D01*
X54649904Y-128248471D01*
X54573722Y-128446388D01*
X54497059Y-128668972D01*
X54422329Y-128910503D01*
X54384710Y-129042866D01*
X54256855Y-129557436D01*
X54142913Y-130121636D01*
X54043330Y-130732035D01*
X53958553Y-131385204D01*
X53889031Y-132077714D01*
X53835209Y-132806134D01*
X53798648Y-133538030D01*
X53791903Y-133767667D01*
X53787543Y-134038645D01*
X53785464Y-134340371D01*
X53184026Y-134340371D01*
X53184203Y-134332613D01*
X53187008Y-134185182D01*
X53188022Y-134123960D01*
X53208077Y-133393335D01*
X53244479Y-132681054D01*
X53296662Y-131991093D01*
X53364059Y-131327432D01*
X53446106Y-130694046D01*
X53542235Y-130094916D01*
X53651881Y-129534018D01*
X53774478Y-129015330D01*
X53909460Y-128542831D01*
X54033776Y-128179780D01*
X54129044Y-127938454D01*
X54218547Y-127744067D01*
X54307049Y-127589840D01*
X54399314Y-127468994D01*
X54500106Y-127374749D01*
X54614189Y-127300325D01*
X54672437Y-127270881D01*
X54825343Y-127199175D01*
X62105946Y-127182429D01*
X62968565Y-127180457D01*
X63778113Y-127178625D01*
X64536264Y-127176920D01*
X65244688Y-127175331D01*
X65905058Y-127173843D01*
X66519044Y-127172446D01*
X67088318Y-127171125D01*
X67614553Y-127169869D01*
X68099418Y-127168665D01*
X68544587Y-127167499D01*
X68951730Y-127166360D01*
X69322520Y-127165235D01*
X69658627Y-127164112D01*
X69961723Y-127162976D01*
X70233481Y-127161817D01*
X70475570Y-127160621D01*
X70689664Y-127159376D01*
X70877434Y-127158069D01*
X71040550Y-127156687D01*
X71180686Y-127155218D01*
X71299511Y-127153649D01*
X71398699Y-127151968D01*
X71479920Y-127150161D01*
X71528244Y-127148714D01*
X71544846Y-127148217D01*
X71595148Y-127146123D01*
G37*
%TO.C,C14*%
X78371752Y-82634500D02*
X76949248Y-82634500D01*
X78371752Y-80814500D02*
X76949248Y-80814500D01*
%TO.C,C3*%
X104288000Y-69964248D02*
X104288000Y-71386752D01*
X102468000Y-69964248D02*
X102468000Y-71386752D01*
%TO.C,C6*%
X71162500Y-73075748D02*
X71162500Y-74498252D01*
X72982500Y-73075748D02*
X72982500Y-74498252D01*
%TO.C,R11*%
X119232000Y-94643564D02*
X119232000Y-93189436D01*
X121052000Y-94643564D02*
X121052000Y-93189436D01*
%TO.C,C9*%
X78308252Y-101388500D02*
X76885748Y-101388500D01*
X78308252Y-103208500D02*
X76885748Y-103208500D01*
%TO.C,R7*%
X99864500Y-71402564D02*
X99864500Y-69948436D01*
X101684500Y-71402564D02*
X101684500Y-69948436D01*
%TO.C,R5*%
X115062000Y-107901500D02*
X115062000Y-112101500D01*
X116982000Y-105981500D02*
G75*
G03*
X116982000Y-105981500I-1920000J0D01*
G01*
%TO.C,R6*%
X121744500Y-105981500D02*
G75*
G03*
X121744500Y-105981500I-1920000J0D01*
G01*
X119824500Y-107901500D02*
X119824500Y-112101500D01*
%TO.C,R4*%
X103533564Y-110066500D02*
X102079436Y-110066500D01*
X103533564Y-108246500D02*
X102079436Y-108246500D01*
%TO.C,C1*%
X116916252Y-88857500D02*
X115493748Y-88857500D01*
X116916252Y-87037500D02*
X115493748Y-87037500D01*
%TO.C,R10*%
X121115500Y-99914064D02*
X121115500Y-98459936D01*
X119295500Y-99914064D02*
X119295500Y-98459936D01*
%TO.C,C5*%
X55188151Y-111235000D02*
X55188151Y-108609000D01*
X55228151Y-106529000D02*
X55228151Y-103883000D01*
X54708151Y-106529000D02*
X54708151Y-104177000D01*
X55828151Y-106529000D02*
X55828151Y-103655000D01*
X54828151Y-111038000D02*
X54828151Y-108609000D01*
X53428151Y-109603000D02*
X53428151Y-105535000D01*
X54948151Y-111109000D02*
X54948151Y-108609000D01*
X54028151Y-110395000D02*
X54028151Y-104743000D01*
X55388151Y-106529000D02*
X55388151Y-103812000D01*
X56589151Y-111630000D02*
X56589151Y-108609000D01*
X55468151Y-111359000D02*
X55468151Y-108609000D01*
X54868151Y-111062000D02*
X54868151Y-108609000D01*
X55748151Y-106529000D02*
X55748151Y-103680000D01*
X55748151Y-111458000D02*
X55748151Y-108609000D01*
X55028151Y-106529000D02*
X55028151Y-103985000D01*
X56869151Y-111648000D02*
X56869151Y-103490000D01*
X56469151Y-106529000D02*
X56469151Y-103521000D01*
X55708151Y-106529000D02*
X55708151Y-103692000D01*
X54828151Y-106529000D02*
X54828151Y-104100000D01*
X53868151Y-110220000D02*
X53868151Y-104918000D01*
X56709151Y-106529000D02*
X56709151Y-103498000D01*
X53188151Y-109121000D02*
X53188151Y-106017000D01*
X53148151Y-109022000D02*
X53148151Y-106116000D01*
X56589151Y-106529000D02*
X56589151Y-103508000D01*
X56909151Y-111649000D02*
X56909151Y-103489000D01*
X55068151Y-111175000D02*
X55068151Y-108609000D01*
X54548151Y-110849000D02*
X54548151Y-104289000D01*
X54668151Y-110934000D02*
X54668151Y-104204000D01*
X55948151Y-111516000D02*
X55948151Y-108609000D01*
X56629151Y-111634000D02*
X56629151Y-108609000D01*
X55348151Y-111309000D02*
X55348151Y-108609000D01*
X54508151Y-110819000D02*
X54508151Y-104319000D01*
X56469151Y-111617000D02*
X56469151Y-108609000D01*
X53628151Y-109914000D02*
X53628151Y-105224000D01*
X53988151Y-110353000D02*
X53988151Y-104785000D01*
X55508151Y-111374000D02*
X55508151Y-108609000D01*
X55668151Y-111432000D02*
X55668151Y-108609000D01*
X53588151Y-109856000D02*
X53588151Y-105282000D01*
X56309151Y-111593000D02*
X56309151Y-108609000D01*
X52988151Y-108517000D02*
X52988151Y-106621000D01*
X56148151Y-106529000D02*
X56148151Y-103575000D01*
X54988151Y-106529000D02*
X54988151Y-104007000D01*
X54308151Y-110659000D02*
X54308151Y-104479000D01*
X54148151Y-110514000D02*
X54148151Y-104624000D01*
X56629151Y-106529000D02*
X56629151Y-103504000D01*
X55628151Y-111419000D02*
X55628151Y-108609000D01*
X56509151Y-106529000D02*
X56509151Y-103517000D01*
X53508151Y-109735000D02*
X53508151Y-105403000D01*
X60998849Y-110284000D02*
X60998849Y-109484000D01*
X55268151Y-106529000D02*
X55268151Y-103865000D01*
X56228151Y-111579000D02*
X56228151Y-108609000D01*
X55148151Y-106529000D02*
X55148151Y-103922000D01*
X53028151Y-108667000D02*
X53028151Y-106471000D01*
X53948151Y-110310000D02*
X53948151Y-104828000D01*
X56349151Y-111599000D02*
X56349151Y-108609000D01*
X55548151Y-106529000D02*
X55548151Y-103748000D01*
X54108151Y-110476000D02*
X54108151Y-104662000D01*
X54468151Y-110789000D02*
X54468151Y-104349000D01*
X56268151Y-111586000D02*
X56268151Y-108609000D01*
X56789151Y-111645000D02*
X56789151Y-103493000D01*
X55908151Y-106529000D02*
X55908151Y-103633000D01*
X56549151Y-111626000D02*
X56549151Y-108609000D01*
X53788151Y-110125000D02*
X53788151Y-105013000D01*
X53548151Y-109797000D02*
X53548151Y-105341000D01*
X55508151Y-106529000D02*
X55508151Y-103764000D01*
X53228151Y-109214000D02*
X53228151Y-105924000D01*
X56429151Y-111611000D02*
X56429151Y-108609000D01*
X55308151Y-106529000D02*
X55308151Y-103847000D01*
X55588151Y-106529000D02*
X55588151Y-103734000D01*
X56509151Y-111621000D02*
X56509151Y-108609000D01*
X56188151Y-106529000D02*
X56188151Y-103567000D01*
X54588151Y-110878000D02*
X54588151Y-104260000D01*
X54908151Y-111086000D02*
X54908151Y-108609000D01*
X55708151Y-111446000D02*
X55708151Y-108609000D01*
X56429151Y-106529000D02*
X56429151Y-103527000D01*
X55388151Y-111326000D02*
X55388151Y-108609000D01*
X55948151Y-106529000D02*
X55948151Y-103622000D01*
X53748151Y-110074000D02*
X53748151Y-105064000D01*
X61398849Y-109884000D02*
X60598849Y-109884000D01*
X53348151Y-109459000D02*
X53348151Y-105679000D01*
X55428151Y-111343000D02*
X55428151Y-108609000D01*
X55108151Y-106529000D02*
X55108151Y-103942000D01*
X56669151Y-111637000D02*
X56669151Y-108609000D01*
X55788151Y-111471000D02*
X55788151Y-108609000D01*
X54228151Y-110588000D02*
X54228151Y-104550000D01*
X56349151Y-106529000D02*
X56349151Y-103539000D01*
X53068151Y-108798000D02*
X53068151Y-106340000D01*
X53908151Y-110266000D02*
X53908151Y-104872000D01*
X55028151Y-111153000D02*
X55028151Y-108609000D01*
X56068151Y-111545000D02*
X56068151Y-108609000D01*
X55828151Y-111483000D02*
X55828151Y-108609000D01*
X53468151Y-109671000D02*
X53468151Y-105467000D01*
X54988151Y-111131000D02*
X54988151Y-108609000D01*
X56389151Y-111606000D02*
X56389151Y-108609000D01*
X55988151Y-106529000D02*
X55988151Y-103612000D01*
X54708151Y-110961000D02*
X54708151Y-108609000D01*
X56148151Y-111563000D02*
X56148151Y-108609000D01*
X56268151Y-106529000D02*
X56268151Y-103552000D01*
X56309151Y-106529000D02*
X56309151Y-103545000D01*
X54868151Y-106529000D02*
X54868151Y-104076000D01*
X56108151Y-111554000D02*
X56108151Y-108609000D01*
X55628151Y-106529000D02*
X55628151Y-103719000D01*
X56949151Y-111649000D02*
X56949151Y-103489000D01*
X55428151Y-106529000D02*
X55428151Y-103795000D01*
X56709151Y-111640000D02*
X56709151Y-108609000D01*
X56108151Y-106529000D02*
X56108151Y-103584000D01*
X56068151Y-106529000D02*
X56068151Y-103593000D01*
X54348151Y-110693000D02*
X54348151Y-104445000D01*
X52908151Y-108102000D02*
X52908151Y-107036000D01*
X56669151Y-106529000D02*
X56669151Y-103501000D01*
X56749151Y-106529000D02*
X56749151Y-103495000D01*
X55988151Y-111526000D02*
X55988151Y-108609000D01*
X56749151Y-111643000D02*
X56749151Y-108609000D01*
X55908151Y-111505000D02*
X55908151Y-108609000D01*
X56989151Y-111649000D02*
X56989151Y-103489000D01*
X56188151Y-111571000D02*
X56188151Y-108609000D01*
X55868151Y-106529000D02*
X55868151Y-103644000D01*
X54188151Y-110552000D02*
X54188151Y-104586000D01*
X54908151Y-106529000D02*
X54908151Y-104052000D01*
X56228151Y-106529000D02*
X56228151Y-103559000D01*
X52948151Y-108337000D02*
X52948151Y-106801000D01*
X55308151Y-111291000D02*
X55308151Y-108609000D01*
X55348151Y-106529000D02*
X55348151Y-103829000D01*
X55228151Y-111255000D02*
X55228151Y-108609000D01*
X54748151Y-110987000D02*
X54748151Y-108609000D01*
X56028151Y-106529000D02*
X56028151Y-103602000D01*
X56028151Y-111536000D02*
X56028151Y-108609000D01*
X55108151Y-111196000D02*
X55108151Y-108609000D01*
X53668151Y-109969000D02*
X53668151Y-105169000D01*
X55268151Y-111273000D02*
X55268151Y-108609000D01*
X54428151Y-110758000D02*
X54428151Y-104380000D01*
X56549151Y-106529000D02*
X56549151Y-103512000D01*
X53708151Y-110023000D02*
X53708151Y-105115000D01*
X55148151Y-111216000D02*
X55148151Y-108609000D01*
X55548151Y-111390000D02*
X55548151Y-108609000D01*
X54268151Y-110624000D02*
X54268151Y-104514000D01*
X55188151Y-106529000D02*
X55188151Y-103903000D01*
X54788151Y-106529000D02*
X54788151Y-104125000D01*
X55868151Y-111494000D02*
X55868151Y-108609000D01*
X54388151Y-110725000D02*
X54388151Y-104413000D01*
X55668151Y-106529000D02*
X55668151Y-103706000D01*
X56829151Y-111646000D02*
X56829151Y-103492000D01*
X55468151Y-106529000D02*
X55468151Y-103779000D01*
X53828151Y-110173000D02*
X53828151Y-104965000D01*
X55588151Y-111404000D02*
X55588151Y-108609000D01*
X55068151Y-106529000D02*
X55068151Y-103963000D01*
X53268151Y-109300000D02*
X53268151Y-105838000D01*
X54748151Y-106529000D02*
X54748151Y-104151000D01*
X54628151Y-110907000D02*
X54628151Y-104231000D01*
X53388151Y-109533000D02*
X53388151Y-105605000D01*
X54788151Y-111013000D02*
X54788151Y-108609000D01*
X53108151Y-108915000D02*
X53108151Y-106223000D01*
X56389151Y-106529000D02*
X56389151Y-103532000D01*
X55788151Y-106529000D02*
X55788151Y-103667000D01*
X53308151Y-109382000D02*
X53308151Y-105756000D01*
X54948151Y-106529000D02*
X54948151Y-104029000D01*
X54068151Y-110436000D02*
X54068151Y-104702000D01*
X61109151Y-107569000D02*
G75*
G03*
X61109151Y-107569000I-4120000J0D01*
G01*
%TO.C,R8*%
X112302936Y-76284500D02*
X113757064Y-76284500D01*
X112302936Y-74464500D02*
X113757064Y-74464500D01*
%TD*%
M02*
