%TF.GenerationSoftware,KiCad,Pcbnew,(6.0.7)*%
%TF.CreationDate,2023-04-23T16:52:25-04:00*%
%TF.ProjectId,NPN Tracer V2b-jlcpcb,4e504e20-5472-4616-9365-72205632622d,rev?*%
%TF.SameCoordinates,Original*%
%TF.FileFunction,Drillmap*%
%TF.FilePolarity,Positive*%
%FSLAX45Y45*%
G04 Gerber Fmt 4.5, Leading zero omitted, Abs format (unit mm)*
G04 Created by KiCad (PCBNEW (6.0.7)) date 2023-04-23 16:52:25*
%MOMM*%
%LPD*%
G01*
G04 APERTURE LIST*
%ADD10C,0.100000*%
%ADD11C,0.200000*%
%ADD12C,0.040000*%
%ADD13C,0.080000*%
%ADD14C,0.090000*%
%ADD15C,0.110000*%
%ADD16C,0.120000*%
%ADD17C,0.320000*%
G04 APERTURE END LIST*
D10*
X5060950Y-5969000D02*
X14001750Y-5969000D01*
X14001750Y-5969000D02*
X14001750Y-15176500D01*
X14001750Y-15176500D02*
X5060950Y-15176500D01*
X5060950Y-15176500D02*
X5060950Y-5969000D01*
D11*
D12*
X9422450Y-11333800D02*
X9462450Y-11373800D01*
X9462450Y-11333800D02*
X9422450Y-11373800D01*
X9930450Y-6723700D02*
X9970450Y-6763700D01*
X9970450Y-6723700D02*
X9930450Y-6763700D01*
X10063800Y-7841300D02*
X10103800Y-7881300D01*
X10103800Y-7841300D02*
X10063800Y-7881300D01*
X10895650Y-7212650D02*
X10935650Y-7252650D01*
X10935650Y-7212650D02*
X10895650Y-7252650D01*
D13*
X5613915Y-10756900D02*
G75*
G03*
X5613915Y-10756900I-40000J0D01*
G01*
X5639315Y-9893300D02*
G75*
G03*
X5639315Y-9893300I-40000J0D01*
G01*
X5856600Y-6846950D02*
G75*
G03*
X5856600Y-6846950I-40000J0D01*
G01*
X5856600Y-7096950D02*
G75*
G03*
X5856600Y-7096950I-40000J0D01*
G01*
X5863915Y-10756900D02*
G75*
G03*
X5863915Y-10756900I-40000J0D01*
G01*
X5889315Y-9893300D02*
G75*
G03*
X5889315Y-9893300I-40000J0D01*
G01*
X5894700Y-7747000D02*
G75*
G03*
X5894700Y-7747000I-40000J0D01*
G01*
X5894700Y-7997000D02*
G75*
G03*
X5894700Y-7997000I-40000J0D01*
G01*
X8904600Y-12815300D02*
G75*
G03*
X8904600Y-12815300I-40000J0D01*
G01*
X8904600Y-13069300D02*
G75*
G03*
X8904600Y-13069300I-40000J0D01*
G01*
X8904600Y-13323300D02*
G75*
G03*
X8904600Y-13323300I-40000J0D01*
G01*
X9152250Y-11735800D02*
G75*
G03*
X9152250Y-11735800I-40000J0D01*
G01*
X9152250Y-11989800D02*
G75*
G03*
X9152250Y-11989800I-40000J0D01*
G01*
X9152250Y-12243800D02*
G75*
G03*
X9152250Y-12243800I-40000J0D01*
G01*
X10149200Y-10490200D02*
G75*
G03*
X10149200Y-10490200I-40000J0D01*
G01*
X10403200Y-10490200D02*
G75*
G03*
X10403200Y-10490200I-40000J0D01*
G01*
X10657200Y-10490200D02*
G75*
G03*
X10657200Y-10490200I-40000J0D01*
G01*
X10949300Y-9118600D02*
G75*
G03*
X10949300Y-9118600I-40000J0D01*
G01*
X10949300Y-9372600D02*
G75*
G03*
X10949300Y-9372600I-40000J0D01*
G01*
X10949300Y-9626600D02*
G75*
G03*
X10949300Y-9626600I-40000J0D01*
G01*
X10949300Y-9880600D02*
G75*
G03*
X10949300Y-9880600I-40000J0D01*
G01*
X11711300Y-9118600D02*
G75*
G03*
X11711300Y-9118600I-40000J0D01*
G01*
X11711300Y-9372600D02*
G75*
G03*
X11711300Y-9372600I-40000J0D01*
G01*
X11711300Y-9626600D02*
G75*
G03*
X11711300Y-9626600I-40000J0D01*
G01*
X11711300Y-9880600D02*
G75*
G03*
X11711300Y-9880600I-40000J0D01*
G01*
X13292450Y-12066000D02*
G75*
G03*
X13292450Y-12066000I-40000J0D01*
G01*
X13292450Y-12320000D02*
G75*
G03*
X13292450Y-12320000I-40000J0D01*
G01*
X13292450Y-12574000D02*
G75*
G03*
X13292450Y-12574000I-40000J0D01*
G01*
X13298800Y-10846800D02*
G75*
G03*
X13298800Y-10846800I-40000J0D01*
G01*
X13298800Y-11100800D02*
G75*
G03*
X13298800Y-11100800I-40000J0D01*
G01*
X13298800Y-11354800D02*
G75*
G03*
X13298800Y-11354800I-40000J0D01*
G01*
D14*
X7144250Y-11308800D02*
X7144250Y-11398800D01*
X7099250Y-11353800D02*
X7189250Y-11353800D01*
X7150600Y-11962850D02*
X7150600Y-12052850D01*
X7105600Y-12007850D02*
X7195600Y-12007850D01*
X7398250Y-11308800D02*
X7398250Y-11398800D01*
X7353250Y-11353800D02*
X7443250Y-11353800D01*
X7404600Y-11962850D02*
X7404600Y-12052850D01*
X7359600Y-12007850D02*
X7449600Y-12007850D01*
X8180250Y-7194000D02*
X8180250Y-7284000D01*
X8135250Y-7239000D02*
X8225250Y-7239000D01*
X8180250Y-7448000D02*
X8180250Y-7538000D01*
X8135250Y-7493000D02*
X8225250Y-7493000D01*
X8180250Y-7702000D02*
X8180250Y-7792000D01*
X8135250Y-7747000D02*
X8225250Y-7747000D01*
X8180250Y-7956000D02*
X8180250Y-8046000D01*
X8135250Y-8001000D02*
X8225250Y-8001000D01*
X8180250Y-8210000D02*
X8180250Y-8300000D01*
X8135250Y-8255000D02*
X8225250Y-8255000D01*
X8180250Y-8464000D02*
X8180250Y-8554000D01*
X8135250Y-8509000D02*
X8225250Y-8509000D01*
X8180250Y-8718000D02*
X8180250Y-8808000D01*
X8135250Y-8763000D02*
X8225250Y-8763000D01*
X8180250Y-8972000D02*
X8180250Y-9062000D01*
X8135250Y-9017000D02*
X8225250Y-9017000D01*
X8180250Y-9226000D02*
X8180250Y-9316000D01*
X8135250Y-9271000D02*
X8225250Y-9271000D01*
X8180250Y-9480000D02*
X8180250Y-9570000D01*
X8135250Y-9525000D02*
X8225250Y-9525000D01*
X8180250Y-9734000D02*
X8180250Y-9824000D01*
X8135250Y-9779000D02*
X8225250Y-9779000D01*
X8180250Y-9988000D02*
X8180250Y-10078000D01*
X8135250Y-10033000D02*
X8225250Y-10033000D01*
X8180250Y-10242000D02*
X8180250Y-10332000D01*
X8135250Y-10287000D02*
X8225250Y-10287000D01*
X8180250Y-10496000D02*
X8180250Y-10586000D01*
X8135250Y-10541000D02*
X8225250Y-10541000D01*
X8180250Y-10750000D02*
X8180250Y-10840000D01*
X8135250Y-10795000D02*
X8225250Y-10795000D01*
X9704250Y-7194000D02*
X9704250Y-7284000D01*
X9659250Y-7239000D02*
X9749250Y-7239000D01*
X9704250Y-7448000D02*
X9704250Y-7538000D01*
X9659250Y-7493000D02*
X9749250Y-7493000D01*
X9704250Y-7702000D02*
X9704250Y-7792000D01*
X9659250Y-7747000D02*
X9749250Y-7747000D01*
X9704250Y-7956000D02*
X9704250Y-8046000D01*
X9659250Y-8001000D02*
X9749250Y-8001000D01*
X9704250Y-8210000D02*
X9704250Y-8300000D01*
X9659250Y-8255000D02*
X9749250Y-8255000D01*
X9704250Y-8464000D02*
X9704250Y-8554000D01*
X9659250Y-8509000D02*
X9749250Y-8509000D01*
X9704250Y-8718000D02*
X9704250Y-8808000D01*
X9659250Y-8763000D02*
X9749250Y-8763000D01*
X9704250Y-8972000D02*
X9704250Y-9062000D01*
X9659250Y-9017000D02*
X9749250Y-9017000D01*
X9704250Y-9226000D02*
X9704250Y-9316000D01*
X9659250Y-9271000D02*
X9749250Y-9271000D01*
X9704250Y-9480000D02*
X9704250Y-9570000D01*
X9659250Y-9525000D02*
X9749250Y-9525000D01*
X9704250Y-9734000D02*
X9704250Y-9824000D01*
X9659250Y-9779000D02*
X9749250Y-9779000D01*
X9704250Y-9988000D02*
X9704250Y-10078000D01*
X9659250Y-10033000D02*
X9749250Y-10033000D01*
X9704250Y-10242000D02*
X9704250Y-10332000D01*
X9659250Y-10287000D02*
X9749250Y-10287000D01*
X9704250Y-10496000D02*
X9704250Y-10586000D01*
X9659250Y-10541000D02*
X9749250Y-10541000D01*
X9704250Y-10750000D02*
X9704250Y-10840000D01*
X9659250Y-10795000D02*
X9749250Y-10795000D01*
X10541000Y-13493200D02*
X10541000Y-13583200D01*
X10496000Y-13538200D02*
X10586000Y-13538200D01*
X10541000Y-14255200D02*
X10541000Y-14345200D01*
X10496000Y-14300200D02*
X10586000Y-14300200D01*
X10795000Y-13493200D02*
X10795000Y-13583200D01*
X10750000Y-13538200D02*
X10840000Y-13538200D01*
X10795000Y-14255200D02*
X10795000Y-14345200D01*
X10750000Y-14300200D02*
X10840000Y-14300200D01*
X11049000Y-13493200D02*
X11049000Y-13583200D01*
X11004000Y-13538200D02*
X11094000Y-13538200D01*
X11049000Y-14255200D02*
X11049000Y-14345200D01*
X11004000Y-14300200D02*
X11094000Y-14300200D01*
X11303000Y-13493200D02*
X11303000Y-13583200D01*
X11258000Y-13538200D02*
X11348000Y-13538200D01*
X11303000Y-14255200D02*
X11303000Y-14345200D01*
X11258000Y-14300200D02*
X11348000Y-14300200D01*
X11557000Y-13493200D02*
X11557000Y-13583200D01*
X11512000Y-13538200D02*
X11602000Y-13538200D01*
X11557000Y-14255200D02*
X11557000Y-14345200D01*
X11512000Y-14300200D02*
X11602000Y-14300200D01*
X11811000Y-13493200D02*
X11811000Y-13583200D01*
X11766000Y-13538200D02*
X11856000Y-13538200D01*
X11811000Y-14255200D02*
X11811000Y-14345200D01*
X11766000Y-14300200D02*
X11856000Y-14300200D01*
X12065000Y-13493200D02*
X12065000Y-13583200D01*
X12020000Y-13538200D02*
X12110000Y-13538200D01*
X12065000Y-14255200D02*
X12065000Y-14345200D01*
X12020000Y-14300200D02*
X12110000Y-14300200D01*
X12319000Y-13493200D02*
X12319000Y-13583200D01*
X12274000Y-13538200D02*
X12364000Y-13538200D01*
X12319000Y-14255200D02*
X12319000Y-14345200D01*
X12274000Y-14300200D02*
X12364000Y-14300200D01*
D10*
X5710756Y-8734856D02*
X5710756Y-8664144D01*
X5640044Y-8664144D01*
X5640044Y-8734856D01*
X5710756Y-8734856D01*
X5939506Y-11755956D02*
X5939506Y-11685244D01*
X5868794Y-11685244D01*
X5868794Y-11755956D01*
X5939506Y-11755956D01*
D11*
X5854150Y-11610600D02*
X5854150Y-11830600D01*
X5954150Y-11610600D02*
X5954150Y-11830600D01*
X5854150Y-11830600D02*
G75*
G03*
X5954150Y-11830600I50000J0D01*
G01*
X5954150Y-11610600D02*
G75*
G03*
X5854150Y-11610600I-50000J0D01*
G01*
D10*
X5964756Y-8734856D02*
X5964756Y-8664144D01*
X5894044Y-8664144D01*
X5894044Y-8734856D01*
X5964756Y-8734856D01*
X6218756Y-8734856D02*
X6218756Y-8664144D01*
X6148044Y-8664144D01*
X6148044Y-8734856D01*
X6218756Y-8734856D01*
X6279506Y-12235956D02*
X6279506Y-12165244D01*
X6208794Y-12165244D01*
X6208794Y-12235956D01*
X6279506Y-12235956D01*
D11*
X6354150Y-12150600D02*
X6134150Y-12150600D01*
X6354150Y-12250600D02*
X6134150Y-12250600D01*
X6134150Y-12150600D02*
G75*
G03*
X6134150Y-12250600I0J-50000D01*
G01*
X6354150Y-12250600D02*
G75*
G03*
X6354150Y-12150600I0J50000D01*
G01*
D10*
X6569506Y-11755956D02*
X6569506Y-11685244D01*
X6498794Y-11685244D01*
X6498794Y-11755956D01*
X6569506Y-11755956D01*
D11*
X6484150Y-11590600D02*
X6484150Y-11850600D01*
X6584150Y-11590600D02*
X6584150Y-11850600D01*
X6484150Y-11850600D02*
G75*
G03*
X6584150Y-11850600I50000J0D01*
G01*
X6584150Y-11590600D02*
G75*
G03*
X6484150Y-11590600I-50000J0D01*
G01*
D10*
X9763556Y-12709956D02*
X9763556Y-12639244D01*
X9692844Y-12639244D01*
X9692844Y-12709956D01*
X9763556Y-12709956D01*
X9821206Y-11681256D02*
X9821206Y-11610544D01*
X9750494Y-11610544D01*
X9750494Y-11681256D01*
X9821206Y-11681256D01*
X10017556Y-12709956D02*
X10017556Y-12639244D01*
X9946844Y-12639244D01*
X9946844Y-12709956D01*
X10017556Y-12709956D01*
X10075206Y-11681256D02*
X10075206Y-11610544D01*
X10004494Y-11610544D01*
X10004494Y-11681256D01*
X10075206Y-11681256D01*
X10265206Y-8633256D02*
X10265206Y-8562544D01*
X10194494Y-8562544D01*
X10194494Y-8633256D01*
X10265206Y-8633256D01*
X10425456Y-12189256D02*
X10425456Y-12118544D01*
X10354744Y-12118544D01*
X10354744Y-12189256D01*
X10425456Y-12189256D01*
X10519206Y-8633256D02*
X10519206Y-8562544D01*
X10448494Y-8562544D01*
X10448494Y-8633256D01*
X10519206Y-8633256D01*
X10679456Y-12189256D02*
X10679456Y-12118544D01*
X10608744Y-12118544D01*
X10608744Y-12189256D01*
X10679456Y-12189256D01*
X10933456Y-12189256D02*
X10933456Y-12118544D01*
X10862744Y-12118544D01*
X10862744Y-12189256D01*
X10933456Y-12189256D01*
X11516156Y-11884456D02*
X11516156Y-11813744D01*
X11445444Y-11813744D01*
X11445444Y-11884456D01*
X11516156Y-11884456D01*
X11770156Y-11884456D02*
X11770156Y-11813744D01*
X11699444Y-11813744D01*
X11699444Y-11884456D01*
X11770156Y-11884456D01*
X12024156Y-11884456D02*
X12024156Y-11813744D01*
X11953444Y-11813744D01*
X11953444Y-11884456D01*
X12024156Y-11884456D01*
X12703606Y-10811306D02*
X12703606Y-10740594D01*
X12632894Y-10740594D01*
X12632894Y-10811306D01*
X12703606Y-10811306D01*
X12703606Y-11065306D02*
X12703606Y-10994594D01*
X12632894Y-10994594D01*
X12632894Y-11065306D01*
X12703606Y-11065306D01*
X12709956Y-12062256D02*
X12709956Y-11991544D01*
X12639244Y-11991544D01*
X12639244Y-12062256D01*
X12709956Y-12062256D01*
X12709956Y-12316256D02*
X12709956Y-12245544D01*
X12639244Y-12245544D01*
X12639244Y-12316256D01*
X12709956Y-12316256D01*
X12768900Y-9355950D02*
X12818900Y-9305950D01*
X12768900Y-9255950D01*
X12718900Y-9305950D01*
X12768900Y-9355950D01*
X12768900Y-9585950D02*
X12818900Y-9535950D01*
X12768900Y-9485950D01*
X12718900Y-9535950D01*
X12768900Y-9585950D01*
X12768900Y-9815950D02*
X12818900Y-9765950D01*
X12768900Y-9715950D01*
X12718900Y-9765950D01*
X12768900Y-9815950D01*
D15*
X5545700Y-9089000D02*
X5655700Y-9199000D01*
X5655700Y-9089000D02*
X5545700Y-9199000D01*
X5655700Y-9144000D02*
G75*
G03*
X5655700Y-9144000I-55000J0D01*
G01*
X6441050Y-9831950D02*
X6551050Y-9941950D01*
X6551050Y-9831950D02*
X6441050Y-9941950D01*
X6551050Y-9886950D02*
G75*
G03*
X6551050Y-9886950I-55000J0D01*
G01*
X6441050Y-10085950D02*
X6551050Y-10195950D01*
X6551050Y-10085950D02*
X6441050Y-10195950D01*
X6551050Y-10140950D02*
G75*
G03*
X6551050Y-10140950I-55000J0D01*
G01*
X6441050Y-10339950D02*
X6551050Y-10449950D01*
X6551050Y-10339950D02*
X6441050Y-10449950D01*
X6551050Y-10394950D02*
G75*
G03*
X6551050Y-10394950I-55000J0D01*
G01*
X6561700Y-9089000D02*
X6671700Y-9199000D01*
X6671700Y-9089000D02*
X6561700Y-9199000D01*
X6671700Y-9144000D02*
G75*
G03*
X6671700Y-9144000I-55000J0D01*
G01*
D16*
X11446200Y-10538150D02*
X11566200Y-10658150D01*
X11566200Y-10538150D02*
X11446200Y-10658150D01*
X11506200Y-10538150D02*
X11506200Y-10658150D01*
X11446200Y-10598150D02*
X11566200Y-10598150D01*
X11446200Y-11300150D02*
X11566200Y-11420150D01*
X11566200Y-11300150D02*
X11446200Y-11420150D01*
X11506200Y-11300150D02*
X11506200Y-11420150D01*
X11446200Y-11360150D02*
X11566200Y-11360150D01*
X11922450Y-10538150D02*
X12042450Y-10658150D01*
X12042450Y-10538150D02*
X11922450Y-10658150D01*
X11982450Y-10538150D02*
X11982450Y-10658150D01*
X11922450Y-10598150D02*
X12042450Y-10598150D01*
X11922450Y-11300150D02*
X12042450Y-11420150D01*
X12042450Y-11300150D02*
X11922450Y-11420150D01*
X11982450Y-11300150D02*
X11982450Y-11420150D01*
X11922450Y-11360150D02*
X12042450Y-11360150D01*
D17*
X5262900Y-14667250D02*
X5582900Y-14987250D01*
X5582900Y-14667250D02*
X5262900Y-14987250D01*
X5536038Y-14940388D02*
X5536038Y-14714112D01*
X5309762Y-14714112D01*
X5309762Y-14940388D01*
X5536038Y-14940388D01*
X5269250Y-6164600D02*
X5589250Y-6484600D01*
X5589250Y-6164600D02*
X5269250Y-6484600D01*
X5542388Y-6437738D02*
X5542388Y-6211462D01*
X5316112Y-6211462D01*
X5316112Y-6437738D01*
X5542388Y-6437738D01*
X13473450Y-6164600D02*
X13793450Y-6484600D01*
X13793450Y-6164600D02*
X13473450Y-6484600D01*
X13746588Y-6437738D02*
X13746588Y-6211462D01*
X13520312Y-6211462D01*
X13520312Y-6437738D01*
X13746588Y-6437738D01*
X13473450Y-14667250D02*
X13793450Y-14987250D01*
X13793450Y-14667250D02*
X13473450Y-14987250D01*
X13746588Y-14940388D02*
X13746588Y-14714112D01*
X13520312Y-14714112D01*
X13520312Y-14940388D01*
X13746588Y-14940388D01*
D11*
X9618000Y-13819200D02*
X9818000Y-14019200D01*
X9818000Y-13819200D02*
X9618000Y-14019200D01*
X9718000Y-14019200D02*
X9818000Y-13919200D01*
X9718000Y-13819200D01*
X9618000Y-13919200D01*
X9718000Y-14019200D01*
X12692000Y-13819200D02*
X12892000Y-14019200D01*
X12892000Y-13819200D02*
X12692000Y-14019200D01*
X12792000Y-14019200D02*
X12892000Y-13919200D01*
X12792000Y-13819200D01*
X12692000Y-13919200D01*
X12792000Y-14019200D01*
X5313569Y-15491976D02*
X5313569Y-15291976D01*
X5361188Y-15291976D01*
X5389760Y-15301500D01*
X5408807Y-15320548D01*
X5418331Y-15339595D01*
X5427855Y-15377690D01*
X5427855Y-15406262D01*
X5418331Y-15444357D01*
X5408807Y-15463405D01*
X5389760Y-15482452D01*
X5361188Y-15491976D01*
X5313569Y-15491976D01*
X5513569Y-15491976D02*
X5513569Y-15358643D01*
X5513569Y-15396738D02*
X5523093Y-15377690D01*
X5532617Y-15368167D01*
X5551664Y-15358643D01*
X5570712Y-15358643D01*
X5637378Y-15491976D02*
X5637378Y-15358643D01*
X5637378Y-15291976D02*
X5627855Y-15301500D01*
X5637378Y-15311024D01*
X5646902Y-15301500D01*
X5637378Y-15291976D01*
X5637378Y-15311024D01*
X5761188Y-15491976D02*
X5742140Y-15482452D01*
X5732617Y-15463405D01*
X5732617Y-15291976D01*
X5865950Y-15491976D02*
X5846902Y-15482452D01*
X5837378Y-15463405D01*
X5837378Y-15291976D01*
X6094521Y-15491976D02*
X6094521Y-15291976D01*
X6161188Y-15434833D01*
X6227855Y-15291976D01*
X6227855Y-15491976D01*
X6408807Y-15491976D02*
X6408807Y-15387214D01*
X6399283Y-15368167D01*
X6380236Y-15358643D01*
X6342140Y-15358643D01*
X6323093Y-15368167D01*
X6408807Y-15482452D02*
X6389759Y-15491976D01*
X6342140Y-15491976D01*
X6323093Y-15482452D01*
X6313569Y-15463405D01*
X6313569Y-15444357D01*
X6323093Y-15425309D01*
X6342140Y-15415786D01*
X6389759Y-15415786D01*
X6408807Y-15406262D01*
X6504045Y-15358643D02*
X6504045Y-15558643D01*
X6504045Y-15368167D02*
X6523093Y-15358643D01*
X6561188Y-15358643D01*
X6580236Y-15368167D01*
X6589759Y-15377690D01*
X6599283Y-15396738D01*
X6599283Y-15453881D01*
X6589759Y-15472928D01*
X6580236Y-15482452D01*
X6561188Y-15491976D01*
X6523093Y-15491976D01*
X6504045Y-15482452D01*
X6684998Y-15472928D02*
X6694521Y-15482452D01*
X6684998Y-15491976D01*
X6675474Y-15482452D01*
X6684998Y-15472928D01*
X6684998Y-15491976D01*
X6684998Y-15368167D02*
X6694521Y-15377690D01*
X6684998Y-15387214D01*
X6675474Y-15377690D01*
X6684998Y-15368167D01*
X6684998Y-15387214D01*
D12*
X5015950Y-15801500D02*
X5055950Y-15841500D01*
X5055950Y-15801500D02*
X5015950Y-15841500D01*
D11*
X5351664Y-15711976D02*
X5370712Y-15711976D01*
X5389760Y-15721500D01*
X5399283Y-15731024D01*
X5408807Y-15750071D01*
X5418331Y-15788167D01*
X5418331Y-15835786D01*
X5408807Y-15873881D01*
X5399283Y-15892928D01*
X5389760Y-15902452D01*
X5370712Y-15911976D01*
X5351664Y-15911976D01*
X5332617Y-15902452D01*
X5323093Y-15892928D01*
X5313569Y-15873881D01*
X5304045Y-15835786D01*
X5304045Y-15788167D01*
X5313569Y-15750071D01*
X5323093Y-15731024D01*
X5332617Y-15721500D01*
X5351664Y-15711976D01*
X5504045Y-15892928D02*
X5513569Y-15902452D01*
X5504045Y-15911976D01*
X5494521Y-15902452D01*
X5504045Y-15892928D01*
X5504045Y-15911976D01*
X5684998Y-15778643D02*
X5684998Y-15911976D01*
X5637378Y-15702452D02*
X5589760Y-15845309D01*
X5713569Y-15845309D01*
X5827855Y-15711976D02*
X5846902Y-15711976D01*
X5865950Y-15721500D01*
X5875474Y-15731024D01*
X5884998Y-15750071D01*
X5894521Y-15788167D01*
X5894521Y-15835786D01*
X5884998Y-15873881D01*
X5875474Y-15892928D01*
X5865950Y-15902452D01*
X5846902Y-15911976D01*
X5827855Y-15911976D01*
X5808807Y-15902452D01*
X5799283Y-15892928D01*
X5789759Y-15873881D01*
X5780236Y-15835786D01*
X5780236Y-15788167D01*
X5789759Y-15750071D01*
X5799283Y-15731024D01*
X5808807Y-15721500D01*
X5827855Y-15711976D01*
X6018331Y-15711976D02*
X6037378Y-15711976D01*
X6056426Y-15721500D01*
X6065950Y-15731024D01*
X6075474Y-15750071D01*
X6084998Y-15788167D01*
X6084998Y-15835786D01*
X6075474Y-15873881D01*
X6065950Y-15892928D01*
X6056426Y-15902452D01*
X6037378Y-15911976D01*
X6018331Y-15911976D01*
X5999283Y-15902452D01*
X5989759Y-15892928D01*
X5980236Y-15873881D01*
X5970712Y-15835786D01*
X5970712Y-15788167D01*
X5980236Y-15750071D01*
X5989759Y-15731024D01*
X5999283Y-15721500D01*
X6018331Y-15711976D01*
X6170712Y-15911976D02*
X6170712Y-15778643D01*
X6170712Y-15797690D02*
X6180236Y-15788167D01*
X6199283Y-15778643D01*
X6227855Y-15778643D01*
X6246902Y-15788167D01*
X6256426Y-15807214D01*
X6256426Y-15911976D01*
X6256426Y-15807214D02*
X6265950Y-15788167D01*
X6284998Y-15778643D01*
X6313569Y-15778643D01*
X6332617Y-15788167D01*
X6342140Y-15807214D01*
X6342140Y-15911976D01*
X6437378Y-15911976D02*
X6437378Y-15778643D01*
X6437378Y-15797690D02*
X6446902Y-15788167D01*
X6465950Y-15778643D01*
X6494521Y-15778643D01*
X6513569Y-15788167D01*
X6523093Y-15807214D01*
X6523093Y-15911976D01*
X6523093Y-15807214D02*
X6532617Y-15788167D01*
X6551664Y-15778643D01*
X6580236Y-15778643D01*
X6599283Y-15788167D01*
X6608807Y-15807214D01*
X6608807Y-15911976D01*
X6999283Y-15702452D02*
X6827855Y-15959595D01*
X7256426Y-15711976D02*
X7275474Y-15711976D01*
X7294521Y-15721500D01*
X7304045Y-15731024D01*
X7313569Y-15750071D01*
X7323093Y-15788167D01*
X7323093Y-15835786D01*
X7313569Y-15873881D01*
X7304045Y-15892928D01*
X7294521Y-15902452D01*
X7275474Y-15911976D01*
X7256426Y-15911976D01*
X7237378Y-15902452D01*
X7227855Y-15892928D01*
X7218331Y-15873881D01*
X7208807Y-15835786D01*
X7208807Y-15788167D01*
X7218331Y-15750071D01*
X7227855Y-15731024D01*
X7237378Y-15721500D01*
X7256426Y-15711976D01*
X7408807Y-15892928D02*
X7418331Y-15902452D01*
X7408807Y-15911976D01*
X7399283Y-15902452D01*
X7408807Y-15892928D01*
X7408807Y-15911976D01*
X7542140Y-15711976D02*
X7561188Y-15711976D01*
X7580236Y-15721500D01*
X7589759Y-15731024D01*
X7599283Y-15750071D01*
X7608807Y-15788167D01*
X7608807Y-15835786D01*
X7599283Y-15873881D01*
X7589759Y-15892928D01*
X7580236Y-15902452D01*
X7561188Y-15911976D01*
X7542140Y-15911976D01*
X7523093Y-15902452D01*
X7513569Y-15892928D01*
X7504045Y-15873881D01*
X7494521Y-15835786D01*
X7494521Y-15788167D01*
X7504045Y-15750071D01*
X7513569Y-15731024D01*
X7523093Y-15721500D01*
X7542140Y-15711976D01*
X7799283Y-15911976D02*
X7684998Y-15911976D01*
X7742140Y-15911976D02*
X7742140Y-15711976D01*
X7723093Y-15740548D01*
X7704045Y-15759595D01*
X7684998Y-15769119D01*
X7980236Y-15711976D02*
X7884998Y-15711976D01*
X7875474Y-15807214D01*
X7884998Y-15797690D01*
X7904045Y-15788167D01*
X7951664Y-15788167D01*
X7970712Y-15797690D01*
X7980236Y-15807214D01*
X7989759Y-15826262D01*
X7989759Y-15873881D01*
X7980236Y-15892928D01*
X7970712Y-15902452D01*
X7951664Y-15911976D01*
X7904045Y-15911976D01*
X7884998Y-15902452D01*
X7875474Y-15892928D01*
X8056426Y-15711976D02*
X8189759Y-15711976D01*
X8104045Y-15911976D01*
X8256426Y-15711976D02*
X8256426Y-15750071D01*
X8332617Y-15711976D02*
X8332617Y-15750071D01*
X8627855Y-15988167D02*
X8618331Y-15978643D01*
X8599283Y-15950071D01*
X8589760Y-15931024D01*
X8580236Y-15902452D01*
X8570712Y-15854833D01*
X8570712Y-15816738D01*
X8580236Y-15769119D01*
X8589760Y-15740548D01*
X8599283Y-15721500D01*
X8618331Y-15692928D01*
X8627855Y-15683405D01*
X8789760Y-15778643D02*
X8789760Y-15911976D01*
X8742140Y-15702452D02*
X8694521Y-15845309D01*
X8818331Y-15845309D01*
X9046902Y-15911976D02*
X9046902Y-15711976D01*
X9132617Y-15911976D02*
X9132617Y-15807214D01*
X9123093Y-15788167D01*
X9104045Y-15778643D01*
X9075474Y-15778643D01*
X9056426Y-15788167D01*
X9046902Y-15797690D01*
X9256426Y-15911976D02*
X9237379Y-15902452D01*
X9227855Y-15892928D01*
X9218331Y-15873881D01*
X9218331Y-15816738D01*
X9227855Y-15797690D01*
X9237379Y-15788167D01*
X9256426Y-15778643D01*
X9284998Y-15778643D01*
X9304045Y-15788167D01*
X9313569Y-15797690D01*
X9323093Y-15816738D01*
X9323093Y-15873881D01*
X9313569Y-15892928D01*
X9304045Y-15902452D01*
X9284998Y-15911976D01*
X9256426Y-15911976D01*
X9437379Y-15911976D02*
X9418331Y-15902452D01*
X9408807Y-15883405D01*
X9408807Y-15711976D01*
X9589760Y-15902452D02*
X9570712Y-15911976D01*
X9532617Y-15911976D01*
X9513569Y-15902452D01*
X9504045Y-15883405D01*
X9504045Y-15807214D01*
X9513569Y-15788167D01*
X9532617Y-15778643D01*
X9570712Y-15778643D01*
X9589760Y-15788167D01*
X9599283Y-15807214D01*
X9599283Y-15826262D01*
X9504045Y-15845309D01*
X9675474Y-15902452D02*
X9694521Y-15911976D01*
X9732617Y-15911976D01*
X9751664Y-15902452D01*
X9761188Y-15883405D01*
X9761188Y-15873881D01*
X9751664Y-15854833D01*
X9732617Y-15845309D01*
X9704045Y-15845309D01*
X9684998Y-15835786D01*
X9675474Y-15816738D01*
X9675474Y-15807214D01*
X9684998Y-15788167D01*
X9704045Y-15778643D01*
X9732617Y-15778643D01*
X9751664Y-15788167D01*
X9827855Y-15988167D02*
X9837379Y-15978643D01*
X9856426Y-15950071D01*
X9865950Y-15931024D01*
X9875474Y-15902452D01*
X9884998Y-15854833D01*
X9884998Y-15816738D01*
X9875474Y-15769119D01*
X9865950Y-15740548D01*
X9856426Y-15721500D01*
X9837379Y-15692928D01*
X9827855Y-15683405D01*
D13*
X5055950Y-16085500D02*
G75*
G03*
X5055950Y-16085500I-40000J0D01*
G01*
D11*
X5351664Y-15975976D02*
X5370712Y-15975976D01*
X5389760Y-15985500D01*
X5399283Y-15995024D01*
X5408807Y-16014071D01*
X5418331Y-16052167D01*
X5418331Y-16099786D01*
X5408807Y-16137881D01*
X5399283Y-16156928D01*
X5389760Y-16166452D01*
X5370712Y-16175976D01*
X5351664Y-16175976D01*
X5332617Y-16166452D01*
X5323093Y-16156928D01*
X5313569Y-16137881D01*
X5304045Y-16099786D01*
X5304045Y-16052167D01*
X5313569Y-16014071D01*
X5323093Y-15995024D01*
X5332617Y-15985500D01*
X5351664Y-15975976D01*
X5504045Y-16156928D02*
X5513569Y-16166452D01*
X5504045Y-16175976D01*
X5494521Y-16166452D01*
X5504045Y-16156928D01*
X5504045Y-16175976D01*
X5627855Y-16061690D02*
X5608807Y-16052167D01*
X5599283Y-16042643D01*
X5589760Y-16023595D01*
X5589760Y-16014071D01*
X5599283Y-15995024D01*
X5608807Y-15985500D01*
X5627855Y-15975976D01*
X5665950Y-15975976D01*
X5684998Y-15985500D01*
X5694521Y-15995024D01*
X5704045Y-16014071D01*
X5704045Y-16023595D01*
X5694521Y-16042643D01*
X5684998Y-16052167D01*
X5665950Y-16061690D01*
X5627855Y-16061690D01*
X5608807Y-16071214D01*
X5599283Y-16080738D01*
X5589760Y-16099786D01*
X5589760Y-16137881D01*
X5599283Y-16156928D01*
X5608807Y-16166452D01*
X5627855Y-16175976D01*
X5665950Y-16175976D01*
X5684998Y-16166452D01*
X5694521Y-16156928D01*
X5704045Y-16137881D01*
X5704045Y-16099786D01*
X5694521Y-16080738D01*
X5684998Y-16071214D01*
X5665950Y-16061690D01*
X5827855Y-15975976D02*
X5846902Y-15975976D01*
X5865950Y-15985500D01*
X5875474Y-15995024D01*
X5884998Y-16014071D01*
X5894521Y-16052167D01*
X5894521Y-16099786D01*
X5884998Y-16137881D01*
X5875474Y-16156928D01*
X5865950Y-16166452D01*
X5846902Y-16175976D01*
X5827855Y-16175976D01*
X5808807Y-16166452D01*
X5799283Y-16156928D01*
X5789759Y-16137881D01*
X5780236Y-16099786D01*
X5780236Y-16052167D01*
X5789759Y-16014071D01*
X5799283Y-15995024D01*
X5808807Y-15985500D01*
X5827855Y-15975976D01*
X6018331Y-15975976D02*
X6037378Y-15975976D01*
X6056426Y-15985500D01*
X6065950Y-15995024D01*
X6075474Y-16014071D01*
X6084998Y-16052167D01*
X6084998Y-16099786D01*
X6075474Y-16137881D01*
X6065950Y-16156928D01*
X6056426Y-16166452D01*
X6037378Y-16175976D01*
X6018331Y-16175976D01*
X5999283Y-16166452D01*
X5989759Y-16156928D01*
X5980236Y-16137881D01*
X5970712Y-16099786D01*
X5970712Y-16052167D01*
X5980236Y-16014071D01*
X5989759Y-15995024D01*
X5999283Y-15985500D01*
X6018331Y-15975976D01*
X6170712Y-16175976D02*
X6170712Y-16042643D01*
X6170712Y-16061690D02*
X6180236Y-16052167D01*
X6199283Y-16042643D01*
X6227855Y-16042643D01*
X6246902Y-16052167D01*
X6256426Y-16071214D01*
X6256426Y-16175976D01*
X6256426Y-16071214D02*
X6265950Y-16052167D01*
X6284998Y-16042643D01*
X6313569Y-16042643D01*
X6332617Y-16052167D01*
X6342140Y-16071214D01*
X6342140Y-16175976D01*
X6437378Y-16175976D02*
X6437378Y-16042643D01*
X6437378Y-16061690D02*
X6446902Y-16052167D01*
X6465950Y-16042643D01*
X6494521Y-16042643D01*
X6513569Y-16052167D01*
X6523093Y-16071214D01*
X6523093Y-16175976D01*
X6523093Y-16071214D02*
X6532617Y-16052167D01*
X6551664Y-16042643D01*
X6580236Y-16042643D01*
X6599283Y-16052167D01*
X6608807Y-16071214D01*
X6608807Y-16175976D01*
X6999283Y-15966452D02*
X6827855Y-16223595D01*
X7256426Y-15975976D02*
X7275474Y-15975976D01*
X7294521Y-15985500D01*
X7304045Y-15995024D01*
X7313569Y-16014071D01*
X7323093Y-16052167D01*
X7323093Y-16099786D01*
X7313569Y-16137881D01*
X7304045Y-16156928D01*
X7294521Y-16166452D01*
X7275474Y-16175976D01*
X7256426Y-16175976D01*
X7237378Y-16166452D01*
X7227855Y-16156928D01*
X7218331Y-16137881D01*
X7208807Y-16099786D01*
X7208807Y-16052167D01*
X7218331Y-16014071D01*
X7227855Y-15995024D01*
X7237378Y-15985500D01*
X7256426Y-15975976D01*
X7408807Y-16156928D02*
X7418331Y-16166452D01*
X7408807Y-16175976D01*
X7399283Y-16166452D01*
X7408807Y-16156928D01*
X7408807Y-16175976D01*
X7542140Y-15975976D02*
X7561188Y-15975976D01*
X7580236Y-15985500D01*
X7589759Y-15995024D01*
X7599283Y-16014071D01*
X7608807Y-16052167D01*
X7608807Y-16099786D01*
X7599283Y-16137881D01*
X7589759Y-16156928D01*
X7580236Y-16166452D01*
X7561188Y-16175976D01*
X7542140Y-16175976D01*
X7523093Y-16166452D01*
X7513569Y-16156928D01*
X7504045Y-16137881D01*
X7494521Y-16099786D01*
X7494521Y-16052167D01*
X7504045Y-16014071D01*
X7513569Y-15995024D01*
X7523093Y-15985500D01*
X7542140Y-15975976D01*
X7675474Y-15975976D02*
X7799283Y-15975976D01*
X7732617Y-16052167D01*
X7761188Y-16052167D01*
X7780236Y-16061690D01*
X7789759Y-16071214D01*
X7799283Y-16090262D01*
X7799283Y-16137881D01*
X7789759Y-16156928D01*
X7780236Y-16166452D01*
X7761188Y-16175976D01*
X7704045Y-16175976D01*
X7684998Y-16166452D01*
X7675474Y-16156928D01*
X7989759Y-16175976D02*
X7875474Y-16175976D01*
X7932617Y-16175976D02*
X7932617Y-15975976D01*
X7913569Y-16004548D01*
X7894521Y-16023595D01*
X7875474Y-16033119D01*
X8170712Y-15975976D02*
X8075474Y-15975976D01*
X8065950Y-16071214D01*
X8075474Y-16061690D01*
X8094521Y-16052167D01*
X8142140Y-16052167D01*
X8161188Y-16061690D01*
X8170712Y-16071214D01*
X8180236Y-16090262D01*
X8180236Y-16137881D01*
X8170712Y-16156928D01*
X8161188Y-16166452D01*
X8142140Y-16175976D01*
X8094521Y-16175976D01*
X8075474Y-16166452D01*
X8065950Y-16156928D01*
X8256426Y-15975976D02*
X8256426Y-16014071D01*
X8332617Y-15975976D02*
X8332617Y-16014071D01*
X8627855Y-16252167D02*
X8618331Y-16242643D01*
X8599283Y-16214071D01*
X8589760Y-16195024D01*
X8580236Y-16166452D01*
X8570712Y-16118833D01*
X8570712Y-16080738D01*
X8580236Y-16033119D01*
X8589760Y-16004548D01*
X8599283Y-15985500D01*
X8618331Y-15956928D01*
X8627855Y-15947405D01*
X8684998Y-15975976D02*
X8808807Y-15975976D01*
X8742140Y-16052167D01*
X8770712Y-16052167D01*
X8789760Y-16061690D01*
X8799283Y-16071214D01*
X8808807Y-16090262D01*
X8808807Y-16137881D01*
X8799283Y-16156928D01*
X8789760Y-16166452D01*
X8770712Y-16175976D01*
X8713569Y-16175976D01*
X8694521Y-16166452D01*
X8684998Y-16156928D01*
X8999283Y-16175976D02*
X8884998Y-16175976D01*
X8942140Y-16175976D02*
X8942140Y-15975976D01*
X8923093Y-16004548D01*
X8904045Y-16023595D01*
X8884998Y-16033119D01*
X9237379Y-16175976D02*
X9237379Y-15975976D01*
X9323093Y-16175976D02*
X9323093Y-16071214D01*
X9313569Y-16052167D01*
X9294521Y-16042643D01*
X9265950Y-16042643D01*
X9246902Y-16052167D01*
X9237379Y-16061690D01*
X9446902Y-16175976D02*
X9427855Y-16166452D01*
X9418331Y-16156928D01*
X9408807Y-16137881D01*
X9408807Y-16080738D01*
X9418331Y-16061690D01*
X9427855Y-16052167D01*
X9446902Y-16042643D01*
X9475474Y-16042643D01*
X9494521Y-16052167D01*
X9504045Y-16061690D01*
X9513569Y-16080738D01*
X9513569Y-16137881D01*
X9504045Y-16156928D01*
X9494521Y-16166452D01*
X9475474Y-16175976D01*
X9446902Y-16175976D01*
X9627855Y-16175976D02*
X9608807Y-16166452D01*
X9599283Y-16147405D01*
X9599283Y-15975976D01*
X9780236Y-16166452D02*
X9761188Y-16175976D01*
X9723093Y-16175976D01*
X9704045Y-16166452D01*
X9694521Y-16147405D01*
X9694521Y-16071214D01*
X9704045Y-16052167D01*
X9723093Y-16042643D01*
X9761188Y-16042643D01*
X9780236Y-16052167D01*
X9789760Y-16071214D01*
X9789760Y-16090262D01*
X9694521Y-16109309D01*
X9865950Y-16166452D02*
X9884998Y-16175976D01*
X9923093Y-16175976D01*
X9942140Y-16166452D01*
X9951664Y-16147405D01*
X9951664Y-16137881D01*
X9942140Y-16118833D01*
X9923093Y-16109309D01*
X9894521Y-16109309D01*
X9875474Y-16099786D01*
X9865950Y-16080738D01*
X9865950Y-16071214D01*
X9875474Y-16052167D01*
X9894521Y-16042643D01*
X9923093Y-16042643D01*
X9942140Y-16052167D01*
X10018331Y-16252167D02*
X10027855Y-16242643D01*
X10046902Y-16214071D01*
X10056426Y-16195024D01*
X10065950Y-16166452D01*
X10075474Y-16118833D01*
X10075474Y-16080738D01*
X10065950Y-16033119D01*
X10056426Y-16004548D01*
X10046902Y-15985500D01*
X10027855Y-15956928D01*
X10018331Y-15947405D01*
D14*
X5010950Y-16304500D02*
X5010950Y-16394500D01*
X4965950Y-16349500D02*
X5055950Y-16349500D01*
D11*
X5351664Y-16239976D02*
X5370712Y-16239976D01*
X5389760Y-16249500D01*
X5399283Y-16259024D01*
X5408807Y-16278071D01*
X5418331Y-16316167D01*
X5418331Y-16363786D01*
X5408807Y-16401881D01*
X5399283Y-16420928D01*
X5389760Y-16430452D01*
X5370712Y-16439976D01*
X5351664Y-16439976D01*
X5332617Y-16430452D01*
X5323093Y-16420928D01*
X5313569Y-16401881D01*
X5304045Y-16363786D01*
X5304045Y-16316167D01*
X5313569Y-16278071D01*
X5323093Y-16259024D01*
X5332617Y-16249500D01*
X5351664Y-16239976D01*
X5504045Y-16420928D02*
X5513569Y-16430452D01*
X5504045Y-16439976D01*
X5494521Y-16430452D01*
X5504045Y-16420928D01*
X5504045Y-16439976D01*
X5608807Y-16439976D02*
X5646902Y-16439976D01*
X5665950Y-16430452D01*
X5675474Y-16420928D01*
X5694521Y-16392357D01*
X5704045Y-16354262D01*
X5704045Y-16278071D01*
X5694521Y-16259024D01*
X5684998Y-16249500D01*
X5665950Y-16239976D01*
X5627855Y-16239976D01*
X5608807Y-16249500D01*
X5599283Y-16259024D01*
X5589760Y-16278071D01*
X5589760Y-16325690D01*
X5599283Y-16344738D01*
X5608807Y-16354262D01*
X5627855Y-16363786D01*
X5665950Y-16363786D01*
X5684998Y-16354262D01*
X5694521Y-16344738D01*
X5704045Y-16325690D01*
X5827855Y-16239976D02*
X5846902Y-16239976D01*
X5865950Y-16249500D01*
X5875474Y-16259024D01*
X5884998Y-16278071D01*
X5894521Y-16316167D01*
X5894521Y-16363786D01*
X5884998Y-16401881D01*
X5875474Y-16420928D01*
X5865950Y-16430452D01*
X5846902Y-16439976D01*
X5827855Y-16439976D01*
X5808807Y-16430452D01*
X5799283Y-16420928D01*
X5789759Y-16401881D01*
X5780236Y-16363786D01*
X5780236Y-16316167D01*
X5789759Y-16278071D01*
X5799283Y-16259024D01*
X5808807Y-16249500D01*
X5827855Y-16239976D01*
X6018331Y-16239976D02*
X6037378Y-16239976D01*
X6056426Y-16249500D01*
X6065950Y-16259024D01*
X6075474Y-16278071D01*
X6084998Y-16316167D01*
X6084998Y-16363786D01*
X6075474Y-16401881D01*
X6065950Y-16420928D01*
X6056426Y-16430452D01*
X6037378Y-16439976D01*
X6018331Y-16439976D01*
X5999283Y-16430452D01*
X5989759Y-16420928D01*
X5980236Y-16401881D01*
X5970712Y-16363786D01*
X5970712Y-16316167D01*
X5980236Y-16278071D01*
X5989759Y-16259024D01*
X5999283Y-16249500D01*
X6018331Y-16239976D01*
X6170712Y-16439976D02*
X6170712Y-16306643D01*
X6170712Y-16325690D02*
X6180236Y-16316167D01*
X6199283Y-16306643D01*
X6227855Y-16306643D01*
X6246902Y-16316167D01*
X6256426Y-16335214D01*
X6256426Y-16439976D01*
X6256426Y-16335214D02*
X6265950Y-16316167D01*
X6284998Y-16306643D01*
X6313569Y-16306643D01*
X6332617Y-16316167D01*
X6342140Y-16335214D01*
X6342140Y-16439976D01*
X6437378Y-16439976D02*
X6437378Y-16306643D01*
X6437378Y-16325690D02*
X6446902Y-16316167D01*
X6465950Y-16306643D01*
X6494521Y-16306643D01*
X6513569Y-16316167D01*
X6523093Y-16335214D01*
X6523093Y-16439976D01*
X6523093Y-16335214D02*
X6532617Y-16316167D01*
X6551664Y-16306643D01*
X6580236Y-16306643D01*
X6599283Y-16316167D01*
X6608807Y-16335214D01*
X6608807Y-16439976D01*
X6999283Y-16230452D02*
X6827855Y-16487595D01*
X7256426Y-16239976D02*
X7275474Y-16239976D01*
X7294521Y-16249500D01*
X7304045Y-16259024D01*
X7313569Y-16278071D01*
X7323093Y-16316167D01*
X7323093Y-16363786D01*
X7313569Y-16401881D01*
X7304045Y-16420928D01*
X7294521Y-16430452D01*
X7275474Y-16439976D01*
X7256426Y-16439976D01*
X7237378Y-16430452D01*
X7227855Y-16420928D01*
X7218331Y-16401881D01*
X7208807Y-16363786D01*
X7208807Y-16316167D01*
X7218331Y-16278071D01*
X7227855Y-16259024D01*
X7237378Y-16249500D01*
X7256426Y-16239976D01*
X7408807Y-16420928D02*
X7418331Y-16430452D01*
X7408807Y-16439976D01*
X7399283Y-16430452D01*
X7408807Y-16420928D01*
X7408807Y-16439976D01*
X7542140Y-16239976D02*
X7561188Y-16239976D01*
X7580236Y-16249500D01*
X7589759Y-16259024D01*
X7599283Y-16278071D01*
X7608807Y-16316167D01*
X7608807Y-16363786D01*
X7599283Y-16401881D01*
X7589759Y-16420928D01*
X7580236Y-16430452D01*
X7561188Y-16439976D01*
X7542140Y-16439976D01*
X7523093Y-16430452D01*
X7513569Y-16420928D01*
X7504045Y-16401881D01*
X7494521Y-16363786D01*
X7494521Y-16316167D01*
X7504045Y-16278071D01*
X7513569Y-16259024D01*
X7523093Y-16249500D01*
X7542140Y-16239976D01*
X7675474Y-16239976D02*
X7799283Y-16239976D01*
X7732617Y-16316167D01*
X7761188Y-16316167D01*
X7780236Y-16325690D01*
X7789759Y-16335214D01*
X7799283Y-16354262D01*
X7799283Y-16401881D01*
X7789759Y-16420928D01*
X7780236Y-16430452D01*
X7761188Y-16439976D01*
X7704045Y-16439976D01*
X7684998Y-16430452D01*
X7675474Y-16420928D01*
X7980236Y-16239976D02*
X7884998Y-16239976D01*
X7875474Y-16335214D01*
X7884998Y-16325690D01*
X7904045Y-16316167D01*
X7951664Y-16316167D01*
X7970712Y-16325690D01*
X7980236Y-16335214D01*
X7989759Y-16354262D01*
X7989759Y-16401881D01*
X7980236Y-16420928D01*
X7970712Y-16430452D01*
X7951664Y-16439976D01*
X7904045Y-16439976D01*
X7884998Y-16430452D01*
X7875474Y-16420928D01*
X8161188Y-16306643D02*
X8161188Y-16439976D01*
X8113569Y-16230452D02*
X8065950Y-16373309D01*
X8189759Y-16373309D01*
X8256426Y-16239976D02*
X8256426Y-16278071D01*
X8332617Y-16239976D02*
X8332617Y-16278071D01*
X8627855Y-16516167D02*
X8618331Y-16506643D01*
X8599283Y-16478071D01*
X8589760Y-16459024D01*
X8580236Y-16430452D01*
X8570712Y-16382833D01*
X8570712Y-16344738D01*
X8580236Y-16297119D01*
X8589760Y-16268548D01*
X8599283Y-16249500D01*
X8618331Y-16220928D01*
X8627855Y-16211405D01*
X8799283Y-16239976D02*
X8704045Y-16239976D01*
X8694521Y-16335214D01*
X8704045Y-16325690D01*
X8723093Y-16316167D01*
X8770712Y-16316167D01*
X8789760Y-16325690D01*
X8799283Y-16335214D01*
X8808807Y-16354262D01*
X8808807Y-16401881D01*
X8799283Y-16420928D01*
X8789760Y-16430452D01*
X8770712Y-16439976D01*
X8723093Y-16439976D01*
X8704045Y-16430452D01*
X8694521Y-16420928D01*
X8932617Y-16239976D02*
X8951664Y-16239976D01*
X8970712Y-16249500D01*
X8980236Y-16259024D01*
X8989760Y-16278071D01*
X8999283Y-16316167D01*
X8999283Y-16363786D01*
X8989760Y-16401881D01*
X8980236Y-16420928D01*
X8970712Y-16430452D01*
X8951664Y-16439976D01*
X8932617Y-16439976D01*
X8913569Y-16430452D01*
X8904045Y-16420928D01*
X8894521Y-16401881D01*
X8884998Y-16363786D01*
X8884998Y-16316167D01*
X8894521Y-16278071D01*
X8904045Y-16259024D01*
X8913569Y-16249500D01*
X8932617Y-16239976D01*
X9237379Y-16439976D02*
X9237379Y-16239976D01*
X9323093Y-16439976D02*
X9323093Y-16335214D01*
X9313569Y-16316167D01*
X9294521Y-16306643D01*
X9265950Y-16306643D01*
X9246902Y-16316167D01*
X9237379Y-16325690D01*
X9446902Y-16439976D02*
X9427855Y-16430452D01*
X9418331Y-16420928D01*
X9408807Y-16401881D01*
X9408807Y-16344738D01*
X9418331Y-16325690D01*
X9427855Y-16316167D01*
X9446902Y-16306643D01*
X9475474Y-16306643D01*
X9494521Y-16316167D01*
X9504045Y-16325690D01*
X9513569Y-16344738D01*
X9513569Y-16401881D01*
X9504045Y-16420928D01*
X9494521Y-16430452D01*
X9475474Y-16439976D01*
X9446902Y-16439976D01*
X9627855Y-16439976D02*
X9608807Y-16430452D01*
X9599283Y-16411405D01*
X9599283Y-16239976D01*
X9780236Y-16430452D02*
X9761188Y-16439976D01*
X9723093Y-16439976D01*
X9704045Y-16430452D01*
X9694521Y-16411405D01*
X9694521Y-16335214D01*
X9704045Y-16316167D01*
X9723093Y-16306643D01*
X9761188Y-16306643D01*
X9780236Y-16316167D01*
X9789760Y-16335214D01*
X9789760Y-16354262D01*
X9694521Y-16373309D01*
X9865950Y-16430452D02*
X9884998Y-16439976D01*
X9923093Y-16439976D01*
X9942140Y-16430452D01*
X9951664Y-16411405D01*
X9951664Y-16401881D01*
X9942140Y-16382833D01*
X9923093Y-16373309D01*
X9894521Y-16373309D01*
X9875474Y-16363786D01*
X9865950Y-16344738D01*
X9865950Y-16335214D01*
X9875474Y-16316167D01*
X9894521Y-16306643D01*
X9923093Y-16306643D01*
X9942140Y-16316167D01*
X10018331Y-16516167D02*
X10027855Y-16506643D01*
X10046902Y-16478071D01*
X10056426Y-16459024D01*
X10065950Y-16430452D01*
X10075474Y-16382833D01*
X10075474Y-16344738D01*
X10065950Y-16297119D01*
X10056426Y-16268548D01*
X10046902Y-16249500D01*
X10027855Y-16220928D01*
X10018331Y-16211405D01*
D10*
X5041306Y-16648856D02*
X5041306Y-16578144D01*
X4970594Y-16578144D01*
X4970594Y-16648856D01*
X5041306Y-16648856D01*
D11*
X5418331Y-16703976D02*
X5304045Y-16703976D01*
X5361188Y-16703976D02*
X5361188Y-16503976D01*
X5342140Y-16532548D01*
X5323093Y-16551595D01*
X5304045Y-16561119D01*
X5504045Y-16684928D02*
X5513569Y-16694452D01*
X5504045Y-16703976D01*
X5494521Y-16694452D01*
X5504045Y-16684928D01*
X5504045Y-16703976D01*
X5637378Y-16503976D02*
X5656426Y-16503976D01*
X5675474Y-16513500D01*
X5684998Y-16523024D01*
X5694521Y-16542071D01*
X5704045Y-16580167D01*
X5704045Y-16627786D01*
X5694521Y-16665881D01*
X5684998Y-16684928D01*
X5675474Y-16694452D01*
X5656426Y-16703976D01*
X5637378Y-16703976D01*
X5618331Y-16694452D01*
X5608807Y-16684928D01*
X5599283Y-16665881D01*
X5589760Y-16627786D01*
X5589760Y-16580167D01*
X5599283Y-16542071D01*
X5608807Y-16523024D01*
X5618331Y-16513500D01*
X5637378Y-16503976D01*
X5827855Y-16503976D02*
X5846902Y-16503976D01*
X5865950Y-16513500D01*
X5875474Y-16523024D01*
X5884998Y-16542071D01*
X5894521Y-16580167D01*
X5894521Y-16627786D01*
X5884998Y-16665881D01*
X5875474Y-16684928D01*
X5865950Y-16694452D01*
X5846902Y-16703976D01*
X5827855Y-16703976D01*
X5808807Y-16694452D01*
X5799283Y-16684928D01*
X5789759Y-16665881D01*
X5780236Y-16627786D01*
X5780236Y-16580167D01*
X5789759Y-16542071D01*
X5799283Y-16523024D01*
X5808807Y-16513500D01*
X5827855Y-16503976D01*
X6018331Y-16503976D02*
X6037378Y-16503976D01*
X6056426Y-16513500D01*
X6065950Y-16523024D01*
X6075474Y-16542071D01*
X6084998Y-16580167D01*
X6084998Y-16627786D01*
X6075474Y-16665881D01*
X6065950Y-16684928D01*
X6056426Y-16694452D01*
X6037378Y-16703976D01*
X6018331Y-16703976D01*
X5999283Y-16694452D01*
X5989759Y-16684928D01*
X5980236Y-16665881D01*
X5970712Y-16627786D01*
X5970712Y-16580167D01*
X5980236Y-16542071D01*
X5989759Y-16523024D01*
X5999283Y-16513500D01*
X6018331Y-16503976D01*
X6170712Y-16703976D02*
X6170712Y-16570643D01*
X6170712Y-16589690D02*
X6180236Y-16580167D01*
X6199283Y-16570643D01*
X6227855Y-16570643D01*
X6246902Y-16580167D01*
X6256426Y-16599214D01*
X6256426Y-16703976D01*
X6256426Y-16599214D02*
X6265950Y-16580167D01*
X6284998Y-16570643D01*
X6313569Y-16570643D01*
X6332617Y-16580167D01*
X6342140Y-16599214D01*
X6342140Y-16703976D01*
X6437378Y-16703976D02*
X6437378Y-16570643D01*
X6437378Y-16589690D02*
X6446902Y-16580167D01*
X6465950Y-16570643D01*
X6494521Y-16570643D01*
X6513569Y-16580167D01*
X6523093Y-16599214D01*
X6523093Y-16703976D01*
X6523093Y-16599214D02*
X6532617Y-16580167D01*
X6551664Y-16570643D01*
X6580236Y-16570643D01*
X6599283Y-16580167D01*
X6608807Y-16599214D01*
X6608807Y-16703976D01*
X6999283Y-16494452D02*
X6827855Y-16751595D01*
X7256426Y-16503976D02*
X7275474Y-16503976D01*
X7294521Y-16513500D01*
X7304045Y-16523024D01*
X7313569Y-16542071D01*
X7323093Y-16580167D01*
X7323093Y-16627786D01*
X7313569Y-16665881D01*
X7304045Y-16684928D01*
X7294521Y-16694452D01*
X7275474Y-16703976D01*
X7256426Y-16703976D01*
X7237378Y-16694452D01*
X7227855Y-16684928D01*
X7218331Y-16665881D01*
X7208807Y-16627786D01*
X7208807Y-16580167D01*
X7218331Y-16542071D01*
X7227855Y-16523024D01*
X7237378Y-16513500D01*
X7256426Y-16503976D01*
X7408807Y-16684928D02*
X7418331Y-16694452D01*
X7408807Y-16703976D01*
X7399283Y-16694452D01*
X7408807Y-16684928D01*
X7408807Y-16703976D01*
X7542140Y-16503976D02*
X7561188Y-16503976D01*
X7580236Y-16513500D01*
X7589759Y-16523024D01*
X7599283Y-16542071D01*
X7608807Y-16580167D01*
X7608807Y-16627786D01*
X7599283Y-16665881D01*
X7589759Y-16684928D01*
X7580236Y-16694452D01*
X7561188Y-16703976D01*
X7542140Y-16703976D01*
X7523093Y-16694452D01*
X7513569Y-16684928D01*
X7504045Y-16665881D01*
X7494521Y-16627786D01*
X7494521Y-16580167D01*
X7504045Y-16542071D01*
X7513569Y-16523024D01*
X7523093Y-16513500D01*
X7542140Y-16503976D01*
X7675474Y-16503976D02*
X7799283Y-16503976D01*
X7732617Y-16580167D01*
X7761188Y-16580167D01*
X7780236Y-16589690D01*
X7789759Y-16599214D01*
X7799283Y-16618262D01*
X7799283Y-16665881D01*
X7789759Y-16684928D01*
X7780236Y-16694452D01*
X7761188Y-16703976D01*
X7704045Y-16703976D01*
X7684998Y-16694452D01*
X7675474Y-16684928D01*
X7894521Y-16703976D02*
X7932617Y-16703976D01*
X7951664Y-16694452D01*
X7961188Y-16684928D01*
X7980236Y-16656357D01*
X7989759Y-16618262D01*
X7989759Y-16542071D01*
X7980236Y-16523024D01*
X7970712Y-16513500D01*
X7951664Y-16503976D01*
X7913569Y-16503976D01*
X7894521Y-16513500D01*
X7884998Y-16523024D01*
X7875474Y-16542071D01*
X7875474Y-16589690D01*
X7884998Y-16608738D01*
X7894521Y-16618262D01*
X7913569Y-16627786D01*
X7951664Y-16627786D01*
X7970712Y-16618262D01*
X7980236Y-16608738D01*
X7989759Y-16589690D01*
X8161188Y-16570643D02*
X8161188Y-16703976D01*
X8113569Y-16494452D02*
X8065950Y-16637309D01*
X8189759Y-16637309D01*
X8256426Y-16503976D02*
X8256426Y-16542071D01*
X8332617Y-16503976D02*
X8332617Y-16542071D01*
X8627855Y-16780167D02*
X8618331Y-16770643D01*
X8599283Y-16742071D01*
X8589760Y-16723024D01*
X8580236Y-16694452D01*
X8570712Y-16646833D01*
X8570712Y-16608738D01*
X8580236Y-16561119D01*
X8589760Y-16532548D01*
X8599283Y-16513500D01*
X8618331Y-16484928D01*
X8627855Y-16475405D01*
X8808807Y-16703976D02*
X8694521Y-16703976D01*
X8751664Y-16703976D02*
X8751664Y-16503976D01*
X8732617Y-16532548D01*
X8713569Y-16551595D01*
X8694521Y-16561119D01*
X8904045Y-16703976D02*
X8942140Y-16703976D01*
X8961188Y-16694452D01*
X8970712Y-16684928D01*
X8989760Y-16656357D01*
X8999283Y-16618262D01*
X8999283Y-16542071D01*
X8989760Y-16523024D01*
X8980236Y-16513500D01*
X8961188Y-16503976D01*
X8923093Y-16503976D01*
X8904045Y-16513500D01*
X8894521Y-16523024D01*
X8884998Y-16542071D01*
X8884998Y-16589690D01*
X8894521Y-16608738D01*
X8904045Y-16618262D01*
X8923093Y-16627786D01*
X8961188Y-16627786D01*
X8980236Y-16618262D01*
X8989760Y-16608738D01*
X8999283Y-16589690D01*
X9237379Y-16703976D02*
X9237379Y-16503976D01*
X9323093Y-16703976D02*
X9323093Y-16599214D01*
X9313569Y-16580167D01*
X9294521Y-16570643D01*
X9265950Y-16570643D01*
X9246902Y-16580167D01*
X9237379Y-16589690D01*
X9446902Y-16703976D02*
X9427855Y-16694452D01*
X9418331Y-16684928D01*
X9408807Y-16665881D01*
X9408807Y-16608738D01*
X9418331Y-16589690D01*
X9427855Y-16580167D01*
X9446902Y-16570643D01*
X9475474Y-16570643D01*
X9494521Y-16580167D01*
X9504045Y-16589690D01*
X9513569Y-16608738D01*
X9513569Y-16665881D01*
X9504045Y-16684928D01*
X9494521Y-16694452D01*
X9475474Y-16703976D01*
X9446902Y-16703976D01*
X9627855Y-16703976D02*
X9608807Y-16694452D01*
X9599283Y-16675405D01*
X9599283Y-16503976D01*
X9780236Y-16694452D02*
X9761188Y-16703976D01*
X9723093Y-16703976D01*
X9704045Y-16694452D01*
X9694521Y-16675405D01*
X9694521Y-16599214D01*
X9704045Y-16580167D01*
X9723093Y-16570643D01*
X9761188Y-16570643D01*
X9780236Y-16580167D01*
X9789760Y-16599214D01*
X9789760Y-16618262D01*
X9694521Y-16637309D01*
X9865950Y-16694452D02*
X9884998Y-16703976D01*
X9923093Y-16703976D01*
X9942140Y-16694452D01*
X9951664Y-16675405D01*
X9951664Y-16665881D01*
X9942140Y-16646833D01*
X9923093Y-16637309D01*
X9894521Y-16637309D01*
X9875474Y-16627786D01*
X9865950Y-16608738D01*
X9865950Y-16599214D01*
X9875474Y-16580167D01*
X9894521Y-16570643D01*
X9923093Y-16570643D01*
X9942140Y-16580167D01*
X10189760Y-16627786D02*
X10342140Y-16627786D01*
X10265950Y-16703976D02*
X10265950Y-16551595D01*
X10570712Y-16503976D02*
X10694521Y-16503976D01*
X10627855Y-16580167D01*
X10656426Y-16580167D01*
X10675474Y-16589690D01*
X10684998Y-16599214D01*
X10694521Y-16618262D01*
X10694521Y-16665881D01*
X10684998Y-16684928D01*
X10675474Y-16694452D01*
X10656426Y-16703976D01*
X10599283Y-16703976D01*
X10580236Y-16694452D01*
X10570712Y-16684928D01*
X10923093Y-16694452D02*
X10942140Y-16703976D01*
X10980236Y-16703976D01*
X10999283Y-16694452D01*
X11008807Y-16675405D01*
X11008807Y-16665881D01*
X10999283Y-16646833D01*
X10980236Y-16637309D01*
X10951664Y-16637309D01*
X10932617Y-16627786D01*
X10923093Y-16608738D01*
X10923093Y-16599214D01*
X10932617Y-16580167D01*
X10951664Y-16570643D01*
X10980236Y-16570643D01*
X10999283Y-16580167D01*
X11123093Y-16703976D02*
X11104045Y-16694452D01*
X11094521Y-16675405D01*
X11094521Y-16503976D01*
X11227855Y-16703976D02*
X11208807Y-16694452D01*
X11199283Y-16684928D01*
X11189759Y-16665881D01*
X11189759Y-16608738D01*
X11199283Y-16589690D01*
X11208807Y-16580167D01*
X11227855Y-16570643D01*
X11256426Y-16570643D01*
X11275474Y-16580167D01*
X11284998Y-16589690D01*
X11294521Y-16608738D01*
X11294521Y-16665881D01*
X11284998Y-16684928D01*
X11275474Y-16694452D01*
X11256426Y-16703976D01*
X11227855Y-16703976D01*
X11351664Y-16570643D02*
X11427855Y-16570643D01*
X11380236Y-16503976D02*
X11380236Y-16675405D01*
X11389759Y-16694452D01*
X11408807Y-16703976D01*
X11427855Y-16703976D01*
X11484998Y-16694452D02*
X11504045Y-16703976D01*
X11542140Y-16703976D01*
X11561188Y-16694452D01*
X11570712Y-16675405D01*
X11570712Y-16665881D01*
X11561188Y-16646833D01*
X11542140Y-16637309D01*
X11513569Y-16637309D01*
X11494521Y-16627786D01*
X11484998Y-16608738D01*
X11484998Y-16599214D01*
X11494521Y-16580167D01*
X11513569Y-16570643D01*
X11542140Y-16570643D01*
X11561188Y-16580167D01*
X11637378Y-16780167D02*
X11646902Y-16770643D01*
X11665950Y-16742071D01*
X11675474Y-16723024D01*
X11684998Y-16694452D01*
X11694521Y-16646833D01*
X11694521Y-16608738D01*
X11684998Y-16561119D01*
X11675474Y-16532548D01*
X11665950Y-16513500D01*
X11646902Y-16484928D01*
X11637378Y-16475405D01*
D10*
X5005950Y-16927500D02*
X5055950Y-16877500D01*
X5005950Y-16827500D01*
X4955950Y-16877500D01*
X5005950Y-16927500D01*
D11*
X5418331Y-16967976D02*
X5304045Y-16967976D01*
X5361188Y-16967976D02*
X5361188Y-16767976D01*
X5342140Y-16796548D01*
X5323093Y-16815595D01*
X5304045Y-16825119D01*
X5504045Y-16948929D02*
X5513569Y-16958452D01*
X5504045Y-16967976D01*
X5494521Y-16958452D01*
X5504045Y-16948929D01*
X5504045Y-16967976D01*
X5637378Y-16767976D02*
X5656426Y-16767976D01*
X5675474Y-16777500D01*
X5684998Y-16787024D01*
X5694521Y-16806071D01*
X5704045Y-16844167D01*
X5704045Y-16891786D01*
X5694521Y-16929881D01*
X5684998Y-16948929D01*
X5675474Y-16958452D01*
X5656426Y-16967976D01*
X5637378Y-16967976D01*
X5618331Y-16958452D01*
X5608807Y-16948929D01*
X5599283Y-16929881D01*
X5589760Y-16891786D01*
X5589760Y-16844167D01*
X5599283Y-16806071D01*
X5608807Y-16787024D01*
X5618331Y-16777500D01*
X5637378Y-16767976D01*
X5827855Y-16767976D02*
X5846902Y-16767976D01*
X5865950Y-16777500D01*
X5875474Y-16787024D01*
X5884998Y-16806071D01*
X5894521Y-16844167D01*
X5894521Y-16891786D01*
X5884998Y-16929881D01*
X5875474Y-16948929D01*
X5865950Y-16958452D01*
X5846902Y-16967976D01*
X5827855Y-16967976D01*
X5808807Y-16958452D01*
X5799283Y-16948929D01*
X5789759Y-16929881D01*
X5780236Y-16891786D01*
X5780236Y-16844167D01*
X5789759Y-16806071D01*
X5799283Y-16787024D01*
X5808807Y-16777500D01*
X5827855Y-16767976D01*
X6018331Y-16767976D02*
X6037378Y-16767976D01*
X6056426Y-16777500D01*
X6065950Y-16787024D01*
X6075474Y-16806071D01*
X6084998Y-16844167D01*
X6084998Y-16891786D01*
X6075474Y-16929881D01*
X6065950Y-16948929D01*
X6056426Y-16958452D01*
X6037378Y-16967976D01*
X6018331Y-16967976D01*
X5999283Y-16958452D01*
X5989759Y-16948929D01*
X5980236Y-16929881D01*
X5970712Y-16891786D01*
X5970712Y-16844167D01*
X5980236Y-16806071D01*
X5989759Y-16787024D01*
X5999283Y-16777500D01*
X6018331Y-16767976D01*
X6170712Y-16967976D02*
X6170712Y-16834643D01*
X6170712Y-16853690D02*
X6180236Y-16844167D01*
X6199283Y-16834643D01*
X6227855Y-16834643D01*
X6246902Y-16844167D01*
X6256426Y-16863214D01*
X6256426Y-16967976D01*
X6256426Y-16863214D02*
X6265950Y-16844167D01*
X6284998Y-16834643D01*
X6313569Y-16834643D01*
X6332617Y-16844167D01*
X6342140Y-16863214D01*
X6342140Y-16967976D01*
X6437378Y-16967976D02*
X6437378Y-16834643D01*
X6437378Y-16853690D02*
X6446902Y-16844167D01*
X6465950Y-16834643D01*
X6494521Y-16834643D01*
X6513569Y-16844167D01*
X6523093Y-16863214D01*
X6523093Y-16967976D01*
X6523093Y-16863214D02*
X6532617Y-16844167D01*
X6551664Y-16834643D01*
X6580236Y-16834643D01*
X6599283Y-16844167D01*
X6608807Y-16863214D01*
X6608807Y-16967976D01*
X6999283Y-16758452D02*
X6827855Y-17015595D01*
X7256426Y-16767976D02*
X7275474Y-16767976D01*
X7294521Y-16777500D01*
X7304045Y-16787024D01*
X7313569Y-16806071D01*
X7323093Y-16844167D01*
X7323093Y-16891786D01*
X7313569Y-16929881D01*
X7304045Y-16948929D01*
X7294521Y-16958452D01*
X7275474Y-16967976D01*
X7256426Y-16967976D01*
X7237378Y-16958452D01*
X7227855Y-16948929D01*
X7218331Y-16929881D01*
X7208807Y-16891786D01*
X7208807Y-16844167D01*
X7218331Y-16806071D01*
X7227855Y-16787024D01*
X7237378Y-16777500D01*
X7256426Y-16767976D01*
X7408807Y-16948929D02*
X7418331Y-16958452D01*
X7408807Y-16967976D01*
X7399283Y-16958452D01*
X7408807Y-16948929D01*
X7408807Y-16967976D01*
X7542140Y-16767976D02*
X7561188Y-16767976D01*
X7580236Y-16777500D01*
X7589759Y-16787024D01*
X7599283Y-16806071D01*
X7608807Y-16844167D01*
X7608807Y-16891786D01*
X7599283Y-16929881D01*
X7589759Y-16948929D01*
X7580236Y-16958452D01*
X7561188Y-16967976D01*
X7542140Y-16967976D01*
X7523093Y-16958452D01*
X7513569Y-16948929D01*
X7504045Y-16929881D01*
X7494521Y-16891786D01*
X7494521Y-16844167D01*
X7504045Y-16806071D01*
X7513569Y-16787024D01*
X7523093Y-16777500D01*
X7542140Y-16767976D01*
X7675474Y-16767976D02*
X7799283Y-16767976D01*
X7732617Y-16844167D01*
X7761188Y-16844167D01*
X7780236Y-16853690D01*
X7789759Y-16863214D01*
X7799283Y-16882262D01*
X7799283Y-16929881D01*
X7789759Y-16948929D01*
X7780236Y-16958452D01*
X7761188Y-16967976D01*
X7704045Y-16967976D01*
X7684998Y-16958452D01*
X7675474Y-16948929D01*
X7894521Y-16967976D02*
X7932617Y-16967976D01*
X7951664Y-16958452D01*
X7961188Y-16948929D01*
X7980236Y-16920357D01*
X7989759Y-16882262D01*
X7989759Y-16806071D01*
X7980236Y-16787024D01*
X7970712Y-16777500D01*
X7951664Y-16767976D01*
X7913569Y-16767976D01*
X7894521Y-16777500D01*
X7884998Y-16787024D01*
X7875474Y-16806071D01*
X7875474Y-16853690D01*
X7884998Y-16872738D01*
X7894521Y-16882262D01*
X7913569Y-16891786D01*
X7951664Y-16891786D01*
X7970712Y-16882262D01*
X7980236Y-16872738D01*
X7989759Y-16853690D01*
X8161188Y-16834643D02*
X8161188Y-16967976D01*
X8113569Y-16758452D02*
X8065950Y-16901310D01*
X8189759Y-16901310D01*
X8256426Y-16767976D02*
X8256426Y-16806071D01*
X8332617Y-16767976D02*
X8332617Y-16806071D01*
X8627855Y-17044167D02*
X8618331Y-17034643D01*
X8599283Y-17006071D01*
X8589760Y-16987024D01*
X8580236Y-16958452D01*
X8570712Y-16910833D01*
X8570712Y-16872738D01*
X8580236Y-16825119D01*
X8589760Y-16796548D01*
X8599283Y-16777500D01*
X8618331Y-16748928D01*
X8627855Y-16739405D01*
X8684998Y-16767976D02*
X8808807Y-16767976D01*
X8742140Y-16844167D01*
X8770712Y-16844167D01*
X8789760Y-16853690D01*
X8799283Y-16863214D01*
X8808807Y-16882262D01*
X8808807Y-16929881D01*
X8799283Y-16948929D01*
X8789760Y-16958452D01*
X8770712Y-16967976D01*
X8713569Y-16967976D01*
X8694521Y-16958452D01*
X8684998Y-16948929D01*
X9046902Y-16967976D02*
X9046902Y-16767976D01*
X9132617Y-16967976D02*
X9132617Y-16863214D01*
X9123093Y-16844167D01*
X9104045Y-16834643D01*
X9075474Y-16834643D01*
X9056426Y-16844167D01*
X9046902Y-16853690D01*
X9256426Y-16967976D02*
X9237379Y-16958452D01*
X9227855Y-16948929D01*
X9218331Y-16929881D01*
X9218331Y-16872738D01*
X9227855Y-16853690D01*
X9237379Y-16844167D01*
X9256426Y-16834643D01*
X9284998Y-16834643D01*
X9304045Y-16844167D01*
X9313569Y-16853690D01*
X9323093Y-16872738D01*
X9323093Y-16929881D01*
X9313569Y-16948929D01*
X9304045Y-16958452D01*
X9284998Y-16967976D01*
X9256426Y-16967976D01*
X9437379Y-16967976D02*
X9418331Y-16958452D01*
X9408807Y-16939405D01*
X9408807Y-16767976D01*
X9589760Y-16958452D02*
X9570712Y-16967976D01*
X9532617Y-16967976D01*
X9513569Y-16958452D01*
X9504045Y-16939405D01*
X9504045Y-16863214D01*
X9513569Y-16844167D01*
X9532617Y-16834643D01*
X9570712Y-16834643D01*
X9589760Y-16844167D01*
X9599283Y-16863214D01*
X9599283Y-16882262D01*
X9504045Y-16901310D01*
X9675474Y-16958452D02*
X9694521Y-16967976D01*
X9732617Y-16967976D01*
X9751664Y-16958452D01*
X9761188Y-16939405D01*
X9761188Y-16929881D01*
X9751664Y-16910833D01*
X9732617Y-16901310D01*
X9704045Y-16901310D01*
X9684998Y-16891786D01*
X9675474Y-16872738D01*
X9675474Y-16863214D01*
X9684998Y-16844167D01*
X9704045Y-16834643D01*
X9732617Y-16834643D01*
X9751664Y-16844167D01*
X9827855Y-17044167D02*
X9837379Y-17034643D01*
X9856426Y-17006071D01*
X9865950Y-16987024D01*
X9875474Y-16958452D01*
X9884998Y-16910833D01*
X9884998Y-16872738D01*
X9875474Y-16825119D01*
X9865950Y-16796548D01*
X9856426Y-16777500D01*
X9837379Y-16748928D01*
X9827855Y-16739405D01*
D15*
X4945950Y-17086500D02*
X5055950Y-17196500D01*
X5055950Y-17086500D02*
X4945950Y-17196500D01*
X5055950Y-17141500D02*
G75*
G03*
X5055950Y-17141500I-55000J0D01*
G01*
D11*
X5418331Y-17231976D02*
X5304045Y-17231976D01*
X5361188Y-17231976D02*
X5361188Y-17031976D01*
X5342140Y-17060548D01*
X5323093Y-17079595D01*
X5304045Y-17089119D01*
X5504045Y-17212929D02*
X5513569Y-17222452D01*
X5504045Y-17231976D01*
X5494521Y-17222452D01*
X5504045Y-17212929D01*
X5504045Y-17231976D01*
X5704045Y-17231976D02*
X5589760Y-17231976D01*
X5646902Y-17231976D02*
X5646902Y-17031976D01*
X5627855Y-17060548D01*
X5608807Y-17079595D01*
X5589760Y-17089119D01*
X5827855Y-17031976D02*
X5846902Y-17031976D01*
X5865950Y-17041500D01*
X5875474Y-17051024D01*
X5884998Y-17070071D01*
X5894521Y-17108167D01*
X5894521Y-17155786D01*
X5884998Y-17193881D01*
X5875474Y-17212929D01*
X5865950Y-17222452D01*
X5846902Y-17231976D01*
X5827855Y-17231976D01*
X5808807Y-17222452D01*
X5799283Y-17212929D01*
X5789759Y-17193881D01*
X5780236Y-17155786D01*
X5780236Y-17108167D01*
X5789759Y-17070071D01*
X5799283Y-17051024D01*
X5808807Y-17041500D01*
X5827855Y-17031976D01*
X6018331Y-17031976D02*
X6037378Y-17031976D01*
X6056426Y-17041500D01*
X6065950Y-17051024D01*
X6075474Y-17070071D01*
X6084998Y-17108167D01*
X6084998Y-17155786D01*
X6075474Y-17193881D01*
X6065950Y-17212929D01*
X6056426Y-17222452D01*
X6037378Y-17231976D01*
X6018331Y-17231976D01*
X5999283Y-17222452D01*
X5989759Y-17212929D01*
X5980236Y-17193881D01*
X5970712Y-17155786D01*
X5970712Y-17108167D01*
X5980236Y-17070071D01*
X5989759Y-17051024D01*
X5999283Y-17041500D01*
X6018331Y-17031976D01*
X6170712Y-17231976D02*
X6170712Y-17098643D01*
X6170712Y-17117690D02*
X6180236Y-17108167D01*
X6199283Y-17098643D01*
X6227855Y-17098643D01*
X6246902Y-17108167D01*
X6256426Y-17127214D01*
X6256426Y-17231976D01*
X6256426Y-17127214D02*
X6265950Y-17108167D01*
X6284998Y-17098643D01*
X6313569Y-17098643D01*
X6332617Y-17108167D01*
X6342140Y-17127214D01*
X6342140Y-17231976D01*
X6437378Y-17231976D02*
X6437378Y-17098643D01*
X6437378Y-17117690D02*
X6446902Y-17108167D01*
X6465950Y-17098643D01*
X6494521Y-17098643D01*
X6513569Y-17108167D01*
X6523093Y-17127214D01*
X6523093Y-17231976D01*
X6523093Y-17127214D02*
X6532617Y-17108167D01*
X6551664Y-17098643D01*
X6580236Y-17098643D01*
X6599283Y-17108167D01*
X6608807Y-17127214D01*
X6608807Y-17231976D01*
X6999283Y-17022452D02*
X6827855Y-17279595D01*
X7256426Y-17031976D02*
X7275474Y-17031976D01*
X7294521Y-17041500D01*
X7304045Y-17051024D01*
X7313569Y-17070071D01*
X7323093Y-17108167D01*
X7323093Y-17155786D01*
X7313569Y-17193881D01*
X7304045Y-17212929D01*
X7294521Y-17222452D01*
X7275474Y-17231976D01*
X7256426Y-17231976D01*
X7237378Y-17222452D01*
X7227855Y-17212929D01*
X7218331Y-17193881D01*
X7208807Y-17155786D01*
X7208807Y-17108167D01*
X7218331Y-17070071D01*
X7227855Y-17051024D01*
X7237378Y-17041500D01*
X7256426Y-17031976D01*
X7408807Y-17212929D02*
X7418331Y-17222452D01*
X7408807Y-17231976D01*
X7399283Y-17222452D01*
X7408807Y-17212929D01*
X7408807Y-17231976D01*
X7542140Y-17031976D02*
X7561188Y-17031976D01*
X7580236Y-17041500D01*
X7589759Y-17051024D01*
X7599283Y-17070071D01*
X7608807Y-17108167D01*
X7608807Y-17155786D01*
X7599283Y-17193881D01*
X7589759Y-17212929D01*
X7580236Y-17222452D01*
X7561188Y-17231976D01*
X7542140Y-17231976D01*
X7523093Y-17222452D01*
X7513569Y-17212929D01*
X7504045Y-17193881D01*
X7494521Y-17155786D01*
X7494521Y-17108167D01*
X7504045Y-17070071D01*
X7513569Y-17051024D01*
X7523093Y-17041500D01*
X7542140Y-17031976D01*
X7780236Y-17098643D02*
X7780236Y-17231976D01*
X7732617Y-17022452D02*
X7684998Y-17165310D01*
X7808807Y-17165310D01*
X7865950Y-17031976D02*
X7989759Y-17031976D01*
X7923093Y-17108167D01*
X7951664Y-17108167D01*
X7970712Y-17117690D01*
X7980236Y-17127214D01*
X7989759Y-17146262D01*
X7989759Y-17193881D01*
X7980236Y-17212929D01*
X7970712Y-17222452D01*
X7951664Y-17231976D01*
X7894521Y-17231976D01*
X7875474Y-17222452D01*
X7865950Y-17212929D01*
X8056426Y-17031976D02*
X8180236Y-17031976D01*
X8113569Y-17108167D01*
X8142140Y-17108167D01*
X8161188Y-17117690D01*
X8170712Y-17127214D01*
X8180236Y-17146262D01*
X8180236Y-17193881D01*
X8170712Y-17212929D01*
X8161188Y-17222452D01*
X8142140Y-17231976D01*
X8084998Y-17231976D01*
X8065950Y-17222452D01*
X8056426Y-17212929D01*
X8256426Y-17031976D02*
X8256426Y-17070071D01*
X8332617Y-17031976D02*
X8332617Y-17070071D01*
X8627855Y-17308167D02*
X8618331Y-17298643D01*
X8599283Y-17270071D01*
X8589760Y-17251024D01*
X8580236Y-17222452D01*
X8570712Y-17174833D01*
X8570712Y-17136738D01*
X8580236Y-17089119D01*
X8589760Y-17060548D01*
X8599283Y-17041500D01*
X8618331Y-17012929D01*
X8627855Y-17003405D01*
X8799283Y-17031976D02*
X8704045Y-17031976D01*
X8694521Y-17127214D01*
X8704045Y-17117690D01*
X8723093Y-17108167D01*
X8770712Y-17108167D01*
X8789760Y-17117690D01*
X8799283Y-17127214D01*
X8808807Y-17146262D01*
X8808807Y-17193881D01*
X8799283Y-17212929D01*
X8789760Y-17222452D01*
X8770712Y-17231976D01*
X8723093Y-17231976D01*
X8704045Y-17222452D01*
X8694521Y-17212929D01*
X9046902Y-17231976D02*
X9046902Y-17031976D01*
X9132617Y-17231976D02*
X9132617Y-17127214D01*
X9123093Y-17108167D01*
X9104045Y-17098643D01*
X9075474Y-17098643D01*
X9056426Y-17108167D01*
X9046902Y-17117690D01*
X9256426Y-17231976D02*
X9237379Y-17222452D01*
X9227855Y-17212929D01*
X9218331Y-17193881D01*
X9218331Y-17136738D01*
X9227855Y-17117690D01*
X9237379Y-17108167D01*
X9256426Y-17098643D01*
X9284998Y-17098643D01*
X9304045Y-17108167D01*
X9313569Y-17117690D01*
X9323093Y-17136738D01*
X9323093Y-17193881D01*
X9313569Y-17212929D01*
X9304045Y-17222452D01*
X9284998Y-17231976D01*
X9256426Y-17231976D01*
X9437379Y-17231976D02*
X9418331Y-17222452D01*
X9408807Y-17203405D01*
X9408807Y-17031976D01*
X9589760Y-17222452D02*
X9570712Y-17231976D01*
X9532617Y-17231976D01*
X9513569Y-17222452D01*
X9504045Y-17203405D01*
X9504045Y-17127214D01*
X9513569Y-17108167D01*
X9532617Y-17098643D01*
X9570712Y-17098643D01*
X9589760Y-17108167D01*
X9599283Y-17127214D01*
X9599283Y-17146262D01*
X9504045Y-17165310D01*
X9675474Y-17222452D02*
X9694521Y-17231976D01*
X9732617Y-17231976D01*
X9751664Y-17222452D01*
X9761188Y-17203405D01*
X9761188Y-17193881D01*
X9751664Y-17174833D01*
X9732617Y-17165310D01*
X9704045Y-17165310D01*
X9684998Y-17155786D01*
X9675474Y-17136738D01*
X9675474Y-17127214D01*
X9684998Y-17108167D01*
X9704045Y-17098643D01*
X9732617Y-17098643D01*
X9751664Y-17108167D01*
X9827855Y-17308167D02*
X9837379Y-17298643D01*
X9856426Y-17270071D01*
X9865950Y-17251024D01*
X9875474Y-17222452D01*
X9884998Y-17174833D01*
X9884998Y-17136738D01*
X9875474Y-17089119D01*
X9865950Y-17060548D01*
X9856426Y-17041500D01*
X9837379Y-17012929D01*
X9827855Y-17003405D01*
D16*
X4935950Y-17345500D02*
X5055950Y-17465500D01*
X5055950Y-17345500D02*
X4935950Y-17465500D01*
X4995950Y-17345500D02*
X4995950Y-17465500D01*
X4935950Y-17405500D02*
X5055950Y-17405500D01*
D11*
X5418331Y-17495976D02*
X5304045Y-17495976D01*
X5361188Y-17495976D02*
X5361188Y-17295976D01*
X5342140Y-17324548D01*
X5323093Y-17343595D01*
X5304045Y-17353119D01*
X5504045Y-17476929D02*
X5513569Y-17486452D01*
X5504045Y-17495976D01*
X5494521Y-17486452D01*
X5504045Y-17476929D01*
X5504045Y-17495976D01*
X5589760Y-17315024D02*
X5599283Y-17305500D01*
X5618331Y-17295976D01*
X5665950Y-17295976D01*
X5684998Y-17305500D01*
X5694521Y-17315024D01*
X5704045Y-17334071D01*
X5704045Y-17353119D01*
X5694521Y-17381690D01*
X5580236Y-17495976D01*
X5704045Y-17495976D01*
X5827855Y-17295976D02*
X5846902Y-17295976D01*
X5865950Y-17305500D01*
X5875474Y-17315024D01*
X5884998Y-17334071D01*
X5894521Y-17372167D01*
X5894521Y-17419786D01*
X5884998Y-17457881D01*
X5875474Y-17476929D01*
X5865950Y-17486452D01*
X5846902Y-17495976D01*
X5827855Y-17495976D01*
X5808807Y-17486452D01*
X5799283Y-17476929D01*
X5789759Y-17457881D01*
X5780236Y-17419786D01*
X5780236Y-17372167D01*
X5789759Y-17334071D01*
X5799283Y-17315024D01*
X5808807Y-17305500D01*
X5827855Y-17295976D01*
X6018331Y-17295976D02*
X6037378Y-17295976D01*
X6056426Y-17305500D01*
X6065950Y-17315024D01*
X6075474Y-17334071D01*
X6084998Y-17372167D01*
X6084998Y-17419786D01*
X6075474Y-17457881D01*
X6065950Y-17476929D01*
X6056426Y-17486452D01*
X6037378Y-17495976D01*
X6018331Y-17495976D01*
X5999283Y-17486452D01*
X5989759Y-17476929D01*
X5980236Y-17457881D01*
X5970712Y-17419786D01*
X5970712Y-17372167D01*
X5980236Y-17334071D01*
X5989759Y-17315024D01*
X5999283Y-17305500D01*
X6018331Y-17295976D01*
X6170712Y-17495976D02*
X6170712Y-17362643D01*
X6170712Y-17381690D02*
X6180236Y-17372167D01*
X6199283Y-17362643D01*
X6227855Y-17362643D01*
X6246902Y-17372167D01*
X6256426Y-17391214D01*
X6256426Y-17495976D01*
X6256426Y-17391214D02*
X6265950Y-17372167D01*
X6284998Y-17362643D01*
X6313569Y-17362643D01*
X6332617Y-17372167D01*
X6342140Y-17391214D01*
X6342140Y-17495976D01*
X6437378Y-17495976D02*
X6437378Y-17362643D01*
X6437378Y-17381690D02*
X6446902Y-17372167D01*
X6465950Y-17362643D01*
X6494521Y-17362643D01*
X6513569Y-17372167D01*
X6523093Y-17391214D01*
X6523093Y-17495976D01*
X6523093Y-17391214D02*
X6532617Y-17372167D01*
X6551664Y-17362643D01*
X6580236Y-17362643D01*
X6599283Y-17372167D01*
X6608807Y-17391214D01*
X6608807Y-17495976D01*
X6999283Y-17286452D02*
X6827855Y-17543595D01*
X7256426Y-17295976D02*
X7275474Y-17295976D01*
X7294521Y-17305500D01*
X7304045Y-17315024D01*
X7313569Y-17334071D01*
X7323093Y-17372167D01*
X7323093Y-17419786D01*
X7313569Y-17457881D01*
X7304045Y-17476929D01*
X7294521Y-17486452D01*
X7275474Y-17495976D01*
X7256426Y-17495976D01*
X7237378Y-17486452D01*
X7227855Y-17476929D01*
X7218331Y-17457881D01*
X7208807Y-17419786D01*
X7208807Y-17372167D01*
X7218331Y-17334071D01*
X7227855Y-17315024D01*
X7237378Y-17305500D01*
X7256426Y-17295976D01*
X7408807Y-17476929D02*
X7418331Y-17486452D01*
X7408807Y-17495976D01*
X7399283Y-17486452D01*
X7408807Y-17476929D01*
X7408807Y-17495976D01*
X7542140Y-17295976D02*
X7561188Y-17295976D01*
X7580236Y-17305500D01*
X7589759Y-17315024D01*
X7599283Y-17334071D01*
X7608807Y-17372167D01*
X7608807Y-17419786D01*
X7599283Y-17457881D01*
X7589759Y-17476929D01*
X7580236Y-17486452D01*
X7561188Y-17495976D01*
X7542140Y-17495976D01*
X7523093Y-17486452D01*
X7513569Y-17476929D01*
X7504045Y-17457881D01*
X7494521Y-17419786D01*
X7494521Y-17372167D01*
X7504045Y-17334071D01*
X7513569Y-17315024D01*
X7523093Y-17305500D01*
X7542140Y-17295976D01*
X7780236Y-17362643D02*
X7780236Y-17495976D01*
X7732617Y-17286452D02*
X7684998Y-17429310D01*
X7808807Y-17429310D01*
X7865950Y-17295976D02*
X7999283Y-17295976D01*
X7913569Y-17495976D01*
X8065950Y-17315024D02*
X8075474Y-17305500D01*
X8094521Y-17295976D01*
X8142140Y-17295976D01*
X8161188Y-17305500D01*
X8170712Y-17315024D01*
X8180236Y-17334071D01*
X8180236Y-17353119D01*
X8170712Y-17381690D01*
X8056426Y-17495976D01*
X8180236Y-17495976D01*
X8256426Y-17295976D02*
X8256426Y-17334071D01*
X8332617Y-17295976D02*
X8332617Y-17334071D01*
X8627855Y-17572167D02*
X8618331Y-17562643D01*
X8599283Y-17534071D01*
X8589760Y-17515024D01*
X8580236Y-17486452D01*
X8570712Y-17438833D01*
X8570712Y-17400738D01*
X8580236Y-17353119D01*
X8589760Y-17324548D01*
X8599283Y-17305500D01*
X8618331Y-17276929D01*
X8627855Y-17267405D01*
X8789760Y-17362643D02*
X8789760Y-17495976D01*
X8742140Y-17286452D02*
X8694521Y-17429310D01*
X8818331Y-17429310D01*
X9046902Y-17495976D02*
X9046902Y-17295976D01*
X9132617Y-17495976D02*
X9132617Y-17391214D01*
X9123093Y-17372167D01*
X9104045Y-17362643D01*
X9075474Y-17362643D01*
X9056426Y-17372167D01*
X9046902Y-17381690D01*
X9256426Y-17495976D02*
X9237379Y-17486452D01*
X9227855Y-17476929D01*
X9218331Y-17457881D01*
X9218331Y-17400738D01*
X9227855Y-17381690D01*
X9237379Y-17372167D01*
X9256426Y-17362643D01*
X9284998Y-17362643D01*
X9304045Y-17372167D01*
X9313569Y-17381690D01*
X9323093Y-17400738D01*
X9323093Y-17457881D01*
X9313569Y-17476929D01*
X9304045Y-17486452D01*
X9284998Y-17495976D01*
X9256426Y-17495976D01*
X9437379Y-17495976D02*
X9418331Y-17486452D01*
X9408807Y-17467405D01*
X9408807Y-17295976D01*
X9589760Y-17486452D02*
X9570712Y-17495976D01*
X9532617Y-17495976D01*
X9513569Y-17486452D01*
X9504045Y-17467405D01*
X9504045Y-17391214D01*
X9513569Y-17372167D01*
X9532617Y-17362643D01*
X9570712Y-17362643D01*
X9589760Y-17372167D01*
X9599283Y-17391214D01*
X9599283Y-17410262D01*
X9504045Y-17429310D01*
X9675474Y-17486452D02*
X9694521Y-17495976D01*
X9732617Y-17495976D01*
X9751664Y-17486452D01*
X9761188Y-17467405D01*
X9761188Y-17457881D01*
X9751664Y-17438833D01*
X9732617Y-17429310D01*
X9704045Y-17429310D01*
X9684998Y-17419786D01*
X9675474Y-17400738D01*
X9675474Y-17391214D01*
X9684998Y-17372167D01*
X9704045Y-17362643D01*
X9732617Y-17362643D01*
X9751664Y-17372167D01*
X9827855Y-17572167D02*
X9837379Y-17562643D01*
X9856426Y-17534071D01*
X9865950Y-17515024D01*
X9875474Y-17486452D01*
X9884998Y-17438833D01*
X9884998Y-17400738D01*
X9875474Y-17353119D01*
X9865950Y-17324548D01*
X9856426Y-17305500D01*
X9837379Y-17276929D01*
X9827855Y-17267405D01*
X4855950Y-17569500D02*
X5055950Y-17769500D01*
X5055950Y-17569500D02*
X4855950Y-17769500D01*
X5026661Y-17740211D02*
X5026661Y-17598789D01*
X4885239Y-17598789D01*
X4885239Y-17740211D01*
X5026661Y-17740211D01*
X5294521Y-17559976D02*
X5418331Y-17559976D01*
X5351664Y-17636167D01*
X5380236Y-17636167D01*
X5399283Y-17645690D01*
X5408807Y-17655214D01*
X5418331Y-17674262D01*
X5418331Y-17721881D01*
X5408807Y-17740929D01*
X5399283Y-17750452D01*
X5380236Y-17759976D01*
X5323093Y-17759976D01*
X5304045Y-17750452D01*
X5294521Y-17740929D01*
X5504045Y-17740929D02*
X5513569Y-17750452D01*
X5504045Y-17759976D01*
X5494521Y-17750452D01*
X5504045Y-17740929D01*
X5504045Y-17759976D01*
X5589760Y-17579024D02*
X5599283Y-17569500D01*
X5618331Y-17559976D01*
X5665950Y-17559976D01*
X5684998Y-17569500D01*
X5694521Y-17579024D01*
X5704045Y-17598071D01*
X5704045Y-17617119D01*
X5694521Y-17645690D01*
X5580236Y-17759976D01*
X5704045Y-17759976D01*
X5827855Y-17559976D02*
X5846902Y-17559976D01*
X5865950Y-17569500D01*
X5875474Y-17579024D01*
X5884998Y-17598071D01*
X5894521Y-17636167D01*
X5894521Y-17683786D01*
X5884998Y-17721881D01*
X5875474Y-17740929D01*
X5865950Y-17750452D01*
X5846902Y-17759976D01*
X5827855Y-17759976D01*
X5808807Y-17750452D01*
X5799283Y-17740929D01*
X5789759Y-17721881D01*
X5780236Y-17683786D01*
X5780236Y-17636167D01*
X5789759Y-17598071D01*
X5799283Y-17579024D01*
X5808807Y-17569500D01*
X5827855Y-17559976D01*
X6018331Y-17559976D02*
X6037378Y-17559976D01*
X6056426Y-17569500D01*
X6065950Y-17579024D01*
X6075474Y-17598071D01*
X6084998Y-17636167D01*
X6084998Y-17683786D01*
X6075474Y-17721881D01*
X6065950Y-17740929D01*
X6056426Y-17750452D01*
X6037378Y-17759976D01*
X6018331Y-17759976D01*
X5999283Y-17750452D01*
X5989759Y-17740929D01*
X5980236Y-17721881D01*
X5970712Y-17683786D01*
X5970712Y-17636167D01*
X5980236Y-17598071D01*
X5989759Y-17579024D01*
X5999283Y-17569500D01*
X6018331Y-17559976D01*
X6170712Y-17759976D02*
X6170712Y-17626643D01*
X6170712Y-17645690D02*
X6180236Y-17636167D01*
X6199283Y-17626643D01*
X6227855Y-17626643D01*
X6246902Y-17636167D01*
X6256426Y-17655214D01*
X6256426Y-17759976D01*
X6256426Y-17655214D02*
X6265950Y-17636167D01*
X6284998Y-17626643D01*
X6313569Y-17626643D01*
X6332617Y-17636167D01*
X6342140Y-17655214D01*
X6342140Y-17759976D01*
X6437378Y-17759976D02*
X6437378Y-17626643D01*
X6437378Y-17645690D02*
X6446902Y-17636167D01*
X6465950Y-17626643D01*
X6494521Y-17626643D01*
X6513569Y-17636167D01*
X6523093Y-17655214D01*
X6523093Y-17759976D01*
X6523093Y-17655214D02*
X6532617Y-17636167D01*
X6551664Y-17626643D01*
X6580236Y-17626643D01*
X6599283Y-17636167D01*
X6608807Y-17655214D01*
X6608807Y-17759976D01*
X6999283Y-17550452D02*
X6827855Y-17807595D01*
X7256426Y-17559976D02*
X7275474Y-17559976D01*
X7294521Y-17569500D01*
X7304045Y-17579024D01*
X7313569Y-17598071D01*
X7323093Y-17636167D01*
X7323093Y-17683786D01*
X7313569Y-17721881D01*
X7304045Y-17740929D01*
X7294521Y-17750452D01*
X7275474Y-17759976D01*
X7256426Y-17759976D01*
X7237378Y-17750452D01*
X7227855Y-17740929D01*
X7218331Y-17721881D01*
X7208807Y-17683786D01*
X7208807Y-17636167D01*
X7218331Y-17598071D01*
X7227855Y-17579024D01*
X7237378Y-17569500D01*
X7256426Y-17559976D01*
X7408807Y-17740929D02*
X7418331Y-17750452D01*
X7408807Y-17759976D01*
X7399283Y-17750452D01*
X7408807Y-17740929D01*
X7408807Y-17759976D01*
X7608807Y-17759976D02*
X7494521Y-17759976D01*
X7551664Y-17759976D02*
X7551664Y-17559976D01*
X7532617Y-17588548D01*
X7513569Y-17607595D01*
X7494521Y-17617119D01*
X7684998Y-17579024D02*
X7694521Y-17569500D01*
X7713569Y-17559976D01*
X7761188Y-17559976D01*
X7780236Y-17569500D01*
X7789759Y-17579024D01*
X7799283Y-17598071D01*
X7799283Y-17617119D01*
X7789759Y-17645690D01*
X7675474Y-17759976D01*
X7799283Y-17759976D01*
X7970712Y-17559976D02*
X7932617Y-17559976D01*
X7913569Y-17569500D01*
X7904045Y-17579024D01*
X7884998Y-17607595D01*
X7875474Y-17645690D01*
X7875474Y-17721881D01*
X7884998Y-17740929D01*
X7894521Y-17750452D01*
X7913569Y-17759976D01*
X7951664Y-17759976D01*
X7970712Y-17750452D01*
X7980236Y-17740929D01*
X7989759Y-17721881D01*
X7989759Y-17674262D01*
X7980236Y-17655214D01*
X7970712Y-17645690D01*
X7951664Y-17636167D01*
X7913569Y-17636167D01*
X7894521Y-17645690D01*
X7884998Y-17655214D01*
X7875474Y-17674262D01*
X8113569Y-17559976D02*
X8132617Y-17559976D01*
X8151664Y-17569500D01*
X8161188Y-17579024D01*
X8170712Y-17598071D01*
X8180236Y-17636167D01*
X8180236Y-17683786D01*
X8170712Y-17721881D01*
X8161188Y-17740929D01*
X8151664Y-17750452D01*
X8132617Y-17759976D01*
X8113569Y-17759976D01*
X8094521Y-17750452D01*
X8084998Y-17740929D01*
X8075474Y-17721881D01*
X8065950Y-17683786D01*
X8065950Y-17636167D01*
X8075474Y-17598071D01*
X8084998Y-17579024D01*
X8094521Y-17569500D01*
X8113569Y-17559976D01*
X8256426Y-17559976D02*
X8256426Y-17598071D01*
X8332617Y-17559976D02*
X8332617Y-17598071D01*
X8627855Y-17836167D02*
X8618331Y-17826643D01*
X8599283Y-17798071D01*
X8589760Y-17779024D01*
X8580236Y-17750452D01*
X8570712Y-17702833D01*
X8570712Y-17664738D01*
X8580236Y-17617119D01*
X8589760Y-17588548D01*
X8599283Y-17569500D01*
X8618331Y-17540929D01*
X8627855Y-17531405D01*
X8789760Y-17626643D02*
X8789760Y-17759976D01*
X8742140Y-17550452D02*
X8694521Y-17693310D01*
X8818331Y-17693310D01*
X9046902Y-17759976D02*
X9046902Y-17559976D01*
X9132617Y-17759976D02*
X9132617Y-17655214D01*
X9123093Y-17636167D01*
X9104045Y-17626643D01*
X9075474Y-17626643D01*
X9056426Y-17636167D01*
X9046902Y-17645690D01*
X9256426Y-17759976D02*
X9237379Y-17750452D01*
X9227855Y-17740929D01*
X9218331Y-17721881D01*
X9218331Y-17664738D01*
X9227855Y-17645690D01*
X9237379Y-17636167D01*
X9256426Y-17626643D01*
X9284998Y-17626643D01*
X9304045Y-17636167D01*
X9313569Y-17645690D01*
X9323093Y-17664738D01*
X9323093Y-17721881D01*
X9313569Y-17740929D01*
X9304045Y-17750452D01*
X9284998Y-17759976D01*
X9256426Y-17759976D01*
X9437379Y-17759976D02*
X9418331Y-17750452D01*
X9408807Y-17731405D01*
X9408807Y-17559976D01*
X9589760Y-17750452D02*
X9570712Y-17759976D01*
X9532617Y-17759976D01*
X9513569Y-17750452D01*
X9504045Y-17731405D01*
X9504045Y-17655214D01*
X9513569Y-17636167D01*
X9532617Y-17626643D01*
X9570712Y-17626643D01*
X9589760Y-17636167D01*
X9599283Y-17655214D01*
X9599283Y-17674262D01*
X9504045Y-17693310D01*
X9675474Y-17750452D02*
X9694521Y-17759976D01*
X9732617Y-17759976D01*
X9751664Y-17750452D01*
X9761188Y-17731405D01*
X9761188Y-17721881D01*
X9751664Y-17702833D01*
X9732617Y-17693310D01*
X9704045Y-17693310D01*
X9684998Y-17683786D01*
X9675474Y-17664738D01*
X9675474Y-17655214D01*
X9684998Y-17636167D01*
X9704045Y-17626643D01*
X9732617Y-17626643D01*
X9751664Y-17636167D01*
X9827855Y-17836167D02*
X9837379Y-17826643D01*
X9856426Y-17798071D01*
X9865950Y-17779024D01*
X9875474Y-17750452D01*
X9884998Y-17702833D01*
X9884998Y-17664738D01*
X9875474Y-17617119D01*
X9865950Y-17588548D01*
X9856426Y-17569500D01*
X9837379Y-17540929D01*
X9827855Y-17531405D01*
X4855950Y-17889500D02*
X5055950Y-18089500D01*
X5055950Y-17889500D02*
X4855950Y-18089500D01*
X4955950Y-18089500D02*
X5055950Y-17989500D01*
X4955950Y-17889500D01*
X4855950Y-17989500D01*
X4955950Y-18089500D01*
X5304045Y-17899024D02*
X5313569Y-17889500D01*
X5332617Y-17879976D01*
X5380236Y-17879976D01*
X5399283Y-17889500D01*
X5408807Y-17899024D01*
X5418331Y-17918071D01*
X5418331Y-17937119D01*
X5408807Y-17965690D01*
X5294521Y-18079976D01*
X5418331Y-18079976D01*
X5504045Y-18060929D02*
X5513569Y-18070452D01*
X5504045Y-18079976D01*
X5494521Y-18070452D01*
X5504045Y-18060929D01*
X5504045Y-18079976D01*
X5637378Y-17879976D02*
X5656426Y-17879976D01*
X5675474Y-17889500D01*
X5684998Y-17899024D01*
X5694521Y-17918071D01*
X5704045Y-17956167D01*
X5704045Y-18003786D01*
X5694521Y-18041881D01*
X5684998Y-18060929D01*
X5675474Y-18070452D01*
X5656426Y-18079976D01*
X5637378Y-18079976D01*
X5618331Y-18070452D01*
X5608807Y-18060929D01*
X5599283Y-18041881D01*
X5589760Y-18003786D01*
X5589760Y-17956167D01*
X5599283Y-17918071D01*
X5608807Y-17899024D01*
X5618331Y-17889500D01*
X5637378Y-17879976D01*
X5827855Y-17879976D02*
X5846902Y-17879976D01*
X5865950Y-17889500D01*
X5875474Y-17899024D01*
X5884998Y-17918071D01*
X5894521Y-17956167D01*
X5894521Y-18003786D01*
X5884998Y-18041881D01*
X5875474Y-18060929D01*
X5865950Y-18070452D01*
X5846902Y-18079976D01*
X5827855Y-18079976D01*
X5808807Y-18070452D01*
X5799283Y-18060929D01*
X5789759Y-18041881D01*
X5780236Y-18003786D01*
X5780236Y-17956167D01*
X5789759Y-17918071D01*
X5799283Y-17899024D01*
X5808807Y-17889500D01*
X5827855Y-17879976D01*
X6018331Y-17879976D02*
X6037378Y-17879976D01*
X6056426Y-17889500D01*
X6065950Y-17899024D01*
X6075474Y-17918071D01*
X6084998Y-17956167D01*
X6084998Y-18003786D01*
X6075474Y-18041881D01*
X6065950Y-18060929D01*
X6056426Y-18070452D01*
X6037378Y-18079976D01*
X6018331Y-18079976D01*
X5999283Y-18070452D01*
X5989759Y-18060929D01*
X5980236Y-18041881D01*
X5970712Y-18003786D01*
X5970712Y-17956167D01*
X5980236Y-17918071D01*
X5989759Y-17899024D01*
X5999283Y-17889500D01*
X6018331Y-17879976D01*
X6170712Y-18079976D02*
X6170712Y-17946643D01*
X6170712Y-17965690D02*
X6180236Y-17956167D01*
X6199283Y-17946643D01*
X6227855Y-17946643D01*
X6246902Y-17956167D01*
X6256426Y-17975214D01*
X6256426Y-18079976D01*
X6256426Y-17975214D02*
X6265950Y-17956167D01*
X6284998Y-17946643D01*
X6313569Y-17946643D01*
X6332617Y-17956167D01*
X6342140Y-17975214D01*
X6342140Y-18079976D01*
X6437378Y-18079976D02*
X6437378Y-17946643D01*
X6437378Y-17965690D02*
X6446902Y-17956167D01*
X6465950Y-17946643D01*
X6494521Y-17946643D01*
X6513569Y-17956167D01*
X6523093Y-17975214D01*
X6523093Y-18079976D01*
X6523093Y-17975214D02*
X6532617Y-17956167D01*
X6551664Y-17946643D01*
X6580236Y-17946643D01*
X6599283Y-17956167D01*
X6608807Y-17975214D01*
X6608807Y-18079976D01*
X6999283Y-17870452D02*
X6827855Y-18127595D01*
X7256426Y-17879976D02*
X7275474Y-17879976D01*
X7294521Y-17889500D01*
X7304045Y-17899024D01*
X7313569Y-17918071D01*
X7323093Y-17956167D01*
X7323093Y-18003786D01*
X7313569Y-18041881D01*
X7304045Y-18060929D01*
X7294521Y-18070452D01*
X7275474Y-18079976D01*
X7256426Y-18079976D01*
X7237378Y-18070452D01*
X7227855Y-18060929D01*
X7218331Y-18041881D01*
X7208807Y-18003786D01*
X7208807Y-17956167D01*
X7218331Y-17918071D01*
X7227855Y-17899024D01*
X7237378Y-17889500D01*
X7256426Y-17879976D01*
X7408807Y-18060929D02*
X7418331Y-18070452D01*
X7408807Y-18079976D01*
X7399283Y-18070452D01*
X7408807Y-18060929D01*
X7408807Y-18079976D01*
X7542140Y-17879976D02*
X7561188Y-17879976D01*
X7580236Y-17889500D01*
X7589759Y-17899024D01*
X7599283Y-17918071D01*
X7608807Y-17956167D01*
X7608807Y-18003786D01*
X7599283Y-18041881D01*
X7589759Y-18060929D01*
X7580236Y-18070452D01*
X7561188Y-18079976D01*
X7542140Y-18079976D01*
X7523093Y-18070452D01*
X7513569Y-18060929D01*
X7504045Y-18041881D01*
X7494521Y-18003786D01*
X7494521Y-17956167D01*
X7504045Y-17918071D01*
X7513569Y-17899024D01*
X7523093Y-17889500D01*
X7542140Y-17879976D01*
X7675474Y-17879976D02*
X7808807Y-17879976D01*
X7723093Y-18079976D01*
X7913569Y-17965690D02*
X7894521Y-17956167D01*
X7884998Y-17946643D01*
X7875474Y-17927595D01*
X7875474Y-17918071D01*
X7884998Y-17899024D01*
X7894521Y-17889500D01*
X7913569Y-17879976D01*
X7951664Y-17879976D01*
X7970712Y-17889500D01*
X7980236Y-17899024D01*
X7989759Y-17918071D01*
X7989759Y-17927595D01*
X7980236Y-17946643D01*
X7970712Y-17956167D01*
X7951664Y-17965690D01*
X7913569Y-17965690D01*
X7894521Y-17975214D01*
X7884998Y-17984738D01*
X7875474Y-18003786D01*
X7875474Y-18041881D01*
X7884998Y-18060929D01*
X7894521Y-18070452D01*
X7913569Y-18079976D01*
X7951664Y-18079976D01*
X7970712Y-18070452D01*
X7980236Y-18060929D01*
X7989759Y-18041881D01*
X7989759Y-18003786D01*
X7980236Y-17984738D01*
X7970712Y-17975214D01*
X7951664Y-17965690D01*
X8056426Y-17879976D02*
X8189759Y-17879976D01*
X8104045Y-18079976D01*
X8256426Y-17879976D02*
X8256426Y-17918071D01*
X8332617Y-17879976D02*
X8332617Y-17918071D01*
X8627855Y-18156167D02*
X8618331Y-18146643D01*
X8599283Y-18118071D01*
X8589760Y-18099024D01*
X8580236Y-18070452D01*
X8570712Y-18022833D01*
X8570712Y-17984738D01*
X8580236Y-17937119D01*
X8589760Y-17908548D01*
X8599283Y-17889500D01*
X8618331Y-17860929D01*
X8627855Y-17851405D01*
X8694521Y-17899024D02*
X8704045Y-17889500D01*
X8723093Y-17879976D01*
X8770712Y-17879976D01*
X8789760Y-17889500D01*
X8799283Y-17899024D01*
X8808807Y-17918071D01*
X8808807Y-17937119D01*
X8799283Y-17965690D01*
X8684998Y-18079976D01*
X8808807Y-18079976D01*
X9046902Y-18079976D02*
X9046902Y-17879976D01*
X9132617Y-18079976D02*
X9132617Y-17975214D01*
X9123093Y-17956167D01*
X9104045Y-17946643D01*
X9075474Y-17946643D01*
X9056426Y-17956167D01*
X9046902Y-17965690D01*
X9256426Y-18079976D02*
X9237379Y-18070452D01*
X9227855Y-18060929D01*
X9218331Y-18041881D01*
X9218331Y-17984738D01*
X9227855Y-17965690D01*
X9237379Y-17956167D01*
X9256426Y-17946643D01*
X9284998Y-17946643D01*
X9304045Y-17956167D01*
X9313569Y-17965690D01*
X9323093Y-17984738D01*
X9323093Y-18041881D01*
X9313569Y-18060929D01*
X9304045Y-18070452D01*
X9284998Y-18079976D01*
X9256426Y-18079976D01*
X9437379Y-18079976D02*
X9418331Y-18070452D01*
X9408807Y-18051405D01*
X9408807Y-17879976D01*
X9589760Y-18070452D02*
X9570712Y-18079976D01*
X9532617Y-18079976D01*
X9513569Y-18070452D01*
X9504045Y-18051405D01*
X9504045Y-17975214D01*
X9513569Y-17956167D01*
X9532617Y-17946643D01*
X9570712Y-17946643D01*
X9589760Y-17956167D01*
X9599283Y-17975214D01*
X9599283Y-17994262D01*
X9504045Y-18013310D01*
X9675474Y-18070452D02*
X9694521Y-18079976D01*
X9732617Y-18079976D01*
X9751664Y-18070452D01*
X9761188Y-18051405D01*
X9761188Y-18041881D01*
X9751664Y-18022833D01*
X9732617Y-18013310D01*
X9704045Y-18013310D01*
X9684998Y-18003786D01*
X9675474Y-17984738D01*
X9675474Y-17975214D01*
X9684998Y-17956167D01*
X9704045Y-17946643D01*
X9732617Y-17946643D01*
X9751664Y-17956167D01*
X9827855Y-18156167D02*
X9837379Y-18146643D01*
X9856426Y-18118071D01*
X9865950Y-18099024D01*
X9875474Y-18070452D01*
X9884998Y-18022833D01*
X9884998Y-17984738D01*
X9875474Y-17937119D01*
X9865950Y-17908548D01*
X9856426Y-17889500D01*
X9837379Y-17860929D01*
X9827855Y-17851405D01*
X10189760Y-18156167D02*
X10180236Y-18146643D01*
X10161188Y-18118071D01*
X10151664Y-18099024D01*
X10142140Y-18070452D01*
X10132617Y-18022833D01*
X10132617Y-17984738D01*
X10142140Y-17937119D01*
X10151664Y-17908548D01*
X10161188Y-17889500D01*
X10180236Y-17860929D01*
X10189760Y-17851405D01*
X10265950Y-17946643D02*
X10265950Y-18079976D01*
X10265950Y-17965690D02*
X10275474Y-17956167D01*
X10294521Y-17946643D01*
X10323093Y-17946643D01*
X10342140Y-17956167D01*
X10351664Y-17975214D01*
X10351664Y-18079976D01*
X10475474Y-18079976D02*
X10456426Y-18070452D01*
X10446902Y-18060929D01*
X10437379Y-18041881D01*
X10437379Y-17984738D01*
X10446902Y-17965690D01*
X10456426Y-17956167D01*
X10475474Y-17946643D01*
X10504045Y-17946643D01*
X10523093Y-17956167D01*
X10532617Y-17965690D01*
X10542140Y-17984738D01*
X10542140Y-18041881D01*
X10532617Y-18060929D01*
X10523093Y-18070452D01*
X10504045Y-18079976D01*
X10475474Y-18079976D01*
X10599283Y-17946643D02*
X10675474Y-17946643D01*
X10627855Y-17879976D02*
X10627855Y-18051405D01*
X10637379Y-18070452D01*
X10656426Y-18079976D01*
X10675474Y-18079976D01*
X10894521Y-17946643D02*
X10894521Y-18146643D01*
X10894521Y-17956167D02*
X10913569Y-17946643D01*
X10951664Y-17946643D01*
X10970712Y-17956167D01*
X10980236Y-17965690D01*
X10989760Y-17984738D01*
X10989760Y-18041881D01*
X10980236Y-18060929D01*
X10970712Y-18070452D01*
X10951664Y-18079976D01*
X10913569Y-18079976D01*
X10894521Y-18070452D01*
X11104045Y-18079976D02*
X11084998Y-18070452D01*
X11075474Y-18051405D01*
X11075474Y-17879976D01*
X11265950Y-18079976D02*
X11265950Y-17975214D01*
X11256426Y-17956167D01*
X11237378Y-17946643D01*
X11199283Y-17946643D01*
X11180236Y-17956167D01*
X11265950Y-18070452D02*
X11246902Y-18079976D01*
X11199283Y-18079976D01*
X11180236Y-18070452D01*
X11170712Y-18051405D01*
X11170712Y-18032357D01*
X11180236Y-18013310D01*
X11199283Y-18003786D01*
X11246902Y-18003786D01*
X11265950Y-17994262D01*
X11332617Y-17946643D02*
X11408807Y-17946643D01*
X11361188Y-17879976D02*
X11361188Y-18051405D01*
X11370712Y-18070452D01*
X11389759Y-18079976D01*
X11408807Y-18079976D01*
X11551664Y-18070452D02*
X11532617Y-18079976D01*
X11494521Y-18079976D01*
X11475474Y-18070452D01*
X11465950Y-18051405D01*
X11465950Y-17975214D01*
X11475474Y-17956167D01*
X11494521Y-17946643D01*
X11532617Y-17946643D01*
X11551664Y-17956167D01*
X11561188Y-17975214D01*
X11561188Y-17994262D01*
X11465950Y-18013310D01*
X11732617Y-18079976D02*
X11732617Y-17879976D01*
X11732617Y-18070452D02*
X11713569Y-18079976D01*
X11675474Y-18079976D01*
X11656426Y-18070452D01*
X11646902Y-18060929D01*
X11637378Y-18041881D01*
X11637378Y-17984738D01*
X11646902Y-17965690D01*
X11656426Y-17956167D01*
X11675474Y-17946643D01*
X11713569Y-17946643D01*
X11732617Y-17956167D01*
X11808807Y-18156167D02*
X11818331Y-18146643D01*
X11837378Y-18118071D01*
X11846902Y-18099024D01*
X11856426Y-18070452D01*
X11865950Y-18022833D01*
X11865950Y-17984738D01*
X11856426Y-17937119D01*
X11846902Y-17908548D01*
X11837378Y-17889500D01*
X11818331Y-17860929D01*
X11808807Y-17851405D01*
M02*
