M48
; DRILL file {KiCad (6.0.7)} date Sun Apr 23 16:52:26 2023
; FORMAT={-:-/ absolute / metric / decimal}
; #@! TF.CreationDate,2023-04-23T16:52:26-04:00
; #@! TF.GenerationSoftware,Kicad,Pcbnew,(6.0.7)
; #@! TF.FileFunction,MixedPlating,1,2
FMAT,2
METRIC
; #@! TA.AperFunction,Plated,PTH,ViaDrill
T1C0.400
; #@! TA.AperFunction,Plated,PTH,ComponentDrill
T2C0.800
; #@! TA.AperFunction,Plated,PTH,ComponentDrill
T3C0.900
; #@! TA.AperFunction,Plated,PTH,ComponentDrill
T4C1.000
; #@! TA.AperFunction,Plated,PTH,ComponentDrill
T5C1.000
; #@! TA.AperFunction,Plated,PTH,ComponentDrill
T6C1.100
; #@! TA.AperFunction,Plated,PTH,ComponentDrill
T7C1.200
; #@! TA.AperFunction,Plated,PTH,ComponentDrill
T8C3.200
; #@! TA.AperFunction,NonPlated,NPTH,ComponentDrill
T9C2.000
%
G90
G05
T1
X94.424Y-113.538
X99.504Y-67.437
X100.838Y-78.613
X109.156Y-72.326
T2
X55.739Y-107.569
X55.993Y-98.933
X58.166Y-68.469
X58.166Y-70.969
X58.239Y-107.569
X58.493Y-98.933
X58.547Y-77.47
X58.547Y-79.97
X88.646Y-128.153
X88.646Y-130.693
X88.646Y-133.233
X91.123Y-117.358
X91.123Y-119.898
X91.123Y-122.438
X101.092Y-104.902
X103.632Y-104.902
X106.172Y-104.902
X109.093Y-91.186
X109.093Y-93.726
X109.093Y-96.266
X109.093Y-98.806
X116.713Y-91.186
X116.713Y-93.726
X116.713Y-96.266
X116.713Y-98.806
X132.524Y-120.66
X132.524Y-123.2
X132.524Y-125.74
X132.588Y-108.468
X132.588Y-111.008
X132.588Y-113.548
T3
X71.442Y-113.538
X71.506Y-120.078
X73.983Y-113.538
X74.046Y-120.078
X81.802Y-72.39
X81.802Y-74.93
X81.802Y-77.47
X81.802Y-80.01
X81.802Y-82.55
X81.802Y-85.09
X81.802Y-87.63
X81.802Y-90.17
X81.802Y-92.71
X81.802Y-95.25
X81.802Y-97.79
X81.802Y-100.33
X81.802Y-102.87
X81.802Y-105.41
X81.802Y-107.95
X97.042Y-72.39
X97.042Y-74.93
X97.042Y-77.47
X97.042Y-80.01
X97.042Y-82.55
X97.042Y-85.09
X97.042Y-87.63
X97.042Y-90.17
X97.042Y-92.71
X97.042Y-95.25
X97.042Y-97.79
X97.042Y-100.33
X97.042Y-102.87
X97.042Y-105.41
X97.042Y-107.95
X105.41Y-135.382
X105.41Y-143.002
X107.95Y-135.382
X107.95Y-143.002
X110.49Y-135.382
X110.49Y-143.002
X113.03Y-135.382
X113.03Y-143.002
X115.57Y-135.382
X115.57Y-143.002
X118.11Y-135.382
X118.11Y-143.002
X120.65Y-135.382
X120.65Y-143.002
X123.19Y-135.382
X123.19Y-143.002
T4
X56.754Y-86.995
X59.294Y-86.995
X61.834Y-86.995
X97.282Y-126.746
X97.858Y-116.459
X99.822Y-126.746
X100.398Y-116.459
X102.298Y-85.979
X103.901Y-121.539
X104.838Y-85.979
X106.441Y-121.539
X108.981Y-121.539
X114.808Y-118.491
X117.348Y-118.491
X119.888Y-118.491
X126.682Y-107.759
X126.682Y-110.299
X126.746Y-120.269
X126.746Y-122.809
T5
X127.689Y-93.059
X127.689Y-95.359
X127.689Y-97.659
T6
X56.007Y-91.44
X64.96Y-98.87
X64.96Y-101.409
X64.96Y-103.95
X66.167Y-91.44
T7
X115.062Y-105.981
X115.062Y-113.602
X119.825Y-105.981
X119.825Y-113.602
T8
X54.229Y-148.272
X54.292Y-63.246
X136.334Y-63.246
X136.334Y-148.272
T9
X97.18Y-139.192
X127.92Y-139.192
T4
X59.041Y-116.106G85X59.041Y-118.306
G05
X63.541Y-122.006G85X61.341Y-122.006
G05
X65.341Y-115.906G85X65.341Y-118.506
G05
T0
M30
