%TF.GenerationSoftware,KiCad,Pcbnew,(6.0.7)*%
%TF.CreationDate,2023-04-23T16:52:27-04:00*%
%TF.ProjectId,NPN Tracer V2b-jlcpcb,4e504e20-5472-4616-9365-72205632622d,rev?*%
%TF.SameCoordinates,Original*%
%TF.FileFunction,Soldermask,Bot*%
%TF.FilePolarity,Negative*%
%FSLAX46Y46*%
G04 Gerber Fmt 4.6, Leading zero omitted, Abs format (unit mm)*
G04 Created by KiCad (PCBNEW (6.0.7)) date 2023-04-23 16:52:27*
%MOMM*%
%LPD*%
G01*
G04 APERTURE LIST*
%ADD10C,1.800000*%
%ADD11R,1.800000X1.800000*%
%ADD12R,2.000000X4.600000*%
%ADD13O,2.000000X4.200000*%
%ADD14O,4.200000X2.000000*%
%ADD15R,2.200000X2.200000*%
%ADD16O,2.200000X2.200000*%
%ADD17R,1.700000X1.700000*%
%ADD18O,1.700000X1.700000*%
%ADD19C,1.440000*%
%ADD20C,2.000000*%
%ADD21O,1.408000X2.816000*%
%ADD22R,2.000000X1.905000*%
%ADD23O,2.000000X1.905000*%
%ADD24C,5.700000*%
%ADD25C,3.600000*%
%ADD26R,1.500000X1.500000*%
%ADD27C,1.500000*%
%ADD28R,1.600000X1.600000*%
%ADD29C,1.600000*%
%ADD30O,1.600000X1.600000*%
%ADD31C,2.400000*%
%ADD32O,2.400000X2.400000*%
G04 APERTURE END LIST*
D10*
%TO.C,TB1*%
X81802500Y-107950000D03*
X81802500Y-105410000D03*
X81802500Y-102870000D03*
X81802500Y-100330000D03*
X81802500Y-97790000D03*
X81802500Y-95250000D03*
X81802500Y-92710000D03*
X81802500Y-90170000D03*
X81802500Y-87630000D03*
X81802500Y-85090000D03*
X81802500Y-82550000D03*
X81802500Y-80010000D03*
X81802500Y-77470000D03*
X81802500Y-74930000D03*
X81802500Y-72390000D03*
X97042500Y-72390000D03*
X97042500Y-74930000D03*
X97042500Y-77470000D03*
X97042500Y-80010000D03*
X97042500Y-82550000D03*
X97042500Y-85090000D03*
X97042500Y-87630000D03*
X97042500Y-90170000D03*
X97042500Y-92710000D03*
X97042500Y-95250000D03*
X97042500Y-97790000D03*
X97042500Y-100330000D03*
X97042500Y-102870000D03*
X97042500Y-105410000D03*
D11*
X97042500Y-107950000D03*
%TD*%
D12*
%TO.C,J8*%
X65341500Y-117206000D03*
D13*
X59041500Y-117206000D03*
D14*
X62441500Y-122006000D03*
%TD*%
D11*
%TO.C,D2*%
X73982500Y-113538000D03*
D10*
X71442500Y-113538000D03*
%TD*%
D15*
%TO.C,D1*%
X66167000Y-91440000D03*
D16*
X56007000Y-91440000D03*
%TD*%
D17*
%TO.C,J6*%
X97282000Y-126746000D03*
D18*
X99822000Y-126746000D03*
%TD*%
D19*
%TO.C,ADC1*%
X132588000Y-113548000D03*
X132588000Y-111008000D03*
X132588000Y-108468000D03*
%TD*%
%TO.C,ADC4*%
X91122500Y-122438000D03*
X91122500Y-119898000D03*
X91122500Y-117358000D03*
%TD*%
%TO.C,ADC3*%
X88646000Y-133233000D03*
X88646000Y-130693000D03*
X88646000Y-128153000D03*
%TD*%
D17*
%TO.C,J2*%
X126746000Y-122809000D03*
D18*
X126746000Y-120269000D03*
%TD*%
D17*
%TO.C,J7*%
X61834000Y-86995000D03*
D18*
X59294000Y-86995000D03*
X56754000Y-86995000D03*
%TD*%
D20*
%TO.C,ZX1*%
X127920000Y-139192000D03*
X97180000Y-139192000D03*
D21*
X105410000Y-143002000D03*
X107950000Y-143002000D03*
X110490000Y-143002000D03*
X113030000Y-143002000D03*
X115570000Y-143002000D03*
X118110000Y-143002000D03*
X120650000Y-143002000D03*
X123190000Y-143002000D03*
X123190000Y-135382000D03*
X120650000Y-135382000D03*
X118110000Y-135382000D03*
X115570000Y-135382000D03*
X113030000Y-135382000D03*
X110490000Y-135382000D03*
X107950000Y-135382000D03*
X105410000Y-135382000D03*
%TD*%
D17*
%TO.C,J9*%
X102298500Y-85979000D03*
D18*
X104838500Y-85979000D03*
%TD*%
D11*
%TO.C,D6*%
X74046000Y-120078500D03*
D10*
X71506000Y-120078500D03*
%TD*%
D17*
%TO.C,J5*%
X100398500Y-116459000D03*
D18*
X97858500Y-116459000D03*
%TD*%
D19*
%TO.C,ADC2*%
X132524500Y-125740000D03*
X132524500Y-123200000D03*
X132524500Y-120660000D03*
%TD*%
D17*
%TO.C,J4*%
X103901000Y-121539000D03*
D18*
X106441000Y-121539000D03*
X108981000Y-121539000D03*
%TD*%
D22*
%TO.C,U3*%
X64960500Y-98869500D03*
D23*
X64960500Y-101409500D03*
X64960500Y-103949500D03*
%TD*%
D17*
%TO.C,J3*%
X126682500Y-110299500D03*
D18*
X126682500Y-107759500D03*
%TD*%
D17*
%TO.C,J1*%
X114808000Y-118491000D03*
D18*
X117348000Y-118491000D03*
X119888000Y-118491000D03*
%TD*%
D24*
%TO.C,H2*%
X136334500Y-148272500D03*
D25*
X136334500Y-148272500D03*
%TD*%
D26*
%TO.C,Q1*%
X101092000Y-104902000D03*
D27*
X103632000Y-104902000D03*
X106172000Y-104902000D03*
%TD*%
D25*
%TO.C,H2*%
X54229000Y-148272500D03*
D24*
X54229000Y-148272500D03*
%TD*%
D28*
%TO.C,C4*%
X58493151Y-98933000D03*
D29*
X55993151Y-98933000D03*
%TD*%
D25*
%TO.C,H2*%
X54292500Y-63246000D03*
D24*
X54292500Y-63246000D03*
%TD*%
%TO.C,H2*%
X136334500Y-63246000D03*
D25*
X136334500Y-63246000D03*
%TD*%
D28*
%TO.C,C8*%
X58166000Y-70969500D03*
D29*
X58166000Y-68469500D03*
%TD*%
D28*
%TO.C,U1*%
X109093000Y-91186000D03*
D30*
X109093000Y-93726000D03*
X109093000Y-96266000D03*
X109093000Y-98806000D03*
X116713000Y-98806000D03*
X116713000Y-96266000D03*
X116713000Y-93726000D03*
X116713000Y-91186000D03*
%TD*%
D28*
%TO.C,C7*%
X58547000Y-77470000D03*
D29*
X58547000Y-79970000D03*
%TD*%
D31*
%TO.C,R5*%
X115062000Y-105981500D03*
D32*
X115062000Y-113601500D03*
%TD*%
%TO.C,R6*%
X119824500Y-113601500D03*
D31*
X119824500Y-105981500D03*
%TD*%
D28*
%TO.C,C5*%
X58239151Y-107569000D03*
D29*
X55739151Y-107569000D03*
%TD*%
M02*
