M48
; DRILL file {KiCad (6.0.7)} date Fri Apr 14 13:01:03 2023
; FORMAT={-:-/ absolute / metric / decimal}
; #@! TF.CreationDate,2023-04-14T13:01:03-04:00
; #@! TF.GenerationSoftware,Kicad,Pcbnew,(6.0.7)
; #@! TF.FileFunction,MixedPlating,1,2
FMAT,2
METRIC
; #@! TA.AperFunction,Plated,PTH,ComponentDrill
T1C1.000
; #@! TA.AperFunction,Plated,PTH,ComponentDrill
T2C1.200
%
G90
G05
T1
X51.88Y-76.835
X51.88Y-79.335
X52.578Y-97.917
X52.886Y-89.281
X55.118Y-97.917
X55.372Y-103.06
X55.372Y-113.221
X55.386Y-89.281
X57.658Y-97.917
X57.975Y-76.01
X58.806Y-111.887
X60.193Y-119.499
X61.346Y-111.887
X62.733Y-119.499
X65.273Y-119.499
X68.135Y-76.01
X68.634Y-99.949
X70.421Y-110.172
X70.421Y-112.672
X71.134Y-99.949
X72.644Y-75.755
X72.644Y-85.915
X79.947Y-80.454
X79.947Y-82.995
X79.947Y-85.534
X79.947Y-88.075
X79.947Y-90.614
X79.947Y-93.154
X79.947Y-95.694
X79.947Y-98.234
X79.947Y-100.774
X79.947Y-103.314
X79.947Y-105.855
X79.947Y-108.394
X79.947Y-110.934
X79.947Y-113.474
X79.947Y-116.014
X95.186Y-80.454
X95.186Y-82.995
X95.186Y-85.534
X95.186Y-88.075
X95.186Y-90.614
X95.186Y-93.154
X95.186Y-95.694
X95.186Y-98.234
X95.186Y-100.774
X95.186Y-103.314
X95.186Y-105.855
X95.186Y-108.394
X95.186Y-110.934
X95.186Y-113.474
X95.186Y-116.014
X101.336Y-80.846
X101.336Y-88.465
X103.876Y-80.846
X103.876Y-88.465
X105.029Y-94.615
X106.416Y-80.846
X106.416Y-88.465
X107.569Y-94.615
X108.956Y-80.846
X108.956Y-88.465
X109.596Y-115.062
X110.045Y-106.031
X111.683Y-92.265
X112.136Y-115.062
X112.585Y-106.031
X115.125Y-106.031
X116.763Y-92.265
X119.062Y-100.266
X120.914Y-86.868
X120.914Y-94.488
X123.454Y-86.868
X123.454Y-94.488
X124.142Y-100.266
X124.41Y-105.981
X125.994Y-86.868
X125.994Y-94.488
X128.534Y-86.868
X128.534Y-94.488
X129.49Y-105.981
T2
X117.015Y-115.189
X124.635Y-115.189
T0
M30
