%TF.GenerationSoftware,KiCad,Pcbnew,(6.0.7)*%
%TF.CreationDate,2023-04-14T13:01:04-04:00*%
%TF.ProjectId,NPN Tracer V2a,4e504e20-5472-4616-9365-72205632612e,rev?*%
%TF.SameCoordinates,Original*%
%TF.FileFunction,Soldermask,Top*%
%TF.FilePolarity,Negative*%
%FSLAX46Y46*%
G04 Gerber Fmt 4.6, Leading zero omitted, Abs format (unit mm)*
G04 Created by KiCad (PCBNEW (6.0.7)) date 2023-04-14 13:01:04*
%MOMM*%
%LPD*%
G01*
G04 APERTURE LIST*
G04 Aperture macros list*
%AMRoundRect*
0 Rectangle with rounded corners*
0 $1 Rounding radius*
0 $2 $3 $4 $5 $6 $7 $8 $9 X,Y pos of 4 corners*
0 Add a 4 corners polygon primitive as box body*
4,1,4,$2,$3,$4,$5,$6,$7,$8,$9,$2,$3,0*
0 Add four circle primitives for the rounded corners*
1,1,$1+$1,$2,$3*
1,1,$1+$1,$4,$5*
1,1,$1+$1,$6,$7*
1,1,$1+$1,$8,$9*
0 Add four rect primitives between the rounded corners*
20,1,$1+$1,$2,$3,$4,$5,0*
20,1,$1+$1,$4,$5,$6,$7,0*
20,1,$1+$1,$6,$7,$8,$9,0*
20,1,$1+$1,$8,$9,$2,$3,0*%
G04 Aperture macros list end*
%ADD10O,1.700000X4.000000*%
%ADD11O,1.900000X4.000000*%
%ADD12RoundRect,0.250000X-0.400000X-0.625000X0.400000X-0.625000X0.400000X0.625000X-0.400000X0.625000X0*%
%ADD13RoundRect,0.250000X0.650000X-0.412500X0.650000X0.412500X-0.650000X0.412500X-0.650000X-0.412500X0*%
%ADD14O,4.000000X1.700000*%
%ADD15RoundRect,0.250000X-0.625000X0.400000X-0.625000X-0.400000X0.625000X-0.400000X0.625000X0.400000X0*%
%ADD16O,4.000000X1.900000*%
%ADD17RoundRect,0.250000X-0.650000X0.412500X-0.650000X-0.412500X0.650000X-0.412500X0.650000X0.412500X0*%
%ADD18RoundRect,0.150000X-0.825000X-0.150000X0.825000X-0.150000X0.825000X0.150000X-0.825000X0.150000X0*%
%ADD19O,2.400000X4.000000*%
%ADD20RoundRect,0.250000X-0.412500X-0.650000X0.412500X-0.650000X0.412500X0.650000X-0.412500X0.650000X0*%
G04 APERTURE END LIST*
D10*
%TO.C,D3*%
X72644000Y-75755500D03*
X72644000Y-85915500D03*
%TD*%
%TO.C,D2*%
X55372000Y-113220500D03*
X55372000Y-103060500D03*
%TD*%
D11*
%TO.C,Q1*%
X115125500Y-106031000D03*
X112585500Y-106031000D03*
X110045500Y-106031000D03*
%TD*%
D10*
%TO.C,R3*%
X111683000Y-92265500D03*
X116763000Y-92265500D03*
%TD*%
D11*
%TO.C,D1*%
X61346000Y-111887000D03*
X58806000Y-111887000D03*
%TD*%
D10*
%TO.C,U2*%
X120914000Y-94488000D03*
X123454000Y-94488000D03*
X125994000Y-94488000D03*
X128534000Y-94488000D03*
X128534000Y-86868000D03*
X125994000Y-86868000D03*
X123454000Y-86868000D03*
X120914000Y-86868000D03*
%TD*%
D12*
%TO.C,R1*%
X114998500Y-77216000D03*
X118098500Y-77216000D03*
%TD*%
D13*
%TO.C,C4*%
X76390500Y-112116000D03*
X76390500Y-108991000D03*
%TD*%
D14*
%TO.C,D4*%
X57975500Y-76009500D03*
X68135500Y-76009500D03*
%TD*%
D15*
%TO.C,R2*%
X64325500Y-110337000D03*
X64325500Y-113437000D03*
%TD*%
D10*
%TO.C,J2*%
X107569000Y-94615000D03*
X105029000Y-94615000D03*
%TD*%
D11*
%TO.C,C8*%
X52885849Y-89281000D03*
X55385849Y-89281000D03*
%TD*%
%TO.C,C2*%
X68633849Y-99949000D03*
X71133849Y-99949000D03*
%TD*%
%TO.C,U1*%
X60193000Y-119499500D03*
X62733000Y-119499500D03*
X65273000Y-119499500D03*
%TD*%
D13*
%TO.C,C7*%
X68326000Y-90170000D03*
X68326000Y-87045000D03*
%TD*%
D16*
%TO.C,C3*%
X70421500Y-112672500D03*
X70421500Y-110172500D03*
%TD*%
D17*
%TO.C,C6*%
X109093000Y-74281500D03*
X109093000Y-77406500D03*
%TD*%
D18*
%TO.C,U4*%
X60263000Y-86868000D03*
X60263000Y-88138000D03*
X60263000Y-89408000D03*
X60263000Y-90678000D03*
X65213000Y-90678000D03*
X65213000Y-89408000D03*
X65213000Y-88138000D03*
X65213000Y-86868000D03*
%TD*%
D16*
%TO.C,C9*%
X51879500Y-76835000D03*
X51879500Y-79335000D03*
%TD*%
D10*
%TO.C,U3*%
X108956000Y-80845500D03*
X106416000Y-80845500D03*
X103876000Y-80845500D03*
X101336000Y-80845500D03*
X101336000Y-88465500D03*
X103876000Y-88465500D03*
X106416000Y-88465500D03*
X108956000Y-88465500D03*
%TD*%
%TO.C,R5*%
X124142500Y-100266500D03*
X119062500Y-100266500D03*
%TD*%
%TO.C,J3*%
X57658000Y-97917000D03*
X55118000Y-97917000D03*
X52578000Y-97917000D03*
%TD*%
D19*
%TO.C,R6*%
X117015500Y-115189000D03*
X124635500Y-115189000D03*
%TD*%
D10*
%TO.C,R4*%
X129490000Y-105981500D03*
X124410000Y-105981500D03*
%TD*%
D14*
%TO.C,TB1*%
X95186500Y-116014500D03*
X95186500Y-113474500D03*
X95186500Y-110934500D03*
X95186500Y-108394500D03*
X95186500Y-105854500D03*
X95186500Y-103314500D03*
X95186500Y-100774500D03*
X95186500Y-98234500D03*
X95186500Y-95694500D03*
X95186500Y-93154500D03*
X95186500Y-90614500D03*
X95186500Y-88074500D03*
X95186500Y-85534500D03*
X95186500Y-82994500D03*
X95186500Y-80454500D03*
X79946500Y-80454500D03*
X79946500Y-82994500D03*
X79946500Y-85534500D03*
X79946500Y-88074500D03*
X79946500Y-90614500D03*
X79946500Y-93154500D03*
X79946500Y-95694500D03*
X79946500Y-98234500D03*
X79946500Y-100774500D03*
X79946500Y-103314500D03*
X79946500Y-105854500D03*
X79946500Y-108394500D03*
X79946500Y-110934500D03*
X79946500Y-113474500D03*
X79946500Y-116014500D03*
%TD*%
D10*
%TO.C,J1*%
X109596000Y-115062000D03*
X112136000Y-115062000D03*
%TD*%
D20*
%TO.C,C1*%
X120763500Y-82042000D03*
X123888500Y-82042000D03*
%TD*%
D17*
%TO.C,C5*%
X112204500Y-74320000D03*
X112204500Y-77445000D03*
%TD*%
M02*
