%TF.GenerationSoftware,KiCad,Pcbnew,(6.0.7)*%
%TF.CreationDate,2023-04-14T13:01:04-04:00*%
%TF.ProjectId,NPN Tracer V2a,4e504e20-5472-4616-9365-72205632612e,rev?*%
%TF.SameCoordinates,Original*%
%TF.FileFunction,Legend,Top*%
%TF.FilePolarity,Positive*%
%FSLAX46Y46*%
G04 Gerber Fmt 4.6, Leading zero omitted, Abs format (unit mm)*
G04 Created by KiCad (PCBNEW (6.0.7)) date 2023-04-14 13:01:04*
%MOMM*%
%LPD*%
G01*
G04 APERTURE LIST*
%ADD10C,0.150000*%
%ADD11C,0.120000*%
%ADD12C,0.127000*%
%ADD13C,0.200000*%
G04 APERTURE END LIST*
D10*
%TO.C,D3*%
X75382380Y-85574095D02*
X74382380Y-85574095D01*
X74382380Y-85336000D01*
X74430000Y-85193142D01*
X74525238Y-85097904D01*
X74620476Y-85050285D01*
X74810952Y-85002666D01*
X74953809Y-85002666D01*
X75144285Y-85050285D01*
X75239523Y-85097904D01*
X75334761Y-85193142D01*
X75382380Y-85336000D01*
X75382380Y-85574095D01*
X74382380Y-84669333D02*
X74382380Y-84050285D01*
X74763333Y-84383619D01*
X74763333Y-84240761D01*
X74810952Y-84145523D01*
X74858571Y-84097904D01*
X74953809Y-84050285D01*
X75191904Y-84050285D01*
X75287142Y-84097904D01*
X75334761Y-84145523D01*
X75382380Y-84240761D01*
X75382380Y-84526476D01*
X75334761Y-84621714D01*
X75287142Y-84669333D01*
X75572880Y-79358857D02*
X75572880Y-79930285D01*
X75572880Y-79644571D02*
X74572880Y-79644571D01*
X74715738Y-79739809D01*
X74810976Y-79835047D01*
X74858595Y-79930285D01*
X75572880Y-78930285D02*
X74572880Y-78930285D01*
X75572880Y-78358857D01*
X74572880Y-78358857D01*
X74572880Y-77406476D02*
X74572880Y-77882666D01*
X75049071Y-77930285D01*
X75001452Y-77882666D01*
X74953833Y-77787428D01*
X74953833Y-77549333D01*
X75001452Y-77454095D01*
X75049071Y-77406476D01*
X75144309Y-77358857D01*
X75382404Y-77358857D01*
X75477642Y-77406476D01*
X75525261Y-77454095D01*
X75572880Y-77549333D01*
X75572880Y-77787428D01*
X75525261Y-77882666D01*
X75477642Y-77930285D01*
X75001452Y-76787428D02*
X74953833Y-76882666D01*
X74906214Y-76930285D01*
X74810976Y-76977904D01*
X74763357Y-76977904D01*
X74668119Y-76930285D01*
X74620500Y-76882666D01*
X74572880Y-76787428D01*
X74572880Y-76596952D01*
X74620500Y-76501714D01*
X74668119Y-76454095D01*
X74763357Y-76406476D01*
X74810976Y-76406476D01*
X74906214Y-76454095D01*
X74953833Y-76501714D01*
X75001452Y-76596952D01*
X75001452Y-76787428D01*
X75049071Y-76882666D01*
X75096690Y-76930285D01*
X75191928Y-76977904D01*
X75382404Y-76977904D01*
X75477642Y-76930285D01*
X75525261Y-76882666D01*
X75572880Y-76787428D01*
X75572880Y-76596952D01*
X75525261Y-76501714D01*
X75477642Y-76454095D01*
X75382404Y-76406476D01*
X75191928Y-76406476D01*
X75096690Y-76454095D01*
X75049071Y-76501714D01*
X75001452Y-76596952D01*
X75572880Y-75454095D02*
X75572880Y-76025523D01*
X75572880Y-75739809D02*
X74572880Y-75739809D01*
X74715738Y-75835047D01*
X74810976Y-75930285D01*
X74858595Y-76025523D01*
X74572880Y-75120761D02*
X74572880Y-74454095D01*
X75572880Y-74882666D01*
%TO.C,D2*%
X53347880Y-113895095D02*
X52347880Y-113895095D01*
X52347880Y-113657000D01*
X52395500Y-113514142D01*
X52490738Y-113418904D01*
X52585976Y-113371285D01*
X52776452Y-113323666D01*
X52919309Y-113323666D01*
X53109785Y-113371285D01*
X53205023Y-113418904D01*
X53300261Y-113514142D01*
X53347880Y-113657000D01*
X53347880Y-113895095D01*
X52443119Y-112942714D02*
X52395500Y-112895095D01*
X52347880Y-112799857D01*
X52347880Y-112561761D01*
X52395500Y-112466523D01*
X52443119Y-112418904D01*
X52538357Y-112371285D01*
X52633595Y-112371285D01*
X52776452Y-112418904D01*
X53347880Y-112990333D01*
X53347880Y-112371285D01*
X53347880Y-106536857D02*
X53347880Y-107108285D01*
X53347880Y-106822571D02*
X52347880Y-106822571D01*
X52490738Y-106917809D01*
X52585976Y-107013047D01*
X52633595Y-107108285D01*
X53347880Y-106108285D02*
X52347880Y-106108285D01*
X53347880Y-105536857D01*
X52347880Y-105536857D01*
X52347880Y-104584476D02*
X52347880Y-105060666D01*
X52824071Y-105108285D01*
X52776452Y-105060666D01*
X52728833Y-104965428D01*
X52728833Y-104727333D01*
X52776452Y-104632095D01*
X52824071Y-104584476D01*
X52919309Y-104536857D01*
X53157404Y-104536857D01*
X53252642Y-104584476D01*
X53300261Y-104632095D01*
X53347880Y-104727333D01*
X53347880Y-104965428D01*
X53300261Y-105060666D01*
X53252642Y-105108285D01*
X52776452Y-103965428D02*
X52728833Y-104060666D01*
X52681214Y-104108285D01*
X52585976Y-104155904D01*
X52538357Y-104155904D01*
X52443119Y-104108285D01*
X52395500Y-104060666D01*
X52347880Y-103965428D01*
X52347880Y-103774952D01*
X52395500Y-103679714D01*
X52443119Y-103632095D01*
X52538357Y-103584476D01*
X52585976Y-103584476D01*
X52681214Y-103632095D01*
X52728833Y-103679714D01*
X52776452Y-103774952D01*
X52776452Y-103965428D01*
X52824071Y-104060666D01*
X52871690Y-104108285D01*
X52966928Y-104155904D01*
X53157404Y-104155904D01*
X53252642Y-104108285D01*
X53300261Y-104060666D01*
X53347880Y-103965428D01*
X53347880Y-103774952D01*
X53300261Y-103679714D01*
X53252642Y-103632095D01*
X53157404Y-103584476D01*
X52966928Y-103584476D01*
X52871690Y-103632095D01*
X52824071Y-103679714D01*
X52776452Y-103774952D01*
X53347880Y-102632095D02*
X53347880Y-103203523D01*
X53347880Y-102917809D02*
X52347880Y-102917809D01*
X52490738Y-103013047D01*
X52585976Y-103108285D01*
X52633595Y-103203523D01*
X52347880Y-102298761D02*
X52347880Y-101632095D01*
X53347880Y-102060666D01*
%TO.C,Q1*%
X109315261Y-110848619D02*
X109220023Y-110801000D01*
X109124785Y-110705761D01*
X108981928Y-110562904D01*
X108886690Y-110515285D01*
X108791452Y-110515285D01*
X108839071Y-110753380D02*
X108743833Y-110705761D01*
X108648595Y-110610523D01*
X108600976Y-110420047D01*
X108600976Y-110086714D01*
X108648595Y-109896238D01*
X108743833Y-109801000D01*
X108839071Y-109753380D01*
X109029547Y-109753380D01*
X109124785Y-109801000D01*
X109220023Y-109896238D01*
X109267642Y-110086714D01*
X109267642Y-110420047D01*
X109220023Y-110610523D01*
X109124785Y-110705761D01*
X109029547Y-110753380D01*
X108839071Y-110753380D01*
X110220023Y-110753380D02*
X109648595Y-110753380D01*
X109934309Y-110753380D02*
X109934309Y-109753380D01*
X109839071Y-109896238D01*
X109743833Y-109991476D01*
X109648595Y-110039095D01*
X113308119Y-109928380D02*
X113879547Y-109928380D01*
X113593833Y-110928380D02*
X113593833Y-109928380D01*
X114212880Y-110928380D02*
X114212880Y-109928380D01*
X114689071Y-110928380D02*
X114689071Y-109928380D01*
X115070023Y-109928380D01*
X115165261Y-109976000D01*
X115212880Y-110023619D01*
X115260500Y-110118857D01*
X115260500Y-110261714D01*
X115212880Y-110356952D01*
X115165261Y-110404571D01*
X115070023Y-110452190D01*
X114689071Y-110452190D01*
X116212880Y-110928380D02*
X115641452Y-110928380D01*
X115927166Y-110928380D02*
X115927166Y-109928380D01*
X115831928Y-110071238D01*
X115736690Y-110166476D01*
X115641452Y-110214095D01*
X116593833Y-110023619D02*
X116641452Y-109976000D01*
X116736690Y-109928380D01*
X116974785Y-109928380D01*
X117070023Y-109976000D01*
X117117642Y-110023619D01*
X117165261Y-110118857D01*
X117165261Y-110214095D01*
X117117642Y-110356952D01*
X116546214Y-110928380D01*
X117165261Y-110928380D01*
X117784309Y-109928380D02*
X117879547Y-109928380D01*
X117974785Y-109976000D01*
X118022404Y-110023619D01*
X118070023Y-110118857D01*
X118117642Y-110309333D01*
X118117642Y-110547428D01*
X118070023Y-110737904D01*
X118022404Y-110833142D01*
X117974785Y-110880761D01*
X117879547Y-110928380D01*
X117784309Y-110928380D01*
X117689071Y-110880761D01*
X117641452Y-110833142D01*
X117593833Y-110737904D01*
X117546214Y-110547428D01*
X117546214Y-110309333D01*
X117593833Y-110118857D01*
X117641452Y-110023619D01*
X117689071Y-109976000D01*
X117784309Y-109928380D01*
%TO.C,R3*%
X114056333Y-90797880D02*
X113723000Y-90321690D01*
X113484904Y-90797880D02*
X113484904Y-89797880D01*
X113865857Y-89797880D01*
X113961095Y-89845500D01*
X114008714Y-89893119D01*
X114056333Y-89988357D01*
X114056333Y-90131214D01*
X114008714Y-90226452D01*
X113961095Y-90274071D01*
X113865857Y-90321690D01*
X113484904Y-90321690D01*
X114389666Y-89797880D02*
X115008714Y-89797880D01*
X114675380Y-90178833D01*
X114818238Y-90178833D01*
X114913476Y-90226452D01*
X114961095Y-90274071D01*
X115008714Y-90369309D01*
X115008714Y-90607404D01*
X114961095Y-90702642D01*
X114913476Y-90750261D01*
X114818238Y-90797880D01*
X114532523Y-90797880D01*
X114437285Y-90750261D01*
X114389666Y-90702642D01*
X113532523Y-94637880D02*
X112961095Y-94637880D01*
X113246809Y-94637880D02*
X113246809Y-93637880D01*
X113151571Y-93780738D01*
X113056333Y-93875976D01*
X112961095Y-93923595D01*
X114151571Y-93637880D02*
X114246809Y-93637880D01*
X114342047Y-93685500D01*
X114389666Y-93733119D01*
X114437285Y-93828357D01*
X114484904Y-94018833D01*
X114484904Y-94256928D01*
X114437285Y-94447404D01*
X114389666Y-94542642D01*
X114342047Y-94590261D01*
X114246809Y-94637880D01*
X114151571Y-94637880D01*
X114056333Y-94590261D01*
X114008714Y-94542642D01*
X113961095Y-94447404D01*
X113913476Y-94256928D01*
X113913476Y-94018833D01*
X113961095Y-93828357D01*
X114008714Y-93733119D01*
X114056333Y-93685500D01*
X114151571Y-93637880D01*
X114913476Y-94637880D02*
X114913476Y-93637880D01*
X115484904Y-94637880D02*
X115056333Y-94066452D01*
X115484904Y-93637880D02*
X114913476Y-94209309D01*
%TO.C,D1*%
X60713880Y-108751595D02*
X59713880Y-108751595D01*
X59713880Y-108513500D01*
X59761500Y-108370642D01*
X59856738Y-108275404D01*
X59951976Y-108227785D01*
X60142452Y-108180166D01*
X60285309Y-108180166D01*
X60475785Y-108227785D01*
X60571023Y-108275404D01*
X60666261Y-108370642D01*
X60713880Y-108513500D01*
X60713880Y-108751595D01*
X60713880Y-107227785D02*
X60713880Y-107799214D01*
X60713880Y-107513500D02*
X59713880Y-107513500D01*
X59856738Y-107608738D01*
X59951976Y-107703976D01*
X59999595Y-107799214D01*
X62174380Y-108902333D02*
X61174380Y-108902333D01*
X61174380Y-108521380D01*
X61222000Y-108426142D01*
X61269619Y-108378523D01*
X61364857Y-108330904D01*
X61507714Y-108330904D01*
X61602952Y-108378523D01*
X61650571Y-108426142D01*
X61698190Y-108521380D01*
X61698190Y-108902333D01*
X61174380Y-107997571D02*
X62174380Y-107759476D01*
X61460095Y-107569000D01*
X62174380Y-107378523D01*
X61174380Y-107140428D01*
X62174380Y-106188047D02*
X61698190Y-106521380D01*
X62174380Y-106759476D02*
X61174380Y-106759476D01*
X61174380Y-106378523D01*
X61222000Y-106283285D01*
X61269619Y-106235666D01*
X61364857Y-106188047D01*
X61507714Y-106188047D01*
X61602952Y-106235666D01*
X61650571Y-106283285D01*
X61698190Y-106378523D01*
X61698190Y-106759476D01*
%TO.C,U2*%
X130325880Y-94995904D02*
X131135404Y-94995904D01*
X131230642Y-94948285D01*
X131278261Y-94900666D01*
X131325880Y-94805428D01*
X131325880Y-94614952D01*
X131278261Y-94519714D01*
X131230642Y-94472095D01*
X131135404Y-94424476D01*
X130325880Y-94424476D01*
X130421119Y-93995904D02*
X130373500Y-93948285D01*
X130325880Y-93853047D01*
X130325880Y-93614952D01*
X130373500Y-93519714D01*
X130421119Y-93472095D01*
X130516357Y-93424476D01*
X130611595Y-93424476D01*
X130754452Y-93472095D01*
X131325880Y-94043523D01*
X131325880Y-93424476D01*
X131452880Y-89383976D02*
X131452880Y-89860166D01*
X130452880Y-89860166D01*
X131452880Y-89050642D02*
X130452880Y-89050642D01*
X131167166Y-88717309D01*
X130452880Y-88383976D01*
X131452880Y-88383976D01*
X130452880Y-88003023D02*
X130452880Y-87383976D01*
X130833833Y-87717309D01*
X130833833Y-87574452D01*
X130881452Y-87479214D01*
X130929071Y-87431595D01*
X131024309Y-87383976D01*
X131262404Y-87383976D01*
X131357642Y-87431595D01*
X131405261Y-87479214D01*
X131452880Y-87574452D01*
X131452880Y-87860166D01*
X131405261Y-87955404D01*
X131357642Y-88003023D01*
X130452880Y-86479214D02*
X130452880Y-86955404D01*
X130929071Y-87003023D01*
X130881452Y-86955404D01*
X130833833Y-86860166D01*
X130833833Y-86622071D01*
X130881452Y-86526833D01*
X130929071Y-86479214D01*
X131024309Y-86431595D01*
X131262404Y-86431595D01*
X131357642Y-86479214D01*
X131405261Y-86526833D01*
X131452880Y-86622071D01*
X131452880Y-86860166D01*
X131405261Y-86955404D01*
X131357642Y-87003023D01*
X130881452Y-85860166D02*
X130833833Y-85955404D01*
X130786214Y-86003023D01*
X130690976Y-86050642D01*
X130643357Y-86050642D01*
X130548119Y-86003023D01*
X130500500Y-85955404D01*
X130452880Y-85860166D01*
X130452880Y-85669690D01*
X130500500Y-85574452D01*
X130548119Y-85526833D01*
X130643357Y-85479214D01*
X130690976Y-85479214D01*
X130786214Y-85526833D01*
X130833833Y-85574452D01*
X130881452Y-85669690D01*
X130881452Y-85860166D01*
X130929071Y-85955404D01*
X130976690Y-86003023D01*
X131071928Y-86050642D01*
X131262404Y-86050642D01*
X131357642Y-86003023D01*
X131405261Y-85955404D01*
X131452880Y-85860166D01*
X131452880Y-85669690D01*
X131405261Y-85574452D01*
X131357642Y-85526833D01*
X131262404Y-85479214D01*
X131071928Y-85479214D01*
X130976690Y-85526833D01*
X130929071Y-85574452D01*
X130881452Y-85669690D01*
%TO.C,R1*%
X114603833Y-79636880D02*
X114270500Y-79160690D01*
X114032404Y-79636880D02*
X114032404Y-78636880D01*
X114413357Y-78636880D01*
X114508595Y-78684500D01*
X114556214Y-78732119D01*
X114603833Y-78827357D01*
X114603833Y-78970214D01*
X114556214Y-79065452D01*
X114508595Y-79113071D01*
X114413357Y-79160690D01*
X114032404Y-79160690D01*
X115556214Y-79636880D02*
X114984785Y-79636880D01*
X115270500Y-79636880D02*
X115270500Y-78636880D01*
X115175261Y-78779738D01*
X115080023Y-78874976D01*
X114984785Y-78922595D01*
X114429333Y-81033880D02*
X113857904Y-81033880D01*
X114143619Y-81033880D02*
X114143619Y-80033880D01*
X114048380Y-80176738D01*
X113953142Y-80271976D01*
X113857904Y-80319595D01*
X115048380Y-80033880D02*
X115143619Y-80033880D01*
X115238857Y-80081500D01*
X115286476Y-80129119D01*
X115334095Y-80224357D01*
X115381714Y-80414833D01*
X115381714Y-80652928D01*
X115334095Y-80843404D01*
X115286476Y-80938642D01*
X115238857Y-80986261D01*
X115143619Y-81033880D01*
X115048380Y-81033880D01*
X114953142Y-80986261D01*
X114905523Y-80938642D01*
X114857904Y-80843404D01*
X114810285Y-80652928D01*
X114810285Y-80414833D01*
X114857904Y-80224357D01*
X114905523Y-80129119D01*
X114953142Y-80081500D01*
X115048380Y-80033880D01*
X116000761Y-80033880D02*
X116096000Y-80033880D01*
X116191238Y-80081500D01*
X116238857Y-80129119D01*
X116286476Y-80224357D01*
X116334095Y-80414833D01*
X116334095Y-80652928D01*
X116286476Y-80843404D01*
X116238857Y-80938642D01*
X116191238Y-80986261D01*
X116096000Y-81033880D01*
X116000761Y-81033880D01*
X115905523Y-80986261D01*
X115857904Y-80938642D01*
X115810285Y-80843404D01*
X115762666Y-80652928D01*
X115762666Y-80414833D01*
X115810285Y-80224357D01*
X115857904Y-80129119D01*
X115905523Y-80081500D01*
X116000761Y-80033880D01*
X117334095Y-81033880D02*
X117000761Y-80557690D01*
X116762666Y-81033880D02*
X116762666Y-80033880D01*
X117143619Y-80033880D01*
X117238857Y-80081500D01*
X117286476Y-80129119D01*
X117334095Y-80224357D01*
X117334095Y-80367214D01*
X117286476Y-80462452D01*
X117238857Y-80510071D01*
X117143619Y-80557690D01*
X116762666Y-80557690D01*
%TO.C,C4*%
X77255642Y-114403166D02*
X77303261Y-114450785D01*
X77350880Y-114593642D01*
X77350880Y-114688880D01*
X77303261Y-114831738D01*
X77208023Y-114926976D01*
X77112785Y-114974595D01*
X76922309Y-115022214D01*
X76779452Y-115022214D01*
X76588976Y-114974595D01*
X76493738Y-114926976D01*
X76398500Y-114831738D01*
X76350880Y-114688880D01*
X76350880Y-114593642D01*
X76398500Y-114450785D01*
X76446119Y-114403166D01*
X76684214Y-113546023D02*
X77350880Y-113546023D01*
X76303261Y-113784119D02*
X77017547Y-114022214D01*
X77017547Y-113403166D01*
X75953880Y-116015547D02*
X75953880Y-116586976D01*
X75953880Y-116301261D02*
X74953880Y-116301261D01*
X75096738Y-116396500D01*
X75191976Y-116491738D01*
X75239595Y-116586976D01*
X74953880Y-115396500D02*
X74953880Y-115301261D01*
X75001500Y-115206023D01*
X75049119Y-115158404D01*
X75144357Y-115110785D01*
X75334833Y-115063166D01*
X75572928Y-115063166D01*
X75763404Y-115110785D01*
X75858642Y-115158404D01*
X75906261Y-115206023D01*
X75953880Y-115301261D01*
X75953880Y-115396500D01*
X75906261Y-115491738D01*
X75858642Y-115539357D01*
X75763404Y-115586976D01*
X75572928Y-115634595D01*
X75334833Y-115634595D01*
X75144357Y-115586976D01*
X75049119Y-115539357D01*
X75001500Y-115491738D01*
X74953880Y-115396500D01*
X74953880Y-114444119D02*
X74953880Y-114348880D01*
X75001500Y-114253642D01*
X75049119Y-114206023D01*
X75144357Y-114158404D01*
X75334833Y-114110785D01*
X75572928Y-114110785D01*
X75763404Y-114158404D01*
X75858642Y-114206023D01*
X75906261Y-114253642D01*
X75953880Y-114348880D01*
X75953880Y-114444119D01*
X75906261Y-114539357D01*
X75858642Y-114586976D01*
X75763404Y-114634595D01*
X75572928Y-114682214D01*
X75334833Y-114682214D01*
X75144357Y-114634595D01*
X75049119Y-114586976D01*
X75001500Y-114539357D01*
X74953880Y-114444119D01*
X75287214Y-113682214D02*
X75953880Y-113682214D01*
X75382452Y-113682214D02*
X75334833Y-113634595D01*
X75287214Y-113539357D01*
X75287214Y-113396500D01*
X75334833Y-113301261D01*
X75430071Y-113253642D01*
X75953880Y-113253642D01*
%TO.C,D4*%
X56919904Y-73667880D02*
X56919904Y-72667880D01*
X57158000Y-72667880D01*
X57300857Y-72715500D01*
X57396095Y-72810738D01*
X57443714Y-72905976D01*
X57491333Y-73096452D01*
X57491333Y-73239309D01*
X57443714Y-73429785D01*
X57396095Y-73525023D01*
X57300857Y-73620261D01*
X57158000Y-73667880D01*
X56919904Y-73667880D01*
X58348476Y-73001214D02*
X58348476Y-73667880D01*
X58110380Y-72620261D02*
X57872285Y-73334547D01*
X58491333Y-73334547D01*
X64659142Y-73985380D02*
X64087714Y-73985380D01*
X64373428Y-73985380D02*
X64373428Y-72985380D01*
X64278190Y-73128238D01*
X64182952Y-73223476D01*
X64087714Y-73271095D01*
X65087714Y-73985380D02*
X65087714Y-72985380D01*
X65659142Y-73985380D01*
X65659142Y-72985380D01*
X66611523Y-72985380D02*
X66135333Y-72985380D01*
X66087714Y-73461571D01*
X66135333Y-73413952D01*
X66230571Y-73366333D01*
X66468666Y-73366333D01*
X66563904Y-73413952D01*
X66611523Y-73461571D01*
X66659142Y-73556809D01*
X66659142Y-73794904D01*
X66611523Y-73890142D01*
X66563904Y-73937761D01*
X66468666Y-73985380D01*
X66230571Y-73985380D01*
X66135333Y-73937761D01*
X66087714Y-73890142D01*
X67230571Y-73413952D02*
X67135333Y-73366333D01*
X67087714Y-73318714D01*
X67040095Y-73223476D01*
X67040095Y-73175857D01*
X67087714Y-73080619D01*
X67135333Y-73033000D01*
X67230571Y-72985380D01*
X67421047Y-72985380D01*
X67516285Y-73033000D01*
X67563904Y-73080619D01*
X67611523Y-73175857D01*
X67611523Y-73223476D01*
X67563904Y-73318714D01*
X67516285Y-73366333D01*
X67421047Y-73413952D01*
X67230571Y-73413952D01*
X67135333Y-73461571D01*
X67087714Y-73509190D01*
X67040095Y-73604428D01*
X67040095Y-73794904D01*
X67087714Y-73890142D01*
X67135333Y-73937761D01*
X67230571Y-73985380D01*
X67421047Y-73985380D01*
X67516285Y-73937761D01*
X67563904Y-73890142D01*
X67611523Y-73794904D01*
X67611523Y-73604428D01*
X67563904Y-73509190D01*
X67516285Y-73461571D01*
X67421047Y-73413952D01*
X68563904Y-73985380D02*
X67992476Y-73985380D01*
X68278190Y-73985380D02*
X68278190Y-72985380D01*
X68182952Y-73128238D01*
X68087714Y-73223476D01*
X67992476Y-73271095D01*
X68897238Y-72985380D02*
X69563904Y-72985380D01*
X69135333Y-73985380D01*
%TO.C,R2*%
X65730380Y-108624666D02*
X65254190Y-108958000D01*
X65730380Y-109196095D02*
X64730380Y-109196095D01*
X64730380Y-108815142D01*
X64778000Y-108719904D01*
X64825619Y-108672285D01*
X64920857Y-108624666D01*
X65063714Y-108624666D01*
X65158952Y-108672285D01*
X65206571Y-108719904D01*
X65254190Y-108815142D01*
X65254190Y-109196095D01*
X64825619Y-108243714D02*
X64778000Y-108196095D01*
X64730380Y-108100857D01*
X64730380Y-107862761D01*
X64778000Y-107767523D01*
X64825619Y-107719904D01*
X64920857Y-107672285D01*
X65016095Y-107672285D01*
X65158952Y-107719904D01*
X65730380Y-108291333D01*
X65730380Y-107672285D01*
X63365119Y-109188095D02*
X63317500Y-109140476D01*
X63269880Y-109045238D01*
X63269880Y-108807142D01*
X63317500Y-108711904D01*
X63365119Y-108664285D01*
X63460357Y-108616666D01*
X63555595Y-108616666D01*
X63698452Y-108664285D01*
X64269880Y-109235714D01*
X64269880Y-108616666D01*
X63269880Y-107997619D02*
X63269880Y-107902380D01*
X63317500Y-107807142D01*
X63365119Y-107759523D01*
X63460357Y-107711904D01*
X63650833Y-107664285D01*
X63888928Y-107664285D01*
X64079404Y-107711904D01*
X64174642Y-107759523D01*
X64222261Y-107807142D01*
X64269880Y-107902380D01*
X64269880Y-107997619D01*
X64222261Y-108092857D01*
X64174642Y-108140476D01*
X64079404Y-108188095D01*
X63888928Y-108235714D01*
X63650833Y-108235714D01*
X63460357Y-108188095D01*
X63365119Y-108140476D01*
X63317500Y-108092857D01*
X63269880Y-107997619D01*
X63269880Y-107045238D02*
X63269880Y-106950000D01*
X63317500Y-106854761D01*
X63365119Y-106807142D01*
X63460357Y-106759523D01*
X63650833Y-106711904D01*
X63888928Y-106711904D01*
X64079404Y-106759523D01*
X64174642Y-106807142D01*
X64222261Y-106854761D01*
X64269880Y-106950000D01*
X64269880Y-107045238D01*
X64222261Y-107140476D01*
X64174642Y-107188095D01*
X64079404Y-107235714D01*
X63888928Y-107283333D01*
X63650833Y-107283333D01*
X63460357Y-107235714D01*
X63365119Y-107188095D01*
X63317500Y-107140476D01*
X63269880Y-107045238D01*
%TO.C,J2*%
X109351380Y-94948333D02*
X110065666Y-94948333D01*
X110208523Y-94995952D01*
X110303761Y-95091190D01*
X110351380Y-95234047D01*
X110351380Y-95329285D01*
X109446619Y-94519761D02*
X109399000Y-94472142D01*
X109351380Y-94376904D01*
X109351380Y-94138809D01*
X109399000Y-94043571D01*
X109446619Y-93995952D01*
X109541857Y-93948333D01*
X109637095Y-93948333D01*
X109779952Y-93995952D01*
X110351380Y-94567380D01*
X110351380Y-93948333D01*
X103151380Y-95805476D02*
X102151380Y-95805476D01*
X102151380Y-95567380D01*
X102199000Y-95424523D01*
X102294238Y-95329285D01*
X102389476Y-95281666D01*
X102579952Y-95234047D01*
X102722809Y-95234047D01*
X102913285Y-95281666D01*
X103008523Y-95329285D01*
X103103761Y-95424523D01*
X103151380Y-95567380D01*
X103151380Y-95805476D01*
X102865666Y-94853095D02*
X102865666Y-94376904D01*
X103151380Y-94948333D02*
X102151380Y-94615000D01*
X103151380Y-94281666D01*
X103056142Y-93376904D02*
X103103761Y-93424523D01*
X103151380Y-93567380D01*
X103151380Y-93662619D01*
X103103761Y-93805476D01*
X103008523Y-93900714D01*
X102913285Y-93948333D01*
X102722809Y-93995952D01*
X102579952Y-93995952D01*
X102389476Y-93948333D01*
X102294238Y-93900714D01*
X102199000Y-93805476D01*
X102151380Y-93662619D01*
X102151380Y-93567380D01*
X102199000Y-93424523D01*
X102246619Y-93376904D01*
%TO.C,C8*%
X49871333Y-93638642D02*
X49823714Y-93686261D01*
X49680857Y-93733880D01*
X49585619Y-93733880D01*
X49442761Y-93686261D01*
X49347523Y-93591023D01*
X49299904Y-93495785D01*
X49252285Y-93305309D01*
X49252285Y-93162452D01*
X49299904Y-92971976D01*
X49347523Y-92876738D01*
X49442761Y-92781500D01*
X49585619Y-92733880D01*
X49680857Y-92733880D01*
X49823714Y-92781500D01*
X49871333Y-92829119D01*
X50442761Y-93162452D02*
X50347523Y-93114833D01*
X50299904Y-93067214D01*
X50252285Y-92971976D01*
X50252285Y-92924357D01*
X50299904Y-92829119D01*
X50347523Y-92781500D01*
X50442761Y-92733880D01*
X50633238Y-92733880D01*
X50728476Y-92781500D01*
X50776095Y-92829119D01*
X50823714Y-92924357D01*
X50823714Y-92971976D01*
X50776095Y-93067214D01*
X50728476Y-93114833D01*
X50633238Y-93162452D01*
X50442761Y-93162452D01*
X50347523Y-93210071D01*
X50299904Y-93257690D01*
X50252285Y-93352928D01*
X50252285Y-93543404D01*
X50299904Y-93638642D01*
X50347523Y-93686261D01*
X50442761Y-93733880D01*
X50633238Y-93733880D01*
X50728476Y-93686261D01*
X50776095Y-93638642D01*
X50823714Y-93543404D01*
X50823714Y-93352928D01*
X50776095Y-93257690D01*
X50728476Y-93210071D01*
X50633238Y-93162452D01*
X51395404Y-94210214D02*
X51395404Y-94876880D01*
X51157309Y-93829261D02*
X50919214Y-94543547D01*
X51538261Y-94543547D01*
X51823976Y-93876880D02*
X52490642Y-93876880D01*
X52062071Y-94876880D01*
X53300166Y-94210214D02*
X53300166Y-94876880D01*
X52871595Y-94210214D02*
X52871595Y-94734023D01*
X52919214Y-94829261D01*
X53014452Y-94876880D01*
X53157309Y-94876880D01*
X53252547Y-94829261D01*
X53300166Y-94781642D01*
%TO.C,C2*%
X64285833Y-100306142D02*
X64238214Y-100353761D01*
X64095357Y-100401380D01*
X64000119Y-100401380D01*
X63857261Y-100353761D01*
X63762023Y-100258523D01*
X63714404Y-100163285D01*
X63666785Y-99972809D01*
X63666785Y-99829952D01*
X63714404Y-99639476D01*
X63762023Y-99544238D01*
X63857261Y-99449000D01*
X64000119Y-99401380D01*
X64095357Y-99401380D01*
X64238214Y-99449000D01*
X64285833Y-99496619D01*
X64666785Y-99496619D02*
X64714404Y-99449000D01*
X64809642Y-99401380D01*
X65047738Y-99401380D01*
X65142976Y-99449000D01*
X65190595Y-99496619D01*
X65238214Y-99591857D01*
X65238214Y-99687095D01*
X65190595Y-99829952D01*
X64619166Y-100401380D01*
X65238214Y-100401380D01*
X63174714Y-101528619D02*
X63222333Y-101481000D01*
X63317571Y-101433380D01*
X63555666Y-101433380D01*
X63650904Y-101481000D01*
X63698523Y-101528619D01*
X63746142Y-101623857D01*
X63746142Y-101719095D01*
X63698523Y-101861952D01*
X63127095Y-102433380D01*
X63746142Y-102433380D01*
X64127095Y-101528619D02*
X64174714Y-101481000D01*
X64269952Y-101433380D01*
X64508047Y-101433380D01*
X64603285Y-101481000D01*
X64650904Y-101528619D01*
X64698523Y-101623857D01*
X64698523Y-101719095D01*
X64650904Y-101861952D01*
X64079476Y-102433380D01*
X64698523Y-102433380D01*
X65555666Y-101766714D02*
X65555666Y-102433380D01*
X65127095Y-101766714D02*
X65127095Y-102290523D01*
X65174714Y-102385761D01*
X65269952Y-102433380D01*
X65412809Y-102433380D01*
X65508047Y-102385761D01*
X65555666Y-102338142D01*
%TO.C,U1*%
X54102095Y-118006880D02*
X54102095Y-118816404D01*
X54149714Y-118911642D01*
X54197333Y-118959261D01*
X54292571Y-119006880D01*
X54483047Y-119006880D01*
X54578285Y-118959261D01*
X54625904Y-118911642D01*
X54673523Y-118816404D01*
X54673523Y-118006880D01*
X55673523Y-119006880D02*
X55102095Y-119006880D01*
X55387809Y-119006880D02*
X55387809Y-118006880D01*
X55292571Y-118149738D01*
X55197333Y-118244976D01*
X55102095Y-118292595D01*
X52125833Y-121102380D02*
X51649642Y-121102380D01*
X51649642Y-120102380D01*
X52459166Y-121102380D02*
X52459166Y-120102380D01*
X52792500Y-120816666D01*
X53125833Y-120102380D01*
X53125833Y-121102380D01*
X53506785Y-120102380D02*
X54173452Y-120102380D01*
X53744880Y-121102380D01*
X54697261Y-120530952D02*
X54602023Y-120483333D01*
X54554404Y-120435714D01*
X54506785Y-120340476D01*
X54506785Y-120292857D01*
X54554404Y-120197619D01*
X54602023Y-120150000D01*
X54697261Y-120102380D01*
X54887738Y-120102380D01*
X54982976Y-120150000D01*
X55030595Y-120197619D01*
X55078214Y-120292857D01*
X55078214Y-120340476D01*
X55030595Y-120435714D01*
X54982976Y-120483333D01*
X54887738Y-120530952D01*
X54697261Y-120530952D01*
X54602023Y-120578571D01*
X54554404Y-120626190D01*
X54506785Y-120721428D01*
X54506785Y-120911904D01*
X54554404Y-121007142D01*
X54602023Y-121054761D01*
X54697261Y-121102380D01*
X54887738Y-121102380D01*
X54982976Y-121054761D01*
X55030595Y-121007142D01*
X55078214Y-120911904D01*
X55078214Y-120721428D01*
X55030595Y-120626190D01*
X54982976Y-120578571D01*
X54887738Y-120530952D01*
X55697261Y-120102380D02*
X55792500Y-120102380D01*
X55887738Y-120150000D01*
X55935357Y-120197619D01*
X55982976Y-120292857D01*
X56030595Y-120483333D01*
X56030595Y-120721428D01*
X55982976Y-120911904D01*
X55935357Y-121007142D01*
X55887738Y-121054761D01*
X55792500Y-121102380D01*
X55697261Y-121102380D01*
X55602023Y-121054761D01*
X55554404Y-121007142D01*
X55506785Y-120911904D01*
X55459166Y-120721428D01*
X55459166Y-120483333D01*
X55506785Y-120292857D01*
X55554404Y-120197619D01*
X55602023Y-120150000D01*
X55697261Y-120102380D01*
X56935357Y-120102380D02*
X56459166Y-120102380D01*
X56411547Y-120578571D01*
X56459166Y-120530952D01*
X56554404Y-120483333D01*
X56792500Y-120483333D01*
X56887738Y-120530952D01*
X56935357Y-120578571D01*
X56982976Y-120673809D01*
X56982976Y-120911904D01*
X56935357Y-121007142D01*
X56887738Y-121054761D01*
X56792500Y-121102380D01*
X56554404Y-121102380D01*
X56459166Y-121054761D01*
X56411547Y-121007142D01*
%TO.C,C7*%
X68111642Y-85129666D02*
X68159261Y-85177285D01*
X68206880Y-85320142D01*
X68206880Y-85415380D01*
X68159261Y-85558238D01*
X68064023Y-85653476D01*
X67968785Y-85701095D01*
X67778309Y-85748714D01*
X67635452Y-85748714D01*
X67444976Y-85701095D01*
X67349738Y-85653476D01*
X67254500Y-85558238D01*
X67206880Y-85415380D01*
X67206880Y-85320142D01*
X67254500Y-85177285D01*
X67302119Y-85129666D01*
X67206880Y-84796333D02*
X67206880Y-84129666D01*
X68206880Y-84558238D01*
X69603880Y-85383547D02*
X69603880Y-85954976D01*
X69603880Y-85669261D02*
X68603880Y-85669261D01*
X68746738Y-85764500D01*
X68841976Y-85859738D01*
X68889595Y-85954976D01*
X68603880Y-84764500D02*
X68603880Y-84669261D01*
X68651500Y-84574023D01*
X68699119Y-84526404D01*
X68794357Y-84478785D01*
X68984833Y-84431166D01*
X69222928Y-84431166D01*
X69413404Y-84478785D01*
X69508642Y-84526404D01*
X69556261Y-84574023D01*
X69603880Y-84669261D01*
X69603880Y-84764500D01*
X69556261Y-84859738D01*
X69508642Y-84907357D01*
X69413404Y-84954976D01*
X69222928Y-85002595D01*
X68984833Y-85002595D01*
X68794357Y-84954976D01*
X68699119Y-84907357D01*
X68651500Y-84859738D01*
X68603880Y-84764500D01*
X68603880Y-83812119D02*
X68603880Y-83716880D01*
X68651500Y-83621642D01*
X68699119Y-83574023D01*
X68794357Y-83526404D01*
X68984833Y-83478785D01*
X69222928Y-83478785D01*
X69413404Y-83526404D01*
X69508642Y-83574023D01*
X69556261Y-83621642D01*
X69603880Y-83716880D01*
X69603880Y-83812119D01*
X69556261Y-83907357D01*
X69508642Y-83954976D01*
X69413404Y-84002595D01*
X69222928Y-84050214D01*
X68984833Y-84050214D01*
X68794357Y-84002595D01*
X68699119Y-83954976D01*
X68651500Y-83907357D01*
X68603880Y-83812119D01*
X68937214Y-83050214D02*
X69603880Y-83050214D01*
X69032452Y-83050214D02*
X68984833Y-83002595D01*
X68937214Y-82907357D01*
X68937214Y-82764500D01*
X68984833Y-82669261D01*
X69080071Y-82621642D01*
X69603880Y-82621642D01*
%TO.C,C3*%
X73302833Y-116054142D02*
X73255214Y-116101761D01*
X73112357Y-116149380D01*
X73017119Y-116149380D01*
X72874261Y-116101761D01*
X72779023Y-116006523D01*
X72731404Y-115911285D01*
X72683785Y-115720809D01*
X72683785Y-115577952D01*
X72731404Y-115387476D01*
X72779023Y-115292238D01*
X72874261Y-115197000D01*
X73017119Y-115149380D01*
X73112357Y-115149380D01*
X73255214Y-115197000D01*
X73302833Y-115244619D01*
X73636166Y-115149380D02*
X74255214Y-115149380D01*
X73921880Y-115530333D01*
X74064738Y-115530333D01*
X74159976Y-115577952D01*
X74207595Y-115625571D01*
X74255214Y-115720809D01*
X74255214Y-115958904D01*
X74207595Y-116054142D01*
X74159976Y-116101761D01*
X74064738Y-116149380D01*
X73779023Y-116149380D01*
X73683785Y-116101761D01*
X73636166Y-116054142D01*
X70985214Y-116324119D02*
X71032833Y-116276500D01*
X71128071Y-116228880D01*
X71366166Y-116228880D01*
X71461404Y-116276500D01*
X71509023Y-116324119D01*
X71556642Y-116419357D01*
X71556642Y-116514595D01*
X71509023Y-116657452D01*
X70937595Y-117228880D01*
X71556642Y-117228880D01*
X71937595Y-116324119D02*
X71985214Y-116276500D01*
X72080452Y-116228880D01*
X72318547Y-116228880D01*
X72413785Y-116276500D01*
X72461404Y-116324119D01*
X72509023Y-116419357D01*
X72509023Y-116514595D01*
X72461404Y-116657452D01*
X71889976Y-117228880D01*
X72509023Y-117228880D01*
X73366166Y-116562214D02*
X73366166Y-117228880D01*
X72937595Y-116562214D02*
X72937595Y-117086023D01*
X72985214Y-117181261D01*
X73080452Y-117228880D01*
X73223309Y-117228880D01*
X73318547Y-117181261D01*
X73366166Y-117133642D01*
%TO.C,C6*%
X106386333Y-73153142D02*
X106338714Y-73200761D01*
X106195857Y-73248380D01*
X106100619Y-73248380D01*
X105957761Y-73200761D01*
X105862523Y-73105523D01*
X105814904Y-73010285D01*
X105767285Y-72819809D01*
X105767285Y-72676952D01*
X105814904Y-72486476D01*
X105862523Y-72391238D01*
X105957761Y-72296000D01*
X106100619Y-72248380D01*
X106195857Y-72248380D01*
X106338714Y-72296000D01*
X106386333Y-72343619D01*
X107243476Y-72248380D02*
X107053000Y-72248380D01*
X106957761Y-72296000D01*
X106910142Y-72343619D01*
X106814904Y-72486476D01*
X106767285Y-72676952D01*
X106767285Y-73057904D01*
X106814904Y-73153142D01*
X106862523Y-73200761D01*
X106957761Y-73248380D01*
X107148238Y-73248380D01*
X107243476Y-73200761D01*
X107291095Y-73153142D01*
X107338714Y-73057904D01*
X107338714Y-72819809D01*
X107291095Y-72724571D01*
X107243476Y-72676952D01*
X107148238Y-72629333D01*
X106957761Y-72629333D01*
X106862523Y-72676952D01*
X106814904Y-72724571D01*
X106767285Y-72819809D01*
X104417952Y-74645380D02*
X103846523Y-74645380D01*
X104132238Y-74645380D02*
X104132238Y-73645380D01*
X104037000Y-73788238D01*
X103941761Y-73883476D01*
X103846523Y-73931095D01*
X105037000Y-73645380D02*
X105132238Y-73645380D01*
X105227476Y-73693000D01*
X105275095Y-73740619D01*
X105322714Y-73835857D01*
X105370333Y-74026333D01*
X105370333Y-74264428D01*
X105322714Y-74454904D01*
X105275095Y-74550142D01*
X105227476Y-74597761D01*
X105132238Y-74645380D01*
X105037000Y-74645380D01*
X104941761Y-74597761D01*
X104894142Y-74550142D01*
X104846523Y-74454904D01*
X104798904Y-74264428D01*
X104798904Y-74026333D01*
X104846523Y-73835857D01*
X104894142Y-73740619D01*
X104941761Y-73693000D01*
X105037000Y-73645380D01*
X105989380Y-73645380D02*
X106084619Y-73645380D01*
X106179857Y-73693000D01*
X106227476Y-73740619D01*
X106275095Y-73835857D01*
X106322714Y-74026333D01*
X106322714Y-74264428D01*
X106275095Y-74454904D01*
X106227476Y-74550142D01*
X106179857Y-74597761D01*
X106084619Y-74645380D01*
X105989380Y-74645380D01*
X105894142Y-74597761D01*
X105846523Y-74550142D01*
X105798904Y-74454904D01*
X105751285Y-74264428D01*
X105751285Y-74026333D01*
X105798904Y-73835857D01*
X105846523Y-73740619D01*
X105894142Y-73693000D01*
X105989380Y-73645380D01*
X106751285Y-73978714D02*
X106751285Y-74645380D01*
X106751285Y-74073952D02*
X106798904Y-74026333D01*
X106894142Y-73978714D01*
X107037000Y-73978714D01*
X107132238Y-74026333D01*
X107179857Y-74121571D01*
X107179857Y-74645380D01*
%TO.C,U4*%
X61976095Y-84825380D02*
X61976095Y-85634904D01*
X62023714Y-85730142D01*
X62071333Y-85777761D01*
X62166571Y-85825380D01*
X62357047Y-85825380D01*
X62452285Y-85777761D01*
X62499904Y-85730142D01*
X62547523Y-85634904D01*
X62547523Y-84825380D01*
X63452285Y-85158714D02*
X63452285Y-85825380D01*
X63214190Y-84777761D02*
X62976095Y-85492047D01*
X63595142Y-85492047D01*
X59928476Y-92625380D02*
X59928476Y-91625380D01*
X60976095Y-92530142D02*
X60928476Y-92577761D01*
X60785619Y-92625380D01*
X60690380Y-92625380D01*
X60547523Y-92577761D01*
X60452285Y-92482523D01*
X60404666Y-92387285D01*
X60357047Y-92196809D01*
X60357047Y-92053952D01*
X60404666Y-91863476D01*
X60452285Y-91768238D01*
X60547523Y-91673000D01*
X60690380Y-91625380D01*
X60785619Y-91625380D01*
X60928476Y-91673000D01*
X60976095Y-91720619D01*
X61880857Y-92625380D02*
X61404666Y-92625380D01*
X61404666Y-91625380D01*
X62118952Y-91625380D02*
X62785619Y-91625380D01*
X62357047Y-92625380D01*
X63595142Y-91625380D02*
X63404666Y-91625380D01*
X63309428Y-91673000D01*
X63261809Y-91720619D01*
X63166571Y-91863476D01*
X63118952Y-92053952D01*
X63118952Y-92434904D01*
X63166571Y-92530142D01*
X63214190Y-92577761D01*
X63309428Y-92625380D01*
X63499904Y-92625380D01*
X63595142Y-92577761D01*
X63642761Y-92530142D01*
X63690380Y-92434904D01*
X63690380Y-92196809D01*
X63642761Y-92101571D01*
X63595142Y-92053952D01*
X63499904Y-92006333D01*
X63309428Y-92006333D01*
X63214190Y-92053952D01*
X63166571Y-92101571D01*
X63118952Y-92196809D01*
X64547523Y-91625380D02*
X64357047Y-91625380D01*
X64261809Y-91673000D01*
X64214190Y-91720619D01*
X64118952Y-91863476D01*
X64071333Y-92053952D01*
X64071333Y-92434904D01*
X64118952Y-92530142D01*
X64166571Y-92577761D01*
X64261809Y-92625380D01*
X64452285Y-92625380D01*
X64547523Y-92577761D01*
X64595142Y-92530142D01*
X64642761Y-92434904D01*
X64642761Y-92196809D01*
X64595142Y-92101571D01*
X64547523Y-92053952D01*
X64452285Y-92006333D01*
X64261809Y-92006333D01*
X64166571Y-92053952D01*
X64118952Y-92101571D01*
X64071333Y-92196809D01*
X65261809Y-91625380D02*
X65357047Y-91625380D01*
X65452285Y-91673000D01*
X65499904Y-91720619D01*
X65547523Y-91815857D01*
X65595142Y-92006333D01*
X65595142Y-92244428D01*
X65547523Y-92434904D01*
X65499904Y-92530142D01*
X65452285Y-92577761D01*
X65357047Y-92625380D01*
X65261809Y-92625380D01*
X65166571Y-92577761D01*
X65118952Y-92530142D01*
X65071333Y-92434904D01*
X65023714Y-92244428D01*
X65023714Y-92006333D01*
X65071333Y-91815857D01*
X65118952Y-91720619D01*
X65166571Y-91673000D01*
X65261809Y-91625380D01*
%TO.C,C9*%
X56538833Y-80884793D02*
X56491214Y-80932412D01*
X56348357Y-80980031D01*
X56253119Y-80980031D01*
X56110261Y-80932412D01*
X56015023Y-80837174D01*
X55967404Y-80741936D01*
X55919785Y-80551460D01*
X55919785Y-80408603D01*
X55967404Y-80218127D01*
X56015023Y-80122889D01*
X56110261Y-80027651D01*
X56253119Y-79980031D01*
X56348357Y-79980031D01*
X56491214Y-80027651D01*
X56538833Y-80075270D01*
X57015023Y-80980031D02*
X57205500Y-80980031D01*
X57300738Y-80932412D01*
X57348357Y-80884793D01*
X57443595Y-80741936D01*
X57491214Y-80551460D01*
X57491214Y-80170508D01*
X57443595Y-80075270D01*
X57395976Y-80027651D01*
X57300738Y-79980031D01*
X57110261Y-79980031D01*
X57015023Y-80027651D01*
X56967404Y-80075270D01*
X56919785Y-80170508D01*
X56919785Y-80408603D01*
X56967404Y-80503841D01*
X57015023Y-80551460D01*
X57110261Y-80599079D01*
X57300738Y-80599079D01*
X57395976Y-80551460D01*
X57443595Y-80503841D01*
X57491214Y-80408603D01*
X56983404Y-78725865D02*
X56983404Y-79392531D01*
X56745309Y-78344912D02*
X56507214Y-79059198D01*
X57126261Y-79059198D01*
X57411976Y-78392531D02*
X58078642Y-78392531D01*
X57650071Y-79392531D01*
X58888166Y-78725865D02*
X58888166Y-79392531D01*
X58459595Y-78725865D02*
X58459595Y-79249674D01*
X58507214Y-79344912D01*
X58602452Y-79392531D01*
X58745309Y-79392531D01*
X58840547Y-79344912D01*
X58888166Y-79297293D01*
%TO.C,U3*%
X111990119Y-80200595D02*
X111180595Y-80200595D01*
X111085357Y-80248214D01*
X111037738Y-80295833D01*
X110990119Y-80391071D01*
X110990119Y-80581547D01*
X111037738Y-80676785D01*
X111085357Y-80724404D01*
X111180595Y-80772023D01*
X111990119Y-80772023D01*
X111990119Y-81152976D02*
X111990119Y-81772023D01*
X111609166Y-81438690D01*
X111609166Y-81581547D01*
X111561547Y-81676785D01*
X111513928Y-81724404D01*
X111418690Y-81772023D01*
X111180595Y-81772023D01*
X111085357Y-81724404D01*
X111037738Y-81676785D01*
X110990119Y-81581547D01*
X110990119Y-81295833D01*
X111037738Y-81200595D01*
X111085357Y-81152976D01*
X111053619Y-83375904D02*
X112053619Y-83375904D01*
X111339333Y-83709238D01*
X112053619Y-84042571D01*
X111053619Y-84042571D01*
X111148857Y-85090190D02*
X111101238Y-85042571D01*
X111053619Y-84899714D01*
X111053619Y-84804476D01*
X111101238Y-84661619D01*
X111196476Y-84566380D01*
X111291714Y-84518761D01*
X111482190Y-84471142D01*
X111625047Y-84471142D01*
X111815523Y-84518761D01*
X111910761Y-84566380D01*
X112006000Y-84661619D01*
X112053619Y-84804476D01*
X112053619Y-84899714D01*
X112006000Y-85042571D01*
X111958380Y-85090190D01*
X111053619Y-85518761D02*
X112053619Y-85518761D01*
X112053619Y-85899714D01*
X112006000Y-85994952D01*
X111958380Y-86042571D01*
X111863142Y-86090190D01*
X111720285Y-86090190D01*
X111625047Y-86042571D01*
X111577428Y-85994952D01*
X111529809Y-85899714D01*
X111529809Y-85518761D01*
X111720285Y-86947333D02*
X111053619Y-86947333D01*
X112101238Y-86709238D02*
X111386952Y-86471142D01*
X111386952Y-87090190D01*
X111625047Y-87614000D02*
X111672666Y-87518761D01*
X111720285Y-87471142D01*
X111815523Y-87423523D01*
X111863142Y-87423523D01*
X111958380Y-87471142D01*
X112006000Y-87518761D01*
X112053619Y-87614000D01*
X112053619Y-87804476D01*
X112006000Y-87899714D01*
X111958380Y-87947333D01*
X111863142Y-87994952D01*
X111815523Y-87994952D01*
X111720285Y-87947333D01*
X111672666Y-87899714D01*
X111625047Y-87804476D01*
X111625047Y-87614000D01*
X111577428Y-87518761D01*
X111529809Y-87471142D01*
X111434571Y-87423523D01*
X111244095Y-87423523D01*
X111148857Y-87471142D01*
X111101238Y-87518761D01*
X111053619Y-87614000D01*
X111053619Y-87804476D01*
X111101238Y-87899714D01*
X111148857Y-87947333D01*
X111244095Y-87994952D01*
X111434571Y-87994952D01*
X111529809Y-87947333D01*
X111577428Y-87899714D01*
X111625047Y-87804476D01*
X111958380Y-88375904D02*
X112006000Y-88423523D01*
X112053619Y-88518761D01*
X112053619Y-88756857D01*
X112006000Y-88852095D01*
X111958380Y-88899714D01*
X111863142Y-88947333D01*
X111767904Y-88947333D01*
X111625047Y-88899714D01*
X111053619Y-88328285D01*
X111053619Y-88947333D01*
X111958380Y-89328285D02*
X112006000Y-89375904D01*
X112053619Y-89471142D01*
X112053619Y-89709238D01*
X112006000Y-89804476D01*
X111958380Y-89852095D01*
X111863142Y-89899714D01*
X111767904Y-89899714D01*
X111625047Y-89852095D01*
X111053619Y-89280666D01*
X111053619Y-89899714D01*
%TO.C,R5*%
X121435833Y-102638880D02*
X121102500Y-102162690D01*
X120864404Y-102638880D02*
X120864404Y-101638880D01*
X121245357Y-101638880D01*
X121340595Y-101686500D01*
X121388214Y-101734119D01*
X121435833Y-101829357D01*
X121435833Y-101972214D01*
X121388214Y-102067452D01*
X121340595Y-102115071D01*
X121245357Y-102162690D01*
X120864404Y-102162690D01*
X122340595Y-101638880D02*
X121864404Y-101638880D01*
X121816785Y-102115071D01*
X121864404Y-102067452D01*
X121959642Y-102019833D01*
X122197738Y-102019833D01*
X122292976Y-102067452D01*
X122340595Y-102115071D01*
X122388214Y-102210309D01*
X122388214Y-102448404D01*
X122340595Y-102543642D01*
X122292976Y-102591261D01*
X122197738Y-102638880D01*
X121959642Y-102638880D01*
X121864404Y-102591261D01*
X121816785Y-102543642D01*
X120912023Y-98798880D02*
X120340595Y-98798880D01*
X120626309Y-98798880D02*
X120626309Y-97798880D01*
X120531071Y-97941738D01*
X120435833Y-98036976D01*
X120340595Y-98084595D01*
X121531071Y-97798880D02*
X121626309Y-97798880D01*
X121721547Y-97846500D01*
X121769166Y-97894119D01*
X121816785Y-97989357D01*
X121864404Y-98179833D01*
X121864404Y-98417928D01*
X121816785Y-98608404D01*
X121769166Y-98703642D01*
X121721547Y-98751261D01*
X121626309Y-98798880D01*
X121531071Y-98798880D01*
X121435833Y-98751261D01*
X121388214Y-98703642D01*
X121340595Y-98608404D01*
X121292976Y-98417928D01*
X121292976Y-98179833D01*
X121340595Y-97989357D01*
X121388214Y-97894119D01*
X121435833Y-97846500D01*
X121531071Y-97798880D01*
X122292976Y-98798880D02*
X122292976Y-97798880D01*
X122864404Y-98798880D02*
X122435833Y-98227452D01*
X122864404Y-97798880D02*
X122292976Y-98370309D01*
%TO.C,J3*%
X59777380Y-98250333D02*
X60491666Y-98250333D01*
X60634523Y-98297952D01*
X60729761Y-98393190D01*
X60777380Y-98536047D01*
X60777380Y-98631285D01*
X59777380Y-97869380D02*
X59777380Y-97250333D01*
X60158333Y-97583666D01*
X60158333Y-97440809D01*
X60205952Y-97345571D01*
X60253571Y-97297952D01*
X60348809Y-97250333D01*
X60586904Y-97250333D01*
X60682142Y-97297952D01*
X60729761Y-97345571D01*
X60777380Y-97440809D01*
X60777380Y-97726523D01*
X60729761Y-97821761D01*
X60682142Y-97869380D01*
X50490380Y-99186833D02*
X49490380Y-99186833D01*
X49490380Y-98805880D01*
X49538000Y-98710642D01*
X49585619Y-98663023D01*
X49680857Y-98615404D01*
X49823714Y-98615404D01*
X49918952Y-98663023D01*
X49966571Y-98710642D01*
X50014190Y-98805880D01*
X50014190Y-99186833D01*
X49490380Y-98282071D02*
X50490380Y-98043976D01*
X49776095Y-97853500D01*
X50490380Y-97663023D01*
X49490380Y-97424928D01*
X50490380Y-96472547D02*
X50014190Y-96805880D01*
X50490380Y-97043976D02*
X49490380Y-97043976D01*
X49490380Y-96663023D01*
X49538000Y-96567785D01*
X49585619Y-96520166D01*
X49680857Y-96472547D01*
X49823714Y-96472547D01*
X49918952Y-96520166D01*
X49966571Y-96567785D01*
X50014190Y-96663023D01*
X50014190Y-97043976D01*
%TO.C,R6*%
X120658833Y-119261380D02*
X120325500Y-118785190D01*
X120087404Y-119261380D02*
X120087404Y-118261380D01*
X120468357Y-118261380D01*
X120563595Y-118309000D01*
X120611214Y-118356619D01*
X120658833Y-118451857D01*
X120658833Y-118594714D01*
X120611214Y-118689952D01*
X120563595Y-118737571D01*
X120468357Y-118785190D01*
X120087404Y-118785190D01*
X121515976Y-118261380D02*
X121325500Y-118261380D01*
X121230261Y-118309000D01*
X121182642Y-118356619D01*
X121087404Y-118499476D01*
X121039785Y-118689952D01*
X121039785Y-119070904D01*
X121087404Y-119166142D01*
X121135023Y-119213761D01*
X121230261Y-119261380D01*
X121420738Y-119261380D01*
X121515976Y-119213761D01*
X121563595Y-119166142D01*
X121611214Y-119070904D01*
X121611214Y-118832809D01*
X121563595Y-118737571D01*
X121515976Y-118689952D01*
X121420738Y-118642333D01*
X121230261Y-118642333D01*
X121135023Y-118689952D01*
X121087404Y-118737571D01*
X121039785Y-118832809D01*
X120635023Y-112021380D02*
X120063595Y-112021380D01*
X120349309Y-112021380D02*
X120349309Y-111021380D01*
X120254071Y-111164238D01*
X120158833Y-111259476D01*
X120063595Y-111307095D01*
X121254071Y-111021380D02*
X121349309Y-111021380D01*
X121444547Y-111069000D01*
X121492166Y-111116619D01*
X121539785Y-111211857D01*
X121587404Y-111402333D01*
X121587404Y-111640428D01*
X121539785Y-111830904D01*
X121492166Y-111926142D01*
X121444547Y-111973761D01*
X121349309Y-112021380D01*
X121254071Y-112021380D01*
X121158833Y-111973761D01*
X121111214Y-111926142D01*
X121063595Y-111830904D01*
X121015976Y-111640428D01*
X121015976Y-111402333D01*
X121063595Y-111211857D01*
X121111214Y-111116619D01*
X121158833Y-111069000D01*
X121254071Y-111021380D01*
%TO.C,R4*%
X126783333Y-108353880D02*
X126450000Y-107877690D01*
X126211904Y-108353880D02*
X126211904Y-107353880D01*
X126592857Y-107353880D01*
X126688095Y-107401500D01*
X126735714Y-107449119D01*
X126783333Y-107544357D01*
X126783333Y-107687214D01*
X126735714Y-107782452D01*
X126688095Y-107830071D01*
X126592857Y-107877690D01*
X126211904Y-107877690D01*
X127640476Y-107687214D02*
X127640476Y-108353880D01*
X127402380Y-107306261D02*
X127164285Y-108020547D01*
X127783333Y-108020547D01*
X125926190Y-103847214D02*
X125926190Y-104513880D01*
X125688095Y-103466261D02*
X125450000Y-104180547D01*
X126069047Y-104180547D01*
X126450000Y-104418642D02*
X126497619Y-104466261D01*
X126450000Y-104513880D01*
X126402380Y-104466261D01*
X126450000Y-104418642D01*
X126450000Y-104513880D01*
X126830952Y-103513880D02*
X127497619Y-103513880D01*
X127069047Y-104513880D01*
X127878571Y-104513880D02*
X127878571Y-103513880D01*
X128450000Y-104513880D02*
X128021428Y-103942452D01*
X128450000Y-103513880D02*
X127878571Y-104085309D01*
%TO.C,TB1*%
X91895833Y-73782333D02*
X92695833Y-73782333D01*
X92295833Y-75182333D02*
X92295833Y-73782333D01*
X93629166Y-74449000D02*
X93829166Y-74515666D01*
X93895833Y-74582333D01*
X93962500Y-74715666D01*
X93962500Y-74915666D01*
X93895833Y-75049000D01*
X93829166Y-75115666D01*
X93695833Y-75182333D01*
X93162500Y-75182333D01*
X93162500Y-73782333D01*
X93629166Y-73782333D01*
X93762500Y-73849000D01*
X93829166Y-73915666D01*
X93895833Y-74049000D01*
X93895833Y-74182333D01*
X93829166Y-74315666D01*
X93762500Y-74382333D01*
X93629166Y-74449000D01*
X93162500Y-74449000D01*
X95295833Y-75182333D02*
X94495833Y-75182333D01*
X94895833Y-75182333D02*
X94895833Y-73782333D01*
X94762500Y-73982333D01*
X94629166Y-74115666D01*
X94495833Y-74182333D01*
X78051333Y-75690333D02*
X78051333Y-74290333D01*
X78851333Y-75690333D01*
X78851333Y-74290333D01*
X79451333Y-75290333D02*
X80118000Y-75290333D01*
X79318000Y-75690333D02*
X79784666Y-74290333D01*
X80251333Y-75690333D01*
X80718000Y-75690333D02*
X80718000Y-74290333D01*
X81518000Y-75690333D01*
X81518000Y-74290333D01*
X82451333Y-74290333D02*
X82718000Y-74290333D01*
X82851333Y-74357000D01*
X82984666Y-74490333D01*
X83051333Y-74757000D01*
X83051333Y-75223666D01*
X82984666Y-75490333D01*
X82851333Y-75623666D01*
X82718000Y-75690333D01*
X82451333Y-75690333D01*
X82318000Y-75623666D01*
X82184666Y-75490333D01*
X82118000Y-75223666D01*
X82118000Y-74757000D01*
X82184666Y-74490333D01*
X82318000Y-74357000D01*
X82451333Y-74290333D01*
%TO.C,J1*%
X112823666Y-117308380D02*
X112823666Y-118022666D01*
X112776047Y-118165523D01*
X112680809Y-118260761D01*
X112537952Y-118308380D01*
X112442714Y-118308380D01*
X113823666Y-118308380D02*
X113252238Y-118308380D01*
X113537952Y-118308380D02*
X113537952Y-117308380D01*
X113442714Y-117451238D01*
X113347476Y-117546476D01*
X113252238Y-117594095D01*
X109656666Y-117435380D02*
X109847142Y-117435380D01*
X109942380Y-117483000D01*
X110037619Y-117578238D01*
X110085238Y-117768714D01*
X110085238Y-118102047D01*
X110037619Y-118292523D01*
X109942380Y-118387761D01*
X109847142Y-118435380D01*
X109656666Y-118435380D01*
X109561428Y-118387761D01*
X109466190Y-118292523D01*
X109418571Y-118102047D01*
X109418571Y-117768714D01*
X109466190Y-117578238D01*
X109561428Y-117483000D01*
X109656666Y-117435380D01*
X110942380Y-117768714D02*
X110942380Y-118435380D01*
X110513809Y-117768714D02*
X110513809Y-118292523D01*
X110561428Y-118387761D01*
X110656666Y-118435380D01*
X110799523Y-118435380D01*
X110894761Y-118387761D01*
X110942380Y-118340142D01*
X111275714Y-117768714D02*
X111656666Y-117768714D01*
X111418571Y-117435380D02*
X111418571Y-118292523D01*
X111466190Y-118387761D01*
X111561428Y-118435380D01*
X111656666Y-118435380D01*
%TO.C,C1*%
X125651833Y-83161142D02*
X125604214Y-83208761D01*
X125461357Y-83256380D01*
X125366119Y-83256380D01*
X125223261Y-83208761D01*
X125128023Y-83113523D01*
X125080404Y-83018285D01*
X125032785Y-82827809D01*
X125032785Y-82684952D01*
X125080404Y-82494476D01*
X125128023Y-82399238D01*
X125223261Y-82304000D01*
X125366119Y-82256380D01*
X125461357Y-82256380D01*
X125604214Y-82304000D01*
X125651833Y-82351619D01*
X126604214Y-83256380D02*
X126032785Y-83256380D01*
X126318500Y-83256380D02*
X126318500Y-82256380D01*
X126223261Y-82399238D01*
X126128023Y-82494476D01*
X126032785Y-82542095D01*
X125524952Y-81922880D02*
X124953523Y-81922880D01*
X125239238Y-81922880D02*
X125239238Y-80922880D01*
X125144000Y-81065738D01*
X125048761Y-81160976D01*
X124953523Y-81208595D01*
X126144000Y-80922880D02*
X126239238Y-80922880D01*
X126334476Y-80970500D01*
X126382095Y-81018119D01*
X126429714Y-81113357D01*
X126477333Y-81303833D01*
X126477333Y-81541928D01*
X126429714Y-81732404D01*
X126382095Y-81827642D01*
X126334476Y-81875261D01*
X126239238Y-81922880D01*
X126144000Y-81922880D01*
X126048761Y-81875261D01*
X126001142Y-81827642D01*
X125953523Y-81732404D01*
X125905904Y-81541928D01*
X125905904Y-81303833D01*
X125953523Y-81113357D01*
X126001142Y-81018119D01*
X126048761Y-80970500D01*
X126144000Y-80922880D01*
X127096380Y-80922880D02*
X127191619Y-80922880D01*
X127286857Y-80970500D01*
X127334476Y-81018119D01*
X127382095Y-81113357D01*
X127429714Y-81303833D01*
X127429714Y-81541928D01*
X127382095Y-81732404D01*
X127334476Y-81827642D01*
X127286857Y-81875261D01*
X127191619Y-81922880D01*
X127096380Y-81922880D01*
X127001142Y-81875261D01*
X126953523Y-81827642D01*
X126905904Y-81732404D01*
X126858285Y-81541928D01*
X126858285Y-81303833D01*
X126905904Y-81113357D01*
X126953523Y-81018119D01*
X127001142Y-80970500D01*
X127096380Y-80922880D01*
X127858285Y-81256214D02*
X127858285Y-81922880D01*
X127858285Y-81351452D02*
X127905904Y-81303833D01*
X128001142Y-81256214D01*
X128144000Y-81256214D01*
X128239238Y-81303833D01*
X128286857Y-81399071D01*
X128286857Y-81922880D01*
%TO.C,C5*%
X113704642Y-72175666D02*
X113752261Y-72223285D01*
X113799880Y-72366142D01*
X113799880Y-72461380D01*
X113752261Y-72604238D01*
X113657023Y-72699476D01*
X113561785Y-72747095D01*
X113371309Y-72794714D01*
X113228452Y-72794714D01*
X113037976Y-72747095D01*
X112942738Y-72699476D01*
X112847500Y-72604238D01*
X112799880Y-72461380D01*
X112799880Y-72366142D01*
X112847500Y-72223285D01*
X112895119Y-72175666D01*
X112799880Y-71270904D02*
X112799880Y-71747095D01*
X113276071Y-71794714D01*
X113228452Y-71747095D01*
X113180833Y-71651857D01*
X113180833Y-71413761D01*
X113228452Y-71318523D01*
X113276071Y-71270904D01*
X113371309Y-71223285D01*
X113609404Y-71223285D01*
X113704642Y-71270904D01*
X113752261Y-71318523D01*
X113799880Y-71413761D01*
X113799880Y-71651857D01*
X113752261Y-71747095D01*
X113704642Y-71794714D01*
X112402880Y-72270857D02*
X112402880Y-72842285D01*
X112402880Y-72556571D02*
X111402880Y-72556571D01*
X111545738Y-72651809D01*
X111640976Y-72747047D01*
X111688595Y-72842285D01*
X111402880Y-71651809D02*
X111402880Y-71556571D01*
X111450500Y-71461333D01*
X111498119Y-71413714D01*
X111593357Y-71366095D01*
X111783833Y-71318476D01*
X112021928Y-71318476D01*
X112212404Y-71366095D01*
X112307642Y-71413714D01*
X112355261Y-71461333D01*
X112402880Y-71556571D01*
X112402880Y-71651809D01*
X112355261Y-71747047D01*
X112307642Y-71794666D01*
X112212404Y-71842285D01*
X112021928Y-71889904D01*
X111783833Y-71889904D01*
X111593357Y-71842285D01*
X111498119Y-71794666D01*
X111450500Y-71747047D01*
X111402880Y-71651809D01*
X111736214Y-70461333D02*
X112402880Y-70461333D01*
X111736214Y-70889904D02*
X112260023Y-70889904D01*
X112355261Y-70842285D01*
X112402880Y-70747047D01*
X112402880Y-70604190D01*
X112355261Y-70508952D01*
X112307642Y-70461333D01*
D11*
%TO.C,D3*%
X74114000Y-79015500D02*
X71174000Y-79015500D01*
X71174000Y-83555500D02*
X74114000Y-83555500D01*
X74114000Y-83555500D02*
X74114000Y-78115500D01*
X74114000Y-78115500D02*
X71174000Y-78115500D01*
X71174000Y-78115500D02*
X71174000Y-83555500D01*
X74114000Y-79135500D02*
X71174000Y-79135500D01*
X72644000Y-77095500D02*
X72644000Y-78115500D01*
X74114000Y-78895500D02*
X71174000Y-78895500D01*
X72644000Y-84575500D02*
X72644000Y-83555500D01*
%TO.C,D2*%
X56842000Y-110860500D02*
X56842000Y-105420500D01*
X53902000Y-109960500D02*
X56842000Y-109960500D01*
X53902000Y-105420500D02*
X53902000Y-110860500D01*
X53902000Y-109840500D02*
X56842000Y-109840500D01*
X53902000Y-110860500D02*
X56842000Y-110860500D01*
X55372000Y-111880500D02*
X55372000Y-110860500D01*
X53902000Y-110080500D02*
X56842000Y-110080500D01*
X55372000Y-104400500D02*
X55372000Y-105420500D01*
X56842000Y-105420500D02*
X53902000Y-105420500D01*
%TO.C,Q1*%
X110734500Y-109301000D02*
X110734500Y-107791000D01*
X117705500Y-107791000D02*
X107465500Y-107791000D01*
X117705500Y-109301000D02*
X117705500Y-104660000D01*
X114435500Y-109301000D02*
X114435500Y-107791000D01*
X107465500Y-109301000D02*
X107465500Y-104660000D01*
X117705500Y-109301000D02*
X107465500Y-109301000D01*
X117705500Y-104660000D02*
X107465500Y-104660000D01*
%TO.C,R3*%
X112603000Y-92265500D02*
X115763000Y-92265500D01*
X112603000Y-92265500D02*
G75*
G03*
X112603000Y-92265500I-920000J0D01*
G01*
%TO.C,D1*%
X61636000Y-110807000D02*
X61636000Y-110651000D01*
X61636000Y-113123000D02*
X61636000Y-112967000D01*
X61636000Y-110651484D02*
G75*
G03*
X58403665Y-110808392I-1560000J-1235516D01*
G01*
X61116961Y-110807000D02*
G75*
G03*
X59034870Y-110807163I-1040961J-1080000D01*
G01*
X58403665Y-112965608D02*
G75*
G03*
X61636000Y-113122516I1672335J1078608D01*
G01*
X59034870Y-112966837D02*
G75*
G03*
X61116961Y-112967000I1041130J1079837D01*
G01*
%TO.C,U2*%
X119584000Y-93328000D02*
X129864000Y-93328000D01*
X129864000Y-88028000D02*
X119584000Y-88028000D01*
X119524000Y-85538000D02*
X119524000Y-95818000D01*
X129864000Y-93328000D02*
X129864000Y-88028000D01*
X119524000Y-95818000D02*
X129924000Y-95818000D01*
X119584000Y-88028000D02*
X119584000Y-89678000D01*
X119584000Y-91678000D02*
X119584000Y-93328000D01*
X129924000Y-95818000D02*
X129924000Y-85538000D01*
X129924000Y-85538000D02*
X119524000Y-85538000D01*
X119584000Y-91678000D02*
G75*
G03*
X119584000Y-89678000I0J1000000D01*
G01*
%TO.C,R1*%
X115821436Y-76306000D02*
X117275564Y-76306000D01*
X115821436Y-78126000D02*
X117275564Y-78126000D01*
%TO.C,C4*%
X75480500Y-111264752D02*
X75480500Y-109842248D01*
X77300500Y-111264752D02*
X77300500Y-109842248D01*
%TO.C,D4*%
X60335500Y-74539500D02*
X60335500Y-77479500D01*
X59315500Y-76009500D02*
X60335500Y-76009500D01*
X61115500Y-74539500D02*
X61115500Y-77479500D01*
X60335500Y-77479500D02*
X65775500Y-77479500D01*
X61355500Y-74539500D02*
X61355500Y-77479500D01*
X66795500Y-76009500D02*
X65775500Y-76009500D01*
X65775500Y-74539500D02*
X60335500Y-74539500D01*
X61235500Y-74539500D02*
X61235500Y-77479500D01*
X65775500Y-77479500D02*
X65775500Y-74539500D01*
%TO.C,R2*%
X63415500Y-111159936D02*
X63415500Y-112614064D01*
X65235500Y-111159936D02*
X65235500Y-112614064D01*
%TO.C,J2*%
X106299000Y-95945000D02*
X103699000Y-95945000D01*
X103699000Y-93285000D02*
X103699000Y-95945000D01*
X106299000Y-93285000D02*
X103699000Y-93285000D01*
X108899000Y-93285000D02*
X108899000Y-94615000D01*
X106299000Y-93285000D02*
X106299000Y-95945000D01*
X107569000Y-93285000D02*
X108899000Y-93285000D01*
%TO.C,C8*%
X55416849Y-85404000D02*
X55416849Y-88241000D01*
X55296849Y-85367000D02*
X55296849Y-88241000D01*
X54976849Y-90321000D02*
X54976849Y-93275000D01*
X55256849Y-85356000D02*
X55256849Y-88241000D01*
X55576849Y-90321000D02*
X55576849Y-93102000D01*
X57376849Y-86776000D02*
X57376849Y-91786000D01*
X55656849Y-85491000D02*
X55656849Y-88241000D01*
X55176849Y-85334000D02*
X55176849Y-88241000D01*
X55336849Y-85379000D02*
X55336849Y-88241000D01*
X55536849Y-90321000D02*
X55536849Y-93116000D01*
X55616849Y-90321000D02*
X55616849Y-93086000D01*
X56776849Y-86157000D02*
X56776849Y-92405000D01*
X55616849Y-85476000D02*
X55616849Y-88241000D01*
X54535849Y-85220000D02*
X54535849Y-88241000D01*
X55496849Y-85431000D02*
X55496849Y-88241000D01*
X54695849Y-85239000D02*
X54695849Y-88241000D01*
X54495849Y-90321000D02*
X54495849Y-93346000D01*
X54856849Y-90321000D02*
X54856849Y-93298000D01*
X57776849Y-87391000D02*
X57776849Y-91171000D01*
X57256849Y-86630000D02*
X57256849Y-91932000D01*
X55776849Y-90321000D02*
X55776849Y-93021000D01*
X55096849Y-90321000D02*
X55096849Y-93248000D01*
X54896849Y-85271000D02*
X54896849Y-88241000D01*
X56376849Y-90321000D02*
X56376849Y-92699000D01*
X56616849Y-86031000D02*
X56616849Y-92531000D01*
X55496849Y-90321000D02*
X55496849Y-93131000D01*
X57096849Y-86455000D02*
X57096849Y-92107000D01*
X57056849Y-86414000D02*
X57056849Y-92148000D01*
X54775849Y-90321000D02*
X54775849Y-93311000D01*
X54615849Y-85229000D02*
X54615849Y-88241000D01*
X55376849Y-85392000D02*
X55376849Y-88241000D01*
X54735849Y-90321000D02*
X54735849Y-93318000D01*
X55736849Y-90321000D02*
X55736849Y-93038000D01*
X55816849Y-90321000D02*
X55816849Y-93003000D01*
X58176849Y-88513000D02*
X58176849Y-90049000D01*
X56656849Y-86061000D02*
X56656849Y-92501000D01*
X55216849Y-85345000D02*
X55216849Y-88241000D01*
X55416849Y-90321000D02*
X55416849Y-93158000D01*
X55976849Y-85634000D02*
X55976849Y-88241000D01*
X56576849Y-86001000D02*
X56576849Y-92561000D01*
X50126151Y-86566000D02*
X50126151Y-87366000D01*
X57296849Y-86677000D02*
X57296849Y-91885000D01*
X54575849Y-85224000D02*
X54575849Y-88241000D01*
X56096849Y-85697000D02*
X56096849Y-88241000D01*
X56496849Y-85943000D02*
X56496849Y-92619000D01*
X56056849Y-85675000D02*
X56056849Y-88241000D01*
X55696849Y-90321000D02*
X55696849Y-93055000D01*
X55896849Y-85595000D02*
X55896849Y-88241000D01*
X57136849Y-86497000D02*
X57136849Y-92065000D01*
X56336849Y-90321000D02*
X56336849Y-92725000D01*
X55576849Y-85460000D02*
X55576849Y-88241000D01*
X56056849Y-90321000D02*
X56056849Y-92887000D01*
X55016849Y-90321000D02*
X55016849Y-93266000D01*
X55296849Y-90321000D02*
X55296849Y-93195000D01*
X57736849Y-87317000D02*
X57736849Y-91245000D01*
X58056849Y-88052000D02*
X58056849Y-90510000D01*
X56696849Y-86092000D02*
X56696849Y-92470000D01*
X57176849Y-86540000D02*
X57176849Y-92022000D01*
X55856849Y-85577000D02*
X55856849Y-88241000D01*
X54455849Y-85213000D02*
X54455849Y-88241000D01*
X55216849Y-90321000D02*
X55216849Y-93217000D01*
X56136849Y-90321000D02*
X56136849Y-92843000D01*
X54936849Y-85279000D02*
X54936849Y-88241000D01*
X56296849Y-90321000D02*
X56296849Y-92750000D01*
X54335849Y-85205000D02*
X54335849Y-93357000D01*
X56816849Y-86191000D02*
X56816849Y-92371000D01*
X54175849Y-85201000D02*
X54175849Y-93361000D01*
X54976849Y-85287000D02*
X54976849Y-88241000D01*
X49726151Y-86966000D02*
X50526151Y-86966000D01*
X56976849Y-86336000D02*
X56976849Y-92226000D01*
X55176849Y-90321000D02*
X55176849Y-93228000D01*
X56416849Y-85889000D02*
X56416849Y-88241000D01*
X58096849Y-88183000D02*
X58096849Y-90379000D01*
X54415849Y-90321000D02*
X54415849Y-93352000D01*
X54615849Y-90321000D02*
X54615849Y-93333000D01*
X55816849Y-85559000D02*
X55816849Y-88241000D01*
X54375849Y-90321000D02*
X54375849Y-93355000D01*
X54215849Y-85201000D02*
X54215849Y-93361000D01*
X56016849Y-90321000D02*
X56016849Y-92908000D01*
X56136849Y-85719000D02*
X56136849Y-88241000D01*
X54295849Y-85204000D02*
X54295849Y-93358000D01*
X54415849Y-85210000D02*
X54415849Y-88241000D01*
X57896849Y-87636000D02*
X57896849Y-90926000D01*
X54936849Y-90321000D02*
X54936849Y-93283000D01*
X56336849Y-85837000D02*
X56336849Y-88241000D01*
X57456849Y-86881000D02*
X57456849Y-91681000D01*
X55136849Y-85324000D02*
X55136849Y-88241000D01*
X57816849Y-87468000D02*
X57816849Y-91094000D01*
X55856849Y-90321000D02*
X55856849Y-92985000D01*
X55696849Y-85507000D02*
X55696849Y-88241000D01*
X54815849Y-90321000D02*
X54815849Y-93305000D01*
X55376849Y-90321000D02*
X55376849Y-93170000D01*
X56216849Y-85764000D02*
X56216849Y-88241000D01*
X55056849Y-85305000D02*
X55056849Y-88241000D01*
X55256849Y-90321000D02*
X55256849Y-93206000D01*
X56256849Y-85788000D02*
X56256849Y-88241000D01*
X55096849Y-85314000D02*
X55096849Y-88241000D01*
X55456849Y-90321000D02*
X55456849Y-93144000D01*
X57936849Y-87729000D02*
X57936849Y-90833000D01*
X55056849Y-90321000D02*
X55056849Y-93257000D01*
X54775849Y-85251000D02*
X54775849Y-88241000D01*
X57536849Y-86994000D02*
X57536849Y-91568000D01*
X55936849Y-90321000D02*
X55936849Y-92947000D01*
X57216849Y-86584000D02*
X57216849Y-91978000D01*
X54856849Y-85264000D02*
X54856849Y-88241000D01*
X55776849Y-85541000D02*
X55776849Y-88241000D01*
X56456849Y-85916000D02*
X56456849Y-92646000D01*
X55896849Y-90321000D02*
X55896849Y-92967000D01*
X57016849Y-86374000D02*
X57016849Y-92188000D01*
X56376849Y-85863000D02*
X56376849Y-88241000D01*
X54135849Y-85201000D02*
X54135849Y-93361000D01*
X55016849Y-85296000D02*
X55016849Y-88241000D01*
X57496849Y-86936000D02*
X57496849Y-91626000D01*
X56536849Y-85972000D02*
X56536849Y-92590000D01*
X55976849Y-90321000D02*
X55976849Y-92928000D01*
X55536849Y-85446000D02*
X55536849Y-88241000D01*
X56216849Y-90321000D02*
X56216849Y-92798000D01*
X55336849Y-90321000D02*
X55336849Y-93183000D01*
X56296849Y-85812000D02*
X56296849Y-88241000D01*
X54455849Y-90321000D02*
X54455849Y-93349000D01*
X56416849Y-90321000D02*
X56416849Y-92673000D01*
X57696849Y-87247000D02*
X57696849Y-91315000D01*
X57656849Y-87179000D02*
X57656849Y-91383000D01*
X55136849Y-90321000D02*
X55136849Y-93238000D01*
X55936849Y-85615000D02*
X55936849Y-88241000D01*
X56096849Y-90321000D02*
X56096849Y-92865000D01*
X56176849Y-90321000D02*
X56176849Y-92821000D01*
X55456849Y-85418000D02*
X55456849Y-88241000D01*
X55736849Y-85524000D02*
X55736849Y-88241000D01*
X54695849Y-90321000D02*
X54695849Y-93323000D01*
X55656849Y-90321000D02*
X55656849Y-93071000D01*
X56896849Y-86262000D02*
X56896849Y-92300000D01*
X56256849Y-90321000D02*
X56256849Y-92774000D01*
X57616849Y-87115000D02*
X57616849Y-91447000D01*
X54735849Y-85244000D02*
X54735849Y-88241000D01*
X54255849Y-85202000D02*
X54255849Y-93360000D01*
X54535849Y-90321000D02*
X54535849Y-93342000D01*
X54495849Y-85216000D02*
X54495849Y-88241000D01*
X54896849Y-90321000D02*
X54896849Y-93291000D01*
X56936849Y-86298000D02*
X56936849Y-92264000D01*
X58216849Y-88748000D02*
X58216849Y-89814000D01*
X56856849Y-86226000D02*
X56856849Y-92336000D01*
X54815849Y-85257000D02*
X54815849Y-88241000D01*
X56016849Y-85654000D02*
X56016849Y-88241000D01*
X56736849Y-86125000D02*
X56736849Y-92437000D01*
X58136849Y-88333000D02*
X58136849Y-90229000D01*
X57976849Y-87828000D02*
X57976849Y-90734000D01*
X57416849Y-86827000D02*
X57416849Y-91735000D01*
X54575849Y-90321000D02*
X54575849Y-93338000D01*
X54655849Y-90321000D02*
X54655849Y-93329000D01*
X54655849Y-85233000D02*
X54655849Y-88241000D01*
X58016849Y-87935000D02*
X58016849Y-90627000D01*
X57856849Y-87550000D02*
X57856849Y-91012000D01*
X54375849Y-85207000D02*
X54375849Y-88241000D01*
X57576849Y-87053000D02*
X57576849Y-91509000D01*
X57336849Y-86725000D02*
X57336849Y-91837000D01*
X56176849Y-85741000D02*
X56176849Y-88241000D01*
X58255849Y-89281000D02*
G75*
G03*
X58255849Y-89281000I-4120000J0D01*
G01*
%TO.C,C2*%
X70804849Y-95973000D02*
X70804849Y-98909000D01*
X71604849Y-100989000D02*
X71604849Y-103653000D01*
X70403849Y-100989000D02*
X70403849Y-103997000D01*
X72324849Y-96669000D02*
X72324849Y-103229000D01*
X70323849Y-100989000D02*
X70323849Y-104006000D01*
X71404849Y-96159000D02*
X71404849Y-98909000D01*
X73284849Y-97662000D02*
X73284849Y-102236000D01*
X70563849Y-100989000D02*
X70563849Y-103973000D01*
X73564849Y-98136000D02*
X73564849Y-101762000D01*
X72204849Y-96584000D02*
X72204849Y-103314000D01*
X71724849Y-100989000D02*
X71724849Y-103596000D01*
X71764849Y-100989000D02*
X71764849Y-103576000D01*
X71924849Y-96409000D02*
X71924849Y-98909000D01*
X71764849Y-96322000D02*
X71764849Y-98909000D01*
X70924849Y-96002000D02*
X70924849Y-98909000D01*
X70443849Y-100989000D02*
X70443849Y-103991000D01*
X70523849Y-100989000D02*
X70523849Y-103979000D01*
X69963849Y-95869000D02*
X69963849Y-104029000D01*
X73924849Y-99181000D02*
X73924849Y-100717000D01*
X70844849Y-100989000D02*
X70844849Y-103916000D01*
X72884849Y-97165000D02*
X72884849Y-102733000D01*
X72044849Y-96480000D02*
X72044849Y-98909000D01*
X73004849Y-97298000D02*
X73004849Y-102600000D01*
X71204849Y-96086000D02*
X71204849Y-98909000D01*
X73644849Y-98304000D02*
X73644849Y-101594000D01*
X70684849Y-95947000D02*
X70684849Y-98909000D01*
X70764849Y-95964000D02*
X70764849Y-98909000D01*
X71444849Y-96175000D02*
X71444849Y-98909000D01*
X71724849Y-96302000D02*
X71724849Y-98909000D01*
X70964849Y-100989000D02*
X70964849Y-103885000D01*
X73484849Y-97985000D02*
X73484849Y-101913000D01*
X70884849Y-95992000D02*
X70884849Y-98909000D01*
X72164849Y-96557000D02*
X72164849Y-98909000D01*
X71284849Y-100989000D02*
X71284849Y-103784000D01*
X73244849Y-97604000D02*
X73244849Y-102294000D01*
X72924849Y-97208000D02*
X72924849Y-102690000D01*
X71124849Y-96060000D02*
X71124849Y-98909000D01*
X70443849Y-95907000D02*
X70443849Y-98909000D01*
X71564849Y-100989000D02*
X71564849Y-103671000D01*
X73884849Y-99001000D02*
X73884849Y-100897000D01*
X72004849Y-100989000D02*
X72004849Y-103442000D01*
X71364849Y-96144000D02*
X71364849Y-98909000D01*
X72604849Y-96894000D02*
X72604849Y-103004000D01*
X70884849Y-100989000D02*
X70884849Y-103906000D01*
X71084849Y-96047000D02*
X71084849Y-98909000D01*
X72124849Y-96531000D02*
X72124849Y-98909000D01*
X72644849Y-96930000D02*
X72644849Y-102968000D01*
X70964849Y-96013000D02*
X70964849Y-98909000D01*
X72164849Y-100989000D02*
X72164849Y-103341000D01*
X70764849Y-100989000D02*
X70764849Y-103934000D01*
X71604849Y-96245000D02*
X71604849Y-98909000D01*
X70363849Y-95897000D02*
X70363849Y-98909000D01*
X70283849Y-100989000D02*
X70283849Y-104010000D01*
X73044849Y-97345000D02*
X73044849Y-102553000D01*
X70123849Y-100989000D02*
X70123849Y-104023000D01*
X71964849Y-96432000D02*
X71964849Y-98909000D01*
X73964849Y-99416000D02*
X73964849Y-100482000D01*
X71524849Y-96209000D02*
X71524849Y-98909000D01*
X73364849Y-97783000D02*
X73364849Y-102115000D01*
X71004849Y-100989000D02*
X71004849Y-103874000D01*
X71044849Y-96035000D02*
X71044849Y-98909000D01*
X71844849Y-96365000D02*
X71844849Y-98909000D01*
X72124849Y-100989000D02*
X72124849Y-103367000D01*
X71004849Y-96024000D02*
X71004849Y-98909000D01*
X71644849Y-100989000D02*
X71644849Y-103635000D01*
X72404849Y-96729000D02*
X72404849Y-103169000D01*
X70804849Y-100989000D02*
X70804849Y-103925000D01*
X73164849Y-97495000D02*
X73164849Y-102403000D01*
X70123849Y-95875000D02*
X70123849Y-98909000D01*
X71804849Y-96343000D02*
X71804849Y-98909000D01*
X70563849Y-95925000D02*
X70563849Y-98909000D01*
X71164849Y-96072000D02*
X71164849Y-98909000D01*
X70003849Y-95870000D02*
X70003849Y-104028000D01*
X65874151Y-97234000D02*
X65874151Y-98034000D01*
X71084849Y-100989000D02*
X71084849Y-103851000D01*
X73524849Y-98059000D02*
X73524849Y-101839000D01*
X73604849Y-98218000D02*
X73604849Y-101680000D01*
X71884849Y-100989000D02*
X71884849Y-103511000D01*
X72004849Y-96456000D02*
X72004849Y-98909000D01*
X73084849Y-97393000D02*
X73084849Y-102505000D01*
X71924849Y-100989000D02*
X71924849Y-103489000D01*
X73724849Y-98496000D02*
X73724849Y-101402000D01*
X70203849Y-100989000D02*
X70203849Y-104017000D01*
X72524849Y-96825000D02*
X72524849Y-103073000D01*
X70163849Y-100989000D02*
X70163849Y-104020000D01*
X70924849Y-100989000D02*
X70924849Y-103896000D01*
X71844849Y-100989000D02*
X71844849Y-103533000D01*
X72844849Y-97123000D02*
X72844849Y-102775000D01*
X70363849Y-100989000D02*
X70363849Y-104001000D01*
X70523849Y-95919000D02*
X70523849Y-98909000D01*
X73204849Y-97549000D02*
X73204849Y-102349000D01*
X71124849Y-100989000D02*
X71124849Y-103838000D01*
X71964849Y-100989000D02*
X71964849Y-103466000D01*
X72764849Y-97042000D02*
X72764849Y-102856000D01*
X70684849Y-100989000D02*
X70684849Y-103951000D01*
X71524849Y-100989000D02*
X71524849Y-103689000D01*
X73404849Y-97847000D02*
X73404849Y-102051000D01*
X70483849Y-100989000D02*
X70483849Y-103986000D01*
X73804849Y-98720000D02*
X73804849Y-101178000D01*
X72044849Y-100989000D02*
X72044849Y-103418000D01*
X71564849Y-96227000D02*
X71564849Y-98909000D01*
X70203849Y-95881000D02*
X70203849Y-98909000D01*
X73764849Y-98603000D02*
X73764849Y-101295000D01*
X71484849Y-100989000D02*
X71484849Y-103706000D01*
X70644849Y-100989000D02*
X70644849Y-103959000D01*
X70083849Y-95873000D02*
X70083849Y-104025000D01*
X70724849Y-100989000D02*
X70724849Y-103943000D01*
X70844849Y-95982000D02*
X70844849Y-98909000D01*
X73124849Y-97444000D02*
X73124849Y-102454000D01*
X73444849Y-97915000D02*
X73444849Y-101983000D01*
X71244849Y-100989000D02*
X71244849Y-103799000D01*
X71324849Y-100989000D02*
X71324849Y-103770000D01*
X72084849Y-100989000D02*
X72084849Y-103393000D01*
X71324849Y-96128000D02*
X71324849Y-98909000D01*
X70283849Y-95888000D02*
X70283849Y-98909000D01*
X73844849Y-98851000D02*
X73844849Y-101047000D01*
X72684849Y-96966000D02*
X72684849Y-102932000D01*
X71204849Y-100989000D02*
X71204849Y-103812000D01*
X71684849Y-100989000D02*
X71684849Y-103615000D01*
X70644849Y-95939000D02*
X70644849Y-98909000D01*
X71364849Y-100989000D02*
X71364849Y-103754000D01*
X72804849Y-97082000D02*
X72804849Y-102816000D01*
X73324849Y-97721000D02*
X73324849Y-102177000D01*
X65474151Y-97634000D02*
X66274151Y-97634000D01*
X70724849Y-95955000D02*
X70724849Y-98909000D01*
X72564849Y-96859000D02*
X72564849Y-103039000D01*
X71244849Y-96099000D02*
X71244849Y-98909000D01*
X72364849Y-96699000D02*
X72364849Y-103199000D01*
X70403849Y-95901000D02*
X70403849Y-98909000D01*
X70163849Y-95878000D02*
X70163849Y-98909000D01*
X70043849Y-95872000D02*
X70043849Y-104026000D01*
X69883849Y-95869000D02*
X69883849Y-104029000D01*
X71404849Y-100989000D02*
X71404849Y-103739000D01*
X72284849Y-96640000D02*
X72284849Y-103258000D01*
X70243849Y-100989000D02*
X70243849Y-104014000D01*
X72724849Y-97004000D02*
X72724849Y-102894000D01*
X72084849Y-96505000D02*
X72084849Y-98909000D01*
X72964849Y-97252000D02*
X72964849Y-102646000D01*
X73684849Y-98397000D02*
X73684849Y-101501000D01*
X70604849Y-100989000D02*
X70604849Y-103966000D01*
X72484849Y-96793000D02*
X72484849Y-103105000D01*
X70243849Y-95884000D02*
X70243849Y-98909000D01*
X71044849Y-100989000D02*
X71044849Y-103863000D01*
X70483849Y-95912000D02*
X70483849Y-98909000D01*
X70323849Y-95892000D02*
X70323849Y-98909000D01*
X71164849Y-100989000D02*
X71164849Y-103826000D01*
X72444849Y-96760000D02*
X72444849Y-103138000D01*
X71644849Y-96263000D02*
X71644849Y-98909000D01*
X70604849Y-95932000D02*
X70604849Y-98909000D01*
X69923849Y-95869000D02*
X69923849Y-104029000D01*
X71444849Y-100989000D02*
X71444849Y-103723000D01*
X71284849Y-96114000D02*
X71284849Y-98909000D01*
X71684849Y-96283000D02*
X71684849Y-98909000D01*
X71804849Y-100989000D02*
X71804849Y-103555000D01*
X71884849Y-96387000D02*
X71884849Y-98909000D01*
X72244849Y-96611000D02*
X72244849Y-103287000D01*
X71484849Y-96192000D02*
X71484849Y-98909000D01*
X74003849Y-99949000D02*
G75*
G03*
X74003849Y-99949000I-4120000J0D01*
G01*
%TO.C,U1*%
X57613000Y-120870500D02*
X67853000Y-120870500D01*
X67853000Y-116229500D02*
X67853000Y-120870500D01*
X57613000Y-116229500D02*
X57613000Y-120870500D01*
X60883000Y-116229500D02*
X60883000Y-117739500D01*
X57613000Y-116229500D02*
X67853000Y-116229500D01*
X64584000Y-116229500D02*
X64584000Y-117739500D01*
X57613000Y-117739500D02*
X67853000Y-117739500D01*
%TO.C,C7*%
X69236000Y-89318752D02*
X69236000Y-87896248D01*
X67416000Y-89318752D02*
X67416000Y-87896248D01*
%TO.C,C3*%
X66600500Y-109981500D02*
X69381500Y-109981500D01*
X68608500Y-107741500D02*
X72234500Y-107741500D01*
X67366500Y-108701500D02*
X73476500Y-108701500D01*
X71461500Y-110101500D02*
X74284500Y-110101500D01*
X71461500Y-109541500D02*
X74048500Y-109541500D01*
X71461500Y-109381500D02*
X73961500Y-109381500D01*
X66427500Y-110581500D02*
X69381500Y-110581500D01*
X71461500Y-110742500D02*
X74445500Y-110742500D01*
X71461500Y-109741500D02*
X74143500Y-109741500D01*
X66341500Y-111422500D02*
X74501500Y-111422500D01*
X66496500Y-110301500D02*
X69381500Y-110301500D01*
X67402500Y-108661500D02*
X73440500Y-108661500D01*
X66571500Y-110061500D02*
X69381500Y-110061500D01*
X66647500Y-109861500D02*
X69381500Y-109861500D01*
X66344500Y-111262500D02*
X74498500Y-111262500D01*
X66699500Y-109741500D02*
X69381500Y-109741500D01*
X71461500Y-110701500D02*
X74438500Y-110701500D01*
X66364500Y-110982500D02*
X69381500Y-110982500D01*
X68457500Y-107821500D02*
X72385500Y-107821500D01*
X67770500Y-108301500D02*
X73072500Y-108301500D01*
X66507500Y-110261500D02*
X69381500Y-110261500D01*
X71461500Y-110021500D02*
X74256500Y-110021500D01*
X67476500Y-108581500D02*
X73366500Y-108581500D01*
X68968500Y-107581500D02*
X71874500Y-107581500D01*
X71461500Y-109181500D02*
X73839500Y-109181500D01*
X66664500Y-109821500D02*
X69381500Y-109821500D01*
X71461500Y-110261500D02*
X74335500Y-110261500D01*
X66474500Y-110381500D02*
X69381500Y-110381500D01*
X67706500Y-115432198D02*
X68506500Y-115432198D01*
X66404500Y-110701500D02*
X69381500Y-110701500D01*
X71461500Y-109261500D02*
X73890500Y-109261500D01*
X71461500Y-110902500D02*
X74469500Y-110902500D01*
X71461500Y-109141500D02*
X73813500Y-109141500D01*
X67438500Y-108621500D02*
X73404500Y-108621500D01*
X67265500Y-108821500D02*
X73577500Y-108821500D01*
X71461500Y-111142500D02*
X74492500Y-111142500D01*
X67112500Y-109021500D02*
X73730500Y-109021500D01*
X71461500Y-110982500D02*
X74478500Y-110982500D01*
X71461500Y-109301500D02*
X73914500Y-109301500D01*
X69323500Y-107461500D02*
X71519500Y-107461500D01*
X66464500Y-110421500D02*
X69381500Y-110421500D01*
X71461500Y-109701500D02*
X74125500Y-109701500D01*
X71461500Y-111022500D02*
X74482500Y-111022500D01*
X66445500Y-110501500D02*
X69381500Y-110501500D01*
X66391500Y-110782500D02*
X69381500Y-110782500D01*
X66384500Y-110822500D02*
X69381500Y-110822500D01*
X68076500Y-108061500D02*
X72766500Y-108061500D01*
X66815500Y-109501500D02*
X69381500Y-109501500D01*
X67916500Y-108181500D02*
X72926500Y-108181500D01*
X69473500Y-107421500D02*
X71369500Y-107421500D01*
X66558500Y-110101500D02*
X69381500Y-110101500D01*
X66837500Y-109461500D02*
X69381500Y-109461500D01*
X71461500Y-109221500D02*
X73865500Y-109221500D01*
X66904500Y-109341500D02*
X69381500Y-109341500D01*
X69653500Y-107381500D02*
X71189500Y-107381500D01*
X66544500Y-110141500D02*
X69381500Y-110141500D01*
X67232500Y-108861500D02*
X73610500Y-108861500D01*
X71461500Y-109941500D02*
X74226500Y-109941500D01*
X66411500Y-110661500D02*
X69381500Y-110661500D01*
X67297500Y-108781500D02*
X73545500Y-108781500D01*
X67967500Y-108141500D02*
X72875500Y-108141500D01*
X67865500Y-108221500D02*
X72977500Y-108221500D01*
X66436500Y-110541500D02*
X69381500Y-110541500D01*
X66360500Y-111022500D02*
X69381500Y-111022500D01*
X71461500Y-110541500D02*
X74406500Y-110541500D01*
X71461500Y-110221500D02*
X74323500Y-110221500D01*
X68776500Y-107661500D02*
X72066500Y-107661500D01*
X67083500Y-109061500D02*
X73759500Y-109061500D01*
X66356500Y-111062500D02*
X69381500Y-111062500D01*
X66532500Y-110181500D02*
X69381500Y-110181500D01*
X67056500Y-109101500D02*
X73786500Y-109101500D01*
X66397500Y-110742500D02*
X69381500Y-110742500D01*
X68387500Y-107861500D02*
X72455500Y-107861500D01*
X67680500Y-108381500D02*
X73162500Y-108381500D01*
X66373500Y-110902500D02*
X69381500Y-110902500D01*
X71461500Y-110782500D02*
X74451500Y-110782500D01*
X71461500Y-110381500D02*
X74368500Y-110381500D01*
X69888500Y-107341500D02*
X70954500Y-107341500D01*
X71461500Y-109901500D02*
X74211500Y-109901500D01*
X68531500Y-107781500D02*
X72311500Y-107781500D01*
X66717500Y-109701500D02*
X69381500Y-109701500D01*
X67003500Y-109181500D02*
X69381500Y-109181500D01*
X66952500Y-109261500D02*
X69381500Y-109261500D01*
X71461500Y-110661500D02*
X74431500Y-110661500D01*
X66341500Y-111382500D02*
X74501500Y-111382500D01*
X71461500Y-109661500D02*
X74107500Y-109661500D01*
X67817500Y-108261500D02*
X73025500Y-108261500D01*
X66631500Y-109901500D02*
X69381500Y-109901500D01*
X66859500Y-109421500D02*
X69381500Y-109421500D01*
X66586500Y-110021500D02*
X69381500Y-110021500D01*
X66616500Y-109941500D02*
X69381500Y-109941500D01*
X66774500Y-109581500D02*
X69381500Y-109581500D01*
X66379500Y-110862500D02*
X69381500Y-110862500D01*
X71461500Y-111062500D02*
X74486500Y-111062500D01*
X66755500Y-109621500D02*
X69381500Y-109621500D01*
X71461500Y-109501500D02*
X74027500Y-109501500D01*
X68690500Y-107701500D02*
X72152500Y-107701500D01*
X71461500Y-110862500D02*
X74463500Y-110862500D01*
X67029500Y-109141500D02*
X69381500Y-109141500D01*
X71461500Y-110061500D02*
X74271500Y-110061500D01*
X66881500Y-109381500D02*
X69381500Y-109381500D01*
X71461500Y-109621500D02*
X74087500Y-109621500D01*
X71461500Y-109781500D02*
X74161500Y-109781500D01*
X71461500Y-109861500D02*
X74195500Y-109861500D01*
X71461500Y-109421500D02*
X73983500Y-109421500D01*
X71461500Y-110341500D02*
X74357500Y-110341500D01*
X68106500Y-115832198D02*
X68106500Y-115032198D01*
X66419500Y-110621500D02*
X69381500Y-110621500D01*
X71461500Y-109341500D02*
X73938500Y-109341500D01*
X66353500Y-111102500D02*
X69381500Y-111102500D01*
X71461500Y-110621500D02*
X74423500Y-110621500D01*
X71461500Y-109821500D02*
X74178500Y-109821500D01*
X66977500Y-109221500D02*
X69381500Y-109221500D01*
X67724500Y-108341500D02*
X73118500Y-108341500D01*
X67171500Y-108941500D02*
X73671500Y-108941500D01*
X66794500Y-109541500D02*
X69381500Y-109541500D01*
X68319500Y-107901500D02*
X72523500Y-107901500D01*
X71461500Y-110501500D02*
X74397500Y-110501500D01*
X66350500Y-111142500D02*
X69381500Y-111142500D01*
X71461500Y-111182500D02*
X74495500Y-111182500D01*
X71461500Y-110461500D02*
X74388500Y-110461500D01*
X66735500Y-109661500D02*
X69381500Y-109661500D01*
X67637500Y-108421500D02*
X73205500Y-108421500D01*
X66342500Y-111302500D02*
X74500500Y-111302500D01*
X69075500Y-107541500D02*
X71767500Y-107541500D01*
X71461500Y-110421500D02*
X74378500Y-110421500D01*
X67554500Y-108501500D02*
X73288500Y-108501500D01*
X67595500Y-108461500D02*
X73247500Y-108461500D01*
X71461500Y-110181500D02*
X74310500Y-110181500D01*
X66928500Y-109301500D02*
X69381500Y-109301500D01*
X68193500Y-107981500D02*
X72649500Y-107981500D01*
X68869500Y-107621500D02*
X71973500Y-107621500D01*
X66519500Y-110221500D02*
X69381500Y-110221500D01*
X71461500Y-109581500D02*
X74068500Y-109581500D01*
X71461500Y-109981500D02*
X74242500Y-109981500D01*
X66454500Y-110461500D02*
X69381500Y-110461500D01*
X71461500Y-111102500D02*
X74489500Y-111102500D01*
X71461500Y-110822500D02*
X74458500Y-110822500D01*
X71461500Y-110581500D02*
X74415500Y-110581500D01*
X66345500Y-111222500D02*
X74497500Y-111222500D01*
X68021500Y-108101500D02*
X72821500Y-108101500D01*
X71461500Y-110942500D02*
X74473500Y-110942500D01*
X68134500Y-108021500D02*
X72708500Y-108021500D01*
X66341500Y-111342500D02*
X74501500Y-111342500D01*
X69192500Y-107501500D02*
X71650500Y-107501500D01*
X67201500Y-108901500D02*
X73641500Y-108901500D01*
X68255500Y-107941500D02*
X72587500Y-107941500D01*
X66369500Y-110942500D02*
X69381500Y-110942500D01*
X71461500Y-110141500D02*
X74298500Y-110141500D01*
X66485500Y-110341500D02*
X69381500Y-110341500D01*
X67514500Y-108541500D02*
X73328500Y-108541500D01*
X67141500Y-108981500D02*
X73701500Y-108981500D01*
X67331500Y-108741500D02*
X73511500Y-108741500D01*
X71461500Y-110301500D02*
X74346500Y-110301500D01*
X71461500Y-109461500D02*
X74005500Y-109461500D01*
X66347500Y-111182500D02*
X69381500Y-111182500D01*
X66681500Y-109781500D02*
X69381500Y-109781500D01*
X74541500Y-111422500D02*
G75*
G03*
X74541500Y-111422500I-4120000J0D01*
G01*
%TO.C,C6*%
X108183000Y-75132748D02*
X108183000Y-76555252D01*
X110003000Y-75132748D02*
X110003000Y-76555252D01*
%TO.C,U4*%
X62738000Y-91333000D02*
X64688000Y-91333000D01*
X62738000Y-91333000D02*
X60788000Y-91333000D01*
X62738000Y-86213000D02*
X59288000Y-86213000D01*
X62738000Y-86213000D02*
X64688000Y-86213000D01*
%TO.C,C9*%
X50839500Y-79886000D02*
X48213500Y-79886000D01*
X54107500Y-81526000D02*
X49651500Y-81526000D01*
X53225500Y-81966000D02*
X50533500Y-81966000D01*
X55768500Y-79326000D02*
X52919500Y-79326000D01*
X50839500Y-79646000D02*
X48105500Y-79646000D01*
X53431500Y-81886000D02*
X50327500Y-81886000D01*
X55636500Y-79686000D02*
X52919500Y-79686000D01*
X55953500Y-78325000D02*
X52919500Y-78325000D01*
X55217500Y-80446000D02*
X48541500Y-80446000D01*
X50839500Y-80046000D02*
X48295500Y-80046000D01*
X52977500Y-82046000D02*
X50781500Y-82046000D01*
X55916500Y-78685000D02*
X52919500Y-78685000D01*
X50839500Y-79006000D02*
X47903500Y-79006000D01*
X50839500Y-78645000D02*
X47837500Y-78645000D01*
X50839500Y-78926000D02*
X47885500Y-78926000D01*
X53692500Y-81766000D02*
X50066500Y-81766000D01*
X52412500Y-82166000D02*
X51346500Y-82166000D01*
X50839500Y-78325000D02*
X47805500Y-78325000D01*
X50839500Y-79766000D02*
X48157500Y-79766000D01*
X50839500Y-79206000D02*
X47954500Y-79206000D01*
X55583500Y-79806000D02*
X52919500Y-79806000D01*
X55955500Y-78285000D02*
X47803500Y-78285000D01*
X50839500Y-79606000D02*
X48089500Y-79606000D01*
X50839500Y-78886000D02*
X47877500Y-78886000D01*
X52827500Y-82086000D02*
X50931500Y-82086000D01*
X55950500Y-78365000D02*
X52919500Y-78365000D01*
X50839500Y-78806000D02*
X47862500Y-78806000D01*
X54483500Y-81246000D02*
X49275500Y-81246000D01*
X55419500Y-80126000D02*
X52919500Y-80126000D01*
X50839500Y-80006000D02*
X48273500Y-80006000D01*
X50839500Y-80206000D02*
X48386500Y-80206000D01*
X50839500Y-78365000D02*
X47808500Y-78365000D01*
X53913500Y-81646000D02*
X49845500Y-81646000D01*
X55959500Y-78085000D02*
X47799500Y-78085000D01*
X55684500Y-79566000D02*
X52919500Y-79566000D01*
X50839500Y-79686000D02*
X48122500Y-79686000D01*
X55927500Y-78605000D02*
X52919500Y-78605000D01*
X54862500Y-80886000D02*
X48896500Y-80886000D01*
X53981500Y-81606000D02*
X49777500Y-81606000D01*
X55781500Y-79286000D02*
X52919500Y-79286000D01*
X54663500Y-81086000D02*
X49095500Y-81086000D01*
X55653500Y-79646000D02*
X52919500Y-79646000D01*
X55909500Y-78725000D02*
X52919500Y-78725000D01*
X50839500Y-79926000D02*
X48232500Y-79926000D01*
X55855500Y-79006000D02*
X52919500Y-79006000D01*
X55601500Y-79766000D02*
X52919500Y-79766000D01*
X55526500Y-79926000D02*
X52919500Y-79926000D01*
X55931500Y-78565000D02*
X52919500Y-78565000D01*
X50839500Y-79286000D02*
X47977500Y-79286000D01*
X50839500Y-78485000D02*
X47818500Y-78485000D01*
X55099500Y-80606000D02*
X48659500Y-80606000D01*
X50839500Y-79566000D02*
X48074500Y-79566000D01*
X50839500Y-80166000D02*
X48362500Y-80166000D01*
X55956500Y-78245000D02*
X47802500Y-78245000D01*
X55441500Y-80086000D02*
X52919500Y-80086000D01*
X55669500Y-79606000D02*
X52919500Y-79606000D01*
X55244500Y-80406000D02*
X48514500Y-80406000D01*
X55188500Y-80486000D02*
X48570500Y-80486000D01*
X50839500Y-79806000D02*
X48175500Y-79806000D01*
X54594500Y-74075302D02*
X53794500Y-74075302D01*
X50839500Y-79486000D02*
X48044500Y-79486000D01*
X53610500Y-81806000D02*
X50148500Y-81806000D01*
X55804500Y-79206000D02*
X52919500Y-79206000D01*
X53524500Y-81846000D02*
X50234500Y-81846000D01*
X54166500Y-81486000D02*
X49592500Y-81486000D01*
X50839500Y-79326000D02*
X47990500Y-79326000D01*
X54934500Y-80806000D02*
X48824500Y-80806000D01*
X55372500Y-80206000D02*
X52919500Y-80206000D01*
X50839500Y-79086000D02*
X47922500Y-79086000D01*
X50839500Y-80326000D02*
X48461500Y-80326000D01*
X55793500Y-79246000D02*
X52919500Y-79246000D01*
X53843500Y-81686000D02*
X49915500Y-81686000D01*
X55958500Y-78205000D02*
X47800500Y-78205000D01*
X55944500Y-78445000D02*
X52919500Y-78445000D01*
X55545500Y-79886000D02*
X52919500Y-79886000D01*
X54969500Y-80766000D02*
X48789500Y-80766000D01*
X55947500Y-78405000D02*
X52919500Y-78405000D01*
X55756500Y-79366000D02*
X52919500Y-79366000D01*
X50839500Y-79406000D02*
X48016500Y-79406000D01*
X50839500Y-79526000D02*
X48058500Y-79526000D01*
X55565500Y-79846000D02*
X52919500Y-79846000D01*
X55896500Y-78806000D02*
X52919500Y-78806000D01*
X55921500Y-78645000D02*
X52919500Y-78645000D01*
X54194500Y-73675302D02*
X54194500Y-74475302D01*
X54333500Y-81366000D02*
X49425500Y-81366000D01*
X55873500Y-78926000D02*
X52919500Y-78926000D01*
X50839500Y-79046000D02*
X47912500Y-79046000D01*
X55003500Y-80726000D02*
X48755500Y-80726000D01*
X55485500Y-80006000D02*
X52919500Y-80006000D01*
X50839500Y-80246000D02*
X48410500Y-80246000D01*
X55129500Y-80566000D02*
X48629500Y-80566000D01*
X55826500Y-79126000D02*
X52919500Y-79126000D01*
X50839500Y-78966000D02*
X47894500Y-78966000D01*
X50839500Y-80086000D02*
X48317500Y-80086000D01*
X55959500Y-78165000D02*
X47799500Y-78165000D01*
X55864500Y-78966000D02*
X52919500Y-78966000D01*
X50839500Y-79726000D02*
X48139500Y-79726000D01*
X54898500Y-80846000D02*
X48860500Y-80846000D01*
X50839500Y-80286000D02*
X48435500Y-80286000D01*
X55815500Y-79166000D02*
X52919500Y-79166000D01*
X54576500Y-81166000D02*
X49182500Y-81166000D01*
X55936500Y-78525000D02*
X52919500Y-78525000D01*
X53332500Y-81926000D02*
X50426500Y-81926000D01*
X50839500Y-79166000D02*
X47943500Y-79166000D01*
X54224500Y-81446000D02*
X49534500Y-81446000D01*
X53769500Y-81726000D02*
X49989500Y-81726000D01*
X50839500Y-78725000D02*
X47849500Y-78725000D01*
X54279500Y-81406000D02*
X49479500Y-81406000D01*
X50839500Y-79446000D02*
X48029500Y-79446000D01*
X54824500Y-80926000D02*
X48934500Y-80926000D01*
X55729500Y-79446000D02*
X52919500Y-79446000D01*
X55903500Y-78765000D02*
X52919500Y-78765000D01*
X50839500Y-79126000D02*
X47932500Y-79126000D01*
X54045500Y-81566000D02*
X49713500Y-81566000D01*
X50839500Y-78765000D02*
X47855500Y-78765000D01*
X54530500Y-81206000D02*
X49228500Y-81206000D01*
X55323500Y-80286000D02*
X52919500Y-80286000D01*
X54786500Y-80966000D02*
X48972500Y-80966000D01*
X55271500Y-80366000D02*
X52919500Y-80366000D01*
X55348500Y-80246000D02*
X52919500Y-80246000D01*
X50839500Y-79966000D02*
X48252500Y-79966000D01*
X54620500Y-81126000D02*
X49138500Y-81126000D01*
X55506500Y-79966000D02*
X52919500Y-79966000D01*
X55714500Y-79486000D02*
X52919500Y-79486000D01*
X55396500Y-80166000D02*
X52919500Y-80166000D01*
X55742500Y-79406000D02*
X52919500Y-79406000D01*
X55619500Y-79726000D02*
X52919500Y-79726000D01*
X50839500Y-78846000D02*
X47869500Y-78846000D01*
X55035500Y-80686000D02*
X48723500Y-80686000D01*
X50839500Y-78525000D02*
X47822500Y-78525000D01*
X50839500Y-80366000D02*
X48487500Y-80366000D01*
X55889500Y-78846000D02*
X52919500Y-78846000D01*
X55297500Y-80326000D02*
X52919500Y-80326000D01*
X50839500Y-79366000D02*
X48002500Y-79366000D01*
X54746500Y-81006000D02*
X49012500Y-81006000D01*
X55159500Y-80526000D02*
X48599500Y-80526000D01*
X55881500Y-78886000D02*
X52919500Y-78886000D01*
X53108500Y-82006000D02*
X50650500Y-82006000D01*
X54384500Y-81326000D02*
X49374500Y-81326000D01*
X50839500Y-80126000D02*
X48339500Y-80126000D01*
X55959500Y-78125000D02*
X47799500Y-78125000D01*
X50839500Y-78685000D02*
X47842500Y-78685000D01*
X55463500Y-80046000D02*
X52919500Y-80046000D01*
X50839500Y-78605000D02*
X47831500Y-78605000D01*
X54705500Y-81046000D02*
X49053500Y-81046000D01*
X54435500Y-81286000D02*
X49323500Y-81286000D01*
X50839500Y-78405000D02*
X47811500Y-78405000D01*
X50839500Y-78565000D02*
X47827500Y-78565000D01*
X55700500Y-79526000D02*
X52919500Y-79526000D01*
X52647500Y-82126000D02*
X51111500Y-82126000D01*
X50839500Y-78445000D02*
X47814500Y-78445000D01*
X50839500Y-79846000D02*
X48193500Y-79846000D01*
X55068500Y-80646000D02*
X48690500Y-80646000D01*
X55940500Y-78485000D02*
X52919500Y-78485000D01*
X55836500Y-79086000D02*
X52919500Y-79086000D01*
X50839500Y-79246000D02*
X47965500Y-79246000D01*
X55846500Y-79046000D02*
X52919500Y-79046000D01*
X55999500Y-78085000D02*
G75*
G03*
X55999500Y-78085000I-4120000J0D01*
G01*
%TO.C,U3*%
X100006000Y-82005500D02*
X100006000Y-87305500D01*
X110286000Y-83655500D02*
X110286000Y-82005500D01*
X110286000Y-82005500D02*
X100006000Y-82005500D01*
X99946000Y-79515500D02*
X99946000Y-89795500D01*
X110286000Y-87305500D02*
X110286000Y-85655500D01*
X100006000Y-87305500D02*
X110286000Y-87305500D01*
X110346000Y-79515500D02*
X99946000Y-79515500D01*
X110346000Y-89795500D02*
X110346000Y-79515500D01*
X99946000Y-89795500D02*
X110346000Y-89795500D01*
X110286000Y-83655500D02*
G75*
G03*
X110286000Y-85655500I0J-1000000D01*
G01*
%TO.C,R5*%
X123222500Y-100266500D02*
X120062500Y-100266500D01*
X125062500Y-100266500D02*
G75*
G03*
X125062500Y-100266500I-920000J0D01*
G01*
%TO.C,J3*%
X56388000Y-96587000D02*
X51248000Y-96587000D01*
X51248000Y-96587000D02*
X51248000Y-99247000D01*
X57658000Y-96587000D02*
X58988000Y-96587000D01*
X56388000Y-96587000D02*
X56388000Y-99247000D01*
X58988000Y-96587000D02*
X58988000Y-97917000D01*
X56388000Y-99247000D02*
X51248000Y-99247000D01*
%TO.C,R6*%
X127255500Y-115189000D02*
G75*
G03*
X127255500Y-115189000I-2620000J0D01*
G01*
X122015500Y-115189000D02*
X118515500Y-115189000D01*
%TO.C,R4*%
X128570000Y-105981500D02*
X125410000Y-105981500D01*
X130410000Y-105981500D02*
G75*
G03*
X130410000Y-105981500I-920000J0D01*
G01*
D12*
%TO.C,TB1*%
X78676500Y-76644500D02*
X96456500Y-76644500D01*
X96456500Y-119824500D02*
X78676500Y-119824500D01*
X78676500Y-119824500D02*
X78676500Y-76644500D01*
X96456500Y-76644500D02*
X96456500Y-119824500D01*
D13*
X97866500Y-116034500D02*
G75*
G03*
X97866500Y-116034500I-100000J0D01*
G01*
D11*
%TO.C,J1*%
X113466000Y-116392000D02*
X113466000Y-113732000D01*
X110866000Y-116392000D02*
X113466000Y-116392000D01*
X110866000Y-113732000D02*
X113466000Y-113732000D01*
X108266000Y-116392000D02*
X108266000Y-115062000D01*
X109596000Y-116392000D02*
X108266000Y-116392000D01*
X110866000Y-116392000D02*
X110866000Y-113732000D01*
%TO.C,C1*%
X121614748Y-81132000D02*
X123037252Y-81132000D01*
X121614748Y-82952000D02*
X123037252Y-82952000D01*
%TO.C,C5*%
X113114500Y-75171248D02*
X113114500Y-76593752D01*
X111294500Y-75171248D02*
X111294500Y-76593752D01*
%TD*%
M02*
